<svg width="24" height="24" viewBox="0 0 24 24" fill="none" xmlns="http://www.w3.org/2000/svg">
<path fill-rule="evenodd" clip-rule="evenodd" d="M16.3403 9.32714C17.0463 9.32714 17.5883 9.60114 17.9643 10.1471C18.3423 10.6941 18.5343 11.4741 18.5413 12.4871V13.8631C18.5413 14.9071 18.3513 15.7071 17.9723 16.2601C17.5943 16.8141 17.0533 17.0911 16.3513 17.0911C15.6553 17.0911 15.1183 16.8211 14.7393 16.2831C14.3613 15.7461 14.1643 14.9751 14.1503 13.9721V12.5451C14.1503 11.5031 14.3393 10.7071 14.7163 10.1551C15.0933 9.60314 15.6353 9.32714 16.3403 9.32714ZM6.33282 9.32724C7.02782 9.32724 7.57282 9.51924 7.96782 9.90324C8.36182 10.2872 8.55882 10.8132 8.55882 11.4802C8.55882 11.8232 8.46982 12.1412 8.29182 12.4332C8.11382 12.7252 7.87982 12.9492 7.58882 13.1052C7.94482 13.2572 8.21082 13.4852 8.38482 13.7902C8.55982 14.0942 8.64782 14.4542 8.64782 14.8692C8.64782 15.5412 8.43382 16.0792 8.00582 16.4832C7.57882 16.8882 7.01782 17.0902 6.32282 17.0902C5.67582 17.0902 5.15082 16.8912 4.74782 16.4912C4.34482 16.0912 4.14282 15.5662 4.14282 14.9162H5.61182C5.61182 15.1862 5.68282 15.4132 5.82382 15.5962C5.96582 15.7792 6.14582 15.8712 6.36382 15.8712C6.61682 15.8712 6.81682 15.7772 6.96382 15.5912C7.10982 15.4042 7.18382 15.1552 7.18382 14.8432C7.18382 14.1002 6.89482 13.7262 6.31782 13.7232H5.59582V12.5402H6.30682C6.57682 12.5402 6.77482 12.4452 6.90182 12.2562C7.02682 12.0682 7.09082 11.8162 7.09082 11.5012C7.09082 11.2012 7.02582 10.9662 6.89582 10.7982C6.76582 10.6302 6.59182 10.5462 6.37482 10.5462C6.17082 10.5462 6.00382 10.6262 5.87382 10.7852C5.74382 10.9442 5.67882 11.1452 5.67882 11.3872H4.21082C4.21082 10.9932 4.30082 10.6392 4.48282 10.3262C4.66482 10.0132 4.91882 9.76824 5.24582 9.59224C5.57282 9.41624 5.93482 9.32724 6.33282 9.32724ZM12.6872 9.35354V10.5985H12.6042C12.0542 10.6025 11.6172 10.7675 11.2932 11.0945C10.9702 11.4215 10.7742 11.8785 10.7042 12.4675C11.0192 12.1075 11.4132 11.9265 11.8872 11.9265C12.4342 11.9265 12.8712 12.1605 13.1982 12.6275C13.5252 13.0945 13.6882 13.7175 13.6882 14.4955C13.6882 14.9905 13.5952 15.4365 13.4082 15.8345C13.2212 16.2325 12.9592 16.5415 12.6222 16.7605C12.2842 16.9805 11.9032 17.0905 11.4782 17.0905C10.7932 17.0905 10.2432 16.8155 9.83022 16.2655C9.41722 15.7155 9.21022 14.9745 9.21022 14.0445V13.4995C9.21022 12.6655 9.34122 11.9355 9.60222 11.3095C9.86322 10.6835 10.2402 10.2015 10.7332 9.86454C11.2262 9.52754 11.8012 9.35654 12.4582 9.35354H12.6872ZM16.3403 10.5471C15.8733 10.5471 15.6313 11.0911 15.6143 12.1811V14.0651C15.6143 14.6741 15.6733 15.1271 15.7933 15.4241C15.9123 15.7221 16.0983 15.8711 16.3513 15.8711C16.5893 15.8711 16.7673 15.7321 16.8833 15.4531C16.9993 15.1751 17.0603 14.7481 17.0673 14.1741V12.3321C17.0673 11.7371 17.0083 11.2911 16.8913 10.9931C16.7733 10.6951 16.5893 10.5471 16.3403 10.5471ZM11.4262 13.1415C11.2392 13.1415 11.0822 13.2005 10.9562 13.3185C10.8302 13.4355 10.7362 13.5805 10.6732 13.7535V14.2825C10.6732 14.8165 10.7442 15.2135 10.8862 15.4765C11.0282 15.7395 11.2152 15.8705 11.4472 15.8705C11.6822 15.8705 11.8702 15.7435 12.0122 15.4895C12.1542 15.2355 12.2252 14.9095 12.2252 14.5115C12.2252 14.1065 12.1512 13.7775 12.0042 13.5225C11.8572 13.2685 11.6642 13.1415 11.4262 13.1415ZM18.7622 6.90894C19.3662 6.90894 19.8572 7.39694 19.8572 7.99794C19.8572 8.59594 19.3662 9.08694 18.7622 9.08694C18.1612 9.08694 17.6702 8.59594 17.6702 7.99794C17.6702 7.39694 18.1612 6.90894 18.7622 6.90894ZM18.7622 7.62594C18.5542 7.62594 18.3872 7.79394 18.3872 7.99794C18.3872 8.20294 18.5542 8.36994 18.7622 8.36994C18.9702 8.36994 19.1402 8.20294 19.1402 7.99794C19.1402 7.79394 18.9702 7.62594 18.7622 7.62594Z" fill="black"/>
</svg>
