<svg width="20" height="20" viewBox="0 0 20 20" fill="none" xmlns="http://www.w3.org/2000/svg">
<g clip-path="url(#clip0_702_216)">
<path d="M18.375 9.25H10.75V1.625C10.75 1.211 10.414 0.875 10 0.875C9.586 0.875 9.25 1.211 9.25 1.625V9.25H1.625C1.211 9.25 0.875 9.586 0.875 10C0.875 10.414 1.211 10.75 1.625 10.75H9.25V18.375C9.25 18.789 9.586 19.125 10 19.125C10.414 19.125 10.75 18.789 10.75 18.375V10.75H18.375C18.789 10.75 19.125 10.414 19.125 10C19.125 9.586 18.789 9.25 18.375 9.25Z" fill="black"/>
</g>
<defs>
<clipPath id="clip0_702_216">
<rect width="20" height="20" fill="white"/>
</clipPath>
</defs>
</svg>
