<svg width="24" height="24" viewBox="0 0 24 24" fill="none" xmlns="http://www.w3.org/2000/svg">
<path d="M12 2.75C17.109 2.75 21.25 6.89167 21.25 12.001C21.25 17.1093 17.109 21.25 12 21.25C6.89167 21.25 2.75 17.109 2.75 12.001C2.75 6.892 6.89167 2.75 12 2.75ZM12 4.25C7.72 4.25 4.25 7.72033 4.25 12.001C4.25 16.2807 7.72 19.75 12 19.75C16.2807 19.75 19.75 16.281 19.75 12.001C19.75 7.72 16.2807 4.25 12 4.25ZM13 10.1367V17.0087C13 17.423 12.664 17.7587 12.25 17.7587C11.8703 17.7587 11.5563 17.4763 11.507 17.1107L11.5 17.0087V11.636L10.332 11.6367C9.95233 11.6367 9.63833 11.3547 9.589 10.9887L9.582 10.8867C9.582 10.507 9.864 10.1933 10.2303 10.1437L10.332 10.1367H13ZM12.0553 6.96533C12.6077 6.96533 13.0553 7.41333 13.0553 7.96533C13.0553 8.51733 12.6073 8.96533 12.0553 8.96533C11.5033 8.96533 11.0553 8.51733 11.0553 7.96533C11.0553 7.41333 11.5033 6.96533 12.0553 6.96533Z" fill="black"/>
</svg>
