<svg width="24" height="24" viewBox="0 0 24 24" fill="none" xmlns="http://www.w3.org/2000/svg">
<path d="M15.6863 14.4875L15.1643 15.0085C14.6963 15.4765 14.3213 15.5745 13.9573 15.5685C13.6603 15.5635 13.2673 15.3545 13.1783 15.2955C10.2563 13.6235 8.88132 11.1905 8.61232 10.6695C8.59532 10.6365 8.44732 10.3395 8.43132 10.0415C8.41232 9.67855 8.52232 9.30355 8.99132 8.83555L9.51332 8.31354C9.97632 7.84754 10.0843 7.47255 10.0683 7.11255C10.0513 6.74855 9.90632 6.36155 9.39232 5.84755L8.09632 4.55255C7.58332 4.03855 7.19532 3.89355 6.83232 3.87655C6.47032 3.85955 6.09632 3.96755 5.63032 4.43155L5.62732 4.43455L5.62532 4.43555C4.14832 5.91555 3.81432 7.32454 3.88332 8.78554C3.92732 9.69354 4.16832 10.6405 4.84332 11.7255C4.84332 11.7255 7.23132 15.6335 11.8473 18.8725C11.9013 18.9105 11.9563 18.9485 12.0103 18.9845C12.0923 19.0405 12.2633 19.1535 12.2653 19.1515C13.3533 19.8305 14.3033 20.0725 15.2153 20.1165C16.6753 20.1855 18.0843 19.8515 19.5633 18.3745L19.5653 18.3725L19.5683 18.3685C20.0333 17.9045 20.1413 17.5295 20.1233 17.1675C20.1063 16.8045 19.9613 16.4165 19.4463 15.9045L18.1523 14.6085C17.6393 14.0935 17.2513 13.9485 16.8873 13.9315C16.5263 13.9155 16.1513 14.0235 15.6863 14.4875Z" stroke="black" stroke-width="1.5" stroke-linecap="round" stroke-linejoin="round"/>
</svg>
