<svg width="24" height="24" viewBox="0 0 24 24" fill="none" xmlns="http://www.w3.org/2000/svg">
<path d="M12.6382 4.13262L14.6892 8.22162C14.7982 8.55862 15.1122 8.78662 15.4662 8.78662L19.7932 9.60362C20.5852 9.60362 20.9142 10.6166 20.2742 11.0826L17.1492 14.2186C16.8632 14.4266 16.7432 14.7966 16.8522 15.1326L17.5412 19.4936C17.7852 20.2476 16.9242 20.8736 16.2832 20.4076L12.3412 18.0896C12.0552 17.8816 11.6672 17.8816 11.3802 18.0896L7.43824 20.4076C6.79824 20.8736 5.93624 20.2476 6.18024 19.4936L6.86824 15.1326C6.97824 14.7966 6.85824 14.4266 6.57224 14.2186L3.44824 11.0826C2.80724 10.6166 3.13624 9.60362 3.92824 9.60362L8.25524 8.78662C8.60924 8.78662 8.92324 8.55862 9.03324 8.22162L11.0832 4.13262C11.3282 3.37962 12.3932 3.37962 12.6382 4.13262Z" stroke="black" stroke-width="1.5" stroke-linecap="round" stroke-linejoin="round"/>
</svg>
