<svg width="24" height="24" viewBox="0 0 24 24" fill="none" xmlns="http://www.w3.org/2000/svg">
<mask id="mask0_702_230" style="mask-type:luminance" maskUnits="userSpaceOnUse" x="10" y="4" width="4" height="16">
<path d="M12 16.75C12.8684 16.75 13.5 17.3816 13.5 18.25C13.5 19.1184 12.8684 19.75 12 19.75C11.2105 19.75 10.5 19.1184 10.5 18.25C10.5 17.3816 11.1316 16.75 12 16.75ZM12 10.5C12.8684 10.5 13.5 11.1316 13.5 12C13.5 12.8684 12.8684 13.5 12 13.5C11.2105 13.5 10.5 12.8684 10.5 12C10.5 11.1316 11.1316 10.5 12 10.5ZM12 4.25C12.7895 4.25 13.5 4.8816 13.5 5.75C13.5 6.6184 12.8684 7.25 12 7.25C11.2105 7.25 10.5 6.6184 10.5 5.75C10.5 4.8816 11.1316 4.25 12 4.25Z" fill="white"/>
</mask>
<g mask="url(#mask0_702_230)">
<path fill-rule="evenodd" clip-rule="evenodd" d="M0 0H24V24H0V0Z" fill="black"/>
</g>
</svg>
