<svg width="24" height="24" viewBox="0 0 24 24" fill="none" xmlns="http://www.w3.org/2000/svg">
<path d="M2.719 16.094C3.185 16.094 3.563 16.473 3.563 16.938V18.723C3.563 19.497 4.194 20.129 4.969 20.129H6.436C6.902 20.129 7.28 20.506 7.28 20.973C7.28 21.44 6.902 21.817 6.436 21.817H4.969C3.263 21.817 1.875 20.429 1.875 18.723V16.938C1.875 16.473 2.253 16.094 2.719 16.094ZM21.281 16.375C21.747 16.375 22.125 16.754 22.125 17.219V18.723C22.125 20.429 20.738 21.817 19.031 21.817H17.564C17.097 21.817 16.72 21.44 16.72 20.973C16.72 20.506 17.097 20.129 17.564 20.129H19.031C19.806 20.129 20.437 19.497 20.437 18.723V17.219C20.438 16.754 20.815 16.375 21.281 16.375ZM9.156 13.889C9.853 13.889 10.422 14.455 10.422 15.155V17.066C10.422 17.763 9.854 18.332 9.156 18.332H7.244C6.546 18.332 5.978 17.764 5.978 17.066V15.155C5.978 14.456 6.545 13.889 7.244 13.889H9.156ZM14.408 11.46V12.969H17.483V14.481H14.408V15.992H17.483V17.504H14.399V15.992H12.901V17.504H11.359V15.992H12.865V14.48H11.335V12.968H12.865V11.46H14.408ZM9.016 15.295H7.386V16.925H9.016V15.295ZM14.399 12.969H12.877V14.481H14.399V12.969ZM7.87 11.459V12.969H6.328V11.459H7.87ZM11.331 11.424V12.935H8.914V11.424H11.331ZM12.885 9.00698V11.424H11.375V9.00698H12.885ZM17.016 6.02698C17.713 6.02698 18.282 6.59498 18.282 7.29298V9.20498C18.282 9.90198 17.714 10.471 17.016 10.471H15.106C14.407 10.471 13.84 9.90298 13.84 9.20498V7.29298C13.84 6.59598 14.406 6.02698 15.106 6.02698H17.016ZM9.156 6.02698C9.853 6.02698 10.422 6.59498 10.422 7.29298V9.20498C10.422 9.90198 9.854 10.471 9.156 10.471H7.244C6.546 10.471 5.978 9.90298 5.978 9.20498V7.29298C5.978 6.59598 6.545 6.02698 7.244 6.02698H9.156ZM16.875 7.43398H15.246V9.06398H16.875V7.43398ZM9.015 7.43398H7.385V9.06398H9.015V7.43398ZM12.877 6.27698V7.78798H11.335V6.27698H12.877ZM6.436 2.18398C6.902 2.18398 7.28 2.56098 7.28 3.02798C7.28 3.49398 6.902 3.87198 6.436 3.87198H4.969C4.194 3.87198 3.563 4.50298 3.563 5.27798V6.77998C3.563 7.24598 3.185 7.62398 2.719 7.62398C2.253 7.62398 1.875 7.24598 1.875 6.77998V5.27698C1.875 3.56998 3.263 2.18298 4.969 2.18298L6.436 2.18398ZM19.031 2.18398C20.738 2.18398 22.125 3.57098 22.125 5.27798V6.77998C22.125 7.24598 21.747 7.62398 21.281 7.62398C20.815 7.62398 20.437 7.24598 20.437 6.77998V5.27698C20.437 4.50198 19.806 3.87098 19.031 3.87098H17.564C17.097 3.87098 16.72 3.49298 16.72 3.02698C16.72 2.55998 17.097 2.18298 17.564 2.18298L19.031 2.18398Z" fill="black"/>
</svg>
