<svg width="24" height="24" viewBox="0 0 24 24" fill="none" xmlns="http://www.w3.org/2000/svg">
<path fill-rule="evenodd" clip-rule="evenodd" d="M4.78766 10.4115C4.78766 7.30948 7.31066 4.78748 10.4127 4.78748C13.5147 4.78748 16.0377 7.30948 16.0377 10.4115C16.0377 13.5135 13.5147 16.0375 10.4127 16.0375C7.31066 16.0375 4.78766 13.5135 4.78766 10.4115ZM20.4927 19.4325L15.9507 14.8895C16.9417 13.6645 17.5377 12.1065 17.5377 10.4115C17.5377 6.48248 14.3417 3.28748 10.4127 3.28748C6.48366 3.28748 3.28766 6.48248 3.28766 10.4115C3.28766 14.3405 6.48366 17.5375 10.4127 17.5375C12.1067 17.5375 13.6657 16.9405 14.8897 15.9495L19.4327 20.4925C19.5787 20.6395 19.7707 20.7125 19.9627 20.7125C20.1547 20.7125 20.3467 20.6395 20.4927 20.4925C20.7857 20.1995 20.7857 19.7245 20.4927 19.4325Z" fill="black"/>
</svg>
