<svg width="24" height="24" viewBox="0 0 24 24" fill="none" xmlns="http://www.w3.org/2000/svg">
<path d="M18.849 8.49817H5.152C4.516 8.49817 4 9.01217 4 9.64817C4 10.2842 4.516 10.7992 5.152 10.7992L8.903 11.0922C9.015 11.1002 9.11 11.1782 9.138 11.2852C9.287 11.8662 9.363 12.2522 9.363 12.8542C9.363 13.1082 9.328 13.3622 9.261 13.6062L7.33 20.3832C7.165 20.9972 7.531 21.6272 8.144 21.7932C8.76 21.9582 9.391 21.5942 9.555 20.9802L11.689 15.6342H12.065L14.199 20.9802C14.363 21.5942 14.995 21.9582 15.61 21.7932C16.223 21.6272 16.588 20.9972 16.423 20.3832L14.493 13.6062C14.425 13.3622 14.391 13.1082 14.391 12.8542C14.39 12.2522 14.466 11.8662 14.617 11.2852C14.643 11.1782 14.739 11.1002 14.85 11.0922L18.849 10.7992C19.485 10.7992 20 10.2842 20 9.64817C20 9.01217 19.485 8.49817 18.849 8.49817ZM13.8559 4.80037C13.8559 3.71437 12.9689 2.83337 11.8769 2.83337C10.7849 2.83337 9.8989 3.71437 9.8989 4.80037C9.8989 5.88637 10.7849 6.76837 11.8769 6.76837C12.9689 6.76837 13.8559 5.88637 13.8559 4.80037Z" stroke="black" stroke-width="1.5" stroke-linecap="round" stroke-linejoin="round"/>
</svg>
