<svg width="24" height="24" viewBox="0 0 24 24" fill="none" xmlns="http://www.w3.org/2000/svg">
<path d="M18.7273 8.36369H5.27272C4.65454 8.36369 4.14545 8.87278 4.14545 9.49096C4.14545 10.1091 4.65454 10.6182 5.27272 10.6182L8.94545 10.9091C9.05454 10.9091 9.16363 10.9819 9.16363 11.091C9.30908 11.6728 9.38181 12.0364 9.38181 12.6546C9.38181 12.9091 9.34545 13.1637 9.27272 13.3819L7.38181 20.0728C7.23636 20.691 7.56363 21.3091 8.18181 21.4546C8.79999 21.6001 9.41817 21.2728 9.56363 20.6546L11.6727 15.3819H12.0364L14.1454 20.6546C14.2909 21.2728 14.9091 21.6364 15.5273 21.4546C16.1454 21.3091 16.4727 20.6546 16.3273 20.0728L14.4364 13.3819C14.3636 13.1273 14.3273 12.8728 14.3273 12.6546C14.3273 12.0728 14.4 11.6728 14.5454 11.091C14.5818 10.9819 14.6545 10.9091 14.7636 10.9091L18.6909 10.6182C19.3091 10.6182 19.8182 10.1091 19.8182 9.49096C19.8545 8.87278 19.3454 8.36369 18.7273 8.36369ZM11.8909 6.98187C13.1273 6.98187 14.1454 5.96369 14.1454 4.72732C14.1454 3.49096 13.1273 2.47278 11.8909 2.47278C10.6545 2.47278 9.63636 3.49096 9.63636 4.72732C9.63636 5.96369 10.6182 6.98187 11.8909 6.98187Z" fill="black" fill-opacity="0.95"/>
<path d="M11.8909 2.47277C13.1273 2.47277 14.1454 3.49095 14.1454 4.72731C14.1454 5.96368 13.1273 6.98186 11.8909 6.98186C10.6545 6.98186 9.63635 5.96368 9.63635 4.72731C9.63635 3.49095 10.6182 2.47277 11.8909 2.47277ZM18.7273 8.36368C19.3454 8.36368 19.8545 8.87277 19.8545 9.49095C19.8545 10.1091 19.3454 10.6182 18.7273 10.6182L14.8 10.9091C14.6909 10.9091 14.5818 10.9819 14.5818 11.0909C14.4363 11.6728 14.3636 12.0364 14.3636 12.6546C14.3636 12.9091 14.4 13.1637 14.4727 13.3819L16.3636 20.0728C16.5091 20.6909 16.1818 21.3091 15.5636 21.4546C15.4545 21.4909 15.3818 21.4909 15.2727 21.4909C14.7636 21.4909 14.3273 21.1637 14.1818 20.6546L12.0727 15.3819H11.7091L9.59998 20.6546C9.45453 21.1637 9.01816 21.4909 8.50907 21.4909C8.39998 21.4909 8.32725 21.4909 8.21816 21.4546C7.59998 21.3091 7.27271 20.6546 7.41816 20.0728L9.30907 13.3819C9.3818 13.1273 9.41816 12.8728 9.41816 12.6546C9.41816 12.0728 9.34544 11.6728 9.19998 11.0909C9.16362 10.9819 9.09089 10.9091 8.9818 10.9091L5.30907 10.6182C4.69089 10.6182 4.1818 10.1091 4.1818 9.49095C4.1818 8.87277 4.69089 8.36368 5.30907 8.36368H18.7273ZM11.8909 2.10913C10.4363 2.10913 9.27271 3.27277 9.27271 4.72731C9.27271 6.18186 10.4363 7.34549 11.8909 7.34549C13.3454 7.34549 14.5091 6.18186 14.5091 4.72731C14.5091 3.27277 13.3091 2.10913 11.8909 2.10913ZM18.7273 8.00004H5.27271C4.43635 8.00004 3.7818 8.65458 3.7818 9.49095C3.7818 10.3273 4.43635 10.9819 5.27271 10.9819L8.87271 11.2728C9.01816 11.7819 9.05453 12.1455 9.05453 12.6546C9.05453 12.8728 9.01816 13.0909 8.9818 13.3091L7.09089 20C6.87271 20.8 7.34544 21.6364 8.14544 21.8546C8.29089 21.8909 8.39998 21.8909 8.54544 21.8909C9.19998 21.8909 9.81816 21.4546 9.99998 20.8L11.9273 15.9273L13.8545 20.8C14.0363 21.4546 14.6182 21.8909 15.3091 21.8909C15.4545 21.8909 15.5636 21.8909 15.7091 21.8546C16.5091 21.6364 16.9818 20.8 16.7636 20L14.8727 13.3091C14.8 13.0909 14.8 12.8728 14.8 12.6546C14.8 12.1455 14.8727 11.7819 14.9818 11.2728L18.8363 10.9819C19.6363 10.9819 20.3273 10.2909 20.3273 9.49095C20.2182 8.69095 19.5636 8.00004 18.7273 8.00004Z" fill="black" fill-opacity="0.2"/>
</svg>
