<svg width="24" height="24" viewBox="0 0 24 24" fill="none" xmlns="http://www.w3.org/2000/svg">
<path fill-rule="evenodd" clip-rule="evenodd" d="M13.9403 4.27116C14.0802 3.88216 14.5103 3.68116 14.9002 3.82016C18.3172 5.05216 20.6122 8.33916 20.6122 12.0002C20.6122 14.7952 19.2752 17.3832 17.0952 19.0002H18.9212C19.3353 19.0002 19.6712 19.3363 19.6712 19.7502C19.6712 20.1642 19.3353 20.5002 18.9212 20.5002H15.4102C14.7303 20.5002 14.1763 19.9463 14.1763 19.2663V15.9743C14.1763 15.5602 14.5112 15.2243 14.9263 15.2243C15.3403 15.2243 15.6763 15.5602 15.6763 15.9743V18.1462C17.7862 16.8563 19.1122 14.5313 19.1122 12.0002C19.1122 8.97026 17.2153 6.24926 14.3923 5.23116C14.0013 5.09216 13.8003 4.66126 13.9403 4.27116ZM8.5898 3.49976C9.2708 3.49976 9.8247 4.05376 9.8247 4.73466V8.02466C9.8247 8.43876 9.4897 8.77466 9.0747 8.77466C8.6608 8.77466 8.3247 8.43876 8.3247 8.02466V5.85166C6.2127 7.14176 4.8878 9.46676 4.8878 11.9998C4.8878 15.0308 6.7847 17.7498 9.6088 18.7677C9.9987 18.9077 10.1997 19.3368 10.0597 19.7267C9.9497 20.0327 9.6617 20.2227 9.3538 20.2227C9.2697 20.2227 9.1838 20.2087 9.0997 20.1787C5.6828 18.9478 3.3877 15.6608 3.3877 11.9998C3.3877 9.20476 4.7248 6.61566 6.9037 4.99976H5.0798C4.6658 4.99976 4.3298 4.66366 4.3298 4.24976C4.3298 3.83576 4.6658 3.49976 5.0798 3.49976H8.5898Z" fill="black"/>
</svg>
