<svg width="24" height="24" viewBox="0 0 24 24" fill="none" xmlns="http://www.w3.org/2000/svg">
<path d="M13.0432 8.28023C15.6422 8.28023 17.7492 10.3872 17.7492 12.9862V19.7803H8.02119C4.93919 19.7803 2.44019 17.2822 2.44019 14.2002V13.8612C2.44019 11.3433 4.10819 9.21533 6.40019 8.52033C6.91319 8.36523 7.45719 8.28023 8.02119 8.28023H13.0432ZM15.8098 4.21973C18.9858 4.21973 21.5598 6.79373 21.5598 9.96983V15.7197H19.2488V12.9867C19.2488 9.56473 16.4648 6.78083 13.0428 6.78083H8.02079C7.70779 6.78083 7.40179 6.80273 7.10079 6.84183C8.08679 5.26773 9.83579 4.21973 11.8308 4.21973H15.8098Z" fill="black"/>
</svg>
