<svg width="24" height="24" viewBox="0 0 24 24" fill="none" xmlns="http://www.w3.org/2000/svg">
<g clip-path="url(#clip0_702_249)">
<path d="M15.2999 4.09028L14.7069 4.37528C14.0969 4.66728 13.7179 5.26828 13.7179 5.94328C13.7179 6.62028 14.0959 7.22128 14.7069 7.51428L15.9999 8.13428L16.6909 10.2053C16.9279 10.9173 17.5909 11.3963 18.3419 11.3963C18.7709 11.3963 19.1669 11.2353 19.4759 10.9703V17.0903C19.4759 18.4653 18.3509 19.5903 16.9759 19.5903H6.47589C5.10089 19.5903 3.97589 18.4653 3.97589 17.0903V6.59028C3.97589 5.21528 5.10089 4.09028 6.47589 4.09028H15.2999ZM9.42189 7.73728C9.11889 7.73728 8.81289 7.97128 8.81289 8.41828V15.0553C8.81289 15.5023 9.11889 15.7373 9.42189 15.7373C9.55889 15.7373 9.69489 15.6933 9.82789 15.6073L14.8929 12.3303C15.1139 12.1873 15.2399 11.9713 15.2399 11.7373C15.2399 11.5023 15.1139 11.2853 14.8929 11.1433L9.82789 7.86628C9.69489 7.78028 9.55889 7.73728 9.42189 7.73728ZM21.8105 7.03888C21.8575 6.89588 22.0605 6.89588 22.1085 7.03888L22.6895 8.78389L23.9115 9.36889C24.0295 9.42589 24.0295 9.59489 23.9115 9.65189L22.6905 10.2369L22.1085 11.9829C22.0605 12.1259 21.8575 12.1259 21.8105 11.9829L21.2275 10.2369L20.0095 9.65189C19.8905 9.59489 19.8905 9.42589 20.0095 9.36889L21.2285 8.78488L21.8105 7.03888ZM18.1149 2.15938C18.1869 1.93938 18.4979 1.93938 18.5709 2.15938L19.4609 4.83038L21.3319 5.72738C21.5139 5.81438 21.5139 6.07438 21.3319 6.16138L19.4619 7.05738L18.5709 9.73138C18.4979 9.95038 18.1869 9.95038 18.1149 9.73138L17.2219 7.05638L15.3549 6.16138C15.1719 6.07438 15.1719 5.81438 15.3549 5.72738L17.2229 4.83138L18.1149 2.15938Z" fill="black"/>
</g>
<defs>
<clipPath id="clip0_702_249">
<rect width="24" height="24" fill="white"/>
</clipPath>
</defs>
</svg>
