<svg width="24" height="24" viewBox="0 0 24 24" fill="none" xmlns="http://www.w3.org/2000/svg">
<path d="M10.3005 3.42667C11.291 2.60031 12.7079 2.5993 13.6858 3.41404L19.3374 8.34768C20.2868 9.13816 20.8384 10.3182 20.8384 11.5697V17.774C20.8384 19.6603 19.3037 21.195 17.4173 21.195H6.5827C4.6963 21.195 3.16156 19.6603 3.16156 17.774V11.5697C3.16156 10.3182 3.71318 9.13816 4.67634 8.33606L10.3005 3.42667ZM12.0047 4.38136C11.7647 4.38136 11.5227 4.46246 11.3257 4.62667L5.70051 9.53719C5.08573 10.0508 4.74051 10.7866 4.74051 11.5697V17.774C4.74051 18.7898 5.56687 19.6161 6.5827 19.6161H17.4173C18.4331 19.6161 19.2595 18.7898 19.2595 17.774V11.5697C19.2595 10.7877 18.9143 10.0508 18.3131 9.54869L12.6605 4.61606C12.4732 4.46031 12.2405 4.38136 12.0047 4.38136ZM12.0001 8.56204C12.4359 8.56204 12.7896 8.91572 12.7896 9.35151V12.2462H15.6843C16.1202 12.2462 16.4737 12.5998 16.4737 13.0356C16.4737 13.4726 16.1202 13.8251 15.6843 13.8251H12.7896V16.7199C12.7896 17.1567 12.4359 17.5094 12.0001 17.5094C11.5643 17.5094 11.2107 17.1567 11.2107 16.7199V13.8251H8.31588C7.88009 13.8251 7.5264 13.4726 7.5264 13.0356C7.5264 12.5998 7.88009 12.2462 8.31588 12.2462H11.2107V9.35151C11.2107 8.91572 11.5643 8.56204 12.0001 8.56204Z" fill="black"/>
</svg>
