<svg width="24" height="24" viewBox="0 0 24 24" fill="none" xmlns="http://www.w3.org/2000/svg">
<path d="M8.6329 7.345C8.9559 7.345 9.2449 7.405 9.4919 7.525C9.7459 7.647 9.9439 7.824 10.0809 8.05C10.2179 8.275 10.2869 8.534 10.2869 8.818C10.2869 9.254 10.1339 9.604 9.8319 9.859C9.5359 10.108 9.1279 10.234 8.6189 10.234H8.0289V11.655H6.9209V7.345H8.6329ZM11.9603 7.3446C12.3373 7.3446 12.6803 7.4306 12.9803 7.6026C13.2813 7.7746 13.5203 8.0226 13.6893 8.3386C13.8563 8.6526 13.9403 9.0126 13.9403 9.4086V9.5946C13.9403 9.9906 13.8573 10.3486 13.6933 10.6586C13.5273 10.9726 13.2903 11.2196 12.9873 11.3926C12.6873 11.5646 12.3443 11.6536 11.9693 11.6556H10.5803V7.3446H11.9603ZM17.1709 7.3449V8.2949H15.3759V9.0599H16.9719V10.0069H15.3759V11.6549H14.2679V7.3449H17.1709ZM11.9603 8.2946H11.6883V10.7106H11.9513C12.2353 10.7106 12.4443 10.6226 12.5893 10.4436C12.7393 10.2576 12.8183 9.9796 12.8213 9.6176V9.4056C12.8213 9.0296 12.7463 8.7456 12.5973 8.5606C12.4533 8.3816 12.2453 8.2946 11.9603 8.2946ZM8.6499 8.295H8.0289V9.284H8.6329C8.8159 9.284 8.9549 9.244 9.0429 9.164C9.1289 9.087 9.1699 8.976 9.1699 8.824C9.1699 8.662 9.1259 8.537 9.0339 8.44C8.9439 8.346 8.8179 8.298 8.6499 8.295Z" fill="black"/>
<path d="M11.25 20.25H7.75C6.37 20.25 5.25 19.131 5.25 17.75V6.25C5.25 4.869 6.37 3.75 7.75 3.75H16.25C17.631 3.75 18.75 4.869 18.75 6.25V12.75M16.25 15.25V20.25M13.75 17.75H18.75" stroke="black" stroke-width="1.5" stroke-linecap="round" stroke-linejoin="round"/>
</svg>
