<svg width="24" height="24" viewBox="0 0 24 24" fill="none" xmlns="http://www.w3.org/2000/svg">
<mask id="mask0_702_257" style="mask-type:luminance" maskUnits="userSpaceOnUse" x="4" y="3" width="16" height="18">
<path d="M4 3H20V21H4V3Z" fill="white"/>
</mask>
<g mask="url(#mask0_702_257)">
<path fill-rule="evenodd" clip-rule="evenodd" d="M7.2496 21.0004H10.2496C10.6646 21.0004 10.9996 20.6644 10.9996 20.2504C10.9996 19.8354 10.6646 19.5004 10.2496 19.5004H7.2496C6.2846 19.5004 5.4996 18.7154 5.4996 17.7504V6.25037C5.4996 5.28537 6.2846 4.50037 7.2496 4.50037H16.7496C17.7146 4.50037 18.4996 5.28537 18.4996 6.25037V10.0004C18.4996 10.4144 18.8356 10.7504 19.2496 10.7504C19.6646 10.7504 19.9996 10.4144 19.9996 10.0004V6.25037C19.9996 4.45837 18.5416 3.00037 16.7496 3.00037H7.2496C5.4576 3.00037 3.9996 4.45837 3.9996 6.25037V17.7504C3.9996 19.5424 5.4576 21.0004 7.2496 21.0004Z" fill="black"/>
</g>
<mask id="mask1_702_257" style="mask-type:luminance" maskUnits="userSpaceOnUse" x="11" y="12" width="10" height="10">
<path d="M11.937 12.354H20.63V21.047H11.937V12.354Z" fill="white"/>
</mask>
<g mask="url(#mask1_702_257)">
<path fill-rule="evenodd" clip-rule="evenodd" d="M18.2838 17.3256H16.9088V18.7006C16.9088 19.0456 16.6288 19.3256 16.2838 19.3256C15.9378 19.3256 15.6588 19.0456 15.6588 18.7006V17.3256H14.2838C13.9378 17.3256 13.6588 17.0456 13.6588 16.7006C13.6588 16.3546 13.9378 16.0756 14.2838 16.0756H15.6588V14.7006C15.6588 14.3546 15.9378 14.0756 16.2838 14.0756C16.6288 14.0756 16.9088 14.3546 16.9088 14.7006V16.0756H18.2838C18.6288 16.0756 18.9088 16.3546 18.9088 16.7006C18.9088 17.0456 18.6288 17.3256 18.2838 17.3256ZM16.2838 12.3536C13.8878 12.3536 11.9368 14.3036 11.9368 16.7006C11.9368 19.0966 13.8878 21.0476 16.2838 21.0476C18.6808 21.0476 20.6308 19.0966 20.6308 16.7006C20.6308 14.3036 18.6808 12.3536 16.2838 12.3536Z" fill="black"/>
</g>
<path fill-rule="evenodd" clip-rule="evenodd" d="M8.9976 8.96146C8.9086 9.04146 8.7706 9.08146 8.5866 9.08146H7.9826V8.09246H8.6036C8.7716 8.09546 8.8976 8.14346 8.9876 8.23746C9.0796 8.33446 9.1246 8.45946 9.1246 8.62146C9.1246 8.77446 9.0826 8.88546 8.9976 8.96146ZM9.4466 7.32146C9.1986 7.20246 8.9096 7.14246 8.5866 7.14246H6.8746V11.4525H7.9826V10.0315H8.5726C9.0826 10.0315 9.4906 9.90546 9.7856 9.65646C10.0876 9.40146 10.2406 9.05246 10.2406 8.61546C10.2406 8.33046 10.1716 8.07246 10.0346 7.84746C9.8976 7.62146 9.6996 7.44446 9.4466 7.32146ZM12.776 9.41556C12.772 9.77656 12.694 10.0546 12.544 10.2406C12.398 10.4206 12.189 10.5086 11.906 10.5086H11.642V8.09256H11.915C12.2 8.09256 12.408 8.17956 12.551 8.35756C12.7 8.54356 12.776 8.82756 12.776 9.20356V9.41556ZM12.934 7.39956C12.634 7.22856 12.292 7.14256 11.915 7.14256H10.535V11.4526H10.673H11.923C12.298 11.4506 12.641 11.3626 12.942 11.1906C13.244 11.0176 13.482 10.7696 13.648 10.4566C13.811 10.1456 13.895 9.78756 13.895 9.39156V9.20556C13.895 8.81056 13.81 8.44956 13.643 8.13656C13.474 7.81956 13.236 7.57256 12.934 7.39956Z" fill="black"/>
<path fill-rule="evenodd" clip-rule="evenodd" d="M17.125 8.09197V7.14197H14.222V11.452H15.33V9.80397H16.926V8.85697H15.33V8.09197H17.125Z" fill="black"/>
</svg>
