<svg width="24" height="24" viewBox="0 0 24 24" fill="none" xmlns="http://www.w3.org/2000/svg">
<path d="M11.5428 1.94652C11.6883 1.91672 12.2647 1.91782 12.4022 1.91672C16.3267 1.88572 21.7694 5.22472 22.0833 11.5737V19.5006C22.0833 20.9272 20.9054 22.0833 19.4743 22.0833C18.443 22.0833 17.0417 20.7622 17.0417 19.5052V11.5783C16.8961 9.48602 15.2003 7.13142 12.3449 6.95382C12.1684 6.94232 11.7674 6.93542 11.5417 6.96522" fill="#FBBC04"/>
<path d="M22.081 19.5625C22.081 20.9547 20.9524 22.0833 19.5602 22.0833C18.168 22.0833 17.0417 20.9547 17.0417 19.5625C17.0417 18.1703 18.168 17.0417 19.5602 17.0417C20.9524 17.0417 22.081 18.1703 22.081 19.5625Z" fill="#4285F4"/>
<path d="M11.6792 21.9964C13.1229 21.9964 14.2928 20.8482 14.2928 19.4331C14.2928 18.0169 13.0943 16.9891 11.6517 16.9891C11.6425 16.9891 11.6333 16.9902 11.6242 16.9902C9.1423 16.8183 6.8208 14.6332 6.9904 11.638L6.9939 11.5899C7.1371 9.23976 9.1423 7.10736 11.6803 6.96066C13.1241 6.96066 14.294 5.92486 14.294 4.50976C14.294 3.09466 13.1229 1.94536 11.6792 1.94536C11.6207 1.94536 11.5623 1.94196 11.5039 1.94536C7.1256 2.09776 1.9694 5.74036 1.9178 11.9313V11.9692C1.9178 18.2518 7.4281 21.9952 11.5348 21.9952H11.6792V21.9964Z" fill="#EA4335"/>
</svg>
