<svg width="24" height="24" viewBox="0 0 24 24" fill="none" xmlns="http://www.w3.org/2000/svg">
<path d="M20.3953 11.0691C20.3953 11.8971 19.7243 12.5691 18.8953 12.5691C18.0673 12.5691 17.3953 11.8971 17.3953 11.0691C17.3953 10.2411 18.0673 9.56905 18.8953 9.56905C19.7243 9.56905 20.3953 10.2411 20.3953 11.0691ZM20.3963 4.69995C20.3963 5.52795 19.7243 6.19995 18.8963 6.19995C18.0673 6.19995 17.3963 5.52795 17.3963 4.69995C17.3963 3.87095 18.0673 3.19995 18.8963 3.19995C19.7243 3.19995 20.3963 3.87095 20.3963 4.69995ZM15.1307 7.85515C15.1307 8.68315 14.4587 9.35515 13.6307 9.35515C12.8027 9.35515 12.1307 8.68315 12.1307 7.85515C12.1307 7.02615 12.8027 6.35515 13.6307 6.35515C14.4587 6.35515 15.1307 7.02615 15.1307 7.85515Z" fill="black"/>
<path d="M18.8953 4.7L13.2623 7.885L18.8953 11.069M15.6112 14.8621L15.0892 15.3831C14.6212 15.8521 14.2472 15.9501 13.8822 15.9441C13.5852 15.9391 13.1912 15.7291 13.1032 15.6711C10.1812 13.9991 8.8062 11.5651 8.5382 11.0451C8.5192 11.0111 8.3722 10.7141 8.3562 10.4171C8.3372 10.0531 8.4472 9.6781 8.9162 9.2101L9.4372 8.6881C9.9012 8.2231 10.0082 7.8471 9.9932 7.4871C9.9752 7.1241 9.8312 6.7371 9.3172 6.2221L8.0212 4.9271C7.5072 4.4131 7.1212 4.2681 6.7572 4.2521C6.3952 4.2341 6.0212 4.3421 5.5552 4.8061L5.5522 4.8101L5.5502 4.8111C4.0732 6.2911 3.7402 7.7001 3.8082 9.1601C3.8512 10.0681 4.0922 11.0161 4.7672 12.1001C4.7672 12.1001 7.1562 16.0081 11.7722 19.2481C11.8272 19.2861 11.8822 19.3231 11.9352 19.3591C12.0172 19.4161 12.1872 19.5281 12.1902 19.5261C13.2782 20.2051 14.2282 20.4481 15.1402 20.4921C16.6002 20.5601 18.0082 20.2261 19.4892 18.7501L19.4902 18.7481L19.4942 18.7441C19.9582 18.2791 20.0662 17.9051 20.0482 17.5431C20.0312 17.1791 19.8862 16.7921 19.3722 16.2791L18.0772 14.9831C17.5642 14.4691 17.1752 14.3241 16.8122 14.3071C16.4522 14.2911 16.0772 14.3991 15.6112 14.8621Z" stroke="black" stroke-width="1.5" stroke-linecap="round" stroke-linejoin="round"/>
</svg>
