<svg width="24" height="24" viewBox="0 0 24 24" fill="none" xmlns="http://www.w3.org/2000/svg">
<path fill-rule="evenodd" clip-rule="evenodd" d="M6.2086 3.69287C6.6036 3.71017 7.0236 3.86757 7.5804 4.42537L8.9869 5.83087C9.5447 6.38977 9.7021 6.80977 9.7206 7.20367C9.7379 7.59437 9.6207 8.00247 9.1182 8.50717L8.5517 9.07367C8.0438 9.58157 7.9233 9.98967 7.944 10.3836C7.9613 10.7059 8.1219 11.0283 8.1415 11.0641C8.4334 11.6295 9.9257 14.2711 13.0958 16.0857C13.1924 16.1486 13.6189 16.3765 13.9423 16.382C14.3373 16.3874 14.7432 16.2821 15.2512 15.7731L15.8188 15.2077C16.3234 14.7052 16.7304 14.5869 17.1222 14.6054C17.5161 14.6227 17.9372 14.7812 18.4951 15.339L19.8994 16.7455C20.4583 17.3023 20.6157 17.7223 20.6342 18.1173C20.6526 18.5091 20.5354 18.9161 20.0318 19.4197L20.0275 19.424C18.4202 21.0291 16.8921 21.3916 15.3076 21.3167C14.3178 21.2701 13.2868 21.0063 12.1049 20.2694C12.1028 20.2716 11.9183 20.1501 11.8282 20.0882C11.7707 20.0491 11.711 20.0079 11.6513 19.9666C6.6416 16.4514 4.05 12.2101 4.05 12.2101C3.3174 11.0337 3.0558 10.0059 3.0092 9.01937C2.9343 7.43377 3.2957 5.90467 4.8997 4.29947L4.9019 4.29837C5.4098 3.79047 5.8157 3.67327 6.2086 3.69287ZM19.3721 2.67407C20.2707 2.67407 21 3.40227 21 4.30197C21 5.20057 20.2707 5.92887 19.3721 5.92887C19.04 5.92887 18.7307 5.82897 18.4724 5.65747L15.2263 7.57737C15.2339 7.64357 15.2404 7.71197 15.2404 7.78027C15.2404 7.84977 15.2339 7.91707 15.2263 7.98327L18.4735 9.90317C18.7307 9.73167 19.04 9.63177 19.3721 9.63177C20.2707 9.63177 21 10.3611 21 11.2598C21 12.1595 20.2707 12.8877 19.3721 12.8877C18.4724 12.8877 17.7442 12.1595 17.7442 11.2598C17.7442 11.1903 17.7496 11.123 17.7583 11.0557L14.5111 9.13697C14.2539 9.30947 13.9457 9.40937 13.6125 9.40937C12.7139 9.40937 11.9846 8.67897 11.9846 7.78027C11.9846 6.88167 12.7139 6.15237 13.6125 6.15237C13.9457 6.15237 14.2539 6.25227 14.5111 6.42367L17.7583 4.50497C17.7496 4.43877 17.7442 4.37147 17.7442 4.30197C17.7442 3.40227 18.4724 2.67407 19.3721 2.67407Z" fill="black"/>
</svg>
