<svg width="24" height="24" viewBox="0 0 24 24" fill="none" xmlns="http://www.w3.org/2000/svg">
<path d="M13.9344 19.1023C13.3588 19.2527 12.7547 19.3333 12.1314 19.3333C8.208 19.3333 5.0272 16.1525 5.0272 12.2292C5.0272 8.30575 8.208 5.12495 12.1314 5.12495C16.0547 5.12495 19.2355 8.30575 19.2355 12.2292C19.2355 12.5986 19.2071 12.9625 19.153 13.3163M6.5092 19.7917L7.8429 18.1811M14.9098 12.2292H12.5897C12.3367 12.2292 12.1314 12.0238 12.1314 11.7708V8.65875M3.75 6.74875L6.2901 4.20865M17.7095 4.20825L20.2495 6.74835M16.1753 15.7176L19.0537 18.596M19.0536 15.7176L16.1752 18.596M21.625 17.1563C21.625 14.9416 19.8293 13.1458 17.6146 13.1458C15.399 13.1458 13.6042 14.9416 13.6042 17.1563C13.6042 19.3709 15.399 21.1667 17.6146 21.1667C19.8293 21.1667 21.625 19.3709 21.625 17.1563Z" stroke="black" stroke-width="1.35" stroke-linecap="round" stroke-linejoin="round"/>
</svg>
