<svg width="24" height="24" viewBox="0 0 24 24" fill="none" xmlns="http://www.w3.org/2000/svg">
<path fill-rule="evenodd" clip-rule="evenodd" d="M12.0004 4.53791C16.2323 4.53791 19.6754 7.98191 19.6754 12.2139C19.6754 14.5119 18.6583 16.5759 17.0534 17.9839L18.2113 19.3819C18.4753 19.7019 18.4303 20.1739 18.1113 20.4389C17.9713 20.5539 17.8013 20.6109 17.6334 20.6109C17.4174 20.6109 17.2034 20.5179 17.0553 20.3389L15.8314 18.8599C14.7034 19.5129 13.3954 19.8889 12.0004 19.8889C10.6054 19.8889 9.2963 19.5129 8.1684 18.8599L6.9443 20.3389C6.7964 20.5179 6.5823 20.6109 6.3664 20.6109C6.1983 20.6109 6.0283 20.5539 5.8883 20.4389C5.5693 20.1739 5.5244 19.7019 5.7894 19.3819L6.9464 17.9839C5.3414 16.5759 4.3244 14.5119 4.3244 12.2139C4.3244 7.98191 7.7674 4.53791 12.0004 4.53791ZM11.7224 7.29891C11.3074 7.29891 10.9724 7.63491 10.9724 8.04891V11.4859C10.9724 12.1519 11.5144 12.6939 12.1804 12.6939H14.7533C15.1684 12.6939 15.5033 12.3579 15.5033 11.9439C15.5033 11.5299 15.1684 11.1939 14.7533 11.1939H12.4724V8.04891C12.4724 7.63491 12.1363 7.29891 11.7224 7.29891ZM5.5875 3.60891C5.8804 3.31591 6.3565 3.31591 6.6484 3.60891C6.9415 3.90091 6.9415 4.37691 6.6484 4.66991L3.8774 7.44091C3.7304 7.58791 3.5385 7.66091 3.3464 7.66091C3.1544 7.66091 2.9625 7.58791 2.8165 7.44091C2.5234 7.14791 2.5234 6.67291 2.8165 6.37991L5.5875 3.60891ZM17.3515 3.60941C17.6436 3.31641 18.1196 3.31641 18.4125 3.60941L21.1835 6.38041C21.4765 6.67341 21.4765 7.14841 21.1835 7.44141C21.0375 7.58741 20.8456 7.66041 20.6535 7.66041C20.4615 7.66041 20.2696 7.58741 20.1225 7.44141L17.3515 4.66941C17.0585 4.37641 17.0585 3.90141 17.3515 3.60941Z" fill="black"/>
</svg>
