<svg width="24" height="24" viewBox="0 0 24 24" fill="none" xmlns="http://www.w3.org/2000/svg">
<path d="M10.5454 12C10.5454 11.6142 10.6987 11.2442 10.9714 10.9714C11.2442 10.6987 11.6142 10.5454 12 10.5454C12.3857 10.5454 12.7557 10.6987 13.0285 10.9714C13.3013 11.2442 13.4545 11.6142 13.4545 12C13.4545 12.3857 13.3013 12.7557 13.0285 13.0285C12.7557 13.3013 12.3857 13.4545 12 13.4545C11.6142 13.4545 11.2442 13.3013 10.9714 13.0285C10.6987 12.7557 10.5454 12.3857 10.5454 12Z" fill="#DCDDDD"/>
<path d="M10.7273 12C10.7273 11.6625 10.8614 11.3388 11.1001 11.1001C11.3388 10.8614 11.6625 10.7273 12 10.7273C12.3376 10.7273 12.6613 10.8614 12.9 11.1001C13.1387 11.3388 13.2727 11.6625 13.2727 12C13.2727 12.3376 13.1387 12.6613 12.9 12.9C12.6613 13.1387 12.3376 13.2727 12 13.2727C11.6625 13.2727 11.3388 13.1387 11.1001 12.9C10.8614 12.6613 10.7273 12.3376 10.7273 12Z" fill="black"/>
<path d="M10.5454 5.78182C10.5454 5.39605 10.6987 5.02608 10.9714 4.7533C11.2442 4.48052 11.6142 4.32727 12 4.32727C12.3857 4.32727 12.7557 4.48052 13.0285 4.7533C13.3013 5.02608 13.4545 5.39605 13.4545 5.78182C13.4545 6.16759 13.3013 6.53756 13.0285 6.81034C12.7557 7.08312 12.3857 7.23636 12 7.23636C11.6142 7.23636 11.2442 7.08312 10.9714 6.81034C10.6987 6.53756 10.5454 6.16759 10.5454 5.78182Z" fill="#DCDDDD"/>
<path d="M10.7273 5.78176C10.7273 5.44421 10.8614 5.12049 11.1001 4.88181C11.3388 4.64312 11.6625 4.50903 12 4.50903C12.3376 4.50903 12.6613 4.64312 12.9 4.88181C13.1387 5.12049 13.2727 5.44421 13.2727 5.78176C13.2727 6.11931 13.1387 6.44303 12.9 6.68171C12.6613 6.9204 12.3376 7.05449 12 7.05449C11.6625 7.05449 11.3388 6.9204 11.1001 6.68171C10.8614 6.44303 10.7273 6.11931 10.7273 5.78176Z" fill="black"/>
<path d="M10.5454 18.2182C10.5454 17.8324 10.6987 17.4624 10.9714 17.1896C11.2442 16.9169 11.6142 16.7636 12 16.7636C12.3857 16.7636 12.7557 16.9169 13.0285 17.1896C13.3013 17.4624 13.4545 17.8324 13.4545 18.2182C13.4545 18.6039 13.3013 18.9739 13.0285 19.2467C12.7557 19.5195 12.3857 19.6727 12 19.6727C11.6142 19.6727 11.2442 19.5195 10.9714 19.2467C10.6987 18.9739 10.5454 18.6039 10.5454 18.2182Z" fill="#DCDDDD"/>
<path d="M10.7273 18.2182C10.7273 17.8806 10.8614 17.5569 11.1001 17.3182C11.3388 17.0795 11.6625 16.9454 12 16.9454C12.3376 16.9454 12.6613 17.0795 12.9 17.3182C13.1387 17.5569 13.2727 17.8806 13.2727 18.2182C13.2727 18.5557 13.1387 18.8794 12.9 19.1181C12.6613 19.3568 12.3376 19.4909 12 19.4909C11.6625 19.4909 11.3388 19.3568 11.1001 19.1181C10.8614 18.8794 10.7273 18.5557 10.7273 18.2182Z" fill="black"/>
<path d="M17.0546 12C17.0546 11.6142 17.2078 11.2442 17.4806 10.9714C17.7534 10.6987 18.1233 10.5454 18.5091 10.5454C18.8949 10.5454 19.2648 10.6987 19.5376 10.9714C19.8104 11.2442 19.9637 11.6142 19.9637 12C19.9637 12.3857 19.8104 12.7557 19.5376 13.0285C19.2648 13.3013 18.8949 13.4545 18.5091 13.4545C18.1233 13.4545 17.7534 13.3013 17.4806 13.0285C17.2078 12.7557 17.0546 12.3857 17.0546 12Z" fill="#DCDDDD"/>
<path d="M17.2363 12C17.2363 11.6625 17.3704 11.3388 17.6091 11.1001C17.8478 10.8614 18.1715 10.7273 18.5091 10.7273C18.8466 10.7273 19.1703 10.8614 19.409 11.1001C19.6477 11.3388 19.7818 11.6625 19.7818 12C19.7818 12.3376 19.6477 12.6613 19.409 12.9C19.1703 13.1387 18.8466 13.2727 18.5091 13.2727C18.1715 13.2727 17.8478 13.1387 17.6091 12.9C17.3704 12.6613 17.2363 12.3376 17.2363 12Z" fill="black"/>
<path d="M17.0546 5.78182C17.0546 5.39605 17.2078 5.02608 17.4806 4.7533C17.7534 4.48052 18.1233 4.32727 18.5091 4.32727C18.8949 4.32727 19.2648 4.48052 19.5376 4.7533C19.8104 5.02608 19.9637 5.39605 19.9637 5.78182C19.9637 6.16759 19.8104 6.53756 19.5376 6.81034C19.2648 7.08312 18.8949 7.23636 18.5091 7.23636C18.1233 7.23636 17.7534 7.08312 17.4806 6.81034C17.2078 6.53756 17.0546 6.16759 17.0546 5.78182Z" fill="#DCDDDD"/>
<path d="M17.2363 5.78176C17.2363 5.44421 17.3704 5.12049 17.6091 4.88181C17.8478 4.64312 18.1715 4.50903 18.5091 4.50903C18.8466 4.50903 19.1703 4.64312 19.409 4.88181C19.6477 5.12049 19.7818 5.44421 19.7818 5.78176C19.7818 6.11931 19.6477 6.44303 19.409 6.68171C19.1703 6.9204 18.8466 7.05449 18.5091 7.05449C18.1715 7.05449 17.8478 6.9204 17.6091 6.68171C17.3704 6.44303 17.2363 6.11931 17.2363 5.78176Z" fill="black"/>
<path d="M17.0546 18.2182C17.0546 17.8324 17.2078 17.4624 17.4806 17.1896C17.7534 16.9169 18.1233 16.7636 18.5091 16.7636C18.8949 16.7636 19.2648 16.9169 19.5376 17.1896C19.8104 17.4624 19.9637 17.8324 19.9637 18.2182C19.9637 18.6039 19.8104 18.9739 19.5376 19.2467C19.2648 19.5195 18.8949 19.6727 18.5091 19.6727C18.1233 19.6727 17.7534 19.5195 17.4806 19.2467C17.2078 18.9739 17.0546 18.6039 17.0546 18.2182Z" fill="#DCDDDD"/>
<path d="M17.2363 18.2182C17.2363 17.8806 17.3704 17.5569 17.6091 17.3182C17.8478 17.0795 18.1715 16.9454 18.5091 16.9454C18.8466 16.9454 19.1703 17.0795 19.409 17.3182C19.6477 17.5569 19.7818 17.8806 19.7818 18.2182C19.7818 18.5557 19.6477 18.8794 19.409 19.1181C19.1703 19.3568 18.8466 19.4909 18.5091 19.4909C18.1715 19.4909 17.8478 19.3568 17.6091 19.1181C17.3704 18.8794 17.2363 18.5557 17.2363 18.2182Z" fill="black"/>
<path d="M4.03638 12C4.03638 11.6142 4.18962 11.2442 4.4624 10.9714C4.73518 10.6987 5.10515 10.5454 5.49092 10.5454C5.87669 10.5454 6.24666 10.6987 6.51944 10.9714C6.79222 11.2442 6.94547 11.6142 6.94547 12C6.94547 12.3857 6.79222 12.7557 6.51944 13.0285C6.24666 13.3013 5.87669 13.4545 5.49092 13.4545C5.10515 13.4545 4.73518 13.3013 4.4624 13.0285C4.18962 12.7557 4.03638 12.3857 4.03638 12Z" fill="#DCDDDD"/>
<path d="M4.21814 12C4.21814 11.6625 4.35223 11.3388 4.59091 11.1001C4.8296 10.8614 5.15332 10.7273 5.49087 10.7273C5.82842 10.7273 6.15214 10.8614 6.39082 11.1001C6.6295 11.3388 6.76359 11.6625 6.76359 12C6.76359 12.1672 6.73067 12.3327 6.66671 12.4871C6.60275 12.6415 6.509 12.7818 6.39082 12.9C6.27264 13.0182 6.13233 13.1119 5.97792 13.1759C5.8235 13.2398 5.658 13.2727 5.49087 13.2727C5.32373 13.2727 5.15823 13.2398 5.00382 13.1759C4.8494 13.1119 4.7091 13.0182 4.59091 12.9C4.47273 12.7818 4.37898 12.6415 4.31502 12.4871C4.25106 12.3327 4.21814 12.1672 4.21814 12Z" fill="black"/>
<path d="M4.03638 5.78182C4.03638 5.39605 4.18962 5.02608 4.4624 4.7533C4.73518 4.48052 5.10515 4.32727 5.49092 4.32727C5.87669 4.32727 6.24666 4.48052 6.51944 4.7533C6.79222 5.02608 6.94547 5.39605 6.94547 5.78182C6.94547 6.16759 6.79222 6.53756 6.51944 6.81034C6.24666 7.08312 5.87669 7.23636 5.49092 7.23636C5.10515 7.23636 4.73518 7.08312 4.4624 6.81034C4.18962 6.53756 4.03638 6.16759 4.03638 5.78182Z" fill="#DCDDDD"/>
<path d="M4.21814 5.78176C4.21814 5.44421 4.35223 5.12049 4.59091 4.88181C4.8296 4.64312 5.15332 4.50903 5.49087 4.50903C5.82842 4.50903 6.15214 4.64312 6.39082 4.88181C6.6295 5.12049 6.76359 5.44421 6.76359 5.78176C6.76359 5.9489 6.73067 6.1144 6.66671 6.26881C6.60275 6.42323 6.509 6.56353 6.39082 6.68171C6.27264 6.7999 6.13233 6.89365 5.97792 6.95761C5.8235 7.02157 5.658 7.05449 5.49087 7.05449C5.32373 7.05449 5.15823 7.02157 5.00382 6.95761C4.8494 6.89365 4.7091 6.7999 4.59091 6.68171C4.47273 6.56353 4.37898 6.42323 4.31502 6.26881C4.25106 6.1144 4.21814 5.9489 4.21814 5.78176Z" fill="black"/>
<path d="M4.03638 18.2182C4.03638 17.8324 4.18962 17.4624 4.4624 17.1896C4.73518 16.9169 5.10515 16.7636 5.49092 16.7636C5.87669 16.7636 6.24666 16.9169 6.51944 17.1896C6.79222 17.4624 6.94547 17.8324 6.94547 18.2182C6.94547 18.6039 6.79222 18.9739 6.51944 19.2467C6.24666 19.5195 5.87669 19.6727 5.49092 19.6727C5.10515 19.6727 4.73518 19.5195 4.4624 19.2467C4.18962 18.9739 4.03638 18.6039 4.03638 18.2182Z" fill="#DCDDDD"/>
<path d="M4.21814 18.2182C4.21814 17.8806 4.35223 17.5569 4.59091 17.3182C4.8296 17.0795 5.15332 16.9454 5.49087 16.9454C5.82842 16.9454 6.15214 17.0795 6.39082 17.3182C6.6295 17.5569 6.76359 17.8806 6.76359 18.2182C6.76359 18.3853 6.73067 18.5508 6.66671 18.7052C6.60275 18.8596 6.509 18.9999 6.39082 19.1181C6.27264 19.2363 6.13233 19.33 5.97792 19.394C5.8235 19.458 5.658 19.4909 5.49087 19.4909C5.32373 19.4909 5.15823 19.458 5.00382 19.394C4.8494 19.33 4.7091 19.2363 4.59091 19.1181C4.47273 18.9999 4.37898 18.8596 4.31502 18.7052C4.25106 18.5508 4.21814 18.3853 4.21814 18.2182Z" fill="black"/>
</svg>
