<svg width="24" height="24" viewBox="0 0 24 24" fill="none" xmlns="http://www.w3.org/2000/svg">
<path d="M18.699 10.5903C18.654 11.4823 18.225 12.6033 16.861 13.2663C16.67 13.3593 16.438 13.2793 16.345 13.0883C16.253 12.8963 16.342 12.6823 16.524 12.5723C17.143 12.1993 17.286 11.8613 17.227 11.5813C16.689 11.4503 16.287 10.9503 16.287 10.3513C16.287 9.65132 16.832 9.08432 17.505 9.08432C17.781 9.08432 18.034 9.18431 18.238 9.34531C18.442 9.50631 18.593 9.73132 18.668 9.99232C18.7 10.1063 18.706 10.4923 18.699 10.5903ZM15.548 10.5903C15.503 11.4823 15.074 12.6033 13.71 13.2663C13.518 13.3593 13.287 13.2793 13.194 13.0883C13.101 12.8963 13.19 12.6823 13.373 12.5723C13.992 12.1993 14.135 11.8613 14.077 11.5813C13.538 11.4503 13.136 10.9503 13.136 10.3513C13.136 9.65132 13.68 9.08432 14.353 9.08432C14.63 9.08432 14.883 9.18431 15.087 9.34531C15.291 9.50631 15.441 9.73132 15.516 9.99232C15.549 10.1063 15.554 10.4923 15.548 10.5903ZM9.86 10.9013C9.584 10.9013 9.331 10.8013 9.127 10.6393C8.923 10.4793 8.772 10.2543 8.697 9.99332C8.665 9.87932 8.659 9.49232 8.666 9.39532C8.711 8.50332 9.139 7.38232 10.504 6.71932C10.695 6.62632 10.927 6.70632 11.019 6.89832C11.112 7.08932 11.023 7.30332 10.841 7.41332C10.221 7.78632 10.079 8.12432 10.137 8.40332C10.676 8.53432 11.078 9.03432 11.078 9.63432C11.078 10.3343 10.533 10.9013 9.86 10.9013ZM6.709 10.9013C6.432 10.9013 6.179 10.8013 5.975 10.6393C5.772 10.4793 5.621 10.2543 5.546 9.99332C5.513 9.87932 5.508 9.49232 5.514 9.39532C5.559 8.50332 5.988 7.38232 7.352 6.71932C7.544 6.62632 7.775 6.70632 7.868 6.89832C7.961 7.08932 7.872 7.30332 7.689 7.41332C7.071 7.78632 6.928 8.12432 6.986 8.40332C7.524 8.53432 7.927 9.03432 7.927 9.63432C7.927 10.3343 7.382 10.9013 6.709 10.9013ZM17.625 3.39832H6.125C4.612 3.39832 3.375 4.63532 3.375 6.14832V13.5963C3.375 15.2463 4.724 16.5963 6.375 16.5963L8.422 16.6023L8.415 20.0733C8.415 20.6233 8.746 20.7673 9.149 20.3943L13.565 16.5963H17.625C19.275 16.5963 20.625 15.2463 20.625 13.5963V6.39832C20.625 4.74832 19.275 3.39832 17.625 3.39832Z" fill="black"/>
</svg>
