<svg width="24" height="24" viewBox="0 0 24 24" fill="none" xmlns="http://www.w3.org/2000/svg">
<path fill-rule="evenodd" clip-rule="evenodd" d="M1.60769 7.95742C2.13129 7.95742 2.55559 8.38152 2.55559 8.90532V16.2238C2.55559 17.3437 3.46699 18.255 4.58689 18.255H14.9495C15.473 18.255 15.8974 18.6794 15.8974 19.2029C15.8974 19.7265 15.473 20.1509 14.9495 20.1509H4.58689C2.42159 20.1509 0.65979 18.3891 0.65979 16.2238V8.90532C0.65979 8.38152 1.08449 7.95742 1.60769 7.95742ZM15.9372 3.84912C17.4268 3.84912 18.6456 5.06792 18.6456 6.55752V7.59072L22.3554 5.43572C22.4808 5.36092 22.6092 5.32302 22.737 5.32302C23.0366 5.32302 23.3402 5.55402 23.3402 5.99552V14.5855C23.3402 15.0197 23.0463 15.2469 22.7557 15.2469C22.6203 15.2469 22.4846 15.2027 22.353 15.115L18.6456 12.9724V14.0127C18.6456 15.5023 17.4268 16.721 15.9372 16.721H6.50519C5.31349 16.721 4.33849 15.746 4.33849 14.5544V6.31992C4.33849 4.96122 5.45059 3.84912 6.80929 3.84912H15.9372Z" fill="black"/>
</svg>
