<svg width="24" height="24" viewBox="0 0 24 24" fill="none" xmlns="http://www.w3.org/2000/svg">
<path fill-rule="evenodd" clip-rule="evenodd" d="M12.0999 18.8636C12.0919 18.8636 12.0839 18.8636 12.0759 18.8626C11.6889 18.8536 11.3459 18.6296 11.1829 18.2786L11.1459 18.1976L9.36888 9.28063L8.52388 12.6876C8.38288 13.2546 7.87588 13.6516 7.29088 13.6516H3.74988C3.33588 13.6516 2.99988 13.3156 2.99988 12.9016C2.99988 12.4866 3.33588 12.1516 3.74988 12.1516H7.11088L8.49888 6.60563C8.65688 6.24263 9.01688 6.00463 9.41188 5.99963C9.81888 6.00063 10.1729 6.22463 10.3399 6.58463L10.3779 6.66663L12.1819 15.7206L14.0949 8.88663C14.2179 8.44963 14.6139 8.14963 15.0679 8.14963H15.0959C15.5609 8.16363 15.9539 8.48963 16.0539 8.94263L16.7769 12.1136H20.4999C20.9139 12.1136 21.2499 12.4496 21.2499 12.8636C21.2499 13.2776 20.9139 13.6136 20.4999 13.6136H16.5929C15.9969 13.6136 15.4879 13.2076 15.3559 12.6256L15.0189 11.1506L13.0299 18.2496L12.9949 18.3196C12.8189 18.6566 12.4779 18.8636 12.0999 18.8636Z" fill="black"/>
</svg>
