<svg width="24" height="24" viewBox="0 0 24 24" fill="none" xmlns="http://www.w3.org/2000/svg">
<g clip-path="url(#clip0_702_331)">
<path d="M6 18C6 18.6 6.4 19 7 19H8V22.5C8 23.3 8.7 24 9.5 24C10.3 24 11 23.3 11 22.5V19H13V22.5C13 23.3 13.7 24 14.5 24C15.3 24 16 23.3 16 22.5V19H17C17.6 19 18 18.6 18 18V8.00002H6V18ZM3.5 8.00002C2.7 8.00002 2 8.70002 2 9.50002V16.5C2 17.3 2.7 18 3.5 18C4.3 18 5 17.3 5 16.5V9.50002C5 8.70002 4.3 8.00002 3.5 8.00002ZM20.5 8.00002C19.7 8.00002 19 8.70002 19 9.50002V16.5C19 17.3 19.7 18 20.5 18C21.3 18 22 17.3 22 16.5V9.50002C22 8.70002 21.3 8.00002 20.5 8.00002ZM15.5 2.20002L16.8 0.900024C17 0.700024 17 0.400024 16.8 0.200024C16.6 2.44081e-05 16.3 2.44081e-05 16.1 0.200024L14.6 1.70002C13.9 1.20002 13 1.00002 12 1.00002C11 1.00002 10.1 1.20002 9.3 1.60002L7.9 0.100024C7.7 2.44156e-05 7.3 2.44156e-05 7.1 0.100024C7 0.300024 7 0.700024 7.1 0.900024L8.4 2.20002C7 3.30002 6 5.00002 6 7.00002H18C18 5.00002 17 3.20002 15.5 2.20002ZM10 5.00002H9V4.00002H10V5.00002ZM15 5.00002H14V4.00002H15V5.00002Z" fill="black"/>
</g>
<defs>
<clipPath id="clip0_702_331">
<rect width="24" height="24" fill="white"/>
</clipPath>
</defs>
</svg>
