<svg width="24" height="24" viewBox="0 0 24 24" fill="none" xmlns="http://www.w3.org/2000/svg">
<path d="M6.29249 11.2268V15.4178C6.29249 17.8718 8.27549 20.7498 10.7205 20.7498H13.3775C15.8245 20.7498 17.8055 17.8718 17.8055 15.4178V11.2268M17.6895 17.0688C19.2925 15.4068 21.3485 12.5398 21.3485 11.4908C21.3485 9.28176 17.8055 3.74976 12.0495 3.74976C6.29249 3.74976 2.75049 9.28176 2.75049 11.4908C2.75049 12.5398 4.77449 15.3738 6.37749 17.0368M12.0493 16.1672V15.2732" stroke="black" stroke-width="1.5" stroke-linecap="round" stroke-linejoin="round"/>
<path d="M13.4893 14.2301C13.4893 14.7811 12.6013 15.6731 12.0493 15.6731C11.4993 15.6731 10.6103 14.7811 10.6103 14.2301C10.6103 13.7126 11.3916 13.6759 11.9425 13.6733L12.0493 13.6731C12.6013 13.6731 13.4893 13.6781 13.4893 14.2301ZM9.49367 10.6418C10.0217 10.6418 10.4477 11.0788 10.4477 11.6208C10.4477 12.1608 10.0217 12.5998 9.49367 12.5998C8.96767 12.5998 8.53967 12.1608 8.53967 11.6208C8.53967 11.0788 8.96767 10.6418 9.49367 10.6418ZM14.605 10.6418C15.145 10.6418 15.582 11.0788 15.582 11.6208C15.582 12.1608 15.145 12.5998 14.605 12.5998C14.068 12.5998 13.63 12.1608 13.63 11.6208C13.63 11.0788 14.068 10.6418 14.605 10.6418Z" fill="black"/>
<path d="M9.70996 16.0637C9.70996 16.7087 10.234 17.2327 10.88 17.2327C11.526 17.2327 12.049 16.7087 12.049 16.0637C12.049 16.7087 12.573 17.2327 13.22 17.2327C13.865 17.2327 14.388 16.7087 14.388 16.0637" stroke="black" stroke-width="1.5" stroke-linecap="round" stroke-linejoin="round"/>
</svg>
