<svg width="24" height="24" viewBox="0 0 24 24" fill="none" xmlns="http://www.w3.org/2000/svg">
<path fill-rule="evenodd" clip-rule="evenodd" d="M4.6313 7.76001L2 16.2243H3.9888L4.4289 14.5378H6.511L6.9502 16.2243H8.9584L6.3128 7.76001H4.6313ZM17.8115 7.76001V11.0523L18.1265 10.5182L19.6836 7.76001H21.9815L19.5585 11.5008L22 16.2251H19.7785L18.3289 13.1445L17.8115 13.7962V16.2251H15.9336V7.76001H17.8115ZM12.5001 7.76001C13.34 7.76001 14.0203 8.02621 14.5234 8.55281C15.024 9.07781 15.2768 9.76731 15.2768 10.6005C15.2768 11.4361 15.0257 12.1064 14.5276 12.5943C14.0312 13.0815 13.3383 13.3284 12.4682 13.3284H11.4763V16.2243H9.5967V7.76001H12.5001ZM5.4653 10.5484L6.0868 12.9261H4.848L5.4653 10.5484ZM12.5153 9.37171H11.4772V11.7158H12.5001C12.7849 11.7158 12.9965 11.626 13.146 11.4454C13.2989 11.2589 13.3795 10.9792 13.3795 10.6114C13.3795 10.2276 13.2955 9.91931 13.1359 9.69511C12.9797 9.48091 12.7773 9.37511 12.5153 9.37171Z" fill="black"/>
</svg>
