<svg width="24" height="24" viewBox="0 0 24 24" fill="none" xmlns="http://www.w3.org/2000/svg">
<path fill-rule="evenodd" clip-rule="evenodd" d="M19.2186 4.59793C17.2306 2.61693 13.9936 2.61693 12.0056 4.59793L3.5076 13.0659C3.2136 13.3579 3.2126 13.8329 3.5056 14.1259C3.7976 14.4199 4.2726 14.4199 4.5666 14.1279L13.0646 5.65993C14.4686 4.25993 16.7546 4.25993 18.1586 5.65993C18.8386 6.33793 19.2136 7.23893 19.2136 8.19693C19.2136 9.15493 18.8386 10.0559 18.1596 10.7339L9.9216 18.9409C9.3236 19.5379 8.3506 19.5369 7.7516 18.9409C7.4626 18.6519 7.3026 18.2689 7.3026 17.8619C7.3026 17.4539 7.4616 17.0709 7.7506 16.7829L15.2806 9.28193C15.5726 8.98893 15.5736 8.51393 15.2816 8.22093C14.9896 7.92693 14.5146 7.92593 14.2216 8.21893L6.6926 15.7199C6.1186 16.2919 5.8026 17.0529 5.8026 17.8619C5.8036 18.6699 6.1186 19.4309 6.6926 20.0019C7.2836 20.5929 8.0606 20.8879 8.8376 20.8879C9.6146 20.8879 10.3906 20.5929 10.9816 20.0019L19.2186 11.7949C20.1826 10.8339 20.7136 9.55593 20.7136 8.19693C20.7136 6.83693 20.1826 5.55893 19.2186 4.59793Z" fill="black"/>
</svg>
