<svg width="24" height="24" viewBox="0 0 24 24" fill="none" xmlns="http://www.w3.org/2000/svg">
<mask id="mask0_702_367" style="mask-type:luminance" maskUnits="userSpaceOnUse" x="4" y="3" width="16" height="18">
<path d="M13.4013 18.1758C13.7373 17.9328 14.2063 18.0078 14.4493 18.3428C14.6923 18.6788 14.6173 19.1478 14.2823 19.3908C13.5653 19.9088 12.6533 20.2088 11.6673 20.2098C10.6803 20.2098 9.76927 19.9088 9.05127 19.3908C8.71527 19.1488 8.64027 18.6788 8.88327 18.3438C9.12627 18.0078 9.59526 17.9328 9.93026 18.1758C10.3793 18.5008 10.9873 18.7098 11.6673 18.7098C12.3463 18.7098 12.9543 18.5008 13.4013 18.1758ZM11.6667 3.12818C14.8287 3.12618 17.4147 5.60117 17.5547 8.75817L17.5607 8.82417L17.5627 8.87918V11.3622L17.5697 11.3902L19.0027 14.4012C19.1057 14.6172 19.1557 14.8482 19.1557 15.0732C19.1547 15.4892 18.9897 15.8742 18.7137 16.1602C18.4397 16.4472 18.0337 16.6362 17.5917 16.6352H5.74167C5.29967 16.6362 4.89467 16.4472 4.61967 16.1602C4.34367 15.8742 4.17967 15.4892 4.17867 15.0732C4.17867 14.8482 4.22867 14.6162 4.33167 14.4002L4.33067 14.4012L5.76367 11.3892L5.76567 11.3862L5.77067 11.3622V8.87918L5.77367 8.81217L5.77967 8.74617C5.92367 5.59617 8.50767 3.12618 11.6667 3.12818ZM11.6667 4.62818C9.29467 4.63018 7.37267 6.47417 7.27567 8.84317L7.27367 8.87918L7.27067 8.91218V11.3622C7.27067 11.5922 7.21967 11.8242 7.11667 12.0372L7.11867 12.0342L5.68667 15.0462L5.68567 15.0472L5.67867 15.0732L5.69767 15.1172L5.74167 15.1352H17.5917L17.6357 15.1172L17.6557 15.0732L17.6487 15.0462L16.2147 12.0342C16.1147 11.8252 16.0627 11.5962 16.0627 11.3622V8.90618L16.0597 8.86718L16.0587 8.84317C15.9597 6.47417 14.0377 4.63018 11.6667 4.62818Z" fill="white"/>
</mask>
<g mask="url(#mask0_702_367)">
<path fill-rule="evenodd" clip-rule="evenodd" d="M-2.33333 -2.33337H23.3333V23.3333H-7L-2.33333 -2.33337Z" fill="black"/>
</g>
</svg>
