<svg width="24" height="24" viewBox="0 0 24 24" fill="none" xmlns="http://www.w3.org/2000/svg">
<path fill-rule="evenodd" clip-rule="evenodd" d="M13.0155 4.11499H12.2655C11.5765 4.11499 11.0155 4.67699 11.0155 5.36499V13.155C10.3775 12.674 9.5835 12.385 8.7215 12.385C6.6285 12.385 4.9265 14.067 4.9265 16.135C4.9265 18.202 6.6285 19.885 8.7215 19.885C10.6945 19.885 12.3185 18.388 12.4975 16.484C12.5085 16.433 12.5155 16.38 12.5155 16.325V16.135V5.61499H13.0155C16.1245 5.61499 17.5735 8.54799 17.5735 10.53V11.897C17.5735 12.311 17.9095 12.647 18.3235 12.647C18.7375 12.647 19.0735 12.311 19.0735 11.897V10.53C19.0735 7.94299 17.1485 4.11499 13.0155 4.11499Z" fill="black"/>
</svg>
