<svg width="24" height="24" viewBox="0 0 24 24" fill="none" xmlns="http://www.w3.org/2000/svg">
<mask id="mask0_702_389" style="mask-type:luminance" maskUnits="userSpaceOnUse" x="2" y="2" width="19" height="19">
<path d="M17.8955 11.0245C17.1235 11.7965 16.1175 12.1795 15.1045 12.1805C14.6215 12.1805 14.1385 12.0925 13.6825 11.9185C13.4065 11.8115 13.0925 11.8785 12.8835 12.0875L6.32347 18.6485C6.07547 18.8975 5.73547 19.0305 5.40947 19.0295C5.11847 19.0285 4.85447 18.9315 4.64347 18.7325C4.39947 18.5005 4.28247 18.2005 4.28147 17.8915C4.28247 17.5925 4.39247 17.3005 4.62147 17.0715L11.2445 10.4485C11.4545 10.2385 11.5205 9.92552 11.4145 9.64852C11.2385 9.19352 11.1515 8.71152 11.1515 8.22852C11.1515 7.21552 11.5355 6.21052 12.3075 5.43652C13.0815 4.66452 14.0865 4.28152 15.1005 4.28052C15.3475 4.28052 15.5945 4.30952 15.8385 4.35552L13.7165 6.47752C13.4135 6.78052 13.2575 7.18552 13.2585 7.58252C13.2575 7.97952 13.4135 8.38452 13.7165 8.68752L14.6455 9.61652L14.6445 9.61552C14.9475 9.92052 15.3525 10.0755 15.7495 10.0745C16.1475 10.0755 16.5515 9.92052 16.8545 9.61652L18.9765 7.49452C19.0225 7.73852 19.0525 7.98452 19.0525 8.23252C19.0515 9.24552 18.6685 10.2515 17.8955 11.0245ZM20.5515 8.23252C20.5515 7.63252 20.4545 7.03252 20.2555 6.45752C20.0855 5.96352 19.6245 5.66652 19.1555 5.66952C18.8705 5.66752 18.5645 5.78252 18.3425 6.00552L18.3415 6.00652L15.7935 8.55552L15.7495 8.57452L15.7075 8.55652L15.7065 8.55552L14.7775 7.62752L14.7585 7.58252L14.7775 7.53852L17.3245 4.99152L17.3265 4.99052C17.5485 4.76852 17.6655 4.46252 17.6635 4.17652C17.6665 3.70852 17.3685 3.24652 16.8775 3.07652H16.8745C16.3005 2.87852 15.7005 2.78052 15.1005 2.78052C13.7085 2.77952 12.3095 3.31252 11.2475 4.37652C10.1845 5.43852 9.65047 6.83652 9.65147 8.22852C9.65147 8.72352 9.74147 9.21452 9.87447 9.69552L3.56047 16.0105C3.04247 16.5285 2.78047 17.2125 2.78147 17.8915C2.78047 18.5905 3.05947 19.2985 3.61047 19.8205C4.11647 20.3005 4.77147 20.5315 5.40947 20.5295C6.12847 20.5295 6.84447 20.2475 7.38347 19.7095L13.6365 13.4565C14.1185 13.5905 14.6085 13.6805 15.1045 13.6805C16.4965 13.6815 17.8945 13.1475 18.9565 12.0855C20.0185 11.0225 20.5525 9.62452 20.5515 8.23252Z" fill="white"/>
</mask>
<g mask="url(#mask0_702_389)">
<path d="M-2.33333 -2.33325H23.3333V23.3334H-7L-2.33333 -2.33325Z" fill="black"/>
</g>
<path fill-rule="evenodd" clip-rule="evenodd" d="M3.11996 4.07201L19.37 20.322C19.663 20.615 20.138 20.615 20.431 20.322C20.724 20.029 20.724 19.554 20.431 19.261L4.18096 3.01101C3.88796 2.71801 3.41296 2.71801 3.11996 3.01101C2.82696 3.30401 2.82696 3.77901 3.11996 4.07201Z" fill="black"/>
</svg>
