<svg width="24" height="24" viewBox="0 0 24 24" fill="none" xmlns="http://www.w3.org/2000/svg">
<path fill-rule="evenodd" clip-rule="evenodd" d="M13.9403 4.27137C14.0803 3.88237 14.5103 3.68037 14.9003 3.82037C18.3174 5.05237 20.6124 8.33937 20.6124 12.0004C20.6124 14.7944 19.2743 17.3834 17.0954 19.0004H18.4214C18.8354 19.0004 19.1714 19.3354 19.1714 19.7504C19.1714 20.1644 18.8354 20.5004 18.4214 20.5004H15.4104C14.7294 20.5004 14.1754 19.9464 14.1754 19.2654V16.4744C14.1754 16.0604 14.5113 15.7244 14.9254 15.7244C15.3404 15.7244 15.6754 16.0604 15.6754 16.4744V18.1464C17.7873 16.8564 19.1124 14.5314 19.1124 12.0004C19.1124 8.96937 17.2153 6.24937 14.3913 5.23137C14.0023 5.09137 13.8004 4.66237 13.9403 4.27137ZM8.59057 3.49957C9.27057 3.49957 9.82457 4.05357 9.82457 4.73457V7.52457C9.82457 7.93857 9.48867 8.27457 9.07457 8.27457C8.66067 8.27457 8.32457 7.93857 8.32457 7.52457V5.85257C6.21357 7.14257 4.88757 9.46757 4.88757 12.0006C4.88757 15.0306 6.78457 17.7496 9.60757 18.7676C9.99767 18.9076 10.1996 19.3376 10.0597 19.7276C9.94957 20.0326 9.66157 20.2226 9.35367 20.2226C9.26967 20.2226 9.18367 20.2086 9.09967 20.1786C5.68257 18.9476 3.38757 15.6606 3.38757 12.0006C3.38757 9.20457 4.72557 6.61557 6.90457 4.99957H5.57957C5.16457 4.99957 4.82957 4.66457 4.82957 4.24957C4.82957 3.83557 5.16457 3.49957 5.57957 3.49957H8.59057ZM12.8317 8.08047L15.1707 14.9075H13.5718L13.1248 13.4895H10.9998L10.5537 14.9075H8.95367L11.3027 8.08047H12.8317ZM12.0648 10.1195L11.4048 12.2045H12.7207L12.0648 10.1195Z" fill="black"/>
</svg>
