<svg width="24" height="24" viewBox="0 0 24 24" fill="none" xmlns="http://www.w3.org/2000/svg">
<path fill-rule="evenodd" clip-rule="evenodd" d="M15.5642 4.15222C15.8592 3.86122 15.8632 3.38622 15.5722 3.09122C15.2812 2.79722 14.8062 2.79422 14.5112 3.08522L6.73316 10.7552C6.39716 11.0862 6.21216 11.5292 6.21216 12.0012C6.21216 12.4722 6.39716 12.9162 6.73316 13.2472L14.5112 20.9162C14.6572 21.0592 14.8472 21.1312 15.0382 21.1312C15.2312 21.1312 15.4252 21.0562 15.5722 20.9082C15.8632 20.6132 15.8592 20.1382 15.5642 19.8472L7.78716 12.1782C7.72116 12.1152 7.71216 12.0402 7.71216 12.0012C7.71216 11.9622 7.72116 11.8862 7.78716 11.8232L15.5642 4.15222Z" fill="black"/>
</svg>
