<svg width="24" height="24" viewBox="0 0 24 24" fill="none" xmlns="http://www.w3.org/2000/svg">
<path d="M7.76696 17.6256C8.32396 17.6256 8.77696 18.0786 8.77696 18.6356C8.77696 19.1916 8.32396 19.6456 7.76696 19.6456C7.20996 19.6456 6.75696 19.1916 6.75696 18.6356C6.75696 18.0786 7.20996 17.6256 7.76696 17.6256ZM14.5951 17.6353C15.1461 17.6353 15.5951 18.0833 15.5951 18.6353C15.5951 19.1873 15.1461 19.6353 14.5951 19.6353C14.0431 19.6353 13.5951 19.1873 13.5951 18.6353C13.5951 18.0833 14.0431 17.6353 14.5951 17.6353Z" fill="black"/>
<path d="M11.4194 7.81307C11.7074 6.28107 13.0524 5.12207 14.6684 5.12207C16.4944 5.12207 17.9754 6.60207 17.9754 8.42807C17.9754 8.42807 18.0064 10.1131 16.1624 11.3841C14.8004 12.3241 14.5544 13.3561 14.5724 14.1761V15.2921" stroke="black" stroke-width="1.5" stroke-linecap="round" stroke-linejoin="round"/>
<path d="M7.76697 15.2916V5.40961" stroke="black" stroke-width="1.5" stroke-linecap="round" stroke-linejoin="round"/>
</svg>
