<svg width="24" height="24" viewBox="0 0 24 24" fill="none" xmlns="http://www.w3.org/2000/svg">
<path d="M11.9 21C6.90005 21 2.80005 16.9 2.80005 11.9C2.80005 6.89999 6.90005 2.79999 11.9 2.79999C16.9 2.79999 21 6.89999 21 11.9C21 16.9 16.9 21 11.9 21ZM12.6 12.6V19.5C16.2 19.1 19.1 16.3 19.4 12.7H12.6V12.6ZM4.30005 12.6C4.60005 16.2 7.50005 19.1 11.1 19.5V12.6H4.30005ZM12.6 11.1H19.5C19.1 7.49999 16.2 4.59999 12.6 4.29999V11.1ZM4.30005 11.1H11.1V4.29999C7.50005 4.59999 4.60005 7.49999 4.30005 11.1Z" fill="black"/>
<path d="M17.7 18.2C17.4 18.2 17.2 18.1 17 17.8C16.7 17.3 16.3 16.6 15.9 16L15.8 15.9C14.8 14.4 14.4 13.4 14.4 11.8C14.4 10.2 14.8 9.2 15.8 7.7L15.9 7.6C16.3 7 16.7 6.4 16.9 5.9C17.1 5.5 17.6 5.4 17.9 5.6C18.3 5.8 18.4 6.3 18.2 6.6C17.9 7.1 17.5 7.8 17.1 8.4L17 8.5C16.1 9.9 15.8 10.6 15.8 11.8C15.8 13 16.1 13.7 17 15.1L17.1 15.2C17.5 15.9 18 16.6 18.3 17.1C18.5 17.5 18.4 17.9 18 18.1C18 18.2 17.9 18.2 17.7 18.2Z" fill="black"/>
<path d="M5.99995 18.2C5.89995 18.2 5.79995 18.2 5.59995 18.1C5.19995 17.9 5.09995 17.4 5.29995 17.1C5.59995 16.6 5.99995 15.9 6.49995 15.2L6.59995 15.1C7.49995 13.7 7.79995 13 7.79995 11.8C7.79995 10.6 7.49995 9.9 6.59995 8.5H6.49995C6.09995 7.8 5.59995 7.1 5.29995 6.5C5.09995 6.1 5.29995 5.7 5.59995 5.5C5.99995 5.3 6.39995 5.5 6.59995 5.8C6.89995 6.3 7.29995 7 7.69995 7.7L7.79995 7.8C8.79995 9.3 9.19995 10.3 9.19995 11.9C9.19995 13.5 8.79995 14.5 7.79995 16L7.69995 16.1C7.29995 16.7 6.89995 17.4 6.59995 17.9C6.49995 18.1 6.29995 18.2 5.99995 18.2Z" fill="black"/>
</svg>
