<svg width="24" height="24" viewBox="0 0 24 24" fill="none" xmlns="http://www.w3.org/2000/svg">
<g clip-path="url(#clip0_702_426)">
<path d="M14.9038 10.4774C14.6648 9.20438 14.1078 7.89238 12.9088 7.02238C11.8088 6.22238 9.83382 5.55238 8.25282 6.45738C6.71982 7.33538 6.40582 9.20738 6.37882 9.38338C6.24182 10.2734 6.44782 11.1104 6.50782 11.3084C6.60782 11.6374 6.76582 11.9754 6.76582 11.9754C6.95982 12.3724 7.18482 12.9774 7.15082 13.7034C7.09082 14.9884 6.28282 15.2574 6.06682 16.5534C5.88682 17.6304 6.20782 18.9544 7.04682 19.7674C8.22982 20.9134 10.1588 20.7974 11.3698 20.3164M12.3838 16.4705H15.5088L16.4668 12.7355L17.8658 19.6935L19.5018 13.9095L20.0868 16.4505H23.4028M22.8067 12.4256L14.4067 20.8246M6.22952 10.4412C5.14152 9.63418 4.47552 8.29318 4.61952 6.80418C4.80452 4.88318 6.38452 3.33818 8.30952 3.19218C10.5345 3.02118 12.4145 4.66218 12.6305 6.79418" stroke="black" stroke-width="1.5" stroke-linecap="round" stroke-linejoin="round"/>
</g>
<defs>
<clipPath id="clip0_702_426">
<rect width="24" height="24" fill="white"/>
</clipPath>
</defs>
</svg>
