<svg width="24" height="24" viewBox="0 0 24 24" fill="none" xmlns="http://www.w3.org/2000/svg">
<path d="M8.38572 10.5191C7.29372 9.7111 6.62472 8.3681 6.76972 6.8781C6.95572 4.9561 8.54072 3.4101 10.4717 3.2621C12.7047 3.0921 14.5917 4.7341 14.8087 6.8681M10.4155 6.5318C8.87752 7.4108 8.56152 9.2848 8.53552 9.4608C8.39752 10.3498 8.60452 11.1878 8.66552 11.3858C8.76552 11.7168 8.92352 12.0538 8.92352 12.0538C9.11852 12.4518 9.34452 13.0568 9.31052 13.7838C9.24852 15.0698 8.43952 15.3398 8.22252 16.6358C8.04152 17.7148 8.36352 19.0398 9.20552 19.8528C10.3935 21.0008 12.3285 20.8848 13.5435 20.4028C16.4925 19.2338 16.9985 15.1988 17.1245 14.1888C17.2515 13.1778 17.7705 9.0398 15.0885 7.0958C13.9845 6.2968 12.0025 5.6258 10.4155 6.5318Z" stroke="black" stroke-width="1.5" stroke-linecap="round" stroke-linejoin="round"/>
</svg>
