<svg width="24" height="24" viewBox="0 0 24 24" fill="none" xmlns="http://www.w3.org/2000/svg">
<path d="M22.5001 18.7531H20.2271C20.0881 18.7531 19.9771 18.6411 19.9771 18.5031V17.1531C19.9771 17.0161 20.0881 16.9031 20.2271 16.9031H22.5001C22.6381 16.9031 22.7501 17.0161 22.7501 17.1531V18.5031C22.7501 18.6411 22.6381 18.7531 22.5001 18.7531ZM15.524 19.675H13.25C13.112 19.675 13 19.563 13 19.425V18.075C13 17.938 13.112 17.825 13.25 17.825H15.524C15.662 17.825 15.774 17.938 15.774 18.075V19.425C15.774 19.563 15.662 19.675 15.524 19.675ZM19.0118 15.9231H16.7388C16.5998 15.9231 16.4888 15.8111 16.4888 15.6731V14.3231C16.4888 14.1861 16.5998 14.0731 16.7388 14.0731H19.0118C19.1498 14.0731 19.2618 14.1861 19.2618 14.3231V15.6731C19.2618 15.8111 19.1498 15.9231 19.0118 15.9231Z" fill="black"/>
<path d="M15.7433 10.968C15.5723 9.50898 15.0393 7.89598 13.6393 6.87798C12.5283 6.07198 10.5343 5.39498 8.93832 6.30998C7.39032 7.19598 7.07332 9.08498 7.04632 9.26298C6.90832 10.16 7.11632 11.005 7.17732 11.205C7.27832 11.537 7.43732 11.879 7.43732 11.879C7.63332 12.28 7.86032 12.891 7.82632 13.623C7.76432 14.92 6.95032 15.193 6.73132 16.5C6.55032 17.587 6.87332 18.924 7.72032 19.744C8.35532 20.36 9.20332 20.614 10.0413 20.646M6.89562 10.3303C5.79762 9.51628 5.12462 8.16128 5.26962 6.65928C5.45762 4.72028 7.05162 3.16028 8.99462 3.01228C11.2416 2.84028 13.1396 4.49628 13.3576 6.64828M21.3634 13.0295V20.9995M17.8751 20.9992V13.0292M14.3873 20.9992V13.0292" stroke="black" stroke-width="1.5" stroke-linecap="round" stroke-linejoin="round"/>
</svg>
