<svg width="24" height="24" viewBox="0 0 24 24" fill="none" xmlns="http://www.w3.org/2000/svg">
<path d="M20.6189 18.2438C20.6189 17.9018 20.3419 17.6248 19.9999 17.6248C19.6589 17.6248 19.3819 17.9018 19.3819 18.2438C19.3819 18.4438 19.4779 18.6198 19.6249 18.7328V19.5868C19.6249 19.7938 19.7929 19.9618 19.9999 19.9618C20.2069 19.9618 20.3749 19.7938 20.3749 19.5868V18.7328C20.5219 18.6198 20.6189 18.4438 20.6189 18.2438Z" fill="black"/>
<path d="M6.88152 10.2692C5.79252 9.46117 5.12552 8.11817 5.26952 6.62817C5.45552 4.70617 7.03652 3.16017 8.96352 3.01217C11.1905 2.84117 13.0725 4.48417 13.2895 6.61817M21.5661 16.4626V14.5896C21.5661 13.7256 20.8651 13.0246 20.0001 13.0246C19.1351 13.0246 18.4341 13.7256 18.4341 14.5896V16.4626M8.90642 6.28187C7.37242 7.16087 7.05742 9.03387 7.03142 9.20987C6.89442 10.0999 7.09942 10.9379 7.16042 11.1359C7.26042 11.4659 7.41842 11.8039 7.41842 11.8039C7.61242 12.2009 7.83842 12.8069 7.80342 13.5339C7.74242 14.8199 6.93542 15.0899 6.71842 16.3859C6.53842 17.4649 6.85942 18.7899 7.69942 19.6029C8.88442 20.7509 10.8144 20.6349 12.0274 20.1529C14.9684 18.9839 15.4724 14.9489 15.5994 13.9389C15.7254 12.9279 16.2434 8.78987 13.5674 6.84587C12.4664 6.04587 10.4894 5.37487 8.90642 6.28187ZM22.0002 20.9997H18.0002C17.5852 20.9997 17.2502 20.6637 17.2502 20.2497V17.2127C17.2502 16.7987 17.5852 16.4627 18.0002 16.4627H22.0002C22.4142 16.4627 22.7502 16.7987 22.7502 17.2127V20.2497C22.7502 20.6637 22.4142 20.9997 22.0002 20.9997Z" stroke="black" stroke-width="1.5" stroke-linecap="round" stroke-linejoin="round"/>
</svg>
