<svg width="24" height="24" viewBox="0 0 24 24" fill="none" xmlns="http://www.w3.org/2000/svg">
<path d="M18.2721 14.4777C18.0651 14.4777 17.8971 14.6457 17.8971 14.8527V18.4617C17.8971 18.6687 18.0651 18.8367 18.2721 18.8367C18.4791 18.8367 18.6471 18.6687 18.6471 18.4617V14.8527C18.6471 14.6457 18.4791 14.4777 18.2721 14.4777ZM16.9508 15.3361C16.7438 15.3361 16.5758 15.5041 16.5758 15.7111V17.6041C16.5758 17.8111 16.7438 17.9791 16.9508 17.9791C17.1588 17.9791 17.3258 17.8111 17.3258 17.6041V15.7111C17.3258 15.5041 17.1588 15.3361 16.9508 15.3361ZM19.5934 15.3361C19.3864 15.3361 19.2184 15.5041 19.2184 15.7111V17.6041C19.2184 17.8111 19.3864 17.9791 19.5934 17.9791C19.8004 17.9791 19.9684 17.8111 19.9684 17.6041V15.7111C19.9684 15.5041 19.8004 15.3361 19.5934 15.3361ZM15.631 15.9308C15.424 15.9308 15.256 16.0988 15.256 16.3058V17.0088C15.256 17.2158 15.424 17.3838 15.631 17.3838C15.838 17.3838 16.006 17.2158 16.006 17.0088V16.3058C16.006 16.0988 15.838 15.9308 15.631 15.9308ZM20.9142 15.9308C20.7062 15.9308 20.5392 16.0988 20.5392 16.3058V17.0088C20.5392 17.2158 20.7062 17.3838 20.9142 17.3838C21.1212 17.3838 21.2892 17.2158 21.2892 17.0088V16.3058C21.2892 16.0988 21.1212 15.9308 20.9142 15.9308Z" fill="black"/>
<path d="M15.9537 12.1261C15.9547 10.4541 15.6037 8.14712 13.8017 6.83812C12.7027 6.04012 10.7297 5.37012 9.14968 6.27512C7.61868 7.15212 7.30468 9.02212 7.27768 9.19812C7.14068 10.0871 7.34668 10.9231 7.40668 11.1201C7.50668 11.4491 7.66368 11.7871 7.66368 11.7871C7.85768 12.1841 8.08268 12.7881 8.04868 13.5141C7.98868 14.7981 7.18268 15.0661 6.96568 16.3611C6.78668 17.4381 7.10568 18.7601 7.94468 19.5721C9.12668 20.7171 11.0537 20.6021 12.2647 20.1201C13.1227 19.7791 13.7737 19.1931 14.2677 18.5091M7.12848 10.2551C6.04148 9.44912 5.37548 8.10812 5.51948 6.62112C5.70448 4.70212 7.28348 3.15812 9.20548 3.01212C11.4295 2.84212 13.3075 4.48112 13.5245 6.61012M14.0455 12.7961C14.0455 12.6571 14.1575 12.5461 14.2955 12.5461H18.3635C20.6565 12.5961 22.5005 14.4691 22.5005 16.7731C22.5005 19.1001 20.6195 20.9871 18.2955 21.0001H18.2495C18.2455 20.9981 18.2425 20.9981 18.2395 20.9981C15.9445 20.9831 14.1025 19.1091 14.0465 16.8251L14.0455 12.7961Z" stroke="black" stroke-width="1.5" stroke-linecap="round" stroke-linejoin="round"/>
</svg>
