<svg width="24" height="24" viewBox="0 0 24 24" fill="none" xmlns="http://www.w3.org/2000/svg">
<path d="M20.7501 3.25C21.8541 3.25 22.7501 4.146 22.7501 5.25C22.7501 6.354 21.8541 7.25 20.7501 7.25C19.6461 7.25 18.7501 6.354 18.7501 5.25C18.7501 4.146 19.6461 3.25 20.7501 3.25Z" fill="black"/>
<path d="M6.87848 10.5381C5.79148 9.73208 5.12548 8.39208 5.26948 6.90408C5.45448 4.98508 7.03348 3.44208 8.95548 3.29508C11.1795 3.12508 13.0575 4.76408 13.2745 6.89408M8.89948 6.55858C7.36848 7.43558 7.05448 9.30558 7.02748 9.48158C6.89048 10.3706 7.09648 11.2056 7.15648 11.4046C7.25648 11.7336 7.41448 12.0706 7.41448 12.0706C7.60748 12.4666 7.83348 13.0726 7.79848 13.7966C7.73848 15.0806 6.93248 15.3506 6.71548 16.6446C6.53648 17.7206 6.85648 19.0436 7.69448 19.8556C8.87748 21.0006 10.8035 20.8846 12.0145 20.4046C14.9495 19.2376 15.4535 15.2096 15.5795 14.2026C15.7065 13.1926 16.2225 9.06158 13.5515 7.12158C12.4525 6.32358 10.4795 5.65358 8.89948 6.55858Z" stroke="black" stroke-width="1.5" stroke-linecap="round" stroke-linejoin="round"/>
</svg>
