<svg width="24" height="24" viewBox="0 0 24 24" fill="none" xmlns="http://www.w3.org/2000/svg">
<path fill-rule="evenodd" clip-rule="evenodd" d="M17.1521 16.235H16.5541V15.637C16.5541 15.43 16.3871 15.262 16.1791 15.262C15.9721 15.262 15.8041 15.43 15.8041 15.637V16.235H15.2071C15.0001 16.235 14.8321 16.403 14.8321 16.61C14.8321 16.817 15.0001 16.985 15.2071 16.985H15.8041V17.583C15.8041 17.79 15.9721 17.958 16.1791 17.958C16.3871 17.958 16.5541 17.79 16.5541 17.583V16.985H17.1521C17.3591 16.985 17.5271 16.817 17.5271 16.61C17.5271 16.403 17.3591 16.235 17.1521 16.235ZM20.6779 17.3883C20.6779 17.6883 20.4349 17.9303 20.1359 17.9303C19.8359 17.9303 19.5929 17.6883 19.5929 17.3883C19.5929 17.0883 19.8359 16.8463 20.1359 16.8463C20.4349 16.8463 20.6779 17.0883 20.6779 17.3883ZM19.4558 16.0631C19.4558 16.3631 19.2128 16.6051 18.9138 16.6051C18.6138 16.6051 18.3708 16.3631 18.3708 16.0631C18.3708 15.7631 18.6138 15.5201 18.9138 15.5201C19.2128 15.5201 19.4558 15.7631 19.4558 16.0631Z" fill="black"/>
<path d="M16.4016 13.737C16.5516 12.275 16.6926 8.82097 14.3176 7.09597C13.2156 6.29597 11.2396 5.62597 9.65662 6.53197C8.12262 7.41097 7.80762 9.28397 7.78062 9.46097C7.64462 10.35 7.84962 11.188 7.91062 11.386C8.01062 11.716 8.16862 12.054 8.16862 12.054C8.36262 12.451 8.58862 13.057 8.55362 13.784C8.49262 15.07 7.68562 15.34 7.46862 16.636C7.28862 17.715 7.60962 19.04 8.44962 19.853C9.63362 21.001 11.5646 20.884 12.7766 20.403C13.0556 20.292 13.3126 20.156 13.5486 19.999M7.63152 10.5192C6.54252 9.71117 5.87552 8.36817 6.01952 6.87817C6.20552 4.95617 7.78652 3.41017 9.71352 3.26217C11.9405 3.09117 13.8225 4.73417 14.0395 6.86817M22.0002 16.8932C22.0002 15.2952 20.7052 13.9992 19.1072 13.9992H16.5292C14.9322 13.9992 13.6362 15.2952 13.6362 16.8932V19.6232C13.6362 20.3202 14.2232 20.7492 14.7672 20.7492C15.0492 20.7492 15.3202 20.6412 15.5302 20.4432L16.7742 19.2762C16.8202 19.2322 16.8812 19.2082 16.9452 19.2082H18.6912C18.7542 19.2082 18.8152 19.2322 18.8622 19.2762L20.1052 20.4432C20.3192 20.6442 20.5832 20.7492 20.8692 20.7492C21.4132 20.7492 22.0002 20.3202 22.0002 19.6232V16.8932Z" stroke="black" stroke-width="1.5" stroke-linecap="round" stroke-linejoin="round"/>
</svg>
