<svg width="24" height="24" viewBox="0 0 24 24" fill="none" xmlns="http://www.w3.org/2000/svg">
<path fill-rule="evenodd" clip-rule="evenodd" d="M20.2497 16.8882H4.49969V9.38819C4.49969 8.97319 4.16369 8.63819 3.74969 8.63819C3.33569 8.63819 2.99969 8.97319 2.99969 9.38819V19.8882C2.99969 20.3022 3.33569 20.6382 3.74969 20.6382C4.16369 20.6382 4.49969 20.3022 4.49969 19.8882V18.3882H19.4997V19.8882C19.4997 20.3022 19.8357 20.6382 20.2497 20.6382C20.6637 20.6382 20.9997 20.3022 20.9997 19.8882V17.6382C20.9997 17.2232 20.6637 16.8882 20.2497 16.8882ZM18.2497 12.3882H7.99969C6.61869 12.3882 5.49969 13.5072 5.49969 14.8882V15.8882H20.7497V14.8882C20.7497 13.5072 19.6307 12.3882 18.2497 12.3882ZM17.5144 3.35109C17.5074 3.34809 17.5034 3.35109 17.5054 3.35709L17.5084 3.36309C17.6384 3.72209 17.7084 4.11009 17.7084 4.51509C17.7084 6.37209 16.2144 7.87609 14.3704 7.87609C13.9234 7.87609 13.4964 7.78809 13.1074 7.62609L13.1024 7.62509C13.0974 7.62209 13.0954 7.62609 13.0984 7.63409L13.1004 7.64009C13.5764 8.91109 14.7954 9.81509 16.2244 9.81509C18.0684 9.81509 19.5624 8.30909 19.5624 6.45309C19.5624 5.05909 18.7204 3.86309 17.5204 3.35409L17.5144 3.35109Z" fill="black"/>
</svg>
