<svg width="24" height="24" viewBox="0 0 24 24" fill="none" xmlns="http://www.w3.org/2000/svg">
<path d="M8.2441 5.08182C8.2441 4.82492 8.0346 4.61682 7.7786 4.61682C7.5215 4.61682 7.3118 4.82492 7.3118 5.08182C7.3118 5.33892 7.5215 5.54762 7.7786 5.54762C8.0346 5.54762 8.2441 5.33892 8.2441 5.08182Z" fill="black"/>
<path d="M11.1519 5.0818C11.1519 4.7609 10.8927 4.5 10.5709 4.5C10.2488 4.5 9.9882 4.7609 9.9882 5.0818C9.9882 5.4036 10.2488 5.6635 10.5709 5.6635C10.8927 5.6635 11.1519 5.4036 11.1519 5.0818Z" fill="black"/>
<path d="M13.946 5.0818C13.946 4.7609 13.6849 4.5 13.3631 4.5C13.0415 4.5 12.7823 4.7609 12.7823 5.0818C12.7823 5.4036 13.0415 5.6635 13.3631 5.6635C13.6849 5.6635 13.946 5.4036 13.946 5.0818Z" fill="black"/>
<path d="M16.6199 5.08182C16.6199 4.82492 16.4125 4.61682 16.1544 4.61682C15.8994 4.61682 15.6904 4.82492 15.6904 5.08182C15.6904 5.33892 15.8994 5.54762 16.1544 5.54762C16.4125 5.54762 16.6199 5.33892 16.6199 5.08182Z" fill="black"/>
<path d="M5.45231 7.64109C5.45231 7.38419 5.24311 7.17609 4.98661 7.17609C4.72921 7.17609 4.51981 7.38419 4.51981 7.64109C4.51981 7.89919 4.72921 8.10699 4.98661 8.10699C5.24311 8.10699 5.45231 7.89919 5.45231 7.64109Z" fill="black"/>
<path d="M8.35949 7.64151C8.35949 7.32021 8.09859 7.05981 7.77889 7.05981C7.45749 7.05981 7.19659 7.32021 7.19659 7.64151C7.19659 7.96291 7.45749 8.22331 7.77889 8.22331C8.09859 8.22331 8.35949 7.96291 8.35949 7.64151Z" fill="black"/>
<path d="M16.7376 7.64151C16.7376 7.32021 16.4767 7.05981 16.1551 7.05981C15.8356 7.05981 15.5748 7.32021 15.5748 7.64151C15.5748 7.96291 15.8356 8.22331 16.1551 8.22331C16.4767 8.22331 16.7376 7.96291 16.7376 7.64151Z" fill="black"/>
<path d="M19.4144 7.64109C19.4144 7.38419 19.2049 7.17609 18.9466 7.17609C18.6914 7.17609 18.4819 7.38419 18.4819 7.64109C18.4819 7.89919 18.6914 8.10699 18.9466 8.10699C19.2049 8.10699 19.4144 7.89919 19.4144 7.64109Z" fill="black"/>
<mask id="mask0_702_458" style="mask-type:luminance" maskUnits="userSpaceOnUse" x="18" y="9" width="2" height="3">
<path d="M18.3663 9.85217H19.53V11.0157H18.3663V9.85217Z" fill="white"/>
</mask>
<g mask="url(#mask0_702_458)">
<path d="M19.5301 10.434C19.5301 10.1122 19.269 9.85217 18.9469 9.85217C18.6274 9.85217 18.3663 10.1122 18.3663 10.434C18.3663 10.7554 18.6274 11.0158 18.9469 11.0158C19.269 11.0158 19.5301 10.7554 19.5301 10.434Z" fill="black"/>
</g>
<path d="M8.4763 10.434C8.4763 10.0477 8.1628 9.7359 7.7791 9.7359C7.3933 9.7359 7.0798 10.0477 7.0798 10.434C7.0798 10.8196 7.3933 11.1321 7.7791 11.1321C8.1628 11.1321 8.4763 10.8196 8.4763 10.434Z" fill="black"/>
<path d="M16.8543 10.434C16.8543 10.0477 16.5411 9.7359 16.1548 9.7359C15.7713 9.7359 15.4579 10.0477 15.4579 10.434C15.4579 10.8196 15.7713 11.1321 16.1548 11.1321C16.5411 11.1321 16.8543 10.8196 16.8543 10.434Z" fill="black"/>
<path d="M5.5675 13.2265C5.5675 12.906 5.3066 12.6452 4.9866 12.6452C4.6655 12.6452 4.4044 12.906 4.4044 13.2265C4.4044 13.5478 4.6655 13.8087 4.9866 13.8087C5.3066 13.8087 5.5675 13.5478 5.5675 13.2265Z" fill="black"/>
<path d="M5.56791 10.434C5.56791 10.1122 5.30681 9.85217 4.98691 9.85217C4.66531 9.85217 4.40421 10.1122 4.40421 10.434C4.40421 10.7554 4.66531 11.0158 4.98691 11.0158C5.30681 11.0158 5.56791 10.7554 5.56791 10.434Z" fill="black"/>
<path d="M8.47579 13.226C8.47579 12.8416 8.16259 12.5288 7.77889 12.5288C7.39349 12.5288 7.08009 12.8416 7.08009 13.226C7.08009 13.6123 7.39349 13.9251 7.77889 13.9251C8.16259 13.9251 8.47579 13.6123 8.47579 13.226Z" fill="black"/>
<path d="M8.3595 16.0176C8.3595 15.6972 8.0986 15.4363 7.7786 15.4363C7.4575 15.4363 7.1964 15.6972 7.1964 16.0176C7.1964 16.3394 7.4575 16.5998 7.7786 16.5998C8.0986 16.5998 8.3595 16.3394 8.3595 16.0176Z" fill="black"/>
<path d="M16.8542 13.226C16.8542 12.8416 16.5407 12.5288 16.1549 12.5288C15.7716 12.5288 15.4584 12.8416 15.4584 13.226C15.4584 13.6123 15.7716 13.9251 16.1549 13.9251C16.5407 13.9251 16.8542 13.6123 16.8542 13.226Z" fill="black"/>
<path d="M16.7378 16.0176C16.7378 15.6972 16.4767 15.4363 16.1551 15.4363C15.8356 15.4363 15.5748 15.6972 15.5748 16.0176C15.5748 16.3394 15.8356 16.5998 16.1551 16.5998C16.4767 16.5998 16.7378 16.3394 16.7378 16.0176Z" fill="black"/>
<path d="M19.5298 13.2265C19.5298 12.906 19.2687 12.6452 18.9469 12.6452C18.6276 12.6452 18.3668 12.906 18.3668 13.2265C18.3668 13.5478 18.6276 13.8087 18.9469 13.8087C19.2687 13.8087 19.5298 13.5478 19.5298 13.2265Z" fill="black"/>
<path fill-rule="evenodd" clip-rule="evenodd" d="M5.4529 16.018C5.4529 15.7616 5.243 15.5526 4.9866 15.5526C4.7292 15.5526 4.5193 15.7616 4.5193 16.018C4.5193 16.2761 4.7292 16.4834 4.9866 16.4834C5.243 16.4834 5.4529 16.2761 5.4529 16.018Z" fill="black"/>
<path fill-rule="evenodd" clip-rule="evenodd" d="M19.4148 16.018C19.4148 15.7616 19.2049 15.5526 18.9466 15.5526C18.6914 15.5526 18.4812 15.7616 18.4812 16.018C18.4812 16.2761 18.6914 16.4834 18.9466 16.4834C19.2049 16.4834 19.4148 16.2761 19.4148 16.018Z" fill="black"/>
<path d="M8.2433 18.5778C8.2433 18.3214 8.0346 18.1133 7.7786 18.1133C7.5217 18.1133 7.3125 18.3214 7.3125 18.5778C7.3125 18.8349 7.5217 19.0441 7.7786 19.0441C8.0346 19.0441 8.2433 18.8349 8.2433 18.5778Z" fill="black"/>
<mask id="mask1_702_458" style="mask-type:luminance" maskUnits="userSpaceOnUse" x="9" y="17" width="3" height="3">
<path d="M9.9882 17.9969H11.152V19.1604H9.9882V17.9969Z" fill="white"/>
</mask>
<g mask="url(#mask1_702_458)">
<path fill-rule="evenodd" clip-rule="evenodd" d="M11.1519 18.5778C11.1519 18.2578 10.8927 17.997 10.5709 17.997C10.2488 17.997 9.9882 18.2578 9.9882 18.5778C9.9882 18.8996 10.2488 19.1605 10.5709 19.1605C10.8927 19.1605 11.1519 18.8996 11.1519 18.5778Z" fill="black"/>
</g>
<mask id="mask2_702_458" style="mask-type:luminance" maskUnits="userSpaceOnUse" x="12" y="17" width="2" height="3">
<path d="M12.7823 17.9969H13.9461V19.1604H12.7823V17.9969Z" fill="white"/>
</mask>
<g mask="url(#mask2_702_458)">
<path d="M13.946 18.5778C13.946 18.2578 13.6849 17.997 13.3631 17.997C13.0415 17.997 12.7823 18.2578 12.7823 18.5778C12.7823 18.8996 13.0415 19.1605 13.3631 19.1605C13.6849 19.1605 13.946 18.8996 13.946 18.5778Z" fill="black"/>
</g>
<path fill-rule="evenodd" clip-rule="evenodd" d="M16.6196 18.5778C16.6196 18.3214 16.4123 18.1133 16.1549 18.1133C15.8996 18.1133 15.6907 18.3214 15.6907 18.5778C15.6907 18.8349 15.8996 19.0441 16.1549 19.0441C16.4123 19.0441 16.6196 18.8349 16.6196 18.5778Z" fill="black"/>
<path d="M13.5287 9.76021C13.5287 10.6227 12.828 11.3226 11.9664 11.3226C11.1057 11.3226 10.4056 10.6227 10.4056 9.76021C10.4056 8.89781 11.1057 8.20001 11.9664 8.20001C12.828 8.20001 13.5287 8.89781 13.5287 9.76021Z" fill="black"/>
<path d="M14.258 15.0219C14.386 15.0219 14.4907 14.9172 14.4907 14.7892V14.3014C14.4907 13.1726 13.3598 12.1226 11.9668 12.1226C10.5748 12.1226 9.4436 13.1726 9.4436 14.3014V14.7892C9.4436 14.9172 9.5481 15.0219 9.6763 15.0219H14.258Z" fill="black"/>
</svg>
