<svg width="24" height="24" viewBox="0 0 24 24" fill="none" xmlns="http://www.w3.org/2000/svg">
<path fill-rule="evenodd" clip-rule="evenodd" d="M9.3 10.35C9.3 10.7642 8.96418 11.1 8.55 11.1C8.13573 11.1 7.8 10.7642 7.8 10.35C7.8 9.9358 8.13573 9.59998 8.55 9.59998C8.96418 9.59998 9.3 9.9358 9.3 10.35Z" fill="black"/>
<path fill-rule="evenodd" clip-rule="evenodd" d="M16.5 10.35C16.5 10.7642 16.1642 11.1 15.75 11.1C15.3357 11.1 15 10.7642 15 10.35C15 9.9358 15.3357 9.59998 15.75 9.59998C16.1642 9.59998 16.5 9.9358 16.5 10.35Z" fill="black"/>
<path fill-rule="evenodd" clip-rule="evenodd" d="M12.2551 13.2C12.0479 13.2 11.88 13.018 11.88 12.7933V9.70679C11.88 9.48212 12.0479 9.29999 12.2551 9.29999C12.4622 9.29999 12.63 9.48212 12.63 9.70679V12.7933C12.63 13.018 12.4622 13.2 12.2551 13.2Z" fill="black"/>
<path fill-rule="evenodd" clip-rule="evenodd" d="M9.73533 15.3858C10.3706 16.039 11.2347 16.4143 12.1499 16.4143C13.0652 16.4143 13.9295 16.039 14.5647 15.3858H9.73533ZM12.1499 17.1C10.7864 17.1 9.5178 16.4026 8.75652 15.234C8.68806 15.1289 8.68125 14.9934 8.73906 14.8817C8.79696 14.7698 8.9097 14.7 9.03264 14.7H15.2674C15.3903 14.7 15.5031 14.7698 15.5609 14.8817C15.6187 14.9934 15.612 15.1289 15.5435 15.234C14.7823 16.4026 13.5136 17.1 12.1499 17.1Z" fill="black"/>
<mask id="mask0_702_497" style="mask-type:luminance" maskUnits="userSpaceOnUse" x="2" y="1" width="21" height="21">
<path d="M2.1 1.83075H22.1693V21.9H2.1V1.83075Z" fill="white"/>
</mask>
<g mask="url(#mask0_702_497)">
<path fill-rule="evenodd" clip-rule="evenodd" d="M12.1347 2.64582C7.05093 2.64582 2.91504 6.78162 2.91504 11.8654C2.91504 16.9491 7.05093 21.085 12.1347 21.085C17.2184 21.085 21.3542 16.9491 21.3542 11.8654C21.3542 6.78162 17.2184 2.64582 12.1347 2.64582ZM12.1347 21.9001C6.60147 21.9001 2.09997 17.3985 2.09997 11.8654C2.09997 6.33216 6.60147 1.83075 12.1347 1.83075C17.6678 1.83075 22.1693 6.33216 22.1693 11.8654C22.1693 17.3985 17.6678 21.9001 12.1347 21.9001Z" fill="black"/>
</g>
</svg>
