<svg width="24" height="24" viewBox="0 0 24 24" fill="none" xmlns="http://www.w3.org/2000/svg">
<path d="M17.4531 19.1419C16.409 19.1419 15.4264 18.8349 14.5667 18.2515C12.6322 16.9311 11.5881 14.5974 11.7109 12.018C11.7109 11.8031 11.9259 11.6188 12.1408 11.6188C12.3558 11.6188 12.54 11.8338 12.54 12.0487C12.4172 14.3517 13.3384 16.4091 15.0272 17.5759C15.7642 18.0672 16.624 18.3436 17.5145 18.3129C17.7295 18.3129 17.9444 18.4971 17.9444 18.7121C17.9444 18.927 17.7601 19.1419 17.5452 19.1419C17.5145 19.1419 17.4838 19.1419 17.4531 19.1419Z" fill="black"/>
<path d="M8.51742 20.4009C8.42532 20.4009 8.3025 20.3702 8.24106 20.2781C7.7805 19.8482 7.41198 19.3262 7.10496 18.7734C5.93808 16.5012 5.47746 13.8911 5.81526 11.2503C5.81526 11.1582 5.84598 11.0661 5.84598 10.974C5.87664 10.759 6.09162 10.6055 6.33726 10.6362C6.55224 10.6669 6.70572 10.8818 6.67506 11.1275C6.67506 11.2196 6.64434 11.281 6.64434 11.3732C6.33726 13.8604 6.76716 16.2862 7.8726 18.405C8.11824 18.8963 8.45604 19.3262 8.85522 19.6946C9.00876 19.8482 9.03948 20.1245 8.85522 20.2781C8.7324 20.3702 8.64024 20.4009 8.51742 20.4009Z" fill="black"/>
<path d="M17.9444 13.8604C17.9137 13.8604 17.883 13.8604 17.8523 13.8604C17.6373 13.799 17.4838 13.584 17.5452 13.3691C18.1594 10.8511 16.9004 8.21037 14.5667 7.07421C12.2329 5.93805 9.37722 6.61359 7.7805 8.64021C7.62696 8.82447 7.38132 8.85519 7.19706 8.70165C7.0128 8.54811 6.98208 8.30247 7.13562 8.11821C8.97804 5.78451 12.2636 5.01687 14.9351 6.30651C17.6066 7.59621 19.0498 10.6669 18.3436 13.5533C18.2822 13.7376 18.1286 13.8604 17.9444 13.8604Z" fill="black"/>
<path d="M13.9218 21.1993C13.8911 21.1993 13.8297 21.1993 13.799 21.1686C13.0006 20.8923 12.2636 20.4624 11.6495 19.8789C9.50004 17.8216 8.42532 14.8123 8.76312 11.6188C8.88594 10.6977 9.31584 9.89924 10.0528 9.34652C10.7897 8.7938 11.6495 8.54816 12.5707 8.64026C14.4438 8.85524 15.7642 10.5748 15.5186 12.4172C15.3036 14.1061 16.1327 15.3958 17.6066 15.6414C18.2207 15.7642 18.8656 15.58 19.4183 15.1808C20.0939 14.6895 20.5237 13.9218 20.6466 13.0314C21.1686 8.39462 17.8216 4.15712 13.2155 3.6044C8.57886 3.05168 4.31064 6.33728 3.69648 10.974C3.48156 12.3558 3.51228 13.7376 3.69648 15.0887C3.75792 15.3958 3.8193 15.7028 3.94212 16.0099L3.97284 16.0713C4.065 16.2862 3.94212 16.5319 3.7272 16.5933C3.51228 16.6854 3.26658 16.5626 3.2052 16.3477L3.17448 16.317C3.02094 15.9485 2.92884 15.58 2.8674 15.2115C2.65248 13.799 2.65248 12.3251 2.83668 10.9126C3.51228 5.81528 8.17968 2.19188 13.277 2.8367C18.3436 3.45086 21.9977 8.11826 21.445 13.1849C21.3221 14.2903 20.7387 15.2729 19.9096 15.8871C19.1726 16.4398 18.3128 16.6547 17.4531 16.5012C15.58 16.1941 14.4438 14.5053 14.6895 12.3558C14.8737 10.9433 13.8604 9.6536 12.4479 9.50006C11.7724 9.40796 11.0968 9.59222 10.5441 10.0221C9.99138 10.452 9.65358 11.0661 9.56148 11.7417C9.2544 14.6588 10.2063 17.4224 12.2023 19.2955C12.7243 19.7868 13.3384 20.1553 14.0446 20.4009C14.2596 20.4624 14.3824 20.708 14.2903 20.923C14.2289 21.0765 14.0753 21.1993 13.9218 21.1993Z" fill="black"/>
</svg>
