<svg width="24" height="24" viewBox="0 0 24 24" fill="none" xmlns="http://www.w3.org/2000/svg">
<path d="M7.05935 6.5944L8.82115 8.3587L9.88215 9.4187L14.5447 14.081L13.3593 13.186V18.869C13.3593 18.888 13.3593 18.948 13.4293 18.984C13.4833 19.011 13.5233 18.9975 13.5466 18.9844L13.5643 18.973L16.9497 16.487L18.0238 17.561L14.4523 20.182C14.214 20.357 13.9403 20.4604 13.6589 20.4901L13.4893 20.499C13.2383 20.499 12.9863 20.441 12.7523 20.322C12.2473 20.0653 11.9178 19.5767 11.8664 19.0218L11.8593 18.869V13.326L7.27335 16.79C6.94235 17.04 6.47235 16.975 6.22235 16.645C5.99515 16.3441 6.02895 15.9283 6.28575 15.6673L6.36935 15.594L11.4574 11.749L6.36935 7.905C6.03835 7.655 5.97235 7.185 6.22235 6.854C6.42205 6.5904 6.76195 6.4953 7.05935 6.5944ZM14.3248 3.2322L14.4523 3.317L18.1833 6.054C18.5623 6.321 18.8024 6.746 18.8314 7.215C18.8594 7.671 18.6773 8.122 18.3463 8.42L18.3225 8.4416L18.2964 8.461L14.1607 11.585L11.8587 9.282L11.8593 4.63C11.8593 4.0635 12.1468 3.5482 12.6191 3.2522L12.7523 3.177C13.2565 2.9212 13.8464 2.9453 14.3248 3.2322ZM13.4903 4.499C13.4723 4.499 13.4523 4.503 13.4293 4.515C13.3768 4.5412 13.3637 4.5815 13.3604 4.6085L13.3593 4.63V10.312L17.3424 7.302L17.3272 7.2867L17.3083 7.273L13.5643 4.526C13.5533 4.518 13.5283 4.499 13.4903 4.499ZM4.73185 4.2601C4.43775 4.0111 3.99785 4.0231 3.71975 4.3001C3.42675 4.5931 3.42675 5.0681 3.71975 5.3611L7.79975 9.4411L8.86085 10.5011L19.1307 20.7721C19.2778 20.9181 19.4697 20.9911 19.6618 20.9911C19.8538 20.9911 20.0448 20.9181 20.1917 20.7721C20.4697 20.4941 20.4807 20.0551 20.2318 19.7601L4.73185 4.2601Z" fill="black"/>
<path d="M4.73185 4.26013C4.43775 4.01113 3.99785 4.02313 3.71975 4.30013C3.42675 4.59313 3.42675 5.06813 3.71975 5.36113L7.79975 9.44113L8.86085 10.5011L19.1307 20.7721C19.2778 20.9181 19.4697 20.9911 19.6618 20.9911C19.8538 20.9911 20.0448 20.9181 20.1917 20.7721C20.4697 20.4941 20.4807 20.0551 20.2318 19.7601L4.73185 4.26013Z" fill="black"/>
</svg>
