<svg width="24" height="24" viewBox="0 0 24 24" fill="none" xmlns="http://www.w3.org/2000/svg">
<path d="M16.5979 16.473L13.8409 18.556" stroke="black" stroke-width="1.5" stroke-linecap="round" stroke-linejoin="round"/>
<path d="M10.939 20.5H7.19604C5.81504 20.5 4.69604 19.381 4.69604 18V6C4.69604 4.619 5.81504 3.5 7.19604 3.5H14.196C15.577 3.5 16.696 4.619 16.696 6V9.183M9.06304 17.265H10.938" stroke="black" stroke-width="1.5" stroke-linecap="round" stroke-linejoin="round"/>
<path d="M13.8409 13.976L21.5399 19.766" stroke="black" stroke-width="1.5" stroke-linecap="round" stroke-linejoin="round"/>
<path d="M16.074 19.843C16.074 20.317 16.337 20.744 16.76 20.958C16.94 21.049 17.133 21.094 17.325 21.094C17.586 21.094 17.845 21.012 18.064 20.851L19.99 19.437C20.323 19.192 20.395 18.722 20.15 18.388C19.907 18.055 19.436 17.98 19.101 18.228L17.574 19.35V16.676L17.942 16.398L16.074 15.094V19.843Z" fill="black"/>
<path d="M17.574 13.183L18.657 13.977L18.137 14.37L19.383 15.307L20.022 14.824C20.276 14.598 20.416 14.257 20.395 13.911C20.374 13.557 20.193 13.235 19.913 13.04L18.065 11.685C17.681 11.404 17.18 11.362 16.76 11.576C16.336 11.79 16.073 12.217 16.073 12.691V12.82L17.573 13.948L17.574 13.183Z" fill="black"/>
</svg>
