<svg width="24" height="24" viewBox="0 0 24 24" fill="none" xmlns="http://www.w3.org/2000/svg">
<path d="M12.6142 19.2235C12.5982 19.2345 12.5512 19.2705 12.4792 19.2345C12.4092 19.1985 12.4092 19.1385 12.4092 19.1195V13.4365L16.3402 16.4075C16.3522 16.4165 16.3662 16.4265 16.3812 16.4355C16.3862 16.4395 16.3922 16.4435 16.3972 16.4475L12.6142 19.2235ZM12.4092 4.88052C12.4092 4.86052 12.4092 4.80052 12.4792 4.76552C12.5022 4.75352 12.5222 4.74952 12.5402 4.74952C12.5782 4.74952 12.6032 4.76852 12.6142 4.77652L16.3582 7.52352C16.3682 7.53052 16.3872 7.54352 16.3922 7.55252L12.4092 10.5625V4.88052ZM17.9752 16.3415C17.9512 16.0315 17.8012 15.5815 17.2252 15.1965L12.9952 11.9995L17.3462 8.71152C17.3642 8.69952 17.3812 8.68552 17.3962 8.67052C17.7272 8.37252 17.9092 7.92152 17.8812 7.46552C17.8522 6.99652 17.6122 6.57152 17.2332 6.30452L13.5022 3.56752C13.0042 3.20252 12.3522 3.14852 11.8022 3.42752C11.2512 3.70552 10.9092 4.26252 10.9092 4.88052V10.4235L6.3232 6.95752C5.9922 6.70852 5.5222 6.77452 5.2722 7.10452C5.0222 7.43552 5.0882 7.90552 5.4192 8.15552L10.5072 11.9995L5.4192 15.8445C5.0882 16.0945 5.0222 16.5645 5.2722 16.8955C5.5222 17.2255 5.9922 17.2905 6.3232 17.0405L10.9092 13.5765V19.1195C10.9092 19.7365 11.2512 20.2925 11.8022 20.5725C12.0362 20.6915 12.2882 20.7495 12.5392 20.7495C12.8792 20.7495 13.2162 20.6425 13.5022 20.4325L17.3832 17.5855C17.4032 17.5705 17.4242 17.5535 17.4422 17.5365C17.9262 17.0975 17.9992 16.6445 17.9752 16.3415Z" fill="black"/>
</svg>
