<svg width="24" height="24" viewBox="0 0 24 24" fill="none" xmlns="http://www.w3.org/2000/svg">
<path fill-rule="evenodd" clip-rule="evenodd" d="M14.5793 12.0001C14.5793 11.1721 15.2503 10.5001 16.0793 10.5001H18.3943C19.5083 10.5001 20.2343 9.32709 19.7383 8.33009C18.3093 5.45809 15.2573 3.53609 11.7813 3.76909C7.57732 4.05109 4.22032 7.55309 4.10332 11.7651C3.97332 16.4291 7.71532 20.2501 12.3503 20.2501C15.5853 20.2501 18.3843 18.3871 19.7353 15.6761C20.2333 14.6761 19.5113 13.5001 18.3943 13.5001H16.0793C15.2503 13.5001 14.5793 12.8281 14.5793 12.0001Z" stroke="black" stroke-width="1.5" stroke-linecap="round" stroke-linejoin="round"/>
<path d="M12.3967 16.1251C13.0187 16.1251 13.5217 16.6291 13.5217 17.2501C13.5217 17.8711 13.0187 18.3751 12.3967 18.3751C11.7757 18.3751 11.2717 17.8711 11.2717 17.2501C11.2717 16.6291 11.7757 16.1251 12.3967 16.1251ZM8.64673 14.7501C9.19873 14.7501 9.64673 15.1971 9.64673 15.7501C9.64673 16.3021 9.19873 16.7501 8.64673 16.7501C8.09473 16.7501 7.64673 16.3021 7.64673 15.7501C7.64673 15.1971 8.09473 14.7501 8.64673 14.7501ZM6.89673 10.8751C7.51873 10.8751 8.02173 11.3791 8.02173 12.0001C8.02173 12.6211 7.51873 13.1251 6.89673 13.1251C6.27573 13.1251 5.77173 12.6211 5.77173 12.0001C5.77173 11.3791 6.27573 10.8751 6.89673 10.8751ZM8.64673 7.12512C9.26873 7.12512 9.77173 7.62912 9.77173 8.25012C9.77173 8.87112 9.26873 9.37512 8.64673 9.37512C8.02573 9.37512 7.52173 8.87112 7.52173 8.25012C7.52173 7.62912 8.02573 7.12512 8.64673 7.12512ZM12.3967 5.62512C13.0187 5.62512 13.5217 6.12912 13.5217 6.75012C13.5217 7.37112 13.0187 7.87512 12.3967 7.87512C11.7757 7.87512 11.2717 7.37112 11.2717 6.75012C11.2717 6.12912 11.7757 5.62512 12.3967 5.62512Z" fill="black"/>
</svg>
