<svg width="24" height="24" viewBox="0 0 24 24" fill="none" xmlns="http://www.w3.org/2000/svg">
<path d="M23.2502 18.2524H20.9772C20.8382 18.2524 20.7272 18.1414 20.7272 18.0024V16.6534C20.7272 16.5154 20.8382 16.4034 20.9772 16.4034H23.2502C23.3882 16.4034 23.5002 16.5154 23.5002 16.6534V18.0024C23.5002 18.1414 23.3882 18.2524 23.2502 18.2524ZM16.2741 19.1743H14.0001C13.8621 19.1743 13.7501 19.0623 13.7501 18.9243V17.5743C13.7501 17.4373 13.8621 17.3243 14.0001 17.3243H16.2741C16.4121 17.3243 16.5241 17.4373 16.5241 17.5743V18.9243C16.5241 19.0623 16.4121 19.1743 16.2741 19.1743ZM19.7619 15.4224H17.4889C17.3499 15.4224 17.2389 15.3104 17.2389 15.1724V13.8224C17.2389 13.6854 17.3499 13.5724 17.4889 13.5724H19.7619C19.8999 13.5724 20.0119 13.6854 20.0119 13.8224V15.1724C20.0119 15.3104 19.8999 15.4224 19.7619 15.4224Z" fill="black"/>
<path d="M14.3063 9.9585C13.7803 9.2525 12.8163 8.8965 11.4223 8.8965H11.4003C9.16931 8.8965 8.03731 9.8085 8.03731 11.6045C8.03731 13.7905 9.88631 15.6615 11.4003 15.6615H11.4223M4.50411 11.1811C4.48611 10.7491 4.51611 10.0451 4.84411 9.2791C5.33411 8.1341 6.19511 7.5391 6.73911 7.1731C8.54711 5.9591 10.4931 6.0141 11.5481 6.0441C12.5231 6.0721 13.2111 6.2541 13.4781 6.3311C14.0571 6.4991 14.5231 6.7121 14.8591 6.8901M11.0309 19.48C9.43091 19.329 8.26791 18.338 7.49491 17.676C6.27191 16.629 5.64591 15.497 5.40291 15.01C5.21791 14.639 4.41691 12.984 4.51191 10.703C4.61891 8.125 5.56391 6.116 7.31791 4.728C8.32791 3.929 9.77491 3.5 10.6219 3.5C10.7089 3.5 10.7869 3.509 10.8609 3.531C11.7579 3.793 12.2829 4.622 12.4429 4.884C13.5879 6.763 15.6389 6.588 16.8779 9.023C16.9529 9.17 17.0209 9.317 17.0819 9.461M22.1134 12.5288V20.4998M18.6252 20.4995V12.5285M15.1369 20.4995V12.5285" stroke="black" stroke-width="1.5" stroke-linecap="round" stroke-linejoin="round"/>
</svg>
