<svg width="24" height="24" viewBox="0 0 24 24" fill="none" xmlns="http://www.w3.org/2000/svg">
<path d="M17.1521 15.7341H16.5541V15.1371C16.5541 14.9291 16.3871 14.7621 16.1791 14.7621C15.9721 14.7621 15.8041 14.9291 15.8041 15.1371V15.7341H15.2071C15.0001 15.7341 14.8321 15.9021 14.8321 16.1091C14.8321 16.3171 15.0001 16.4841 15.2071 16.4841H15.8041V17.0821C15.8041 17.2891 15.9721 17.4571 16.1791 17.4571C16.3871 17.4571 16.5541 17.2891 16.5541 17.0821V16.4841H17.1521C17.3591 16.4841 17.5271 16.3171 17.5271 16.1091C17.5271 15.9021 17.3591 15.7341 17.1521 15.7341ZM20.6779 16.8884C20.6779 17.1874 20.4349 17.4304 20.1359 17.4304C19.8359 17.4304 19.5929 17.1874 19.5929 16.8884C19.5929 16.5884 19.8359 16.3454 20.1359 16.3454C20.4349 16.3454 20.6779 16.5884 20.6779 16.8884ZM19.4558 15.5622C19.4558 15.8622 19.2128 16.1052 18.9138 16.1052C18.6138 16.1052 18.3708 15.8622 18.3708 15.5622C18.3708 15.2632 18.6138 15.0202 18.9138 15.0202C19.2128 15.0202 19.4558 15.2632 19.4558 15.5622Z" fill="black"/>
<path d="M16.0183 13.2839C16.1853 12.8369 16.2813 12.3539 16.2813 11.8559C16.2813 10.0579 15.1533 9.1459 12.9223 9.1459H12.9003C10.6683 9.1459 9.5373 10.0579 9.5373 11.8559C9.5373 14.0419 11.3853 15.9119 12.9003 15.9119H12.9223C13.0893 15.9119 13.2613 15.8889 13.4343 15.8459M6.0041 11.4313C5.9861 10.9993 6.0151 10.2953 6.3441 9.5293C6.8341 8.3853 7.6941 7.7893 8.2391 7.4243C10.0471 6.2093 11.9931 6.2643 13.0471 6.2943C14.0221 6.3223 14.7111 6.5043 14.9781 6.5813C15.5561 6.7493 16.0231 6.9623 16.3581 7.1403M13.6369 19.696C13.4119 19.731 13.1749 19.751 12.9259 19.75C11.1209 19.741 9.8299 18.642 8.9949 17.926C7.7719 16.88 7.1459 15.747 6.9029 15.26C6.7169 14.89 5.9169 13.235 6.0119 10.953C6.1189 8.375 7.0629 6.366 8.8169 4.978C9.8279 4.18 11.2749 3.75 12.1219 3.75C12.2089 3.75 12.2869 3.759 12.3599 3.781C13.2579 4.044 13.7829 4.872 13.9429 5.135C15.0879 7.013 17.1389 6.839 18.3769 9.273C19.0599 10.616 19.1469 11.868 19.1579 12.401C19.1649 12.7 19.1519 13 19.1219 13.299M22.0002 16.3923C22.0002 14.7943 20.7052 13.4993 19.1072 13.4993H16.5292C14.9322 13.4993 13.6372 14.7943 13.6372 16.3923V19.1233C13.6372 19.8193 14.2232 20.2493 14.7672 20.2493C15.0492 20.2493 15.3202 20.1403 15.5302 19.9433L16.7742 18.7753C16.8202 18.7323 16.8812 18.7073 16.9452 18.7073H18.6912C18.7542 18.7073 18.8152 18.7323 18.8622 18.7753L20.1052 19.9433C20.1852 20.0153 20.4622 20.2473 20.8692 20.2493C21.3212 20.2513 21.7252 19.9683 21.8982 19.5973C21.9622 19.4573 22.0002 19.2993 22.0002 19.1233V16.3923Z" stroke="black" stroke-width="1.5" stroke-linecap="round" stroke-linejoin="round"/>
</svg>
