<svg width="24" height="24" viewBox="0 0 24 24" fill="none" xmlns="http://www.w3.org/2000/svg">
<path d="M20.3689 17.2439C20.3689 16.9019 20.0919 16.6249 19.7499 16.6249C19.4089 16.6249 19.1319 16.9019 19.1319 17.2439C19.1319 17.4439 19.2279 17.6199 19.3749 17.7329V18.5869C19.3749 18.7939 19.5429 18.9619 19.7499 18.9619C19.9569 18.9619 20.1249 18.7939 20.1249 18.5869V17.7329C20.2719 17.6199 20.3689 17.4439 20.3689 17.2439Z" fill="black"/>
<path d="M21.3161 15.4627V13.5907C21.3161 12.7257 20.6151 12.0247 19.7501 12.0247C18.8851 12.0247 18.1841 12.7257 18.1841 13.5897V15.4627M5.5041 11.6814C5.4861 11.2504 5.5151 10.5454 5.8441 9.7794C6.3341 8.6354 7.1941 8.0394 7.7391 7.6744C9.5471 6.4594 11.4931 6.5154 12.5471 6.5444C13.5221 6.5724 14.2111 6.7544 14.4781 6.8324C15.0561 6.9994 15.5231 7.2134 15.8581 7.3914M16.8591 17.7C16.4711 18.155 16.0251 18.563 15.5251 18.906C14.9971 19.267 13.9171 20.008 12.4261 20.0001C10.6211 19.991 9.3301 18.893 8.4951 18.178C7.2721 17.13 6.6461 15.998 6.4021 15.511C6.2171 15.14 5.4171 13.485 5.5111 11.203C5.6191 8.625 6.5631 6.617 8.3171 5.228C9.3281 4.43 10.7751 4 11.6221 4C11.7091 4 11.7871 4.011 11.8601 4.032C12.7571 4.294 13.2821 5.123 13.4421 5.386C14.5881 7.263 16.6391 7.09 17.8771 9.523C18.4391 10.628 18.5971 11.671 18.6421 12.303M12.4221 9.3972H12.4011C10.1691 9.3972 9.0371 10.3082 9.0371 12.1062C9.0371 14.2922 10.8851 16.1632 12.4011 16.1632H12.4221C13.9331 16.1632 15.7811 14.2922 15.7811 12.1062C15.7811 10.3082 14.6531 9.3972 12.4221 9.3972ZM21.7502 19.9998H17.7502C17.3352 19.9998 17.0002 19.6638 17.0002 19.2498V16.2128C17.0002 15.7988 17.3352 15.4628 17.7502 15.4628H21.7502C22.1642 15.4628 22.5002 15.7988 22.5002 16.2128V19.2498C22.5002 19.6638 22.1642 19.9998 21.7502 19.9998Z" stroke="black" stroke-width="1.5" stroke-linecap="round" stroke-linejoin="round"/>
</svg>
