<svg width="24" height="24" viewBox="0 0 24 24" fill="none" xmlns="http://www.w3.org/2000/svg">
<path fill-rule="evenodd" clip-rule="evenodd" d="M14.3263 15.8221L12.4043 16.3121C12.3423 16.3281 12.2793 16.3351 12.2173 16.3351C11.8803 16.3351 11.5733 16.1081 11.4863 15.7671C11.3833 15.3631 11.6273 14.9511 12.0313 14.8481L13.9533 14.3591C14.3573 14.2551 14.7683 14.5011 14.8713 14.9041C14.9743 15.3081 14.7303 15.7191 14.3263 15.8221ZM7.0273 18.8411C6.0343 18.4421 5.2553 17.6801 4.8353 16.6961C4.4143 15.7121 4.4023 14.6231 4.8013 13.6301C5.0423 13.0291 5.4303 12.5201 5.9063 12.1081C5.5343 15.2141 6.8443 17.7551 9.5873 18.9801C8.7503 19.2141 7.8583 19.1741 7.0273 18.8411ZM19.6803 8.85007C19.0083 6.80907 17.5993 5.26708 15.7113 4.50908C13.7723 3.73008 11.8633 3.84708 10.1873 4.84508C8.6803 5.74308 7.4503 7.29607 6.6313 9.33607C6.5353 9.57407 6.4523 9.81008 6.3743 10.0451C6.3673 10.0481 6.3593 10.0461 6.3523 10.0491C4.9973 10.6281 3.9483 11.7001 3.4003 13.0671C2.8513 14.4351 2.8673 15.9341 3.4463 17.2891C4.0253 18.6441 5.0973 19.6931 6.4643 20.2411C7.1293 20.5091 7.8223 20.6421 8.5143 20.6421C9.5053 20.6421 10.4953 20.3691 11.3983 19.8271C11.4303 19.8051 11.5583 19.7121 11.7123 19.5561C11.9193 19.5751 12.1253 19.5851 12.3313 19.5851C15.4993 19.5851 18.4003 17.3131 19.5243 14.5121C20.2283 12.7581 20.2853 10.6941 19.6803 8.85007Z" fill="black"/>
</svg>
