<svg width="24" height="24" viewBox="0 0 24 24" fill="none" xmlns="http://www.w3.org/2000/svg">
<path d="M18.5114 14.6729H16.2384C16.0994 14.6729 15.9884 14.5609 15.9884 14.4229V13.0729C15.9884 12.9359 16.0994 12.8229 16.2384 12.8229H18.5114C18.6494 12.8229 18.7614 12.9359 18.7614 13.0729V14.4229C18.7614 14.5609 18.6494 14.6729 18.5114 14.6729ZM21.9997 17.503H19.7257C19.5877 17.503 19.4757 17.392 19.4757 17.253V15.904C19.4757 15.766 19.5877 15.654 19.7257 15.654H21.9997C22.1377 15.654 22.2497 15.766 22.2497 15.904V17.253C22.2497 17.392 22.1377 17.503 21.9997 17.503ZM15.0231 18.4249H12.7501C12.6111 18.4249 12.5001 18.3129 12.5001 18.1749V16.8249C12.5001 16.6879 12.6111 16.5749 12.7501 16.5749H15.0231C15.1611 16.5749 15.2731 16.6879 15.2731 16.8249V18.1749C15.2731 18.3129 15.1611 18.4249 15.0231 18.4249Z" fill="black"/>
<path d="M10.278 18.1114C9.721 18.0884 7.093 17.8714 5.564 15.6864C4.41 14.0374 4.565 12.2414 4.633 11.4554C4.877 8.64543 6.766 4.93743 10.127 4.33443C12.521 3.90343 14.453 5.25543 14.658 5.40343C16.414 6.67343 16.904 8.47443 17.021 8.96543M9.592 18.0626C8.76 18.7916 7.67 19.2346 6.477 19.2346C3.866 19.2346 1.75 17.1186 1.75 14.5076C1.75 12.4586 3.052 10.7146 4.875 10.0586M10.1716 14.9454L10.9006 14.7594M20.863 11.7794V19.7504M17.3747 19.7501V11.7791M13.8864 19.7501V11.7791" stroke="black" stroke-width="1.5" stroke-linecap="round" stroke-linejoin="round"/>
</svg>
