<svg width="24" height="24" viewBox="0 0 24 24" fill="none" xmlns="http://www.w3.org/2000/svg">
<path d="M17.2717 18.0874C17.0647 18.0874 16.8967 17.9194 16.8967 17.7124V14.1044C16.8967 13.8974 17.0647 13.7294 17.2717 13.7294C17.4797 13.7294 17.6467 13.8974 17.6467 14.1044V17.7124C17.6467 17.9194 17.4797 18.0874 17.2717 18.0874ZM15.9509 17.23C15.7439 17.23 15.5759 17.062 15.5759 16.855V14.961C15.5759 14.754 15.7439 14.586 15.9509 14.586C16.1579 14.586 16.3259 14.754 16.3259 14.961V16.855C16.3259 17.062 16.1579 17.23 15.9509 17.23ZM19.9138 16.6343C19.7068 16.6343 19.5388 16.4663 19.5388 16.2593V15.5563C19.5388 15.3493 19.7068 15.1813 19.9138 15.1813C20.1218 15.1813 20.2888 15.3493 20.2888 15.5563V16.2593C20.2888 16.4663 20.1218 16.6343 19.9138 16.6343ZM18.5934 17.23C18.3864 17.23 18.2184 17.062 18.2184 16.855V14.961C18.2184 14.754 18.3864 14.586 18.5934 14.586C18.8004 14.586 18.9684 14.754 18.9684 14.961V16.855C18.9684 17.062 18.8004 17.23 18.5934 17.23ZM14.631 16.6343C14.423 16.6343 14.256 16.4663 14.256 16.2593V15.5563C14.256 15.3493 14.423 15.1813 14.631 15.1813C14.838 15.1813 15.006 15.3493 15.006 15.5563V16.2593C15.006 16.4663 14.838 16.6343 14.631 16.6343Z" fill="black"/>
<path d="M13.0446 17.3306C12.4336 17.5246 11.7826 17.6286 11.1056 17.6136C10.7886 17.6076 7.9346 17.5016 6.3146 15.1866C5.1596 13.5366 5.3156 11.7416 5.3836 10.9556C5.6266 8.14458 7.5166 4.43758 10.8766 3.83358C13.2706 3.40358 15.2136 4.76458 15.4086 4.90358C16.9076 5.98658 17.4516 7.44958 17.6496 8.05458C18.0106 9.15258 18.1066 10.3396 17.9426 11.4736M10.342 17.563C9.51 18.292 8.42 18.735 7.227 18.735C4.616 18.735 2.5 16.619 2.5 14.007C2.5 11.959 3.802 10.215 5.624 9.55898M10.9216 14.4458L12.8436 13.9558M13.0446 12.0464C13.0446 11.9074 13.1566 11.7964 13.2946 11.7964H17.3636C19.6566 11.8464 21.4996 13.7194 21.4996 16.0234C21.4996 18.3504 19.6196 20.2374 17.2956 20.2504H17.2486C17.2456 20.2494 17.2426 20.2494 17.2396 20.2494C14.9446 20.2334 13.1016 18.3594 13.0456 16.0754L13.0446 12.0464Z" stroke="black" stroke-width="1.5" stroke-linecap="round" stroke-linejoin="round"/>
</svg>
