<svg width="24" height="24" viewBox="0 0 24 24" fill="none" xmlns="http://www.w3.org/2000/svg">
<path fill-rule="evenodd" clip-rule="evenodd" d="M13.0657 4.17777C12.0697 4.03977 10.7757 4.22577 9.90869 4.66877C9.07669 5.09477 7.83469 6.32777 7.56169 8.33277C7.17769 7.65677 7.0247 6.88177 7.1357 6.10377C7.3897 4.32177 8.9477 3.03077 10.7277 3.03077C10.8957 3.03077 11.0657 3.04177 11.2367 3.06577C12.1087 3.18677 12.8867 3.60477 13.4597 4.24977C13.3297 4.22077 13.1987 4.19677 13.0657 4.17777ZM15.7407 5.37477C15.5787 4.72477 15.2867 4.10677 14.8697 3.55377C14.0397 2.45177 12.8237 1.73977 11.4477 1.54977C8.63169 1.16077 6.01669 3.10577 5.62069 5.88777C5.42969 7.22577 5.7747 8.55977 6.5907 9.64377C6.9147 10.0728 7.2967 10.4408 7.7237 10.7428C7.7787 10.9358 7.8417 11.1198 7.9187 11.2838C7.9877 11.4318 8.0447 11.5848 8.1197 11.7308C8.3457 12.1678 8.63769 12.9788 8.52869 13.7428C8.43469 14.3998 8.22369 14.9498 7.95469 15.3308C7.55069 15.9028 7.27669 16.5768 7.17169 17.3118C6.83469 19.6768 8.00269 22.0068 10.7287 22.4608C15.2627 22.9278 17.5847 19.1448 18.2827 14.2498C18.8477 10.2858 17.7527 7.05277 15.7407 5.37477Z" fill="black"/>
</svg>
