<svg width="24" height="24" viewBox="0 0 24 24" fill="none" xmlns="http://www.w3.org/2000/svg">
<path d="M16.6516 15.4843H16.0536V14.8873C16.0536 14.6803 15.8866 14.5123 15.6786 14.5123C15.4716 14.5123 15.3036 14.6803 15.3036 14.8873V15.4843H14.7066C14.4996 15.4843 14.3316 15.6523 14.3316 15.8593C14.3316 16.0663 14.4996 16.2343 14.7066 16.2343H15.3036V16.8323C15.3036 17.0393 15.4716 17.2073 15.6786 17.2073C15.8866 17.2073 16.0536 17.0393 16.0536 16.8323V16.2343H16.6516C16.8586 16.2343 17.0266 16.0663 17.0266 15.8593C17.0266 15.6523 16.8586 15.4843 16.6516 15.4843ZM20.1774 16.6376C20.1774 16.9376 19.9344 17.1806 19.6354 17.1806C19.3354 17.1806 19.0924 16.9376 19.0924 16.6376C19.0924 16.3386 19.3354 16.0956 19.6354 16.0956C19.9344 16.0956 20.1774 16.3386 20.1774 16.6376ZM18.9553 15.3124C18.9553 15.6124 18.7123 15.8554 18.4133 15.8554C18.1133 15.8554 17.8703 15.6124 17.8703 15.3124C17.8703 15.0124 18.1133 14.7704 18.4133 14.7704C18.7123 14.7704 18.9553 15.0124 18.9553 15.3124Z" fill="black"/>
<path d="M12.8708 17.6327C12.3098 17.7927 11.7188 17.8767 11.1048 17.8637C10.7878 17.8577 7.9338 17.7507 6.3138 15.4367C5.1598 13.7867 5.3148 11.9907 5.3838 11.2047C5.6268 8.39569 7.5168 4.68769 10.8768 4.08369C13.2708 3.65369 15.2138 5.01369 15.4088 5.15369C16.9078 6.23669 17.4518 7.69869 17.6498 8.30369C18.1208 9.73969 18.1418 11.3267 17.7188 12.7477M10.342 17.8124C9.51 18.5414 8.42 18.9844 7.227 18.9844C4.616 18.9844 2.5 16.8684 2.5 14.2574C2.5 12.2084 3.802 10.4644 5.624 9.80839M10.9216 14.6952L12.8436 14.2052M21.4997 16.1425C21.4997 14.5445 20.2047 13.2495 18.6067 13.2495H16.0287C14.4317 13.2495 13.1357 14.5445 13.1357 16.1425V18.8735C13.1357 19.5695 13.7227 19.9995 14.2667 19.9995C14.5487 19.9995 14.8197 19.8905 15.0297 19.6935L16.2737 18.5255C16.3197 18.4825 16.3807 18.4575 16.4447 18.4575H18.1907C18.2537 18.4575 18.3147 18.4825 18.3617 18.5255L19.6047 19.6935C19.8187 19.8945 20.0827 19.9995 20.3687 19.9995C20.9127 19.9995 21.4997 19.5695 21.4997 18.8735V16.1425Z" stroke="black" stroke-width="1.5" stroke-linecap="round" stroke-linejoin="round"/>
</svg>
