<svg width="24" height="24" viewBox="0 0 24 24" fill="none" xmlns="http://www.w3.org/2000/svg">
<path d="M19.9997 3.5C21.1037 3.5 21.9997 4.396 21.9997 5.5C21.9997 6.604 21.1037 7.5 19.9997 7.5C18.8957 7.5 17.9997 6.604 17.9997 5.5C17.9997 4.396 18.8957 3.5 19.9997 3.5Z" fill="black"/>
<path d="M9.842 19.3282C9.01 20.0572 7.92 20.5002 6.727 20.5002C4.116 20.5002 2 18.3832 2 15.7722C2 13.7242 3.302 11.9802 5.124 11.3242M10.4216 16.21L12.3436 15.72M5.8142 16.9512C4.6602 15.3022 4.8152 13.5072 4.8832 12.7212C5.1272 9.91021 7.0162 6.20221 10.3762 5.59821C12.7712 5.16921 14.7142 6.52821 14.9082 6.66921C16.4082 7.75221 16.9512 9.21521 17.1492 9.81921C17.6892 11.4612 17.6382 13.2992 17.0112 14.8612C16.0682 17.2082 13.6082 19.4412 10.6052 19.3792C10.2882 19.3722 7.4342 19.2662 5.8142 16.9512Z" stroke="black" stroke-width="1.5" stroke-linecap="round" stroke-linejoin="round"/>
</svg>
