<svg width="24" height="24" viewBox="0 0 24 24" fill="none" xmlns="http://www.w3.org/2000/svg">
<path d="M9.6281 17.6114C9.0711 17.5894 6.4431 17.3714 4.9141 15.1864C3.7601 13.5374 3.9151 11.7424 3.9831 10.9554C4.2271 8.14538 6.1161 4.43738 9.4771 3.83438C11.8711 3.40338 13.8031 4.75638 14.0081 4.90438C15.7641 6.17338 16.2541 7.97438 16.3711 8.46538M11.8771 15.8956H15.0021L15.9601 12.1606L17.3591 19.1186L18.9951 13.3346L19.5801 15.8746H22.8961M22.2999 11.8506L13.8999 20.2496M8.942 17.5625C8.11 18.2915 7.02 18.7345 5.827 18.7345C3.216 18.7345 1.1 16.6185 1.1 14.0075C1.1 11.9585 2.402 10.2155 4.225 9.55948M9.5216 14.4454L10.2506 14.2594" stroke="black" stroke-width="1.5" stroke-linecap="round" stroke-linejoin="round"/>
</svg>
