<svg width="24" height="24" viewBox="0 0 24 24" fill="none" xmlns="http://www.w3.org/2000/svg">
<path d="M19.5519 11.8242C19.6409 11.5222 19.6889 11.2032 19.6889 10.8722C19.6889 9.18917 18.4499 7.79617 16.8349 7.55317C16.6719 7.52917 16.5039 7.51617 16.3329 7.51617C14.4799 7.51617 12.9779 9.01817 12.9779 10.8722C12.9779 11.4702 13.1339 12.0302 13.4069 12.5162M21.2316 13.666C20.7856 13.643 20.3946 14.002 20.3816 14.46C20.4696 13.938 20.0766 13.474 19.6136 13.455C19.1826 13.437 18.7746 13.807 18.7606 14.296C18.8476 13.78 18.4586 13.319 17.9956 13.3C17.5616 13.281 17.1526 13.653 17.1426 14.141V11.184C17.1486 10.735 16.7816 10.362 16.3336 10.362C15.8856 10.362 15.5176 10.735 15.5236 11.184C15.5236 12.68 15.5236 14.176 15.5236 15.672V16.124L15.1696 15.717C15.1166 15.656 14.9276 15.457 14.6156 15.412C14.5246 15.399 14.2406 15.357 14.0066 15.548C13.7546 15.754 13.7536 16.075 13.7536 16.159C13.7526 16.475 13.9236 16.69 13.9766 16.751L15.2756 18.253C15.3686 18.364 17.0866 20.356 19.2606 19.943C20.3216 19.742 20.9906 19.063 21.0696 18.981C21.9976 18.015 22.0036 16.801 21.9996 16.531V14.507C22.0126 14.062 21.6646 13.687 21.2316 13.666Z" stroke="black" stroke-width="1.25" stroke-linecap="round" stroke-linejoin="round"/>
<path d="M13.7541 17.0527C12.8191 17.5767 11.7521 17.8877 10.6051 17.8647C10.2881 17.8577 7.4341 17.7507 5.8141 15.4367C4.6601 13.7867 4.8151 11.9907 4.8831 11.2047C5.1271 8.39569 7.0161 4.68769 10.3771 4.08369C12.7711 3.65369 14.7141 5.01369 14.9081 5.15369C15.9051 5.87269 16.4791 6.76069 16.8101 7.45169M9.842 17.8125C9.01 18.5415 7.92 18.9845 6.727 18.9845C4.116 18.9845 2 16.8685 2 14.2575C2 12.2085 3.302 10.4645 5.125 9.80849M10.4215 14.6953L12.3435 14.2053" stroke="black" stroke-width="1.5" stroke-linecap="round" stroke-linejoin="round"/>
</svg>
