<svg width="24" height="24" viewBox="0 0 24 24" fill="none" xmlns="http://www.w3.org/2000/svg">
<path fill-rule="evenodd" clip-rule="evenodd" d="M11.4328 2.125C12.6288 2.125 13.2228 3.006 13.6808 3.835C14.2348 4.836 15.9408 5.937 16.5508 6.278L16.5438 6.287C18.7398 7.56 20.1188 9.924 20.1188 12.804C20.1188 12.973 20.1128 13.141 20.1038 13.326C20.0528 14.129 19.8998 14.935 19.6328 15.731C18.9978 17.657 17.7628 19.403 16.2508 20.524C16.0608 20.662 15.8688 20.791 15.6708 20.917C14.6228 21.553 13.5298 21.875 12.4258 21.875C10.7168 21.875 8.98381 21.063 7.57281 19.625C5.76081 18.214 3.72481 15.128 3.89081 11.016C4.02281 7.834 5.18881 5.355 7.35381 3.641C8.60181 2.656 10.3878 2.125 11.4328 2.125ZM12.4238 7.909H12.3918C9.05781 7.909 7.36781 9.271 7.36781 11.956C7.36781 15.221 10.1288 18.016 12.3918 18.016H12.4238C14.6818 18.016 17.4418 15.221 17.4418 11.956C17.4418 9.271 15.7568 7.909 12.4238 7.909ZM12.4214 9.6146C14.7154 9.6146 15.7384 10.3836 15.7384 12.1126C15.7384 14.3356 13.8824 16.3096 12.4214 16.3096H12.3934C10.9304 16.3096 9.07041 14.3356 9.07041 12.1126C9.07041 10.3836 10.0984 9.6146 12.3934 9.6146H12.4214ZM11.4328 3.417C10.7218 3.417 9.23781 3.804 8.15581 4.658C6.57781 5.905 5.64181 7.581 5.31181 9.753C6.41281 7.034 9.00881 5.266 12.2758 5.266H12.5768C12.7738 5.266 12.9668 5.275 13.1568 5.286C12.9178 5.021 12.7068 4.746 12.5488 4.464C12.0608 3.581 11.7878 3.417 11.4328 3.417Z" fill="black"/>
</svg>
