<svg width="24" height="24" viewBox="0 0 24 24" fill="none" xmlns="http://www.w3.org/2000/svg">
<path d="M20.5525 12.8249C20.6415 12.5229 20.6895 12.2029 20.6895 11.8729C20.6895 10.0189 19.1865 8.51691 17.3335 8.51691C15.4805 8.51691 13.9785 10.0189 13.9785 11.8729C13.9785 12.4699 14.1345 13.0309 14.4075 13.5169M22.2322 14.6657C21.7852 14.6437 21.3942 15.0027 21.3812 15.4607C21.4702 14.9377 21.0772 14.4747 20.6132 14.4547C20.1832 14.4367 19.7742 14.8077 19.7612 15.2967C19.8482 14.7797 19.4592 14.3197 18.9952 14.3007C18.5612 14.2817 18.1532 14.6527 18.1432 15.1417V12.1837C18.1492 11.7347 17.7822 11.3627 17.3342 11.3627C16.8852 11.3627 16.5182 11.7347 16.5242 12.1837L16.5232 16.6717V17.1237L16.1702 16.7167C16.1172 16.6557 15.9282 16.4577 15.6162 16.4127C15.5252 16.3987 15.2402 16.3577 15.0072 16.5487C14.7552 16.7547 14.7542 17.0747 14.7542 17.1587C14.7532 17.4747 14.9242 17.6897 14.9762 17.7517L16.2762 19.2537C16.3692 19.3647 18.0872 21.3567 20.2612 20.9437C21.3222 20.7427 21.9902 20.0637 22.0692 19.9807C22.9972 19.0147 23.0042 17.8017 22.9992 17.5307V15.5067C23.0132 15.0627 22.6652 14.6877 22.2322 14.6657Z" stroke="black" stroke-width="1.25" stroke-linecap="round" stroke-linejoin="round"/>
<path d="M14.7551 9.3932C14.2181 8.7312 13.2731 8.3972 11.9221 8.3972H11.9001C9.66911 8.3972 8.53711 9.3092 8.53711 11.1062C8.53711 13.2912 10.3851 15.1632 11.9001 15.1632H11.9221C12.7471 15.1632 13.6721 14.6052 14.3421 13.7432M5.0041 10.6813C4.9861 10.2503 5.01511 9.5453 5.34311 8.7793C5.84211 7.6143 6.72911 7.0113 7.23911 6.6743C8.93711 5.5523 10.7121 5.5433 11.8031 5.5443C12.9081 5.5453 13.6621 5.7413 13.9771 5.8313C14.5621 6.0013 15.0291 6.2163 15.3581 6.3913M14.9035 17.988C14.3375 18.37 13.3115 19.004 11.9255 19C10.1255 18.996 8.86151 17.92 7.99451 17.177C6.77151 16.13 6.14551 14.998 5.90251 14.51C5.71651 14.14 4.91651 12.485 5.01151 10.203C5.11851 7.625 6.06351 5.617 7.81751 4.228C8.82851 3.43 10.2745 3 11.1215 3C11.2085 3 11.2865 3.01 11.3605 3.032C12.2575 3.294 12.7825 4.123 12.9425 4.385C14.0875 6.263 16.1385 6.09 17.3775 8.523" stroke="black" stroke-width="1.5" stroke-linecap="round" stroke-linejoin="round"/>
</svg>
