<svg width="24" height="24" viewBox="0 0 24 24" fill="none" xmlns="http://www.w3.org/2000/svg">
<path d="M5.98975 14.1708H6.56205C7.19125 14.1708 7.75585 14.585 7.99055 15.2167L9.27895 18.6983C9.41055 19.0508 9.87435 19.0458 9.99665 18.6892L13.3905 8.83C13.6151 8.1783 14.1897 7.7467 14.832 7.7467H20.9897" stroke="black" stroke-width="1.5" stroke-linecap="round" stroke-linejoin="round"/>
<path d="M4.04265 8.23007H4.74955C5.07955 8.23007 5.31575 8.14257 5.46115 7.96587C5.60655 7.78837 5.67885 7.53837 5.67885 7.21507C5.67885 6.89757 5.60035 6.65167 5.44425 6.47757C5.28805 6.30417 5.05805 6.21757 4.75425 6.21757C4.47725 6.21757 4.25185 6.30257 4.07805 6.47417C3.90345 6.64417 3.81655 6.86837 3.81655 7.14667H2.83725L2.82885 7.12007C2.81185 6.61507 2.98575 6.19087 3.35035 5.84837C3.71425 5.50417 4.17805 5.33337 4.74115 5.33337C5.33575 5.33337 5.81035 5.49667 6.16425 5.82257C6.51885 6.14917 6.69575 6.61337 6.69575 7.21507C6.69575 7.49587 6.61655 7.76757 6.45725 8.03087C6.29885 8.29337 6.07265 8.49757 5.77955 8.64257C6.12495 8.77587 6.37955 8.97837 6.54345 9.25087C6.70655 9.52257 6.78805 9.83257 6.78805 10.1801C6.78805 10.7843 6.59575 11.2601 6.21185 11.6059C5.82885 11.9517 5.33885 12.1251 4.74115 12.1251C4.17805 12.1251 3.70495 11.9626 3.32115 11.6376C2.93725 11.3126 2.75345 10.8626 2.77035 10.2892L2.77805 10.2617H3.75805C3.75805 10.5534 3.84885 10.7892 4.02955 10.9701C4.21185 11.1509 4.45265 11.2409 4.75425 11.2409C5.06955 11.2409 5.31725 11.1484 5.49955 10.9651C5.68035 10.7809 5.77115 10.5201 5.77115 10.1826C5.77115 9.81087 5.68805 9.53757 5.52185 9.36087C5.35575 9.18507 5.09885 9.09677 4.74955 9.09677H4.04265V8.23007Z" fill="black"/>
</svg>
