<svg width="24" height="24" viewBox="0 0 24 24" fill="none" xmlns="http://www.w3.org/2000/svg">
<path d="M6.87482 9.4775H11.8748M9.37482 6.9775V11.9775M12.3943 14.5458H17.3943M17.6345 20.0116H6.63452C5.25352 20.0116 4.13452 18.8926 4.13452 17.5116V6.5116C4.13452 5.1316 5.25352 4.0116 6.63452 4.0116H17.6345C19.0155 4.0116 20.1345 5.1316 20.1345 6.5116V17.5116C20.1345 18.8926 19.0155 20.0116 17.6345 20.0116Z" stroke="black" stroke-width="1.5" stroke-linecap="round" stroke-linejoin="round"/>
<path d="M14.8945 16.065C15.3735 16.065 15.7625 16.454 15.7625 16.934C15.7625 17.413 15.3735 17.803 14.8945 17.803C14.4135 17.803 14.0255 17.413 14.0255 16.934C14.0255 16.454 14.4135 16.065 14.8945 16.065ZM14.8945 11.2857C15.3735 11.2857 15.7625 11.6747 15.7625 12.1547C15.7625 12.6347 15.3735 13.0237 14.8945 13.0237C14.4135 13.0237 14.0255 12.6347 14.0255 12.1547C14.0255 11.6747 14.4135 11.2857 14.8945 11.2857Z" fill="black"/>
</svg>
