<svg width="24" height="24" viewBox="0 0 24 24" fill="none" xmlns="http://www.w3.org/2000/svg">
<path d="M19.5 8.50092V10.5009C19.5 9.11892 18.38 8.00092 17 8.00092H7C5.62 8.00092 4.5 9.11892 4.5 10.5009V8.50092C4.5 7.11892 5.62 6.00092 7 6.00092H17C18.38 6.00092 19.5 7.11892 19.5 8.50092Z" fill="black"/>
<path d="M4.5 17.5C4.5 18.881 5.619 20 7 20H17C18.381 20 19.5 18.881 19.5 17.5M4.5 17.5V8.5C4.5 7.119 5.619 6 7 6H17C18.381 6 19.5 7.119 19.5 8.5V17.5M4.5 17.5V10.5C4.5 9.119 5.619 8 7 8H17C18.381 8 19.5 9.119 19.5 10.5V17.5M8.5 4V5.5M15.5 4V5.5" stroke="black" stroke-width="1.5" stroke-linecap="round" stroke-linejoin="round"/>
<path d="M8.35015 14.6263C8.87115 14.6263 9.29515 15.0503 9.29515 15.5713C9.29515 16.0923 8.87115 16.5163 8.35015 16.5163C7.82915 16.5163 7.40515 16.0923 7.40515 15.5713C7.40515 15.0503 7.82915 14.6263 8.35015 14.6263ZM11.4134 14.6263C11.9344 14.6263 12.3584 15.0503 12.3584 15.5713C12.3584 16.0923 11.9344 16.5163 11.4134 16.5163C10.8924 16.5163 10.4684 16.0923 10.4684 15.5713C10.4684 15.0503 10.8924 14.6263 11.4134 14.6263ZM15.6495 11.4837C16.1705 11.4837 16.5945 11.9077 16.5945 12.4287C16.5945 12.9497 16.1705 13.3737 15.6495 13.3737C15.1285 13.3737 14.7045 12.9497 14.7045 12.4287C14.7045 11.9077 15.1285 11.4837 15.6495 11.4837ZM12.5858 11.4837C13.1078 11.4837 13.5308 11.9077 13.5308 12.4287C13.5308 12.9497 13.1078 13.3737 12.5858 13.3737C12.0648 13.3737 11.6408 12.9497 11.6408 12.4287C11.6408 11.9077 12.0648 11.4837 12.5858 11.4837Z" fill="black"/>
</svg>
