<svg width="24" height="24" viewBox="0 0 24 24" fill="none" xmlns="http://www.w3.org/2000/svg">
<path d="M14.8989 6.13141V9.86541C14.8989 10.2794 15.2349 10.6154 15.6489 10.6154H19.3829M20.1252 5.63731L15.2892 10.1333M15.6865 14.4869L15.1645 15.0079C14.6965 15.4769 14.3215 15.5749 13.9575 15.5689C13.6595 15.5639 13.2665 15.3539 13.1785 15.2959C10.2565 13.6239 8.88152 11.1899 8.61252 10.6699C8.59452 10.6359 8.44652 10.3399 8.43152 10.0419C8.41252 9.67891 8.52252 9.30291 8.99152 8.83591L9.51252 8.31391C9.97652 7.84791 10.0845 7.47191 10.0685 7.11291C10.0515 6.74891 9.90552 6.36191 9.39252 5.84691L8.09652 4.55191C7.58352 4.03891 7.19552 3.89291 6.83252 3.87691C6.47052 3.85891 6.09652 3.96691 5.63052 4.43091L5.62752 4.43491L5.62552 4.43591C4.14752 5.91591 3.81452 7.32491 3.88352 8.78591C3.92652 9.69391 4.16852 10.6409 4.84252 11.7249C4.84252 11.7249 7.23152 15.6329 11.8475 18.8729C11.9015 18.9109 11.9565 18.9479 12.0105 18.9839C12.0925 19.0409 12.2625 19.1529 12.2655 19.1509C13.3535 19.8299 14.3035 20.0729 15.2155 20.1169C16.6755 20.1849 18.0845 19.8509 19.5635 18.3749L19.5655 18.3729L19.5685 18.3689C20.0335 17.9039 20.1415 17.5299 20.1235 17.1679C20.1065 16.8039 19.9615 16.4169 19.4465 15.9039L18.1525 14.6079C17.6395 14.0939 17.2515 13.9489 16.8875 13.9319C16.5265 13.9159 16.1515 14.0239 15.6865 14.4869Z" stroke="black" stroke-width="1.5" stroke-linecap="round" stroke-linejoin="round"/>
</svg>
