<svg width="24" height="24" viewBox="0 0 24 24" fill="none" xmlns="http://www.w3.org/2000/svg">
<path d="M5.61619 4.3825C5.98019 4.3985 6.36719 4.54349 6.88019 5.05749L8.17619 6.3525C8.69019 6.8675 8.83519 7.2545 8.85219 7.6175C8.86819 7.9775 8.76019 8.35349 8.29719 8.81849L7.77519 9.3405C7.30719 9.8085 7.19619 10.1845 7.21519 10.5475C7.23119 10.8445 7.37919 11.1415 7.39719 11.1755C7.66619 11.6955 9.04119 14.1295 11.9622 15.8015C12.0512 15.8595 12.4442 16.0695 12.7422 16.0745C13.1062 16.0805 13.4802 15.9825 13.9482 15.5135L14.4712 14.9925C14.9362 14.5295 15.3112 14.4205 15.6722 14.4375C16.0352 14.4545 16.4232 14.5995 16.9372 15.1135L18.2312 16.4095C18.7462 16.9225 18.8912 17.3095 18.9082 17.6735C18.9252 18.0345 18.8172 18.4095 18.3532 18.8735L18.3492 18.8775C16.8682 20.3565 15.4602 20.6905 14.0002 20.6215C13.0882 20.5785 12.1382 20.3355 11.0492 19.6565C11.0482 19.6575 11.0052 19.63 10.9521 19.5952L10.8418 19.5218L10.7942 19.4895C10.7412 19.4535 10.6862 19.4155 10.6312 19.3775C6.01519 16.1385 3.62719 12.2305 3.62719 12.2305C2.95219 11.1465 2.71119 10.1995 2.66819 9.29049C2.59919 7.83049 2.93219 6.4205 4.41019 4.9415L4.41219 4.94049C4.88019 4.47249 5.25419 4.3645 5.61619 4.3825ZM20.394 6.1321C20.64 6.1271 20.891 6.2261 21.069 6.4031C21.246 6.5811 21.345 6.8271 21.34 7.0781L21.289 9.6021C21.282 9.9431 21.004 10.2141 20.664 10.2141H20.652C20.306 10.2071 20.032 9.9211 20.039 9.5761L20.066 8.29109L16.161 12.1951C16.039 12.3181 15.879 12.3791 15.719 12.3791C15.559 12.3791 15.399 12.3181 15.277 12.1951C15.033 11.9511 15.033 11.5561 15.277 11.3121L19.182 7.4071L17.896 7.4331C17.553 7.4381 17.265 7.1661 17.258 6.8211C17.252 6.4761 17.526 6.1911 17.871 6.1831L20.394 6.1321ZM16.2219 3.553C16.4669 3.309 16.8619 3.309 17.1059 3.553C17.3499 3.797 17.3499 4.19299 17.1059 4.43699L13.2009 8.342L14.4869 8.31499H14.4999C14.8399 8.31499 15.1179 8.587 15.1249 8.928C15.1319 9.273 14.8579 9.55799 14.5129 9.56499L11.9889 9.61699H11.9709C11.7259 9.61699 11.4879 9.518 11.3139 9.345C11.1369 9.167 11.0379 8.921 11.0429 8.67L11.0949 6.147C11.1019 5.802 11.3959 5.529 11.7319 5.535C12.0769 5.542 12.3509 5.827 12.3439 6.172L12.3179 7.458L16.2219 3.553Z" fill="black"/>
</svg>
