<svg width="24" height="24" viewBox="0 0 24 24" fill="none" xmlns="http://www.w3.org/2000/svg">
<path fill-rule="evenodd" clip-rule="evenodd" d="M19.5125 4.23479L12.8415 4.18749C11.879 4.18049 11.0863 4.96279 11.0793 5.92619L11.0495 10.1612C11.0434 11.107 11.8108 11.8867 12.7567 11.8937L13.7104 11.9033C13.8312 11.9042 13.9283 12.003 13.9274 12.1238L13.9117 13.893C13.909 14.208 14.098 14.2929 14.3308 14.0803L16.8149 11.975C16.8552 11.9409 16.9059 11.9225 16.9575 11.9225L19.4583 11.9409C20.4208 11.947 21.2135 11.1648 21.2205 10.2023L21.2503 5.99699C21.2573 5.03449 20.475 4.24179 19.5125 4.23479ZM11.6314 17.0514L11.2831 17.3979C10.9708 17.7111 10.7205 17.7767 10.4781 17.7724C10.2787 17.7689 10.017 17.6297 9.95753 17.5904C8.00803 16.4747 7.09102 14.8507 6.91172 14.5034C6.89942 14.4815 6.80052 14.2829 6.79002 14.0842C6.77782 13.8427 6.85132 13.5916 7.16372 13.2792L7.51192 12.9319C7.82082 12.6212 7.89342 12.3701 7.88202 12.1304C7.87072 11.888 7.77442 11.629 7.43142 11.286L6.56692 10.4224C6.22392 10.0785 5.96583 9.98219 5.72343 9.97089C5.48193 9.95949 5.23252 10.0321 4.92192 10.341L4.91932 10.3436C3.93322 11.3315 3.71002 12.2712 3.75552 13.246C3.78442 13.8524 3.94542 14.4841 4.39602 15.2086C4.39602 15.2086 5.98942 17.8161 9.06942 19.9774C9.10622 20.0027 9.14293 20.0272 9.17793 20.0517C9.23303 20.0894 9.34683 20.1646 9.34853 20.1637C10.0748 20.6161 10.7083 20.778 11.3173 20.8069C12.2912 20.8532 13.2309 20.6301 14.2188 19.6449L14.2197 19.6431L14.2223 19.6414C14.532 19.3307 14.6038 19.0805 14.5924 18.8399C14.5802 18.5975 14.4839 18.3385 14.14 17.9964L13.2764 17.1319C12.9343 16.788 12.6753 16.6917 12.4329 16.6804C12.1923 16.669 11.942 16.7416 11.6314 17.0514Z" stroke="black" stroke-width="1.5" stroke-linecap="round" stroke-linejoin="round"/>
</svg>
