<svg width="24" height="24" viewBox="0 0 24 24" fill="none" xmlns="http://www.w3.org/2000/svg">
<path d="M17.5958 9.42151C16.9738 9.42151 16.4708 8.91751 16.4708 8.29651C16.4708 7.67551 16.9738 7.17151 17.5958 7.17151C18.2168 7.17151 18.7208 7.67551 18.7208 8.29651C18.7208 8.91751 18.2168 9.42151 17.5958 9.42151Z" fill="black"/>
<path fill-rule="evenodd" clip-rule="evenodd" d="M18.4957 5.25012C19.8767 5.25012 20.9957 6.36912 20.9957 7.75012V16.6661C20.9957 18.0471 19.8767 19.1661 18.4957 19.1661H6.24969C4.86969 19.1661 3.74969 18.0471 3.74969 16.6661V7.75012C3.74969 6.36912 4.86969 5.25012 6.24969 5.25012H18.4957ZM12.2476 9.20812C10.5916 9.20812 9.24759 10.5511 9.24759 12.2081C9.24759 13.8651 10.5916 15.2081 12.2476 15.2081C13.9046 15.2081 15.2476 13.8651 15.2476 12.2081C15.2476 10.5511 13.9046 9.20812 12.2476 9.20812Z" stroke="black" stroke-width="1.5" stroke-linecap="round" stroke-linejoin="round"/>
</svg>
