<svg width="24" height="24" viewBox="0 0 24 24" fill="none" xmlns="http://www.w3.org/2000/svg">
<path d="M21.4999 3.37482C21.4999 4.68682 20.4369 5.74982 19.1249 5.74982C17.8129 5.74982 16.7499 4.68682 16.7499 3.37482C16.7499 2.06282 17.8129 0.999817 19.1249 0.999817C20.4369 0.999817 21.4999 2.06282 21.4999 3.37482ZM9.91489 3.61852C10.4029 3.61852 10.8029 4.01652 10.8029 4.50452L10.6509 6.37252C10.6509 6.86052 10.3389 7.25952 9.91489 7.25952C9.51689 7.25952 9.17989 6.86052 9.17989 6.37252L9.02789 4.50452C9.02789 4.01652 9.42689 3.61852 9.91489 3.61852ZM4.44269 5.61462C4.86469 5.36962 5.40969 5.51562 5.65469 5.93862L6.31369 7.38362C6.55669 7.80562 6.48769 8.30762 6.11969 8.51962C5.77569 8.71862 5.28369 8.54162 5.03969 8.11962L4.11869 6.82562C3.87369 6.40362 4.02069 5.85762 4.44269 5.61462ZM14.2059 5.93252C14.4499 5.51152 14.9959 5.36452 15.4179 5.60852C15.8399 5.85252 15.9869 6.39752 15.7429 6.82052L14.8209 8.11452C14.5769 8.53552 14.1079 8.72652 13.7409 8.51452C13.3949 8.31552 13.3029 7.80052 13.5469 7.37852L14.2059 5.93252Z" fill="black"/>
<path d="M9.86359 15.5741V17.2081M14.578 10.1302C14.991 10.1302 15.328 10.4672 15.328 10.8802V11.1172C15.328 11.6282 15.145 12.1212 14.814 12.5052L12.517 15.1722V20.0722C12.517 21.1892 11.806 22.0002 10.827 22.0002H8.91999C7.93999 22.0002 7.22899 21.1892 7.22899 20.0722V15.1722L4.93299 12.5052C4.59999 12.1202 4.41699 11.6272 4.41699 11.1172V10.8802C4.41699 10.4672 4.75399 10.1302 5.16699 10.1302H14.578Z" stroke="black" stroke-width="1.5" stroke-linecap="round" stroke-linejoin="round"/>
</svg>
