<svg width="24" height="24" viewBox="0 0 24 24" fill="none" xmlns="http://www.w3.org/2000/svg">
<path d="M5.74249 9.28949C5.72649 9.28949 5.71149 9.29249 5.69549 9.29249L6.65749 6.84749C6.92249 6.17349 7.56149 5.73749 8.28649 5.73749H15.7135C16.4375 5.73749 17.0765 6.17349 17.3425 6.84749L18.3035 9.29249C18.2875 9.29249 18.2725 9.28949 18.2575 9.28949H5.74249ZM17.5975 12.5475H20.7575V11.7895C20.7575 11.3135 20.6195 10.8695 20.3865 10.4895L18.7375 6.29849C18.2455 5.04749 17.0575 4.23749 15.7135 4.23749H8.28649C6.94049 4.23749 5.75449 5.04749 5.26249 6.29849L3.61349 10.4885C3.38049 10.8695 3.24249 11.3135 3.24249 11.7895V12.5475H6.40149C6.81549 12.5475 7.15149 12.8835 7.15149 13.2975C7.15149 13.7115 6.81549 14.0475 6.40149 14.0475H3.24249V14.8045C3.24249 15.5215 3.55049 16.1695 4.03849 16.6265V18.5125C4.03849 19.2025 4.59749 19.7625 5.28849 19.7625H5.78849C6.47849 19.7625 7.03849 19.2025 7.03849 18.5125V17.3045H16.9615V18.5125C16.9615 19.2025 17.5205 19.7625 18.2115 19.7625H18.7115C19.4015 19.7625 19.9615 19.2025 19.9615 18.5125V16.6265C20.4485 16.1695 20.7575 15.5215 20.7575 14.8045V14.0475H17.5975C17.1825 14.0475 16.8475 13.7115 16.8475 13.2975C16.8475 12.8835 17.1825 12.5475 17.5975 12.5475Z" fill="black"/>
</svg>
