<svg width="24" height="24" viewBox="0 0 24 24" fill="none" xmlns="http://www.w3.org/2000/svg">
<path d="M15.2861 12.6199C14.7788 12.6199 14.3681 12.2092 14.3681 11.7022C14.3681 11.1947 14.7788 10.7834 15.2861 10.7834C15.7923 10.7834 16.2046 11.1947 16.2046 11.7022C16.2046 12.2092 15.7923 12.6199 15.2861 12.6199ZM13.7858 15.0944C13.3078 15.0944 12.5148 14.7534 11.9998 14.2532C11.4848 14.7534 10.6918 15.0944 10.2138 15.0944C9.93759 15.0944 9.71379 14.8707 9.71379 14.5944C9.71379 14.3184 9.93759 14.0944 10.2138 14.0944C10.6438 14.0944 11.4776 13.5147 11.4998 13.2669V13.2154C11.2363 13.0017 11.0083 12.6837 11.0083 12.4522C11.0083 12.0722 11.6218 12.0692 11.9998 12.0692C12.3801 12.0692 12.9911 12.0722 12.9911 12.4522C12.9911 12.6837 12.7636 13.0022 12.4998 13.2159V13.2679C12.5211 13.5139 13.3556 14.0944 13.7858 14.0944C14.0621 14.0944 14.2858 14.3184 14.2858 14.5944C14.2858 14.8707 14.0621 15.0944 13.7858 15.0944ZM8.71329 12.6199C8.20709 12.6199 7.79579 12.2092 7.79579 11.7022C7.79579 11.1947 8.20709 10.7834 8.71329 10.7834C9.22059 10.7834 9.63129 11.1947 9.63129 11.7022C9.63129 12.2092 9.22059 12.6199 8.71329 12.6199ZM18.1436 4.81572C17.9971 4.21942 17.3396 3.89842 16.7856 4.16342C16.0358 4.52242 15.1411 5.24692 13.5608 6.70992L13.5508 6.70542C12.5501 6.46392 11.4498 6.46392 10.4493 6.70542L10.4393 6.70992C8.87409 5.26122 7.98609 4.53672 7.23609 4.17422C6.67409 3.90272 6.00509 4.20992 5.85609 4.81592C5.67529 5.55122 3.76479 10.4487 4.15229 13.8422C4.50409 16.9127 7.60459 19.9047 11.9736 19.9294L11.9733 19.9304C11.9823 19.9304 11.9911 19.9299 12.0001 19.9299C12.0096 19.9299 12.0183 19.9304 12.0273 19.9304L12.0271 19.9294C16.3956 19.9047 19.4966 16.9127 19.8476 13.8422C20.2356 10.4487 18.3243 5.55042 18.1436 4.81572Z" fill="black"/>
</svg>
