<svg width="36" height="36" viewBox="0 0 36 36" fill="none" xmlns="http://www.w3.org/2000/svg">
<path fill-rule="evenodd" clip-rule="evenodd" d="M28.856 7.14401C27.13 5.52161 24.7739 4.60121 22.1738 4.25691C19.6907 3.92781 18 4.00881 18 4.00881C18 4.00881 16.309 3.92781 13.8258 4.25691C11.2258 4.60121 8.86979 5.52161 7.14429 7.14401C5.52149 8.86981 4.60119 11.2259 4.25669 13.8259C3.92759 16.3089 4.00889 17.9999 4.00889 17.9999C4.00889 17.9999 3.92759 19.6907 4.25669 22.1739C4.60119 24.7737 5.52149 27.13 7.14409 28.8558C8.86979 30.4784 11.2258 31.3986 13.8258 31.7433C16.309 32.0722 18 31.9912 18 31.9912C18 31.9912 19.6907 32.0722 22.1738 31.7433C24.7739 31.3986 27.13 30.4784 28.8556 28.8558C30.4786 27.13 31.3988 24.7737 31.7433 22.1739C32.0722 19.6907 31.9912 17.9999 31.9912 17.9999C31.9912 17.9999 32.0722 16.3089 31.7433 13.8259C31.3988 11.2259 30.4786 8.86981 28.856 7.14401Z" fill="#F28072"/>
<path d="M20.3236 14.7691C20.3011 14.8621 20.2816 14.9551 20.2659 15.0511C20.2509 15.1441 20.2381 15.2378 20.2306 15.3323C20.2246 15.4201 20.2178 15.5063 20.2178 15.5948C20.2178 17.4601 21.7336 18.9773 23.5966 18.9773C23.6026 18.9773 23.6071 18.9758 23.6124 18.9758C23.7076 18.9758 23.8021 18.9698 23.8944 18.9616C23.9903 18.9533 24.0834 18.9391 24.1763 18.9233V19.9358C24.1763 21.3353 23.0386 22.4723 21.6399 22.4723H14.8756C13.4776 22.4723 12.3391 21.3353 12.3391 19.9358V17.3056C12.3391 15.9068 13.4776 14.7691 14.8756 14.7691H20.3236ZM23.5969 13.5277C24.7376 13.5277 25.6609 14.4532 25.6609 15.5947C25.6609 16.5344 25.0346 17.3264 24.1759 17.5777C24.0851 17.6039 23.9907 17.6234 23.8946 17.6377C23.8024 17.6512 23.7086 17.6602 23.6126 17.6609L23.5969 17.6617C22.4569 17.6617 21.5329 16.7362 21.5329 15.5947C21.5329 15.5054 21.5411 15.4192 21.5517 15.3329C21.5629 15.2369 21.5824 15.1432 21.6072 15.0509C21.6341 14.9557 21.6656 14.8627 21.7039 14.7727C22.0211 14.0407 22.7486 13.5277 23.5969 13.5277Z" fill="white"/>
</svg>
