<svg width="36" height="36" viewBox="0 0 36 36" fill="none" xmlns="http://www.w3.org/2000/svg">
<path fill-rule="evenodd" clip-rule="evenodd" d="M28.856 7.14401C27.13 5.52161 24.7739 4.60121 22.1738 4.25691C19.6907 3.92781 18 4.00881 18 4.00881C18 4.00881 16.309 3.92781 13.8258 4.25691C11.2258 4.60121 8.8698 5.52161 7.1443 7.14401C5.5215 8.86981 4.6012 11.2259 4.2567 13.8259C3.9276 16.3089 4.0089 17.9999 4.0089 17.9999C4.0089 17.9999 3.9276 19.6907 4.2567 22.1739C4.6012 24.7737 5.5215 27.13 7.1441 28.8558C8.8698 30.4784 11.2258 31.3986 13.8258 31.7433C16.309 32.0722 18 31.9912 18 31.9912C18 31.9912 19.6907 32.0722 22.1738 31.7433C24.7739 31.3986 27.13 30.4784 28.8556 28.8558C30.4786 27.13 31.3988 24.7737 31.7433 22.1739C32.0722 19.6907 31.9912 17.9999 31.9912 17.9999C31.9912 17.9999 32.0722 16.3089 31.7433 13.8259C31.3988 11.2259 30.4786 8.86981 28.856 7.14401Z" fill="#FDBA44"/>
<path d="M21.0938 12.8291H20.0985V12.1084C20.0985 11.6936 19.7633 11.3584 19.3485 11.3584H16.7235C16.3095 11.3584 15.9735 11.6936 15.9735 12.1084V12.8291H14.9063C14.0782 12.8291 13.4063 13.5011 13.4063 14.3291V22.7666C13.4063 23.8024 14.2463 24.6416 15.2813 24.6416H20.7188C21.7545 24.6416 22.5938 23.8024 22.5938 22.7666V14.3291C22.5938 13.5011 21.9225 12.8291 21.0938 12.8291Z" fill="white"/>
</svg>
