<svg width="36" height="36" viewBox="0 0 36 36" fill="none" xmlns="http://www.w3.org/2000/svg">
<path fill-rule="evenodd" clip-rule="evenodd" d="M28.856 7.14401C27.13 5.52161 24.7739 4.60121 22.1738 4.25691C19.6907 3.92781 18 4.00881 18 4.00881C18 4.00881 16.309 3.92781 13.8258 4.25691C11.2258 4.60121 8.8698 5.52161 7.1443 7.14401C5.5215 8.86981 4.6012 11.2259 4.2567 13.8259C3.9276 16.3089 4.0089 17.9999 4.0089 17.9999C4.0089 17.9999 3.9276 19.6907 4.2567 22.1739C4.6012 24.7737 5.5215 27.13 7.1441 28.8558C8.8698 30.4784 11.2258 31.3986 13.8258 31.7433C16.309 32.0722 18 31.9912 18 31.9912C18 31.9912 19.6907 32.0722 22.1738 31.7433C24.7739 31.3986 27.13 30.4784 28.8556 28.8558C30.4786 27.13 31.3988 24.7737 31.7433 22.1739C32.0722 19.6907 31.9912 17.9999 31.9912 17.9999C31.9912 17.9999 32.0722 16.3089 31.7433 13.8259C31.3988 11.2259 30.4786 8.86981 28.856 7.14401Z" fill="#FF8D93"/>
<path d="M20.3263 21.8221L18.4043 22.3121C18.3423 22.3281 18.2793 22.3351 18.2173 22.3351C17.8803 22.3351 17.5733 22.1081 17.4863 21.7671C17.3833 21.3631 17.6273 20.9511 18.0313 20.8481L19.9533 20.3591C20.3573 20.2551 20.7683 20.5011 20.8713 20.9041C20.9743 21.3081 20.7303 21.7191 20.3263 21.8221ZM13.0273 24.8411C12.0343 24.4421 11.2553 23.6801 10.8353 22.6961C10.4143 21.7121 10.4023 20.6231 10.8013 19.6301C11.0423 19.0291 11.4303 18.5201 11.9063 18.1081C11.5343 21.2141 12.8443 23.7551 15.5873 24.9801C14.7503 25.2141 13.8583 25.1741 13.0273 24.8411ZM25.6803 14.8501C25.0083 12.8091 23.5993 11.2671 21.7113 10.5091C19.7723 9.73008 17.8633 9.84708 16.1873 10.8451C14.6803 11.7431 13.4503 13.2961 12.6313 15.3361C12.5353 15.5741 12.4523 15.8101 12.3743 16.0451C12.3673 16.0481 12.3593 16.0461 12.3523 16.0491C10.9973 16.6281 9.9483 17.7001 9.4003 19.0671C8.8513 20.4351 8.8673 21.9341 9.4463 23.2891C10.0253 24.6441 11.0973 25.6931 12.4643 26.2411C13.1293 26.5091 13.8223 26.6421 14.5143 26.6421C15.5053 26.6421 16.4953 26.3691 17.3983 25.8271C17.4303 25.8051 17.5583 25.7121 17.7123 25.5561C17.9193 25.5751 18.1253 25.5851 18.3313 25.5851C21.4993 25.5851 24.4003 23.3131 25.5243 20.5121C26.2283 18.7581 26.2853 16.6941 25.6803 14.8501Z" fill="white"/>
</svg>
