<svg width="36" height="36" viewBox="0 0 36 36" fill="none" xmlns="http://www.w3.org/2000/svg">
<path fill-rule="evenodd" clip-rule="evenodd" d="M28.856 7.14401C27.13 5.52161 24.7739 4.60121 22.1738 4.25691C19.6907 3.92781 18 4.00881 18 4.00881C18 4.00881 16.309 3.92781 13.8258 4.25691C11.2258 4.60121 8.86979 5.52161 7.14429 7.14401C5.52149 8.86981 4.60119 11.2259 4.25669 13.8259C3.92759 16.3089 4.00889 17.9999 4.00889 17.9999C4.00889 17.9999 3.92759 19.6907 4.25669 22.1739C4.60119 24.7737 5.52149 27.13 7.14409 28.8558C8.86979 30.4784 11.2258 31.3986 13.8258 31.7433C16.309 32.0722 18 31.9912 18 31.9912C18 31.9912 19.6907 32.0722 22.1738 31.7433C24.7739 31.3986 27.13 30.4784 28.8556 28.8558C30.4786 27.13 31.3988 24.7737 31.7433 22.1739C32.0722 19.6907 31.9912 17.9999 31.9912 17.9999C31.9912 17.9999 32.0722 16.3089 31.7433 13.8259C31.3988 11.2259 30.4786 8.86981 28.856 7.14401Z" fill="#4664C7"/>
<path d="M18.2139 10.6436L20.5847 12.7616L18.2139 14.9561V13.5041C18.1967 13.5049 18.1802 13.5094 18.1629 13.5094C15.3099 13.5094 12.9902 15.8299 12.9902 18.6829C12.9902 21.5351 15.3099 23.8564 18.1629 23.8564C20.3649 23.8564 22.3299 22.4599 23.0514 20.3809C23.1872 19.9901 23.6147 19.7824 24.0062 19.9189C24.3969 20.0546 24.6039 20.4821 24.4682 20.8729C23.5367 23.5549 21.0024 25.3564 18.1629 25.3564C14.4834 25.3564 11.4902 22.3624 11.4902 18.6829C11.4902 15.0026 14.4834 12.0094 18.1629 12.0094C18.1802 12.0094 18.1967 12.0131 18.2139 12.0146V10.6436ZM22.6532 15.0646C22.945 14.7706 23.4205 14.7691 23.7137 15.0608C24.0077 15.3526 24.01 15.8273 23.7175 16.1213L18.3242 21.5536L14.959 18.3038C14.6612 18.0158 14.653 17.5411 14.941 17.2433C15.2282 16.9456 15.7037 16.9373 16.0007 17.2253L18.3017 19.4468L22.6532 15.0646Z" fill="white"/>
</svg>
