<svg width="36" height="36" viewBox="0 0 36 36" fill="none" xmlns="http://www.w3.org/2000/svg">
<path fill-rule="evenodd" clip-rule="evenodd" d="M28.856 7.14401C27.13 5.52161 24.7739 4.60121 22.1738 4.25691C19.6907 3.92781 18 4.00881 18 4.00881C18 4.00881 16.309 3.92781 13.8258 4.25691C11.2258 4.60121 8.86979 5.52161 7.14429 7.14401C5.52149 8.86981 4.60119 11.2259 4.25669 13.8259C3.92759 16.3089 4.00889 17.9999 4.00889 17.9999C4.00889 17.9999 3.92759 19.6907 4.25669 22.1739C4.60119 24.7737 5.52149 27.13 7.14409 28.8558C8.86979 30.4784 11.2258 31.3986 13.8258 31.7433C16.309 32.0722 18 31.9912 18 31.9912C18 31.9912 19.6907 32.0722 22.1738 31.7433C24.7739 31.3986 27.13 30.4784 28.8556 28.8558C30.4786 27.13 31.3988 24.7737 31.7433 22.1739C32.0722 19.6907 31.9912 17.9999 31.9912 17.9999C31.9912 17.9999 32.0722 16.3089 31.7433 13.8259C31.3988 11.2259 30.4786 8.86981 28.856 7.14401Z" fill="#7BA2F1"/>
<path d="M20.1574 20.036C19.5371 20.4425 18.7961 20.6802 18.0004 20.6802C17.2039 20.6802 16.4636 20.4425 15.8426 20.036V19.5912C15.8426 18.6252 16.8086 17.7267 18.0004 17.7267C19.1914 17.7267 20.1581 18.6252 20.1574 19.5912V20.036ZM18.0004 14.5092C18.6859 14.5092 19.2416 15.065 19.2416 15.7505C19.2416 16.436 18.6859 16.9917 18.0004 16.9917C17.3141 16.9917 16.7591 16.436 16.7591 15.7505C16.7591 15.065 17.3141 14.5092 18.0004 14.5092ZM22.3961 12.7827C20.9449 12.5615 19.7366 12.1385 18.4684 11.5422C18.1721 11.4027 17.8279 11.4027 17.5316 11.5422C16.2641 12.1385 15.0551 12.5615 13.6039 12.7827C13.0594 12.866 12.6536 13.3287 12.6536 13.8792V17.9142C12.6536 19.8432 13.4891 21.53 15.1354 22.9295C16.0984 23.747 17.1259 24.266 17.7176 24.5067C17.8991 24.581 18.1009 24.581 18.2824 24.5067C18.8749 24.266 19.9024 23.747 20.8654 22.9295C22.5116 21.53 23.3464 19.8432 23.3464 17.9142V13.8792C23.3464 13.3287 22.9406 12.866 22.3961 12.7827Z" fill="white"/>
</svg>
