<svg width="36" height="36" viewBox="0 0 36 36" fill="none" xmlns="http://www.w3.org/2000/svg">
<path fill-rule="evenodd" clip-rule="evenodd" d="M28.856 7.14401C27.13 5.52161 24.7739 4.60121 22.1738 4.25691C19.6907 3.92781 18 4.00881 18 4.00881C18 4.00881 16.309 3.92781 13.8258 4.25691C11.2258 4.60121 8.86981 5.52161 7.14431 7.14401C5.52151 8.86981 4.60121 11.2259 4.25671 13.8259C3.92761 16.3089 4.00891 17.9999 4.00891 17.9999C4.00891 17.9999 3.92761 19.6907 4.25671 22.1739C4.60121 24.7737 5.52151 27.13 7.14411 28.8558C8.86981 30.4784 11.2258 31.3986 13.8258 31.7433C16.309 32.0722 18 31.9912 18 31.9912C18 31.9912 19.6907 32.0722 22.1738 31.7433C24.7739 31.3986 27.13 30.4784 28.8556 28.8558C30.4786 27.13 31.3988 24.7737 31.7433 22.1739C32.0722 19.6907 31.9912 17.9999 31.9912 17.9999C31.9912 17.9999 32.0722 16.3089 31.7433 13.8259C31.3988 11.2259 30.4786 8.86981 28.856 7.14401Z" fill="#4772E6"/>
<path d="M19.4552 12.2034C19.5602 11.9117 19.8827 11.7609 20.1752 11.8652C22.7379 12.7892 24.4592 15.2544 24.4592 18.0002C24.4592 20.0964 23.4564 22.0374 21.8214 23.2502H23.1909C23.5014 23.2502 23.7534 23.5022 23.7534 23.8127C23.7534 24.1232 23.5014 24.3752 23.1909 24.3752H20.5577C20.0477 24.3752 19.6322 23.9597 19.6322 23.4497V20.9807C19.6322 20.6702 19.8834 20.4182 20.1947 20.4182C20.5052 20.4182 20.7572 20.6702 20.7572 20.9807V22.6097C22.3397 21.6422 23.3342 19.8984 23.3342 18.0002C23.3342 15.7277 21.9114 13.6869 19.7942 12.9234C19.5009 12.8192 19.3502 12.4959 19.4552 12.2034ZM15.4423 11.6248C15.9531 11.6248 16.3686 12.0403 16.3686 12.5511V15.0186C16.3686 15.3291 16.1173 15.5811 15.8061 15.5811C15.4956 15.5811 15.2436 15.3291 15.2436 15.0186V13.3888C13.6596 14.3563 12.6658 16.1001 12.6658 17.9998C12.6658 20.2731 14.0886 22.3123 16.2066 23.0758C16.4991 23.1808 16.6498 23.5026 16.5448 23.7951C16.4623 24.0246 16.2463 24.1671 16.0153 24.1671C15.9523 24.1671 15.8878 24.1566 15.8248 24.1341C13.2621 23.2108 11.5408 20.7456 11.5408 17.9998C11.5408 15.9036 12.5436 13.9618 14.1778 12.7498H12.8098C12.4993 12.7498 12.2473 12.4978 12.2473 12.1873C12.2473 11.8768 12.4993 11.6248 12.8098 11.6248H15.4423Z" fill="white"/>
</svg>
