<svg width="36" height="36" viewBox="0 0 36 36" fill="none" xmlns="http://www.w3.org/2000/svg">
<path fill-rule="evenodd" clip-rule="evenodd" d="M28.856 7.14401C27.13 5.52161 24.7739 4.60121 22.1738 4.25691C19.6907 3.92781 18 4.00881 18 4.00881C18 4.00881 16.309 3.92781 13.8258 4.25691C11.2258 4.60121 8.8698 5.52161 7.1443 7.14401C5.5215 8.86981 4.6012 11.2259 4.2567 13.8259C3.9276 16.3089 4.0089 17.9999 4.0089 17.9999C4.0089 17.9999 3.9276 19.6907 4.2567 22.1739C4.6012 24.7737 5.5215 27.13 7.1441 28.8558C8.8698 30.4784 11.2258 31.3986 13.8258 31.7433C16.309 32.0722 18 31.9912 18 31.9912C18 31.9912 19.6907 32.0722 22.1738 31.7433C24.7739 31.3986 27.13 30.4784 28.8556 28.8558C30.4786 27.13 31.3988 24.7737 31.7433 22.1739C32.0722 19.6907 31.9912 17.9999 31.9912 17.9999C31.9912 17.9999 32.0722 16.3089 31.7433 13.8259C31.3988 11.2259 30.4786 8.86981 28.856 7.14401Z" fill="#00AF9A"/>
<path d="M14.7188 18.8438C16.1152 18.8438 17.25 19.9792 17.25 21.375C17.25 22.7708 16.1152 23.9063 14.7188 23.9063C13.323 23.9063 12.1875 22.7708 12.1875 21.375C12.1875 19.9792 13.323 18.8438 14.7188 18.8438ZM21.2813 18.8438C22.6777 18.8438 23.8125 19.9792 23.8125 21.375C23.8125 22.7708 22.6777 23.9063 21.2813 23.9063C19.8855 23.9063 18.75 22.7708 18.75 21.375C18.75 19.9792 19.8855 18.8438 21.2813 18.8438ZM14.7188 12.0938C16.1152 12.0938 17.25 13.2292 17.25 14.625C17.25 16.0208 16.1152 17.1563 14.7188 17.1563C13.323 17.1563 12.1875 16.0208 12.1875 14.625C12.1875 13.2292 13.323 12.0938 14.7188 12.0938ZM21.2813 12.0938C22.6777 12.0938 23.8125 13.2292 23.8125 14.625C23.8125 16.0208 22.6777 17.1563 21.2813 17.1563C19.8855 17.1563 18.75 16.0208 18.75 14.625C18.75 13.2292 19.8855 12.0938 21.2813 12.0938Z" fill="white"/>
</svg>
