<svg width="36" height="36" viewBox="0 0 36 36" fill="none" xmlns="http://www.w3.org/2000/svg">
<path fill-rule="evenodd" clip-rule="evenodd" d="M28.856 7.14401C27.13 5.52161 24.7739 4.60121 22.1738 4.25691C19.6907 3.92781 18 4.00881 18 4.00881C18 4.00881 16.309 3.92781 13.8258 4.25691C11.2258 4.60121 8.86979 5.52161 7.14429 7.14401C5.52149 8.86981 4.60119 11.2259 4.25669 13.8259C3.92759 16.3089 4.00889 17.9999 4.00889 17.9999C4.00889 17.9999 3.92759 19.6907 4.25669 22.1739C4.60119 24.7737 5.52149 27.13 7.14409 28.8558C8.86979 30.4784 11.2258 31.3986 13.8258 31.7433C16.309 32.0722 18 31.9912 18 31.9912C18 31.9912 19.6907 32.0722 22.1738 31.7433C24.7739 31.3986 27.13 30.4784 28.8556 28.8558C30.4786 27.13 31.3988 24.7737 31.7433 22.1739C32.0722 19.6907 31.9912 17.9999 31.9912 17.9999C31.9912 17.9999 32.0722 16.3089 31.7433 13.8259C31.3988 11.2259 30.4786 8.86981 28.856 7.14401Z" fill="#69A9F1"/>
<path d="M24.1339 19.725L23.0839 18.675C22.9339 18.525 22.8588 18.3 22.8588 18.15C22.8588 18.15 22.8588 18.15 22.8588 18C22.8588 17.85 22.8588 17.85 22.8588 17.85C22.8588 17.7 22.9339 17.475 23.0839 17.325L24.1339 16.275C24.2839 16.125 24.2839 15.9 24.2089 15.675L23.0839 13.725C23.0089 13.575 22.7089 13.425 22.5589 13.5L21.1339 13.875C20.9089 13.95 20.6839 13.875 20.5339 13.8C20.3839 13.725 20.0089 13.35 19.9339 13.125L19.5589 11.7C19.4838 11.475 19.3339 11.325 19.1088 11.325H16.8589C16.6339 11.325 16.4089 11.475 16.4089 11.7L16.0339 13.125C15.9589 13.35 15.8089 13.575 15.6589 13.65C15.5089 13.725 14.9839 13.875 14.8339 13.875L13.4089 13.5C13.1839 13.425 12.9589 13.575 12.8839 13.725L11.7589 15.675C11.6839 15.825 11.6839 16.125 11.8339 16.275L12.8839 17.325C13.0339 17.475 13.1089 17.7 13.1089 17.85C13.1089 17.85 13.1089 17.85 13.1089 18C13.1089 18.15 13.1089 18.15 13.1089 18.15C13.1089 18.3 13.0339 18.525 12.8839 18.675L11.8339 19.725C11.6839 19.875 11.6839 20.1 11.7589 20.325L12.8839 22.275C12.9589 22.425 13.2589 22.575 13.4089 22.5L14.8339 22.125C15.0589 22.05 15.2839 22.125 15.4339 22.2C15.5839 22.275 15.9589 22.65 16.0339 22.875L16.4089 24.3C16.4839 24.525 16.6339 24.675 16.8589 24.675H19.1088C19.3339 24.675 19.5589 24.525 19.5589 24.3L19.9339 22.875C20.0089 22.65 20.1589 22.425 20.3089 22.35C20.4589 22.275 20.9838 22.125 21.1339 22.125L22.5589 22.5C22.7839 22.575 23.0089 22.425 23.0839 22.275L24.2089 20.325C24.3588 20.175 24.2839 19.875 24.1339 19.725ZM18.0589 20.25C16.7839 20.25 15.8089 19.275 15.8089 18C15.8089 16.725 16.7839 15.75 18.0589 15.75C19.3339 15.75 20.3089 16.725 20.3089 18C20.3089 19.275 19.2589 20.25 18.0589 20.25Z" fill="white"/>
</svg>
