<svg width="36" height="36" viewBox="0 0 36 36" fill="none" xmlns="http://www.w3.org/2000/svg">
<path fill-rule="evenodd" clip-rule="evenodd" d="M28.856 7.14401C27.13 5.52161 24.7739 4.60121 22.1738 4.25691C19.6907 3.92781 18 4.00881 18 4.00881C18 4.00881 16.309 3.92781 13.8258 4.25691C11.2258 4.60121 8.86979 5.52161 7.14429 7.14401C5.52149 8.86981 4.60119 11.2259 4.25669 13.8259C3.92759 16.3089 4.00889 17.9999 4.00889 17.9999C4.00889 17.9999 3.92759 19.6907 4.25669 22.1739C4.60119 24.7737 5.52149 27.13 7.14409 28.8558C8.86979 30.4784 11.2258 31.3986 13.8258 31.7433C16.309 32.0722 18 31.9912 18 31.9912C18 31.9912 19.6907 32.0722 22.1738 31.7433C24.7739 31.3986 27.13 30.4784 28.8556 28.8558C30.4786 27.13 31.3988 24.7737 31.7433 22.1739C32.0722 19.6907 31.9912 17.9999 31.9912 17.9999C31.9912 17.9999 32.0722 16.3089 31.7433 13.8259C31.3988 11.2259 30.4786 8.86981 28.856 7.14401Z" fill="#29B9D8"/>
<path d="M18.132 12.0015H18.1305C18.0083 11.9985 17.9085 12.0968 17.9085 12.2183V17.0228C17.9085 17.13 17.9948 17.2163 18.102 17.2163H19.845C21.3585 17.2163 22.5735 18.495 22.4678 20.0317C22.3778 21.3285 21.3285 22.3778 20.0317 22.467C18.4958 22.5735 17.217 21.3592 17.217 19.845V19.5667V17.2163V12.1935C17.217 12.0863 17.1292 12 17.0228 12H12.1927C12.0877 12 12.0022 12.0833 12 12.1882L12.0022 18.0765C12.0825 21.3165 14.697 23.9753 17.955 24H17.967H18.033C21.3322 23.982 24 21.3022 24 18C24 14.7308 21.3848 12.072 18.132 12.0015Z" fill="white"/>
</svg>
