<svg width="36" height="36" viewBox="0 0 36 36" fill="none" xmlns="http://www.w3.org/2000/svg">
<path fill-rule="evenodd" clip-rule="evenodd" d="M28.856 7.14401C27.13 5.52161 24.7739 4.60121 22.1738 4.25691C19.6907 3.92781 18 4.00881 18 4.00881C18 4.00881 16.309 3.92781 13.8258 4.25691C11.2258 4.60121 8.86979 5.52161 7.14429 7.14401C5.52149 8.86981 4.60119 11.2259 4.25669 13.8259C3.92759 16.3089 4.00889 17.9999 4.00889 17.9999C4.00889 17.9999 3.92759 19.6907 4.25669 22.1739C4.60119 24.7737 5.52149 27.13 7.14409 28.8558C8.86979 30.4784 11.2258 31.3986 13.8258 31.7433C16.309 32.0722 18 31.9912 18 31.9912C18 31.9912 19.6907 32.0722 22.1738 31.7433C24.7739 31.3986 27.13 30.4784 28.8556 28.8558C30.4786 27.13 31.3988 24.7737 31.7433 22.1739C32.0722 19.6907 31.9912 17.9999 31.9912 17.9999C31.9912 17.9999 32.0722 16.3089 31.7433 13.8259C31.3988 11.2259 30.4786 8.86981 28.856 7.14401Z" fill="#6DBD63"/>
<path d="M17.9996 18.8766C16.7576 18.8766 15.7496 17.8694 15.7496 16.6251C15.7496 15.3839 16.7576 14.3766 17.9996 14.3766C19.2424 14.3766 20.2496 15.3839 20.2496 16.6251C20.2496 17.8694 19.2424 18.8766 17.9996 18.8766ZM17.9989 11.2701C15.0154 11.2701 12.5884 13.6971 12.5884 16.6799C12.5884 18.7461 14.1596 20.4861 14.2211 20.5521L17.1454 24.3374C17.5946 24.8609 18.4046 24.8609 18.8539 24.3366L21.7714 20.5589C21.8389 20.4861 23.4116 18.7461 23.4116 16.6799C23.4116 13.6971 20.9839 11.2701 17.9989 11.2701Z" fill="white"/>
</svg>
