<svg width="36" height="36" viewBox="0 0 36 36" fill="none" xmlns="http://www.w3.org/2000/svg">
<path fill-rule="evenodd" clip-rule="evenodd" d="M28.856 7.14401C27.13 5.52161 24.7739 4.60121 22.1738 4.25691C19.6907 3.92781 18 4.00881 18 4.00881C18 4.00881 16.309 3.92781 13.8258 4.25691C11.2258 4.60121 8.86979 5.52161 7.14429 7.14401C5.52149 8.86981 4.60119 11.2259 4.25669 13.8259C3.92759 16.3089 4.00889 17.9999 4.00889 17.9999C4.00889 17.9999 3.92759 19.6907 4.25669 22.1739C4.60119 24.7737 5.52149 27.13 7.14409 28.8558C8.86979 30.4784 11.2258 31.3986 13.8258 31.7433C16.309 32.0722 18 31.9912 18 31.9912C18 31.9912 19.6907 32.0722 22.1738 31.7433C24.7739 31.3986 27.13 30.4784 28.8556 28.8558C30.4786 27.13 31.3988 24.7737 31.7433 22.1739C32.0722 19.6907 31.9912 17.9999 31.9912 17.9999C31.9912 17.9999 32.0722 16.3089 31.7433 13.8259C31.3988 11.2259 30.4786 8.86981 28.856 7.14401Z" fill="#FFA746"/>
<path d="M17.5747 10.5938C18.4717 10.5938 18.9171 11.2545 19.2606 11.8763C19.6761 12.627 20.9556 13.4528 21.4131 13.7085C23.0548 14.67 24.0892 16.443 24.0892 18.603C24.0892 18.7297 24.0847 18.8558 24.0779 18.9945C24.0397 19.5968 23.9249 20.2013 23.7247 20.7983C23.2484 22.2428 22.3222 23.5522 21.1882 24.393C21.0457 24.4965 20.9016 24.5933 20.7531 24.6877C19.9671 25.1647 19.1473 25.4063 18.3193 25.4063C17.0376 25.4063 15.7378 24.7972 14.6796 23.7188C13.3206 22.6605 11.7937 20.346 11.9182 17.262C12.0172 14.8755 12.8916 13.0163 14.5153 11.7308C15.4513 10.992 16.7909 10.5938 17.5747 10.5938ZM18.3179 14.9317H18.2939C15.7934 14.9317 14.5258 15.9532 14.5258 17.967C14.5258 20.4157 16.5967 22.512 18.2939 22.512H18.3179C20.0114 22.512 22.0814 20.4157 22.0814 17.967C22.0814 15.9532 20.8177 14.9317 18.3179 14.9317ZM18.3161 16.2109C20.0366 16.2109 20.8039 16.7877 20.8039 18.0844C20.8039 19.7517 19.4119 21.2322 18.3161 21.2322H18.2951C17.1979 21.2322 15.8029 19.7517 15.8029 18.0844C15.8029 16.7877 16.5739 16.2109 18.2951 16.2109H18.3161ZM17.5747 11.5627C17.0414 11.5627 15.9284 11.853 15.1169 12.4935C13.9334 13.4288 13.2314 14.6858 12.9839 16.3148C13.8097 14.2755 15.7567 12.9495 18.2069 12.9495H18.4327C18.5804 12.9495 18.7251 12.9563 18.8676 12.9645C18.6883 12.7657 18.5302 12.5595 18.4117 12.348C18.0457 11.6858 17.8409 11.5627 17.5747 11.5627Z" fill="white"/>
</svg>
