<svg width="36" height="36" viewBox="0 0 36 36" fill="none" xmlns="http://www.w3.org/2000/svg">
<path fill-rule="evenodd" clip-rule="evenodd" d="M28.856 7.14401C27.13 5.52161 24.7739 4.60121 22.1738 4.25691C19.6907 3.92781 18 4.00881 18 4.00881C18 4.00881 16.309 3.92781 13.8258 4.25691C11.2258 4.60121 8.86979 5.52161 7.14429 7.14401C5.52149 8.86981 4.60119 11.2259 4.25669 13.8259C3.92759 16.3089 4.00889 17.9999 4.00889 17.9999C4.00889 17.9999 3.92759 19.6907 4.25669 22.1739C4.60119 24.7737 5.52149 27.13 7.14409 28.8558C8.86979 30.4784 11.2258 31.3986 13.8258 31.7433C16.309 32.0722 18 31.9912 18 31.9912C18 31.9912 19.6907 32.0722 22.1738 31.7433C24.7739 31.3986 27.13 30.4784 28.8556 28.8558C30.4786 27.13 31.3988 24.7737 31.7433 22.1739C32.0722 19.6907 31.9912 17.9999 31.9912 17.9999C31.9912 17.9999 32.0722 16.3089 31.7433 13.8259C31.3988 11.2259 30.4786 8.86981 28.856 7.14401Z" fill="#8C84F3"/>
<path d="M17.7459 12.8458C18.2064 12.4318 18.5829 12.6006 18.5829 13.2186V22.7811C18.5829 23.3998 18.2064 23.5678 17.7459 23.1546L14.3116 20.2566V20.2281C14.2389 20.2401 14.1654 20.2483 14.0897 20.2483H12.5191C11.7969 20.2483 11.2066 19.6573 11.2066 18.9358V17.0608C11.2066 16.3386 11.7969 15.7483 12.5191 15.7483H14.0897C14.1654 15.7483 14.2389 15.7566 14.3116 15.7686V15.7431L17.7459 12.8458ZM21.8091 13.1175C22.0206 12.8895 22.3769 12.8767 22.6041 13.0875C24.0163 14.3977 24.7934 16.1422 24.7934 18.0007C24.7934 19.8585 24.0156 21.603 22.6041 22.9125C22.4953 23.013 22.3588 23.0625 22.2216 23.0625C22.0709 23.0625 21.9201 23.0025 21.8091 22.8832C21.5976 22.6552 21.6119 22.299 21.8391 22.0875C23.0189 20.994 23.6684 19.542 23.6684 18.0007C23.6684 16.4587 23.0189 15.0075 21.8391 13.9125C21.6119 13.701 21.5976 13.3455 21.8091 13.1175ZM20.2109 15.2691C20.4247 15.0449 20.7802 15.0344 21.0067 15.2481C21.7807 15.9816 22.2074 16.9581 22.2082 17.9999C22.2082 19.0416 21.7807 20.0189 21.0067 20.7524C20.8972 20.8559 20.7584 20.9061 20.6197 20.9061C20.4704 20.9061 20.3219 20.8476 20.2109 20.7314C19.9972 20.5056 20.0077 20.1486 20.2334 19.9356C20.7809 19.4166 21.0832 18.7296 21.0832 17.9999C21.0824 17.2709 20.7809 16.5831 20.2334 16.0649C20.0077 15.8511 19.9972 15.4949 20.2109 15.2691Z" fill="white"/>
</svg>
