<svg width="36" height="36" viewBox="0 0 36 36" fill="none" xmlns="http://www.w3.org/2000/svg">
<path fill-rule="evenodd" clip-rule="evenodd" d="M28.856 7.14401C27.13 5.52161 24.7739 4.60121 22.1738 4.25691C19.6907 3.92781 18 4.00881 18 4.00881C18 4.00881 16.309 3.92781 13.8258 4.25691C11.2258 4.60121 8.86979 5.52161 7.14429 7.14401C5.52149 8.86981 4.60119 11.2259 4.25669 13.8259C3.92759 16.3089 4.00889 17.9999 4.00889 17.9999C4.00889 17.9999 3.92759 19.6907 4.25669 22.1739C4.60119 24.7737 5.52149 27.13 7.14409 28.8558C8.86979 30.4784 11.2258 31.3986 13.8258 31.7433C16.309 32.0722 18 31.9912 18 31.9912C18 31.9912 19.6907 32.0722 22.1738 31.7433C24.7739 31.3986 27.13 30.4784 28.8556 28.8558C30.4786 27.13 31.3988 24.7737 31.7433 22.1739C32.0722 19.6907 31.9912 17.9999 31.9912 17.9999C31.9912 17.9999 32.0722 16.3089 31.7433 13.8259C31.3988 11.2259 30.4786 8.86981 28.856 7.14401Z" fill="#FF8D93"/>
<path d="M18.7616 12.0863H18.1991C17.6824 12.0863 17.2616 12.5077 17.2616 13.0238V18.8662C16.7831 18.5055 16.1876 18.2887 15.5411 18.2887C13.9714 18.2887 12.6949 19.5503 12.6949 21.1012C12.6949 22.6515 13.9714 23.9137 15.5411 23.9137C17.0209 23.9137 18.2389 22.791 18.3731 21.363C18.3814 21.3247 18.3866 21.285 18.3866 21.2437V21.1012V13.2113H18.7616C21.0934 13.2113 22.1801 15.411 22.1801 16.8975V17.9228C22.1801 18.2332 22.4321 18.4853 22.7426 18.4853C23.0531 18.4853 23.3051 18.2332 23.3051 17.9228V16.8975C23.3051 14.9573 21.8614 12.0863 18.7616 12.0863Z" fill="white"/>
</svg>
