<svg width="36" height="36" viewBox="0 0 36 36" fill="none" xmlns="http://www.w3.org/2000/svg">
<path fill-rule="evenodd" clip-rule="evenodd" d="M28.856 7.14401C27.13 5.52161 24.7739 4.60121 22.1738 4.25691C19.6907 3.92781 18 4.00881 18 4.00881C18 4.00881 16.309 3.92781 13.8258 4.25691C11.2258 4.60121 8.86979 5.52161 7.14429 7.14401C5.52149 8.86981 4.60119 11.2259 4.25669 13.8259C3.92759 16.3089 4.00889 17.9999 4.00889 17.9999C4.00889 17.9999 3.92759 19.6907 4.25669 22.1739C4.60119 24.7737 5.52149 27.13 7.14409 28.8558C8.86979 30.4784 11.2258 31.3986 13.8258 31.7433C16.309 32.0722 18 31.9912 18 31.9912C18 31.9912 19.6907 32.0722 22.1738 31.7433C24.7739 31.3986 27.13 30.4784 28.8556 28.8558C30.4786 27.13 31.3988 24.7737 31.7433 22.1739C32.0722 19.6907 31.9912 17.9999 31.9912 17.9999C31.9912 17.9999 32.0722 16.3089 31.7433 13.8259C31.3988 11.2259 30.4786 8.86981 28.856 7.14401Z" fill="#C17ADF"/>
<path d="M15.1521 24.2813H21.3164C22.4196 24.2813 23.3181 23.3835 23.3181 22.2795V13.7205C23.3181 12.6165 22.4196 11.7188 21.3164 11.7188H15.1521C14.0481 11.7188 13.1504 12.6165 13.1504 13.7205V15.1395C13.1504 15.45 13.4024 15.702 13.7129 15.702C14.0234 15.702 14.2754 15.45 14.2754 15.1395V13.7205C14.2754 13.2367 14.6684 12.8438 15.1521 12.8438H21.3164C21.7994 12.8438 22.1931 13.2367 22.1931 13.7205V22.2795C22.1931 22.7633 21.7994 23.1563 21.3164 23.1563H15.1521C14.6684 23.1563 14.2754 22.7633 14.2754 22.2795V18.6795L14.8746 19.308C15.0899 19.5322 15.4454 19.5405 15.6704 19.3267C15.8946 19.1115 15.9029 18.756 15.6884 18.531L14.2394 17.013C14.0984 16.8652 13.9011 16.7805 13.6971 16.7805C13.4931 16.7805 13.2951 16.8652 13.1541 17.013L11.7051 18.531C11.4906 18.756 11.4989 19.1115 11.7231 19.3267C11.8326 19.4303 11.9721 19.482 12.1116 19.482C12.2601 19.482 12.4079 19.4235 12.5189 19.308L13.1504 18.6458V22.2795C13.1504 23.3835 14.0481 24.2813 15.1521 24.2813Z" fill="white"/>
</svg>
