<svg width="36" height="36" viewBox="0 0 36 36" fill="none" xmlns="http://www.w3.org/2000/svg">
<path fill-rule="evenodd" clip-rule="evenodd" d="M28.856 7.14401C27.13 5.52161 24.7739 4.60121 22.1738 4.25691C19.6907 3.92781 18 4.00881 18 4.00881C18 4.00881 16.309 3.92781 13.8258 4.25691C11.2258 4.60121 8.86979 5.52161 7.14429 7.14401C5.52149 8.86981 4.60119 11.2259 4.25669 13.8259C3.92759 16.3089 4.00889 17.9999 4.00889 17.9999C4.00889 17.9999 3.92759 19.6907 4.25669 22.1739C4.60119 24.7737 5.52149 27.13 7.14409 28.8558C8.86979 30.4784 11.2258 31.3986 13.8258 31.7433C16.309 32.0722 18 31.9912 18 31.9912C18 31.9912 19.6907 32.0722 22.1738 31.7433C24.7739 31.3986 27.13 30.4784 28.8556 28.8558C30.4786 27.13 31.3988 24.7737 31.7433 22.1739C32.0722 19.6907 31.9912 17.9999 31.9912 17.9999C31.9912 17.9999 32.0722 16.3089 31.7433 13.8259C31.3988 11.2259 30.4786 8.86981 28.856 7.14401Z" fill="#2EAA9B"/>
<path d="M21.4365 11.7188C22.4895 11.7188 23.3438 12.5332 23.3438 13.5382V22.461C23.3438 23.466 22.4895 24.2813 21.4365 24.2813H14.5627C13.5098 24.2813 12.6562 23.466 12.6562 22.461V13.5382C12.6562 12.5332 13.5098 11.7188 14.5627 11.7188H21.4365ZM18 13.9672C16.9522 13.9672 16.1003 14.835 16.1003 15.9015V16.743H16.0163C15.5002 16.743 15.0788 17.1652 15.0788 17.6805V20.2507C15.0788 20.766 15.5002 21.1882 16.0163 21.1882H19.983C20.499 21.1882 20.9205 20.766 20.9205 20.2507V17.6805C20.9205 17.1652 20.499 16.743 19.983 16.743H19.899V15.9015C19.899 14.835 19.047 13.9672 18 13.9672ZM17.9999 14.9051C18.5301 14.9051 18.9613 15.352 18.9613 15.9018V16.7433H17.0382V15.9018C17.0382 15.352 17.4696 14.9051 17.9999 14.9051Z" fill="white"/>
</svg>
