<svg width="36" height="36" viewBox="0 0 36 36" fill="none" xmlns="http://www.w3.org/2000/svg">
<path fill-rule="evenodd" clip-rule="evenodd" d="M28.856 7.14401C27.13 5.52161 24.7739 4.60121 22.1738 4.25691C19.6907 3.92781 18 4.00881 18 4.00881C18 4.00881 16.309 3.92781 13.8258 4.25691C11.2258 4.60121 8.86981 5.52161 7.14431 7.14401C5.52151 8.86981 4.60121 11.2259 4.25671 13.8259C3.92761 16.3089 4.00891 17.9999 4.00891 17.9999C4.00891 17.9999 3.92761 19.6907 4.25671 22.1739C4.60121 24.7737 5.52151 27.13 7.14411 28.8558C8.86981 30.4784 11.2258 31.3986 13.8258 31.7433C16.309 32.0722 18 31.9912 18 31.9912C18 31.9912 19.6907 32.0722 22.1738 31.7433C24.7739 31.3986 27.13 30.4784 28.8556 28.8558C30.4786 27.13 31.3988 24.7737 31.7433 22.1739C32.0722 19.6907 31.9912 17.9999 31.9912 17.9999C31.9912 17.9999 32.0722 16.3089 31.7433 13.8259C31.3988 11.2259 30.4786 8.86981 28.856 7.14401Z" fill="#69A9F1"/>
<path d="M19.9386 21.1851L18.3369 21.5934C18.2852 21.6068 18.2327 21.6126 18.1811 21.6126C17.9002 21.6126 17.6444 21.4234 17.5719 21.1392C17.4861 20.8026 17.6894 20.4593 18.0261 20.3734L19.6278 19.9659C19.9644 19.8792 20.3069 20.0843 20.3927 20.4201C20.4786 20.7568 20.2752 21.0993 19.9386 21.1851ZM13.8561 23.7009C13.0286 23.3684 12.3794 22.7334 12.0294 21.9134C11.6786 21.0934 11.6686 20.1859 12.0011 19.3584C12.2019 18.8576 12.5252 18.4334 12.9219 18.0901C12.6119 20.6784 13.7036 22.7959 15.9894 23.8167C15.2919 24.0117 14.5486 23.9784 13.8561 23.7009ZM24.4002 15.3751C23.8403 13.6742 22.6661 12.3892 21.0928 11.7576C19.4769 11.1084 17.8861 11.2059 16.4894 12.0376C15.2336 12.7859 14.2086 14.0801 13.5261 15.7801C13.4461 15.9784 13.3769 16.1751 13.3119 16.3709C13.3061 16.3734 13.2994 16.3717 13.2936 16.3743C12.1644 16.8568 11.2902 17.7501 10.8336 18.8892C10.3761 20.0293 10.3894 21.2784 10.8719 22.4076C11.3544 23.5368 12.2477 24.4109 13.3869 24.8676C13.9411 25.0909 14.5186 25.2017 15.0953 25.2017C15.9211 25.2017 16.7461 24.9743 17.4986 24.5226C17.5252 24.5042 17.6319 24.4268 17.7603 24.2967C17.9328 24.3126 18.1044 24.3209 18.2761 24.3209C20.9161 24.3209 23.3336 22.4276 24.2703 20.0934C24.8569 18.6318 24.9044 16.9118 24.4002 15.3751Z" fill="white"/>
</svg>
