<svg width="36" height="36" viewBox="0 0 36 36" fill="none" xmlns="http://www.w3.org/2000/svg">
<path fill-rule="evenodd" clip-rule="evenodd" d="M28.856 7.14401C27.13 5.52161 24.7739 4.60121 22.1738 4.25691C19.6907 3.92781 18 4.00881 18 4.00881C18 4.00881 16.309 3.92781 13.8258 4.25691C11.2258 4.60121 8.86981 5.52161 7.14431 7.14401C5.52151 8.86981 4.60121 11.2259 4.25671 13.8259C3.92761 16.3089 4.00891 17.9999 4.00891 17.9999C4.00891 17.9999 3.92761 19.6907 4.25671 22.1739C4.60121 24.7737 5.52151 27.13 7.14411 28.8558C8.86981 30.4784 11.2258 31.3986 13.8258 31.7433C16.309 32.0722 18 31.9912 18 31.9912C18 31.9912 19.6907 32.0722 22.1738 31.7433C24.7739 31.3986 27.13 30.4784 28.8556 28.8558C30.4786 27.13 31.3988 24.7737 31.7433 22.1739C32.0722 19.6907 31.9912 17.9999 31.9912 17.9999C31.9912 17.9999 32.0722 16.3089 31.7433 13.8259C31.3988 11.2259 30.4786 8.86981 28.856 7.14401Z" fill="#7882FF"/>
<path d="M20.4302 18.5833H18.5829V20.4306C18.5829 20.7533 18.3224 21.0139 17.9996 21.0139C17.6776 21.0139 17.4163 20.7533 17.4163 20.4306V18.5833H15.5691C15.2471 18.5833 14.9857 18.3228 14.9857 18C14.9857 17.678 15.2471 17.4167 15.5691 17.4167H17.4163V15.5694C17.4163 15.2474 17.6776 14.9861 17.9996 14.9861C18.3224 14.9861 18.5829 15.2474 18.5829 15.5694V17.4167H20.4302C20.7529 17.4167 21.0135 17.678 21.0135 18C21.0135 18.3228 20.7529 18.5833 20.4302 18.5833ZM23.0435 17.8491C23.0326 17.6858 23.1477 17.4291 23.2994 17.279L24.3704 16.2228C24.5228 16.0727 24.5602 15.7981 24.4536 15.613L23.2862 13.583C23.1796 13.3971 22.9237 13.2929 22.7176 13.3497L21.2725 13.7526C21.0672 13.8093 20.7856 13.7844 20.6472 13.695C20.5095 13.6063 20.0802 13.2369 20.0273 13.03L19.6516 11.5709C19.5987 11.364 19.3794 11.1944 19.1663 11.1944H16.8329C16.6198 11.1944 16.4005 11.364 16.3476 11.5709L15.9727 13.03C15.9191 13.2369 15.7565 13.4694 15.6103 13.5457C15.4641 13.6227 14.9328 13.8093 14.7267 13.7526L13.2824 13.3497C13.0763 13.2929 12.8204 13.3971 12.7138 13.583L11.5464 15.613C11.4398 15.7981 11.4772 16.0727 11.6296 16.2228L12.6998 17.2782C12.8523 17.4283 12.9674 17.685 12.9565 17.8491V18V18.1509C12.9674 18.315 12.8523 18.5717 12.6998 18.7218L11.6296 19.778C11.4772 19.9281 11.4398 20.2027 11.5464 20.3886L12.7138 22.4186C12.8204 22.6037 13.0763 22.7087 13.2824 22.6503L14.7267 22.2482C14.9328 22.1907 15.2144 22.2163 15.3521 22.305C15.4905 22.3937 15.9191 22.7631 15.9727 22.97L16.3476 24.4291C16.4013 24.636 16.6198 24.8056 16.8337 24.8056H19.1663C19.3794 24.8056 19.5987 24.636 19.6516 24.4291L20.0273 22.97C20.0802 22.7631 20.2435 22.5313 20.3897 22.4551C20.5352 22.3781 21.0672 22.1907 21.2725 22.2482L22.7176 22.6503C22.9237 22.7087 23.1796 22.6037 23.2862 22.4186L24.4536 20.3886C24.5602 20.2027 24.5228 19.9281 24.3704 19.778L23.2994 18.7218C23.1477 18.5717 23.0326 18.315 23.0435 18.1509V18V17.8491Z" fill="white"/>
</svg>
