<svg width="36" height="36" viewBox="0 0 36 36" fill="none" xmlns="http://www.w3.org/2000/svg">
<path fill-rule="evenodd" clip-rule="evenodd" d="M28.856 7.14401C27.13 5.52161 24.7739 4.60121 22.1738 4.25691C19.6907 3.92781 18 4.00881 18 4.00881C18 4.00881 16.309 3.92781 13.8258 4.25691C11.2258 4.60121 8.86979 5.52161 7.14429 7.14401C5.52149 8.86981 4.60119 11.2259 4.25669 13.8259C3.92759 16.3089 4.00889 17.9999 4.00889 17.9999C4.00889 17.9999 3.92759 19.6907 4.25669 22.1739C4.60119 24.7737 5.52149 27.13 7.14409 28.8558C8.86979 30.4784 11.2258 31.3986 13.8258 31.7433C16.309 32.0722 18 31.9912 18 31.9912C18 31.9912 19.6907 32.0722 22.1738 31.7433C24.7739 31.3986 27.13 30.4784 28.8556 28.8558C30.4786 27.13 31.3988 24.7737 31.7433 22.1739C32.0722 19.6907 31.9912 17.9999 31.9912 17.9999C31.9912 17.9999 32.0722 16.3089 31.7433 13.8259C31.3988 11.2259 30.4786 8.86981 28.856 7.14401Z" fill="#32965A"/>
<path d="M23.1919 15.0762C23.6741 15.0762 24.0649 15.4685 24.0649 15.953C24.0649 16.4382 23.6741 16.8305 23.1919 16.8305L20.1604 17.054C20.0764 17.06 20.0036 17.1192 19.9834 17.201C19.8694 17.6442 19.8116 17.9382 19.8124 18.3972C19.8124 18.5907 19.8386 18.7842 19.8896 18.971L21.3529 24.137C21.4781 24.605 21.2014 25.0857 20.7364 25.2125C20.2699 25.3377 19.7914 25.0602 19.6669 24.5922L18.0491 20.5167H17.7641L16.1464 24.5922C16.0219 25.0602 15.5434 25.3377 15.0769 25.2125C14.6119 25.0857 14.3351 24.605 14.4596 24.137L15.9236 18.971C15.9746 18.7842 16.0009 18.5907 16.0009 18.3972C16.0009 17.9382 15.9439 17.6442 15.8306 17.201C15.8089 17.1192 15.7369 17.06 15.6521 17.054L12.8081 16.8305C12.3266 16.8305 11.9351 16.4382 11.9351 15.953C11.9351 15.4685 12.3266 15.0762 12.8081 15.0762H23.1919ZM17.9067 10.7575C18.7347 10.7575 19.4067 11.4295 19.4067 12.2575C19.4067 13.0855 18.7347 13.7575 17.9067 13.7575C17.0787 13.7575 16.4067 13.0855 16.4067 12.2575C16.4067 11.4295 17.0787 10.7575 17.9067 10.7575Z" fill="white"/>
</svg>
