<svg width="36" height="36" viewBox="0 0 36 36" fill="none" xmlns="http://www.w3.org/2000/svg">
<path fill-rule="evenodd" clip-rule="evenodd" d="M28.856 7.14401C27.13 5.52161 24.7739 4.60121 22.1738 4.25691C19.6907 3.92781 18 4.00881 18 4.00881C18 4.00881 16.309 3.92781 13.8258 4.25691C11.2258 4.60121 8.86979 5.52161 7.14429 7.14401C5.52149 8.86981 4.60119 11.2259 4.25669 13.8259C3.92759 16.3089 4.00889 17.9999 4.00889 17.9999C4.00889 17.9999 3.92759 19.6907 4.25669 22.1739C4.60119 24.7737 5.52149 27.13 7.14409 28.8558C8.86979 30.4784 11.2258 31.3986 13.8258 31.7433C16.309 32.0722 18 31.9912 18 31.9912C18 31.9912 19.6907 32.0722 22.1738 31.7433C24.7739 31.3986 27.13 30.4784 28.8556 28.8558C30.4786 27.13 31.3988 24.7737 31.7433 22.1739C32.0722 19.6907 31.9912 17.9999 31.9912 17.9999C31.9912 17.9999 32.0722 16.3089 31.7433 13.8259C31.3988 11.2259 30.4786 8.86981 28.856 7.14401Z" fill="#F2A1A1"/>
<path d="M21.5375 19.9312C20.852 21.1815 19.523 22.0313 17.9997 22.0313C16.4765 22.0313 15.1482 21.1815 14.4627 19.9312C14.1477 19.3575 13.9685 18.699 13.9685 18C13.9685 17.3003 14.1477 16.6418 14.4627 16.0688C15.1482 14.8185 16.4765 13.9688 17.9997 13.9688C19.523 13.9688 20.852 14.8185 21.5375 16.0688C21.8525 16.6418 22.031 17.3003 22.031 18C22.031 18.699 21.8525 19.3575 21.5375 19.9312ZM21.9747 14.397C21.821 14.2275 21.7347 14.0063 21.7347 13.7768V12.4485C21.7347 11.6318 21.0717 10.9688 20.2542 10.9688H15.746C14.9285 10.9688 14.2662 11.6318 14.2662 12.4485V13.7768C14.2662 14.0063 14.1792 14.2275 14.0255 14.397C13.1615 15.3495 12.6342 16.6125 12.6342 18C12.6342 19.3867 13.1615 20.6505 14.0255 21.603C14.1792 21.7733 14.2662 21.9937 14.2662 22.2233V23.5508C14.2662 24.3682 14.9285 25.0313 15.746 25.0313H20.2542C21.0717 25.0313 21.7347 24.3682 21.7347 23.5508V22.2233C21.7347 21.9937 21.821 21.7733 21.9747 21.603C22.8387 20.6505 23.366 19.3867 23.366 18C23.366 16.6125 22.8387 15.3495 21.9747 14.397Z" fill="white"/>
</svg>
