<svg width="24" height="24" viewBox="0 0 24 24" fill="none" xmlns="http://www.w3.org/2000/svg">
<path d="M4.43018 17.3433L8.26368 13.7282C8.72428 13.2973 9.43458 13.2751 9.92178 13.6585L10.0226 13.7469L11.56 15.252L13.0724 13.8051C13.3445 13.5447 13.7616 13.5296 14.0503 13.7539L14.1328 13.8283C14.3932 14.1004 14.4083 14.5175 14.184 14.8062L14.1096 14.8888L12.4325 16.4937C11.9739 16.9292 11.2602 16.955 10.7731 16.5705L10.6724 16.4819L9.12998 14.972L4.93098 18.9328C5.21808 19.2263 5.60658 19.4203 6.03738 19.4557L6.18018 19.4615H17.1802C18.0929 19.4615 18.8508 18.7492 18.9244 17.8543L18.9302 17.7115V12.7935C18.9302 12.3793 19.266 12.0435 19.6802 12.0435C20.0599 12.0435 20.3737 12.3257 20.4234 12.6917L20.4302 12.7935V17.7115C20.4302 19.439 19.0684 20.8604 17.3641 20.9563L17.1802 20.9615H6.18018C4.45268 20.9615 3.03128 19.5997 2.93538 17.8954L2.93018 17.7115V6.71152C2.93018 4.98402 4.29198 3.56262 5.99628 3.46672L6.18018 3.46152H11.3912C11.8054 3.46152 12.1412 3.79732 12.1412 4.21152C12.1412 4.59122 11.859 4.90502 11.493 4.95472L11.3912 4.96152H6.18018C5.26748 4.96152 4.50958 5.67382 4.43598 6.56872L4.43018 6.71152V17.3433ZM17.3451 3.17242C18.0791 2.43672 19.2689 2.43672 20.0021 3.17162L21.1999 4.36842C21.932 5.10212 21.932 6.29012 21.1993 7.02442L17.1903 11.0334C16.9573 11.2665 16.6945 11.4599 16.4084 11.6029L16.3586 11.6325L16.3395 11.6415L16.241 11.6671L13.189 12.2874C12.511 12.4238 11.9478 11.8623 12.0806 11.1809L12.5279 8.96812L12.7209 8.05592L12.7321 8.02372L12.8843 7.74982C13.009 7.54692 13.1599 7.35762 13.3331 7.18332L17.3451 3.17242ZM14.1293 8.63412L13.716 10.651L15.7475 10.24C15.759 10.2398 15.767 10.2411 15.7603 10.2475L15.873 10.1832C15.962 10.1249 16.0481 10.0544 16.1297 9.97282L20.1381 5.96442C20.286 5.81612 20.286 5.57612 20.1389 5.42872L18.9411 4.23182C18.7931 4.08352 18.5549 4.08352 18.4063 4.23252L14.3953 8.24252C14.2737 8.36482 14.1763 8.49682 14.1114 8.62522L14.123 8.60502C14.127 8.60152 14.1291 8.60282 14.1301 8.60642L14.1293 8.63412ZM8.72178 7.11582C10.101 7.11582 11.2218 8.23662 11.2218 9.61582C11.2218 10.995 10.101 12.1158 8.72178 12.1158C7.34258 12.1158 6.22178 10.995 6.22178 9.61582C6.22178 8.23662 7.34258 7.11582 8.72178 7.11582ZM8.72178 8.61582C8.17098 8.61582 7.72178 9.06502 7.72178 9.61582C7.72178 10.1666 8.17098 10.6158 8.72178 10.6158C9.27258 10.6158 9.72178 10.1666 9.72178 9.61582C9.72178 9.06502 9.27258 8.61582 8.72178 8.61582Z" fill="black"/>
</svg>
