<svg width="24" height="24" viewBox="0 0 24 24" fill="none" xmlns="http://www.w3.org/2000/svg">
<path fill-rule="evenodd" clip-rule="evenodd" d="M19.6249 13.6593V18.7482C19.6249 19.5732 18.9499 20.2482 18.1249 20.2482H14.5819L15.0469 18.8542L16.1679 18.3172C16.2779 18.2642 16.2779 18.1092 16.1679 18.0572L15.0469 17.5193L14.5129 15.9152C14.4689 15.7843 14.2819 15.7843 14.2379 15.9152L13.7039 17.5193L12.5819 18.0572C12.4729 18.1092 12.4729 18.2642 12.5819 18.3172L13.7039 18.8552L14.1679 20.2482H5.87491C5.04991 20.2482 4.37491 19.5732 4.37491 18.7482L5.12491 13.6593H19.6249ZM9.50491 14.2382C9.46991 14.1322 9.31991 14.1322 9.28391 14.2382L8.85391 15.5313L7.94791 15.9663C7.86091 16.0082 7.86091 16.1332 7.94791 16.1752L8.85391 16.6092L9.28391 17.9032C9.31991 18.0093 9.46991 18.0093 9.50491 17.9032L9.93691 16.6092L10.8409 16.1752C10.9289 16.1332 10.9289 16.0082 10.8409 15.9663L9.93691 15.5323L9.50491 14.2382ZM12.5431 3.75171C13.3681 3.75171 14.0431 4.42681 14.0431 5.25171V8.31971H17.1251C18.5001 8.31971 19.6251 9.44471 19.6251 10.8197V12.1587H5.12511V10.8197C5.12511 9.44471 6.25011 8.31971 7.62511 8.31971H10.7071V5.25171C10.7071 4.42681 11.3821 3.75171 12.2071 3.75171H12.5431Z" fill="black"/>
</svg>
