<svg width="24" height="24" viewBox="0 0 24 24" fill="none" xmlns="http://www.w3.org/2000/svg">
<path fill-rule="evenodd" clip-rule="evenodd" d="M15.4508 11.4021V14.3921C14.7338 14.6491 14.2219 15.3321 14.2219 16.1371C14.2219 17.1611 15.0519 17.9921 16.0758 17.9921C16.8808 17.9921 17.5629 17.4781 17.8199 16.7621H20.8099C20.5039 19.1051 18.5039 20.9161 16.0758 20.9161C13.4359 20.9161 11.2969 18.7761 11.2969 16.1371C11.2969 13.7091 13.1068 11.7091 15.4508 11.4021ZM10.6441 12.9915C10.1061 13.9165 9.7962 14.9905 9.7962 16.1365C9.7962 17.4075 10.1762 18.5905 10.8292 19.5805H4.6901C3.8651 19.5805 3.1902 18.9055 3.1902 18.0805L3.9402 12.9915H10.6441ZM16.7008 11.4021C18.8398 11.6831 20.5299 13.3731 20.8099 15.5121H17.8199C17.6339 14.9911 17.2218 14.5791 16.7008 14.3921V11.4021ZM11.3579 3.08392C12.1828 3.08392 12.8579 3.75792 12.8579 4.58392V7.65192H15.9398C17.3148 7.65192 18.4398 8.77692 18.4398 10.1519V10.3209C17.7099 10.0229 16.9118 9.85692 16.0758 9.85692C14.4529 9.85692 12.9719 10.4769 11.8548 11.4909H3.9399V10.1519C3.9399 8.77692 5.0648 7.65192 6.4398 7.65192H9.5218V4.58392C9.5218 3.75792 10.1968 3.08392 11.0218 3.08392H11.3579Z" fill="black"/>
</svg>
