<svg width="24" height="24" viewBox="0 0 24 24" fill="none" xmlns="http://www.w3.org/2000/svg">
<path d="M5.85351 12.4352H18.8535M5.16091 18.048L5.71091 14.754C5.80191 14.209 5.84791 13.658 5.84691 13.106V11.44C5.84691 10.336 6.74191 9.44002 7.84691 9.44002H10.8479V5.71002C10.8479 4.88102 11.5199 4.21002 12.3479 4.21002H12.3899C13.2189 4.21002 13.8899 4.88102 13.8899 5.71002V9.44002H16.8469C17.9509 9.44002 18.8469 10.335 18.8469 11.44V18.295C18.8479 19.123 18.1759 19.795 17.3469 19.795H6.63991C5.71291 19.795 5.00791 18.962 5.16091 18.048Z" stroke="black" stroke-width="1.5" stroke-linecap="round" stroke-linejoin="round"/>
<path d="M14.3601 14.0367C14.4061 13.9027 14.5951 13.9027 14.6391 14.0367L15.1841 15.6697L16.3251 16.2177C16.4361 16.2707 16.4361 16.4287 16.3251 16.4807L15.1841 17.0287L14.6391 18.6617C14.5951 18.7957 14.4061 18.7957 14.3601 18.6617L13.8171 17.0287L12.6741 16.4807C12.5641 16.4287 12.5641 16.2707 12.6741 16.2177L13.8171 15.6687L14.3601 14.0367ZM9.3873 13.486C9.4233 13.38 9.5733 13.38 9.6083 13.486L10.0403 14.78L10.9443 15.214C11.0323 15.256 11.0323 15.381 10.9443 15.423L10.0403 15.857L9.6083 17.151C9.5733 17.257 9.4233 17.257 9.3873 17.151L8.9573 15.857L8.0513 15.423C7.9643 15.381 7.9643 15.256 8.0513 15.214L8.9573 14.779L9.3873 13.486Z" fill="black"/>
</svg>
