<svg width="24" height="24" viewBox="0 0 24 24" fill="none" xmlns="http://www.w3.org/2000/svg">
<path d="M13.9897 19.795H6.6407C5.7137 19.795 5.0087 18.962 5.1607 18.048L5.7107 14.754C5.8017 14.21 5.8477 13.658 5.8477 13.106V11.441C5.8467 10.336 6.7427 9.44002 7.8477 9.44002H10.8487V5.71002C10.8487 4.88202 11.5197 4.21002 12.3487 4.21002H12.3907C13.2187 4.21002 13.8907 4.88202 13.8907 5.71002V9.44002H16.8427C17.9397 9.44002 18.8317 10.324 18.8417 11.421L18.8477 11.982M5.8538 12.4356H15.3288M17.6564 12.2906V14.5556M19.6773 16.649H21.9423M22.4689 16.649C22.4689 19.307 20.3139 21.461 17.6569 21.461C14.9989 21.461 12.8439 19.307 12.8439 16.649C12.8439 13.991 14.9989 11.837 17.6569 11.837C20.3139 11.837 22.4689 13.991 22.4689 16.649ZM17.6564 18.4888C16.6414 18.4888 15.8164 17.6638 15.8164 16.6488C15.8164 15.6348 16.6414 14.8088 17.6564 14.8088C18.6714 14.8088 19.4964 15.6348 19.4964 16.6488C19.4964 17.6638 18.6714 18.4888 17.6564 18.4888Z" stroke="black" stroke-width="1.5" stroke-linecap="round" stroke-linejoin="round"/>
</svg>
