<svg width="24" height="24" viewBox="0 0 24 24" fill="none" xmlns="http://www.w3.org/2000/svg">
<path d="M13.06 11.9994L19.031 6.03042C19.324 5.73742 19.324 5.26342 19.031 4.97042C18.738 4.67742 18.262 4.67742 17.97 4.97042L11.999 10.9384L6.03 4.97042C5.737 4.67742 5.262 4.67742 4.969 4.97042C4.676 5.26342 4.676 5.73742 4.969 6.03042L10.939 11.9994L4.969 17.9704C4.676 18.2634 4.676 18.7374 4.969 19.0304C5.116 19.1774 5.307 19.2494 5.499 19.2494C5.692 19.2494 5.883 19.1774 6.03 19.0304L11.999 13.0614L17.97 19.0304C18.116 19.1774 18.308 19.2494 18.5 19.2494C18.692 19.2494 18.884 19.1774 19.031 19.0304C19.324 18.7374 19.324 18.2634 19.031 17.9704L13.06 11.9994Z" fill="black"/>
</svg>
