<svg width="24" height="24" viewBox="0 0 24 24" fill="none" xmlns="http://www.w3.org/2000/svg">
<path fill-rule="evenodd" clip-rule="evenodd" d="M16.364 7.60798L18.326 5.64598C16.706 4.02598 14.465 3.02698 11.999 3.02698V5.80798C13.7 5.80798 15.248 6.49198 16.364 7.60798Z" fill="black" fill-opacity="0.13"/>
<path fill-rule="evenodd" clip-rule="evenodd" d="M18.164 11.973H20.945C20.945 9.507 19.946 7.266 18.326 5.646L16.364 7.608C17.48 8.733 18.164 10.272 18.164 11.973Z" fill="black" fill-opacity="0.25"/>
<path fill-rule="evenodd" clip-rule="evenodd" d="M11.999 5.80798V3.02698C9.533 3.02698 7.292 4.03498 5.672 5.64598L7.634 7.60798C8.75 6.49198 10.298 5.80798 11.999 5.80798Z" fill="black"/>
<path fill-rule="evenodd" clip-rule="evenodd" d="M7.63399 7.608L5.67199 5.646C4.05199 7.266 3.05299 9.507 3.05299 11.973H5.83399C5.83399 10.272 6.51799 8.733 7.63399 7.608Z" fill="black" fill-opacity="0.875"/>
<path fill-rule="evenodd" clip-rule="evenodd" d="M11.999 18.138V20.919C14.465 20.919 16.697 19.911 18.326 18.3L16.364 16.338C15.248 17.454 13.7 18.138 11.999 18.138Z" fill="black" fill-opacity="0.5"/>
<path fill-rule="evenodd" clip-rule="evenodd" d="M18.164 11.973C18.164 13.674 17.471 15.222 16.355 16.338L18.317 18.3C19.937 16.68 20.936 14.448 20.936 11.973H18.164Z" fill="black" fill-opacity="0.38"/>
<path fill-rule="evenodd" clip-rule="evenodd" d="M7.634 16.338L5.672 18.3C7.292 19.92 9.524 20.919 11.999 20.919V18.138C10.298 18.138 8.75 17.454 7.634 16.338Z" fill="black" fill-opacity="0.63"/>
<path fill-rule="evenodd" clip-rule="evenodd" d="M5.83399 11.973H3.05299C3.05299 14.439 4.05199 16.68 5.67199 18.3L7.63399 16.338C6.51799 15.222 5.83399 13.674 5.83399 11.973Z" fill="black" fill-opacity="0.75"/>
</svg>
