<svg width="24" height="24" viewBox="0 0 24 24" fill="none" xmlns="http://www.w3.org/2000/svg">
<path d="M7.3149 7.31481C9.9012 4.72841 14.0986 4.72841 16.685 7.31471C19.2719 9.90131 19.2716 14.0983 16.685 16.6849C14.0982 19.2717 9.902 19.2717 7.3149 16.6849C4.7283 14.0984 4.7282 9.90141 7.3149 7.31481ZM15.8011 8.19871C14.7521 7.14971 13.3763 6.62511 12.0004 6.62501L12.0001 17.375C13.376 17.375 14.7518 16.8503 15.8011 15.801C17.8996 13.7025 17.8998 10.297 15.8011 8.19871Z" fill="black"/>
<path d="M17.9219 5.19417C18.1659 4.95007 18.5616 4.94997 18.8058 5.19407C19.0227 5.41097 19.0469 5.74777 18.8782 5.99137L18.8059 6.07797L18.4523 6.43157C18.2083 6.67567 17.8126 6.67567 17.5685 6.43167C17.3515 6.21467 17.3273 5.87797 17.496 5.63437L17.5684 5.54777L17.9219 5.19417Z" fill="black"/>
<path d="M5.4012 17.715C5.6453 17.4709 6.041 17.4709 6.2851 17.715C6.502 17.932 6.5261 18.2687 6.3574 18.5123L6.2851 18.5989L5.9315 18.9524C5.6875 19.1965 5.2917 19.1965 5.0476 18.9524C4.8307 18.7355 4.8066 18.3987 4.9753 18.1551L5.0476 18.0685L5.4012 17.715Z" fill="black"/>
<path d="M12.0001 2.375C12.3139 2.375 12.5737 2.6063 12.6183 2.9076L12.6251 3V3.5C12.6251 3.8452 12.3453 4.125 12.0001 4.125C11.6863 4.125 11.4265 3.8937 11.3819 3.5924L11.3751 3.5V3C11.3751 2.6548 11.6549 2.375 12.0001 2.375Z" fill="black"/>
<path d="M5.19409 5.19412C5.41109 4.97722 5.74779 4.95312 5.99139 5.12182L6.07799 5.19412L6.43149 5.54772C6.67559 5.79182 6.67559 6.18752 6.43149 6.43162C6.21459 6.64852 5.87779 6.67262 5.63419 6.50392L5.54759 6.43162L5.19409 6.07802C4.94999 5.83402 4.94999 5.43822 5.19409 5.19412Z" fill="black"/>
<path d="M17.7148 17.715C17.9318 17.498 18.2686 17.4739 18.5121 17.6427L18.5987 17.715L18.9522 18.0685C19.1963 18.3126 19.1963 18.7084 18.9522 18.9524C18.7353 19.1694 18.3985 19.1935 18.1549 19.0248L18.0684 18.9524L17.7148 18.5989C17.4707 18.3548 17.4707 17.9591 17.7148 17.715Z" fill="black"/>
<path d="M3.50009 11.375C3.84529 11.375 4.12509 11.6548 4.12509 12C4.12509 12.3138 3.89379 12.5736 3.59239 12.6182L3.50009 12.625H3.00009C2.65489 12.625 2.37509 12.3452 2.37509 12C2.37509 11.6862 2.60629 11.4264 2.90769 11.3818L3.00009 11.375H3.50009Z" fill="black"/>
<path d="M12.0001 19.875C12.3139 19.875 12.5737 20.1063 12.6183 20.4076L12.6251 20.5V21C12.6251 21.3452 12.3453 21.625 12.0001 21.625C11.6863 21.625 11.4265 21.3937 11.3819 21.0924L11.3751 21V20.5C11.3751 20.1548 11.6549 19.875 12.0001 19.875Z" fill="black"/>
<path d="M20.917 11.375C21.2622 11.375 21.542 11.6548 21.542 12C21.542 12.3138 21.3108 12.5736 21.0094 12.6182L20.917 12.625H20.417C20.0718 12.625 19.792 12.3452 19.792 12C19.792 11.6862 20.0233 11.4264 20.3247 11.3818L20.417 11.375H20.917Z" fill="black"/>
</svg>
