<svg width="24" height="24" viewBox="0 0 24 24" fill="none" xmlns="http://www.w3.org/2000/svg">
<path d="M10.4604 9.03617L4.7034 14.7932C4.6954 14.8012 4.6884 14.8092 4.6804 14.8172C4.5334 14.9832 4.4184 15.0982 4.3164 15.1992C3.8644 15.6532 3.6944 15.8642 2.9924 17.4802C2.8694 17.7632 2.9314 18.0932 3.1494 18.3112L3.6894 18.8512C3.9064 19.0692 4.2374 19.1302 4.5204 19.0082C6.1354 18.3062 6.3474 18.1362 6.8004 17.6832C6.9024 17.5822 7.0174 17.4672 7.1834 17.3192C7.1914 17.3122 7.1994 17.3052 7.2074 17.2972L12.9634 11.5402M8.9677 7.76518L14.2317 13.0362M13.3642 11.9996C13.3642 11.9996 13.3062 10.2556 14.9992 9.58957C14.9992 9.58957 16.9312 9.22957 18.0762 8.14157C18.1052 8.11257 18.1342 8.08457 18.1622 8.05657C19.2552 6.91857 19.4752 5.16558 18.1862 3.87558L18.1242 3.81358C16.8342 2.52458 15.0812 2.74458 13.9442 3.83758C13.9152 3.86558 13.8872 3.89558 13.8582 3.92458C12.7712 5.06858 12.4102 7.00058 12.4102 7.00058C11.7442 8.69358 10.0012 8.63657 10.0012 8.63657" stroke="black" stroke-width="1.65" stroke-linecap="round" stroke-linejoin="round"/>
</svg>
