<svg width="24" height="24" viewBox="0 0 24 24" fill="none" xmlns="http://www.w3.org/2000/svg">
<path d="M6.80371 13.3832C6.33471 14.1421 6.06571 15.0071 6.06571 15.9162V17.8032C6.06571 18.0982 6.12171 18.3782 6.22171 18.6381C6.21871 18.6391 6.21571 18.6391 6.21271 18.6391H4.32471C3.93571 18.6391 3.61871 18.3222 3.61871 17.9332V16.3881C3.61871 14.9061 5.01971 13.5281 6.80371 13.3832ZM17.1953 13.3832C18.9803 13.5281 20.3813 14.9061 20.3813 16.3881V17.9332C20.3813 18.3222 20.0643 18.6391 19.6743 18.6391L17.7818 18.639C17.8773 18.3782 17.9343 18.0982 17.9343 17.8032V15.9162C17.9343 15.0071 17.6653 14.1421 17.1953 13.3832ZM12 12.0842C14.449 12.0842 16.435 13.9292 16.435 15.9163V17.8032C16.435 18.2653 16.061 18.6392 15.599 18.6392H8.40101C7.93901 18.6392 7.56501 18.2653 7.56501 17.8032V15.9163C7.56501 13.9292 9.55101 12.0842 12 12.0842ZM6.92141 8.66098C7.89641 8.66098 8.68841 9.45208 8.68841 10.4281C8.68841 11.4051 7.89641 12.1961 6.92141 12.1961C5.94541 12.1961 5.15441 11.4051 5.15441 10.4281C5.15441 9.45208 5.94541 8.66098 6.92141 8.66098ZM17.0777 8.66098C18.0537 8.66098 18.8457 9.45208 18.8457 10.4281C18.8457 11.4051 18.0537 12.1961 17.0777 12.1961C16.1027 12.1961 15.3117 11.4051 15.3117 10.4281C15.3117 9.45208 16.1027 8.66098 17.0777 8.66098ZM11.999 5.36078C13.472 5.36078 14.665 6.55278 14.665 8.02578C14.665 9.49768 13.472 10.6908 11.999 10.6908C10.528 10.6908 9.33501 9.49768 9.33501 8.02578C9.33501 6.55278 10.528 5.36078 11.999 5.36078Z" fill="black"/>
</svg>
