<svg width="24" height="24" viewBox="0 0 24 24" fill="none" xmlns="http://www.w3.org/2000/svg">
<path d="M13.4678 14.1461C13.3268 14.286 12.7908 14.691 12.5928 14.731L8.81679 15.472C8.61779 15.5111 8.48679 15.38 8.52579 15.1811L9.26679 11.4071C9.30579 11.208 9.71179 10.6721 9.85179 10.5321" stroke="black" stroke-width="1.5" stroke-linecap="round" stroke-linejoin="round"/>
<path fill-rule="evenodd" clip-rule="evenodd" d="M13.748 13.8693C13.456 14.1613 12.979 14.1613 12.687 13.8693L10.131 11.3123C9.83899 11.0203 9.83899 10.5433 10.131 10.2513L16.205 4.17819C16.775 3.60719 17.701 3.60719 18.271 4.17819L19.822 5.72829C20.393 6.29929 20.393 7.22419 19.822 7.79519L13.748 13.8693Z" stroke="black" stroke-width="1.5" stroke-linecap="round" stroke-linejoin="round"/>
<path d="M19.75 12.25V17.75C19.75 19.125 18.625 20.25 17.25 20.25H6.25C4.875 20.25 3.75 19.125 3.75 17.75V6.75012C3.75 5.37512 4.875 4.25012 6.25 4.25012H11.75" stroke="black" stroke-width="1.5" stroke-linecap="round" stroke-linejoin="round"/>
</svg>
