<svg width="24" height="24" viewBox="0 0 24 24" fill="none" xmlns="http://www.w3.org/2000/svg">
<path fill-rule="evenodd" clip-rule="evenodd" d="M8.71976 12.8223L10.6788 14.7813L15.9928 9.46631L14.0338 7.50631L8.71976 12.8223ZM7.97176 14.1953L7.65176 15.8443L9.29776 15.5223L7.97176 14.1953ZM6.94876 17.4923C6.69776 17.4923 6.45676 17.3973 6.28076 17.2223C6.05776 17.0013 5.96276 16.6763 6.02576 16.3513L6.64476 13.1993C6.73676 12.7263 7.33076 12.0903 7.33676 12.0843C7.35376 12.0673 7.36976 12.0513 7.38776 12.0373C7.40776 12.0123 7.42976 11.9903 7.45176 11.9683L12.9748 6.44631C13.5608 5.86231 14.5108 5.86231 15.0948 6.44631L17.0538 8.40531C17.3368 8.68731 17.4938 9.06431 17.4938 9.46631C17.4938 9.86731 17.3368 10.2443 17.0528 10.5273L11.5328 16.0493C11.5078 16.0733 11.4828 16.0963 11.4568 16.1183C11.4448 16.1333 11.4308 16.1473 11.4168 16.1613C11.4108 16.1673 10.7748 16.7603 10.3048 16.8533L7.14876 17.4723C7.08176 17.4853 7.01476 17.4923 6.94876 17.4923ZM6.24976 4.50031C5.28476 4.50031 4.49976 5.28531 4.49976 6.25031V17.2503C4.49976 18.2153 5.28476 19.0003 6.24976 19.0003H17.2498C18.2148 19.0003 18.9998 18.2153 18.9998 17.2503V6.25031C18.9998 5.28531 18.2148 4.50031 17.2498 4.50031H6.24976ZM17.2498 20.5003H6.24976C4.45776 20.5003 2.99976 19.0423 2.99976 17.2503V6.25031C2.99976 4.45831 4.45776 3.00031 6.24976 3.00031H17.2498C19.0418 3.00031 20.4998 4.45831 20.4998 6.25031V17.2503C20.4998 19.0423 19.0418 20.5003 17.2498 20.5003Z" fill="black"/>
</svg>
