<svg width="24" height="24" viewBox="0 0 24 24" fill="none" xmlns="http://www.w3.org/2000/svg">
<path fill-rule="evenodd" clip-rule="evenodd" d="M7.40198 9.50031C7.81598 9.50031 8.15198 9.83631 8.15198 10.2503C8.15198 10.6643 7.81598 11.0003 7.40198 11.0003C6.98798 11.0003 6.65198 10.6643 6.65198 10.2503C6.65198 9.83631 6.98798 9.50031 7.40198 9.50031ZM7.40198 6.50031C7.81598 6.50031 8.15198 6.83631 8.15198 7.25031C8.15198 7.66431 7.81598 8.00031 7.40198 8.00031C6.98798 8.00031 6.65198 7.66431 6.65198 7.25031C6.65198 6.83631 6.98798 6.50031 7.40198 6.50031ZM6.65198 13.4893C6.65198 13.0753 6.98798 12.7393 7.40198 12.7393C7.81598 12.7393 8.15198 13.0753 8.15198 13.4893V15.1633C8.15198 15.5773 7.81598 15.9133 7.40198 15.9133C6.98798 15.9133 6.65198 15.5773 6.65198 15.1633V13.4893Z" fill="black"/>
<path d="M3.59998 7.50031V17.2503C3.59998 18.6253 4.72498 19.7503 6.09998 19.7503H18.6C19.975 19.7503 21.1 18.6253 21.1 17.2503V9.91031C21.1 8.53531 19.975 7.41031 18.6 7.41031H13.402C13.043 7.41031 12.923 7.34331 12.678 7.07831L10.954 5.48031C10.709 5.21631 10.214 5.00031 9.85398 5.00031H6.09998C4.72498 5.00031 3.59998 6.12531 3.59998 7.50031Z" stroke="black" stroke-width="1.5" stroke-linecap="round" stroke-linejoin="round"/>
</svg>
