<svg width="24" height="24" viewBox="0 0 24 24" fill="none" xmlns="http://www.w3.org/2000/svg">
<path fill-rule="evenodd" clip-rule="evenodd" d="M8.75317 13.7491C9.57817 13.7491 10.2532 14.4241 10.2532 15.2491V17.7491C10.2532 18.5741 9.57817 19.2491 8.75317 19.2491H6.25317C5.42817 19.2491 4.75317 18.5741 4.75317 17.7491V15.2491C4.75317 14.4241 5.42817 13.7491 6.25317 13.7491H8.75317ZM16.5032 13.7491C18.0162 13.7491 19.2532 14.9871 19.2532 16.4991C19.2532 17.9551 18.1061 19.157 16.6701 19.2441L16.5032 19.2491C14.9902 19.2491 13.7532 18.0111 13.7532 16.4991C13.7532 14.9871 14.9902 13.7491 16.5032 13.7491ZM17.7532 4.74908C18.5782 4.74908 19.2532 5.42408 19.2532 6.24908V8.74908C19.2532 9.57408 18.5782 10.2491 17.7532 10.2491H15.2532C14.4282 10.2491 13.7532 9.57408 13.7532 8.74908V6.24908C13.7532 5.42408 14.4282 4.74908 15.2532 4.74908H17.7532Z" stroke="black" stroke-width="1.5" stroke-linecap="round" stroke-linejoin="round"/>
<path d="M7.45439 3.91998C9.39139 3.91998 10.9684 5.49698 10.9684 7.43398V10.016C10.9684 10.652 10.4494 11.17 9.81339 11.17H9.71839C9.08139 11.17 8.56339 10.652 8.56339 10.016V8.40298C8.56339 7.76898 9.07539 7.25398 9.70939 7.24898C9.61439 6.08698 8.64039 5.16998 7.45439 5.16998C6.26739 5.16998 5.29439 6.08698 5.19839 7.24898C5.83139 7.25398 6.34539 7.76898 6.34539 8.40298V10.016C6.34539 10.652 5.82539 11.17 5.18939 11.17H5.09439C4.45739 11.17 3.93939 10.652 3.93939 10.016V7.43398C3.93939 5.49698 5.51639 3.91998 7.45439 3.91998Z" fill="black"/>
</svg>
