<svg width="24" height="24" viewBox="0 0 24 24" fill="none" xmlns="http://www.w3.org/2000/svg">
<path d="M8.2785 16.662C8.8307 16.662 9.2785 17.1098 9.2785 17.662C9.2785 18.2143 8.8307 18.662 8.2785 18.662C7.7262 18.662 7.2785 18.2143 7.2785 17.662C7.2785 17.1098 7.7262 16.662 8.2785 16.662ZM8.2785 12.8881C8.8307 12.8881 9.2785 13.3358 9.2785 13.8881C9.2785 14.4404 8.8307 14.8881 8.2785 14.8881C7.7262 14.8881 7.2785 14.4404 7.2785 13.8881C7.2785 13.3358 7.7262 12.8881 8.2785 12.8881ZM8.2785 9.11423C8.8307 9.11423 9.2785 9.56173 9.2785 10.1142C9.2785 10.6664 8.8307 11.1142 8.2785 11.1142C7.7262 11.1142 7.2785 10.6664 7.2785 10.1142C7.2785 9.56173 7.7262 9.11423 8.2785 9.11423ZM8.2785 5.34003C8.8307 5.34003 9.2785 5.78783 9.2785 6.34003C9.2785 6.89253 8.8307 7.34003 8.2785 7.34003C7.7262 7.34003 7.2785 6.89253 7.2785 6.34003C7.2785 5.78783 7.7262 5.34003 8.2785 5.34003Z" fill="black"/>
<path fill-rule="evenodd" clip-rule="evenodd" d="M20.62 8.68402C18.7838 8.68402 17.3173 10.169 17.3173 12.0013C17.3173 13.833 18.7838 15.3182 20.62 15.3182V15.8763C20.62 17.2568 19.5005 18.3762 18.12 18.3762H5.87C4.4895 18.3762 3.37 17.2568 3.37 15.8763V8.12632C3.37 6.74522 4.4895 5.62622 5.87 5.62622H18.12C19.5005 5.62622 20.62 6.74522 20.62 8.12632V8.68402Z" stroke="black" stroke-width="1.5" stroke-linecap="round" stroke-linejoin="round"/>
</svg>
