<svg width="24" height="24" viewBox="0 0 24 24" fill="none" xmlns="http://www.w3.org/2000/svg">
<mask id="mask0_702_856" style="mask-type:luminance" maskUnits="userSpaceOnUse" x="4" y="2" width="16" height="20">
<path d="M4.00011 2H19.9998V21.8797H4.00011V2Z" fill="white"/>
</mask>
<g mask="url(#mask0_702_856)">
<path fill-rule="evenodd" clip-rule="evenodd" d="M8.32091 17.1252C8.46131 17.1252 8.60191 17.1657 8.72481 17.2476C8.99291 17.4265 9.11121 17.7608 9.01521 18.0689L8.63541 19.2883C8.56581 19.5116 8.58741 19.7485 8.69601 19.9555C8.80461 20.1625 8.98741 20.3148 9.21061 20.3843C9.43421 20.4539 9.67101 20.4323 9.87781 20.3237C10.0848 20.2151 10.2371 20.0323 10.3066 19.8091L10.8759 17.9824C11.0303 17.4879 11.4819 17.1555 12 17.1555C12.5178 17.1555 12.9697 17.4879 13.1239 17.9824L13.6931 19.8091C13.7626 20.0323 13.9149 20.2151 14.1222 20.3237C14.3292 20.4326 14.566 20.4537 14.7893 20.3843C15.0126 20.3148 15.1951 20.1625 15.304 19.9555C15.4126 19.7485 15.4342 19.5116 15.3646 19.2886L14.9845 18.0689C14.8887 17.7608 15.0068 17.4265 15.2751 17.2476C15.5435 17.0689 15.8974 17.0874 16.1449 17.2942L17.5585 18.4743C17.7709 18.6517 18.0759 18.6617 18.2989 18.4983C18.4492 18.3885 18.5389 18.2185 18.5449 18.0321C18.551 17.8459 18.4725 17.6704 18.3294 17.5511L18.2931 17.5203C17.575 16.9213 17.1624 16.0394 17.1624 15.1024V8.6173C17.1624 5.8241 14.8916 3.5087 12.1001 3.4556C10.7459 3.4355 9.44461 3.9543 8.44821 4.932C7.42471 5.9366 6.83761 7.3281 6.83761 8.7499V15.1024C6.83761 16.0394 6.42491 16.9213 5.70541 17.5218L5.67151 17.5499C5.52751 17.6704 5.44871 17.8459 5.45501 18.0321C5.46081 18.2185 5.55051 18.3885 5.70081 18.4983C5.92461 18.6617 6.22861 18.6517 6.44121 18.4743L7.85481 17.2942C7.98911 17.1819 8.15461 17.1252 8.32091 17.1252ZM9.47391 21.8796C9.24091 21.8796 9.00681 21.8445 8.77791 21.7732C8.18371 21.588 7.69721 21.1824 7.40771 20.6314C7.26251 20.3543 7.17551 20.0571 7.14881 19.7543C6.44361 20.1982 5.53061 20.1754 4.84241 19.6726C4.32821 19.2966 4.02161 18.716 4.00121 18.0791C3.98061 17.4423 4.24921 16.8428 4.73821 16.4345L4.77211 16.4062C5.16091 16.0816 5.38301 15.6069 5.38301 15.1024V8.7499C5.38301 6.94 6.12891 5.1703 7.42931 3.8939C8.70711 2.6401 10.3801 1.9625 12.1275 2.0016C15.7059 2.0694 18.6169 5.0372 18.6169 8.6173V15.1024C18.6169 15.6069 18.839 16.0816 19.2262 16.4047L19.263 16.4357C19.7505 16.8428 20.0194 17.4423 19.9988 18.0791C19.9784 18.716 19.6715 19.2966 19.1573 19.6726C18.4683 20.1759 17.5559 20.1979 16.8511 19.7543C16.8242 20.0571 16.7374 20.3543 16.592 20.6314C16.3028 21.1824 15.8162 21.588 15.222 21.7732C13.9946 22.155 12.6865 21.4682 12.3045 20.2418L12 19.2646L11.6955 20.2418C11.5103 20.8362 11.1047 21.3225 10.5537 21.612C10.2148 21.7897 9.84581 21.8796 9.47391 21.8796Z" fill="black"/>
</g>
<path fill-rule="evenodd" clip-rule="evenodd" d="M11.9999 6.25699C10.7301 6.25699 9.6969 7.29029 9.6969 8.56009C9.6969 9.82989 10.7301 10.8631 11.9999 10.8631C13.2697 10.8631 14.303 9.82989 14.303 8.56009C14.303 7.29029 13.2697 6.25699 11.9999 6.25699ZM11.9999 12.3176C9.9279 12.3176 8.2424 10.6321 8.2424 8.56009C8.2424 6.48809 9.9279 4.80249 11.9999 4.80249C14.0719 4.80249 15.7575 6.48809 15.7575 8.56009C15.7575 10.6321 14.0719 12.3176 11.9999 12.3176Z" fill="black"/>
<path fill-rule="evenodd" clip-rule="evenodd" d="M12.5103 8.56012C12.5103 7.89052 11.9678 7.34802 11.2982 7.34802C10.6286 7.34802 10.0861 7.89052 10.0861 8.56012C10.0861 9.22962 10.6286 9.77222 11.2982 9.77222C11.9678 9.77222 12.5103 9.22962 12.5103 8.56012Z" fill="black"/>
</svg>
