<svg width="24" height="24" viewBox="0 0 24 24" fill="none" xmlns="http://www.w3.org/2000/svg">
<mask id="mask0_702_849" style="mask-type:luminance" maskUnits="userSpaceOnUse" x="4" y="2" width="16" height="20">
<path d="M4.5 2.5H19.5V21.5H4.5V2.5Z" fill="white"/>
</mask>
<g mask="url(#mask0_702_849)">
<path fill-rule="evenodd" clip-rule="evenodd" d="M12 11.6398C10.2743 11.6398 8.87499 10.2405 8.87499 8.51471C8.87499 6.78901 10.2743 5.38981 12 5.38981C13.7257 5.38981 15.125 6.78901 15.125 8.51471C15.125 10.2405 13.7257 11.6398 12 11.6398ZM19.0077 17.211L18.9718 17.1807C18.4025 16.7057 18.0737 16.0028 18.0737 15.2615V8.57371C18.0737 5.25851 15.4178 2.56351 12.1175 2.50101C8.71299 2.43651 5.92619 5.30531 5.92619 8.71051V15.2615C5.92619 16.0028 5.59749 16.7057 5.02819 17.1807L4.99219 17.211C4.30799 17.7817 4.34249 18.8433 5.06149 19.369C5.56949 19.7402 6.26529 19.718 6.74829 19.3145L8.20599 18.0975L7.81399 19.355C7.54249 20.2267 8.02869 21.1532 8.90049 21.4247C9.77169 21.6965 10.6982 21.21 10.97 20.3385L11.557 18.4548C11.6925 18.02 12.3075 18.02 12.443 18.4548L13.03 20.3385C13.3018 21.21 14.2282 21.6965 15.0995 21.4247C15.9712 21.1532 16.4575 20.2267 16.186 19.355L15.794 18.0975L17.2518 19.3145C17.7347 19.718 18.4305 19.7402 18.9385 19.369C19.6575 18.8433 19.692 17.7817 19.0077 17.211Z" fill="black"/>
</g>
<path fill-rule="evenodd" clip-rule="evenodd" d="M11.2764 7.26477C10.5859 7.26477 10.0264 7.82427 10.0264 8.51467C10.0264 9.20517 10.5859 9.76467 11.2764 9.76467C11.9669 9.76467 12.5264 9.20517 12.5264 8.51467C12.5264 7.82427 11.9669 7.26477 11.2764 7.26477Z" fill="black"/>
</svg>
