<svg width="24" height="24" viewBox="0 0 24 24" fill="none" xmlns="http://www.w3.org/2000/svg">
<path d="M6.9585 18.8912H4.0005V15.9332C4.0005 15.5189 3.6647 15.1832 3.2505 15.1832C2.8363 15.1832 2.5005 15.5189 2.5005 15.9332V18.8912C2.5005 19.7204 3.1713 20.3912 4.0005 20.3912H6.9585C7.3727 20.3912 7.7085 20.0554 7.7085 19.6412C7.7085 19.2269 7.3727 18.8912 6.9585 18.8912Z" fill="black"/>
<path d="M17.0219 5.14117H19.9799V8.09917C19.9799 8.51337 20.3157 8.84917 20.7299 8.84917C21.1441 8.84917 21.4799 8.51337 21.4799 8.09917V5.14117C21.4799 4.31287 20.8081 3.64117 19.9799 3.64117H17.0219C16.6077 3.64117 16.2719 3.97687 16.2719 4.39117C16.2719 4.80537 16.6077 5.14117 17.0219 5.14117Z" fill="black"/>
<path d="M16.0063 6.51617H7.9733C6.4544 6.51617 5.2233 7.74767 5.2233 9.26617V14.7662C5.2233 16.2847 6.4544 17.5162 7.9733 17.5162H16.0063C17.5252 17.5162 18.7563 16.2847 18.7563 14.7662V9.26617C18.7563 7.74767 17.5252 6.51617 16.0063 6.51617ZM16.0063 8.01617C16.6967 8.01617 17.2563 8.57597 17.2563 9.26617V14.7662C17.2563 15.4564 16.6967 16.0162 16.0063 16.0162H7.9733C7.2829 16.0162 6.7233 15.4564 6.7233 14.7662V9.26617C6.7233 8.57597 7.2829 8.01617 7.9733 8.01617H16.0063Z" fill="black"/>
<path d="M4.28459 19.6915L6.89059 17.0855C7.18349 16.7926 7.18349 16.3177 6.89059 16.0248C6.59769 15.7319 6.12289 15.7319 5.82999 16.0248L3.22399 18.6308C2.93109 18.9237 2.93109 19.3986 3.22399 19.6915C3.51689 19.9844 3.99169 19.9844 4.28459 19.6915Z" fill="black"/>
<path d="M19.6949 4.34069L16.7979 7.23669C16.5049 7.52959 16.5048 8.00449 16.7977 8.29739C17.0905 8.59029 17.5654 8.59039 17.8583 8.29759L20.7553 5.40159C21.0483 5.10869 21.0484 4.63389 20.7555 4.34089C20.4627 4.04799 19.9878 4.04789 19.6949 4.34069Z" fill="black"/>
</svg>
