<svg width="24" height="24" viewBox="0 0 24 24" fill="none" xmlns="http://www.w3.org/2000/svg">
<path d="M3.441 10.997C3.662 10.997 3.871 10.946 4.059 10.858C4.03 10.946 4.023 11.045 4.051 11.147L5.849 17.804C6.086 18.676 6.877 19.281 7.781 19.281H16.218C17.122 19.281 17.913 18.676 18.149 17.804L19.948 11.147C19.975 11.045 19.969 10.946 19.939 10.858C20.128 10.946 20.337 10.997 20.558 10.997C21.375 10.997 22.039 10.325 22.039 9.49699C22.039 8.66799 21.375 7.99699 20.558 7.99699C19.74 7.99699 19.078 8.66799 19.078 9.49699C19.078 9.89299 19.23 10.253 19.478 10.52C19.396 10.518 19.311 10.532 19.229 10.576L16.766 12.393C16.087 12.755 15.244 12.545 14.814 11.905L12.415 7.82899C12.376 7.76999 12.326 7.72699 12.271 7.69199C12.96 7.56199 13.481 6.95299 13.481 6.21899C13.481 5.39099 12.817 4.71899 12 4.71899C11.181 4.71899 10.518 5.39099 10.518 6.21899C10.518 6.95299 11.04 7.56199 11.727 7.69199C11.673 7.72699 11.623 7.76999 11.584 7.82899L9.184 11.905C8.754 12.545 7.911 12.755 7.232 12.393L4.769 10.576C4.687 10.532 4.602 10.518 4.521 10.52C4.769 10.253 4.922 9.89299 4.922 9.49699C4.922 8.66799 4.258 7.99699 3.441 7.99699C2.623 7.99699 1.961 8.66799 1.961 9.49699C1.961 10.325 2.623 10.997 3.441 10.997Z" fill="black"/>
</svg>
