<svg width="24" height="24" viewBox="0 0 24 24" fill="none" xmlns="http://www.w3.org/2000/svg">
<path fill-rule="evenodd" clip-rule="evenodd" d="M11.989 5.5C11.587 5.5 11.259 5.836 11.259 6.25C11.259 6.612 11.51 6.921 11.855 6.986C11.901 6.995 11.946 7.008 11.99 7.024C12.033 7.008 12.078 6.995 12.124 6.986C12.47 6.921 12.721 6.611 12.721 6.25C12.721 5.836 12.393 5.5 11.989 5.5ZM3.43195 8.778C3.02795 8.778 2.69995 9.115 2.69995 9.528C2.69995 10.045 3.24995 10.432 3.73195 10.209C3.77795 10.188 3.82495 10.172 3.87195 10.161C3.89695 10.12 3.92595 10.08 3.96095 10.043C4.09095 9.903 4.16195 9.72 4.16195 9.528C4.16195 9.115 3.83495 8.778 3.43195 8.778ZM20.1089 10.161C20.1569 10.172 20.204 10.189 20.249 10.21C20.72 10.431 21.278 10.047 21.278 9.528C21.278 9.115 20.95 8.778 20.548 8.778C20.145 8.778 19.818 9.115 19.818 9.528C19.818 9.72 19.8889 9.902 20.0189 10.042C20.0529 10.08 20.0839 10.119 20.1089 10.161ZM4.95395 11.682L6.56295 17.64C6.71095 18.183 7.20795 18.563 7.77095 18.563H16.208C16.771 18.563 17.268 18.183 17.416 17.639L19.025 11.684L17.202 13.028C17.173 13.049 17.141 13.069 17.11 13.086C16.086 13.632 14.827 13.317 14.182 12.353L11.989 8.633L9.82095 12.317C9.15095 13.317 7.88995 13.631 6.86995 13.086C6.83795 13.069 6.80595 13.049 6.77695 13.028L4.95395 11.682ZM16.208 20.063H7.77095C6.53195 20.063 5.43995 19.228 5.11595 18.032L3.42595 11.778C2.19795 11.774 1.19995 10.766 1.19995 9.528C1.19995 8.288 2.20095 7.278 3.43195 7.278C4.66195 7.278 5.66195 8.288 5.66195 9.528C5.66195 9.778 5.62095 10.022 5.54295 10.253L7.61595 11.783C7.95195 11.934 8.34495 11.827 8.55095 11.518L10.611 8.019C10.088 7.604 9.75895 6.96 9.75895 6.25C9.75895 5.009 10.76 4 11.989 4C13.22 4 14.221 5.009 14.221 6.25C14.221 6.96 13.891 7.604 13.367 8.02L15.452 11.555C15.637 11.83 16.032 11.936 16.363 11.783L18.437 10.253C18.359 10.022 18.318 9.778 18.318 9.528C18.318 8.288 19.318 7.278 20.548 7.278C21.777 7.278 22.778 8.288 22.778 9.528C22.778 10.767 21.7809 11.775 20.5529 11.778L18.863 18.031C18.539 19.228 17.447 20.063 16.208 20.063Z" fill="black"/>
</svg>
