<svg width="24" height="24" viewBox="0 0 24 24" fill="none" xmlns="http://www.w3.org/2000/svg">
<path d="M12.1529 3.24988V5.16088M12.1529 19.1454V21.0564M21.0557 12.1532H19.1457M5.16024 12.1532H3.25024M12.1529 5.15318C16.0189 5.15318 19.1529 8.28718 19.1529 12.1532C19.1529 16.0182 16.0189 19.1532 12.1529 19.1532C8.28694 19.1532 5.15294 16.0182 5.15294 12.1532C5.15294 8.28718 8.28694 5.15318 12.1529 5.15318ZM12.1529 9.02818C10.4269 9.02818 9.02794 10.4272 9.02794 12.1532C9.02794 13.8792 10.4269 15.2782 12.1529 15.2782C13.8789 15.2782 15.2779 13.8792 15.2779 12.1532C15.2779 10.4272 13.8789 9.02818 12.1529 9.02818Z" stroke="black" stroke-width="1.5" stroke-linecap="round" stroke-linejoin="round"/>
</svg>
