<svg width="24" height="24" viewBox="0 0 24 24" fill="none" xmlns="http://www.w3.org/2000/svg">
<path d="M12 2.34747C12.414 2.34747 12.75 2.68347 12.75 3.09747V4.28747C16.425 4.64247 19.358 7.57447 19.713 11.2505H20.903C21.317 11.2505 21.653 11.5865 21.653 12.0005C21.653 12.4145 21.317 12.7505 20.903 12.7505H19.713C19.358 16.4265 16.425 19.3585 12.75 19.7135V20.9025C12.75 21.3175 12.414 21.6525 12 21.6525C11.585 21.6525 11.25 21.3175 11.25 20.9025V19.7135C7.57505 19.3585 4.64205 16.4265 4.28705 12.7505H3.09705C2.68305 12.7505 2.34705 12.4145 2.34705 12.0005C2.34705 11.5865 2.68305 11.2505 3.09705 11.2505H4.28705C4.64205 7.57447 7.57505 4.64247 11.25 4.28747V3.09747C11.25 2.68347 11.585 2.34747 12 2.34747ZM12.058 5.75147C12.039 5.75347 12.02 5.75747 12 5.75747C11.98 5.75747 11.961 5.75347 11.942 5.75147C8.54205 5.78247 5.78405 8.54147 5.75105 11.9405C5.75305 11.9615 5.75705 11.9795 5.75705 12.0005C5.75705 12.0205 5.75305 12.0395 5.75105 12.0595C5.78405 15.4585 8.54105 18.2165 11.94 18.2485L12 18.2425C12.021 18.2425 12.039 18.2475 12.06 18.2485C15.458 18.2165 18.216 15.4585 18.248 12.0595C18.247 12.0395 18.243 12.0205 18.243 12.0005C18.243 11.9795 18.247 11.9615 18.248 11.9405C18.216 8.54147 15.457 5.78247 12.058 5.75147ZM12.0004 8.25047C14.0704 8.25047 15.7504 9.92947 15.7504 12.0005C15.7504 14.0705 14.0704 15.7505 12.0004 15.7505C9.92945 15.7505 8.25045 14.0705 8.25045 12.0005C8.25045 9.92947 9.92945 8.25047 12.0004 8.25047Z" fill="black"/>
</svg>
