<svg width="24" height="24" viewBox="0 0 24 24" fill="none" xmlns="http://www.w3.org/2000/svg">
<path fill-rule="evenodd" clip-rule="evenodd" d="M17.3645 18.6685C15.7795 18.6685 14.4895 17.3785 14.4895 15.7935C14.4895 14.7375 15.0625 13.8155 15.9135 13.3155L16.7095 15.6005C16.8165 15.9095 17.1065 16.1035 17.4175 16.1035C17.4995 16.1035 17.5825 16.0895 17.6645 16.0615C18.0545 15.9255 18.2615 15.4975 18.1255 15.1055L17.3635 12.9185C18.9485 12.9185 20.2395 14.2075 20.2395 15.7935C20.2395 17.3785 18.9495 18.6685 17.3645 18.6685ZM9.5105 15.7935C9.5105 17.3785 8.2195 18.6685 6.6355 18.6685C5.0495 18.6685 3.7605 17.3785 3.7605 15.7935C3.7605 14.2075 5.0495 12.9185 6.6355 12.9185C6.6455 12.9185 6.6565 12.9195 6.6675 12.9195L5.7715 15.0645C5.6115 15.4455 5.7925 15.8855 6.1755 16.0455C6.2685 16.0845 6.3675 16.1035 6.4635 16.1035C6.7575 16.1035 7.0355 15.9305 7.1555 15.6425L8.1195 13.3355C8.9505 13.8405 9.5105 14.7515 9.5105 15.7935ZM17.3645 11.4185C17.1905 11.4185 17.0205 11.4315 16.8515 11.4505L14.5375 4.80848C14.3195 4.22448 13.7545 3.83148 13.1315 3.83148H10.8965C10.4825 3.83148 10.1465 4.16748 10.1465 4.58148C10.1465 4.99548 10.4825 5.33148 10.8965 5.33148L13.1265 5.31648L14.4855 9.21748H9.2695L8.5255 7.94448C8.2575 7.48648 7.7605 7.20148 7.2305 7.20148H5.2255C4.8105 7.20148 4.4755 7.53748 4.4755 7.95148C4.4755 8.36648 4.8105 8.70148 5.2255 8.70148H7.2305L7.9295 9.89748L7.2725 11.4705C7.0635 11.4395 6.8515 11.4185 6.6355 11.4185C4.2215 11.4185 2.2605 13.3805 2.2605 15.7935C2.2605 18.2055 4.2215 20.1685 6.6355 20.1685C9.0475 20.1685 11.0105 18.2055 11.0105 15.7935C11.0105 14.1285 10.0745 12.6785 8.7025 11.9395L9.2135 10.7175H15.0085L15.4145 11.8825C13.9785 12.6015 12.9895 14.0825 12.9895 15.7935C12.9895 18.2055 14.9525 20.1685 17.3645 20.1685C19.7765 20.1685 21.7395 18.2055 21.7395 15.7935C21.7395 13.3805 19.7765 11.4185 17.3645 11.4185Z" fill="black"/>
</svg>
