<svg width="24" height="24" viewBox="0 0 24 24" fill="none" xmlns="http://www.w3.org/2000/svg">
<path fill-rule="evenodd" clip-rule="evenodd" d="M15.1743 3.39061L15.1583 3.38361C15.1403 3.37561 15.1303 3.38361 15.1363 3.40061L15.1423 3.41461C15.4883 4.37261 15.6783 5.40661 15.6783 6.48561C15.6783 11.4376 11.6933 15.4506 6.77728 15.4506C5.58328 15.4506 4.44628 15.2136 3.40628 14.7846L3.39428 14.7796C3.38128 14.7736 3.37628 14.7846 3.38228 14.8036L3.38928 14.8196C4.65928 18.2096 7.90928 20.6196 11.7183 20.6196C16.6353 20.6196 20.6203 16.6056 20.6203 11.6546C20.6203 7.93661 18.3743 4.74961 15.1743 3.39061Z" fill="black"/>
</svg>
