<svg width="24" height="24" viewBox="0 0 24 24" fill="none" xmlns="http://www.w3.org/2000/svg">
<path fill-rule="evenodd" clip-rule="evenodd" d="M11.465 17.627C12.227 17.627 12.845 18.241 12.845 19.002C12.845 19.76 12.227 20.377 11.465 20.377C10.702 20.377 10.084 19.76 10.084 19.002C10.084 18.241 10.702 17.627 11.465 17.627ZM11.465 13.022C12.228 13.022 12.846 13.636 12.846 14.397C12.846 15.155 12.228 15.772 11.465 15.772C10.702 15.772 10.084 15.155 10.084 14.397C10.084 13.636 10.702 13.022 11.465 13.022ZM6.84199 13.022C7.60399 13.022 8.22199 13.636 8.22199 14.397C8.22199 15.155 7.60399 15.772 6.84199 15.772C6.07899 15.772 5.45999 15.155 5.45999 14.397C5.45999 13.636 6.07899 13.022 6.84199 13.022ZM11.465 8.225C12.227 8.225 12.845 8.839 12.845 9.6C12.845 10.357 12.227 10.975 11.465 10.975C10.701 10.975 10.084 10.357 10.084 9.6C10.084 8.839 10.701 8.225 11.465 8.225ZM6.84099 8.225C7.60399 8.225 8.22199 8.839 8.22199 9.6C8.22199 10.357 7.60399 10.975 6.84099 10.975C6.07899 10.975 5.46099 10.357 5.46099 9.6C5.46099 8.839 6.07899 8.225 6.84099 8.225ZM16.089 8.225C16.851 8.225 17.47 8.839 17.47 9.6C17.47 10.357 16.851 10.975 16.089 10.975C15.327 10.975 14.709 10.357 14.709 9.6C14.709 8.839 15.327 8.225 16.089 8.225ZM11.465 3.62C12.227 3.62 12.845 4.235 12.845 4.995C12.845 5.752 12.227 6.37 11.465 6.37C10.701 6.37 10.083 5.752 10.083 4.995C10.083 4.235 10.701 3.62 11.465 3.62ZM6.84199 3.62C7.60399 3.62 8.22199 4.235 8.22199 4.995C8.22199 5.752 7.60399 6.37 6.84199 6.37C6.07899 6.37 5.45999 5.752 5.45999 4.995C5.45999 4.235 6.07899 3.62 6.84199 3.62ZM16.089 3.62C16.852 3.62 17.47 4.235 17.47 4.995C17.47 5.752 16.852 6.37 16.089 6.37C15.327 6.37 14.71 5.752 14.71 4.995C14.71 4.235 15.327 3.62 16.089 3.62Z" fill="black"/>
<path fill-rule="evenodd" clip-rule="evenodd" d="M19.9521 11.7993C20.2941 11.4923 20.5741 11.6163 20.5741 12.0763V19.1843C20.5741 19.6443 20.2941 19.7693 19.9521 19.4623L17.1491 17.3083V17.3013H15.8411C15.2891 17.3013 14.8411 16.8543 14.8411 16.3013V14.9563C14.8411 14.4043 15.2891 13.9563 15.8411 13.9563H17.1491V13.9533L19.9521 11.7993Z" stroke="black" stroke-width="1.5" stroke-linecap="round" stroke-linejoin="round"/>
</svg>
