<svg width="24" height="24" viewBox="0 0 24 24" fill="none" xmlns="http://www.w3.org/2000/svg">
<path d="M13.8276 8.55951C15.0606 8.55951 16.0596 9.63451 16.0596 10.9605C16.0596 11.4225 15.9386 11.8515 15.7286 12.2175C15.7286 12.2175 15.5926 12.4265 15.5436 12.4965C15.0136 13.2485 13.5036 14.6015 12.6356 15.3505C12.2696 15.6655 11.7316 15.6655 11.3666 15.3505C10.4986 14.6015 8.9886 13.2485 8.4586 12.4965C8.4086 12.4265 8.2716 12.2175 8.2716 12.2175C8.0626 11.8515 7.9416 11.4225 7.9416 10.9605C7.9416 9.63451 8.9406 8.55951 10.1736 8.55951C10.9296 8.55951 11.5976 8.96251 12.0016 9.58051C12.4046 8.96251 13.0716 8.55951 13.8276 8.55951Z" fill="black"/>
<path d="M19.058 15.7128C17.71 18.2648 15.055 19.9998 12 19.9998C7.582 19.9998 4 16.3688 4 11.8908C4 8.0628 6.617 4.8548 10.134 4.0028M13.8578 4C17.3798 4.849 20.0008 8.06 20.0008 11.891C20.0008 11.99 19.9988 12.089 19.9958 12.188" stroke="black" stroke-width="1.5" stroke-linecap="round" stroke-linejoin="round"/>
</svg>
