<svg width="24" height="24" viewBox="0 0 24 24" fill="none" xmlns="http://www.w3.org/2000/svg">
<path d="M10.8629 3.82618C10.9604 4.22878 10.7132 4.63418 10.3106 4.73168C7.0759 5.51528 4.75 8.46448 4.75 11.8908C4.75 15.9569 7.9986 19.2498 12 19.2498C14.7015 19.2498 17.1401 17.7379 18.3948 15.3625C18.5883 14.9962 19.042 14.8562 19.4083 15.0496C19.7746 15.2431 19.9146 15.6968 19.7212 16.0631C18.21 18.9239 15.2651 20.7498 12 20.7498C7.1656 20.7498 3.25 16.7808 3.25 11.8908C3.25 7.77138 6.0506 4.22028 9.9574 3.27388C10.36 3.17638 10.7654 3.42358 10.8629 3.82618ZM13.8276 8.55948C15.0606 8.55948 16.0596 9.63448 16.0596 10.9605C16.0596 11.4225 15.9386 11.8515 15.7286 12.2175C15.7286 12.2175 15.5926 12.4265 15.5436 12.4965C15.0136 13.2485 13.5036 14.6015 12.6356 15.3505C12.2696 15.6655 11.7316 15.6655 11.3666 15.3505C10.4986 14.6015 8.9886 13.2485 8.4586 12.4965C8.4086 12.4265 8.2716 12.2175 8.2716 12.2175C8.0626 11.8515 7.9416 11.4225 7.9416 10.9605C7.9416 9.63448 8.9406 8.55948 10.1736 8.55948C10.9296 8.55948 11.5976 8.96248 12.0016 9.58048C12.4046 8.96248 13.0716 8.55948 13.8276 8.55948ZM14.0336 3.27088C17.9453 4.21378 20.7508 7.76768 20.7508 11.891L20.7455 12.2107C20.7329 12.6247 20.3871 12.9502 19.9731 12.9377C19.5591 12.9251 19.2336 12.5793 19.2461 12.1653L19.2508 11.891C19.2508 8.46148 16.9208 5.50978 13.682 4.72908C13.2794 4.63198 13.0316 4.22688 13.1287 3.82418C13.2258 3.42158 13.6309 3.17378 14.0336 3.27088Z" fill="black"/>
</svg>
