<svg width="24" height="24" viewBox="0 0 24 24" fill="none" xmlns="http://www.w3.org/2000/svg">
<path d="M18.2378 6.24171C17.0905 5.71531 15.8602 5.32741 14.5739 5.10531C14.5505 5.10101 14.5271 5.11171 14.515 5.13321C14.3568 5.41461 14.1815 5.78171 14.0588 6.07031C12.6753 5.86311 11.2989 5.86311 9.9437 6.07031C9.821 5.77531 9.6394 5.41461 9.4804 5.13321C9.4684 5.11251 9.445 5.10171 9.4215 5.10531C8.1359 5.32671 6.9057 5.71461 5.7577 6.24171C5.7478 6.24601 5.7392 6.25311 5.7336 6.26241C3.4 9.74871 2.7608 13.1493 3.0744 16.5077C3.0758 16.5241 3.085 16.5398 3.0978 16.5498C4.6374 17.6805 6.1288 18.3669 7.5925 18.8218C7.6159 18.829 7.6407 18.8204 7.6556 18.8011C8.0018 18.3283 8.3105 17.8298 8.5751 17.3055C8.5907 17.2748 8.5758 17.2384 8.5439 17.2262C8.0543 17.0405 7.5882 16.8141 7.1398 16.557C7.1043 16.5363 7.1015 16.4855 7.1341 16.4612C7.2285 16.3905 7.3229 16.317 7.413 16.2427C7.4293 16.2291 7.452 16.2262 7.4711 16.2348C10.417 17.5798 13.6062 17.5798 16.5172 16.2348C16.5364 16.2255 16.5591 16.2284 16.5761 16.242C16.6662 16.3162 16.7606 16.3905 16.8557 16.4612C16.8883 16.4855 16.8862 16.5363 16.8507 16.557C16.4023 16.8191 15.9361 17.0405 15.4459 17.2255C15.414 17.2376 15.3998 17.2748 15.4154 17.3055C15.6857 17.829 15.9943 18.3276 16.3342 18.8004C16.3484 18.8204 16.3739 18.829 16.3973 18.8218C17.8681 18.3669 19.3595 17.6805 20.8991 16.5498C20.9126 16.5398 20.9211 16.5248 20.9225 16.5084C21.2978 12.6257 20.2939 9.25301 18.2612 6.26311C18.2562 6.25311 18.2477 6.24601 18.2378 6.24171ZM9.015 14.4628C8.1281 14.4628 7.3973 13.6485 7.3973 12.6486C7.3973 11.6486 8.114 10.8344 9.015 10.8344C9.9232 10.8344 10.6469 11.6557 10.6327 12.6486C10.6327 13.6485 9.9161 14.4628 9.015 14.4628ZM14.9961 14.4628C14.1092 14.4628 13.3784 13.6485 13.3784 12.6486C13.3784 11.6486 14.095 10.8344 14.9961 10.8344C15.9042 10.8344 16.6279 11.6557 16.6137 12.6486C16.6137 13.6485 15.9042 14.4628 14.9961 14.4628Z" fill="black"/>
</svg>
