<svg width="24" height="24" viewBox="0 0 24 24" fill="none" xmlns="http://www.w3.org/2000/svg">
<mask id="mask0_702_938" style="mask-type:luminance" maskUnits="userSpaceOnUse" x="2" y="4" width="20" height="16">
<path d="M2 4.49988H21.4988V19.9186H2V4.49988Z" fill="white"/>
</mask>
<g mask="url(#mask0_702_938)">
<path fill-rule="evenodd" clip-rule="evenodd" d="M3.545 16.3496C4.647 17.1256 5.815 17.7276 7.086 18.1696C7.158 18.0606 7.229 17.9496 7.296 17.8366C7.034 17.7126 6.774 17.5766 6.516 17.4286L6.164 17.2266L6.09 16.3716L6.436 16.0816C6.521 16.0186 6.606 15.9526 6.687 15.8856L7.033 15.6006L7.506 15.7616C10.265 17.0216 13.255 17.0226 15.952 15.7756L16.374 15.5806L16.795 15.8776C16.884 15.9526 16.968 16.0176 17.052 16.0796L17.378 16.3226L17.353 17.1806L16.975 17.4286C16.723 17.5766 16.465 17.7116 16.199 17.8366C16.266 17.9486 16.336 18.0596 16.408 18.1696C17.672 17.7316 18.84 17.1316 19.953 16.3486C20.214 12.9856 19.41 9.94457 17.499 7.06557C16.597 6.66557 15.655 6.36357 14.692 6.16157C14.621 6.30757 14.554 6.45457 14.499 6.58557L14.272 7.11957L13.698 7.03457C12.392 6.83857 11.084 6.83757 9.807 7.03357L9.228 7.12157L9.002 6.58057C8.947 6.44957 8.879 6.30457 8.808 6.16057C7.845 6.36157 6.902 6.66457 5.998 7.06557C4.096 9.98757 3.297 13.0216 3.545 16.3496ZM15.856 19.9186L15.477 19.4626C15.107 18.9466 14.779 18.4126 14.501 17.8736C12.69 18.3266 10.816 18.3256 8.992 17.8706C8.715 18.4176 8.385 18.9536 8.011 19.4656L7.7 19.8896L7.132 19.7636C5.404 19.2266 3.861 18.4466 2.404 17.3756L2.13 17.1746L2.077 16.7956C1.715 12.9166 2.626 9.40657 4.86 6.06757L4.993 5.86857L5.241 5.76257C6.422 5.21857 7.717 4.81757 9.044 4.58757L9.552 4.49957L9.875 4.97057C9.963 5.12757 10.056 5.30157 10.143 5.47657C11.204 5.35657 12.28 5.35757 13.357 5.47657C13.441 5.30557 13.528 5.13557 13.611 4.98757L13.88 4.50757L14.477 4.59257C15.773 4.81557 17.062 5.21457 18.284 5.77457L18.531 5.87257L18.682 6.14957C20.854 9.33157 21.792 12.9456 21.419 16.8026L21.386 17.1426L21.085 17.3816C19.632 18.4496 18.087 19.2286 16.369 19.7606L15.856 19.9186Z" fill="black"/>
</g>
<mask id="mask1_702_938" style="mask-type:luminance" maskUnits="userSpaceOnUse" x="7" y="11" width="4" height="4">
<path d="M7.147 12.8699C7.147 13.8699 7.878 14.6849 8.765 14.6849C9.666 14.6849 10.383 13.8699 10.383 12.8699C10.397 11.8769 9.673 11.0559 8.765 11.0559C7.863 11.0559 7.147 11.8699 7.147 12.8699Z" fill="white"/>
</mask>
<g mask="url(#mask1_702_938)">
<path fill-rule="evenodd" clip-rule="evenodd" d="M2.148 19.6849H15.383V6.05591H2.148V19.6849Z" fill="black"/>
</g>
<mask id="mask2_702_938" style="mask-type:luminance" maskUnits="userSpaceOnUse" x="13" y="11" width="4" height="4">
<path d="M13.128 12.8699C13.128 13.8699 13.859 14.6849 14.746 14.6849C15.654 14.6849 16.364 13.8699 16.364 12.8699C16.378 11.8769 15.654 11.0559 14.746 11.0559C13.845 11.0559 13.128 11.8699 13.128 12.8699Z" fill="white"/>
</mask>
<g mask="url(#mask2_702_938)">
<path fill-rule="evenodd" clip-rule="evenodd" d="M8.128 19.6849H21.363V6.05591H8.128V19.6849Z" fill="black"/>
</g>
</svg>
