<svg width="24" height="24" viewBox="0 0 24 24" fill="none" xmlns="http://www.w3.org/2000/svg">
<path fill-rule="evenodd" clip-rule="evenodd" d="M12.0002 18.3584C12.4142 18.3584 12.7502 18.6944 12.7502 19.1084V20.6254C12.7502 21.0404 12.4142 21.3754 12.0002 21.3754C11.5862 21.3754 11.2502 21.0404 11.2502 20.6254V19.1084C11.2502 18.6944 11.5862 18.3584 12.0002 18.3584ZM6.4436 16.4961C6.7366 16.2031 7.2116 16.2031 7.5046 16.4961C7.7976 16.7891 7.7976 17.2641 7.5046 17.5571L6.4316 18.6301C6.2856 18.7761 6.0926 18.8501 5.9016 18.8501C5.7096 18.8501 5.5176 18.7761 5.3716 18.6301C5.0786 18.3371 5.0786 17.8621 5.3716 17.5691L6.4436 16.4961ZM16.4959 16.4961C16.7889 16.2031 17.2639 16.2031 17.5569 16.4961L18.6289 17.5691C18.9219 17.8621 18.9219 18.3371 18.6289 18.6301C18.4829 18.7761 18.2909 18.8501 18.0989 18.8501C17.9079 18.8501 17.7149 18.7761 17.5689 18.6301L16.4959 17.5571C16.2029 17.2641 16.2029 16.7891 16.4959 16.4961ZM9.0047 8.96187C10.6887 7.27787 13.4207 7.27787 15.1047 8.96187C16.7887 10.6459 16.7887 13.3779 15.1047 15.0619C13.4207 16.7449 10.6897 16.7449 9.0047 15.0619C7.3217 13.3779 7.3217 10.6459 9.0047 8.96187ZM4.8928 11.25C5.3068 11.25 5.6428 11.586 5.6428 12C5.6428 12.415 5.3068 12.75 4.8928 12.75H3.3748C2.9608 12.75 2.6248 12.415 2.6248 12C2.6248 11.586 2.9608 11.25 3.3748 11.25H4.8928ZM20.6252 11.25C21.0392 11.25 21.3752 11.586 21.3752 12C21.3752 12.415 21.0392 12.75 20.6252 12.75H19.1082C18.6932 12.75 18.3582 12.415 18.3582 12C18.3582 11.586 18.6932 11.25 19.1082 11.25H20.6252ZM17.5686 5.37057C17.8616 5.07857 18.3366 5.07857 18.6296 5.37057C18.9226 5.66357 18.9226 6.13857 18.6296 6.43157L17.5566 7.50457C17.4106 7.65157 17.2176 7.72457 17.0266 7.72457C16.8346 7.72457 16.6426 7.65157 16.4966 7.50457C16.2036 7.21157 16.2036 6.73757 16.4966 6.44457L17.5686 5.37057ZM5.3709 5.37107C5.6639 5.07807 6.1389 5.07807 6.4319 5.37107L7.5039 6.44407C7.7969 6.73707 7.7969 7.21207 7.5039 7.50507C7.3579 7.65107 7.1659 7.72507 6.9739 7.72507C6.7829 7.72507 6.5899 7.65107 6.4439 7.50507L5.3709 6.43207C5.0779 6.13907 5.0779 5.66407 5.3709 5.37107ZM12.0002 2.62457C12.4142 2.62457 12.7502 2.96057 12.7502 3.37457V4.89257C12.7502 5.30657 12.4142 5.64257 12.0002 5.64257C11.5862 5.64257 11.2502 5.30657 11.2502 4.89257V3.37457C11.2502 2.96057 11.5862 2.62457 12.0002 2.62457Z" fill="black"/>
</svg>
