<svg width="24" height="24" viewBox="0 0 24 24" fill="none" xmlns="http://www.w3.org/2000/svg">
<path fill-rule="evenodd" clip-rule="evenodd" d="M14.7618 12.9059C14.1829 12.9059 13.7105 12.4279 13.7105 11.8412C13.7105 11.2525 14.1829 10.7765 14.7618 10.7765C15.3445 10.7765 15.8158 11.2525 15.8158 11.8412C15.8158 12.4279 15.3445 12.9059 14.7618 12.9059ZM13.0139 17.2677C12.6187 17.2677 12.2603 17.1051 12.0003 16.8434C11.7403 17.1051 11.3818 17.2677 10.9868 17.2677C10.1942 17.2677 9.5492 16.6153 9.5492 15.8139C9.5492 15.5767 9.7392 15.3848 9.9734 15.3848C10.2074 15.3848 10.3974 15.5767 10.3974 15.8139C10.3974 16.1423 10.6618 16.4098 10.9868 16.4098C11.3116 16.4098 11.5761 16.1423 11.5761 15.8139V15.4042C11.1561 15.1314 10.7279 14.5599 10.7279 14.1676C10.7279 13.6347 11.5139 13.631 12 13.631C12.4879 13.631 13.2726 13.6347 13.2726 14.1676C13.2726 14.5599 12.8445 15.1322 12.4242 15.405V15.8139C12.4242 16.1423 12.6892 16.4098 13.0139 16.4098C13.3387 16.4098 13.6029 16.1423 13.6029 15.8139C13.6029 15.5767 13.7934 15.3848 14.0271 15.3848C14.2613 15.3848 14.4511 15.5767 14.4511 15.8139C14.4511 16.6153 13.8066 17.2677 13.0139 17.2677ZM8.1845 11.8412C8.1845 11.2519 8.6574 10.7765 9.2384 10.7765C9.8213 10.7765 10.2897 11.2519 10.2897 11.8412C10.2897 12.4279 9.8213 12.9059 9.2384 12.9059C8.6574 12.9059 8.1845 12.4279 8.1845 11.8412ZM22 11.167C22 8.7637 18.1903 3 12 3C5.8095 3 2 8.7637 2 11.167C2 12.0914 3.4295 14.207 4.8884 15.8373V10.5788C4.8884 10.2112 5.1832 9.9133 5.5463 9.9133C5.9097 9.9133 6.2042 10.2112 6.2042 10.5788V16.6656C6.3503 18.4729 8.1784 21 10.8345 21H13.1661C15.8232 21 17.6445 18.5307 17.7955 16.6656V10.5788C17.7955 10.2112 18.09 9.9133 18.4534 9.9133C18.8168 9.9133 19.1113 10.2112 19.1113 10.5788V15.8346C20.5687 14.2038 22 12.0853 22 11.167Z" fill="black"/>
</svg>
