<svg width="24" height="24" viewBox="0 0 24 24" fill="none" xmlns="http://www.w3.org/2000/svg">
<path d="M11.9999 2.22223C17.4 2.22223 21.7777 6.59992 21.7777 12C21.7777 17.4001 17.4 21.7778 11.9999 21.7778C6.59986 21.7778 2.22217 17.4001 2.22217 12C2.22217 6.59992 6.59986 2.22223 11.9999 2.22223ZM11.9999 3.55556C7.33621 3.55556 3.5555 7.33627 3.5555 12C3.5555 16.6637 7.33621 20.4445 11.9999 20.4445C16.6637 20.4445 20.4444 16.6637 20.4444 12C20.4444 7.33627 16.6637 3.55556 11.9999 3.55556Z" fill="black"/>
<path d="M8.52441 16.2778H15.4689M14.8623 11.599L12.3978 14.1706C12.179 14.399 11.8145 14.399 11.5956 14.1706L9.13117 11.599M11.9967 14.2316V7.11108" stroke="black" stroke-width="1.33333" stroke-linecap="round" stroke-linejoin="round"/>
</svg>
