<svg width="24" height="24" viewBox="0 0 24 24" fill="none" xmlns="http://www.w3.org/2000/svg">
<path fill-rule="evenodd" clip-rule="evenodd" d="M5.74255 9.28949C5.72655 9.28949 5.71155 9.29249 5.69555 9.29249L6.65755 6.84749C6.92255 6.17349 7.56155 5.73749 8.28655 5.73749H15.7136C16.4376 5.73749 17.0766 6.17349 17.3426 6.84749L18.3036 9.29249C18.2876 9.29249 18.2726 9.28949 18.2576 9.28949H5.74255ZM17.5976 12.5475H20.7576V11.7895C20.7576 11.3135 20.6196 10.8695 20.3866 10.4895L18.7376 6.29849C18.2456 5.04749 17.0576 4.23749 15.7136 4.23749H8.28655C6.94055 4.23749 5.75455 5.04749 5.26255 6.29849L3.61355 10.4885C3.38055 10.8695 3.24255 11.3135 3.24255 11.7895V12.5475H6.40155C6.81555 12.5475 7.15155 12.8835 7.15155 13.2975C7.15155 13.7115 6.81555 14.0475 6.40155 14.0475H3.24255V14.8045C3.24255 15.5215 3.55055 16.1695 4.03855 16.6265V18.5125C4.03855 19.2025 4.59755 19.7625 5.28855 19.7625H5.78855C6.47855 19.7625 7.03855 19.2025 7.03855 18.5125V17.3045H16.9616V18.5125C16.9616 19.2025 17.5206 19.7625 18.2116 19.7625H18.7116C19.4016 19.7625 19.9616 19.2025 19.9616 18.5125V16.6265C20.4486 16.1695 20.7576 15.5215 20.7576 14.8045V14.0475H17.5976C17.1826 14.0475 16.8476 13.7115 16.8476 13.2975C16.8476 12.8835 17.1826 12.5475 17.5976 12.5475Z" fill="black"/>
</svg>
