<svg width="24" height="24" viewBox="0 0 24 24" fill="none" xmlns="http://www.w3.org/2000/svg">
<path d="M19.4587 15.8927L18.1587 14.5927C17.6587 14.0927 17.2587 13.8927 16.8587 13.8927C16.4587 13.8927 16.1587 13.9927 15.6587 14.4927L15.1587 14.9927C14.6587 15.4927 14.3587 15.5927 13.9587 15.5927C13.6587 15.5927 13.2587 15.3927 13.1587 15.2927C10.2587 13.5927 8.85867 11.1927 8.55867 10.6927C8.55867 10.6927 8.35867 10.3927 8.35867 10.0927C8.35867 9.6927 8.45867 9.3927 8.95867 8.8927L9.45867 8.3927C9.95867 7.8927 10.0587 7.5927 10.0587 7.1927C10.0587 6.7927 9.85867 6.3927 9.35867 5.8927L8.05867 4.5927C7.55867 4.0927 7.15867 3.8927 6.75867 3.8927C6.35867 3.8927 6.05867 3.9927 5.55867 4.4927C4.05867 5.9927 3.75867 7.3927 3.85867 8.7927C3.85867 9.6927 4.15867 10.6927 4.85867 11.6927C4.85867 11.6927 7.25867 15.5927 11.8587 18.7927C11.9587 18.7927 11.9587 18.8927 12.0587 18.8927C12.1587 18.9927 12.3587 19.0927 12.3587 19.0927C13.4587 19.7927 14.3587 19.9927 15.2587 20.0927C16.7587 20.1927 18.1587 19.7927 19.5587 18.3927C20.0587 17.8927 20.1587 17.5927 20.1587 17.1927C20.0587 16.7927 19.9587 16.3927 19.4587 15.8927Z" fill="black"/>
</svg>
