<svg width="24" height="24" viewBox="0 0 24 24" fill="none" xmlns="http://www.w3.org/2000/svg">
<path fill-rule="evenodd" clip-rule="evenodd" d="M15.6863 14.4876L15.1643 15.0086C14.6963 15.4766 14.3213 15.5746 13.9573 15.5686C13.6603 15.5636 13.2673 15.3546 13.1783 15.2956C10.2563 13.6236 8.88132 11.1906 8.61232 10.6696C8.59532 10.6366 8.44732 10.3396 8.43132 10.0416C8.41232 9.67861 8.52232 9.30361 8.99132 8.83561L9.51332 8.31361C9.97632 7.84761 10.0843 7.47261 10.0683 7.11261C10.0513 6.74861 9.90632 6.36161 9.39232 5.84761L8.09632 4.55261C7.58332 4.03861 7.19532 3.89361 6.83232 3.87661C6.47032 3.85961 6.09632 3.96761 5.63032 4.43161L5.62732 4.43461L5.62532 4.43561C4.14832 5.91561 3.81432 7.32461 3.88332 8.78561C3.92732 9.69361 4.16832 10.6406 4.84332 11.7256C4.84332 11.7256 7.23132 15.6336 11.8473 18.8726C11.9013 18.9106 11.9563 18.9486 12.0103 18.9846C12.0923 19.0406 12.2633 19.1536 12.2653 19.1516C13.3533 19.8306 14.3033 20.0726 15.2153 20.1166C16.6753 20.1856 18.0843 19.8516 19.5633 18.3746L19.5653 18.3726L19.5683 18.3686C20.0333 17.9046 20.1413 17.5296 20.1233 17.1676C20.1063 16.8046 19.9613 16.4166 19.4463 15.9046L18.1523 14.6086C17.6393 14.0936 17.2513 13.9486 16.8873 13.9316C16.5263 13.9156 16.1513 14.0236 15.6863 14.4876Z" stroke="black" stroke-width="1.5" stroke-linecap="round" stroke-linejoin="round"/>
</svg>
