<svg width="24" height="24" viewBox="0 0 24 24" fill="none" xmlns="http://www.w3.org/2000/svg">
<path fill-rule="evenodd" clip-rule="evenodd" d="M8.2028 20.375H16.4218C17.8928 20.375 19.0908 19.178 19.0908 17.706V6.294C19.0908 4.822 17.8928 3.625 16.4218 3.625H8.2028C6.7308 3.625 5.5338 4.822 5.5338 6.294V8.186C5.5338 8.6 5.8698 8.936 6.2838 8.936C6.6978 8.936 7.0338 8.6 7.0338 8.186V6.294C7.0338 5.649 7.5578 5.125 8.2028 5.125H16.4218C17.0658 5.125 17.5908 5.649 17.5908 6.294V17.706C17.5908 18.351 17.0658 18.875 16.4218 18.875H8.2028C7.5578 18.875 7.0338 18.351 7.0338 17.706V12.906L7.8328 13.744C8.1198 14.043 8.5938 14.054 8.8938 13.769C9.1928 13.482 9.2038 13.008 8.9178 12.708L6.9858 10.684C6.7978 10.487 6.5348 10.374 6.2628 10.374C5.9908 10.374 5.7268 10.487 5.5388 10.684L3.6068 12.708C3.3208 13.008 3.3318 13.482 3.6308 13.769C3.7768 13.907 3.9628 13.976 4.1488 13.976C4.3468 13.976 4.5438 13.898 4.6918 13.744L5.5338 12.861V17.706C5.5338 19.178 6.7308 20.375 8.2028 20.375Z" fill="black"/>
</svg>
