<svg width="24" height="24" viewBox="0 0 24 24" fill="none" xmlns="http://www.w3.org/2000/svg">
<path fill-rule="evenodd" clip-rule="evenodd" d="M4.4577 14.824L9.0577 19.424C9.0577 19.524 8.9577 19.524 8.8577 19.524L4.4577 20.324C3.9577 20.524 3.5577 20.124 3.6577 19.524L4.4577 15.124C4.5577 15.024 4.5577 14.924 4.4577 14.824ZM14.6577 4.22402C15.3577 3.42402 16.6577 3.42402 17.4577 4.22402L19.7577 6.52402C20.5577 7.32402 20.5577 8.52402 19.7577 9.32402L11.2577 17.824C11.0577 18.024 10.7577 18.024 10.5577 17.824L6.1577 13.424C5.9577 13.224 5.9577 12.924 6.1577 12.724L14.6577 4.22402Z" fill="black"/>
</svg>
