<svg width="24" height="24" viewBox="0 0 24 24" fill="none" xmlns="http://www.w3.org/2000/svg">
<path d="M11.0217 18.4762C10.8297 18.6682 10.0967 19.2232 9.82471 19.2772L4.6567 20.2902C4.3847 20.3442 4.2067 20.1652 4.2597 19.8932L5.2737 14.7282C5.3277 14.4562 5.8817 13.7222 6.0737 13.5302M11.2102 18.2926C10.9182 18.5846 10.4412 18.5846 10.1492 18.2926L6.2602 14.4036C5.9692 14.1116 5.9692 13.6346 6.2602 13.3426L14.7672 4.83563C15.5482 4.05463 16.8142 4.05463 17.5962 4.83563L19.7172 6.95763C20.4982 7.73763 20.4982 9.00363 19.7172 9.78563L11.2102 18.2926Z" stroke="black" stroke-width="1.5" stroke-linecap="round" stroke-linejoin="round"/>
</svg>
