<svg width="24" height="24" viewBox="0 0 24 24" fill="none" xmlns="http://www.w3.org/2000/svg">
<path d="M17.2194 13.2624C17.5054 12.9623 17.9804 12.9523 18.2804 13.2383L20.2384 15.1074L20.9274 15.7654C21.1394 15.9674 21.2614 16.2533 21.2614 16.5464C21.2614 16.8414 21.1394 17.1264 20.9264 17.3293L18.2804 19.8554C18.1344 19.9944 17.9474 20.0634 17.7614 20.0634C17.5644 20.0634 17.3664 19.9853 17.2194 19.8314C16.9334 19.5313 16.9444 19.0564 17.2444 18.7703L17.3324 18.6863L18.7884 17.2964H13.2874C12.8734 17.2964 12.5374 16.9613 12.5374 16.5464C12.5374 16.1324 12.8734 15.7963 13.2874 15.7963H18.7884L17.2434 14.3233C16.9444 14.0373 16.9334 13.5624 17.2194 13.2624ZM17.7386 3.93671C19.1136 3.93671 20.2386 5.06161 20.2386 6.43661V13.0337L19.3156 12.1526C18.8946 11.7516 18.3436 11.5307 17.7626 11.5307C17.1506 11.5307 16.5576 11.7846 16.1346 12.2267C15.7196 12.6607 15.4986 13.2317 15.5126 13.8327C15.5166 13.9916 15.5366 14.1467 15.5716 14.2977H13.2876C12.0466 14.2977 11.0376 15.3067 11.0376 16.5476V18.6866H5.2386C3.8636 18.6866 2.7386 17.5616 2.7386 16.1866V6.43661C2.7386 5.06161 3.8636 3.93671 5.2386 3.93671H17.7386ZM17.9556 6.93371C17.7106 6.59961 17.2406 6.52861 16.9066 6.77371L11.4576 10.7767L6.0726 6.77571C5.7406 6.52861 5.2706 6.59771 5.0236 6.93071C4.7766 7.26271 4.8456 7.73261 5.1786 7.97971L11.0076 12.3106C11.1396 12.4096 11.2976 12.4586 11.4546 12.4586C11.6106 12.4586 11.7666 12.4096 11.8986 12.3137L17.7946 7.98261C18.1286 7.73661 18.2006 7.26771 17.9556 6.93371Z" fill="black"/>
</svg>
