<svg width="24" height="24" viewBox="0 0 24 24" fill="none" xmlns="http://www.w3.org/2000/svg">
<path d="M18.307 8.64499L12.411 12.976C12.279 13.074 12.122 13.122 11.967 13.122C11.809 13.122 11.652 13.073 11.519 12.974L5.68999 8.64299C5.35799 8.39599 5.28899 7.92599 5.53599 7.59299C5.78299 7.26099 6.25299 7.19199 6.58499 7.43899L11.969 11.439L17.419 7.43599C17.752 7.19099 18.222 7.26199 18.468 7.59699C18.713 7.92999 18.641 8.39999 18.307 8.64499Z" fill="black"/>
<path d="M5.75 4.59998C4.375 4.59998 3.25 5.72498 3.25 7.09998V16.85C3.25 18.225 4.375 19.35 5.75 19.35H18.25C19.625 19.35 20.75 18.225 20.75 16.85V7.09998C20.75 5.72498 19.625 4.59998 18.25 4.59998H5.75Z" stroke="black" stroke-width="1.5"/>
</svg>
