<svg width="24" height="24" viewBox="0 0 24 24" fill="none" xmlns="http://www.w3.org/2000/svg">
<path d="M18.29 9.96293L12.394 14.0439C12.265 14.1329 12.116 14.1779 11.967 14.1779C11.816 14.1779 11.665 14.1329 11.537 14.0419L5.707 9.96093C5.369 9.72393 5.286 9.25593 5.523 8.91593C5.761 8.57693 6.229 8.49393 6.568 8.73293L11.969 12.5139L17.436 8.72993C17.777 8.49393 18.244 8.57893 18.48 8.91993C18.715 9.26093 18.63 9.72793 18.29 9.96293ZM20.75 8.95493C20.75 8.00593 20.213 7.13893 19.363 6.71593L13.13 3.61793C12.408 3.25293 11.593 3.25293 10.871 3.61793L4.638 6.71593C3.788 7.13893 3.25 8.00593 3.25 8.95493V18.1559C3.25 19.5309 4.375 20.6559 5.75 20.6559H18.25C19.625 20.6559 20.75 19.5309 20.75 18.1559V8.95493Z" fill="black"/>
</svg>
