<svg width="24" height="24" viewBox="0 0 24 24" fill="none" xmlns="http://www.w3.org/2000/svg">
<path d="M9.13586 9.13849C9.70386 9.13849 10.1649 9.59749 10.1649 10.1675C10.1649 10.7345 9.70386 11.1955 9.13586 11.1955C8.56886 11.1955 8.10986 10.7345 8.10986 10.1675C8.10986 9.59749 8.56886 9.13849 9.13586 9.13849ZM15.067 9.13849C15.635 9.13849 16.096 9.59749 16.096 10.1675C16.096 10.7345 15.635 11.1955 15.067 11.1955C14.5 11.1955 14.041 10.7345 14.041 10.1675C14.041 9.59749 14.5 9.13849 15.067 9.13849Z" fill="black"/>
<path fill-rule="evenodd" clip-rule="evenodd" d="M20.5001 12.1252C20.5001 7.49921 16.7501 3.75021 12.1251 3.75021C7.50012 3.75021 3.75012 7.49921 3.75012 12.1252C3.75012 16.7502 7.50012 20.5002 12.1251 20.5002C16.7501 20.5002 20.5001 16.7502 20.5001 12.1252Z" stroke="black" stroke-width="1.5" stroke-linecap="round" stroke-linejoin="round"/>
<path d="M8.48157 13.6315C9.07857 15.1365 10.5086 16.1095 12.1256 16.1095C13.7416 16.1095 15.1716 15.1365 15.7686 13.6315" stroke="black" stroke-width="1.5" stroke-linecap="round" stroke-linejoin="round"/>
</svg>
