<svg width="24" height="24" viewBox="0 0 24 24" fill="none" xmlns="http://www.w3.org/2000/svg">
<path fill-rule="evenodd" clip-rule="evenodd" d="M17.0314 9.93651L12.0114 14.9715C11.7734 15.2105 11.4544 15.3425 11.1164 15.3425C10.7784 15.3425 10.4604 15.2105 10.2214 14.9715L6.9694 11.7085C6.6774 11.4155 6.6774 10.9415 6.9704 10.6485C7.2644 10.3565 7.7394 10.3565 8.0314 10.6505L11.1164 13.7455L15.9694 8.87751C16.2614 8.58351 16.7364 8.58251 17.0304 8.87551C17.3234 9.16751 17.3234 9.64351 17.0314 9.93651ZM20.2214 9.50251C20.0154 7.94751 19.4654 6.53851 18.4944 5.50551C17.4634 4.53551 16.0524 3.98451 14.4974 3.77851C13.0114 3.58251 12.0004 3.62951 12.0004 3.62951C12.0004 3.62951 10.9884 3.58251 9.5034 3.77851C7.9484 3.98451 6.5384 4.53551 5.5064 5.50551C4.5354 6.53851 3.9854 7.94751 3.7794 9.50251C3.5824 10.9885 3.6304 11.9995 3.6304 11.9995C3.6304 11.9995 3.5824 13.0115 3.7794 14.4975C3.9854 16.0515 4.5354 17.4615 5.5064 18.4945C6.5384 19.4645 7.9484 20.0155 9.5034 20.2215C10.9884 20.4175 12.0004 20.3705 12.0004 20.3705C12.0004 20.3705 13.0114 20.4175 14.4974 20.2215C16.0524 20.0155 17.4624 19.4645 18.4934 18.4945C19.4644 17.4615 20.0154 16.0515 20.2214 14.4975C20.4184 13.0115 20.3694 11.9995 20.3694 11.9995C20.3694 11.9995 20.4184 10.9885 20.2214 9.50251Z" fill="black"/>
</svg>
