<svg width="24" height="24" viewBox="0 0 24 24" fill="none" xmlns="http://www.w3.org/2000/svg">
<path d="M14.8762 9.24199C15.1442 8.97399 15.5822 8.97299 15.8492 9.24199C16.1182 9.50899 16.1192 9.94799 15.8502 10.215L13.5152 13.022C13.5192 13.068 13.5282 13.113 13.5282 13.159C13.5292 14 12.8482 14.682 12.0072 14.683C11.1672 14.684 10.4842 14.003 10.4832 13.162C10.4822 12.321 11.1642 11.639 12.0042 11.638H12.0082L14.8762 9.24199Z" fill="black"/>
<path d="M5.99522 19.2464C4.33522 17.5904 3.35622 15.2514 3.51722 12.6864C3.78122 8.47941 7.18022 5.05641 11.3892 4.76141C16.3552 4.41441 20.4952 8.33541 20.5002 13.2254C20.5022 15.5714 19.5522 17.6964 18.0162 19.2344" stroke="black" stroke-width="1.5" stroke-linecap="round" stroke-linejoin="round"/>
</svg>
