<svg width="24" height="24" viewBox="0 0 24 24" fill="none" xmlns="http://www.w3.org/2000/svg">
<path fill-rule="evenodd" clip-rule="evenodd" d="M7.96852 18.5357C8.59252 18.5357 9.09752 19.0396 9.09752 19.6607C9.09752 20.2826 8.59252 20.7857 7.96852 20.7857C7.34552 20.7857 6.84052 20.2826 6.84052 19.6607C6.84052 19.0396 7.34552 18.5357 7.96852 18.5357ZM12.0003 18.5357C12.6233 18.5357 13.1283 19.0396 13.1283 19.6607C13.1283 20.2826 12.6233 20.7857 12.0003 20.7857C11.3763 20.7857 10.8723 20.2826 10.8723 19.6607C10.8723 19.0396 11.3763 18.5357 12.0003 18.5357ZM16.0315 18.5357C16.6545 18.5357 17.1595 19.0396 17.1595 19.6607C17.1595 20.2826 16.6545 20.7857 16.0315 20.7857C15.4075 20.7857 14.9035 20.2826 14.9035 19.6607C14.9035 19.0396 15.4075 18.5357 16.0315 18.5357ZM7.96852 14.7051C8.59252 14.7051 9.09752 15.209 9.09752 15.8301C9.09752 16.452 8.59252 16.955 7.96852 16.955C7.34552 16.955 6.84052 16.452 6.84052 15.8301C6.84052 15.209 7.34552 14.7051 7.96852 14.7051ZM12.0003 14.7051C12.6233 14.7051 13.1283 15.209 13.1283 15.8301C13.1283 16.452 12.6233 16.955 12.0003 16.955C11.3763 16.955 10.8723 16.452 10.8723 15.8301C10.8723 15.209 11.3763 14.7051 12.0003 14.7051ZM16.0315 14.7051C16.6545 14.7051 17.1595 15.209 17.1595 15.8301C17.1595 16.452 16.6545 16.955 16.0315 16.955C15.4075 16.955 14.9035 16.452 14.9035 15.8301C14.9035 15.209 15.4075 14.7051 16.0315 14.7051ZM12.0003 10.875C12.6233 10.875 13.1283 11.379 13.1283 12C13.1283 12.622 12.6233 13.125 12.0003 13.125C11.3763 13.125 10.8723 12.622 10.8723 12C10.8723 11.379 11.3763 10.875 12.0003 10.875ZM16.0315 10.875C16.6545 10.875 17.1595 11.379 17.1595 12C17.1595 12.622 16.6545 13.125 16.0315 13.125C15.4075 13.125 14.9035 12.622 14.9035 12C14.9035 11.379 15.4075 10.875 16.0315 10.875ZM12.0003 7.04439C12.6233 7.04439 13.1283 7.54849 13.1283 8.16939C13.1283 8.79049 12.6233 9.29439 12.0003 9.29439C11.3763 9.29439 10.8723 8.79049 10.8723 8.16939C10.8723 7.54849 11.3763 7.04439 12.0003 7.04439ZM12.0003 3.21429C12.6233 3.21429 13.1283 3.71829 13.1283 4.33929C13.1283 4.96129 12.6233 5.46429 12.0003 5.46429C11.3763 5.46429 10.8723 4.96129 10.8723 4.33929C10.8723 3.71829 11.3763 3.21429 12.0003 3.21429Z" fill="black"/>
</svg>
