<svg width="24" height="24" viewBox="0 0 24 24" fill="none" xmlns="http://www.w3.org/2000/svg">
<path d="M5.4924 11.6301L5.5 11.7499V19.1919C5.5 20.1919 4 20.1919 4 19.1919V11.7499C4 10.7916 5.3776 10.7516 5.4924 11.6301ZM9.0574 5.63011L9.065 5.74991V19.1919C9.065 20.1919 7.565 20.1919 7.565 19.1919V5.74991C7.565 4.79161 8.9426 4.75161 9.0574 5.63011ZM12.6223 9.38011L12.6299 9.49991V19.1919C12.6299 20.1919 11.1299 20.1919 11.1299 19.1919V9.49991C11.1299 8.54161 12.5075 8.50161 12.6223 9.38011ZM16.1873 15.3801L16.1949 15.4999V19.1919C16.1949 20.1919 14.6949 20.1919 14.6949 19.1919V15.4999C14.6949 14.5416 16.0725 14.5016 16.1873 15.3801ZM19.7522 12.8801L19.7598 12.9999V19.1919C19.7598 20.1919 18.2598 20.1919 18.2598 19.1919V12.9999C18.2598 12.0416 19.6374 12.0016 19.7522 12.8801Z" fill="black"/>
</svg>
