<svg width="24" height="24" viewBox="0 0 24 24" fill="none" xmlns="http://www.w3.org/2000/svg">
<path d="M18.75 12.7903C19.025 12.7903 19.25 13.0143 19.25 13.2903V17.7903C19.25 19.1653 18.125 20.2903 16.75 20.2903H12.75V12.7903H18.75ZM11.25 12.7903V20.2903H7.25C5.875 20.2903 4.75 19.1653 4.75 17.7903V13.2903C4.75 13.0143 4.974 12.7903 5.25 12.7903H11.25ZM14.561 3.85831C14.961 3.58931 15.505 3.69531 15.774 4.09731C16.044 4.49831 15.938 5.04131 15.536 5.31131L12.964 7.04031H17.25C18.625 7.04031 19.75 8.16531 19.75 9.54031V10.7903C19.75 11.0663 19.525 11.2903 19.25 11.2903H12.75V7.01231H11.25V11.2903H4.75C4.474 11.2903 4.25 11.0663 4.25 10.7903V9.54031C4.25 8.16531 5.375 7.04031 6.75 7.04031H11.035L8.463 5.31131C8.062 5.04231 7.955 4.49831 8.225 4.09731C8.494 3.69531 9.037 3.58931 9.438 3.85831L12 5.58031L14.561 3.85831Z" fill="black"/>
</svg>
