<svg width="24" height="24" viewBox="0 0 24 24" fill="none" xmlns="http://www.w3.org/2000/svg">
<path fill-rule="evenodd" clip-rule="evenodd" d="M18.75 11.7903C19.025 11.7903 19.25 12.0143 19.25 12.2903V16.7903C19.25 18.1653 18.125 19.2903 16.75 19.2903H12.75V11.7903H18.75ZM11.25 11.7903V19.2903H7.25C5.875 19.2903 4.75 18.1653 4.75 16.7903V12.2903C4.75 12.0143 4.974 11.7903 5.25 11.7903H11.25ZM14.561 2.85831C14.961 2.58931 15.505 2.69531 15.774 3.09731C16.044 3.49831 15.938 4.04131 15.536 4.31131L12.964 6.04031H17.25C18.625 6.04031 19.75 7.16531 19.75 8.54031V9.79031C19.75 10.0663 19.525 10.2903 19.25 10.2903H12.75V6.01231H11.25V10.2903H4.75C4.474 10.2903 4.25 10.0663 4.25 9.79031V8.54031C4.25 7.16531 5.375 6.04031 6.75 6.04031H11.035L8.463 4.31131C8.062 4.04231 7.955 3.49831 8.225 3.09731C8.494 2.69531 9.037 2.58931 9.438 2.85831L12 4.58031L14.561 2.85831Z" fill="black"/>
</svg>
