<svg width="24" height="24" viewBox="0 0 24 24" fill="none" xmlns="http://www.w3.org/2000/svg">
<path d="M12.0002 19.2162C12.4402 19.2162 12.7978 19.5738 12.7978 20.0138V21.2023C12.7978 21.6423 12.4402 22 12.0002 22C11.5602 22 11.2025 21.6423 11.2025 21.2023V20.0138C11.2025 19.5738 11.5602 19.2162 12.0002 19.2162ZM17.102 17.1018C17.4143 16.7911 17.9189 16.7911 18.2305 17.1026L19.0712 17.9426C19.382 18.2542 19.382 18.7603 19.0712 19.0711C18.7597 19.3818 18.2543 19.3826 17.9428 19.0711L17.102 18.2303C16.7912 17.9195 16.7912 17.4142 17.102 17.1018ZM5.7696 17.1022C6.0804 16.7914 6.5865 16.7914 6.8973 17.1022C7.2088 17.4137 7.2088 17.9191 6.8973 18.2306L6.0573 19.0714C5.7458 19.3829 5.2404 19.3822 4.9288 19.0714C4.6173 18.7598 4.6173 18.2545 4.9288 17.9429L5.7696 17.1022ZM11.0022 13.4828H13.2813L13.7228 14.8667H15.0382L13.6252 10.7936C14.0967 9.63979 14.1336 8.34979 13.7275 7.17359C14.4359 7.41819 15.1059 7.80519 15.6721 8.37129C17.6675 10.3659 17.6675 13.6028 15.6721 15.5982C13.6767 17.5928 10.4405 17.5928 8.4444 15.5982C7.879 15.0328 7.4921 14.3621 7.2475 13.6528C8.0021 13.9136 8.8036 13.9844 9.5875 13.8844L9.2459 14.8667H10.5605L11.0005 13.4913L11.0022 13.4828ZM3.9865 11.2023C4.4265 11.2023 4.7842 11.56 4.7842 12C4.7842 12.44 4.4265 12.7977 3.9865 12.7977H2.798C2.3572 12.7977 2.0003 12.44 2.0003 12C2.0003 11.56 2.3572 11.2023 2.798 11.2023H3.9865ZM21.2025 11.2023C21.6425 11.2023 22.0002 11.56 22.0002 12C22.0002 12.44 21.6425 12.7977 21.2025 12.7977H20.014C19.5732 12.7977 19.2163 12.44 19.2163 12C19.2163 11.56 19.5732 11.2023 20.014 11.2023H21.2025ZM12.1569 9.95499L12.84 12.0965L12.96 12.475H11.3231L12.1308 9.95499H12.1569ZM4.9288 4.92899C5.2404 4.61749 5.7458 4.61749 6.0573 4.92899L6.8973 5.76979C7.2088 6.08049 7.2088 6.58589 6.8973 6.89749C6.5865 7.20899 6.0804 7.20899 5.7696 6.89749L4.9288 6.05749C4.6173 5.74519 4.6173 5.24049 4.9288 4.92899ZM17.9428 4.92889C18.2543 4.61739 18.7597 4.61739 19.0712 4.92889C19.382 5.24049 19.382 5.74579 19.0712 6.05659L18.2305 6.89739C17.9189 7.20889 17.4143 7.20889 17.102 6.89739C16.7912 6.58579 16.7912 6.08119 17.102 5.76889L17.9428 4.92889ZM12.0002 2.00009C12.4402 2.00009 12.7978 2.35699 12.7978 2.79779V3.98619C12.7978 4.42699 12.4402 4.78389 12.0002 4.78389C11.5602 4.78389 11.2025 4.42699 11.2025 3.98619V2.79779C11.2025 2.35699 11.5602 2.00009 12.0002 2.00009Z" fill="black"/>
<path d="M11.4796 8.45281H12.8127L13.625 10.7936C14.0965 9.63981 14.1335 8.34981 13.7273 7.17361C11.9365 6.55521 9.8742 6.94211 8.445 8.37131C7.0158 9.80051 6.6288 11.8621 7.2473 13.6528C8.0019 13.9136 8.8035 13.9844 9.5873 13.8852L11.4796 8.45281Z" fill="black" fill-opacity="0.6"/>
</svg>
