<svg width="24" height="24" viewBox="0 0 24 24" fill="none" xmlns="http://www.w3.org/2000/svg">
<path fill-rule="evenodd" clip-rule="evenodd" d="M20.746 7.074L15.525 5.25C15.452 7.134 13.901 8.643 12 8.643C10.1 8.643 8.549 7.134 8.475 5.251L3.254 7.074C3.024 7.154 2.892 7.41 2.96 7.643L4.063 11.456C4.132 11.689 4.386 11.88 4.629 11.88H6.701V16.542C6.701 17.762 7.689 18.75 8.909 18.75H15.092C16.31 18.75 17.3 17.762 17.3 16.542V11.88H19.372C19.615 11.88 19.869 11.689 19.936 11.456L21.04 7.643C21.108 7.41 20.975 7.154 20.746 7.074Z" stroke="black" stroke-width="1.5" stroke-linecap="round" stroke-linejoin="round"/>
</svg>
