<svg width="24" height="24" viewBox="0 0 24 24" fill="none" xmlns="http://www.w3.org/2000/svg">
<path fill-rule="evenodd" clip-rule="evenodd" d="M15.6055 8.71809C15.2515 8.71809 14.9375 8.49009 14.8285 8.15409L12.7775 4.06509C12.5335 3.31209 11.4675 3.31209 11.2225 4.06509L9.1715 8.15409C9.0625 8.49009 8.7495 8.71809 8.3945 8.71809L4.0675 9.53509C3.2755 9.53509 2.9465 10.5491 3.5865 11.0141L6.7105 14.1511C6.9985 14.3591 7.1175 14.7281 7.0075 15.0651L6.3205 19.4261C6.0755 20.1791 6.9375 20.8051 7.5785 20.3401L11.5195 18.0211C11.8055 17.8131 12.1945 17.8131 12.4805 18.0211L16.4215 20.3401C17.0625 20.8051 17.9245 20.1791 17.6805 19.4261L16.9925 15.0651C16.8825 14.7281 17.0025 14.3591 17.2895 14.1511L20.4135 11.0141C21.0535 10.5491 20.7245 9.53509 19.9325 9.53509L15.6055 8.71809Z" fill="black"/>
</svg>
