<svg width="48" height="48" viewBox="0 0 48 48" fill="none" xmlns="http://www.w3.org/2000/svg">
<g clip-path="url(#clip0_702_1104)">
<path fill-rule="evenodd" clip-rule="evenodd" d="M41.848 5.55199C38.963 2.83999 35.024 1.30199 30.678 0.725985C26.525 0.175985 23.7 0.309985 23.7 0.309985C23.7 0.309985 20.873 0.174985 16.722 0.724986C12.376 1.29999 8.43703 2.83999 5.55203 5.55199C2.84003 8.43699 1.30303 12.376 0.726034 16.722C0.175034 20.872 0.311034 23.7 0.311034 23.7C0.311034 23.7 0.175034 26.526 0.725034 30.677C1.30103 35.024 2.84003 38.963 5.55203 41.847C8.43703 44.56 12.376 46.098 16.722 46.675C20.873 47.225 23.7 47.089 23.7 47.089C23.7 47.089 26.526 47.224 30.677 46.675C35.024 46.098 38.963 44.56 41.847 41.848C44.56 38.963 46.099 35.024 46.675 30.678C47.225 26.526 47.089 23.7 47.089 23.7C47.089 23.7 47.224 20.873 46.675 16.722C46.099 12.376 44.56 8.43699 41.848 5.55199Z" fill="#E63232"/>
<path fill-rule="evenodd" clip-rule="evenodd" d="M24.3749 0.147003C25.9679 0.154003 28.0669 0.228003 30.6969 0.577003C35.0769 1.157 39.044 2.71 41.957 5.449C44.69 8.356 46.243 12.323 46.823 16.703C47.172 19.333 47.2459 21.433 47.2529 22.624C47.2509 23.385 47.2409 23.654 47.2389 23.7C47.2409 23.742 47.2509 23.976 47.2529 24.375C47.2459 25.968 47.172 28.068 46.823 30.697C46.243 35.077 44.69 39.044 41.95 41.957C39.044 44.69 35.0769 46.243 30.6969 46.823C28.0669 47.172 25.9669 47.246 24.7749 47.253C24.0149 47.251 23.7459 47.241 23.6999 47.239C23.6579 47.241 23.4239 47.251 23.0249 47.253C21.4319 47.246 19.3319 47.172 16.7019 46.823C12.3219 46.243 8.35595 44.69 5.44195 41.95C2.70995 39.044 1.15795 35.077 0.577949 30.697C0.228949 28.067 0.154949 25.967 0.147949 24.775C0.149949 24.015 0.159949 23.745 0.161949 23.7C0.159949 23.658 0.149949 23.424 0.147949 23.025C0.154949 21.432 0.228949 19.332 0.577949 16.703C1.15795 12.323 2.71095 8.356 5.45095 5.443C8.35595 2.71 12.3229 1.157 16.7019 0.577003C19.3319 0.228003 21.4319 0.154003 22.6249 0.147003C23.3849 0.149003 23.6549 0.159003 23.6999 0.161003C23.7419 0.159003 23.9759 0.149003 24.3749 0.147003Z" stroke="black" stroke-opacity="0.1" stroke-width="0.3" stroke-linecap="square" stroke-linejoin="bevel"/>
<path fill-rule="evenodd" clip-rule="evenodd" d="M33.8921 27.228C33.1121 27.63 32.0281 26.898 31.4521 26.326C31.4521 26.326 32.8081 26.018 33.4521 26.185C34.0961 26.35 34.6721 26.825 33.8921 27.228ZM21.1301 28.118C23.4671 23.01 24.2001 18.763 24.2001 18.763C24.7401 20.679 28.4721 25.643 28.4721 25.643C24.6461 26.59 21.1301 28.118 21.1301 28.118ZM24.0701 10.114C24.5101 11.772 23.7971 14.331 23.7971 14.331C23.7971 14.331 23.1781 12.372 23.0941 11.117C23.0091 9.86498 23.6351 8.47899 24.0701 10.114ZM14.2791 35.185C13.7021 35.452 12.1421 35.547 12.7211 34.435C13.3551 33.201 18.5751 30.674 18.5751 30.674C16.8151 33.724 14.8551 34.916 14.2791 35.185ZM35.6541 25.579C35.0101 24.572 31.7251 24.506 30.5041 25.009C30.5041 25.009 27.5581 21.515 24.8121 15.706C24.8121 15.706 25.5581 12.55 25.5581 11.071C25.5581 9.59699 25.7961 7.78899 24.0691 7.48499C22.3401 7.17699 21.5621 8.31799 21.5621 10.199C21.5621 12.078 22.4411 15.37 23.0201 16.21C23.0201 16.21 21.2221 24.71 18.9541 29.071C18.9541 29.071 13.8631 31.402 12.3491 32.793C11.2001 33.851 10.2491 35.185 11.3651 36.159C12.4841 37.133 14.8891 36.899 16.6151 35.185C18.3451 33.472 20.2421 30.115 20.2421 30.115C20.2421 30.115 23.0201 28.603 29.6591 26.889C29.6591 26.889 32.0971 29.174 34.0961 28.466C36.0941 27.76 36.2961 26.59 35.6541 25.579Z" fill="white"/>
</g>
<defs>
<clipPath id="clip0_702_1104">
<rect width="48" height="48" fill="white"/>
</clipPath>
</defs>
</svg>
