<svg width="48" height="48" viewBox="0 0 48 48" fill="none" xmlns="http://www.w3.org/2000/svg">
<g clip-path="url(#clip0_702_1212)">
<path fill-rule="evenodd" clip-rule="evenodd" d="M42.378 5.622C39.456 2.876 35.468 1.318 31.066 0.735004C26.862 0.178004 24 0.315004 24 0.315004C24 0.315004 21.137 0.178004 16.934 0.735004C12.532 1.318 8.54401 2.875 5.62301 5.622C2.87601 8.544 1.31801 12.532 0.73501 16.934C0.17701 21.137 0.31501 24 0.31501 24C0.31501 24 0.17701 26.862 0.73501 31.066C1.31801 35.466 2.87501 39.456 5.62201 42.377C8.54401 45.124 12.532 46.682 16.934 47.265C21.137 47.822 24 47.685 24 47.685C24 47.685 26.862 47.822 31.066 47.265C35.467 46.682 39.456 45.125 42.376 42.377C45.124 39.456 46.682 35.467 47.266 31.066C47.822 26.862 47.685 24 47.685 24C47.685 24 47.822 21.137 47.265 16.934C46.682 12.532 45.125 8.544 42.378 5.622Z" fill="#F4F4F4"/>
<path fill-rule="evenodd" clip-rule="evenodd" d="M14.694 26.974C14.694 26.766 14.664 26.58 14.604 26.413C14.544 26.246 14.427 26.091 14.254 25.949C14.082 25.807 13.844 25.667 13.541 25.531C13.238 25.394 12.845 25.249 12.364 25.096C11.817 24.921 11.302 24.724 10.818 24.506C10.334 24.286 9.91 24.028 9.546 23.73C9.182 23.432 8.896 23.089 8.685 22.7C8.475 22.312 8.369 21.858 8.369 21.339C8.369 20.841 8.477 20.386 8.693 19.973C8.909 19.56 9.213 19.209 9.603 18.919C9.994 18.629 10.46 18.404 10.998 18.242C11.537 18.082 12.128 18 12.774 18C13.436 18 14.037 18.092 14.579 18.275C15.12 18.458 15.582 18.714 15.965 19.042C16.348 19.37 16.643 19.76 16.851 20.212C17.059 20.662 17.163 21.156 17.163 21.692H14.702C14.702 21.44 14.662 21.208 14.582 20.994C14.504 20.781 14.382 20.598 14.218 20.444C14.054 20.292 13.848 20.173 13.602 20.088C13.356 20.003 13.067 19.961 12.733 19.961C12.41 19.961 12.13 19.996 11.893 20.067C11.654 20.138 11.458 20.237 11.302 20.363C11.146 20.488 11.028 20.636 10.949 20.806C10.869 20.976 10.83 21.156 10.83 21.347C10.83 21.741 11.03 22.07 11.433 22.335C11.835 22.601 12.424 22.848 13.201 23.078C13.851 23.28 14.424 23.504 14.919 23.75C15.414 23.997 15.827 24.276 16.158 24.587C16.488 24.899 16.738 25.249 16.908 25.637C17.078 26.026 17.163 26.466 17.163 26.958C17.163 27.483 17.06 27.95 16.855 28.361C16.65 28.771 16.359 29.117 15.982 29.399C15.604 29.68 15.149 29.896 14.616 30.046C14.082 30.196 13.488 30.272 12.832 30.272C12.438 30.272 12.044 30.238 11.65 30.17C11.256 30.101 10.88 29.996 10.522 29.854C10.164 29.712 9.832 29.534 9.526 29.32C9.219 29.107 8.953 28.856 8.726 28.566C8.499 28.276 8.321 27.946 8.193 27.578C8.064 27.208 8 26.8 8 26.35H10.469C10.469 26.711 10.526 27.017 10.641 27.269C10.756 27.52 10.916 27.724 11.121 27.879C11.326 28.036 11.574 28.149 11.864 28.22C12.154 28.291 12.476 28.327 12.832 28.327C13.149 28.327 13.425 28.293 13.66 28.224C13.895 28.156 14.09 28.062 14.242 27.941C14.396 27.821 14.509 27.678 14.582 27.511C14.657 27.344 14.694 27.165 14.694 26.973M28.712 29.944H26.252L21.461 22.085V29.944H19V18H21.461L26.26 25.875V18H28.712V29.944ZM33.46 24.743V27.967H35.57C35.886 27.967 36.16 27.927 36.39 27.847C36.62 27.768 36.81 27.659 36.964 27.519C37.117 27.38 37.23 27.216 37.304 27.027C37.378 26.839 37.414 26.632 37.414 26.408C37.414 26.151 37.382 25.92 37.316 25.715C37.251 25.51 37.148 25.335 37.009 25.19C36.869 25.045 36.687 24.934 36.463 24.858C36.239 24.781 35.971 24.743 35.659 24.743H33.46ZM33.46 23.003H35.282C35.911 22.993 36.378 22.86 36.685 22.606C36.991 22.351 37.144 21.989 37.144 21.519C37.144 20.978 36.987 20.588 36.672 20.35C36.358 20.112 35.862 19.993 35.184 19.993H33.46V23.003ZM31 29.944V18H35.184C35.878 18 36.499 18.066 37.046 18.197C37.592 18.328 38.056 18.529 38.436 18.8C38.816 19.07 39.106 19.41 39.306 19.82C39.506 20.231 39.605 20.715 39.605 21.273C39.605 21.546 39.571 21.809 39.502 22.06C39.434 22.312 39.33 22.547 39.191 22.766C39.051 22.984 38.875 23.183 38.661 23.361C38.448 23.538 38.194 23.684 37.899 23.8C38.249 23.887 38.548 24.02 38.797 24.198C39.046 24.375 39.251 24.582 39.412 24.817C39.574 25.052 39.692 25.307 39.765 25.584C39.839 25.86 39.875 26.143 39.875 26.433C39.875 27.592 39.502 28.467 38.756 29.058C38.01 29.648 36.947 29.944 35.569 29.944H31Z" fill="#3B444F"/>
</g>
<defs>
<clipPath id="clip0_702_1212">
<rect width="48" height="48" fill="white"/>
</clipPath>
</defs>
</svg>
