<svg width="48" height="48" viewBox="0 0 48 48" fill="none" xmlns="http://www.w3.org/2000/svg">
<g clip-path="url(#clip0_702_1160)">
<path fill-rule="evenodd" clip-rule="evenodd" d="M42.378 5.622C39.456 2.876 35.468 1.318 31.066 0.735004C26.862 0.178004 24 0.315004 24 0.315004C24 0.315004 21.137 0.178004 16.934 0.735004C12.532 1.318 8.54401 2.875 5.62301 5.622C2.87601 8.544 1.31801 12.532 0.73501 16.934C0.17701 21.137 0.31501 24 0.31501 24C0.31501 24 0.17701 26.862 0.73501 31.066C1.31801 35.466 2.87501 39.456 5.62201 42.377C8.54401 45.124 12.532 46.682 16.934 47.265C21.137 47.822 24 47.685 24 47.685C24 47.685 26.862 47.822 31.066 47.265C35.467 46.682 39.456 45.125 42.376 42.377C45.124 39.456 46.682 35.467 47.266 31.066C47.822 26.862 47.685 24 47.685 24C47.685 24 47.822 21.137 47.265 16.934C46.682 12.532 45.125 8.544 42.378 5.622Z" fill="#3359B5"/>
<path fill-rule="evenodd" clip-rule="evenodd" d="M14.848 27.735H12.992V23.876H9.37401V27.735H7.51901V18.73H9.37401V22.379H12.992V18.73H14.848V27.735ZM23.075 20.233H20.317V27.735H18.461V20.233H15.74V18.73H23.075V20.233ZM26.557 18.73L28.87 25.261L31.171 18.73H33.608V27.735H31.746V25.274L31.932 21.025L29.501 27.735H28.227L25.803 21.031L25.988 25.274V27.735H24.133V18.73H26.557ZM37.084 26.245H41.024V27.735H35.229V18.73H37.084V26.245Z" fill="white"/>
</g>
<defs>
<clipPath id="clip0_702_1160">
<rect width="48" height="48" fill="white"/>
</clipPath>
</defs>
</svg>
