<svg width="48" height="48" viewBox="0 0 48 48" fill="none" xmlns="http://www.w3.org/2000/svg">
<g clip-path="url(#clip0_702_1173)">
<path fill-rule="evenodd" clip-rule="evenodd" d="M42.378 5.622C39.456 2.876 35.468 1.318 31.066 0.735004C26.862 0.178004 24 0.315004 24 0.315004C24 0.315004 21.137 0.178004 16.934 0.735004C12.532 1.318 8.54399 2.875 5.62299 5.622C2.87599 8.544 1.31799 12.532 0.734995 16.934C0.176994 21.137 0.314994 24 0.314994 24C0.314994 24 0.176994 26.862 0.734995 31.066C1.31799 35.466 2.87499 39.456 5.62199 42.377C8.54399 45.124 12.532 46.682 16.934 47.265C21.137 47.822 24 47.685 24 47.685C24 47.685 26.862 47.822 31.066 47.265C35.467 46.682 39.456 45.125 42.376 42.377C45.124 39.456 46.682 35.467 47.266 31.066C47.822 26.862 47.685 24 47.685 24C47.685 24 47.822 21.137 47.265 16.934C46.682 12.532 45.125 8.544 42.378 5.622Z" fill="#F2F2F2"/>
<path fill-rule="evenodd" clip-rule="evenodd" d="M24.65 0.149994C26.233 0.155994 28.383 0.227994 31.085 0.585994C35.52 1.17299 39.537 2.74599 42.487 5.51999C45.254 8.46299 46.827 12.48 47.414 16.914C47.772 19.617 47.844 21.767 47.85 22.964C47.846 23.696 47.837 23.955 47.835 24C47.838 24.056 47.846 24.278 47.849 24.65C47.844 26.233 47.772 28.383 47.414 31.085C46.827 35.52 45.254 39.537 42.48 42.487C39.537 45.254 35.52 46.827 31.085 47.414C28.382 47.772 26.232 47.844 25.035 47.85C24.303 47.846 24.045 47.837 24 47.835C23.944 47.838 23.722 47.846 23.35 47.849C21.767 47.844 19.617 47.772 16.914 47.414C12.479 46.826 8.46299 45.254 5.51399 42.48C2.74599 39.537 1.17399 35.52 0.585994 31.085C0.227994 28.382 0.155994 26.232 0.149994 25.035C0.153994 24.304 0.162994 24.045 0.164994 24C0.162994 23.958 0.153994 23.734 0.150994 23.35C0.155994 21.767 0.227994 19.617 0.585994 16.914C1.17299 12.479 2.74599 8.46299 5.51999 5.51399C8.46299 2.74599 12.48 1.17399 16.914 0.585994C19.617 0.227994 21.768 0.155994 22.964 0.149994C23.697 0.153994 23.955 0.162994 24 0.164994C24.056 0.161994 24.278 0.152994 24.65 0.149994Z" stroke="white" stroke-opacity="0.1" stroke-width="0.3" stroke-linecap="square" stroke-linejoin="bevel"/>
<path fill-rule="evenodd" clip-rule="evenodd" d="M41.187 24.034C41.187 15.383 34.176 8.37 25.525 8.367V24.034H41.187Z" fill="#FF8F6B"/>
<path fill-rule="evenodd" clip-rule="evenodd" d="M25.525 8.367H25.521C16.868 8.367 9.854 15.381 9.854 24.034H25.525V8.367Z" fill="#ED6C47"/>
<path fill-rule="evenodd" clip-rule="evenodd" d="M25.525 24.034H9.855C9.855 32.686 16.868 39.7 25.521 39.7C34.173 39.7 41.187 32.686 41.187 24.034H25.525Z" fill="#D35230"/>
<path fill-rule="evenodd" clip-rule="evenodd" d="M20.525 32.137H9.758C8.13 32.137 6.81 30.817 6.81 29.19V18.423C6.81 16.796 8.13 15.476 9.758 15.476H20.525C22.152 15.476 23.472 16.796 23.472 18.423V29.19C23.472 30.818 22.152 32.137 20.525 32.137Z" fill="#F2F2F2"/>
<path fill-rule="evenodd" clip-rule="evenodd" d="M19.86 31.116H10.297C8.871 31.116 7.714 29.959 7.714 28.533V18.97C7.714 17.543 8.871 16.386 10.297 16.386H19.861C21.287 16.386 22.444 17.543 22.444 18.97V28.533C22.444 29.959 21.286 31.116 19.86 31.116Z" fill="#C43E1C"/>
<path fill-rule="evenodd" clip-rule="evenodd" d="M14.516 21.641V23.805H15.785C16.192 23.805 16.485 23.708 16.665 23.515C16.845 23.32 16.935 23.075 16.935 22.778C16.935 22.478 16.845 22.213 16.665 21.984C16.485 21.756 16.192 21.641 15.785 21.641H14.516ZM14.516 24.951V27.386H13.09V20.49H15.785C16.6 20.49 17.235 20.705 17.691 21.134C18.148 21.564 18.376 22.108 18.376 22.768C18.376 23.435 18.148 23.965 17.691 24.36C17.235 24.754 16.6 24.952 15.785 24.952H14.515L14.516 24.951Z" fill="white"/>
</g>
<defs>
<clipPath id="clip0_702_1173">
<rect width="48" height="48" fill="white"/>
</clipPath>
</defs>
</svg>
