<svg width="48" height="48" viewBox="0 0 48 48" fill="none" xmlns="http://www.w3.org/2000/svg">
<g clip-path="url(#clip0_702_1187)">
<path fill-rule="evenodd" clip-rule="evenodd" d="M42.378 5.622C39.456 2.876 35.468 1.318 31.066 0.735004C26.862 0.178004 24 0.315004 24 0.315004C24 0.315004 21.137 0.178004 16.934 0.735004C12.532 1.318 8.544 2.875 5.623 5.622C2.876 8.544 1.318 12.532 0.734998 16.934C0.176998 21.137 0.314998 24 0.314998 24C0.314998 24 0.176998 26.862 0.734998 31.066C1.318 35.466 2.875 39.456 5.622 42.377C8.544 45.124 12.532 46.682 16.934 47.265C21.137 47.822 24 47.685 24 47.685C24 47.685 26.862 47.822 31.066 47.265C35.467 46.682 39.456 45.125 42.376 42.377C45.124 39.456 46.682 35.467 47.266 31.066C47.822 26.862 47.685 24 47.685 24C47.685 24 47.822 21.137 47.265 16.934C46.682 12.532 45.125 8.544 42.378 5.622Z" fill="#F4F4F4"/>
<path fill-rule="evenodd" clip-rule="evenodd" d="M29.396 32V35H13.259V32H29.396ZM34.259 25.666V28.666H13.259V25.666H34.259ZM29.259 19.334V22.334H13.259V19.334H29.259ZM34.259 13.001V16.001H13.259V13.001H34.259Z" fill="#705D51"/>
</g>
<defs>
<clipPath id="clip0_702_1187">
<rect width="48" height="48" fill="white"/>
</clipPath>
</defs>
</svg>
