<svg width="48" height="48" viewBox="0 0 48 48" fill="none" xmlns="http://www.w3.org/2000/svg">
<g clip-path="url(#clip0_702_1209)">
<path fill-rule="evenodd" clip-rule="evenodd" d="M42.378 5.622C39.456 2.876 35.468 1.318 31.066 0.735004C26.862 0.178004 24 0.315004 24 0.315004C24 0.315004 21.137 0.178004 16.934 0.735004C12.532 1.318 8.54401 2.875 5.62301 5.622C2.87601 8.544 1.31801 12.532 0.73501 16.934C0.17701 21.137 0.31501 24 0.31501 24C0.31501 24 0.17701 26.862 0.73501 31.066C1.31801 35.466 2.87501 39.456 5.62201 42.377C8.54401 45.124 12.532 46.682 16.934 47.265C21.137 47.822 24 47.685 24 47.685C24 47.685 26.862 47.822 31.066 47.265C35.467 46.682 39.456 45.125 42.376 42.377C45.124 39.456 46.682 35.467 47.266 31.066C47.822 26.862 47.685 24 47.685 24C47.685 24 47.822 21.137 47.265 16.934C46.682 12.532 45.125 8.544 42.378 5.622Z" fill="#F4F4F4"/>
<path fill-rule="evenodd" clip-rule="evenodd" d="M13.694 26.974C13.694 26.51 13.53 26.153 13.202 25.904C12.873 25.655 12.282 25.393 11.43 25.116C10.576 24.84 9.9 24.568 9.403 24.3C8.047 23.567 7.37 22.58 7.37 21.339C7.37 20.694 7.552 20.118 7.915 19.612C8.279 19.106 8.801 18.712 9.482 18.427C10.162 18.142 10.926 18 11.774 18C12.627 18 13.387 18.155 14.054 18.464C14.722 18.773 15.24 19.209 15.609 19.772C15.978 20.335 16.163 20.975 16.163 21.692H13.702C13.702 21.145 13.53 20.72 13.185 20.416C12.84 20.113 12.356 19.961 11.733 19.961C11.132 19.961 10.664 20.088 10.33 20.342C9.997 20.596 9.83 20.932 9.83 21.347C9.83 21.735 10.026 22.061 10.416 22.323C10.808 22.586 11.383 22.832 12.143 23.062C13.543 23.482 14.563 24.005 15.203 24.628C15.843 25.252 16.163 26.028 16.163 26.958C16.163 27.992 15.772 28.802 14.99 29.39C14.208 29.978 13.155 30.272 11.832 30.272C10.912 30.272 10.076 30.104 9.322 29.767C8.567 29.432 7.992 28.97 7.594 28.385C7.198 27.8 7 27.122 7 26.351H9.469C9.469 27.669 10.256 28.328 11.832 28.328C12.417 28.328 12.873 28.208 13.202 27.971C13.53 27.733 13.694 27.401 13.694 26.974ZM21.044 18.164L24.112 26.827L27.163 18.164H30.395V30.108H27.926V26.843L28.172 21.207L24.948 30.108H23.258L20.043 21.216L20.289 26.843V30.108H17.828V18.164H21.044ZM35.005 24.907V28.131H37.114C37.694 28.131 38.146 27.993 38.471 27.716C38.797 27.441 38.959 27.059 38.959 26.572C38.959 25.479 38.393 24.924 37.261 24.907H35.005ZM35.005 23.168H36.827C38.067 23.146 38.689 22.651 38.689 21.683C38.689 21.142 38.531 20.753 38.217 20.514C37.903 20.277 37.407 20.158 36.728 20.158H35.005V23.168ZM32.545 30.108V18.164H36.728C38.178 18.164 39.277 18.442 40.026 18.997C40.775 19.552 41.149 20.366 41.149 21.437C41.149 22.022 40.999 22.538 40.699 22.984C40.397 23.43 39.979 23.756 39.443 23.964C40.056 24.117 40.539 24.426 40.891 24.891C41.244 25.356 41.421 25.924 41.421 26.597C41.421 27.746 41.054 28.615 40.321 29.206C39.588 29.796 38.544 30.097 37.187 30.108H32.545Z" fill="#5E5E5E"/>
</g>
<defs>
<clipPath id="clip0_702_1209">
<rect width="48" height="48" fill="white"/>
</clipPath>
</defs>
</svg>
