<svg width="48" height="48" viewBox="0 0 48 48" fill="none" xmlns="http://www.w3.org/2000/svg">
<g clip-path="url(#clip0_702_1153)">
<path fill-rule="evenodd" clip-rule="evenodd" d="M42.0781 5.32189C39.1561 2.57589 35.1681 1.01789 30.7661 0.434894C26.5621 -0.122106 23.7001 0.0148943 23.7001 0.0148943C23.7001 0.0148943 20.8371 -0.122106 16.6341 0.434894C12.2321 1.01789 8.24411 2.57489 5.32311 5.32189C2.57611 8.24389 1.01811 12.2319 0.435114 16.6339C-0.122887 20.8369 0.0151135 23.6999 0.0151135 23.6999C0.0151135 23.6999 -0.122887 26.5619 0.435114 30.7659C1.01811 35.1659 2.57511 39.1559 5.32211 42.0769C8.24411 44.8239 12.2321 46.3819 16.6341 46.9649C20.8371 47.5219 23.7001 47.3849 23.7001 47.3849C23.7001 47.3849 26.5621 47.5219 30.7661 46.9649C35.1671 46.3819 39.1561 44.8249 42.0761 42.0769C44.8241 39.1559 46.3821 35.1669 46.9661 30.7659C47.5221 26.5619 47.3851 23.6999 47.3851 23.6999C47.3851 23.6999 47.5221 20.8369 46.9651 16.6339C46.3821 12.2319 44.8251 8.24389 42.0781 5.32189Z" fill="#F4F4F4"/>
<path d="M10.585 33.333C11.882 33.333 12.932 33.007 13.735 32.355C14.536 31.702 14.937 30.77 14.937 29.558V21.036H12.75L12.658 21.867C12.106 21.204 11.332 20.873 10.335 20.873C9.19903 20.873 8.30403 21.288 7.64903 22.12C6.99503 22.952 6.66803 24.04 6.66803 25.382V25.619C6.67803 26.88 7.01003 27.929 7.66203 28.767C8.31303 29.604 9.19903 30.022 10.318 30.022C11.215 30.022 11.948 29.712 12.516 29.092V29.566C12.516 30.186 12.337 30.663 11.981 30.996C11.625 31.331 11.126 31.498 10.486 31.498C9.61603 31.498 8.88403 31.172 8.28803 30.52L7.21903 31.955C7.60903 32.428 8.13103 32.776 8.78503 32.999C9.44003 33.222 10.04 33.333 10.585 33.333ZM10.927 28.106C10.292 28.106 9.82603 27.857 9.52803 27.36C9.23003 26.862 9.08103 26.26 9.08103 25.554V25.382C9.08103 24.654 9.23403 24.038 9.54103 23.535C9.84703 23.032 10.315 22.781 10.944 22.781C11.674 22.781 12.197 23.05 12.514 23.588V27.291C12.192 27.834 11.662 28.106 10.927 28.106ZM19.348 29.859V17.333H16.926V29.86H19.348V29.859ZM26.926 29.859V19.967H30.643V17.986H20.743V19.967H24.419V29.859H26.926ZM34.586 29.859V25.007H39.398V23.034H34.586V19.967H40V17.986H32.072V29.859H34.586Z" fill="#5E5E5E"/>
</g>
<defs>
<clipPath id="clip0_702_1153">
<rect width="48" height="48" fill="white"/>
</clipPath>
</defs>
</svg>
