<svg width="48" height="48" viewBox="0 0 48 48" fill="none" xmlns="http://www.w3.org/2000/svg">
<g clip-path="url(#clip0_702_1206)">
<path fill-rule="evenodd" clip-rule="evenodd" d="M42.378 5.622C39.456 2.876 35.468 1.318 31.066 0.735004C26.862 0.178004 24 0.315004 24 0.315004C24 0.315004 21.137 0.178004 16.934 0.735004C12.532 1.318 8.54399 2.875 5.62299 5.622C2.87599 8.544 1.31799 12.532 0.734995 16.934C0.176994 21.137 0.314994 24 0.314994 24C0.314994 24 0.176994 26.862 0.734995 31.066C1.31799 35.466 2.87499 39.456 5.62199 42.377C8.54399 45.124 12.532 46.682 16.934 47.265C21.137 47.822 24 47.685 24 47.685C24 47.685 26.862 47.822 31.066 47.265C35.467 46.682 39.456 45.125 42.376 42.377C45.124 39.456 46.682 35.467 47.266 31.066C47.822 26.862 47.685 24 47.685 24C47.685 24 47.822 21.137 47.265 16.934C46.682 12.532 45.125 8.544 42.378 5.622Z" fill="#F4F4F4"/>
<path fill-rule="evenodd" clip-rule="evenodd" d="M9.76201 18.064C11.085 18.064 12.146 18.411 12.945 19.102C13.743 19.794 14.143 20.676 14.143 21.748H11.682C11.682 21.244 11.522 20.832 11.202 20.509C10.882 20.187 10.388 20.025 9.72101 20.025C9.07701 20.025 8.59701 20.159 8.28201 20.427C7.96701 20.694 7.80901 21.023 7.80901 21.412C7.80901 21.805 8.01201 22.133 8.41701 22.396C8.82201 22.659 9.40901 22.907 10.181 23.142C11.487 23.541 12.476 24.041 13.146 24.643C13.816 25.245 14.151 26.038 14.151 27.022C14.151 28.067 13.757 28.881 12.969 29.462C12.182 30.045 11.132 30.336 9.81901 30.336C9.02701 30.336 8.26101 30.197 7.52301 29.917C6.78501 29.639 6.17701 29.209 5.70301 28.63C5.22601 28.05 4.98801 27.31 4.98801 26.407H7.45701C7.45701 27.135 7.67501 27.646 8.10901 27.941C8.54401 28.236 9.11401 28.384 9.81901 28.384C10.454 28.384 10.923 28.255 11.227 27.999C11.531 27.741 11.682 27.421 11.682 27.039C11.682 26.634 11.545 26.301 11.272 26.038C10.998 25.775 10.335 25.473 9.28201 25.132C8.22901 24.79 7.32101 24.348 6.55501 23.807C5.75101 23.243 5.34901 22.441 5.34901 21.403C5.34901 20.403 5.76201 19.595 6.58801 18.983C7.41301 18.371 8.47201 18.064 9.76201 18.064ZM33.842 18.229V20.222H30.192V30.172H27.731V20.222H24.121V18.229H33.842ZM39.325 18.229C40.736 18.229 41.837 18.601 42.626 19.345C43.417 20.087 43.812 21.031 43.812 22.175C43.812 23.327 43.417 24.247 42.626 24.931C41.836 25.615 40.736 25.955 39.326 25.955H37.126V30.172H34.657V18.23L39.325 18.229ZM23.592 18.229V20.22H18.276V23.305H23.002V25.29H18.276V30.17H15.808V18.229H23.592ZM39.325 20.222H37.127V23.97H39.325C40.031 23.97 40.539 23.802 40.851 23.466C41.162 23.128 41.318 22.704 41.318 22.19C41.318 21.67 41.162 21.212 40.851 20.816C40.539 20.419 40.031 20.222 39.325 20.222Z" fill="#5E5E5E"/>
</g>
<defs>
<clipPath id="clip0_702_1206">
<rect width="48" height="48" fill="white"/>
</clipPath>
</defs>
</svg>
