<svg width="48" height="48" viewBox="0 0 48 48" fill="none" xmlns="http://www.w3.org/2000/svg">
<g clip-path="url(#clip0_702_1201)">
<path fill-rule="evenodd" clip-rule="evenodd" d="M42.378 5.622C39.456 2.876 35.468 1.318 31.066 0.735004C26.862 0.178004 24 0.315004 24 0.315004C24 0.315004 21.137 0.178004 16.934 0.735004C12.532 1.318 8.544 2.875 5.623 5.622C2.876 8.544 1.318 12.532 0.735002 16.934C0.177002 21.137 0.315002 24 0.315002 24C0.315002 24 0.177002 26.862 0.735002 31.066C1.318 35.466 2.875 39.456 5.622 42.377C8.544 45.124 12.532 46.682 16.934 47.265C21.137 47.822 24 47.685 24 47.685C24 47.685 26.862 47.822 31.066 47.265C35.467 46.682 39.456 45.125 42.376 42.377C45.124 39.456 46.682 35.467 47.266 31.066C47.822 26.862 47.685 24 47.685 24C47.685 24 47.822 21.137 47.265 16.934C46.682 12.532 45.125 8.544 42.378 5.622Z" fill="#E95B31"/>
<path fill-rule="evenodd" clip-rule="evenodd" d="M24.65 0.149994C26.233 0.155994 28.383 0.227994 31.085 0.585994C35.52 1.17299 39.537 2.74599 42.487 5.51999C45.254 8.46299 46.827 12.48 47.414 16.914C47.772 19.617 47.844 21.767 47.85 22.964C47.846 23.696 47.837 23.955 47.835 24C47.838 24.056 47.846 24.278 47.849 24.65C47.844 26.233 47.772 28.383 47.414 31.085C46.827 35.52 45.254 39.537 42.48 42.487C39.537 45.254 35.52 46.827 31.085 47.414C28.382 47.772 26.232 47.844 25.035 47.85C24.303 47.846 24.045 47.837 24 47.835C23.944 47.838 23.722 47.846 23.35 47.849C21.767 47.844 19.617 47.772 16.914 47.414C12.479 46.826 8.463 45.254 5.514 42.48C2.746 39.537 1.174 35.52 0.586002 31.085C0.228002 28.382 0.156002 26.232 0.150002 25.035C0.154002 24.304 0.163002 24.045 0.165002 24C0.163002 23.958 0.154002 23.734 0.151002 23.35C0.156002 21.767 0.228002 19.617 0.586002 16.914C1.173 12.479 2.746 8.46299 5.52 5.51399C8.463 2.74599 12.48 1.17399 16.914 0.585994C19.617 0.227994 21.768 0.155994 22.964 0.149994C23.697 0.153994 23.955 0.162994 24 0.164994C24.056 0.161994 24.278 0.152994 24.65 0.149994Z" stroke="white" stroke-opacity="0.1" stroke-width="0.3" stroke-linecap="square" stroke-linejoin="bevel"/>
<path fill-rule="evenodd" clip-rule="evenodd" d="M36.778 26.716V16.814C36.778 14.097 34.576 11.894 31.86 11.894H16.12C14.385 11.894 12.863 12.796 11.987 14.154C13.149 14.527 13.991 15.616 13.991 16.902C13.991 18.463 12.751 19.732 11.202 19.784V21.857C12.75 21.91 13.991 23.179 13.991 24.739C13.991 26.301 12.751 27.569 11.202 27.622V29.694C12.75 29.748 13.991 31.016 13.991 32.577C13.991 33.842 13.176 34.915 12.044 35.305C12.928 36.612 14.424 37.471 16.121 37.471H26.342L36.778 26.716Z" fill="white"/>
<path fill-rule="evenodd" clip-rule="evenodd" d="M36.526 26.98H31.245C28.528 26.98 26.327 29.18 26.327 31.898V37.482L36.526 26.98ZM17.268 20.856H31.601V17.856H17.268V20.856ZM17.268 27.189H24.934V24.189H17.268V27.189Z" fill="#C34500"/>
</g>
<defs>
<clipPath id="clip0_702_1201">
<rect width="48" height="48" fill="white"/>
</clipPath>
</defs>
</svg>
