<svg width="48" height="48" viewBox="0 0 48 48" fill="none" xmlns="http://www.w3.org/2000/svg">
<g clip-path="url(#clip0_702_1244)">
<path fill-rule="evenodd" clip-rule="evenodd" d="M42.378 5.622C39.456 2.876 35.468 1.318 31.066 0.735004C26.862 0.178004 24 0.315004 24 0.315004C24 0.315004 21.137 0.178004 16.934 0.735004C12.532 1.318 8.54398 2.875 5.62298 5.622C2.87598 8.544 1.31798 12.532 0.734979 16.934C0.176979 21.137 0.314979 24 0.314979 24C0.314979 24 0.176979 26.862 0.734979 31.066C1.31798 35.466 2.87498 39.456 5.62198 42.377C8.54398 45.124 12.532 46.682 16.934 47.265C21.137 47.822 24 47.685 24 47.685C24 47.685 26.862 47.822 31.066 47.265C35.467 46.682 39.456 45.125 42.376 42.377C45.124 39.456 46.682 35.467 47.266 31.066C47.822 26.862 47.685 24 47.685 24C47.685 24 47.822 21.137 47.265 16.934C46.682 12.532 45.125 8.544 42.378 5.622Z" fill="#F2F2F2"/>
<path fill-rule="evenodd" clip-rule="evenodd" d="M24.65 0.149994C26.233 0.155994 28.383 0.227994 31.085 0.585994C35.52 1.17299 39.537 2.74599 42.487 5.51999C45.254 8.46299 46.827 12.48 47.414 16.914C47.772 19.617 47.844 21.767 47.85 22.964C47.846 23.696 47.837 23.955 47.835 24C47.838 24.056 47.846 24.278 47.849 24.65C47.844 26.233 47.772 28.383 47.414 31.085C46.827 35.52 45.254 39.537 42.48 42.487C39.537 45.254 35.52 46.827 31.085 47.414C28.382 47.772 26.232 47.844 25.035 47.85C24.303 47.846 24.045 47.837 24 47.835C23.944 47.838 23.722 47.846 23.35 47.849C21.767 47.844 19.617 47.772 16.914 47.414C12.479 46.826 8.46302 45.254 5.51402 42.48C2.74602 39.537 1.17402 35.52 0.586024 31.085C0.228024 28.382 0.156024 26.232 0.150024 25.035C0.154024 24.304 0.163024 24.045 0.165024 24C0.163024 23.958 0.154024 23.734 0.151024 23.35C0.156024 21.767 0.228024 19.617 0.586024 16.914C1.17302 12.479 2.74602 8.46299 5.52002 5.51399C8.46302 2.74599 12.48 1.17399 16.914 0.585994C19.617 0.227994 21.768 0.155994 22.964 0.149994C23.697 0.153994 23.955 0.162994 24 0.164994C24.056 0.161994 24.278 0.152994 24.65 0.149994Z" stroke="white" stroke-opacity="0.1" stroke-width="0.3" stroke-linecap="square" stroke-linejoin="bevel"/>
<path fill-rule="evenodd" clip-rule="evenodd" d="M16.75 30.636V34.683C16.75 35.993 17.813 37.055 19.123 37.055H37.773C39.083 37.055 40.146 35.993 40.146 34.683V30.636H16.75Z" fill="#103F91"/>
<path fill-rule="evenodd" clip-rule="evenodd" d="M40.146 13.385C40.146 12.074 39.084 11.012 37.773 11.012H19.123C17.813 11.012 16.75 12.074 16.75 13.385V18.457H40.146V13.385Z" fill="#41A5EE"/>
<path fill-rule="evenodd" clip-rule="evenodd" d="M16.75 24.546H40.146V18.457H16.75V24.546Z" fill="#2B7CD3"/>
<path fill-rule="evenodd" clip-rule="evenodd" d="M16.75 30.636H40.146V24.546H16.75V30.636Z" fill="#185ABD"/>
<path fill-rule="evenodd" clip-rule="evenodd" d="M21.64 32.775H10.873C9.24503 32.775 7.92603 31.455 7.92603 29.828V19.06C7.92603 17.432 9.24603 16.113 10.873 16.113H21.64C23.268 16.113 24.587 17.433 24.587 19.06V29.827C24.587 31.454 23.267 32.774 21.64 32.774" fill="#F2F2F2"/>
<path fill-rule="evenodd" clip-rule="evenodd" d="M21.038 31.81H11.475C10.048 31.81 8.89099 30.652 8.89099 29.226V19.663C8.89099 18.236 10.048 17.079 11.475 17.079H21.038C22.465 17.079 23.621 18.236 23.621 19.663V29.226C23.621 30.652 22.465 31.81 21.038 31.81Z" fill="#185ABD"/>
<path fill-rule="evenodd" clip-rule="evenodd" d="M13.581 28.121L12.047 21.225H13.463L14.396 26.117L15.533 21.225H16.736L17.872 26.117L18.801 21.225H20.212L18.687 28.121H17.257L16.134 23.508L15.012 28.121H13.581Z" fill="white"/>
</g>
<defs>
<clipPath id="clip0_702_1244">
<rect width="48" height="48" fill="white"/>
</clipPath>
</defs>
</svg>
