<svg width="48" height="48" viewBox="0 0 48 48" fill="none" xmlns="http://www.w3.org/2000/svg">
<g clip-path="url(#clip0_702_1168)">
<path fill-rule="evenodd" clip-rule="evenodd" d="M42.378 5.622C39.456 2.876 35.468 1.318 31.066 0.735004C26.862 0.178004 24 0.315004 24 0.315004C24 0.315004 21.137 0.178004 16.934 0.735004C12.532 1.318 8.54401 2.875 5.62301 5.622C2.87601 8.544 1.31801 12.532 0.73501 16.934C0.17701 21.137 0.31501 24 0.31501 24C0.31501 24 0.17701 26.862 0.73501 31.066C1.31801 35.466 2.87501 39.456 5.62201 42.377C8.54401 45.124 12.532 46.682 16.934 47.265C21.137 47.822 24 47.685 24 47.685C24 47.685 26.862 47.822 31.066 47.265C35.467 46.682 39.456 45.125 42.376 42.377C45.124 39.456 46.682 35.467 47.266 31.066C47.822 26.862 47.685 24 47.685 24C47.685 24 47.822 21.137 47.265 16.934C46.682 12.532 45.125 8.544 42.378 5.622Z" fill="#E95B31"/>
<path fill-rule="evenodd" clip-rule="evenodd" d="M24.65 0.149994C26.233 0.155994 28.383 0.227994 31.085 0.585994C35.52 1.17299 39.537 2.74599 42.487 5.51999C45.254 8.46299 46.827 12.48 47.414 16.914C47.772 19.617 47.844 21.767 47.85 22.964C47.846 23.696 47.837 23.955 47.835 24C47.838 24.056 47.846 24.278 47.849 24.65C47.844 26.233 47.772 28.383 47.414 31.085C46.827 35.52 45.254 39.537 42.48 42.487C39.537 45.254 35.52 46.827 31.085 47.414C28.382 47.772 26.232 47.844 25.035 47.85C24.303 47.846 24.045 47.837 24 47.835C23.944 47.838 23.722 47.846 23.35 47.849C21.767 47.844 19.617 47.772 16.914 47.414C12.479 46.826 8.46299 45.254 5.51399 42.48C2.74599 39.537 1.17399 35.52 0.585994 31.085C0.227994 28.382 0.155994 26.232 0.149994 25.035C0.153994 24.304 0.162994 24.045 0.164994 24C0.162994 23.958 0.153994 23.734 0.150994 23.35C0.155994 21.767 0.227994 19.617 0.585994 16.914C1.17299 12.479 2.74599 8.46299 5.51999 5.51399C8.46299 2.74599 12.48 1.17399 16.914 0.585994C19.617 0.227994 21.768 0.155994 22.964 0.149994C23.697 0.153994 23.955 0.162994 24 0.164994C24.056 0.161994 24.278 0.152994 24.65 0.149994Z" stroke="white" stroke-opacity="0.1" stroke-width="0.3" stroke-linecap="square" stroke-linejoin="bevel"/>
<path fill-rule="evenodd" clip-rule="evenodd" d="M37.016 16.056V32.01C37.016 34.793 34.76 37.05 31.976 37.05H16.022C13.239 37.05 10.983 34.793 10.983 32.01V16.056C10.983 13.272 13.239 11.017 16.022 11.017H31.978C34.761 11.017 37.016 13.272 37.016 16.056Z" fill="white"/>
<path fill-rule="evenodd" clip-rule="evenodd" d="M17.051 19.217H30.947V16.217H17.051V19.217ZM17.051 25.533H30.947V22.533H17.051V25.533ZM17.051 31.85H30.947V28.85H17.051V31.85Z" fill="#C34500"/>
</g>
<defs>
<clipPath id="clip0_702_1168">
<rect width="48" height="48" fill="white"/>
</clipPath>
</defs>
</svg>
