<svg width="48" height="48" viewBox="0 0 48 48" fill="none" xmlns="http://www.w3.org/2000/svg">
<g clip-path="url(#clip0_702_1225)">
<path fill-rule="evenodd" clip-rule="evenodd" d="M24.65 0.149994C26.233 0.155994 28.383 0.227994 31.085 0.585994C35.52 1.17299 39.537 2.74599 42.487 5.51999C45.254 8.46299 46.827 12.48 47.414 16.914C47.772 19.617 47.844 21.767 47.85 22.964C47.846 23.696 47.837 23.955 47.835 24C47.838 24.056 47.846 24.278 47.849 24.65C47.844 26.233 47.772 28.383 47.414 31.085C46.827 35.52 45.254 39.537 42.48 42.487C39.537 45.254 35.52 46.827 31.085 47.414C28.382 47.772 26.232 47.844 25.035 47.85C24.303 47.846 24.045 47.837 24 47.835C23.944 47.838 23.722 47.846 23.35 47.849C21.767 47.844 19.617 47.772 16.914 47.414C12.479 46.826 8.46302 45.254 5.51402 42.48C2.74602 39.537 1.17402 35.52 0.586024 31.085C0.228024 28.382 0.156024 26.232 0.150024 25.035C0.154024 24.304 0.163024 24.045 0.165024 24C0.163024 23.958 0.154024 23.734 0.151024 23.35C0.156024 21.767 0.228024 19.617 0.586024 16.914C1.17302 12.479 2.74602 8.46299 5.52002 5.51399C8.46302 2.74599 12.48 1.17399 16.914 0.585994C19.617 0.227994 21.768 0.155994 22.964 0.149994C23.697 0.153994 23.955 0.162994 24 0.164994C24.056 0.161994 24.278 0.152994 24.65 0.149994Z" stroke="white" stroke-opacity="0.1" stroke-width="0.3" stroke-linecap="square" stroke-linejoin="bevel"/>
<path fill-rule="evenodd" clip-rule="evenodd" d="M47.231 16.944C46.65 12.549 45.093 8.566 42.351 5.648H42.35C39.433 2.906 35.45 1.35 31.054 0.767999C26.858 0.209999 24 0.347999 24 0.347999C24 0.347999 21.142 0.210999 16.944 0.767999C12.548 1.35 8.56601 2.906 5.64801 5.648C2.90601 8.566 1.35001 12.548 0.76801 16.944C0.21001 21.141 0.34601 24 0.34601 24C0.34601 24 0.20901 26.858 0.76601 31.056C1.34801 35.451 2.90401 39.434 5.64601 42.352C8.56401 45.094 12.546 46.65 16.942 47.233C21.139 47.789 23.998 47.652 23.998 47.652C23.998 47.652 26.856 47.789 31.054 47.233C35.449 46.65 39.432 45.094 42.349 42.352C45.092 39.434 46.649 35.451 47.23 31.056C47.786 26.858 47.65 24 47.65 24C47.65 24 47.787 21.141 47.231 16.944Z" fill="#0C967C"/>
<path fill-rule="evenodd" clip-rule="evenodd" d="M34.27 11.52H32.293C32.249 13.07 30.982 14.314 29.421 14.314C27.861 14.314 26.595 13.07 26.551 11.52H21.447C21.403 13.07 20.137 14.314 18.577 14.314C17.016 14.314 15.749 13.07 15.705 11.52H13.729C12.368 11.52 11.264 12.623 11.264 13.985V34.525C11.264 35.886 12.368 36.99 13.729 36.99H34.269C35.631 36.99 36.734 35.886 36.734 34.525V13.985C36.734 12.623 35.631 11.52 34.27 11.52Z" fill="white"/>
<path fill-rule="evenodd" clip-rule="evenodd" d="M32.523 24.706C31.473 24.706 30.618 23.851 30.618 22.801C30.618 21.751 31.472 20.895 32.523 20.895C33.573 20.895 34.429 21.75 34.429 22.801C34.429 23.851 33.574 24.706 32.523 24.706ZM27.035 24.706C25.985 24.706 25.129 23.849 25.129 22.801C25.129 21.751 25.986 20.894 27.035 20.894C28.086 20.894 28.941 21.75 28.941 22.801C28.941 23.849 28.086 24.706 27.035 24.706ZM27.035 30.009C25.985 30.009 25.13 29.154 25.13 28.105C25.13 27.055 25.986 26.198 27.035 26.198C28.087 26.198 28.94 27.055 28.94 28.105C28.94 29.155 28.087 30.009 27.035 30.009ZM21.549 24.706C20.499 24.706 19.642 23.849 19.642 22.801C19.642 21.751 20.498 20.894 21.549 20.894C22.6 20.894 23.454 21.75 23.454 22.801C23.454 23.849 22.6 24.706 21.549 24.706ZM21.549 30.009C20.499 30.009 19.643 29.154 19.643 28.105C19.643 27.055 20.499 26.198 21.549 26.198C22.599 26.198 23.455 27.055 23.455 28.105C23.455 29.155 22.599 30.009 21.549 30.009ZM16.062 30.009C15.01 30.009 14.156 29.154 14.156 28.105C14.156 27.055 15.01 26.198 16.062 26.198C17.112 26.198 17.967 27.055 17.967 28.105C17.967 29.155 17.113 30.009 16.062 30.009Z" fill="#00665E"/>
</g>
<defs>
<clipPath id="clip0_702_1225">
<rect width="48" height="48" fill="white"/>
</clipPath>
</defs>
</svg>
