<svg width="48" height="48" viewBox="0 0 48 48" fill="none" xmlns="http://www.w3.org/2000/svg">
<g clip-path="url(#clip0_702_1126)">
<path fill-rule="evenodd" clip-rule="evenodd" d="M42.378 5.622C39.456 2.876 35.468 1.318 31.066 0.735004C26.862 0.178004 24 0.315004 24 0.315004C24 0.315004 21.137 0.178004 16.934 0.735004C12.532 1.318 8.54404 2.875 5.62304 5.622C2.87604 8.544 1.31804 12.532 0.73504 16.934C0.17704 21.137 0.31504 24 0.31504 24C0.31504 24 0.17704 26.862 0.73504 31.066C1.31804 35.466 2.87504 39.456 5.62204 42.377C8.54404 45.124 12.532 46.682 16.934 47.265C21.137 47.822 24 47.685 24 47.685C24 47.685 26.862 47.822 31.066 47.265C35.467 46.682 39.456 45.125 42.376 42.377C45.124 39.456 46.682 35.467 47.266 31.066C47.822 26.862 47.685 24 47.685 24C47.685 24 47.822 21.137 47.265 16.934C46.682 12.532 45.125 8.544 42.378 5.622Z" fill="#FE7F52"/>
<path fill-rule="evenodd" clip-rule="evenodd" d="M12.032 13.629H35.967C37.289 13.629 38.359 14.684 38.359 15.986V32.014C38.359 33.316 37.289 34.372 35.967 34.372H12.032C10.711 34.372 9.63904 33.316 9.63904 32.014V15.986C9.63904 14.684 10.711 13.629 12.032 13.629Z" fill="white"/>
<path fill-rule="evenodd" clip-rule="evenodd" d="M14.817 18.805C14.554 19.069 14.185 19.227 13.783 19.213H13.78C13.009 19.186 12.406 18.539 12.433 17.769C12.459 16.999 13.104 16.396 13.876 16.422C14.646 16.449 15.252 17.095 15.225 17.865C15.212 18.233 15.058 18.564 14.817 18.805ZM32.775 17.865C32.748 17.095 33.353 16.448 34.124 16.422C34.894 16.396 35.541 16.998 35.567 17.769C35.594 18.539 34.99 19.186 34.22 19.213H34.216C33.814 19.227 33.446 19.068 33.183 18.804C32.941 18.564 32.787 18.234 32.775 17.865Z" fill="#F2501D"/>
<path fill-rule="evenodd" clip-rule="evenodd" d="M24.0001 27.664L12.9611 18.911L14.6961 16.723L24.0001 24.101L33.3031 16.723L35.0381 18.911L24.0001 27.664Z" fill="#F2501D"/>
</g>
<defs>
<clipPath id="clip0_702_1126">
<rect width="48" height="48" fill="white"/>
</clipPath>
</defs>
</svg>
