<svg width="48" height="48" viewBox="0 0 48 48" fill="none" xmlns="http://www.w3.org/2000/svg">
<g clip-path="url(#clip0_702_1182)">
<path fill-rule="evenodd" clip-rule="evenodd" d="M42.378 5.622C39.456 2.876 35.468 1.318 31.066 0.735004C26.862 0.178004 24 0.315004 24 0.315004C24 0.315004 21.137 0.178004 16.934 0.735004C12.532 1.318 8.54399 2.875 5.62299 5.622C2.87599 8.544 1.31799 12.532 0.734995 16.934C0.176994 21.137 0.314994 24 0.314994 24C0.314994 24 0.176994 26.862 0.734995 31.066C1.31799 35.466 2.87499 39.456 5.62199 42.377C8.54399 45.124 12.532 46.682 16.934 47.265C21.137 47.822 24 47.685 24 47.685C24 47.685 26.862 47.822 31.066 47.265C35.467 46.682 39.456 45.125 42.376 42.377C45.124 39.456 46.682 35.467 47.266 31.066C47.822 26.862 47.685 24 47.685 24C47.685 24 47.822 21.137 47.265 16.934C46.682 12.532 45.125 8.544 42.378 5.622Z" fill="#EF7B7B"/>
<path fill-rule="evenodd" clip-rule="evenodd" d="M24.65 0.149994C26.233 0.155994 28.383 0.227994 31.085 0.585994C35.52 1.17299 39.537 2.74599 42.487 5.51999C45.254 8.46299 46.827 12.48 47.414 16.914C47.772 19.617 47.844 21.767 47.85 22.964C47.846 23.696 47.837 23.955 47.835 24C47.838 24.056 47.846 24.278 47.849 24.65C47.844 26.233 47.772 28.383 47.414 31.085C46.827 35.52 45.254 39.537 42.48 42.487C39.537 45.254 35.52 46.827 31.085 47.414C28.382 47.772 26.232 47.844 25.035 47.85C24.303 47.846 24.045 47.837 24 47.835C23.944 47.838 23.722 47.846 23.35 47.849C21.767 47.844 19.617 47.772 16.914 47.414C12.479 46.826 8.46299 45.254 5.51399 42.48C2.74599 39.537 1.17399 35.52 0.585994 31.085C0.227994 28.382 0.155994 26.232 0.149994 25.035C0.153994 24.304 0.162994 24.045 0.164994 24C0.162994 23.958 0.153994 23.734 0.150994 23.35C0.155994 21.767 0.227994 19.617 0.585994 16.914C1.17299 12.479 2.74599 8.46299 5.51999 5.51399C8.46299 2.74599 12.48 1.17399 16.914 0.585994C19.617 0.227994 21.768 0.155994 22.964 0.149994C23.697 0.153994 23.955 0.162994 24 0.164994C24.056 0.161994 24.278 0.152994 24.65 0.149994Z" stroke="white" stroke-opacity="0.1" stroke-width="0.3" stroke-linecap="square" stroke-linejoin="bevel"/>
<path fill-rule="evenodd" clip-rule="evenodd" d="M17.476 14.732C18.836 14.732 19.934 13.632 19.934 12.272C19.934 10.915 18.836 9.815 17.476 9.815C16.119 9.815 15.018 10.915 15.018 12.273C15.018 13.632 16.118 14.732 17.476 14.732Z" fill="#C10040"/>
<path fill-rule="evenodd" clip-rule="evenodd" d="M32.641 27.156H15.783C14.11 27.156 12.669 26.179 11.989 24.769L16.459 19.154L19.086 22.452L27.373 12.044L36.759 23.834C36.349 25.732 34.664 27.156 32.641 27.156ZM17.159 33.882H18.176C18.341 33.882 18.486 33.86 18.611 33.817C18.736 33.773 18.84 33.711 18.923 33.631C19.005 33.551 19.068 33.456 19.11 33.346C19.152 33.235 19.173 33.111 19.173 32.973C19.173 32.685 19.091 32.458 18.927 32.293C18.763 32.127 18.511 32.044 18.172 32.044H17.159V33.882ZM18.164 34.903H17.159V37.144H15.897V31.023H18.172C18.525 31.023 18.842 31.063 19.122 31.143C19.402 31.222 19.639 31.34 19.832 31.496C20.026 31.651 20.175 31.844 20.278 32.074C20.382 32.304 20.434 32.57 20.434 32.873C20.434 33.097 20.409 33.298 20.358 33.476C20.308 33.654 20.235 33.812 20.14 33.951C20.044 34.09 19.93 34.211 19.795 34.315C19.66 34.418 19.509 34.508 19.341 34.584L20.665 37.085V37.145H19.311L18.164 34.903ZM22.976 34.861H24.506L23.737 32.57L22.976 34.861ZM24.847 35.883H22.636L22.215 37.144H20.874L23.153 31.022H24.321L26.613 37.144H25.272L24.847 35.883ZM31.799 35.378L32.623 31.023H33.88L32.522 37.144H31.252L30.256 33.049L29.259 37.144H27.99L26.632 31.023H27.889L28.717 35.37L29.726 31.023H30.794L31.799 35.378Z" fill="white"/>
</g>
<defs>
<clipPath id="clip0_702_1182">
<rect width="48" height="48" fill="white"/>
</clipPath>
</defs>
</svg>
