<svg width="48" height="48" viewBox="0 0 48 48" fill="none" xmlns="http://www.w3.org/2000/svg">
<g clip-path="url(#clip0_702_1113)">
<path fill-rule="evenodd" clip-rule="evenodd" d="M42.378 5.622C39.456 2.876 35.468 1.318 31.066 0.735004C26.862 0.178004 24 0.315004 24 0.315004C24 0.315004 21.137 0.178004 16.934 0.735004C12.532 1.318 8.54404 2.875 5.62304 5.622C2.87604 8.544 1.31804 12.532 0.73504 16.934C0.17704 21.137 0.31504 24 0.31504 24C0.31504 24 0.17704 26.862 0.73504 31.066C1.31804 35.466 2.87504 39.456 5.62204 42.377C8.54404 45.124 12.532 46.682 16.934 47.265C21.137 47.822 24 47.685 24 47.685C24 47.685 26.862 47.822 31.066 47.265C35.467 46.682 39.456 45.125 42.376 42.377C45.124 39.456 46.682 35.467 47.266 31.066C47.822 26.862 47.685 24 47.685 24C47.685 24 47.822 21.137 47.265 16.934C46.682 12.532 45.125 8.544 42.378 5.622Z" fill="#6EBE64"/>
<path fill-rule="evenodd" clip-rule="evenodd" d="M24.65 0.149994C26.233 0.155994 28.383 0.227994 31.085 0.585994C35.52 1.17299 39.537 2.74599 42.487 5.51999C45.254 8.46299 46.827 12.48 47.414 16.914C47.772 19.617 47.844 21.767 47.85 22.964C47.846 23.696 47.837 23.955 47.835 24C47.838 24.056 47.846 24.278 47.849 24.65C47.844 26.233 47.772 28.383 47.414 31.085C46.827 35.52 45.254 39.537 42.48 42.487C39.537 45.254 35.52 46.827 31.085 47.414C28.382 47.772 26.232 47.844 25.035 47.85C24.303 47.846 24.045 47.837 24 47.835C23.944 47.838 23.722 47.846 23.35 47.849C21.767 47.844 19.617 47.772 16.914 47.414C12.479 46.826 8.46302 45.254 5.51402 42.48C2.74602 39.537 1.17402 35.52 0.586024 31.085C0.228024 28.382 0.156024 26.232 0.150024 25.035C0.154024 24.304 0.163024 24.045 0.165024 24C0.163024 23.958 0.154024 23.734 0.151024 23.35C0.156024 21.767 0.228024 19.617 0.586024 16.914C1.17302 12.479 2.74602 8.46299 5.52002 5.51399C8.46302 2.74599 12.48 1.17399 16.914 0.585994C19.617 0.227994 21.768 0.155994 22.964 0.149994C23.697 0.153994 23.955 0.162994 24 0.164994C24.056 0.161994 24.278 0.152994 24.65 0.149994Z" stroke="black" stroke-opacity="0.1" stroke-width="0.3" stroke-linecap="square" stroke-linejoin="bevel"/>
<path fill-rule="evenodd" clip-rule="evenodd" d="M8.76699 27.12C8.76699 26.97 8.79299 26.83 8.84599 26.7C8.89799 26.57 8.97299 26.459 9.07099 26.365C9.16899 26.272 9.28699 26.198 9.42299 26.143C9.55999 26.088 9.71299 26.061 9.88099 26.061C10.05 26.061 10.204 26.088 10.343 26.143C10.482 26.198 10.6 26.272 10.698 26.365C10.796 26.459 10.871 26.571 10.924 26.7C10.976 26.83 11.002 26.97 11.002 27.12C11.002 27.271 10.976 27.41 10.924 27.538C10.871 27.665 10.796 27.776 10.698 27.869C10.6 27.963 10.482 28.036 10.343 28.088C10.203 28.14 10.05 28.167 9.88099 28.167C9.71299 28.167 9.55999 28.14 9.42299 28.088C9.28699 28.036 9.16899 27.963 9.07099 27.869C8.97299 27.776 8.89799 27.665 8.84599 27.538C8.79299 27.41 8.76599 27.271 8.76599 27.121M15.439 24.38H17.927L16.677 20.654L15.439 24.38ZM18.481 26.04H14.885L14.201 28.091H12.021L15.726 18.138H17.626L21.352 28.091H19.172L18.481 26.04ZM24.332 22.923H26.164C26.456 22.923 26.708 22.887 26.92 22.814C27.132 22.741 27.305 22.639 27.439 22.51C27.574 22.38 27.673 22.224 27.737 22.041C27.8 21.859 27.832 21.661 27.832 21.447C27.832 21.233 27.8 21.027 27.737 20.828C27.673 20.63 27.574 20.455 27.439 20.302C27.305 20.149 27.132 20.027 26.919 19.936C26.708 19.846 26.456 19.799 26.164 19.799H24.332V22.923ZM24.332 24.584V28.091H22.282V18.138H26.164C26.752 18.138 27.277 18.22 27.74 18.384C28.202 18.548 28.595 18.777 28.916 19.071C29.237 19.365 29.482 19.714 29.651 20.117C29.819 20.52 29.904 20.959 29.904 21.433C29.904 21.916 29.819 22.351 29.651 22.739C29.482 23.126 29.237 23.457 28.916 23.73C28.595 24.003 28.202 24.214 27.74 24.362C27.277 24.511 26.752 24.584 26.164 24.584H24.332ZM34.429 24.099L33.363 25.247V28.091H31.312V18.138H33.363V22.65L34.265 21.413L36.801 18.138H39.324L35.789 22.561L39.426 28.091H36.986L34.429 24.099Z" fill="white"/>
</g>
<defs>
<clipPath id="clip0_702_1113">
<rect width="48" height="48" fill="white"/>
</clipPath>
</defs>
</svg>
