<svg width="48" height="48" viewBox="0 0 48 48" fill="none" xmlns="http://www.w3.org/2000/svg">
<g clip-path="url(#clip0_702_1215)">
<path fill-rule="evenodd" clip-rule="evenodd" d="M42.61 5.39C39.651 2.608 35.612 1.03 31.155 0.44C26.898 -0.124 24 0.0149998 24 0.0149998C24 0.0149998 21.101 -0.124 16.844 0.44C12.387 1.03 8.34801 2.608 5.39001 5.39C2.60801 8.348 1.03001 12.387 0.440006 16.844C-0.123994 21.101 0.0150058 24 0.0150058 24C0.0150058 24 -0.124994 26.898 0.440006 31.155C1.03001 35.612 2.60801 39.651 5.39001 42.61C8.34801 45.392 12.387 46.97 16.844 47.56C21.101 48.124 24 47.985 24 47.985C24 47.985 26.898 48.124 31.155 47.56C35.612 46.97 39.651 45.392 42.61 42.61C45.392 39.651 46.97 35.612 47.56 31.155C48.124 26.898 47.985 24 47.985 24C47.985 24 48.124 21.1 47.56 16.844C46.97 12.387 45.392 8.348 42.61 5.39Z" fill="#F4F4F4"/>
<path fill-rule="evenodd" clip-rule="evenodd" d="M41.848 5.55199C38.963 2.83999 35.024 1.30199 30.678 0.725985C26.525 0.175985 23.7 0.309985 23.7 0.309985C23.7 0.309985 20.873 0.174985 16.722 0.724986C12.376 1.29999 8.437 2.83999 5.552 5.55199C2.84 8.43699 1.303 12.376 0.726003 16.722C0.175003 20.872 0.311003 23.7 0.311003 23.7C0.311003 23.7 0.175003 26.526 0.725003 30.677C1.301 35.024 2.84 38.963 5.552 41.847C8.437 44.56 12.376 46.098 16.722 46.675C20.873 47.225 23.7 47.089 23.7 47.089C23.7 47.089 26.526 47.224 30.677 46.675C35.024 46.098 38.963 44.56 41.847 41.848C44.56 38.963 46.099 35.024 46.675 30.678C47.225 26.526 47.089 23.7 47.089 23.7C47.089 23.7 47.224 20.873 46.675 16.722C46.099 12.376 44.56 8.43699 41.848 5.55199Z" fill="#F4F4F4" fill-opacity="0.968"/>
<path fill-rule="evenodd" clip-rule="evenodd" d="M15.3795 26.441C15.3795 26.24 15.3505 26.06 15.2925 25.899C15.2345 25.737 15.1215 25.588 14.9545 25.451C14.7875 25.313 14.5565 25.179 14.2625 25.047C13.9675 24.915 13.5875 24.775 13.1205 24.627C12.5905 24.457 12.0905 24.267 11.6205 24.057C11.1505 23.845 10.7405 23.597 10.3875 23.308C10.0345 23.021 9.75551 22.688 9.55151 22.314C9.34751 21.939 9.24551 21.501 9.24551 20.999C9.24551 20.519 9.34951 20.079 9.55951 19.68C9.76951 19.282 10.0635 18.942 10.4425 18.662C10.8225 18.382 11.2725 18.165 11.7955 18.009C12.3175 17.853 12.8925 17.775 13.5175 17.775C14.1585 17.775 14.7425 17.864 15.2675 18.041C15.7925 18.218 16.2415 18.464 16.6125 18.781C16.9835 19.098 17.2705 19.474 17.4725 19.911C17.6725 20.345 17.7735 20.822 17.7735 21.34H15.3885C15.3885 21.097 15.3485 20.872 15.2725 20.666C15.1955 20.461 15.0775 20.284 14.9185 20.136C14.7585 19.988 14.5605 19.873 14.3215 19.791C14.0825 19.709 13.8015 19.668 13.4785 19.668C13.1655 19.668 12.8935 19.703 12.6625 19.771C12.4325 19.84 12.2415 19.935 12.0895 20.057C11.9395 20.177 11.8245 20.32 11.7475 20.484C11.6705 20.648 11.6325 20.822 11.6325 21.007C11.6325 21.387 11.8275 21.705 12.2175 21.961C12.6075 22.218 13.1785 22.457 13.9325 22.678C14.5625 22.874 15.1185 23.09 15.5985 23.328C16.0785 23.566 16.4785 23.835 16.8005 24.136C17.1205 24.437 17.3635 24.775 17.5285 25.15C17.6925 25.525 17.7745 25.95 17.7745 26.425C17.7745 26.932 17.6755 27.383 17.4765 27.78C17.2775 28.175 16.9955 28.51 16.6295 28.782C16.2635 29.054 15.8215 29.262 15.3045 29.407C14.7875 29.552 14.2105 29.625 13.5745 29.625C13.1915 29.625 12.8095 29.592 12.4285 29.526C12.0465 29.46 11.6815 29.358 11.3345 29.221C10.9865 29.084 10.6645 28.912 10.3675 28.706C10.0705 28.5 9.81151 28.257 9.59151 27.978C9.37151 27.698 9.19951 27.379 9.07451 27.023C8.94951 26.666 8.88751 26.272 8.88751 25.839H11.2825C11.2825 26.187 11.3375 26.483 11.4495 26.726C11.5605 26.969 11.7155 27.166 11.9145 27.316C12.1145 27.466 12.3545 27.576 12.6345 27.645C12.9155 27.713 13.2295 27.748 13.5745 27.748C13.8815 27.748 14.1495 27.715 14.3775 27.648C14.6055 27.583 14.7935 27.492 14.9425 27.376C15.0905 27.259 15.2015 27.121 15.2725 26.96C15.3445 26.799 15.3795 26.627 15.3795 26.441ZM22.1415 23.472H24.2775C24.6175 23.472 24.9105 23.429 25.1575 23.342C25.4055 23.255 25.6075 23.134 25.7645 22.98C25.9205 22.825 26.0365 22.639 26.1105 22.422C26.1845 22.205 26.2225 21.969 26.2225 21.714C26.2225 21.459 26.1845 21.214 26.1105 20.978C26.0365 20.741 25.9205 20.533 25.7645 20.351C25.6065 20.169 25.4045 20.024 25.1585 19.915C24.9105 19.807 24.6175 19.753 24.2775 19.753H22.1415V23.472ZM22.1415 25.45V29.625H19.7505V17.775H24.2775C24.9625 17.775 25.5755 17.873 26.1145 18.068C26.6545 18.263 27.1115 18.536 27.4855 18.885C27.8605 19.235 28.1455 19.651 28.3425 20.131C28.5395 20.611 28.6375 21.133 28.6375 21.698C28.6375 22.273 28.5395 22.791 28.3425 23.252C28.1455 23.713 27.8605 24.107 27.4855 24.432C27.1115 24.758 26.6545 25.009 26.1155 25.185C25.5755 25.362 24.9625 25.45 24.2775 25.45H22.1415ZM33.0075 19.753V27.663H34.1655C35.1135 27.663 35.8355 27.345 36.3295 26.707C36.8245 26.07 37.0725 25.159 37.0725 23.977V23.423C37.0725 22.219 36.8275 21.306 36.3375 20.685C35.8475 20.063 35.1315 19.753 34.1895 19.753H33.0075ZM30.6125 29.625V17.775H34.1895C34.9725 17.775 35.6895 17.912 36.3415 18.185C36.9935 18.46 37.5525 18.845 38.0185 19.341C38.4845 19.838 38.8485 20.434 39.1085 21.128C39.3695 21.823 39.5005 22.593 39.5005 23.439V23.977C39.5005 24.823 39.3705 25.592 39.1125 26.284C38.8545 26.976 38.4895 27.57 38.0185 28.066C37.5485 28.563 36.9845 28.946 36.3295 29.218C35.6755 29.489 34.9535 29.625 34.1655 29.625H30.6125Z" fill="#3B444F"/>
</g>
<defs>
<clipPath id="clip0_702_1215">
<rect width="48" height="48" fill="white"/>
</clipPath>
</defs>
</svg>
