<svg width="48" height="48" viewBox="0 0 48 48" fill="none" xmlns="http://www.w3.org/2000/svg">
<g clip-path="url(#clip0_702_1108)">
<path fill-rule="evenodd" clip-rule="evenodd" d="M42.378 5.622C39.456 2.876 35.468 1.318 31.066 0.735004C26.862 0.178004 24 0.315004 24 0.315004C24 0.315004 21.137 0.178004 16.934 0.735004C12.532 1.318 8.54404 2.875 5.62304 5.622C2.87604 8.544 1.31804 12.532 0.73504 16.934C0.17704 21.137 0.31504 24 0.31504 24C0.31504 24 0.17704 26.862 0.73504 31.066C1.31804 35.466 2.87504 39.456 5.62204 42.377C8.54404 45.124 12.532 46.682 16.934 47.265C21.137 47.822 24 47.685 24 47.685C24 47.685 26.862 47.822 31.066 47.265C35.467 46.682 39.456 45.125 42.376 42.377C45.124 39.456 46.682 35.467 47.266 31.066C47.822 26.862 47.685 24 47.685 24C47.685 24 47.822 21.137 47.265 16.934C46.682 12.532 45.125 8.544 42.378 5.622Z" fill="#E83D43"/>
<path fill-rule="evenodd" clip-rule="evenodd" d="M24.65 0.149994C26.233 0.155994 28.383 0.227994 31.085 0.585994C35.52 1.17299 39.537 2.74599 42.487 5.51999C45.254 8.46299 46.827 12.48 47.414 16.914C47.772 19.617 47.844 21.767 47.85 22.964C47.846 23.696 47.837 23.955 47.835 24C47.838 24.056 47.846 24.278 47.849 24.65C47.844 26.233 47.772 28.383 47.414 31.085C46.827 35.52 45.254 39.537 42.48 42.487C39.537 45.254 35.52 46.827 31.085 47.414C28.382 47.772 26.232 47.844 25.035 47.85C24.303 47.846 24.045 47.837 24 47.835C23.944 47.838 23.722 47.846 23.35 47.849C21.767 47.844 19.617 47.772 16.914 47.414C12.479 46.826 8.46302 45.254 5.51402 42.48C2.74602 39.537 1.17402 35.52 0.586024 31.085C0.228024 28.382 0.156024 26.232 0.150024 25.035C0.154024 24.304 0.163024 24.045 0.165024 24C0.163024 23.958 0.154024 23.734 0.151024 23.35C0.156024 21.767 0.228024 19.617 0.586024 16.914C1.17302 12.479 2.74602 8.46299 5.52002 5.51399C8.46302 2.74599 12.48 1.17399 16.914 0.585994C19.617 0.227994 21.768 0.155994 22.964 0.149994C23.697 0.153994 23.955 0.162994 24 0.164994C24.056 0.161994 24.278 0.152994 24.65 0.149994Z" stroke="black" stroke-opacity="0.1" stroke-width="0.3" stroke-linecap="square" stroke-linejoin="bevel"/>
<path fill-rule="evenodd" clip-rule="evenodd" d="M26.893 37.621H21.105C20.369 37.621 19.772 37.024 19.772 36.288C19.772 35.552 20.369 34.955 21.105 34.955H26.893C27.629 34.955 28.226 35.551 28.226 36.288C28.226 37.024 27.629 37.621 26.893 37.621ZM23.999 10.671C21.301 10.671 19.114 11.194 19.114 14.288V21.698C19.114 24.791 21.301 26.956 23.999 26.956C26.697 26.956 28.884 24.791 28.884 21.698V14.288C28.884 11.194 26.697 10.671 23.999 10.671Z" fill="white"/>
<path fill-rule="evenodd" clip-rule="evenodd" d="M23.999 32.713C18.353 32.713 13.76 28.055 13.76 22.331C13.76 21.595 14.357 20.997 15.094 20.997C15.83 20.997 16.427 21.595 16.427 22.331C16.427 26.585 19.824 30.046 23.999 30.046C28.174 30.046 31.571 26.585 31.571 22.331C31.571 21.595 32.168 20.997 32.905 20.997C33.641 20.997 34.238 21.595 34.238 22.331C34.238 28.055 29.645 32.713 23.998 32.713" fill="white"/>
</g>
<defs>
<clipPath id="clip0_702_1108">
<rect width="48" height="48" fill="white"/>
</clipPath>
</defs>
</svg>
