<svg width="48" height="48" viewBox="0 0 48 48" fill="none" xmlns="http://www.w3.org/2000/svg">
<path fill-rule="evenodd" clip-rule="evenodd" d="M34.1981 16.1063H26.6712C26.0007 16.1063 25.0585 15.72 24.5784 15.2486L22.3097 13.0177C21.8296 12.5463 20.8874 12.16 20.2152 12.16H13.8552C11.6094 12.16 9.78674 13.9916 9.78674 16.252V31.8014C9.78674 34.0618 11.6094 35.8933 13.8552 35.8933H34.1981C36.4456 35.8933 38.2667 34.0618 38.2667 31.8014V20.1982C38.2667 17.9378 36.4456 16.1063 34.1981 16.1063Z" stroke="#92A6BE" stroke-width="1.78" stroke-linecap="round" stroke-linejoin="round"/>
<path d="M16.6877 16.6075H19.0274V18.6272H16.6877V16.6075ZM16.6877 13.1489H19.0274V15.1686H16.6877V13.1489ZM16.6877 20.066H19.0274V22.0834H16.6877V20.066ZM19.4571 27.0525C19.4571 27.9639 18.7385 28.6868 17.8564 28.6868C16.9766 28.6868 16.2556 27.9615 16.2556 27.0777V25.1541C16.2556 24.2415 16.9766 23.5222 17.8564 23.5222C18.7385 23.5222 19.4571 24.2439 19.4571 25.1313V27.0525Z" fill="#3B444F"/>
</svg>
