<svg width="48" height="48" viewBox="0 0 48 48" fill="none" xmlns="http://www.w3.org/2000/svg">
<g clip-path="url(#clip0_702_1236)">
<path fill-rule="evenodd" clip-rule="evenodd" d="M42.378 5.622C39.456 2.876 35.468 1.318 31.066 0.735004C26.862 0.178004 24 0.315004 24 0.315004C24 0.315004 21.137 0.178004 16.934 0.735004C12.532 1.318 8.54398 2.875 5.62298 5.622C2.87598 8.544 1.31798 12.532 0.734979 16.934C0.176979 21.137 0.314979 24 0.314979 24C0.314979 24 0.176979 26.862 0.734979 31.066C1.31798 35.466 2.87498 39.456 5.62198 42.377C8.54398 45.124 12.532 46.682 16.934 47.265C21.137 47.822 24 47.685 24 47.685C24 47.685 26.862 47.822 31.066 47.265C35.467 46.682 39.456 45.125 42.376 42.377C45.124 39.456 46.682 35.467 47.266 31.066C47.822 26.862 47.685 24 47.685 24C47.685 24 47.822 21.137 47.265 16.934C46.682 12.532 45.125 8.544 42.378 5.622Z" fill="#F4F4F4"/>
<path fill-rule="evenodd" clip-rule="evenodd" d="M18.729 19.993H15.07V29.944H12.609V19.993H9V18H18.729V19.993ZM24.16 22.118L26.399 18H29.229L25.751 23.923L29.319 29.944H26.456L24.16 25.76L21.863 29.944H19L22.568 23.923L19.09 18H21.92L24.16 22.118ZM39.729 19.993H36.07V29.944H33.609V19.993H30V18H39.729V19.993Z" fill="#705D51"/>
</g>
<defs>
<clipPath id="clip0_702_1236">
<rect width="48" height="48" fill="white"/>
</clipPath>
</defs>
</svg>
