<svg width="48" height="48" viewBox="0 0 48 48" fill="none" xmlns="http://www.w3.org/2000/svg">
<g clip-path="url(#clip0_702_1156)">
<path d="M47.239 16.933C46.676 12.533 45.12 8.56699 42.406 5.63299C39.492 2.89999 35.553 1.33299 31.183 0.76699C27.013 0.19999 24.166 0.33299 24.166 0.33299C24.166 0.33299 21.319 0.19999 17.148 0.76699C12.778 1.33299 8.83798 2.89999 5.92598 5.63299C3.21098 8.56699 1.65598 12.533 1.09198 16.933C0.529983 21.133 0.661983 24 0.661983 24C0.661983 24 0.529983 26.867 1.09198 31.067C1.65498 35.467 3.21098 39.433 5.92598 42.367C8.83898 45.1 12.778 46.667 17.148 47.233C21.318 47.8 24.166 47.667 24.166 47.667C24.166 47.667 27.012 47.8 31.183 47.233C35.553 46.667 39.493 45.1 42.406 42.367C45.12 39.433 46.676 35.467 47.239 31.067C47.801 26.867 47.669 24 47.669 24C47.669 24 47.801 21.133 47.239 16.933Z" fill="#34AEE7"/>
<path d="M25.026 0.333C26.185 0.333 28.37 0.4 31.15 0.767C35.52 1.333 39.46 2.9 42.372 5.633C45.087 8.567 46.642 12.533 47.206 16.933C47.801 21.133 47.669 24 47.669 24C47.669 24 47.801 26.867 47.239 31.067C46.676 35.467 45.12 39.433 42.406 42.367C39.492 45.1 35.553 46.667 31.183 47.233C28.403 47.6 26.185 47.667 25.059 47.667H24.199H23.338C22.179 47.667 19.994 47.6 17.214 47.233C12.844 46.667 8.90399 45.1 5.99199 42.367C3.21099 39.433 1.65499 35.467 1.09199 31.067C0.529992 26.867 0.661992 24 0.661992 24C0.661992 24 0.529992 21.133 1.09199 16.933C1.65499 12.533 3.21099 8.567 5.92599 5.633C8.83899 2.9 12.778 1.333 17.148 0.767C19.96 0.4 22.146 0.333 23.305 0.333H25.026ZM25.026 0H23.305C22.212 0 19.961 0.067 17.115 0.433C12.414 1.067 8.47499 2.767 5.72699 5.4C3.11199 8.2 1.42299 12.167 0.793992 16.867C0.231992 20.933 0.330992 23.767 0.330992 24C0.330992 24.233 0.230992 27.067 0.760992 31.1C1.39099 35.833 3.07899 39.8 5.69399 42.567C8.47399 45.2 12.414 46.9 17.081 47.533C19.928 47.9 22.179 47.967 23.271 47.967H24.993C26.086 47.967 28.303 47.9 31.15 47.533C35.785 46.9 39.691 45.233 42.439 42.667L42.538 42.567C45.153 39.767 46.841 35.8 47.47 31.1C48 27.067 47.9 24.233 47.9 24C47.9 23.767 48 20.933 47.47 16.9C46.841 12.167 45.153 8.2 42.538 5.433L42.438 5.333C39.659 2.767 35.753 1.067 31.15 0.467C28.37 0.067 26.12 0 25.026 0Z" fill="white" fill-opacity="0.1"/>
<path d="M18.4056 33.1003V29.2003H15.5586V35.9663H33.2686V33.1003H18.4056ZM22.1126 29.9663C22.1126 31.1003 23.0066 32.0003 24.1326 32.0003C25.2576 32.0003 26.1526 31.1003 26.1526 29.9663C26.1526 28.8333 25.2576 27.9333 24.1326 27.9333C23.0066 27.9333 22.1126 28.8333 22.1126 29.9663ZM24.0326 24.4663C22.5106 24.4663 21.2526 23.2003 21.2526 21.6663C21.2526 20.1003 22.5106 18.8663 24.0326 18.8663C25.5556 18.8663 26.8136 20.1333 26.8136 21.6663C26.8136 23.2003 25.5546 24.4663 24.0326 24.4663ZM29.5946 21.6333C29.5946 18.5333 27.0786 16.0003 23.9996 16.0003C20.9216 16.0003 18.4056 18.5003 18.4056 21.6333C18.4056 24.7663 20.9216 27.2663 23.9996 27.2663C27.1116 27.2663 29.5946 24.7333 29.5946 21.6333ZM32.6396 12.6003H25.7216V9.53329H22.8746V12.6003H16.1546V15.4663H32.6726L32.6396 12.6003Z" fill="white"/>
</g>
<defs>
<clipPath id="clip0_702_1156">
<rect width="48" height="48" fill="white"/>
</clipPath>
</defs>
</svg>
