<svg width="48" height="48" viewBox="0 0 48 48" fill="none" xmlns="http://www.w3.org/2000/svg">
<g clip-path="url(#clip0_702_1190)">
<path fill-rule="evenodd" clip-rule="evenodd" d="M42.378 5.622C39.456 2.876 35.468 1.318 31.066 0.735004C26.862 0.178004 24 0.315004 24 0.315004C24 0.315004 21.137 0.178004 16.934 0.735004C12.532 1.318 8.544 2.875 5.623 5.622C2.876 8.544 1.318 12.532 0.734998 16.934C0.176998 21.137 0.314998 24 0.314998 24C0.314998 24 0.176998 26.862 0.734998 31.066C1.318 35.466 2.875 39.456 5.622 42.377C8.544 45.124 12.532 46.682 16.934 47.265C21.137 47.822 24 47.685 24 47.685C24 47.685 26.862 47.822 31.066 47.265C35.467 46.682 39.456 45.125 42.376 42.377C45.124 39.456 46.682 35.467 47.266 31.066C47.822 26.862 47.685 24 47.685 24C47.685 24 47.822 21.137 47.265 16.934C46.682 12.532 45.125 8.544 42.378 5.622Z" fill="#3359B5"/>
<path fill-rule="evenodd" clip-rule="evenodd" d="M24.65 0.149994C26.233 0.155994 28.383 0.227994 31.085 0.585994C35.52 1.17299 39.537 2.74599 42.487 5.51999C45.254 8.46299 46.827 12.48 47.414 16.914C47.772 19.617 47.844 21.767 47.85 22.964C47.846 23.696 47.837 23.955 47.835 24C47.838 24.056 47.846 24.278 47.849 24.65C47.844 26.233 47.772 28.383 47.414 31.085C46.827 35.52 45.254 39.537 42.48 42.487C39.537 45.254 35.52 46.827 31.085 47.414C28.382 47.772 26.232 47.844 25.035 47.85C24.303 47.846 24.045 47.837 24 47.835C23.944 47.838 23.722 47.846 23.35 47.849C21.767 47.844 19.617 47.772 16.914 47.414C12.479 46.826 8.463 45.254 5.514 42.48C2.746 39.537 1.174 35.52 0.586002 31.085C0.228002 28.382 0.156002 26.232 0.150002 25.035C0.154002 24.304 0.163002 24.045 0.165002 24C0.163002 23.958 0.154002 23.734 0.151002 23.35C0.156002 21.767 0.228002 19.617 0.586002 16.914C1.173 12.479 2.746 8.46299 5.52 5.51399C8.463 2.74599 12.48 1.17399 16.914 0.585994C19.617 0.227994 21.768 0.155994 22.964 0.149994C23.697 0.153994 23.955 0.162994 24 0.164994C24.056 0.161994 24.278 0.152994 24.65 0.149994Z" stroke="white" stroke-opacity="0.1" stroke-width="0.3" stroke-linecap="square" stroke-linejoin="bevel"/>
<path fill-rule="evenodd" clip-rule="evenodd" d="M27.018 21.798V42.125L29.065 40.892L30.793 36.299L29.925 26.105" fill="#3359B5"/>
<path fill-rule="evenodd" clip-rule="evenodd" d="M36.166 31.795L30.386 28.056C30.13 27.888 29.854 27.802 29.569 27.802C28.916 27.802 28.221 28.305 28.221 29.232V36.809C28.221 37.739 28.916 38.241 29.569 38.241C29.854 38.241 30.129 38.155 30.385 37.988L36.166 34.247C36.61 33.963 36.862 33.515 36.862 33.022C36.862 32.536 36.603 32.076 36.166 31.795Z" fill="#70BDFF"/>
<path fill-rule="evenodd" clip-rule="evenodd" d="M27.374 9.87699C25.792 9.48599 24.065 10.103 23.116 11.541C22.609 12.311 22.405 13.194 22.475 14.046L22.757 23.03C22.792 23.473 23.463 23.904 23.883 23.973C24.287 24.107 25.082 24.04 25.32 23.665L29.762 15.851C30.222 15.129 30.453 14.253 30.364 13.336C30.195 11.621 28.957 10.269 27.374 9.87699Z" fill="white"/>
<path fill-rule="evenodd" clip-rule="evenodd" d="M20.393 38.068C18.811 37.676 17.573 36.325 17.404 34.608C17.314 33.692 17.546 32.816 18.004 32.095L22.447 24.28C22.685 23.905 23.48 23.838 23.884 23.973C24.304 24.042 25.257 24.473 25.293 24.915V33.9C25.363 34.752 25.158 35.635 24.651 36.404C23.701 37.842 21.976 38.46 20.393 38.068Z" fill="white"/>
<path fill-rule="evenodd" clip-rule="evenodd" d="M37.828 19.92C37.373 18.354 35.972 17.171 34.252 17.071C33.332 17.019 32.465 17.285 31.764 17.773L24.134 22.524C23.768 22.779 23.733 23.574 23.884 23.973C23.97 24.39 24.426 25.043 24.87 25.061L33.86 24.982C34.713 25.018 35.587 24.779 36.336 24.24C37.735 23.234 38.282 21.485 37.828 19.92Z" fill="white"/>
<path fill-rule="evenodd" clip-rule="evenodd" d="M13.462 13.86C14.597 12.69 16.388 12.302 17.955 13.02C18.793 13.403 19.434 14.044 19.825 14.804L24.341 22.576C24.545 22.972 24.203 23.691 23.884 23.973C23.612 24.301 22.904 24.663 22.502 24.473L14.597 20.193C13.825 19.824 13.165 19.203 12.756 18.378C11.991 16.833 12.326 15.031 13.462 13.861" fill="white"/>
<path fill-rule="evenodd" clip-rule="evenodd" d="M9.94 28.026C9.485 26.46 10.032 24.711 11.431 23.706C12.179 23.167 13.054 22.927 13.908 22.963L22.896 22.884C23.341 22.903 23.797 23.555 23.883 23.973C24.034 24.371 23.999 25.167 23.634 25.421L16.004 30.172C15.302 30.66 14.435 30.926 13.515 30.874C11.795 30.774 10.395 29.591 9.94 28.026Z" fill="white"/>
<path fill-rule="evenodd" clip-rule="evenodd" d="M24.64 20.327C23.011 20.117 21.523 21.266 21.312 22.893C21.102 24.52 22.25 26.01 23.878 26.22C25.506 26.43 26.995 25.28 27.205 23.654C27.415 22.026 26.266 20.537 24.64 20.327Z" fill="#334A7C"/>
</g>
<defs>
<clipPath id="clip0_702_1190">
<rect width="48" height="48" fill="white"/>
</clipPath>
</defs>
</svg>
