<svg width="48" height="48" viewBox="0 0 48 48" fill="none" xmlns="http://www.w3.org/2000/svg">
<g clip-path="url(#clip0_702_1135)">
<path fill-rule="evenodd" clip-rule="evenodd" d="M41.848 5.55199C38.963 2.83999 35.024 1.30199 30.678 0.725985C26.525 0.175985 23.7 0.309985 23.7 0.309985C23.7 0.309985 20.873 0.174985 16.722 0.724986C12.376 1.29999 8.43697 2.83999 5.55197 5.55199C2.83997 8.43699 1.30297 12.376 0.725973 16.722C0.174973 20.872 0.310973 23.7 0.310973 23.7C0.310973 23.7 0.174973 26.526 0.724973 30.677C1.30097 35.024 2.83997 38.963 5.55197 41.847C8.43697 44.56 12.376 46.098 16.722 46.675C20.873 47.225 23.7 47.089 23.7 47.089C23.7 47.089 26.526 47.224 30.677 46.675C35.024 46.098 38.963 44.56 41.847 41.848C44.56 38.963 46.099 35.024 46.675 30.678C47.225 26.526 47.089 23.7 47.089 23.7C47.089 23.7 47.224 20.873 46.675 16.722C46.099 12.376 44.56 8.43699 41.848 5.55199Z" fill="#F2F2F2"/>
<path fill-rule="evenodd" clip-rule="evenodd" d="M24.375 0.147003C25.968 0.154003 28.067 0.228003 30.697 0.577003C35.077 1.157 39.044 2.71 41.957 5.449C44.69 8.356 46.243 12.323 46.823 16.703C47.172 19.333 47.246 21.433 47.253 22.624C47.251 23.385 47.241 23.654 47.239 23.7C47.241 23.742 47.251 23.976 47.253 24.375C47.246 25.968 47.172 28.068 46.823 30.697C46.243 35.077 44.69 39.044 41.95 41.957C39.044 44.69 35.077 46.243 30.697 46.823C28.067 47.172 25.967 47.246 24.775 47.253C24.015 47.251 23.746 47.241 23.7 47.239C23.658 47.241 23.424 47.251 23.025 47.253C21.432 47.246 19.332 47.172 16.702 46.823C12.322 46.243 8.35601 44.69 5.44201 41.95C2.71001 39.044 1.15801 35.077 0.57801 30.697C0.22901 28.067 0.15501 25.967 0.14801 24.775C0.15001 24.015 0.16001 23.745 0.16201 23.7C0.16001 23.658 0.15001 23.424 0.14801 23.025C0.15501 21.432 0.22901 19.332 0.57801 16.703C1.15801 12.323 2.71101 8.356 5.45101 5.443C8.35601 2.71 12.323 1.157 16.702 0.577003C19.332 0.228003 21.432 0.154003 22.625 0.147003C23.385 0.149003 23.655 0.159003 23.7 0.161003C23.742 0.159003 23.976 0.149003 24.375 0.147003Z" stroke="white" stroke-opacity="0.1" stroke-width="0.3" stroke-linecap="square" stroke-linejoin="bevel"/>
<path fill-rule="evenodd" clip-rule="evenodd" d="M16.56 30.253V34.249C16.56 35.543 17.609 36.592 18.903 36.592H37.32C38.614 36.592 39.663 35.542 39.663 34.249V30.253H16.56Z" fill="#185C37"/>
<path fill-rule="evenodd" clip-rule="evenodd" d="M37.32 10.874H28.163V18.226H39.663V13.217C39.663 11.923 38.613 10.874 37.32 10.874Z" fill="#33C481"/>
<path fill-rule="evenodd" clip-rule="evenodd" d="M28.163 10.874H18.903C17.609 10.874 16.56 11.924 16.56 13.217V18.226H28.163V10.874Z" fill="#21A366"/>
<path fill-rule="evenodd" clip-rule="evenodd" d="M16.56 24.24H28.163V18.226H16.56V24.24Z" fill="#107C41"/>
<path fill-rule="evenodd" clip-rule="evenodd" d="M28.163 24.239H39.663V18.226H28.163V24.239Z" fill="#21A366"/>
<path fill-rule="evenodd" clip-rule="evenodd" d="M16.56 30.253H28.163V24.239H16.56V30.253Z" fill="#185C37"/>
<path fill-rule="evenodd" clip-rule="evenodd" d="M28.163 30.253H39.663V24.239H28.163V30.253Z" fill="#107C41"/>
<path fill-rule="evenodd" clip-rule="evenodd" d="M21.313 32.406H10.681C9.073 32.406 7.771 31.103 7.771 29.496V18.864C7.771 17.257 9.073 15.954 10.681 15.954H21.313C22.92 15.954 24.223 17.257 24.223 18.864V29.496C24.223 31.103 22.92 32.406 21.313 32.406Z" fill="#F2F2F2"/>
<path fill-rule="evenodd" clip-rule="evenodd" d="M20.719 31.453H11.275C9.866 31.453 8.724 30.31 8.724 28.902V19.458C8.724 18.049 9.866 16.908 11.275 16.908H20.719C22.128 16.908 23.269 18.049 23.269 19.458V28.902C23.269 30.31 22.128 31.453 20.719 31.453Z" fill="#107C41"/>
<path fill-rule="evenodd" clip-rule="evenodd" d="M14.594 20.878L15.871 23.221L17.143 20.878H18.756L16.778 24.254L18.808 27.687H17.175L15.871 25.302L14.561 27.687H12.929L14.963 24.254L12.98 20.878H14.594Z" fill="white"/>
</g>
<defs>
<clipPath id="clip0_702_1135">
<rect width="48" height="48" fill="white"/>
</clipPath>
</defs>
</svg>
