<svg width="48" height="48" viewBox="0 0 48 48" fill="none" xmlns="http://www.w3.org/2000/svg">
<g clip-path="url(#clip0_702_1150)">
<path fill-rule="evenodd" clip-rule="evenodd" d="M42.378 5.622C39.456 2.876 35.468 1.318 31.066 0.735004C26.862 0.178004 24 0.315004 24 0.315004C24 0.315004 21.137 0.178004 16.934 0.735004C12.532 1.318 8.54398 2.875 5.62298 5.622C2.87598 8.544 1.31798 12.532 0.734979 16.934C0.176979 21.137 0.314979 24 0.314979 24C0.314979 24 0.176979 26.862 0.734979 31.066C1.31798 35.466 2.87498 39.456 5.62198 42.377C8.54398 45.124 12.532 46.682 16.934 47.265C21.137 47.822 24 47.685 24 47.685C24 47.685 26.862 47.822 31.066 47.265C35.467 46.682 39.456 45.125 42.376 42.377C45.124 39.456 46.682 35.467 47.266 31.066C47.822 26.862 47.685 24 47.685 24C47.685 24 47.822 21.137 47.265 16.934C46.682 12.532 45.125 8.544 42.378 5.622Z" fill="#F4F4F4"/>
<path fill-rule="evenodd" clip-rule="evenodd" d="M17.186 25.063H12.461V29.944H10V18H17.777V19.993H12.461V23.078H17.186V25.063ZM28.195 19.993H24.536V29.944H22.075V19.993H18.466V18H28.195V19.993ZM32.058 23.742H34.257C34.607 23.742 34.909 23.698 35.163 23.611C35.417 23.523 35.625 23.401 35.787 23.246C35.947 23.09 36.067 22.902 36.143 22.684C36.22 22.465 36.258 22.227 36.258 21.97C36.258 21.713 36.22 21.466 36.143 21.228C36.067 20.99 35.948 20.78 35.787 20.596C35.625 20.413 35.417 20.266 35.163 20.157C34.909 20.048 34.607 19.993 34.257 19.993H32.058V23.742ZM32.058 25.735V29.944H29.598V18H34.257C34.962 18 35.592 18.098 36.147 18.295C36.703 18.492 37.173 18.767 37.558 19.119C37.944 19.472 38.238 19.89 38.44 20.375C38.643 20.858 38.744 21.385 38.744 21.954C38.744 22.534 38.643 23.056 38.44 23.52C38.238 23.985 37.944 24.382 37.558 24.71C37.173 25.038 36.703 25.291 36.148 25.468C35.592 25.647 34.962 25.735 34.257 25.735H32.058Z" fill="#5E5E5E"/>
</g>
<defs>
<clipPath id="clip0_702_1150">
<rect width="48" height="48" fill="white"/>
</clipPath>
</defs>
</svg>
