<svg width="24" height="24" viewBox="0 0 24 24" fill="none" xmlns="http://www.w3.org/2000/svg">
<path d="M12.0687 3.3436C15.1749 3.3436 17.6927 5.8615 17.6927 8.9676C17.6927 9.2317 17.6744 9.4928 17.6385 9.7497C19.8123 10.5506 21.312 12.638 21.312 15.0255C21.312 18.1307 18.7942 20.6485 15.689 20.6485C15.091 20.6485 14.5036 20.5543 13.9427 20.3719C13.9072 20.3603 13.8734 20.3459 13.8415 20.3289C13.2067 20.1122 12.6035 19.7782 12.0656 19.3285C11.0889 20.1521 9.82656 20.648 8.44846 20.648C5.34246 20.648 2.82446 18.1304 2.82446 15.025C2.82446 12.6037 4.35446 10.5399 6.50036 9.7475C6.46376 9.491 6.44566 9.2306 6.44566 8.9676C6.44566 5.8616 8.96326 3.3436 12.0687 3.3436ZM8.44846 10.651C6.03266 10.651 4.07446 12.6092 4.07446 15.025C4.07446 17.44 6.03276 19.398 8.44846 19.398C10.8633 19.398 12.8215 17.4399 12.8215 15.025C12.8215 12.6093 10.8635 10.651 8.44846 10.651ZM17.3246 10.9677C17.1631 11.3959 16.9486 11.8015 16.6869 12.1772C16.6643 12.2085 16.6421 12.2398 16.6197 12.2708L16.5502 12.3652C16.5113 12.4162 16.4717 12.4668 16.4312 12.5167C16.4214 12.5285 16.4118 12.5401 16.4022 12.5518C16.3518 12.6133 16.2998 12.6737 16.2467 12.7328C15.6367 13.4115 14.8723 13.9287 14.0167 14.2443C14.0532 14.4992 14.0715 14.76 14.0715 15.025C14.0715 16.3 13.647 17.476 12.9317 18.4193L12.8496 18.3546C14.4622 19.7172 16.8432 19.7327 18.4791 18.36C20.0217 17.0656 20.4722 14.8963 19.6083 13.1094C19.5928 13.0774 19.5803 13.0447 19.5707 13.0116C19.0954 12.0949 18.3031 11.3617 17.3246 10.9677ZM12.0687 4.5936C9.65366 4.5936 7.69566 6.5519 7.69566 8.9676C7.69566 9.1294 7.70446 9.2896 7.72186 9.4483C7.96076 9.4168 8.20276 9.401 8.44846 9.401C10.8492 9.401 12.8986 10.9059 13.7051 13.024C14.3823 12.7522 14.9807 12.3148 15.4467 11.7461C15.5969 11.5628 15.7333 11.3659 15.8542 11.1564C15.9982 10.9072 16.1151 10.6506 16.2044 10.3894L16.2121 10.3722C16.3631 9.9266 16.4427 9.4535 16.4427 8.9676C16.4427 6.5518 14.4845 4.5936 12.0687 4.5936Z" fill="black"/>
</svg>
