<svg width="24" height="24" viewBox="0 0 24 24" fill="none" xmlns="http://www.w3.org/2000/svg">
<path d="M13.4718 8.06099C11.8002 7.46999 9.91201 7.99979 8.79421 9.42299M16.1484 12.9954C16.2612 12.5286 16.2906 12.0588 16.2456 11.6016M12.0816 12.0126C11.9868 13.812 12.7464 15.3084 13.9476 16.1364C14.5152 16.5186 15.186 16.7184 15.8694 16.7076M7.95601 11.3304C7.94641 11.388 7.93861 11.445 7.93081 11.5032C7.70341 13.3644 8.04481 15.1188 8.81341 16.6044C9.00481 16.9704 9.25381 17.3034 9.55201 17.589M14.157 6.14759C13.7382 5.99999 13.2972 5.89559 12.8394 5.83919C9.42361 5.42039 6.30181 7.83659 5.84941 11.2518C5.72821 12.2268 5.73841 13.2138 5.87941 14.187C5.91721 14.4336 5.98201 14.6748 6.07261 14.9076L6.08701 14.9448M13.3248 18.1488C12.8064 17.9736 12.3318 17.688 11.934 17.3112C10.5486 15.9828 9.77221 13.9902 10.0038 11.7588C10.1442 10.611 11.1882 9.79499 12.3342 9.93599C13.4808 10.0764 14.2962 11.1216 14.1552 12.2694C13.9974 13.5582 14.6526 14.649 15.8502 14.8464C17.0418 15.057 18.1518 14.0658 18.3096 12.7776C18.3564 12.3618 18.3618 11.9502 18.3282 11.5482" stroke="#D24B4C" stroke-width="0.72" stroke-linecap="round"/>
<path fill-rule="evenodd" clip-rule="evenodd" d="M19.0511 8.24699C19.0511 9.25559 18.2381 10.0734 17.2367 10.0734C16.2341 10.0734 15.4211 9.25559 15.4211 8.24699C15.4211 7.23839 17.2367 4.44119 17.2367 4.44119C17.2367 4.44119 19.0511 7.23839 19.0511 8.24699Z" stroke="#A8A8A8" stroke-width="0.72" stroke-linecap="round" stroke-linejoin="round"/>
</svg>
