<svg width="24" height="24" viewBox="0 0 24 24" fill="none" xmlns="http://www.w3.org/2000/svg">
<path d="M16.3145 13.1616C16.7771 11.2476 15.8447 9.26939 14.0747 8.40959C12.3053 7.54979 10.1765 8.04119 8.96034 9.58919M12.2477 12.1788C12.1529 13.9782 12.9125 15.4746 14.1137 16.3026C14.6813 16.6848 15.3521 16.8846 16.0355 16.8738M8.12214 11.4966C8.11254 11.5542 8.10534 11.6112 8.09694 11.6694C7.86954 13.5306 8.21094 15.285 8.97954 16.7706C9.17094 17.1366 9.41994 17.4696 9.71814 17.7552M13.4909 18.315C12.9719 18.1398 12.4979 17.8542 12.1001 17.4774C10.7147 16.149 9.93834 14.1564 10.1699 11.925C10.3103 10.7772 11.3543 9.96119 12.5003 10.1022C13.6469 10.2426 14.4623 11.2878 14.3213 12.4356C14.1635 13.7244 14.8187 14.8152 16.0163 15.0126C17.2079 15.2232 18.3179 14.232 18.4757 12.9438C18.8609 9.52019 16.4207 6.42539 13.0055 6.00539C9.58974 5.58659 6.46794 8.00279 6.01554 11.4174C5.89434 12.393 5.90454 13.38 6.04554 14.3532C6.08334 14.5998 6.14814 14.841 6.23874 15.0738L6.25314 15.111" stroke="#D24B4C" stroke-width="0.72" stroke-linecap="round"/>
<path d="M20.133 7.74301C19.7178 5.99101 18.3414 4.61461 16.5894 4.20001" stroke="#A8A8A8" stroke-width="0.72" stroke-linecap="round"/>
<path d="M7.74295 4.20001C5.99035 4.61461 4.61455 5.99101 4.19995 7.74301" stroke="#A8A8A8" stroke-opacity="0.8" stroke-width="0.72" stroke-linecap="round"/>
<path d="M16.5894 20.1324C18.3414 19.7178 19.7178 18.342 20.133 16.5894" stroke="#A8A8A8" stroke-width="0.72" stroke-linecap="round"/>
<path d="M4.19995 16.5894C4.61455 18.342 5.99035 19.7178 7.74295 20.1324" stroke="#A8A8A8" stroke-width="0.72" stroke-linecap="round"/>
</svg>
