<svg width="24" height="24" viewBox="0 0 24 24" fill="none" xmlns="http://www.w3.org/2000/svg">
<path d="M12.4644 7.9398C10.9002 7.5612 9.22143 8.115 8.19423 9.423M15.5484 12.9954C15.6594 12.5364 15.6894 12.0738 15.648 11.6238M11.4816 12.0126C11.3868 13.8114 12.1464 15.3078 13.3476 16.1358C13.9152 16.5192 14.586 16.7184 15.2694 16.707M7.35603 11.3304C7.34643 11.388 7.33863 11.4456 7.33083 11.5038C7.10343 13.3644 7.44483 15.1188 8.21343 16.6044C8.40483 16.9704 8.65383 17.3034 8.95203 17.5896M12.6684 5.907C12.5274 5.88 12.384 5.8572 12.2394 5.8398C8.82363 5.4204 5.70183 7.8372 5.24943 11.2524C5.12823 12.2274 5.13843 13.2144 5.27943 14.1864C5.31723 14.433 5.38203 14.6754 5.47263 14.907L5.48703 14.9448M12.7248 18.1488C12.2064 17.9736 11.7318 17.6874 11.334 17.3112C9.94863 15.9822 9.17223 13.9908 9.40383 11.7588C9.54423 10.611 10.5882 9.795 11.7342 9.9354C12.8808 10.077 13.6962 11.1216 13.5552 12.2694C13.3974 13.5576 14.0526 14.649 15.2502 14.8464C16.4418 15.0564 17.5518 14.0658 17.7096 12.7776C17.7534 12.3876 17.7612 12.003 17.7342 11.625" stroke="#D24B4C" stroke-width="0.72" stroke-linecap="round"/>
<path d="M16.74 10.08C15.12 10.08 13.8 8.76001 13.8 7.14001C13.8 5.52001 15.12 4.20001 16.74 4.20001C18.36 4.20001 19.68 5.52001 19.68 7.14001C19.68 8.76001 18.36 10.08 16.74 10.08ZM16.74 4.92001C15.48 4.92001 14.52 5.94001 14.52 7.14001C14.52 8.34001 15.54 9.36001 16.74 9.36001C17.94 9.36001 18.96 8.34001 18.96 7.14001C18.96 5.94001 17.94 4.92001 16.74 4.92001Z" fill="#A8A8A8"/>
<path d="M17.94 7.49999H16.74C16.56 7.49999 16.38 7.31999 16.38 7.13999V5.87999C16.38 5.69999 16.56 5.51999 16.74 5.51999C16.92 5.51999 17.1 5.69999 17.1 5.87999V6.77999H17.94C18.12 6.77999 18.3 6.95999 18.3 7.13999C18.3 7.31999 18.12 7.49999 17.94 7.49999Z" fill="#A8A8A8"/>
</svg>
