<svg width="24" height="24" viewBox="0 0 24 24" fill="none" xmlns="http://www.w3.org/2000/svg">
<path d="M18.0931 3.99979H5.84814C4.05284 3.99979 2.59814 5.45459 2.59814 7.24979V16.9158C2.59814 18.7117 4.05254 20.1658 5.84814 20.1658H18.0931C19.8886 20.1658 21.3431 18.7117 21.3431 16.9158V7.24979C21.3431 5.45459 19.8883 3.99979 18.0931 3.99979ZM5.84814 5.49979H18.0931C19.0598 5.49979 19.8431 6.28299 19.8431 7.24979V16.9158C19.8431 17.8832 19.0602 18.6658 18.0931 18.6658H5.84814C4.88094 18.6658 4.09814 17.8832 4.09814 16.9158V7.24979C4.09814 6.28299 4.88134 5.49979 5.84814 5.49979Z" fill="black"/>
<path d="M16.6963 6.85431C17.2965 6.85431 17.7894 7.30871 17.8524 7.89241L17.8593 8.01931V10.6043C17.8593 11.0185 17.5235 11.3543 17.1093 11.3543C16.7296 11.3543 16.4158 11.0721 16.3661 10.7061L16.3593 10.6043L16.359 8.35401L14.0673 8.35431C13.6876 8.35431 13.3738 8.07211 13.3241 7.70611L13.3173 7.60431C13.3173 7.22461 13.5994 6.91081 13.9655 6.86111L14.0673 6.85431H16.6963Z" fill="black"/>
<path d="M6.83154 12.8118C7.21124 12.8118 7.52494 13.094 7.57464 13.46L7.58154 13.5618L7.58104 15.811L9.87354 15.8118C10.2532 15.8118 10.5669 16.094 10.6166 16.46L10.6235 16.5618C10.6235 16.9415 10.3413 17.2553 9.97524 17.305L9.87354 17.3118H7.24454C6.64514 17.3118 6.15144 16.8573 6.08834 16.2737L6.08154 16.1468V13.5618C6.08154 13.1476 6.41724 12.8118 6.83154 12.8118Z" fill="black"/>
<path d="M16.2158 7.64599C16.5361 7.38329 17.0086 7.42999 17.2713 7.75029C17.5101 8.04149 17.4932 8.45849 17.2475 8.72929L17.1669 8.80579L7.75185 16.5268C7.43165 16.7895 6.95905 16.7428 6.69635 16.4225C6.45755 16.1313 6.47445 15.7143 6.72015 15.4435L6.80075 15.367L16.2158 7.64599Z" fill="black"/>
</svg>
