<svg width="24" height="24" viewBox="0 0 24 24" fill="none" xmlns="http://www.w3.org/2000/svg">
<path d="M18.4392 4.4904H6.18319C5.73919 3.7234 5.46719 3.2554 5.45719 3.2374C5.24919 2.8794 4.79119 2.7574 4.43219 2.9644C4.07319 3.1724 3.95119 3.6314 4.15919 3.9894C4.22319 4.0994 13.8772 20.7614 13.8772 20.7614C14.0152 21.0014 14.2672 21.1364 14.5262 21.1364C14.6532 21.1364 14.7832 21.1024 14.9012 21.0344C15.2602 20.8264 15.3822 20.3674 15.1742 20.0094C15.1742 20.0094 13.5712 17.2424 11.6682 13.9574L19.4492 7.0984C20.4622 6.1764 19.8102 4.4904 18.4392 4.4904Z" fill="black"/>
</svg>
