<svg width="24" height="24" viewBox="0 0 24 24" fill="none" xmlns="http://www.w3.org/2000/svg">
<path d="M11.9976 14.8222V16.3222M17.8101 4.9013L16.6851 6.8493M11.9976 3.25V5.5M6.18506 4.9013L7.31006 6.8493M6.51336 9.9941V10.2451C6.51336 10.7591 6.70536 11.2561 7.05436 11.6441L9.09536 14.1001V18.8071C9.09536 19.9321 9.83936 20.7501 10.8654 20.7501H13.1264C14.1514 20.7501 14.8974 19.9321 14.8974 18.8071V14.1001L16.9424 11.6441C17.2904 11.2571 17.4814 10.7601 17.4814 10.2451V9.9941C17.4814 9.5841 17.1354 9.2501 16.7104 9.2501H7.16236C6.73636 9.2501 6.51336 9.5841 6.51336 9.9941Z" stroke="black" stroke-width="1.5" stroke-linecap="round" stroke-linejoin="round"/>
</svg>
