<svg width="24" height="24" viewBox="0 0 24 24" fill="none" xmlns="http://www.w3.org/2000/svg">
<path d="M12.0228 2.49991C12.4025 2.49991 12.7163 2.78211 12.766 3.14811L12.7728 3.24991V20.7499C12.7728 21.1641 12.437 21.4999 12.0228 21.4999C11.6431 21.4999 11.3293 21.2177 11.2796 20.8517L11.2728 20.7499V3.24991C11.2728 2.83571 11.6086 2.49991 12.0228 2.49991ZM17.4789 6.50801L17.5645 6.57891L22.0858 10.9181C22.6628 11.4744 22.6967 12.3776 22.1866 12.974L22.0846 13.0821L17.5646 17.4211C17.2658 17.7079 16.791 17.6982 16.5041 17.3994C16.2434 17.1277 16.2277 16.7107 16.4515 16.4216L16.5258 16.3389L21.0459 11.9991L16.5259 7.66111C16.227 7.37431 16.2173 6.89951 16.5041 6.60071C16.7648 6.32901 17.1809 6.29621 17.4789 6.50801ZM7.54078 6.60041C7.80158 6.87201 7.81728 7.28901 7.59358 7.57821L7.51918 7.66081L3.00018 12.0007L7.51918 16.3387C7.81798 16.6256 7.82768 17.1004 7.54088 17.3992C7.28008 17.6708 6.86398 17.7035 6.56598 17.4917L6.48038 17.4209L1.96108 13.0826C1.38208 12.5261 1.34798 11.6217 1.85908 11.0258L1.96138 10.9178L6.48038 6.57881C6.77908 6.29191 7.25388 6.30161 7.54078 6.60041Z" fill="black"/>
</svg>
