<svg width="24" height="24" viewBox="0 0 24 24" fill="none" xmlns="http://www.w3.org/2000/svg">
<path d="M20.0972 8.9932C20.5802 8.9932 20.9722 9.3862 20.9722 9.8682V16.1832C20.9722 18.1822 19.3462 19.8082 17.3472 19.8082H7.8422C7.3582 19.8082 6.9672 19.4172 6.9672 18.9332C6.9672 18.4512 7.3582 18.0582 7.8422 18.0582H17.3472C18.3812 18.0582 19.2222 17.2182 19.2222 16.1832V9.8682C19.2222 9.3862 19.6142 8.9932 20.0972 8.9932ZM8.2098 4.1918C8.5078 4.1918 8.9188 4.3708 9.1208 4.5898L10.5498 5.9138C10.7528 6.1328 10.8518 6.1898 11.1498 6.1898H15.4568C16.5958 6.1898 17.5278 7.1208 17.5278 8.2608V14.9128C17.5278 15.7388 16.8528 16.4128 16.0278 16.4128H5.0998C3.9608 16.4128 3.0278 15.4818 3.0278 14.3418V6.2638C3.0278 5.1238 3.9608 4.1918 5.0998 4.1918H8.2098ZM10.2788 9.0828C10.0018 9.0828 9.7328 9.1978 9.5408 9.3988L7.4858 11.5518C7.1998 11.8518 7.2108 12.3258 7.5098 12.6128C7.6558 12.7508 7.8418 12.8198 8.0278 12.8198C8.2258 12.8198 8.4228 12.7418 8.5708 12.5878L10.2778 10.7988L11.9858 12.5878C12.2718 12.8868 12.7458 12.8988 13.0458 12.6128C13.3458 12.3258 13.3568 11.8518 13.0708 11.5518L11.0158 9.3988C10.8238 9.1978 10.5558 9.0828 10.2788 9.0828Z" fill="black"/>
</svg>
