<svg width="24" height="24" viewBox="0 0 24 24" fill="none" xmlns="http://www.w3.org/2000/svg">
<path d="M20.097 8.9936C20.58 8.9936 20.972 9.3855 20.972 9.8686V16.1835C20.972 18.1826 19.3459 19.8085 17.347 19.8085H7.84101C7.35801 19.8085 6.96602 19.4175 6.96602 18.9335C6.96602 18.4506 7.35801 18.0585 7.84101 18.0585H17.347C18.381 18.0585 19.222 17.2185 19.222 16.1835V9.8686C19.222 9.3855 19.614 8.9936 20.097 8.9936ZM8.20912 4.1915C8.50802 4.1915 8.91802 4.3705 9.12102 4.5894L10.55 5.9134C10.753 6.1325 10.8511 6.1884 11.1501 6.1884H15.456C16.5951 6.1884 17.528 7.1214 17.528 8.2605V14.9135C17.528 15.7374 16.8531 16.4135 16.028 16.4135H5.09912C3.96012 16.4135 3.02802 15.4804 3.02802 14.3414V6.2635C3.02802 5.1234 3.96012 4.1915 5.09912 4.1915H8.20912ZM13.0461 9.7905C12.746 9.5055 12.2711 9.5164 11.9851 9.8145L10.2781 11.6034L8.57012 9.8145C8.28402 9.5154 7.81012 9.5055 7.51002 9.7905C7.21012 10.0765 7.19902 10.5514 7.48512 10.8514L9.54102 13.0044C9.73202 13.2044 10.001 13.3195 10.2781 13.3195C10.555 13.3195 10.824 13.2044 11.015 13.0044L13.071 10.8514C13.356 10.5514 13.345 10.0765 13.0461 9.7905Z" fill="black"/>
</svg>
