<svg width="24" height="24" viewBox="0 0 24 24" fill="none" xmlns="http://www.w3.org/2000/svg">
<path d="M10.9331 10.2228L13.4686 12.9129C13.4944 12.9405 13.4998 12.9726 13.4998 12.9945C13.4998 13.0169 13.4944 13.0477 13.4686 13.0753L10.9325 15.777C10.756 15.9651 10.756 16.2694 10.9313 16.4581C11.1065 16.6468 11.3916 16.6474 11.568 16.4593L14.1035 13.7583C14.295 13.5542 14.4 13.284 14.4 12.9945C14.3994 12.7057 14.2944 12.4335 14.1017 12.23L11.5674 9.5399C11.391 9.3524 11.1053 9.3537 10.9307 9.5418C10.7554 9.7305 10.7566 10.0354 10.9331 10.2228Z" fill="black" stroke="black" stroke-width="0.7"/>
<path fill-rule="evenodd" clip-rule="evenodd" d="M18.25 7.161H13.625C13.213 7.161 12.634 6.925 12.339 6.637L10.945 5.274C10.65 4.986 10.071 4.75 9.658 4.75H5.75C4.37 4.75 3.25 5.869 3.25 7.25V16.75C3.25 18.131 4.37 19.25 5.75 19.25H18.25C19.631 19.25 20.75 18.131 20.75 16.75V9.661C20.75 8.28 19.631 7.161 18.25 7.161Z" stroke="black" stroke-width="1.7"/>
</svg>
