<svg width="24" height="24" viewBox="0 0 24 24" fill="none" xmlns="http://www.w3.org/2000/svg">
<path d="M20.097 8.9936C20.58 8.9936 20.972 9.3855 20.972 9.8686V16.1835C20.972 18.1826 19.3459 19.8085 17.347 19.8085H7.84101C7.35801 19.8085 6.96602 19.4175 6.96602 18.9335C6.96602 18.4506 7.35801 18.0585 7.84101 18.0585H17.347C18.381 18.0585 19.222 17.2185 19.222 16.1835V9.8686C19.222 9.3855 19.614 8.9936 20.097 8.9936ZM8.20912 4.1915C8.50802 4.1915 8.91802 4.3705 9.12102 4.5894L10.55 5.9134C10.753 6.1325 10.8511 6.1884 11.1501 6.1884H15.456C16.5951 6.1884 17.528 7.1214 17.528 8.2605V14.9135C17.528 15.7374 16.8531 16.4135 16.028 16.4135H5.09912C3.96012 16.4135 3.02802 15.4804 3.02802 14.3414V6.2635C3.02802 5.1234 3.96012 4.1915 5.09912 4.1915H8.20912Z" fill="black"/>
</svg>
