<svg width="24" height="24" viewBox="0 0 24 24" fill="none" xmlns="http://www.w3.org/2000/svg">
<path d="M10.7314 13.0871C10.7056 13.0595 10.7002 13.0274 10.7002 13.0055C10.7002 12.9831 10.7056 12.9523 10.7314 12.9247L13.2675 10.223C13.444 10.0349 13.444 9.73059 13.2687 9.54189C13.0935 9.35319 12.8084 9.35259 12.632 9.54069L10.0965 12.2417C9.90499 12.4458 9.79999 12.716 9.79999 13.0055C9.80059 13.295 9.90559 13.5665 10.0983 13.77L12.6326 16.4601C12.809 16.6476 13.0947 16.6463 13.2693 16.4582C13.4446 16.2695 13.4434 15.9646 13.2669 15.7772L10.7314 13.0871Z" fill="black" stroke="black" stroke-width="0.7"/>
<path fill-rule="evenodd" clip-rule="evenodd" d="M18.25 7.161H13.625C13.213 7.161 12.634 6.925 12.339 6.637L10.945 5.274C10.65 4.986 10.071 4.75 9.658 4.75H5.75C4.37 4.75 3.25 5.869 3.25 7.25V16.75C3.25 18.131 4.37 19.25 5.75 19.25H18.25C19.631 19.25 20.75 18.131 20.75 16.75V9.661C20.75 8.28 19.631 7.161 18.25 7.161Z" stroke="black" stroke-width="1.5"/>
</svg>
