<svg width="24" height="24" viewBox="0 0 24 24" fill="none" xmlns="http://www.w3.org/2000/svg">
<path fill-rule="evenodd" clip-rule="evenodd" d="M15.0405 12.0281C15.2255 12.1801 15.3774 12.4991 15.3774 12.7391V15.7471C15.3774 16.2971 14.9274 16.7471 14.3775 16.7471H13.2515V14.2641C13.2515 13.8511 12.9144 13.5141 12.5015 13.5141H11.3885C10.9764 13.5141 10.6385 13.8511 10.6385 14.2641V16.7471H9.62247C9.0725 16.7471 8.6225 16.2971 8.6225 15.7471V12.7391C8.6225 12.4991 8.77347 12.1801 8.9585 12.0281L11.6625 9.72809C11.8485 9.57607 12.1515 9.57607 12.3375 9.72809L15.0405 12.0281Z" fill="black"/>
<path fill-rule="evenodd" clip-rule="evenodd" d="M18.25 7.16099H13.588C13.196 7.16099 12.646 6.93697 12.365 6.66299L10.918 5.24902C10.638 4.97497 10.087 4.74997 9.69505 4.74997H5.75005C4.369 4.74997 3.25 5.87002 3.25 7.25002V16.75C3.25 18.131 4.369 19.25 5.75005 19.25H18.25C19.631 19.25 20.75 18.131 20.75 16.75V9.66097C20.75 8.27999 19.631 7.16099 18.25 7.16099Z" stroke="black" stroke-width="1.125" stroke-linecap="round" stroke-linejoin="round"/>
</svg>
