<svg width="24" height="24" viewBox="0 0 24 24" fill="none" xmlns="http://www.w3.org/2000/svg">
<path d="M14.7882 12.415C14.9732 12.567 15.1252 12.886 15.1252 13.126V16.042C15.1252 16.641 14.6352 17.13 14.0372 17.13H13.0012V14.553C13.0012 14.193 12.7072 13.9 12.3482 13.9H11.0432C10.6842 13.9 10.3902 14.193 10.3902 14.553V17.13H9.46318C8.86418 17.13 8.37518 16.641 8.37518 16.042V13.126C8.37518 12.886 8.52618 12.567 8.71118 12.415L11.4132 10.117C11.5992 9.965 11.9012 9.965 12.0872 10.117L14.7882 12.415ZM12.0782 7.079L10.3532 5.48C10.1082 5.216 9.61418 5 9.25318 5H5.50018C4.12518 5 3.00018 6.125 3.00018 7.5V17.25C3.00018 18.625 4.12518 19.75 5.50018 19.75H18.0002C19.3752 19.75 20.5002 18.625 20.5002 17.25V9.911C20.5002 8.536 19.3752 7.411 18.0002 7.411H12.8022C12.4422 7.411 12.3232 7.343 12.0782 7.079Z" fill="black"/>
</svg>
