<svg width="24" height="24" viewBox="0 0 24 24" fill="none" xmlns="http://www.w3.org/2000/svg">
<path fill-rule="evenodd" clip-rule="evenodd" d="M13.4132 3.75009C13.6882 3.75009 13.9692 3.96809 14.0382 4.23409L14.5052 6.05309C14.5742 6.31909 15.1152 6.78909 15.2892 6.90009C15.4632 7.01209 15.8222 7.04309 16.0872 6.97009L17.8882 6.46809C18.1532 6.39409 18.4822 6.52809 18.6192 6.76709L20.0802 9.30709C20.2172 9.54609 20.1682 9.89909 19.9732 10.0921L18.6382 11.4081C18.4422 11.6011 18.2942 11.9281 18.3092 12.1341V12.5141C18.2942 12.7201 18.4422 13.0481 18.6382 13.2411L19.9732 14.5561C20.1682 14.7501 20.2172 15.1031 20.0802 15.3411L18.6192 17.8811C18.4822 18.1191 18.1532 18.2541 17.8882 18.1801L16.0872 17.6781C15.8222 17.6041 15.1482 17.8391 14.9642 17.9351C14.7812 18.0321 14.5742 18.3281 14.5062 18.5951L14.0382 20.4141C13.9692 20.6801 13.6882 20.8981 13.4132 20.8981H10.4952C10.2202 20.8981 9.9392 20.6801 9.8712 20.4141L9.4022 18.5951C9.3332 18.3281 8.7922 17.8591 8.6182 17.7471C8.4442 17.6361 8.0852 17.6041 7.8202 17.6781L6.0202 18.1801C5.7552 18.2541 5.4262 18.1191 5.2892 17.8811L3.8292 15.3411C3.6912 15.1031 3.7392 14.7501 3.9352 14.5561L5.2692 13.2411C5.4652 13.0481 5.6132 12.7201 5.5992 12.5141V12.1341C5.6132 11.9281 5.4652 11.6001 5.2692 11.4071L3.9342 10.0921C3.7392 9.89909 3.6912 9.54609 3.8282 9.30709L5.2892 6.76709C5.4262 6.52809 5.7552 6.39409 6.0202 6.46809L7.8202 6.97009C8.0852 7.04309 8.7592 6.80809 8.9432 6.71209C9.1272 6.61609 9.3332 6.31909 9.4022 6.05309L9.8702 4.23409C9.9382 3.96809 10.2202 3.75009 10.4952 3.75009H13.4132ZM11.9537 9.59009C10.4447 9.59009 9.2207 10.8141 9.2207 12.3241C9.2207 13.8331 10.4447 15.0581 11.9537 15.0581C13.4637 15.0581 14.6877 13.8331 14.6877 12.3241C14.6877 10.8141 13.4637 9.59009 11.9537 9.59009Z" stroke="black" stroke-width="1.5" stroke-linecap="round" stroke-linejoin="round"/>
</svg>
