<svg width="24" height="24" viewBox="0 0 24 24" fill="none" xmlns="http://www.w3.org/2000/svg">
<path fill-rule="evenodd" clip-rule="evenodd" d="M16.7165 14.575C15.8025 16.242 14.0305 17.375 11.9995 17.375C9.96849 17.375 8.19749 16.242 7.28349 14.575C6.86349 13.81 6.62449 12.932 6.62449 12C6.62449 11.067 6.86349 10.189 7.28349 9.425C8.19749 7.758 9.96849 6.625 11.9995 6.625C14.0305 6.625 15.8025 7.758 16.7165 9.425C17.1365 10.189 17.3745 11.067 17.3745 12C17.3745 12.932 17.1365 13.81 16.7165 14.575ZM17.2995 7.196C17.0945 6.97 16.9795 6.675 16.9795 6.369V4.598C16.9795 3.509 16.0955 2.625 15.0055 2.625H8.99449C7.90449 2.625 7.02149 3.509 7.02149 4.598V6.369C7.02149 6.675 6.90549 6.97 6.70049 7.196C5.54849 8.466 4.84549 10.15 4.84549 12C4.84549 13.849 5.54849 15.534 6.70049 16.804C6.90549 17.031 7.02149 17.325 7.02149 17.631V19.401C7.02149 20.491 7.90449 21.375 8.99449 21.375H15.0055C16.0955 21.375 16.9795 20.491 16.9795 19.401V17.631C16.9795 17.325 17.0945 17.031 17.2995 16.804C18.4515 15.534 19.1545 13.849 19.1545 12C19.1545 10.15 18.4515 8.466 17.2995 7.196Z" fill="black"/>
</svg>
