<svg width="24" height="24" viewBox="0 0 24 24" fill="none" xmlns="http://www.w3.org/2000/svg">
<path d="M15.5 9.8C15.1 9.8 14.7 9.5 14.7 9V7.4C14.7 6 13.6 5 12.3 5C11 5 9.9 6.1 9.9 7.4V9C9.9 9.4 9.6 9.8 9.1 9.8C8.6 9.8 8.5 9.5 8.5 9.1V7.4C8.5 5.3 10.2 3.5 12.3 3.5C14.4 3.5 16.2 5.3 16.2 7.4V9C16.2 9.5 15.9 9.8 15.5 9.8Z" fill="black"/>
<path d="M15.5 20.6H9.1C7.2 20.6 5.6 19.2 5.4 17.3L4.5 9.69999C4.5 9.29999 4.6 8.99999 4.8 8.69999C5 8.39999 5.4 8.29999 5.7 8.29999H18.8C19.2 8.29999 19.5 8.49999 19.7 8.69999C19.9 8.99999 20 9.29999 20 9.69999L19.1 17.3C19 19.1 17.4 20.6 15.5 20.6ZM6 9.79999L6.8 17.1C6.9 18.2 7.9 19.1 9 19.1H15.5C16.6 19.1 17.6 18.2 17.7 17.1L18.5 9.79999H6Z" fill="black"/>
</svg>
