<svg width="24" height="24" viewBox="0 0 24 24" fill="none" xmlns="http://www.w3.org/2000/svg">
<path d="M14.4536 8.06259H9.54759V7.94059C9.54759 6.58659 10.6466 5.48759 11.9996 5.48759C13.3526 5.48759 14.4536 6.58659 14.4536 7.94059V8.06259ZM12.1686 3.58959C9.69159 3.49659 7.64659 5.48459 7.64659 7.94059V8.06259H5.12059C4.52659 8.06259 4.06259 8.57759 4.12559 9.16659L4.97459 17.1986C5.16659 19.0256 6.70759 20.4136 8.54459 20.4136H15.4556C17.2926 20.4136 18.8336 19.0256 19.0266 17.1986L19.8746 9.16659C19.9366 8.57759 19.4746 8.06259 18.8806 8.06259H16.3526V8.04759C16.3526 5.69059 14.5236 3.67959 12.1686 3.58959Z" fill="black"/>
</svg>
