<svg width="24" height="24" viewBox="0 0 24 24" fill="none" xmlns="http://www.w3.org/2000/svg">
<mask id="mask0_702_1346" style="mask-type:luminance" maskUnits="userSpaceOnUse" x="13" y="8" width="3" height="3">
<path d="M13.5 9.1254C13.5 9.7474 14.003 10.2504 14.625 10.2504C15.246 10.2504 15.75 9.7474 15.75 9.1254C15.75 8.5034 15.246 8.0004 14.625 8.0004C14.003 8.0004 13.5 8.5034 13.5 9.1254Z" fill="white"/>
</mask>
<g mask="url(#mask0_702_1346)">
<path fill-rule="evenodd" clip-rule="evenodd" d="M8.5 15.2504H20.75V3.0004H8.5V15.2504Z" fill="black"/>
</g>
<path fill-rule="evenodd" clip-rule="evenodd" d="M8.75 5.4924C5.855 5.4924 3.5 7.8474 3.5 10.7424V16.4064C3.5 17.3864 4.328 17.9924 5.096 17.9924C5.502 17.9924 5.861 17.8474 6.164 17.5614L8.03 15.8104C8.727 15.1554 9.639 14.7944 10.596 14.7944H12.407C12.93 14.7944 13.439 14.9014 13.907 15.1064C14.409 13.3074 16.054 11.9924 18 11.9924C18.517 11.9924 19.026 12.0874 19.503 12.2664V10.7424C19.503 7.8474 17.147 5.4924 14.253 5.4924H8.75ZM5.096 19.4924C3.606 19.4924 2 18.3124 2 16.4064V10.7424C2 7.0204 5.028 3.9924 8.75 3.9924H14.253C17.975 3.9924 21.003 7.0204 21.003 10.7424V13.5634C21.003 13.8554 20.834 14.1204 20.569 14.2434C20.304 14.3664 19.992 14.3254 19.77 14.1374C19.276 13.7214 18.647 13.4924 18 13.4924C16.483 13.4924 15.25 14.7254 15.25 16.2424L15.254 16.3814C15.261 16.6844 15.085 16.9634 14.808 17.0854C14.529 17.2094 14.205 17.1524 13.985 16.9414C13.528 16.5114 12.981 16.2944 12.407 16.2944H10.596C10.021 16.2944 9.475 16.5114 9.057 16.9044L7.191 18.6534C6.611 19.2014 5.886 19.4924 5.096 19.4924Z" fill="black"/>
<path fill-rule="evenodd" clip-rule="evenodd" d="M8.21191 13.0266C7.79791 13.0266 7.46191 12.6906 7.46191 12.2766V8.24262C7.46191 7.82862 7.79791 7.49261 8.21191 7.49261C8.62591 7.49261 8.96191 7.82862 8.96191 8.24262V12.2766C8.96191 12.6906 8.62591 13.0266 8.21191 13.0266Z" fill="black"/>
<path fill-rule="evenodd" clip-rule="evenodd" d="M10.2295 11.01H6.19446C5.78046 11.01 5.44446 10.674 5.44446 10.26C5.44446 9.84601 5.78046 9.51001 6.19446 9.51001H10.2295C10.6435 9.51001 10.9795 9.84601 10.9795 10.26C10.9795 10.674 10.6435 11.01 10.2295 11.01Z" fill="black"/>
<mask id="mask1_702_1346" style="mask-type:luminance" maskUnits="userSpaceOnUse" x="13" y="11" width="10" height="10">
<path d="M14.344 13.5264C13.816 14.2454 13.5 15.1304 13.5 16.0894C13.5 17.6594 14.341 19.0334 15.592 19.7964C16.25 20.1994 17.022 20.4364 17.846 20.4364C20.244 20.4364 22.194 18.4854 22.194 16.0894C22.194 13.6924 20.244 11.7424 17.846 11.7424C16.409 11.7424 15.135 12.4474 14.344 13.5264ZM17.479 14.0094C17.479 13.7134 17.72 13.4724 18.016 13.4724C18.314 13.4724 18.555 13.7134 18.555 14.0094C18.555 14.3074 18.314 14.5484 18.016 14.5484C17.72 14.5484 17.479 14.3074 17.479 14.0094ZM16.898 15.9004C16.848 15.6424 17.045 15.4174 17.293 15.4174H18.338C18.486 15.4174 18.608 15.5374 18.608 15.6864V18.6904C18.608 18.9374 18.382 19.1334 18.124 19.0854C17.933 19.0484 17.8 18.8694 17.8 18.6734V16.2234H17.309C17.114 16.2234 16.935 16.0914 16.898 15.9004Z" fill="white"/>
</mask>
<g mask="url(#mask1_702_1346)">
<path fill-rule="evenodd" clip-rule="evenodd" d="M8.5 25.4354H27.194V6.7424H8.5V25.4354Z" fill="black"/>
</g>
</svg>
