<svg width="24" height="24" viewBox="0 0 24 24" fill="none" xmlns="http://www.w3.org/2000/svg">
<path d="M10.7071 6.73263C10.7071 6.25371 10.3332 5.86368 9.87373 5.86368C9.41455 5.86368 9.04089 6.25371 9.04089 6.73263V7.65182H10.7071V6.73263Z" fill="black"/>
<path d="M10.0674 17.9354L10.1024 17.84C10.2723 17.3704 10.3414 16.9806 10.7975 16.7515L10.5875 16.3744L8.29474 12.7188C8.17677 12.5077 8.09746 12.2822 8.05344 12.0511H7.64789C7.10377 12.0511 6.65842 11.606 6.65842 11.0616V8.6413C6.65842 8.09718 7.10377 7.65184 7.64789 7.65184H7.80424V6.73264C7.80424 5.57159 8.73274 4.62672 9.87404 4.62672C11.0156 4.62672 11.9441 5.57159 11.9441 6.73264V7.65184H12.1005C12.6446 7.65184 13.0899 8.09718 13.0899 8.6413V11.0616C13.0899 11.2877 13.1704 11.42 13.042 11.5868L13.5833 12.4507L13.5889 12.4479C13.9312 12.2568 14.1638 12.2481 14.5547 12.2769C14.7113 12.0802 14.9063 11.9105 15.1372 11.7813L15.2269 11.731C15.609 11.5177 16.0332 11.4454 16.4436 11.4948C16.5776 11.328 16.7413 11.1903 16.9236 11.0802V4.63688C16.9236 3.31101 15.7976 2.23575 14.4085 2.23575H5.34017C3.95052 2.23575 2.82446 3.31101 2.82446 4.63688V16.408C2.82446 17.7336 3.95052 18.8086 5.34017 18.8086H9.96689C9.93472 18.5142 9.96604 18.2153 10.0674 17.9354Z" fill="black"/>
<path d="M10.426 11.6896L10.3411 11.737C9.91913 11.9729 9.78508 12.5441 10.0439 13.007L12.2062 16.4526L13.0887 18.0342L13.3413 18.4857L12.7608 18.2757C12.2624 18.0954 11.7234 18.3116 11.5628 18.7552L11.5303 18.8444C11.37 19.2881 11.646 19.7992 12.1444 19.9792L14.2848 20.7548C14.2848 20.7548 16.6379 21.8009 18.668 20.5998C18.6691 20.5987 18.6697 20.5976 18.6713 20.597C18.673 20.5959 18.6753 20.5953 18.6773 20.5942L18.8218 20.5132C20.5642 19.5392 21.1159 17.1799 20.0489 15.2707L18.916 13.2449C18.6575 12.7823 18.1007 12.5972 17.6785 12.8331L17.5935 12.8805C17.1719 13.1165 17.1042 13.8065 17.3627 14.2691L17.2887 14.1361L17.1784 13.94C16.9199 13.4769 16.3631 13.2917 15.9409 13.5277L15.8559 13.5751C15.4343 13.811 15.3002 14.3825 15.5587 14.8451L15.4715 14.6896C15.213 14.227 14.6562 14.0419 14.234 14.2778L14.149 14.3252C13.7268 14.5612 13.5934 15.1327 13.8519 15.5952L11.6624 12.1013C11.405 11.6388 10.8479 11.4536 10.426 11.6896Z" fill="black"/>
</svg>
