<svg width="24" height="24" viewBox="0 0 24 24" fill="none" xmlns="http://www.w3.org/2000/svg">
<path fill-rule="evenodd" clip-rule="evenodd" d="M10.7277 11.2678H9.45969V12.5348C9.45969 12.9498 9.12469 13.2848 8.70969 13.2848C8.29669 13.2848 7.95969 12.9498 7.95969 12.5348V11.2678H6.69269C6.28069 11.2678 5.94269 10.9328 5.94269 10.5178C5.94269 10.1028 6.28069 9.76779 6.69269 9.76779H7.95969V8.49979C7.95969 8.08479 8.29669 7.74979 8.70969 7.74979C9.12469 7.74979 9.45969 8.08479 9.45969 8.49979V9.76779H10.7277C11.1427 9.76779 11.4777 10.1028 11.4777 10.5178C11.4777 10.9328 11.1427 11.2678 10.7277 11.2678ZM14.3797 10.5078C13.7597 10.5078 13.2547 10.0048 13.2547 9.38279C13.2547 8.76279 13.7597 8.25779 14.3797 8.25779C15.0017 8.25779 15.5047 8.76279 15.5047 9.38279C15.5047 10.0048 15.0017 10.5078 14.3797 10.5078ZM16.9147 13.2578C16.2947 13.2578 15.7897 12.7518 15.7897 12.1328C15.7897 11.5098 16.2947 11.0078 16.9147 11.0078C17.5377 11.0078 18.0397 11.5098 18.0397 12.1328C18.0397 12.7518 17.5377 13.2578 16.9147 13.2578ZM14.7497 4.24979H9.24969C5.52769 4.24979 2.49969 7.27779 2.49969 10.9998V16.6648C2.49969 18.5698 4.10469 19.7498 5.59469 19.7498C6.38169 19.7498 7.10769 19.4598 7.69269 18.9098L9.55469 17.1628C9.97269 16.7678 10.5197 16.5528 11.0947 16.5528H12.9057C13.4797 16.5528 14.0277 16.7678 14.4447 17.1628L16.3077 18.9098C16.8927 19.4598 17.6177 19.7498 18.4077 19.7498C19.8947 19.7498 21.4997 18.5698 21.4997 16.6648V10.9998C21.4997 7.27779 18.4727 4.24979 14.7497 4.24979Z" fill="black"/>
</svg>
