<svg width="24" height="24" viewBox="0 0 24 24" fill="none" xmlns="http://www.w3.org/2000/svg">
<path fill-rule="evenodd" clip-rule="evenodd" d="M11.7099 4.112C9.67287 4.112 7.75687 4.905 6.31387 6.346C3.34287 9.319 3.34287 14.157 6.31387 17.13C7.75687 18.569 9.67287 19.362 11.7089 19.362C13.7469 19.362 15.6629 18.569 17.1049 17.13C18.5429 15.691 19.3349 13.776 19.3349 11.737C19.3349 9.698 18.5429 7.783 17.1049 6.345C15.6629 4.905 13.7469 4.112 11.7099 4.112ZM11.7089 20.862C9.27187 20.862 6.98087 19.914 5.25387 18.191C1.69687 14.633 1.69687 8.843 5.25387 5.285C6.97987 3.561 9.27187 2.612 11.7099 2.612C14.1479 2.612 16.4399 3.561 18.1649 5.285C19.8869 7.006 20.8349 9.298 20.8349 11.737C20.8349 14.177 19.8869 16.468 18.1649 18.19C16.4389 19.913 14.1479 20.862 11.7089 20.862Z" fill="black"/>
<mask id="mask0_702_1379" style="mask-type:luminance" maskUnits="userSpaceOnUse" x="6" y="6" width="7" height="7">
<path d="M8.53302 7.25V8.533H7.25002C6.83502 8.533 6.49902 8.869 6.49902 9.283C6.49902 9.698 6.83502 10.033 7.25002 10.033H8.53302V11.317C8.53302 11.731 8.86902 12.067 9.28302 12.067C9.69802 12.067 10.033 11.731 10.033 11.317V10.033H11.317C11.731 10.033 12.067 9.698 12.067 9.283C12.067 8.869 11.731 8.533 11.317 8.533H10.033V7.25C10.033 6.835 9.69802 6.5 9.28302 6.5C8.86902 6.5 8.53302 6.835 8.53302 7.25Z" fill="white"/>
</mask>
<g mask="url(#mask0_702_1379)">
<path fill-rule="evenodd" clip-rule="evenodd" d="M1.5 17.067H17.067V1.5H1.5V17.067Z" fill="black"/>
</g>
<mask id="mask1_702_1379" style="mask-type:luminance" maskUnits="userSpaceOnUse" x="10" y="12" width="4" height="4">
<path d="M10.89 13.932C10.89 14.526 11.372 15.01 11.963 15.01C12.558 15.01 13.042 14.526 13.042 13.932C13.042 13.338 12.558 12.855 11.963 12.855C11.372 12.855 10.89 13.338 10.89 13.932Z" fill="white"/>
</mask>
<g mask="url(#mask1_702_1379)">
<path fill-rule="evenodd" clip-rule="evenodd" d="M5.89001 20.009H18.043V7.85501H5.89001V20.009Z" fill="black"/>
</g>
<mask id="mask2_702_1379" style="mask-type:luminance" maskUnits="userSpaceOnUse" x="12" y="10" width="4" height="3">
<path d="M12.898 11.866C12.898 12.462 13.381 12.945 13.979 12.945C14.57 12.945 15.052 12.462 15.052 11.866C15.052 11.274 14.57 10.791 13.979 10.791C13.381 10.791 12.898 11.274 12.898 11.866Z" fill="white"/>
</mask>
<g mask="url(#mask2_702_1379)">
<path fill-rule="evenodd" clip-rule="evenodd" d="M7.89801 17.945H20.052V5.79202H7.89801V17.945Z" fill="black"/>
</g>
<mask id="mask3_702_1379" style="mask-type:luminance" maskUnits="userSpaceOnUse" x="14" y="12" width="4" height="4">
<path d="M14.907 13.932C14.907 14.526 15.393 15.01 15.987 15.01C16.58 15.01 17.063 14.526 17.063 13.932C17.063 13.338 16.58 12.855 15.987 12.855C15.393 12.855 14.907 13.338 14.907 13.932Z" fill="white"/>
</mask>
<g mask="url(#mask3_702_1379)">
<path fill-rule="evenodd" clip-rule="evenodd" d="M9.90698 20.009H22.062V7.85501H9.90698V20.009Z" fill="black"/>
</g>
<mask id="mask4_702_1379" style="mask-type:luminance" maskUnits="userSpaceOnUse" x="12" y="14" width="4" height="4">
<path d="M12.898 15.995C12.898 16.587 13.381 17.072 13.979 17.072C14.57 17.072 15.052 16.587 15.052 15.995C15.052 15.4 14.57 14.919 13.979 14.919C13.381 14.919 12.898 15.4 12.898 15.995Z" fill="white"/>
</mask>
<g mask="url(#mask4_702_1379)">
<path fill-rule="evenodd" clip-rule="evenodd" d="M7.89801 22.072H20.052V9.91901H7.89801V22.072Z" fill="black"/>
</g>
</svg>
