<svg width="24" height="24" viewBox="0 0 24 24" fill="none" xmlns="http://www.w3.org/2000/svg">
<path d="M17.1599 2.45898H6.81366C5.22843 2.45898 3.94348 3.68551 3.94348 5.19821V18.6288C3.94348 20.1412 5.22843 21.3677 6.81366 21.3677H17.1601C18.7454 21.3677 20.0303 20.1412 20.0303 18.6288V5.19821C20.03 3.68551 18.7451 2.45898 17.1599 2.45898ZM8.31789 9.76736C8.31789 9.14647 8.82589 8.63848 9.44677 8.63848H9.62514V7.58946C9.62514 6.26472 10.6846 5.18692 11.9865 5.18692C13.2889 5.18692 14.3484 6.26444 14.3484 7.58946V8.63848H14.527C15.1476 8.63848 15.6559 9.14647 15.6559 9.76736V12.5292C15.6559 13.1498 15.1476 13.658 14.527 13.658H9.44706C8.82617 13.658 8.31818 13.1498 8.31818 12.5292V9.76736H8.31789ZM17.7723 19.0318H6.20124V15.6816H17.7723V19.0318Z" fill="black"/>
<path d="M12.9369 7.58974C12.9369 7.04308 12.5102 6.5983 11.9861 6.5983C11.4623 6.5983 11.0359 7.04308 11.0359 7.58974V8.63875H12.9369V7.58974Z" fill="black"/>
<path d="M7.30469 17.3566C7.30469 17.1694 7.37902 16.99 7.51134 16.8577C7.64365 16.7253 7.82311 16.651 8.01024 16.651C8.19736 16.651 8.37682 16.7253 8.50914 16.8577C8.64145 16.99 8.71579 17.1694 8.71579 17.3566C8.71579 17.5437 8.64145 17.7231 8.50914 17.8555C8.37682 17.9878 8.19736 18.0621 8.01024 18.0621C7.82311 18.0621 7.64365 17.9878 7.51134 17.8555C7.37902 17.7231 7.30469 17.5437 7.30469 17.3566Z" fill="black"/>
</svg>
