<svg width="24" height="24" viewBox="0 0 24 24" fill="none" xmlns="http://www.w3.org/2000/svg">
<path d="M16.806 13.18C16.172 13.18 15.66 12.664 15.66 12.028C15.66 11.391 16.172 10.875 16.806 10.875C17.439 10.875 17.952 11.391 17.952 12.028C17.952 12.664 17.439 13.18 16.806 13.18ZM14.271 10.431C13.639 10.431 13.125 9.915 13.125 9.278C13.125 8.642 13.639 8.126 14.271 8.126C14.905 8.126 15.417 8.642 15.417 9.278C15.417 9.915 14.905 10.431 14.271 10.431ZM10.601 11.146H9.35103V12.396C9.35103 12.81 9.01503 13.146 8.60103 13.146C8.18603 13.146 7.85103 12.81 7.85103 12.396V11.146H6.60103C6.18603 11.146 5.85103 10.81 5.85103 10.396C5.85103 9.982 6.18603 9.646 6.60103 9.646H7.85103V8.396C7.85103 7.982 8.18603 7.646 8.60103 7.646C9.01503 7.646 9.35103 7.982 9.35103 8.396V9.646H10.601C11.015 9.646 11.351 9.982 11.351 10.396C11.351 10.81 11.015 11.146 10.601 11.146ZM20.673 11.208C20.673 7.785 17.889 5 14.466 5H9.53403C6.11103 5 3.32703 7.785 3.32703 11.208V16.664C3.32703 18.107 4.54403 19 5.67203 19C6.25603 19 6.81903 18.774 7.25503 18.364L9.98403 15.802H14.015L16.744 18.364C17.187 18.781 17.735 19 18.327 19C19.456 19 20.673 18.107 20.673 16.664V11.208Z" fill="black"/>
</svg>
