<svg width="24" height="24" viewBox="0 0 24 24" fill="none" xmlns="http://www.w3.org/2000/svg">
<path d="M7.54012 8.796H8.82312V7.513C8.82312 7.098 9.15912 6.763 9.57312 6.763C9.98812 6.763 10.3231 7.098 10.3231 7.513V8.796H11.6071C12.0211 8.796 12.3571 9.132 12.3571 9.546C12.3571 9.961 12.0211 10.296 11.6071 10.296H10.3231V11.58C10.3231 11.994 9.98812 12.33 9.57312 12.33C9.15912 12.33 8.82312 11.994 8.82312 11.58V10.296H7.54012C7.12512 10.296 6.79012 9.961 6.79012 9.546C6.79012 9.132 7.12512 8.796 7.54012 8.796ZM13.3331 14.195C13.3331 14.789 12.8491 15.272 12.2541 15.272C11.6621 15.272 11.1801 14.789 11.1801 14.195C11.1801 13.601 11.6621 13.118 12.2541 13.118C12.8491 13.118 13.3331 13.601 13.3331 14.195ZM14.2691 11.055C14.8601 11.055 15.3431 11.537 15.3431 12.129C15.3431 12.725 14.8601 13.208 14.2691 13.208C13.6711 13.208 13.1881 12.725 13.1881 12.129C13.1881 11.537 13.6711 11.055 14.2691 11.055ZM16.2771 13.118C16.8701 13.118 17.3521 13.601 17.3521 14.195C17.3521 14.789 16.8701 15.272 16.2771 15.272C15.6831 15.272 15.1971 14.789 15.1971 14.195C15.1971 13.601 15.6831 13.118 16.2771 13.118ZM14.2691 17.335C13.6711 17.335 13.1881 16.851 13.1881 16.258C13.1881 15.663 13.6711 15.182 14.2691 15.182C14.8601 15.182 15.3431 15.663 15.3431 16.258C15.3431 16.851 14.8601 17.335 14.2691 17.335ZM11.9991 20.375C14.2381 20.375 16.3421 19.504 17.9251 17.923C21.1911 14.656 21.1911 9.344 17.9251 6.078C16.3421 4.496 14.2381 3.625 12.0001 3.625C9.76212 3.625 7.65812 4.496 6.07412 6.078C2.80912 9.344 2.80912 14.657 6.07412 17.923C7.65812 19.504 9.76212 20.375 11.9991 20.375Z" fill="black"/>
</svg>
