<svg width="24" height="24" viewBox="0 0 24 24" fill="none" xmlns="http://www.w3.org/2000/svg">
<path d="M8.4345 8.75031C9.0855 8.75031 9.6125 8.9153 10.0015 9.2423C10.3482 9.5339 10.5755 9.9416 10.6773 10.4577L10.7095 10.6563L10.7305 10.8263H9.4825L9.4695 10.7173C9.3705 10.1023 9.0495 9.8243 8.4535 9.8243C8.0745 9.8243 7.7845 9.9603 7.5915 10.2283C7.4113 10.4777 7.306 10.8396 7.2779 11.3054L7.2705 11.5113V11.9363C7.2705 12.4993 7.3875 12.9383 7.6195 13.2413C7.8405 13.5323 8.1545 13.6793 8.5525 13.6793C8.9082 13.6793 9.1809 13.6183 9.3674 13.497L9.4535 13.4313V12.5593H8.3105V11.5273H10.7155V13.8513L10.6915 13.8833C10.4665 14.1783 10.1635 14.3943 9.7825 14.5383C9.4115 14.6793 8.9865 14.7503 8.5175 14.7503C8.0295 14.7503 7.5895 14.6363 7.2085 14.4133C6.8255 14.1883 6.5275 13.8623 6.3205 13.4453C6.1465 13.0922 6.043 12.6861 6.012 12.236L6.0025 12.0073V11.5713C6.0025 10.6993 6.2175 10.0053 6.6395 9.50931C7.0685 9.0053 7.6735 8.75031 8.4345 8.75031ZM17.4984 8.8255V9.9045H14.9394V11.2525H17.1714V12.3225H14.9394V14.6745H13.6744V8.8255H17.4984ZM12.79 8.826V14.674H11.528V8.826H12.79Z" fill="black"/>
<path d="M17.2503 20.5002H6.25031C4.45541 20.5002 3.00031 19.0447 3.00031 17.2502V6.25021C3.00031 4.45501 4.45511 3.00021 6.25031 3.00021H17.2503C19.0455 3.00021 20.5003 4.45501 20.5003 6.25021V17.2502C20.5003 19.0447 19.0452 20.5002 17.2503 20.5002ZM17.2503 19.0002C18.2167 19.0002 19.0003 18.2164 19.0003 17.2502V6.25021C19.0003 5.28341 18.2171 4.50021 17.2503 4.50021H6.25031C5.28351 4.50021 4.50031 5.28341 4.50031 6.25021V17.2502C4.50031 18.2164 5.28391 19.0002 6.25031 19.0002H17.2503Z" fill="black"/>
</svg>
