<svg width="24" height="24" viewBox="0 0 24 24" fill="none" xmlns="http://www.w3.org/2000/svg">
<path fill-rule="evenodd" clip-rule="evenodd" d="M18.4284 2.21259C18.9014 2.21259 19.2854 2.59559 19.2854 3.06959V5.20359C20.6824 5.57159 21.7134 6.84659 21.7134 8.36659C21.7134 9.66659 20.9534 10.7946 19.8254 11.3336L19.6294 15.2816C19.6294 16.2376 18.8684 16.9986 17.9124 16.9986L15.0934 17.2436V19.5976C15.0934 20.2886 14.5324 20.8476 13.8434 20.8476H4.10638C3.41638 20.8476 2.85638 20.2886 2.85638 19.5976V19.1066C2.85638 16.3606 5.60238 13.8106 8.98638 13.8106H16.7114L16.8834 11.2606C15.8524 10.6956 15.1414 9.61759 15.1414 8.36659C15.1414 6.84659 16.1714 5.57159 17.5694 5.20359V3.06959C17.5694 2.59559 17.9544 2.21259 18.4284 2.21259ZM9.47798 4.83589C11.513 4.83589 13.155 6.47889 13.155 8.51389C13.155 10.5489 11.513 12.1919 9.47798 12.1919C7.44298 12.1919 5.79898 10.5489 5.79898 8.51389C5.79898 6.47889 7.44298 4.83589 9.47798 4.83589ZM18.4514 6.79759C17.5944 6.79759 16.8834 7.50859 16.8834 8.36659C16.8834 8.73459 17.0054 9.05359 17.2014 9.32259C17.4464 8.90659 17.8634 8.61159 18.4274 8.61159C19.0154 8.61159 19.4324 8.90659 19.6784 9.34759C19.8744 9.07759 19.9964 8.73459 20.0204 8.36659C20.0204 7.50859 19.3094 6.79759 18.4514 6.79759Z" fill="black"/>
</svg>
