<svg width="24" height="24" viewBox="0 0 24 24" fill="none" xmlns="http://www.w3.org/2000/svg">
<path d="M14.6339 9.37171C14.9249 9.13271 15.402 9.13271 15.693 9.37171L16.0319 9.65871L19.9389 12.9847C20.2309 13.2217 20.468 13.7247 20.468 14.1017V18.6847C20.468 19.6267 19.6989 20.3957 18.7579 20.3957H17.1299V16.3437C17.1299 15.7797 16.6679 15.3177 16.104 15.3177H14.052C13.4879 15.3177 13.026 15.7797 13.026 16.3437V20.3957H11.569C11.4419 20.3957 11.32 20.3807 11.201 20.3537C10.436 20.1847 9.8589 19.4997 9.8589 18.6847V14.1017C9.8589 13.7247 10.096 13.2217 10.388 12.9847L14.6339 9.37171ZM13.489 3.60431C14.8931 3.60431 16.032 4.69031 16.032 6.03031V7.85631C15.7591 7.75031 15.465 7.69231 15.1641 7.69231C14.618 7.69231 14.092 7.87631 13.684 8.21031C13.677 8.21731 9.4241 11.8353 9.4241 11.8353C8.795 12.3563 8.3581 13.2863 8.3581 14.1023V18.6853C8.3581 19.2973 8.53401 19.8673 8.83101 20.3543H6.074C4.6691 20.3543 3.5321 19.2683 3.5321 17.9283V6.03031C3.5321 4.69031 4.6691 3.60431 6.074 3.60431H13.489ZM11.8101 6.41731H11.0051C10.591 6.41731 10.2551 6.75331 10.2551 7.16731C10.2551 7.58131 10.591 7.91731 11.0051 7.91731H11.8101C12.225 7.91731 12.5601 7.58131 12.5601 7.16731C12.5601 6.75331 12.225 6.41731 11.8101 6.41731ZM8.0601 6.41731H7.2551C6.8411 6.41731 6.5051 6.75331 6.5051 7.16731C6.5051 7.58131 6.8411 7.91731 7.2551 7.91731H8.0601C8.475 7.91731 8.8101 7.58131 8.8101 7.16731C8.8101 6.75331 8.475 6.41731 8.0601 6.41731Z" fill="black"/>
</svg>
