<svg width="24" height="24" viewBox="0 0 24 24" fill="none" xmlns="http://www.w3.org/2000/svg">
<path d="M4.42159 17.4939L5.20909 18.8541C5.37269 19.1405 5.60789 19.3655 5.88409 19.5291L8.69659 14.6609H3.07159C3.07159 14.978 3.15339 15.295 3.31699 15.5814L4.42159 17.4939Z" fill="#0066DA"/>
<path d="M12 8.93359L9.18749 4.06549C8.91139 4.22909 8.67609 4.45409 8.51249 4.74049L3.31699 13.7405C3.15339 14.0268 3.07159 14.3439 3.07159 14.6609H8.69659L12 8.93359Z" fill="#00AC47"/>
<path d="M12 8.93361L14.8125 4.06551C14.5363 3.90181 14.2193 3.82001 13.892 3.82001H10.108C9.7807 3.82001 9.4636 3.91201 9.1875 4.06551L12 8.93361Z" fill="#00832D"/>
<path d="M15.3034 14.6609H8.69659L5.88409 19.5291C6.16019 19.6927 6.47729 19.7745 6.80459 19.7745H17.1954C17.5227 19.7745 17.8398 19.6825 18.1159 19.5291L15.3034 14.6609Z" fill="#2684FC"/>
<path d="M18.1159 19.5291C18.3921 19.3655 18.6273 19.1405 18.7909 18.8541L19.1182 18.2916L20.6829 15.5814C20.8466 15.295 20.9284 14.978 20.9284 14.6609H15.3136L18.1159 19.5291Z" fill="#EA4335"/>
<path d="M18.0852 9.24049L15.4875 4.74049C15.3239 4.45409 15.0886 4.22909 14.8125 4.06549L12 8.93359L15.3034 14.6609H20.9182C20.9182 14.3439 20.8364 14.0268 20.6727 13.7405L18.0852 9.24049Z" fill="#FFBA00"/>
</svg>
