<svg width="24" height="24" viewBox="0 0 24 24" fill="none" xmlns="http://www.w3.org/2000/svg">
<path d="M13.223 19.364H4.369C4.10379 19.364 3.84943 19.2586 3.6619 19.0711C3.47436 18.8836 3.369 18.6292 3.369 18.364V17.337C3.369 14.905 5.798 12.647 8.795 12.647C11.793 12.647 14.223 14.905 14.223 17.337V18.364C14.223 18.6292 14.1176 18.8836 13.9301 19.0711C13.7426 19.2586 13.4882 19.364 13.223 19.364ZM13.223 19.364H19.631C19.8962 19.364 20.1506 19.2586 20.3381 19.0711C20.5256 18.8836 20.631 18.6292 20.631 18.364V16.98C20.631 15.037 18.691 13.235 16.297 13.235C15.0971 13.2299 13.9424 13.6918 13.077 14.523M11.67 7.50999C11.67 8.27258 11.3671 9.00395 10.828 9.54327C10.2889 10.0826 9.55759 10.3857 8.795 10.386C8.22642 10.386 7.67061 10.2174 7.19784 9.90153C6.72507 9.58567 6.35658 9.13671 6.13895 8.61143C5.92131 8.08615 5.86432 7.50814 5.97517 6.95047C6.08602 6.3928 6.35974 5.88053 6.76172 5.47841C7.16369 5.07629 7.67588 4.8024 8.23351 4.69135C8.79114 4.58031 9.36917 4.6371 9.89453 4.85455C10.4199 5.072 10.869 5.44034 11.185 5.913C11.501 6.38566 11.6698 6.94141 11.67 7.50999ZM18.415 8.66399C18.4211 8.94607 18.3707 9.22652 18.267 9.48888C18.1632 9.75125 18.0081 9.99025 17.8107 10.1919C17.6133 10.3935 17.3777 10.5537 17.1176 10.663C16.8575 10.7723 16.5781 10.8286 16.296 10.8285C16.0138 10.8284 15.7346 10.772 15.4745 10.6626C15.2145 10.5531 14.9789 10.3929 14.7816 10.1912C14.5843 9.98945 14.4293 9.75037 14.3257 9.48795C14.222 9.22554 14.1718 8.94506 14.178 8.66299C14.1902 8.1091 14.4188 7.582 14.8149 7.19462C15.2109 6.80724 15.743 6.59038 16.297 6.59051C16.851 6.59065 17.383 6.80775 17.7788 7.19532C18.1747 7.58289 18.4031 8.11009 18.415 8.66399Z" stroke="black" stroke-width="1.5" stroke-linecap="round" stroke-linejoin="round"/>
</svg>
