<svg width="24" height="24" viewBox="0 0 24 24" fill="none" xmlns="http://www.w3.org/2000/svg">
<path d="M5.79 10.2C6.10645 10.2 6.4158 10.1062 6.67891 9.93035C6.94203 9.75454 7.14711 9.50466 7.26821 9.21229C7.38931 8.91993 7.421 8.59823 7.35926 8.28786C7.29752 7.97749 7.14514 7.69239 6.92137 7.46863C6.69761 7.24487 6.41252 7.09248 6.10215 7.03074C5.79178 6.96901 5.47007 7.00069 5.17771 7.12179C4.88535 7.24289 4.63546 7.44797 4.45965 7.71109C4.28384 7.97421 4.19 8.28355 4.19 8.6C4.19 9.02435 4.35857 9.43131 4.65863 9.73137C4.80721 9.87995 4.98359 9.9978 5.17771 10.0782C5.37183 10.1586 5.57989 10.2 5.79 10.2Z" fill="black"/>
<path d="M12.26 9.62001C12.8047 9.62398 13.3384 9.46607 13.7932 9.16631C14.2481 8.86655 14.6037 8.43846 14.8149 7.93633C15.0261 7.43419 15.0834 6.88064 14.9796 6.34588C14.8757 5.81112 14.6154 5.31925 14.2316 4.93265C13.8478 4.54606 13.3579 4.28215 12.8239 4.17441C12.2899 4.06667 11.736 4.11995 11.2323 4.32749C10.7286 4.53503 10.298 4.88748 9.99489 5.34014C9.69182 5.7928 9.53002 6.32527 9.53 6.87001C9.52869 7.22984 9.59826 7.5864 9.73474 7.91933C9.87122 8.25227 10.0719 8.55506 10.3255 8.81042C10.579 9.06578 10.8803 9.26871 11.2122 9.40762C11.5441 9.54653 11.9002 9.6187 12.26 9.62001Z" fill="black"/>
<path d="M6.99999 11.85C6.67341 11.7638 6.33771 11.7168 5.99999 11.71C5.04794 11.7114 4.12502 12.0385 3.38462 12.637C2.64421 13.2355 2.13091 14.0694 1.92999 15C2.52344 15.7363 3.30406 16.2993 4.18999 16.63C4.18999 16.57 4.18999 16.51 4.18999 16.45C4.58664 14.6459 5.57588 13.0265 6.99999 11.85Z" fill="black"/>
<path d="M12.26 11.64C10.7694 11.6433 9.32432 12.1542 8.16282 13.0884C7.00133 14.0227 6.19266 15.3247 5.87 16.78C6.63301 17.7438 7.60417 18.5226 8.71076 19.0579C9.81735 19.5932 11.0307 19.8713 12.26 19.8713C13.4893 19.8713 14.7026 19.5932 15.8092 19.0579C16.9158 18.5226 17.887 17.7438 18.65 16.78C18.3273 15.3247 17.5187 14.0227 16.3572 13.0884C15.1957 12.1542 13.7506 11.6433 12.26 11.64Z" fill="black"/>
<path d="M21.07 11C20.7048 10.9992 20.3509 11.1266 20.07 11.36L18.12 10.36L20.12 9.19999C20.3868 9.35304 20.6933 9.4227 21 9.39999C21.296 9.40962 21.5882 9.33141 21.8399 9.17522C22.0915 9.01903 22.2912 8.79184 22.414 8.5223C22.5367 8.25276 22.5768 7.95293 22.5294 7.66059C22.482 7.36825 22.3491 7.0965 22.1475 6.87957C21.9458 6.66265 21.6845 6.51026 21.3964 6.44163C21.1083 6.37299 20.8063 6.39117 20.5286 6.49388C20.2508 6.59659 20.0096 6.77923 19.8355 7.01879C19.6613 7.25834 19.562 7.54408 19.55 7.83999C19.55 7.83999 19.55 7.89999 19.55 7.92999L17.55 9.06999C17.3136 8.87257 17.0179 8.75992 16.71 8.74999C16.4682 8.73402 16.2261 8.77686 16.0045 8.87486C15.7829 8.97286 15.5883 9.1231 15.4374 9.31272C15.2865 9.50234 15.1838 9.7257 15.138 9.96368C15.0923 10.2017 15.1049 10.4472 15.1748 10.6792C15.2447 10.9113 15.3697 11.1229 15.5392 11.2961C15.7088 11.4692 15.9177 11.5988 16.1482 11.6735C16.3788 11.7483 16.6239 11.7661 16.8628 11.7255C17.1017 11.6848 17.3272 11.5868 17.52 11.44L19.52 12.52C19.5241 12.8136 19.6143 13.0996 19.7793 13.3424C19.9444 13.5853 20.1772 13.7743 20.4487 13.8862C20.7202 13.998 21.0186 14.0276 21.3068 13.9715C21.595 13.9153 21.8604 13.7757 22.0701 13.5701C22.2798 13.3645 22.4245 13.1019 22.4863 12.8148C22.5481 12.5278 22.5242 12.2289 22.4178 11.9552C22.3113 11.6815 22.1268 11.4452 21.8872 11.2754C21.6476 11.1056 21.3635 11.0098 21.07 11Z" fill="black"/>
</svg>
