<svg width="24" height="24" viewBox="0 0 24 24" fill="none" xmlns="http://www.w3.org/2000/svg">
<path d="M14.4649 4.00031C16.1414 4.00031 17.4999 5.3584 17.4999 7.03531C17.4999 7.44951 17.1641 7.78531 16.7499 7.78531C16.3357 7.78531 15.9999 7.44951 15.9999 7.03531C15.9999 6.23401 15.3873 5.57711 14.6047 5.50661L14.4649 5.50031H4.0349C3.2338 5.50031 2.5767 6.11271 2.5062 6.89551L2.4999 7.03531C2.4999 7.44951 2.1641 7.78531 1.7499 7.78531C1.3357 7.78531 0.999901 7.44951 0.999901 7.03531C0.999901 5.41831 2.2631 4.09771 3.8565 4.00541L4.0349 4.00031H14.4649Z" fill="black"/>
<path d="M9.2499 4.55289C9.6296 4.55289 9.9434 4.83509 9.9931 5.20109L9.9999 5.30289V19.1399C9.9999 19.5196 9.7177 19.8334 9.3517 19.8831L9.2499 19.8899H6.6109C6.1967 19.8899 5.8609 19.5541 5.8609 19.1399C5.8609 18.7602 6.1431 18.4464 6.5091 18.3967L6.6109 18.3899L8.499 18.389L8.4999 5.30289C8.4999 4.92319 8.7821 4.60939 9.1481 4.55969L9.2499 4.55289Z" fill="black"/>
<path d="M12.5999 14.8008C12.8928 14.5079 13.3676 14.5079 13.6605 14.8008C13.9268 15.067 13.951 15.4837 13.7331 15.7773L13.6605 15.8614C13.6083 15.9137 13.426 16.1714 13.3872 16.2052L12.92 18.545L15.2654 18.0848C15.2246 18.0927 15.4703 17.918 15.5716 17.835L15.6049 17.8058C15.8978 17.5129 16.3726 17.5129 16.6655 17.8058C16.9584 18.0987 16.9584 18.5735 16.6655 18.8664C16.4387 19.0932 15.994 19.4124 15.6686 19.5251L15.5529 19.557L12.412 20.1744C11.7625 20.3003 11.2221 19.8001 11.2764 19.1649L11.2923 19.0515L11.9086 15.9139C11.9736 15.5868 12.3457 15.0549 12.5999 14.8008Z" fill="black"/>
<path d="M17.8806 9.5204L12.9216 14.4794C12.3365 15.0624 12.3365 16.016 12.9216 16.601L14.8666 18.546C15.4515 19.1309 16.4033 19.1309 16.9882 18.546L21.9463 13.587C22.7141 12.8191 22.7141 11.5763 21.9462 10.8084L20.6582 9.5204C19.8913 8.7535 18.6475 8.7535 17.8806 9.5204ZM19.5976 10.581L20.8856 11.869C21.0677 12.0511 21.0677 12.3443 20.8856 12.5264L15.9272 17.4854L13.9813 15.5409L18.9412 10.581C19.1223 10.3999 19.4165 10.3999 19.5976 10.581Z" fill="black"/>
</svg>
