<svg width="24" height="24" viewBox="0 0 24 24" fill="none" xmlns="http://www.w3.org/2000/svg">
<path d="M11.1581 5.86569C11.405 5.86569 11.6403 5.90419 11.8548 5.98049C12.0695 6.05609 12.2823 6.17769 12.485 6.34239C12.6766 6.49919 12.8685 6.69809 13.0553 6.93389C13.2352 7.16269 13.4281 7.43999 13.6287 7.75799C13.742 7.94229 13.8674 8.17819 14.016 8.48279C14.161 8.78319 14.3162 9.12049 14.4749 9.48619C14.6429 9.86979 14.8117 10.2699 14.977 10.675C15.1493 11.0962 15.3191 11.5229 15.4866 11.9559C15.6491 12.3774 15.8081 12.8049 15.9593 13.2266C16.1138 13.6591 16.2408 14.0381 16.3483 14.3859C16.4568 14.7378 16.5473 15.0548 16.6158 15.328C16.6899 15.6307 16.7241 15.8462 16.7241 16.0087C16.7241 16.18 16.6894 16.3422 16.6211 16.4899C16.5586 16.6278 16.4767 16.7494 16.3772 16.8516C16.275 16.9583 16.1565 17.0427 16.0251 17.1017C15.8875 17.1638 15.7483 17.1954 15.6109 17.1954C15.2721 17.1954 15.0169 16.987 14.9122 16.6235C14.8594 16.4568 14.7974 16.2511 14.7258 16.015L14.5018 15.276C14.4229 15.0199 14.3415 14.7614 14.2579 14.5012C14.174 14.2415 14.0929 13.9971 14.0145 13.7671C13.9382 13.542 13.8643 13.3406 13.7963 13.1655C13.7739 13.1093 13.7541 13.0613 13.7357 13.0191L9.3221 13.6329C9.2839 13.8713 9.2472 14.1099 9.2118 14.35C9.1623 14.6805 9.1164 14.9854 9.0714 15.2642L8.9215 16.2239C8.8757 16.5148 8.824 16.8096 8.7675 17.0995C8.716 17.3471 8.5939 17.5463 8.4126 17.6779C8.2423 17.8025 8.0467 17.8653 7.8334 17.8653C7.571 17.8653 7.3316 17.7814 7.1226 17.6159C6.8916 17.4335 6.7687 17.1688 6.7687 16.8503V16.7644C6.7687 16.7094 6.777 16.6552 6.7939 16.6024C6.8421 16.2485 6.9117 15.817 6.9991 15.317C7.0877 14.8091 7.192 14.2623 7.3075 13.6932C7.422 13.1268 7.5413 12.5673 7.6634 12.0124C7.7849 11.4644 7.9065 10.9578 8.022 10.508C8.1115 10.1842 8.2082 9.85319 8.3124 9.50929C8.4171 9.16299 8.5357 8.81939 8.6638 8.48689C8.7936 8.15209 8.9363 7.83159 9.0877 7.53419C9.2465 7.22299 9.4238 6.94519 9.6154 6.70959C9.8163 6.46219 10.0424 6.26029 10.2873 6.11059C10.554 5.94759 10.8474 5.86569 11.1581 5.86569ZM11.3381 8.12419C11.2816 8.12419 11.1942 8.13599 11.0789 8.23189C10.9581 8.33489 10.8398 8.47729 10.7301 8.65539C10.6103 8.85079 10.5 9.07409 10.4036 9.31869C10.3016 9.57309 10.2074 9.84089 10.1223 10.1136C10.0379 10.3839 9.9615 10.6539 9.895 10.9169C9.8347 11.1527 9.7819 11.3652 9.7372 11.5538L10.6776 11.4182C11.095 11.3579 11.4517 11.3072 11.7463 11.2665C12.0361 11.2258 12.2747 11.1914 12.4603 11.1612C12.6419 11.1326 12.7901 11.1095 12.9069 11.0939C12.8758 11.0053 12.8504 10.9264 12.8293 10.8563C12.711 10.5223 12.5824 10.1691 12.4498 9.81449C12.3219 9.47269 12.1848 9.16269 12.0429 8.89069C11.9103 8.63679 11.7699 8.43059 11.6242 8.27809C11.4778 8.12419 11.3731 8.12419 11.3381 8.12419Z" fill="#3397FF"/>
</svg>
