<svg width="24" height="24" viewBox="0 0 24 24" fill="none" xmlns="http://www.w3.org/2000/svg">
<path fill-rule="evenodd" clip-rule="evenodd" d="M10.6505 18.8783C11.4275 19.5403 12.5725 19.5403 13.3505 18.8783C15.1965 17.3053 18.4085 14.4673 19.5385 12.8872C19.6415 12.7412 19.9345 12.3022 19.9345 12.3022C20.3795 11.5352 20.6355 10.6322 20.6355 9.66431C20.6355 6.88131 18.5095 4.62521 15.8855 4.62521C14.2795 4.62521 12.8595 5.47221 12.0005 6.76921C11.1405 5.47221 9.7205 4.62521 8.1135 4.62521C5.4905 4.62521 3.3645 6.88131 3.3645 9.66431C3.3645 10.6322 3.6225 11.5352 4.0665 12.3022C4.0665 12.3022 4.3585 12.7412 4.4625 12.8872C5.5915 14.4673 8.8035 17.3053 10.6505 18.8783Z" fill="black"/>
</svg>
