<svg width="24" height="24" viewBox="0 0 24 24" fill="none" xmlns="http://www.w3.org/2000/svg">
<path fill-rule="evenodd" clip-rule="evenodd" d="M19.756 17.689V10.987C19.756 10.437 19.408 9.702 18.982 9.354L12.775 4.072C12.349 3.724 11.652 3.724 11.227 4.072L5.019 9.354C4.593 9.702 4.244 10.437 4.244 10.987V13.273H10.795L9.406 11.939C9.108 11.652 9.098 11.178 9.384 10.879C9.671 10.58 10.147 10.57 10.444 10.857L12.875 13.191C13.101 13.407 13.231 13.71 13.231 14.023C13.231 14.335 13.101 14.639 12.875 14.856L10.444 17.189C10.299 17.329 10.112 17.398 9.925 17.398C9.729 17.398 9.531 17.321 9.384 17.168C9.098 16.869 9.108 16.394 9.406 16.107L10.795 14.773H4.244V17.689C4.244 19.064 5.369 20.189 6.744 20.189H17.256C18.631 20.189 19.756 19.064 19.756 17.689Z" fill="black"/>
</svg>
