<svg width="24" height="24" viewBox="0 0 24 24" fill="none" xmlns="http://www.w3.org/2000/svg">
<path d="M10.1253 10.3333L11.805 14.805C11.8113 14.8227 11.819 14.84 11.8273 14.8577C11.9877 15.2053 12.3273 15.426 12.7127 15.4357H12.7337C13.1087 15.4357 13.4467 15.2317 13.62 14.8977L15.0223 12.1993H19.988C19.9693 12.234 19.952 12.2683 19.9323 12.3023C19.9323 12.3023 19.6413 12.7423 19.5377 12.887C18.4077 14.4667 15.1957 17.3047 13.35 18.877C12.5717 19.541 11.4277 19.541 10.6487 18.877C8.81668 17.3163 5.63935 14.508 4.48868 12.9223H8.50068C8.79868 12.9223 9.06768 12.747 9.18668 12.472L10.1253 10.3333ZM15.8857 4.625C18.5107 4.625 20.6357 6.882 20.6357 9.665C20.6357 10.0187 20.6007 10.3647 20.535 10.6987H14.5683C14.289 10.6987 14.0313 10.855 13.9023 11.1023L12.8077 13.2087L11.0907 8.63567C11.0837 8.61767 11.0757 8.60067 11.0677 8.584C10.9027 8.22767 10.54 7.99067 10.1507 8.005C9.75868 8.00867 9.40268 8.24367 9.24568 8.60267L8.01101 11.422H3.66268C3.46968 10.875 3.36401 10.283 3.36401 9.665C3.36401 6.88167 5.49068 4.625 8.11301 4.625C9.72035 4.625 11.1393 5.47267 12.0003 6.76867C12.8593 5.47267 14.2793 4.625 15.8857 4.625Z" fill="black"/>
</svg>
