<svg width="24" height="24" viewBox="0 0 24 24" fill="none" xmlns="http://www.w3.org/2000/svg">
<path d="M4.3926 12.0754H8.5186L10.2026 8.66039L12.7416 14.5874L14.5636 11.3344H19.9906M20.25 9.71399C20.25 10.637 20.003 11.499 19.577 12.232C19.577 12.232 19.3 12.652 19.2 12.792C18.43 13.869 15.675 16.53 13.52 18.511C12.659 19.301 11.337 19.301 10.477 18.51C8.323 16.529 5.568 13.869 4.798 12.792C4.7 12.652 4.42 12.232 4.42 12.232C3.995 11.499 3.75 10.637 3.75 9.71399C3.75 7.05399 5.78 4.89999 8.285 4.89999C9.808 4.89999 11.175 5.71699 12 6.93699C12.822 5.71699 14.19 4.89999 15.713 4.89999C18.218 4.89999 20.25 7.05399 20.25 9.71399Z" stroke="black" stroke-width="1.3" stroke-linecap="round" stroke-linejoin="round"/>
</svg>
