<svg width="24" height="24" viewBox="0 0 24 24" fill="none" xmlns="http://www.w3.org/2000/svg">
<path fill-rule="evenodd" clip-rule="evenodd" d="M3.28205 7.1747C4.59805 4.3287 7.71305 3.4067 10.005 4.4007C13.053 5.7247 14.534 9.9757 12.517 13.6417C11.365 15.7377 9.48305 16.6167 8.18105 18.0087C6.68905 19.6027 5.30505 20.6857 3.59105 19.4527C3.37705 19.2987 2.73505 18.6897 2.70705 17.9317C2.70705 17.9127 2.70805 17.8997 2.70805 17.8877C2.70165 17.7152 2.69555 16.9898 2.69325 16.0202L2.69275 14.5757C2.69645 12.32 2.72175 9.6489 2.79705 9.0317C2.87905 8.3617 3.03405 7.8257 3.14505 7.5057V7.4727C3.16405 7.4287 3.18605 7.3887 3.20405 7.3447C3.22925 7.2799 3.24905 7.2324 3.26085 7.2048L3.27305 7.1767L3.28205 7.1747ZM17.3286 5.4898C17.6116 5.1858 18.0856 5.1688 18.3896 5.4498C20.2716 7.1968 21.3076 9.5228 21.3076 11.9998C21.3076 14.4778 20.2716 16.8038 18.3896 18.5498C18.2446 18.6838 18.0616 18.7498 17.8796 18.7498C17.6776 18.7498 17.4776 18.6688 17.3286 18.5098C17.0476 18.2058 17.0656 17.7318 17.3686 17.4498C18.9416 15.9908 19.8076 14.0558 19.8076 11.9998C19.8076 9.9448 18.9416 8.0088 17.3686 6.5498C17.0656 6.2678 17.0476 5.7938 17.3286 5.4898ZM15.1977 8.3592C15.4837 8.0582 15.9577 8.0452 16.2587 8.3302C17.2907 9.3082 17.8607 10.6112 17.8607 11.9992C17.8607 13.3882 17.2917 14.6912 16.2587 15.6692C16.1137 15.8072 15.9287 15.8742 15.7427 15.8742C15.5447 15.8742 15.3467 15.7962 15.1987 15.6402C14.9137 15.3402 14.9267 14.8652 15.2277 14.5802C15.9577 13.8882 16.3607 12.9722 16.3607 11.9992C16.3607 11.0272 15.9577 10.1112 15.2277 9.4192C14.9267 9.1342 14.9137 8.6602 15.1977 8.3592ZM8.14205 6.2577C7.24705 6.2477 6.39505 6.5907 5.75305 7.2197C5.11105 7.8497 4.75305 8.6907 4.74405 9.5897L4.72305 11.6627C4.71905 12.0767 5.05105 12.4157 5.46505 12.4207C5.88405 12.4207 6.21905 12.0897 6.22305 11.6777L6.23405 10.5327C6.66505 10.5777 7.06305 10.7687 7.37005 11.0817C7.72005 11.4377 7.90805 11.9077 7.90305 12.4067C7.89805 12.9047 7.70005 13.3717 7.34405 13.7197C6.98805 14.0687 6.52805 14.2527 6.01905 14.2527L5.44705 14.2477C5.02805 14.2477 4.69305 14.5777 4.68905 14.9897C4.68505 15.4037 5.01705 15.7427 5.43205 15.7477L6.00405 15.7527H6.03905C6.92505 15.7527 7.76005 15.4127 8.39305 14.7907C9.03605 14.1617 9.39405 13.3207 9.40305 12.4217C9.41205 11.5227 9.07105 10.6737 8.44105 10.0317C7.87505 9.4537 7.13605 9.1077 6.33805 9.0377C6.43005 8.7587 6.58705 8.5027 6.80405 8.2907C7.15905 7.9427 7.62605 7.7597 8.12805 7.7577C9.15605 7.7687 9.98405 8.6137 9.97405 9.6427C9.97105 10.0567 10.303 10.3957 10.717 10.3997C11.122 10.4027 11.471 10.0717 11.474 9.6577C11.493 7.8017 9.99805 6.2767 8.14205 6.2577Z" fill="black"/>
</svg>
