<svg width="24" height="24" viewBox="0 0 24 24" fill="none" xmlns="http://www.w3.org/2000/svg">
<path d="M3.51671 6.6297C4.99811 3.7177 8.36901 2.5057 11.1231 3.6988L11.3284 3.7926C14.7774 5.4491 16.1104 10.1656 13.9984 14.006C13.3897 15.114 12.6457 15.9063 11.4304 16.9015L10.3695 17.7647C10.024 18.0554 9.77491 18.2863 9.54451 18.5325L9.35441 18.7328C7.34121 20.8227 5.81141 21.4058 3.96191 20.0747C3.36521 19.6453 2.79711 18.8529 2.76401 17.942L2.75301 16.8237L2.75061 14.2585L2.75601 12.9352L2.76981 11.4888L2.79201 10.3104L2.81591 9.5874L2.83771 9.1867L2.85261 9.0064L2.86051 8.935C2.93721 8.3079 3.07621 7.7371 3.24441 7.2522L3.21361 7.3435L3.23051 7.2637L3.26451 7.1676L3.41291 6.8271L3.43771 6.7823L3.45401 6.759L3.51671 6.6297ZM10.5269 5.0752C8.44801 4.1746 5.84761 5.1515 4.77081 7.4807L4.73801 7.539L4.67901 7.681L4.66161 7.7437C4.55361 8.0552 4.45891 8.4172 4.39311 8.8143L4.34931 9.1185C4.34701 9.1368 4.34481 9.1573 4.34261 9.1801L4.32381 9.4445L4.30201 9.971L4.27281 11.3131L4.25371 13.3809L4.25201 16.6204L4.26401 17.922L4.27791 18.0282C4.33471 18.2997 4.54531 18.6044 4.75081 18.7869L4.83811 18.8572C5.81011 19.5567 6.60821 19.3382 7.94401 18.0271L8.27521 17.6914L8.58761 17.3631C8.77421 17.1727 8.97181 16.9886 9.20611 16.7855L9.58831 16.4634L10.7408 15.5242C11.6634 14.7439 12.2272 14.1147 12.6838 13.2835C14.4251 10.1174 13.2883 6.2754 10.5269 5.0752ZM19.3196 5.4361C19.8074 5.8504 20.3691 6.4637 20.9051 7.3213C21.7497 8.6726 22.2501 10.2379 22.2501 12.001C22.2496 13.7634 21.7492 15.3282 20.9051 16.6789C20.369 17.5367 19.8035 18.154 19.3186 18.5643C19.0024 18.8319 18.5291 18.7924 18.2616 18.4762C17.994 18.16 18.0334 17.6868 18.3496 17.4192C18.7245 17.102 19.1879 16.5962 19.6331 15.8839C20.3356 14.7598 20.7497 13.4649 20.7501 12.0008C20.7501 10.5362 20.336 9.2409 19.6331 8.1163C19.1879 7.4039 18.7273 6.901 18.3486 6.5794C18.0329 6.3113 17.9943 5.838 18.2624 5.5223C18.5306 5.2065 19.0039 5.168 19.3196 5.4361ZM8.92561 6.2232C10.7829 6.2232 12.2886 7.728 12.2886 9.5852C12.2886 9.9994 11.9528 10.3352 11.5386 10.3352C11.1244 10.3352 10.7886 9.9994 10.7886 9.5852C10.7886 8.5567 9.95471 7.7232 8.92561 7.7232C8.24481 7.7232 7.64941 8.088 7.32441 8.6327C8.99741 9.0798 10.2206 10.6055 10.2206 12.4069C10.2206 14.5651 8.47081 16.3149 6.31261 16.3149C5.89841 16.3149 5.56261 15.9791 5.56261 15.5649C5.56261 15.1506 5.89841 14.8149 6.31261 14.8149C7.64241 14.8149 8.72061 13.7366 8.72061 12.4069C8.72061 11.3433 8.02771 10.4352 7.06351 10.1191L7.06261 11.6772C7.06261 12.0914 6.72681 12.4272 6.31261 12.4272C5.93291 12.4272 5.61911 12.145 5.56941 11.7789L5.56261 11.6772V9.5852C5.56261 7.728 7.06831 6.2232 8.92561 6.2232ZM17.164 8.2957C17.4276 8.5162 17.7433 8.8616 18.0404 9.342C18.5104 10.1019 18.7898 10.9919 18.7898 12.0001C18.7898 13.0083 18.5104 13.8982 18.0404 14.6581C17.7433 15.1385 17.4276 15.4839 17.164 15.7044C16.8462 15.9701 16.3732 15.928 16.1075 15.6102C15.8418 15.2925 15.8839 14.8195 16.2016 14.5538C16.7568 14.0894 17.2898 13.2277 17.2898 12.0001C17.2898 10.7724 16.7568 9.9107 16.2016 9.4464C15.8839 9.1806 15.8418 8.7076 16.1075 8.3899C16.3732 8.0722 16.8462 8.03 17.164 8.2957Z" fill="black"/>
</svg>
