<svg width="24" height="24" viewBox="0 0 24 24" fill="none" xmlns="http://www.w3.org/2000/svg">
<path d="M6.42491 6.8456C7.87431 3.7778 11.4056 2.4792 14.2758 3.6965L14.4853 3.7903C18.0044 5.445 19.3682 10.1679 17.2069 14.0123C16.5853 15.1189 15.8264 15.9104 14.5887 16.9035L13.6871 17.6188L13.3335 17.9104C13.0648 18.138 12.8552 18.3329 12.6587 18.5386L12.4648 18.7384C10.4117 20.8228 8.86341 21.4002 6.98631 20.0785C6.37741 19.6484 5.79821 18.8571 5.76501 17.942L5.75681 17.3382L5.75061 14.2632L5.76191 12.2326L5.78681 10.5859L5.81331 9.6979L5.83971 9.1873L5.86281 8.9328C5.94161 8.3032 6.08461 7.7287 6.27011 7.2108L6.42491 6.8456ZM13.4938 4.9999C11.3935 4.2321 8.85031 5.2233 7.79331 7.4591L7.66951 7.7497C7.53261 8.1339 7.41581 8.6034 7.35131 9.1185L7.33801 9.2564L7.32561 9.4478L7.30341 9.9799L7.27341 11.3309L7.25371 13.3943L7.25201 16.6269L7.26501 17.918L7.27911 18.0268C7.33671 18.2954 7.55141 18.5993 7.76151 18.7822L7.85081 18.8527C8.97781 19.6463 9.87871 19.2733 11.5746 17.502L11.7156 17.3577C11.9535 17.1197 12.2091 16.8918 12.5332 16.6243L12.9584 16.281L13.4354 15.9041L13.9158 15.5169C14.8567 14.7373 15.4328 14.1077 15.8992 13.2774C17.6766 10.116 16.517 6.2801 13.6894 5.0771L13.4938 4.9999ZM12.0425 6.2232C13.9273 6.2232 15.4615 7.7244 15.4615 9.5852C15.4615 9.9994 15.1257 10.3352 14.7115 10.3352C14.2973 10.3352 13.9615 9.9994 13.9615 9.5852C13.9615 8.5602 13.1061 7.7232 12.0425 7.7232C11.3405 7.7232 10.7292 8.0878 10.3946 8.6305C12.0993 9.0745 13.3495 10.5999 13.3495 12.4069C13.3495 14.5685 11.5654 16.3149 9.37351 16.3149C8.95931 16.3149 8.62351 15.9791 8.62351 15.5649C8.62351 15.1506 8.95931 14.8149 9.37351 14.8149C10.744 14.8149 11.8495 13.7328 11.8495 12.4069C11.8495 11.3375 11.1282 10.4217 10.1233 10.1119L10.1235 11.6772C10.1235 12.0914 9.78771 12.4272 9.37351 12.4272C8.99381 12.4272 8.68001 12.145 8.63031 11.7789L8.62351 11.6772V9.5852C8.62351 7.7244 10.1577 6.2232 12.0425 6.2232Z" fill="black"/>
</svg>
