<svg width="24" height="24" viewBox="0 0 24 24" fill="none" xmlns="http://www.w3.org/2000/svg">
<path d="M3.40921 6.85119C4.82911 3.77979 8.30021 2.47589 11.1231 3.69879L11.3284 3.79259C14.7774 5.44909 16.1104 10.1656 13.9984 14.006C13.3901 15.1133 12.6465 15.9054 11.4327 16.8998L10.5512 17.6139L10.2052 17.9053C9.94241 18.1326 9.73741 18.3273 9.54541 18.5327L9.35511 18.733C7.34061 20.823 5.81131 21.4057 3.96191 20.0747C3.36521 19.6453 2.79711 18.8529 2.76401 17.942L2.75301 16.8237L2.75061 14.2585L2.75601 12.9352L2.76981 11.4888L2.79201 10.3104L2.81591 9.5874L2.83771 9.18669L2.85261 9.00639L2.86051 8.935C2.93721 8.3079 3.07621 7.73709 3.25791 7.21619L3.40921 6.85119ZM10.5269 5.07519C8.44801 4.17459 5.84761 5.15149 4.78381 7.45089L4.66161 7.74369C4.52651 8.13299 4.41251 8.60139 4.34931 9.11849C4.34701 9.13679 4.34481 9.1573 4.34261 9.1801L4.32381 9.44449L4.30201 9.97099L4.27281 11.3131L4.25371 13.3809L4.25201 16.6204L4.26401 17.922L4.27791 18.0282C4.33471 18.2997 4.54531 18.6044 4.75081 18.7869L4.83811 18.8572C5.84891 19.5847 6.67151 19.3193 8.10751 17.8647L8.58831 17.3633C8.77481 17.1728 8.97241 16.9887 9.20661 16.7856L9.58861 16.4635L10.0923 16.0551L10.7425 15.5228C11.664 14.7432 12.2275 14.1142 12.6838 13.2835C14.4251 10.1174 13.2883 6.27539 10.5269 5.07519ZM17.6147 15.0822L17.7117 15.1305L17.8028 15.194L19.1248 16.267C19.4465 16.5281 19.4956 17.0004 19.2345 17.322C18.9972 17.6144 18.5853 17.6815 18.2707 17.4952L18.1796 17.4317L16.8576 16.3587C16.5359 16.0977 16.4868 15.6253 16.7479 15.3037C16.9614 15.0406 17.3165 14.9599 17.6147 15.0822ZM8.92561 6.22319C10.7829 6.22319 12.2886 7.728 12.2886 9.5852C12.2886 9.9994 11.9528 10.3352 11.5386 10.3352C11.1244 10.3352 10.7886 9.9994 10.7886 9.5852C10.7886 8.5567 9.95471 7.72319 8.92561 7.72319C8.24481 7.72319 7.64941 8.08799 7.32441 8.63269C8.99741 9.07979 10.2206 10.6055 10.2206 12.4069C10.2206 14.5651 8.47081 16.3149 6.31261 16.3149C5.89841 16.3149 5.56261 15.9791 5.56261 15.5649C5.56261 15.1506 5.89841 14.8149 6.31261 14.8149C7.64241 14.8149 8.72061 13.7366 8.72061 12.4069C8.72061 11.3433 8.02771 10.4352 7.06351 10.1191L7.06261 11.6772C7.06261 12.0914 6.72681 12.4272 6.31261 12.4272C5.93291 12.4272 5.61911 12.145 5.56941 11.7789L5.56261 11.6772V9.5852C5.56261 7.728 7.06831 6.22319 8.92561 6.22319ZM20.2506 10.75C20.6648 10.75 21.0006 11.0857 21.0006 11.5C21.0006 11.8797 20.7184 12.1934 20.3524 12.2431L20.2506 12.25H18.4826C18.0684 12.25 17.7326 11.9142 17.7326 11.5C17.7326 11.1203 18.0148 10.8065 18.3808 10.7568L18.4826 10.75H20.2506ZM19.2348 5.67869C19.4721 5.97109 19.4531 6.38799 19.2061 6.65749L19.1251 6.73369L17.8031 7.80669C17.4815 8.06769 17.0092 8.01859 16.7482 7.69699C16.5109 7.40459 16.5299 6.98769 16.7769 6.71819L16.8579 6.64199L18.1799 5.56899C18.5015 5.30799 18.9738 5.35709 19.2348 5.67869Z" fill="black"/>
</svg>
