<svg width="24" height="24" viewBox="0 0 24 24" fill="none" xmlns="http://www.w3.org/2000/svg">
<path d="M9.29998 8.80001C9.59998 7.50001 10.7 6.50001 12.1 6.50001C13.7 6.50001 14.9 7.80001 14.9 9.30001C14.9 9.80001 14.6 11 13.4 11.8C12.8 12.2 12.7 12.6 12.7 12.9C12.7 13.3 12.4 13.7 12 13.7C11.6 13.7 11.3 13.4 11.3 13C11.3 12 11.7 11.2 12.6 10.6C13.4 10 13.4 9.40001 13.4 9.30001C13.4 8.60001 12.8 8.00001 12.1 8.00001C11.5 8.00001 10.9 8.50001 10.8 9.10001C10.7 9.50001 10.3 9.80001 9.89998 9.70001C9.49998 9.60001 9.19998 9.20001 9.29998 8.80001ZM12 16.8C11.4 16.8 11 16.4 11 15.8C11 15.2 11.4 14.8 12 14.8C12.6 14.8 13 15.2 13 15.8C13 16.4 12.6 16.8 12 16.8ZM12 20.4C16.6 20.4 20.4 16.7 20.4 12C20.4 7.40001 16.7 3.60001 12 3.60001C7.39998 3.60001 3.59998 7.30001 3.59998 12C3.59998 16.6 7.39998 20.4 12 20.4Z" fill="black"/>
</svg>
