<svg width="24" height="24" viewBox="0 0 24 24" fill="none" xmlns="http://www.w3.org/2000/svg">
<path d="M11.8105 15.1194C11.2585 15.1194 10.8105 15.5674 10.8105 16.1194C10.8105 16.6714 11.2585 17.1194 11.8105 17.1194C12.3615 17.1194 12.8105 16.6714 12.8105 16.1194C12.8105 15.5674 12.3615 15.1194 11.8105 15.1194Z" fill="black"/>
<path d="M9.79395 9.24729C9.97695 8.27329 10.8309 7.53729 11.8569 7.53729C13.0169 7.53729 13.9569 8.47729 13.9569 9.63729C13.9569 9.63729 13.9769 10.7073 12.8059 11.5153C11.9399 12.1113 11.7839 12.7673 11.7969 13.2873" stroke="black" stroke-width="1.5" stroke-linecap="round" stroke-linejoin="round"/>
<path fill-rule="evenodd" clip-rule="evenodd" d="M20.25 12.176C20.25 16.801 16.5 20.55 11.875 20.55C7.25 20.55 3.5 16.801 3.5 12.176C3.5 7.551 7.25 3.8 11.875 3.8C16.5 3.8 20.25 7.551 20.25 12.176Z" stroke="black" stroke-width="1.5" stroke-linecap="round" stroke-linejoin="round"/>
</svg>
