<svg width="24" height="24" viewBox="0 0 24 24" fill="none" xmlns="http://www.w3.org/2000/svg">
<path fill-rule="evenodd" clip-rule="evenodd" d="M11.2225 19.4705C11.3687 19.4757 11.497 19.4781 11.6046 19.479L11.7913 19.4791C11.8438 19.4788 11.8861 19.4781 11.9176 19.4775C12.3986 19.4605 12.8026 19.8465 12.8146 20.3295C12.8265 20.8125 12.4456 21.2145 11.9626 21.2265C11.9046 21.2275 11.8166 21.2295 11.7015 21.2295C11.5606 21.2295 11.3776 21.2275 11.1576 21.2195C10.6756 21.2015 10.2976 20.7955 10.3156 20.3125C10.3335 19.8305 10.7346 19.4525 11.2225 19.4705ZM15.8668 19.0044C16.3258 18.8534 16.8208 19.1024 16.9718 19.5614C17.1228 20.0204 16.8738 20.5154 16.4148 20.6664C16.1578 20.7514 15.8898 20.8254 15.6168 20.8894C15.5508 20.9044 15.4827 20.9124 15.4178 20.9124C15.0198 20.9124 14.6598 20.6394 14.5658 20.2354C14.4568 19.7644 14.7498 19.2944 15.2208 19.1854C15.4428 19.1334 15.6608 19.0724 15.8668 19.0044ZM6.26269 19.1314C6.46869 18.6934 6.99069 18.5074 7.42769 18.7134C7.61959 18.8044 7.82469 18.8884 8.03669 18.9624C8.49269 19.1224 8.73269 19.6214 8.57269 20.0774C8.44669 20.4384 8.10769 20.6634 7.74669 20.6634C7.65069 20.6634 7.55359 20.6474 7.45769 20.6134C7.18869 20.5204 6.92769 20.4124 6.68069 20.2954C6.24269 20.0894 6.05669 19.5684 6.26269 19.1314ZM18.6056 16.8437C18.8365 16.4187 19.3666 16.2607 19.7926 16.4897C20.2176 16.7187 20.3756 17.2507 20.1466 17.6757C20.0096 17.9297 19.8556 18.1757 19.6926 18.4047C19.5216 18.6437 19.2536 18.7707 18.9806 18.7707C18.8046 18.7707 18.6266 18.7187 18.4726 18.6087C18.0786 18.3277 17.9876 17.7817 18.2686 17.3877C18.3896 17.2177 18.5036 17.0347 18.6056 16.8437ZM3.96529 15.6283C4.41729 15.4543 4.92229 15.6813 5.09529 16.1323C5.17529 16.3403 5.26429 16.5423 5.36119 16.7313C5.58129 17.1613 5.41129 17.6893 4.98129 17.9093C4.85329 17.9743 4.71729 18.0053 4.58329 18.0053C4.26529 18.0053 3.95829 17.8313 3.80329 17.5293C3.67829 17.2843 3.56329 17.0253 3.46029 16.7573C3.28729 16.3063 3.51429 15.8003 3.96529 15.6283ZM20.4127 12.2881C20.8947 12.3161 21.2637 12.7301 21.2346 13.2131C21.2217 13.4481 21.2007 13.7111 21.1716 13.9971C21.1266 14.4481 20.7457 14.7841 20.3027 14.7841C20.2726 14.7841 20.2427 14.7831 20.2136 14.7801C19.7317 14.7311 19.3827 14.3021 19.4307 13.8211C19.4566 13.5611 19.4757 13.3231 19.4876 13.1101C19.5167 12.6281 19.9267 12.2601 20.4127 12.2881ZM3.63879 11.3902C4.12169 11.3902 4.51379 11.7822 4.51379 12.2652V12.2932C4.51379 12.5062 4.51979 12.7342 4.53179 12.9712C4.55569 13.4532 4.18379 13.8652 3.70179 13.8892C3.68679 13.8892 3.67179 13.8902 3.65679 13.8902C3.19379 13.8902 2.80679 13.5272 2.78379 13.0592C2.76979 12.7932 2.76379 12.5352 2.76379 12.2932V12.2652C2.76379 11.7822 3.15579 11.3902 3.63879 11.3902ZM19.9265 7.8878C20.4004 7.7878 20.8635 8.0898 20.9645 8.5618C21.0195 8.8238 21.0655 9.0938 21.1025 9.3658V9.3678L21.1033 9.3725L21.1035 9.3778L21.1265 9.5618C21.1855 10.0418 20.8435 10.4778 20.3625 10.5358C20.3274 10.5398 20.2924 10.5418 20.2575 10.5418C19.8204 10.5418 19.4425 10.2168 19.3895 9.7728L19.3675 9.5988C19.3375 9.3698 19.2985 9.1438 19.2525 8.9248C19.1515 8.4518 19.4535 7.9878 19.9265 7.8878ZM3.25599 7.8037C3.39499 7.3417 3.88099 7.0777 4.34599 7.2177C4.80799 7.3567 5.07099 7.8447 4.93199 8.3067C4.86999 8.5167 4.81399 8.7367 4.76699 8.9597C4.68199 9.3727 4.31799 9.6577 3.91199 9.6577C3.85299 9.6577 3.79399 9.6517 3.73299 9.6387C3.25999 9.5407 2.95599 9.0777 3.05399 8.6047C3.11099 8.3317 3.17799 8.0617 3.25599 7.8037ZM17.3727 4.5859C17.6646 4.2009 18.2136 4.1259 18.5986 4.4189C18.7757 4.5529 18.9467 4.6979 19.1067 4.8479L19.1406 4.8829C19.1897 4.9339 19.2367 4.9859 19.2837 5.0389C19.6017 5.4009 19.5657 5.9549 19.2027 6.2729C19.0366 6.4189 18.8307 6.4909 18.6257 6.4909C18.3836 6.4909 18.1406 6.3899 17.9687 6.1929C17.9417 6.1639 17.9157 6.1339 17.8897 6.1059C17.7787 6.0029 17.6607 5.9039 17.5396 5.8119C17.1546 5.5199 17.0797 4.9709 17.3727 4.5859ZM6.10589 3.9656C6.52289 3.7226 7.05889 3.8616 7.30289 4.2796C7.54789 4.6966 7.40689 5.2326 6.98989 5.4766C6.80289 5.5856 6.62489 5.7056 6.46089 5.8316C6.30189 5.9556 6.11289 6.0146 5.92689 6.0146C5.66489 6.0146 5.40589 5.8966 5.23289 5.6736C4.93789 5.2906 5.00989 4.7416 5.39189 4.4466C5.61489 4.2736 5.85589 4.1126 6.10589 3.9656ZM14.212 2.841C14.345 2.855 14.483 2.873 14.6259 2.891C14.753 2.908 14.879 2.927 15.004 2.948C15.4799 3.028 15.801 3.479 15.721 3.956C15.649 4.383 15.2789 4.686 14.859 4.686C14.811 4.686 14.762 4.682 14.713 4.674C14.608 4.656 14.5019 4.64 14.395 4.626C14.2659 4.609 14.1399 4.594 14.018 4.58C13.539 4.527 13.192 4.094 13.246 3.614C13.299 3.134 13.728 2.788 14.212 2.841ZM10.5568 2.7725C11.0398 2.7395 11.4578 3.1015 11.4928 3.5835C11.5268 4.0655 11.1637 4.4845 10.6818 4.5185C10.4658 4.5345 10.2267 4.5555 9.97179 4.5845C9.93679 4.5875 9.90479 4.5895 9.87179 4.5895C9.43179 4.5895 9.05379 4.2595 9.00379 3.8125C8.94879 3.3325 9.29479 2.8995 9.77479 2.8455C10.0568 2.8135 10.3188 2.7905 10.5568 2.7725Z" fill="black"/>
</svg>
