<svg width="24" height="24" viewBox="0 0 24 24" fill="none" xmlns="http://www.w3.org/2000/svg">
<path d="M12.1252 3.0002C7.08568 3.0002 3.00018 7.0853 3.00018 12.1252C3.00018 17.1644 7.08598 21.2502 12.1252 21.2502C17.1644 21.2502 21.2502 17.1644 21.2502 12.1252C21.2502 7.0853 17.1647 3.0002 12.1252 3.0002ZM12.1252 4.5002C16.3363 4.5002 19.7502 7.9138 19.7502 12.1252C19.7502 16.336 16.336 19.7502 12.1252 19.7502C7.91438 19.7502 4.50018 16.336 4.50018 12.1252C4.50018 7.9138 7.91408 4.5002 12.1252 4.5002Z" fill="black"/>
<path d="M12.4936 16.2502C12.9078 16.2502 13.2436 16.586 13.2436 17.0002C13.2436 17.3799 12.9614 17.6937 12.5954 17.7434L12.4936 17.7502H5.96558C5.55138 17.7502 5.21558 17.4144 5.21558 17.0002C5.21558 16.6205 5.49778 16.3067 5.86378 16.257L5.96558 16.2502H12.4936ZM12.4936 13.0002C12.9078 13.0002 13.2436 13.336 13.2436 13.7502C13.2436 14.1299 12.9614 14.4437 12.5954 14.4934L12.4936 14.5002H4.21558C3.80138 14.5002 3.46558 14.1644 3.46558 13.7502C3.46558 13.3705 3.74778 13.0567 4.11378 13.007L4.21558 13.0002H12.4936ZM12.4936 9.7502C12.9078 9.7502 13.2436 10.086 13.2436 10.5002C13.2436 10.8799 12.9614 11.1937 12.5954 11.2434L12.4936 11.2502H4.21558C3.80138 11.2502 3.46558 10.9144 3.46558 10.5002C3.46558 10.1205 3.74778 9.8067 4.11378 9.757L4.21558 9.7502H12.4936ZM12.4936 6.5002C12.9078 6.5002 13.2436 6.836 13.2436 7.2502C13.2436 7.6299 12.9614 7.9437 12.5954 7.9934L12.4936 8.0002H5.96558C5.55138 8.0002 5.21558 7.6644 5.21558 7.2502C5.21558 6.8705 5.49778 6.5567 5.86378 6.507L5.96558 6.5002H12.4936Z" fill="black"/>
<path d="M12.1252 3.7502C16.7502 3.7502 20.5002 7.4992 20.5002 12.1252C20.5002 16.7502 16.7502 20.5002 12.1252 20.5002V3.7502Z" fill="black"/>
</svg>
