<svg width="24" height="24" viewBox="0 0 24 24" fill="none" xmlns="http://www.w3.org/2000/svg">
<path fill-rule="evenodd" clip-rule="evenodd" d="M13.2673 4.6561L18.8743 9.3321C19.6143 9.9491 20.0423 10.8641 20.0423 11.8271V17.4711C20.0423 18.8521 18.9233 19.9711 17.5423 19.9711L15.0183 19.9704L15.0188 13.8904C15.0188 13.1111 14.4235 12.47 13.6632 12.3973L13.5188 12.3904H10.7728C9.94481 12.3904 9.27281 13.0624 9.27281 13.8904V19.7704L14.9893 19.9704L6.75031 19.9711C5.36931 19.9711 4.25031 18.8521 4.25031 17.4711V11.8271C4.25031 10.8641 4.67831 9.9491 5.41831 9.3321L11.0253 4.6561C11.6743 4.1151 12.6173 4.1151 13.2673 4.6561Z" stroke="black" stroke-width="1.5" stroke-linecap="round" stroke-linejoin="round"/>
</svg>
