<svg width="24" height="24" viewBox="0 0 24 24" fill="none" xmlns="http://www.w3.org/2000/svg">
<path d="M4.17753 17.9939L8.53153 13.8879C8.92253 13.5199 9.53353 13.5259 9.91753 13.9009L11.2875 15.2419C11.4845 15.4339 11.8055 15.4339 12.0015 15.2419L15.3655 11.9449C15.7605 11.5579 16.3945 11.5649 16.7815 11.9599L19.9625 15.2149M17.5701 20.0779H6.57013C5.18913 20.0779 4.07013 18.9589 4.07013 17.5779V6.5779C4.07013 5.1969 5.18913 4.0779 6.57013 4.0779H17.5701C18.9511 4.0779 20.0701 5.1969 20.0701 6.5779V17.5779C20.0701 18.9589 18.9511 20.0779 17.5701 20.0779ZM8.81233 10.6624C9.77733 10.6624 10.5623 9.8774 10.5623 8.9124C10.5623 7.9474 9.77733 7.1624 8.81233 7.1624C7.84733 7.1624 7.06233 7.9474 7.06233 8.9124C7.06233 9.8774 7.84733 10.6624 8.81233 10.6624Z" stroke="black" stroke-width="1.5" stroke-linecap="round" stroke-linejoin="round"/>
</svg>
