<svg width="24" height="24" viewBox="0 0 24 24" fill="none" xmlns="http://www.w3.org/2000/svg">
<path d="M13.3551 4.59399C13.7285 4.59399 14.0301 4.89639 14.0301 5.26899C14.0301 5.64159 13.7285 5.94399 13.3551 5.94399H7.16579C6.29719 5.94399 5.59069 6.65139 5.59069 7.51899V16.9375C5.59069 17.806 6.29719 18.5125 7.16579 18.5125H17.0343C17.9028 18.5125 18.6092 17.806 18.6092 16.9375V11.6599C18.6092 11.2873 18.9116 10.9849 19.2843 10.9849C19.6568 10.9849 19.9593 11.2873 19.9593 11.6599V16.9375C19.9593 18.5503 18.647 19.8625 17.0343 19.8625H7.16579C5.55289 19.8625 4.24069 18.5503 4.24069 16.9375V7.51899C4.24069 5.90619 5.55289 4.59399 7.16579 4.59399H13.3551ZM18.1045 4.33749C18.4771 4.33749 18.7795 4.63989 18.7795 5.01249C18.7795 5.03049 18.7795 6.05829 18.7786 6.07629C18.7489 10.1614 15.4171 13.495 11.3518 13.495H9.52389L11.1205 15.0916C11.3842 15.3553 11.3842 15.7828 11.1205 16.0465C10.9891 16.1779 10.8172 16.2445 10.6435 16.2445C10.4716 16.2445 10.2979 16.1779 10.1665 16.0465L7.74189 13.6219C7.30089 13.1818 7.30089 12.4645 7.74099 12.0235L10.1602 9.59349C10.4239 9.32979 10.8505 9.32889 11.1151 9.59169C11.3797 9.85539 11.3806 10.2829 11.1169 10.5466L9.52479 12.145H11.3518C14.6782 12.145 17.4043 9.41259 17.4286 6.05379C17.4287 6.04899 17.4288 6.03789 17.4288 6.02159L17.4295 5.01249C17.4295 4.63989 17.7319 4.33749 18.1045 4.33749Z" fill="black"/>
</svg>
