<svg width="24" height="24" viewBox="0 0 24 24" fill="none" xmlns="http://www.w3.org/2000/svg">
<path d="M7.8728 11.1766C8.3538 11.1766 8.7478 11.5706 8.7478 12.0516C8.7478 12.5326 8.3538 12.9266 7.8728 12.9266C7.3918 12.9266 6.9978 12.5326 6.9978 12.0516C6.9978 11.5706 7.3918 11.1766 7.8728 11.1766ZM16.8728 11.1766C17.3538 11.1766 17.7478 11.5706 17.7478 12.0516C17.7478 12.5326 17.3538 12.9266 16.8728 12.9266C16.3918 12.9266 15.9978 12.5326 15.9978 12.0516C15.9978 11.5706 16.3918 11.1766 16.8728 11.1766ZM13.8728 11.1766C14.3538 11.1766 14.7478 11.5706 14.7478 12.0516C14.7478 12.5326 14.3538 12.9266 13.8728 12.9266C13.3918 12.9266 12.9978 12.5326 12.9978 12.0516C12.9978 11.5706 13.3918 11.1766 13.8728 11.1766ZM10.8728 11.1766C11.3538 11.1766 11.7478 11.5706 11.7478 12.0516C11.7478 12.5326 11.3538 12.9266 10.8728 12.9266C10.3918 12.9266 9.9978 12.5326 9.9978 12.0516C9.9978 11.5706 10.3918 11.1766 10.8728 11.1766ZM7.8728 8.1785C8.3538 8.1785 8.7478 8.5725 8.7478 9.0535C8.7478 9.5345 8.3538 9.9285 7.8728 9.9285C7.3918 9.9285 6.9978 9.5345 6.9978 9.0535C6.9978 8.5725 7.3918 8.1785 7.8728 8.1785ZM16.8728 8.1785C17.3538 8.1785 17.7478 8.5725 17.7478 9.0535C17.7478 9.5345 17.3538 9.9285 16.8728 9.9285C16.3918 9.9285 15.9978 9.5345 15.9978 9.0535C15.9978 8.5725 16.3918 8.1785 16.8728 8.1785ZM13.8728 8.1785C14.3538 8.1785 14.7478 8.5725 14.7478 9.0535C14.7478 9.5345 14.3538 9.9285 13.8728 9.9285C13.3918 9.9285 12.9978 9.5345 12.9978 9.0535C12.9978 8.5725 13.3918 8.1785 13.8728 8.1785ZM10.8728 8.1785C11.3538 8.1785 11.7478 8.5725 11.7478 9.0535C11.7478 9.5345 11.3538 9.9285 10.8728 9.9285C10.3918 9.9285 9.9978 9.5345 9.9978 9.0535C9.9978 8.5725 10.3918 8.1785 10.8728 8.1785Z" fill="black"/>
<path d="M9.4978 15.3592H15.2478M18.4954 4.7498H6.2494C4.8694 4.7498 3.7494 5.8688 3.7494 7.2498V16.6658C3.7494 18.0468 4.8694 19.1658 6.2494 19.1658H18.4954C19.8764 19.1658 20.9954 18.0468 20.9954 16.6658V7.2498C20.9954 5.8688 19.8764 4.7498 18.4954 4.7498Z" stroke="black" stroke-width="1.5" stroke-linecap="round" stroke-linejoin="round"/>
</svg>
