<svg width="24" height="24" viewBox="0 0 24 24" fill="none" xmlns="http://www.w3.org/2000/svg">
<path fill-rule="evenodd" clip-rule="evenodd" d="M5.31632 11.4043C5.68332 11.4043 5.98432 11.7043 5.98432 12.0713C5.98432 12.4383 5.68332 12.7393 5.31632 12.7393C4.94932 12.7393 4.64832 12.4383 4.64832 12.0713C4.64832 11.7043 4.94932 11.4043 5.31632 11.4043ZM12.1836 11.4038C12.5506 11.4038 12.8516 11.7038 12.8516 12.0708C12.8516 12.4388 12.5506 12.7388 12.1836 12.7388C11.8166 12.7388 11.5156 12.4388 11.5156 12.0708C11.5156 11.7038 11.8166 11.4038 12.1836 11.4038ZM9.89462 11.4038C10.2616 11.4038 10.5626 11.7038 10.5626 12.0708C10.5626 12.4388 10.2616 12.7388 9.89462 12.7388C9.52762 12.7388 9.22661 12.4388 9.22661 12.0708C9.22661 11.7038 9.52762 11.4038 9.89462 11.4038ZM7.60542 11.4038C7.97242 11.4038 8.27342 11.7038 8.27342 12.0708C8.27342 12.4388 7.97242 12.7388 7.60542 12.7388C7.23842 12.7388 6.93742 12.4388 6.93742 12.0708C6.93742 11.7038 7.23842 11.4038 7.60542 11.4038ZM5.31632 9.1167C5.68332 9.1167 5.98432 9.4167 5.98432 9.7837C5.98432 10.1507 5.68332 10.4517 5.31632 10.4517C4.94932 10.4517 4.64832 10.1507 4.64832 9.7837C4.64832 9.4167 4.94932 9.1167 5.31632 9.1167ZM12.1836 9.1162C12.5506 9.1162 12.8516 9.4162 12.8516 9.7832C12.8516 10.1512 12.5506 10.4512 12.1836 10.4512C11.8166 10.4512 11.5156 10.1512 11.5156 9.7832C11.5156 9.4162 11.8166 9.1162 12.1836 9.1162ZM9.89462 9.1162C10.2616 9.1162 10.5626 9.4162 10.5626 9.7832C10.5626 10.1512 10.2616 10.4512 9.89462 10.4512C9.52762 10.4512 9.22661 10.1512 9.22661 9.7832C9.22661 9.4162 9.52762 9.1162 9.89462 9.1162ZM7.60542 9.1162C7.97242 9.1162 8.27342 9.4162 8.27342 9.7832C8.27342 10.1512 7.97242 10.4512 7.60542 10.4512C7.23842 10.4512 6.93742 10.1512 6.93742 9.7832C6.93742 9.4162 7.23842 9.1162 7.60542 9.1162Z" fill="black"/>
<path d="M6.5563 14.5952H10.9433M18.4156 14.2788C19.6746 13.0198 19.6746 10.9788 18.4156 9.7198M19.9367 16.377C22.3547 13.959 22.3547 10.039 19.9367 7.622V7.621M13.25 17.5H4.25C3.145 17.5 2.25 16.604 2.25 15.5V8.5C2.25 7.396 3.145 6.5 4.25 6.5H13.25C14.354 6.5 15.25 7.396 15.25 8.5V15.5C15.25 16.604 14.354 17.5 13.25 17.5Z" stroke="black" stroke-width="1.5" stroke-linecap="round" stroke-linejoin="round"/>
</svg>
