<svg width="24" height="24" viewBox="0 0 24 24" fill="none" xmlns="http://www.w3.org/2000/svg">
<path d="M6.60885 5.60001C7.16933 5.60001 7.69269 5.66417 8.18069 5.79409C8.66789 5.92401 9.11205 6.11425 9.51237 6.36497C9.88181 6.60657 10.2103 6.89873 10.5004 7.24225C10.7896 7.58593 11.033 7.97473 11.2309 8.40657C11.4287 8.84001 11.5799 9.31265 11.6818 9.82769C11.7845 10.3426 11.8359 10.8885 11.8359 11.4677V11.6926C11.8359 11.7659 11.8336 11.8406 11.8292 11.9184C11.802 12.4643 11.7196 12.9552 11.5829 13.3901C11.4461 13.825 11.2551 14.2018 11.0095 14.5205C10.5034 15.1622 9.84021 15.4832 9.02069 15.4832C8.19125 15.4832 7.64741 15.1261 7.38757 14.4109C7.14213 14.7757 6.86405 15.0445 6.55669 15.2203C6.24997 15.3955 5.92965 15.4832 5.59813 15.4832C4.95077 15.4832 4.45381 15.215 4.10773 14.6774C3.84341 14.2629 3.71205 13.717 3.71205 13.0382C3.71205 12.9522 3.71349 12.8608 3.71797 12.765C3.72261 12.6698 3.72933 12.5739 3.73909 12.4779C3.77541 12.1322 3.83653 11.784 3.92341 11.433C4.00965 11.0818 4.11909 10.7654 4.25205 10.483C4.39253 10.1834 4.55189 9.91681 4.72949 9.68497C4.90773 9.45233 5.10261 9.25377 5.31717 9.09073C5.74997 8.75313 6.20997 8.58481 6.69717 8.58481C7.06581 8.58481 7.39669 8.63457 7.68821 8.73505C7.82949 8.78033 7.98581 8.85441 8.15573 8.95713C8.32725 9.05969 8.50773 9.18353 8.69957 9.32929L8.34389 13.0866C8.33557 13.1499 8.33109 13.2096 8.33109 13.264V13.4278C8.33109 14.2018 8.60821 14.5891 9.16421 14.5891C9.65141 14.5891 10.0472 14.3453 10.3532 13.8574C10.6719 13.3568 10.8404 12.7106 10.8592 11.9184C10.8629 11.827 10.866 11.7373 10.869 11.6512C10.8712 11.5651 10.8728 11.479 10.8728 11.3914C10.8728 10.6085 10.7799 9.91905 10.5956 9.32177C10.4112 8.72609 10.1386 8.22465 9.77909 7.81985C9.41877 7.41441 8.97237 7.10865 8.43669 6.90097C7.90117 6.69409 7.28261 6.58993 6.58085 6.58993C5.68341 6.58993 4.88885 6.81121 4.19685 7.25281C3.49973 7.69457 2.95061 8.33489 2.55029 9.17233C2.36373 9.57249 2.21029 10.0262 2.09173 10.5314C1.97381 11.0373 1.90069 11.5507 1.87349 12.0755C1.86821 12.1525 1.86661 12.2355 1.86661 12.3246V12.5662C1.86661 13.3274 1.96405 14.0107 2.16053 14.6194C2.35605 15.2272 2.63717 15.7429 3.00037 16.1666C3.36533 16.5893 3.81093 16.9147 4.33669 17.1398C4.86245 17.3656 5.45605 17.4728 6.11637 17.4637C6.52197 17.4637 6.92309 17.4139 7.31957 17.3142C7.52885 17.2637 7.72149 17.2062 7.89669 17.1398C8.07189 17.0741 8.23285 16.9971 8.37861 16.911L8.66565 17.7718C8.51525 17.8715 8.34229 17.9598 8.14597 18.0346C7.95029 18.1101 7.73653 18.1765 7.50309 18.2362C7.28037 18.2859 7.04773 18.3261 6.80293 18.3555C6.55973 18.385 6.32181 18.4 6.08917 18.4C4.95077 18.4 3.97557 18.1448 3.16517 17.635C2.75493 17.3798 2.39845 17.0696 2.09557 16.7026C1.79253 16.3357 1.53877 15.9112 1.33333 15.4288C1.15125 15.0014 1.01685 14.5469 0.930769 14.0659C0.843889 13.5856 0.800049 13.0699 0.800049 12.5195V12.3005C0.800049 12.228 0.803089 12.1525 0.807569 12.0755C0.839249 11.4744 0.925489 10.8862 1.06741 10.3131C1.20869 9.73937 1.39973 9.21073 1.64069 8.72833C1.89157 8.23665 2.18997 7.79345 2.53589 7.39937C2.88261 7.00593 3.26485 6.67905 3.68485 6.41921C4.54517 5.87329 5.51957 5.60001 6.60885 5.60001ZM15.5365 16.1432C15.8024 16.1432 16.0026 16.2165 16.1402 16.3621C16.276 16.507 16.3448 16.6928 16.3448 16.9171C16.3448 17.1301 16.276 17.3082 16.1402 17.4539C16.0026 17.5997 15.8024 17.6722 15.5365 17.6722C15.2722 17.6722 15.0751 17.5997 14.9444 17.4539C14.8136 17.3082 14.7495 17.1301 14.7495 16.9171C14.7495 16.6928 14.8136 16.507 14.9444 16.3621C15.0751 16.2165 15.2722 16.1432 15.5365 16.1432ZM22.542 12.9157V13.8822C22.542 14.3118 22.434 14.7453 22.2194 15.184C22.1069 15.403 21.9831 15.6016 21.8485 15.7797C21.7133 15.9587 21.5592 16.1165 21.3871 16.2531L20.6589 15.7502C20.8704 15.4626 21.0282 15.1771 21.1325 14.8933C21.2383 14.6101 21.2949 14.321 21.3039 14.0242V12.9157H22.542ZM6.80677 9.54081C6.30053 9.54081 5.87989 9.80273 5.54229 10.3261C5.36997 10.591 5.23173 10.9029 5.12981 11.2622C5.02709 11.6218 4.95221 12.0317 4.90773 12.4915C4.89861 12.5739 4.89109 12.6531 4.88661 12.7309C4.88197 12.808 4.88053 12.8805 4.88053 12.9491C4.88053 13.4278 4.96821 13.7933 5.14261 14.0454C5.31861 14.2984 5.57237 14.4245 5.90485 14.4245C6.02789 14.4245 6.15333 14.395 6.28101 14.3362C6.40789 14.2773 6.53029 14.1898 6.64581 14.0765C6.76293 13.9632 6.87237 13.8258 6.97813 13.6664C7.08309 13.5072 7.17301 13.3274 7.25077 13.1266C7.25077 13.1182 7.25157 13.1093 7.25461 13.0994C7.25685 13.0904 7.25765 13.0821 7.25765 13.0722L7.57189 9.71137C7.33925 9.59729 7.08469 9.54081 6.80677 9.54081ZM21.897 7.36177C22.1546 7.36177 22.3509 7.43345 22.4831 7.57697C22.616 7.72113 22.6832 7.90241 22.6832 8.12129C22.6832 8.32817 22.616 8.50113 22.4831 8.64081C22.3509 8.78049 22.1546 8.84993 21.897 8.84993C21.6386 8.84993 21.446 8.78049 21.3191 8.64081C21.193 8.50113 21.1295 8.32817 21.1295 8.12129C21.1295 7.90241 21.193 7.72113 21.3191 7.57697C21.446 7.43345 21.6386 7.36177 21.897 7.36177Z" fill="black"/>
</svg>
