<svg width="24" height="24" viewBox="0 0 24 24" fill="none" xmlns="http://www.w3.org/2000/svg">
<path fill-rule="evenodd" clip-rule="evenodd" d="M3.5856 6.09056L1.12 9.9248H2.61071L5.68575 6.09056H3.5856Z" fill="black"/>
<path fill-rule="evenodd" clip-rule="evenodd" d="M13.1114 6.09056L15.577 9.92496H14.0864L11.0114 6.09056H13.1114Z" fill="black"/>
<path fill-rule="evenodd" clip-rule="evenodd" d="M22.1093 10.0954H20.8208L20.8112 8.54528C21.1017 8.52592 21.3377 8.49696 21.5184 8.45824C21.6992 8.41936 21.8414 8.36944 21.9446 8.308C22.048 8.24672 22.119 8.17232 22.1577 8.08528C22.1965 7.99808 22.2158 7.89952 22.2158 7.78976C22.2158 7.57024 22.0917 7.38448 21.8429 7.23264C21.5944 7.08096 21.1827 7.00512 20.6077 7.00512L20.6755 5.92C21.6443 5.92 22.3757 6.0928 22.8697 6.4384C23.3638 6.78384 23.6109 7.2472 23.6109 7.82848C23.6109 8.29344 23.4736 8.652 23.1992 8.90384C22.9246 9.15568 22.5646 9.31392 22.119 9.37856L22.1093 10.0954Z" fill="black"/>
</svg>
