<svg width="24" height="24" viewBox="0 0 24 24" fill="none" xmlns="http://www.w3.org/2000/svg">
<path d="M16.8766 6.19516L6.54498 18.1821L7.50401 18.1668L17.8187 6.18182L16.8766 6.19516Z" fill="black"/>
<path d="M4.27633 5.51976C4.13718 5.66885 3.99803 5.81479 3.85864 5.95733C3.71924 6.09988 3.58033 6.24558 3.44094 6.39491V8.83588H2.42688V1.59709H3.44118V5.08703C3.97161 4.49697 4.49427 3.91612 5.00967 3.34449C5.52506 2.77285 6.04797 2.1903 6.57815 1.59709H7.81597L4.95755 4.79879C5.46785 5.46836 5.97912 6.14109 6.49137 6.81721C7.00361 7.49333 7.51464 8.16606 8.02518 8.83564H6.80215L4.27633 5.51976Z" fill="black"/>
<path d="M11.2914 4.28169C11.2218 4.26836 11.1498 4.25939 11.0752 4.2543C11.0005 4.24921 10.922 4.24678 10.839 4.24678C10.2359 4.24678 9.82644 4.50375 9.61116 5.01745V8.83563H8.69141V3.45648H9.58619L9.60122 4.07781C9.9028 3.59733 10.3304 3.35684 10.8839 3.35684C11.0563 3.35684 11.192 3.38011 11.2916 3.42642L11.2914 4.28169Z" fill="black"/>
<path d="M17.0596 18.7515H13.9527V21.2274H17.5668V22.0674H12.9382V14.8286H17.5171V15.6737H13.9527V17.911H17.0596V18.7515Z" fill="black"/>
<path d="M19.4805 16.688L19.5103 17.3641C19.9212 16.847 20.4582 16.5886 21.1214 16.5886C22.2579 16.5886 22.832 17.2301 22.8419 18.513V22.0674H21.9219V18.5076C21.9185 18.1166 21.831 17.8291 21.6584 17.6449C21.4861 17.4611 21.2143 17.3687 20.8434 17.3687C20.5452 17.3687 20.2829 17.4482 20.0579 17.6073C19.8325 17.7663 19.657 17.9753 19.5309 18.2337V22.0672H18.6109V16.688H19.4805Z" fill="black"/>
</svg>
