<svg width="24" height="24" viewBox="0 0 24 24" fill="none" xmlns="http://www.w3.org/2000/svg">
<path fill-rule="evenodd" clip-rule="evenodd" d="M7.03278 6.56001V16.0046C7.0715 16.548 6.95438 16.9773 6.6867 17.2701C6.40414 17.5802 5.95502 17.7357 5.34926 17.7357L5.26798 17.7347C4.88718 17.752 4.4203 17.76 3.88782 17.76H3.7699L3.75102 17.6418C3.70942 17.3822 3.64782 17.0762 3.56254 16.7035L3.51998 16.5157L3.70942 16.5309C4.14158 16.5632 4.62542 16.5813 5.14494 16.5813C5.18366 16.5824 5.21342 16.5834 5.24222 16.5834C5.4435 16.5834 5.59214 16.5358 5.68238 16.441C5.7755 16.3429 5.81918 16.1854 5.8123 15.9712V6.56001H7.03278ZM3.08862 8.96001L4.31998 9.36753L4.27102 9.50545C3.52846 11.5512 2.67278 13.5285 1.72734 15.3821L1.6563 15.52L1.52638 15.4344C1.22254 15.2362 0.91678 15.0632 0.6179 14.9213L0.47998 14.8549L0.55598 14.7221C1.46846 13.1381 2.3051 11.2432 3.04366 9.09185L3.08862 8.96001ZM9.26686 8.96001L9.33006 9.07585C9.76542 9.87889 10.2459 10.7968 10.7606 11.8011C11.2693 12.8318 11.7206 13.7782 12.1027 14.6189L12.16 14.745L10.9104 15.36L10.8512 15.2269C10.4681 14.3669 10.052 13.4338 9.60158 12.4283C9.15214 11.4616 8.68878 10.5122 8.22638 9.61153L8.15998 9.47841L9.26686 8.96001ZM13.9125 6.40001L13.9993 6.49137C14.6521 7.17665 15.1449 7.85169 15.4653 8.49729L15.52 8.60497L14.551 9.28001L14.4817 9.11761C14.1853 8.43441 13.7152 7.78673 13.0849 7.19281L12.96 7.07505L13.9125 6.40001ZM22.2088 5.76001C22.6053 5.76001 22.9533 5.90465 23.2438 6.18993C23.5342 6.47537 23.68 6.80417 23.68 7.16881C23.68 7.56609 23.5342 7.91377 23.2448 8.20305C22.9553 8.49345 22.6064 8.64001 22.2088 8.64001C21.2867 8.63105 20.8 8.12289 20.8 7.16881C20.8 6.80721 20.9358 6.47921 21.2014 6.19489C21.4712 5.90657 21.8102 5.76001 22.2088 5.76001ZM15.3534 5.60001L15.4369 5.67953C16.0654 6.27873 16.5597 6.93297 16.9043 7.62449L16.96 7.73457L15.9942 8.32001L15.924 8.17953C15.5918 7.51553 15.1213 6.89073 14.5248 6.32305L14.4 6.20417L15.3534 5.60001ZM22.2088 6.71601C21.8925 6.71601 21.7566 6.85185 21.7566 7.16881C21.7566 7.52145 21.8925 7.67105 22.2088 7.67105C22.5261 7.67105 22.6617 7.52145 22.6617 7.16881C22.6617 7.06881 22.6173 6.96865 22.5249 6.86465C22.4387 6.76465 22.3357 6.71601 22.2088 6.71601Z" fill="black"/>
</svg>
