<svg width="24" height="24" viewBox="0 0 24 24" fill="none" xmlns="http://www.w3.org/2000/svg">
<path d="M17.2666 10.7546L9.48961 3.0846C9.19461 2.7936 8.71961 2.7966 8.42861 3.0916C8.13761 3.3866 8.14061 3.8606 8.43561 4.1516L16.2136 11.8226C16.2786 11.8866 16.2876 11.9616 16.2876 12.0006C16.2876 12.0396 16.2786 12.1146 16.2136 12.1786L8.43561 19.8476C8.14061 20.1386 8.13761 20.6126 8.42861 20.9076C8.57561 21.0576 8.76861 21.1316 8.96261 21.1316C9.15261 21.1316 9.34261 21.0596 9.48961 20.9156L17.2666 13.2466C17.6036 12.9156 17.7876 12.4726 17.7876 12.0006C17.7876 11.5276 17.6036 11.0856 17.2666 10.7546Z" fill="black"/>
</svg>
