<svg width="24" height="24" viewBox="0 0 24 24" fill="none" xmlns="http://www.w3.org/2000/svg">
<path d="M17.0694 2.16H6.93059C5.05427 2.16 3.53143 3.67639 3.53143 5.54805V18.452C3.53143 20.3236 5.05427 21.84 6.93059 21.84H17.0694C18.9465 21.84 20.4686 20.324 20.4686 18.452V5.54805C20.4686 3.67605 18.9465 2.16 17.0694 2.16ZM6.93059 3.32572H17.0694C18.3038 3.32572 19.3029 4.3209 19.3029 5.54805V18.452C19.3029 19.6791 18.3038 20.6743 17.0694 20.6743H6.93059C5.69699 20.6743 4.69715 19.6787 4.69715 18.452V5.54805C4.69715 4.32131 5.69699 3.32572 6.93059 3.32572Z" fill="black"/>
<path d="M14.2531 16.9212C14.575 16.9212 14.8359 17.1821 14.8359 17.504C14.8359 17.8011 14.6136 18.0464 14.3262 18.0824L14.2531 18.0869H9.74695C9.42501 18.0869 9.16409 17.8259 9.16409 17.504C9.16409 17.2069 9.3864 16.9617 9.67385 16.9257L9.74695 16.9212H14.2531Z" fill="black"/>
<path d="M11.8753 14.1594C12.3732 14.1594 12.7803 14.5221 12.7803 14.9649C12.7803 15.4087 12.3732 15.7714 11.8753 15.7714C11.3785 15.7714 10.9714 15.4087 10.9714 14.9649C10.9714 14.5221 11.3785 14.1594 11.8753 14.1594ZM9.13358 14.1594C9.63038 14.1594 10.0374 14.5221 10.0374 14.9649C10.0374 15.4087 9.63038 15.7714 9.13358 15.7714C8.63562 15.7714 8.22857 15.4087 8.22857 14.9649C8.22857 14.5221 8.63562 14.1594 9.13358 14.1594ZM14.6181 14.1592C15.1161 14.1592 15.5231 14.5219 15.5231 14.9657C15.5231 15.4085 15.1161 15.7712 14.6181 15.7712C14.1213 15.7712 13.7143 15.4085 13.7143 14.9657C13.7143 14.5219 14.1213 14.1592 14.6181 14.1592ZM6.38956 14.1591C6.88752 14.1591 7.29456 14.5218 7.29456 14.9645C7.29456 15.4084 6.88752 15.7711 6.38956 15.7711C5.89276 15.7711 5.48572 15.4084 5.48572 14.9645C5.48572 14.5218 5.89276 14.1591 6.38956 14.1591ZM17.361 14.1592C17.859 14.1592 18.266 14.5219 18.266 14.9657C18.266 15.4085 17.859 15.7712 17.361 15.7712C16.8642 15.7712 16.4571 15.4085 16.4571 14.9657C16.4571 14.5219 16.8642 14.1592 17.361 14.1592ZM9.13358 11.6575C9.63038 11.6575 10.0374 12.0212 10.0374 12.4629C10.0374 12.9068 9.63038 13.2706 9.13358 13.2706C8.63562 13.2706 8.22857 12.9068 8.22857 12.4629C8.22857 12.0212 8.63562 11.6575 9.13358 11.6575ZM11.8753 11.6575C12.3732 11.6575 12.7803 12.0212 12.7803 12.4629C12.7803 12.9068 12.3732 13.2706 11.8753 13.2706C11.3785 13.2706 10.9714 12.9068 10.9714 12.4629C10.9714 12.0212 11.3785 11.6575 11.8753 11.6575ZM14.6181 11.6571C15.1161 11.6571 15.5231 12.0209 15.5231 12.4637C15.5231 12.9064 15.1161 13.2702 14.6181 13.2702C14.1213 13.2702 13.7143 12.9064 13.7143 12.4637C13.7143 12.0209 14.1213 11.6571 14.6181 11.6571ZM6.38956 11.6571C6.88752 11.6571 7.29456 12.0209 7.29456 12.4626C7.29456 12.9064 6.88752 13.2702 6.38956 13.2702C5.89276 13.2702 5.48572 12.9064 5.48572 12.4626C5.48572 12.0209 5.89276 11.6571 6.38956 11.6571ZM17.361 11.6571C17.859 11.6571 18.266 12.0209 18.266 12.4637C18.266 12.9064 17.859 13.2702 17.361 13.2702C16.8642 13.2702 16.4571 12.9064 16.4571 12.4637C16.4571 12.0209 16.8642 11.6571 17.361 11.6571Z" fill="black"/>
</svg>
