<svg width="24" height="24" viewBox="0 0 24 24" fill="none" xmlns="http://www.w3.org/2000/svg">
<path d="M6.7763 9.49668C7.18834 9.49668 7.52434 9.83367 7.52434 10.2457C7.52434 10.6566 7.18834 10.9937 6.7763 10.9937C6.36426 10.9937 6.02728 10.6566 6.02728 10.2457C6.02728 9.83367 6.36426 9.49668 6.7763 9.49668ZM14.4736 9.49658C14.8856 9.49658 15.2227 9.83356 15.2227 10.2456C15.2227 10.6565 14.8856 10.9936 14.4736 10.9936C14.0626 10.9936 13.7256 10.6565 13.7256 10.2456C13.7256 9.83356 14.0626 9.49658 14.4736 9.49658ZM11.9083 9.49658C12.3202 9.49658 12.6562 9.83356 12.6562 10.2456C12.6562 10.6565 12.3202 10.9936 11.9083 10.9936C11.4962 10.9936 11.1592 10.6565 11.1592 10.2456C11.1592 9.83356 11.4962 9.49658 11.9083 9.49658ZM9.34234 9.49658C9.75426 9.49658 10.0903 9.83356 10.0903 10.2456C10.0903 10.6565 9.75426 10.9936 9.34234 10.9936C8.9303 10.9936 8.59332 10.6565 8.59332 10.2456C8.59332 9.83356 8.9303 9.49658 9.34234 9.49658ZM6.7763 6.93228C7.18834 6.93228 7.52434 7.26927 7.52434 7.6813C7.52434 8.09225 7.18834 8.42934 6.7763 8.42934C6.36426 8.42934 6.02728 8.09225 6.02728 7.6813C6.02728 7.26927 6.36426 6.93228 6.7763 6.93228ZM14.4736 6.93217C14.8856 6.93217 15.2227 7.26916 15.2227 7.68119C15.2227 8.09214 14.8856 8.42923 14.4736 8.42923C14.0626 8.42923 13.7256 8.09214 13.7256 7.68119C13.7256 7.26916 14.0626 6.93217 14.4736 6.93217ZM11.9083 6.93217C12.3202 6.93217 12.6562 7.26916 12.6562 7.68119C12.6562 8.09214 12.3202 8.42923 11.9083 8.42923C11.4962 8.42923 11.1592 8.09214 11.1592 7.68119C11.1592 7.26916 11.4962 6.93217 11.9083 6.93217ZM9.34234 6.93217C9.75426 6.93217 10.0903 7.26916 10.0903 7.68119C10.0903 8.09214 9.75426 8.42923 9.34234 8.42923C8.9303 8.42923 8.59332 8.09214 8.59332 7.68119C8.59332 7.26916 8.9303 6.93217 9.34234 6.93217Z" fill="black"/>
<path d="M8.16602 13.0738H13.0841M15.5 4.24963H5.74999C4.36901 4.24963 3.25006 5.36956 3.25006 6.74956V13.5796C3.25006 14.9606 4.36901 16.0796 5.74999 16.0796H16.5C17.329 16.0796 18 15.4085 18 14.5796V6.74956C18 5.36956 16.881 4.24963 15.5 4.24963Z" stroke="black" stroke-width="1.63636" stroke-linecap="round" stroke-linejoin="round"/>
<path d="M8.88818 19.5797H18.2503C20.0452 19.5797 21.5002 18.1247 21.5002 16.3297V9.88866" stroke="black" stroke-width="1.63636" stroke-linecap="round" stroke-linejoin="round"/>
</svg>
