<svg width="24" height="24" viewBox="0 0 24 24" fill="none" xmlns="http://www.w3.org/2000/svg">
<path d="M11.8753 14.1594C12.3732 14.1594 12.7803 14.5221 12.7803 14.9649C12.7803 15.4087 12.3732 15.7714 11.8753 15.7714C11.3785 15.7714 10.9714 15.4087 10.9714 14.9649C10.9714 14.5221 11.3785 14.1594 11.8753 14.1594ZM14.6181 14.1592C15.1161 14.1592 15.5231 14.5219 15.5231 14.9657C15.5231 15.4085 15.1161 15.7712 14.6181 15.7712C14.1213 15.7712 13.7143 15.4085 13.7143 14.9657C13.7143 14.5219 14.1213 14.1592 14.6181 14.1592ZM17.361 14.1592C17.859 14.1592 18.266 14.5219 18.266 14.9657C18.266 15.4085 17.859 15.7712 17.361 15.7712C16.8642 15.7712 16.4571 15.4085 16.4571 14.9657C16.4571 14.5219 16.8642 14.1592 17.361 14.1592ZM11.8753 11.6575C12.3732 11.6575 12.7803 12.0212 12.7803 12.4629C12.7803 12.9068 12.3732 13.2706 11.8753 13.2706C11.3785 13.2706 10.9714 12.9068 10.9714 12.4629C10.9714 12.0212 11.3785 11.6575 11.8753 11.6575ZM14.6181 11.6571C15.1161 11.6571 15.5231 12.0209 15.5231 12.4637C15.5231 12.9064 15.1161 13.2702 14.6181 13.2702C14.1213 13.2702 13.7143 12.9064 13.7143 12.4637C13.7143 12.0209 14.1213 11.6571 14.6181 11.6571ZM17.361 11.6571C17.859 11.6571 18.266 12.0209 18.266 12.4637C18.266 12.9064 17.859 13.2702 17.361 13.2702C16.8642 13.2702 16.4571 12.9064 16.4571 12.4637C16.4571 12.0209 16.8642 11.6571 17.361 11.6571Z" fill="black"/>
<path d="M17.0694 2.16H6.93059C5.05427 2.16 3.53143 3.67639 3.53143 5.54805V18.452C3.53143 20.3236 5.05427 21.84 6.93059 21.84H17.0694C18.9465 21.84 20.4686 20.324 20.4686 18.452V5.54805C20.4686 3.67605 18.9465 2.16 17.0694 2.16ZM6.93059 3.32572H17.0694C18.3038 3.32572 19.3029 4.3209 19.3029 5.54805V18.452C19.3029 19.6791 18.3038 20.6743 17.0694 20.6743H6.93059C5.69699 20.6743 4.69715 19.6787 4.69715 18.452V5.54805C4.69715 4.32131 5.69699 3.32572 6.93059 3.32572Z" fill="black"/>
<path d="M14.253 16.9212C14.575 16.9212 14.8359 17.1821 14.8359 17.504C14.8359 17.8011 14.6136 18.0464 14.3261 18.0824L14.253 18.0869H9.74692C9.42498 18.0869 9.16406 17.8259 9.16406 17.504C9.16406 17.2069 9.38637 16.9617 9.67382 16.9257L9.74692 16.9212H14.253Z" fill="black"/>
</svg>
