<svg width="24" height="24" viewBox="0 0 24 24" fill="none" xmlns="http://www.w3.org/2000/svg">
<path d="M14.5657 6.39999L10.2477 17.6H9.09183L13.4099 6.39999H14.5657ZM4.11087 15.5035C4.36335 15.5035 4.55391 15.573 4.68479 15.7104C4.81487 15.8478 4.87967 16.0246 4.87967 16.2373C4.87967 16.4384 4.81487 16.608 4.68479 16.7462C4.55391 16.8843 4.36335 16.9523 4.11087 16.9523C3.85839 16.9523 3.66991 16.8843 3.54623 16.7462C3.42255 16.608 3.35999 16.4384 3.35999 16.2373C3.35999 16.0246 3.42255 15.8478 3.54623 15.7104C3.66991 15.573 3.85839 15.5035 4.11087 15.5035ZM19.7632 15.3589C20.0214 15.3589 20.2192 15.4304 20.3523 15.5722C20.4861 15.7139 20.5536 15.8942 20.5536 16.1133C20.5536 16.3195 20.4861 16.4934 20.3523 16.6352C20.2192 16.777 20.0214 16.8478 19.7632 16.8478C19.5043 16.8478 19.3109 16.777 19.1835 16.6352C19.0569 16.4934 18.9929 16.3195 18.9929 16.1133C18.9929 15.8942 19.0569 15.7139 19.1835 15.5722C19.3109 15.4304 19.5043 15.3589 19.7632 15.3589ZM19.7702 9.74127C20.0285 9.74127 20.2256 9.81279 20.3585 9.95663C20.4923 10.1013 20.56 10.2824 20.56 10.5008C20.56 10.7077 20.4923 10.8808 20.3585 11.0197C20.2256 11.1594 20.0285 11.2288 19.7702 11.2288C19.5113 11.2288 19.3179 11.1594 19.1905 11.0197C19.0633 10.8808 19 10.7077 19 10.5008C19 10.2824 19.0633 10.1013 19.1905 9.95663C19.3179 9.81279 19.5113 9.74127 19.7702 9.74127Z" fill="black"/>
</svg>
