<svg width="24" height="24" viewBox="0 0 24 24" fill="none" xmlns="http://www.w3.org/2000/svg">
<path d="M12.0007 8.71249C12.0397 8.71249 12.1147 8.72249 12.1787 8.78649L19.8477 16.5645C19.9937 16.7135 20.1887 16.7875 20.3817 16.7875C20.5717 16.7875 20.7627 16.7165 20.9077 16.5715C21.2027 16.2805 21.2067 15.8065 20.9157 15.5115L13.2467 7.73349C12.9157 7.39749 12.4737 7.21249 12.0007 7.21249C11.5287 7.21249 11.0867 7.39749 10.7547 7.73349L3.0847 15.5115C2.7937 15.8065 2.7967 16.2805 3.0917 16.5715C3.3867 16.8625 3.8617 16.8585 4.1517 16.5645L11.8227 8.78649C11.8867 8.72249 11.9617 8.71249 12.0007 8.71249Z" fill="black"/>
</svg>
