<svg width="24" height="24" viewBox="0 0 24 24" fill="none" xmlns="http://www.w3.org/2000/svg">
<path d="M14.6964 15.1404C14.449 15.1404 14.2635 15.2089 14.1399 15.3455C14.0162 15.4823 13.9542 15.6548 13.9542 15.8631C13.9542 16.0715 14.0162 16.2428 14.1399 16.3775C14.2635 16.512 14.449 16.5793 14.6964 16.5793C14.9439 16.5793 15.1316 16.512 15.2598 16.3775C15.3876 16.2428 15.4516 16.0715 15.4516 15.8631C15.4516 15.6548 15.3876 15.482 15.2598 15.3455C15.1316 15.2089 14.9439 15.1404 14.6964 15.1404Z" fill="black"/>
<path d="M16.7993 7.60147C16.5692 7.3844 16.2933 7.21854 15.9727 7.10334C15.6513 6.9884 15.2869 6.9308 14.8789 6.9308C14.0932 6.9308 13.4487 7.14987 12.9452 7.58827C12.6976 7.80533 12.5115 8.0592 12.3855 8.35C12.2597 8.64067 12.1947 8.97067 12.19 9.3396H13.4727C13.4727 8.93587 13.6009 8.6212 13.8567 8.39533C14.1084 8.174 14.4491 8.06347 14.8789 8.06347C15.3129 8.06347 15.6441 8.186 15.8716 8.43107C16.0997 8.6764 16.2135 9.01827 16.2135 9.45667C16.2135 9.678 16.1679 9.8972 16.0768 10.1141C15.9855 10.3311 15.8553 10.5375 15.6863 10.7327L14.8463 11.6053C14.6812 11.7919 14.5424 11.9676 14.4295 12.1327C14.3167 12.2977 14.232 12.4559 14.1753 12.608C14.1191 12.7556 14.0777 12.9345 14.0517 13.1451C14.0257 13.3556 14.0108 13.5975 14.0063 13.8711H15.2823C15.2823 13.2071 15.4341 12.7036 15.738 12.3607L16.4411 11.6705C17.1441 10.9284 17.496 10.1775 17.496 9.418C17.496 9.0404 17.4352 8.69853 17.3137 8.39253C17.192 8.0864 17.0204 7.8228 16.7993 7.60147Z" fill="black"/>
<path d="M19.8228 13.8727L19.9136 7.06934H18.579L18.6637 13.8727H19.8228Z" fill="black"/>
<path d="M19.8385 15.3537C19.7103 15.2169 19.5231 15.1488 19.2757 15.1488C19.0279 15.1488 18.8423 15.2171 18.7188 15.3537C18.5952 15.4905 18.5333 15.6628 18.5333 15.8711C18.5333 16.0795 18.5952 16.2512 18.7188 16.3856C18.8423 16.5201 19.0279 16.5876 19.2757 16.5876C19.5231 16.5876 19.7103 16.5201 19.8385 16.3856C19.9668 16.2512 20.0309 16.0795 20.0309 15.8711C20.0309 15.6628 19.9668 15.4905 19.8385 15.3537Z" fill="black"/>
<path d="M10.4692 14.5504C9.95346 14.5504 9.5196 14.7244 9.168 15.0713C8.81613 15.4185 8.64093 15.8341 8.64093 16.3195C8.64093 16.8043 8.814 17.2207 9.16146 17.5676C9.50826 17.9148 9.944 18.0879 10.4692 18.0879C10.9585 18.0879 11.3769 17.9148 11.7243 17.5676C12.0711 17.2208 12.2449 16.8041 12.2449 16.3195C12.2449 15.8343 12.0711 15.4188 11.7243 15.0713C11.3771 14.7239 10.9585 14.5504 10.4692 14.5504ZM11.1168 17.0267C10.9253 17.218 10.7097 17.3137 10.4692 17.3137C9.81066 17.3044 9.48146 16.9705 9.48146 16.3119C9.48146 15.6889 9.81066 15.3777 10.4692 15.3777C11.0919 15.3777 11.4041 15.6889 11.4041 16.3119C11.4041 16.5975 11.3083 16.8351 11.1168 17.0267Z" fill="black"/>
<path d="M5.18762 14.4965L4.40002 15.1108C5.52149 15.9471 6.42922 16.922 7.12282 18.0336L7.89696 17.3535C7.34522 16.4452 6.44216 15.4933 5.18762 14.4965Z" fill="black"/>
</svg>
