<svg width="24" height="24" viewBox="0 0 24 24" fill="none" xmlns="http://www.w3.org/2000/svg">
<path d="M17.0694 2.16H6.93059C5.05427 2.16 3.53143 3.67639 3.53143 5.54805V18.452C3.53143 20.3236 5.05427 21.84 6.93059 21.84H17.0694C18.9465 21.84 20.4686 20.324 20.4686 18.452V5.54805C20.4686 3.67605 18.9465 2.16 17.0694 2.16ZM6.93059 3.32572H17.0694C18.3038 3.32572 19.3029 4.3209 19.3029 5.54805V18.452C19.3029 19.6791 18.3038 20.6743 17.0694 20.6743H6.93059C5.69699 20.6743 4.69715 19.6787 4.69715 18.452V5.54805C4.69715 4.32131 5.69699 3.32572 6.93059 3.32572Z" fill="black"/>
<path d="M13.028 10.9714C13.4057 10.9714 13.7143 11.28 13.7143 11.6577C13.7143 12.0343 13.4057 12.3429 13.028 12.3429C12.6514 12.3429 12.3429 12.0343 12.3429 11.6577C12.3429 11.28 12.6514 10.9714 13.028 10.9714ZM15.0863 10.9714C15.4629 10.9714 15.7714 11.28 15.7714 11.6577C15.7714 12.0343 15.4629 12.3429 15.0863 12.3429C14.7097 12.3429 14.4 12.0343 14.4 11.6577C14.4 11.28 14.7097 10.9714 15.0863 10.9714ZM10.972 10.9714C11.3486 10.9714 11.6571 11.28 11.6571 11.6577C11.6571 12.0343 11.3486 12.3429 10.972 12.3429C10.5943 12.3429 10.2857 12.0343 10.2857 11.6577C10.2857 11.28 10.5943 10.9714 10.972 10.9714ZM8.91429 10.9714C9.29054 10.9714 9.60001 11.28 9.60001 11.6577C9.60001 12.0343 9.29054 12.3429 8.91429 12.3429C8.53804 12.3429 8.22858 12.0343 8.22858 11.6577C8.22858 11.28 8.53804 10.9714 8.91429 10.9714ZM10.972 8.91429C11.3486 8.91429 11.6571 9.22286 11.6571 9.59946C11.6571 9.97715 11.3486 10.2857 10.972 10.2857C10.5943 10.2857 10.2857 9.97715 10.2857 9.59946C10.2857 9.22286 10.5943 8.91429 10.972 8.91429ZM13.028 8.91429C13.4057 8.91429 13.7143 9.22286 13.7143 9.59946C13.7143 9.97715 13.4057 10.2857 13.028 10.2857C12.6514 10.2857 12.3429 9.97715 12.3429 9.59946C12.3429 9.22286 12.6514 8.91429 13.028 8.91429ZM15.0863 8.91429C15.4629 8.91429 15.7714 9.22286 15.7714 9.59946C15.7714 9.97715 15.4629 10.2857 15.0863 10.2857C14.7097 10.2857 14.4 9.97715 14.4 9.59946C14.4 9.22286 14.7097 8.91429 15.0863 8.91429ZM8.91429 8.91429C9.29054 8.91429 9.60001 9.22286 9.60001 9.59946C9.60001 9.97715 9.29054 10.2857 8.91429 10.2857C8.53804 10.2857 8.22858 9.97715 8.22858 9.59946C8.22858 9.22286 8.53804 8.91429 8.91429 8.91429Z" fill="black"/>
<path d="M13.7143 13.8857C13.9983 13.8857 14.2286 14.116 14.2286 14.4C14.2286 14.6604 14.0351 14.8755 13.7841 14.9096L13.7143 14.9143H10.2857C10.0017 14.9143 9.77142 14.684 9.77142 14.4C9.77142 14.1396 9.96493 13.9245 10.2159 13.8904L10.2857 13.8857H13.7143Z" fill="black"/>
</svg>
