<svg width="24" height="24" viewBox="0 0 24 24" fill="none" xmlns="http://www.w3.org/2000/svg">
<path fill-rule="evenodd" clip-rule="evenodd" d="M1.67872 9.06687C1.80992 9.06687 1.9256 9.01695 2.0256 8.91695C2.1256 8.81695 2.17552 8.70127 2.17552 8.57007C2.17552 8.43247 2.1256 8.31375 2.0256 8.21375C1.9256 8.11375 1.80992 8.06367 1.67872 8.06367C1.54752 8.06367 1.432 8.11375 1.33184 8.21375C1.232 8.31375 1.18192 8.43247 1.18192 8.57007C1.18192 8.70127 1.2304 8.81695 1.3272 8.91695C1.42416 9.01695 1.54128 9.06687 1.67872 9.06687ZM7.34128 7.47311C7.11008 8.52319 6.6304 9.33247 5.90208 9.90127C5.17408 10.4701 4.26624 10.7544 3.17872 10.7544C2.29744 10.7544 1.57408 10.5466 1.00848 10.1309C0.442884 9.71535 0.160004 9.20127 0.160004 8.58879C0.160004 8.16367 0.308484 7.80127 0.605284 7.50127C0.902244 7.20127 1.26 7.05119 1.67872 7.05119C2.0912 7.05119 2.44752 7.20127 2.74752 7.50127C3.04752 7.80127 3.19744 8.15743 3.19744 8.57007C3.19744 9.02623 3.03504 9.39503 2.70992 9.67631C2.7976 9.71999 2.95376 9.74191 3.17872 9.74191C4.8976 9.74191 5.93824 8.98559 6.30064 7.47311H7.34128Z" fill="black"/>
<path fill-rule="evenodd" clip-rule="evenodd" d="M13.5432 9.22751C13.0243 8.49631 12.187 8.13071 11.0306 8.13071C10.4994 8.13071 10.0667 8.23215 9.73215 8.43535C9.39775 8.63839 9.19647 8.90255 9.12751 9.22751H13.5432ZM15.2774 10.2494H7.89935V10.0525C7.89935 9.23375 8.14959 8.53999 8.64927 7.97119C9.14959 7.40255 9.94319 7.11807 11.0306 7.11807C11.9619 7.11807 12.7979 7.38687 13.5386 7.92431C14.279 8.46191 14.8589 9.23695 15.2774 10.2494Z" fill="black"/>
<path fill-rule="evenodd" clip-rule="evenodd" d="M22.0232 9.30752C21.5043 8.57632 20.667 8.21072 19.5106 8.21072C18.9795 8.21072 18.5464 8.31216 18.2122 8.51536C17.8781 8.7184 17.6765 8.98256 17.6075 9.30752H22.0232ZM23.7574 10.3294H16.3794V10.1325C16.3794 9.31376 16.6294 8.62 17.1294 8.0512C17.6296 7.48256 18.4232 7.19808 19.5106 7.19808C20.7357 7.19808 21.7795 7.64496 22.6419 8.53872V6.72H23.7574V10.3294Z" fill="black"/>
</svg>
