<svg width="24" height="24" viewBox="0 0 24 24" fill="none" xmlns="http://www.w3.org/2000/svg">
<path fill-rule="evenodd" clip-rule="evenodd" d="M8.7608 11.4372C9.1068 11.4372 9.3908 11.7202 9.3908 12.0672C9.3908 12.4132 9.1068 12.6972 8.7608 12.6972C8.4148 12.6972 8.1308 12.4132 8.1308 12.0672C8.1308 11.7202 8.4148 11.4372 8.7608 11.4372ZM15.2393 11.4375C15.5853 11.4375 15.8693 11.7205 15.8693 12.0675C15.8693 12.4135 15.5853 12.6975 15.2393 12.6975C14.8933 12.6975 14.6093 12.4135 14.6093 12.0675C14.6093 11.7205 14.8933 11.4375 15.2393 11.4375ZM13.0798 11.4375C13.4258 11.4375 13.7098 11.7205 13.7098 12.0675C13.7098 12.4135 13.4258 12.6975 13.0798 12.6975C12.7338 12.6975 12.4498 12.4135 12.4498 12.0675C12.4498 11.7205 12.7338 11.4375 13.0798 11.4375ZM10.9202 11.4375C11.2672 11.4375 11.5502 11.7205 11.5502 12.0675C11.5502 12.4135 11.2672 12.6975 10.9202 12.6975C10.5742 12.6975 10.2902 12.4135 10.2902 12.0675C10.2902 11.7205 10.5742 11.4375 10.9202 11.4375ZM8.7608 9.27901C9.1068 9.27901 9.3908 9.56201 9.3908 9.90901C9.3908 10.255 9.1068 10.539 8.7608 10.539C8.4148 10.539 8.1308 10.255 8.1308 9.90901C8.1308 9.56201 8.4148 9.27901 8.7608 9.27901ZM15.2393 9.27931C15.5853 9.27931 15.8693 9.56231 15.8693 9.90931C15.8693 10.2553 15.5853 10.5393 15.2393 10.5393C14.8933 10.5393 14.6093 10.2553 14.6093 9.90931C14.6093 9.56231 14.8933 9.27931 15.2393 9.27931ZM13.0798 9.27931C13.4258 9.27931 13.7098 9.56231 13.7098 9.90931C13.7098 10.2553 13.4258 10.5393 13.0798 10.5393C12.7338 10.5393 12.4498 10.2553 12.4498 9.90931C12.4498 9.56231 12.7338 9.27931 13.0798 9.27931ZM10.9202 9.27931C11.2672 9.27931 11.5502 9.56231 11.5502 9.90931C11.5502 10.2553 11.2672 10.5393 10.9202 10.5393C10.5742 10.5393 10.2902 10.2553 10.2902 9.90931C10.2902 9.56231 10.5742 9.27931 10.9202 9.27931Z" fill="black"/>
<path d="M9.9305 14.4482H14.0695M1.5 16.625L2.697 15.428C2.887 15.238 2.887 14.93 2.697 14.739L1.844 13.885C1.654 13.695 1.654 13.386 1.844 13.196L2.697 12.344C2.887 12.153 2.887 11.845 2.697 11.655L1.844 10.802C1.654 10.612 1.654 10.304 1.844 10.114L2.697 9.261C2.887 9.07 2.887 8.762 2.697 8.572L1.5 7.375M22.5 16.625L21.303 15.428C21.113 15.238 21.113 14.93 21.303 14.739L22.156 13.885C22.346 13.695 22.346 13.386 22.156 13.196L21.303 12.344C21.113 12.153 21.113 11.845 21.303 11.655L22.156 10.802C22.346 10.612 22.346 10.304 22.156 10.114L21.303 9.261C21.113 9.07 21.113 8.762 21.303 8.572L22.5 7.375M16.25 17.25H7.75C6.645 17.25 5.75 16.354 5.75 15.25V8.75C5.75 7.645 6.645 6.75 7.75 6.75H16.25C17.354 6.75 18.25 7.645 18.25 8.75V15.25C18.25 16.354 17.354 17.25 16.25 17.25Z" stroke="black" stroke-width="1.5" stroke-linecap="round" stroke-linejoin="round"/>
</svg>
