<svg width="24" height="24" viewBox="0 0 24 24" fill="none" xmlns="http://www.w3.org/2000/svg">
<path d="M12.0638 17.5094V20.641M12.0638 3.36V6.49056M12.0638 10.5552V13.4458" stroke="black" stroke-width="1.44" stroke-linecap="round" stroke-linejoin="round"/>
<path fill-rule="evenodd" clip-rule="evenodd" d="M15.9674 8.83921C15.9674 8.02993 16.9082 7.58545 17.5332 8.09905L21.378 11.2603C21.8446 11.6434 21.8446 12.3566 21.378 12.7397L17.5332 15.901C16.9082 16.4146 15.9674 15.9701 15.9674 15.1608V8.83921ZM8.16024 8.83921V15.1608C8.16024 15.9701 7.21944 16.4146 6.59448 15.901L2.74968 12.7397C2.28312 12.3566 2.28312 11.6434 2.74968 11.2603L6.59448 8.09905C7.21944 7.58545 8.16024 8.02993 8.16024 8.83921Z" fill="black"/>
</svg>
