<svg width="24" height="24" viewBox="0 0 24 24" fill="none" xmlns="http://www.w3.org/2000/svg">
<path d="M13.9531 13.7272C14.3801 13.7272 14.7291 14.0762 14.7291 14.5022C14.7291 14.9282 14.3801 15.2782 13.9531 15.2782C13.5271 15.2782 13.1781 14.9282 13.1781 14.5022C13.1781 14.0762 13.5271 13.7272 13.9531 13.7272ZM16.1264 13.727C16.5524 13.727 16.9013 14.076 16.9013 14.503C16.9013 14.928 16.5524 15.278 16.1264 15.278C15.7004 15.278 15.3504 14.928 15.3504 14.503C15.3504 14.076 15.7004 13.727 16.1264 13.727ZM10.0473 13.7272C10.4733 13.7272 10.8223 14.0762 10.8223 14.5022C10.8223 14.9282 10.4733 15.2782 10.0473 15.2782C9.62029 15.2782 9.27131 14.9282 9.27131 14.5022C9.27131 14.0762 9.62029 13.7272 10.0473 13.7272ZM7.87397 13.7272C8.30095 13.7272 8.64895 14.0762 8.64895 14.5022C8.64895 14.9282 8.30095 15.2782 7.87397 15.2782C7.44797 15.2782 7.09898 14.9282 7.09898 14.5022C7.09898 14.0762 7.44797 13.7272 7.87397 13.7272ZM13.9531 11.32C14.3801 11.32 14.7291 11.669 14.7291 12.095C14.7291 12.522 14.3801 12.871 13.9531 12.871C13.5271 12.871 13.1781 12.522 13.1781 12.095C13.1781 11.669 13.5271 11.32 13.9531 11.32ZM10.0473 11.32C10.4733 11.32 10.8223 11.669 10.8223 12.095C10.8223 12.522 10.4733 12.871 10.0473 12.871C9.62029 12.871 9.27131 12.522 9.27131 12.095C9.27131 11.669 9.62029 11.32 10.0473 11.32ZM7.87397 11.32C8.30095 11.32 8.64895 11.669 8.64895 12.095C8.64895 12.522 8.30095 12.871 7.87397 12.871C7.44797 12.871 7.09898 12.522 7.09898 12.095C7.09898 11.669 7.44797 11.32 7.87397 11.32ZM16.1264 11.3197C16.5524 11.3197 16.9013 11.6687 16.9013 12.0957C16.9013 12.5217 16.5524 12.8706 16.1264 12.8706C15.7004 12.8706 15.3504 12.5217 15.3504 12.0957C15.3504 11.6687 15.7004 11.3197 16.1264 11.3197Z" fill="black"/>
<path d="M7.71044 16.9503H10.2104M13.79 16.9503H16.29M16.5 3.74956H7.50001C6.12001 3.74956 4.99997 4.86861 4.99997 6.24959V17.7496C4.99997 19.1306 6.12001 20.2496 7.50001 20.2496H16.5C17.881 20.2496 19 19.1306 19 17.7496V6.24959C19 4.86861 17.881 3.74956 16.5 3.74956Z" stroke="black" stroke-width="1.63636" stroke-linecap="round" stroke-linejoin="round"/>
</svg>
