<svg width="24" height="24" viewBox="0 0 24 24" fill="none" xmlns="http://www.w3.org/2000/svg">
<path fill-rule="evenodd" clip-rule="evenodd" d="M21.7038 15.9293C21.99 15.9293 22.2084 16.009 22.3571 16.1677C22.5065 16.3256 22.5803 16.5262 22.5803 16.7688C22.5803 17.0106 22.5065 17.2096 22.3571 17.3658C22.2084 17.5211 21.99 17.6 21.7038 17.6C21.4166 17.6 21.2009 17.5211 21.0574 17.3658C20.9137 17.2096 20.8415 17.0106 20.8415 16.7688C20.8415 16.5262 20.9137 16.3256 21.0574 16.1677C21.2009 16.009 21.4166 15.9293 21.7038 15.9293ZM15.0164 15.9208C15.3044 15.9208 15.5219 16.0006 15.6695 16.1584C15.8182 16.3179 15.8929 16.5178 15.8929 16.7587C15.8929 17.0005 15.8182 17.1995 15.6695 17.3557C15.5219 17.5118 15.3044 17.5891 15.0164 17.5891C14.73 17.5891 14.5151 17.5118 14.3716 17.3557C14.2279 17.1995 14.1566 17.0005 14.1566 16.7587C14.1566 16.5178 14.2279 16.3179 14.3716 16.1584C14.5151 16.0006 14.73 15.9208 15.0164 15.9208ZM8.30346 13.6005C9.62666 14.6509 10.5779 15.6541 11.1596 16.6104L10.3444 17.3282C9.61226 16.1554 8.6561 15.1285 7.47386 14.2478L8.30346 13.6005ZM3.36762 13.5443C3.88314 13.5443 4.32298 13.7264 4.68986 14.0925C5.05514 14.4578 5.23818 14.8968 5.23818 15.4082C5.23818 15.9194 5.05514 16.3578 4.68986 16.7237C4.32298 17.0898 3.88314 17.272 3.36762 17.272C2.81258 17.272 2.35258 17.0898 1.98826 16.7237C1.62122 16.3578 1.43994 15.9194 1.43994 15.4082C1.43994 14.8968 1.62378 14.4578 1.99482 14.0925C2.36522 13.7264 2.82266 13.5443 3.36762 13.5443ZM3.36762 14.4166C2.67242 14.4166 2.3257 14.744 2.3257 15.4014C2.3257 16.0957 2.67242 16.4475 3.36762 16.4558C3.61946 16.4558 3.84778 16.3552 4.04938 16.1536C4.25082 15.9522 4.35162 15.7011 4.35162 15.4014C4.35162 14.744 4.0233 14.4166 3.36762 14.4166ZM22.4439 6.55135L22.338 14.4483H20.9923L20.8948 6.55135H22.4439ZM15.2291 6.39999C15.7009 6.39999 16.1239 6.46639 16.4959 6.60063C16.8695 6.73407 17.1894 6.92559 17.4556 7.17743C17.7124 7.43439 17.9115 7.73999 18.0526 8.09503C18.1927 8.45023 18.2641 8.84559 18.2641 9.28479C18.2641 10.1654 17.8561 11.0362 17.0409 11.8966L16.2247 12.6968C15.8731 13.0947 15.6967 13.6782 15.6967 14.4482H14.2174C14.2207 14.1307 14.2391 13.8512 14.2694 13.6061C14.2996 13.3626 14.3475 13.1544 14.4129 12.984C14.4785 12.8077 14.5758 12.6238 14.7076 12.4331C14.8387 12.241 14.999 12.0378 15.1913 11.8211L16.1643 10.8094C16.3607 10.5827 16.5119 10.3435 16.6177 10.0925C16.7235 9.84063 16.7764 9.58623 16.7764 9.32927C16.7764 8.82127 16.6438 8.42415 16.3801 8.14047C16.1148 7.85663 15.7319 7.71391 15.2291 7.71391C14.7303 7.71391 14.3348 7.84239 14.0427 8.09935C13.7463 8.36047 13.5977 8.72559 13.5977 9.19327H12.11C12.115 8.76591 12.1907 8.38383 12.3367 8.04559C12.4828 7.70895 12.6995 7.41423 12.9857 7.16239C13.57 6.65439 14.3172 6.39999 15.2291 6.39999Z" fill="black"/>
</svg>
