<svg width="24" height="24" viewBox="0 0 24 24" fill="none" xmlns="http://www.w3.org/2000/svg">
<path d="M8.01667 9.16931C8.44157 9.16931 8.78957 9.51731 8.78957 9.94233C8.78957 10.3663 8.44157 10.7143 8.01667 10.7143C7.59165 10.7143 7.24463 10.3663 7.24463 9.94233C7.24463 9.51731 7.59165 9.16931 8.01667 9.16931ZM16.4834 9.16931C16.9084 9.16931 17.2564 9.51731 17.2564 9.94134C17.2564 10.3663 16.9084 10.7143 16.4834 10.7143C16.0584 10.7143 15.7104 10.3663 15.7104 9.94134C15.7104 9.51731 16.0584 9.16931 16.4834 9.16931ZM13.6611 9.16931C14.0862 9.16931 14.4342 9.51731 14.4342 9.94134C14.4342 10.3663 14.0862 10.7143 13.6611 10.7143C13.2361 10.7143 12.8881 10.3663 12.8881 9.94134C12.8881 9.51731 13.2361 9.16931 13.6611 9.16931ZM10.8388 9.16931C11.2639 9.16931 11.6119 9.51731 11.6119 9.94134C11.6119 10.3663 11.2639 10.7143 10.8388 10.7143C10.4138 10.7143 10.0658 10.3663 10.0658 9.94134C10.0658 9.51731 10.4138 9.16931 10.8388 9.16931ZM8.01667 6.5208C8.44157 6.5208 8.78957 6.8688 8.78957 7.29382C8.78957 7.71774 8.44157 8.06683 8.01667 8.06683C7.59165 8.06683 7.24463 7.71774 7.24463 7.29382C7.24463 6.8688 7.59165 6.5208 8.01667 6.5208ZM16.4834 6.52091C16.9084 6.52091 17.2564 6.86891 17.2564 7.29294C17.2564 7.71785 16.9084 8.06694 16.4834 8.06694C16.0584 8.06694 15.7104 7.71785 15.7104 7.29294C15.7104 6.86891 16.0584 6.52091 16.4834 6.52091ZM13.6611 6.52091C14.0862 6.52091 14.4342 6.86891 14.4342 7.29294C14.4342 7.71785 14.0862 8.06694 13.6611 8.06694C13.2361 8.06694 12.8881 7.71785 12.8881 7.29294C12.8881 6.86891 13.2361 6.52091 13.6611 6.52091ZM10.8388 6.52091C11.2639 6.52091 11.6119 6.86891 11.6119 7.29294C11.6119 7.71785 11.2639 8.06694 10.8388 8.06694C10.4138 8.06694 10.0658 7.71785 10.0658 7.29294C10.0658 6.86891 10.4138 6.52091 10.8388 6.52091Z" fill="black"/>
<path d="M10 12.8637H14.5M3.25 20.0239H21.25M17.625 3.75044H6.87498C5.494 3.75044 4.37495 4.86939 4.37495 6.25037V13.3864C4.37495 14.8124 5.53098 15.9684 6.95702 15.9684H17.543C18.969 15.9684 20.1249 14.8124 20.1249 13.3864V6.25037C20.1249 4.86939 19.006 3.75044 17.625 3.75044Z" stroke="black" stroke-width="1.63636" stroke-linecap="round" stroke-linejoin="round"/>
</svg>
