<svg width="24" height="24" viewBox="0 0 24 24" fill="none" xmlns="http://www.w3.org/2000/svg">
<path d="M16.3584 8.1684C16.7834 8.1684 17.1314 8.5164 17.1314 8.94142C17.1314 9.36644 16.7834 9.71444 16.3584 9.71444C15.9334 9.71444 15.5854 9.36644 15.5854 8.94142C15.5854 8.5164 15.9334 8.1684 16.3584 8.1684ZM13.5361 8.1684C13.9612 8.1684 14.3092 8.5164 14.3092 8.94142C14.3092 9.36644 13.9612 9.71444 13.5361 9.71444C13.1111 9.71444 12.7631 9.36644 12.7631 8.94142C12.7631 8.5164 13.1111 8.1684 13.5361 8.1684ZM10.7138 8.1684C11.1389 8.1684 11.4869 8.5164 11.4869 8.94142C11.4869 9.36644 11.1389 9.71444 10.7138 9.71444C10.2888 9.71444 9.94083 9.36644 9.94083 8.94142C9.94083 8.5164 10.2888 8.1684 10.7138 8.1684ZM7.89167 8.16829C8.31657 8.16829 8.66457 8.51629 8.66457 8.94229C8.66457 9.36633 8.31657 9.71433 7.89167 9.71433C7.46665 9.71433 7.11963 9.36633 7.11963 8.94229C7.11963 8.51629 7.46665 8.16829 7.89167 8.16829ZM7.89167 5.52087C8.31657 5.52087 8.66457 5.86887 8.66457 6.29389C8.66457 6.71793 8.31657 7.06691 7.89167 7.06691C7.46665 7.06691 7.11963 6.71793 7.11963 6.29389C7.11963 5.86887 7.46665 5.52087 7.89167 5.52087ZM16.3584 5.52098C16.7834 5.52098 17.1314 5.86898 17.1314 6.29302C17.1314 6.71804 16.7834 7.06702 16.3584 7.06702C15.9334 7.06702 15.5854 6.71804 15.5854 6.29302C15.5854 5.86898 15.9334 5.52098 16.3584 5.52098ZM13.5361 5.52098C13.9612 5.52098 14.3092 5.86898 14.3092 6.29302C14.3092 6.71804 13.9612 7.06702 13.5361 7.06702C13.1111 7.06702 12.7631 6.71804 12.7631 6.29302C12.7631 5.86898 13.1111 5.52098 13.5361 5.52098ZM10.7138 5.52098C11.1389 5.52098 11.4869 5.86898 11.4869 6.29302C11.4869 6.71804 11.1389 7.06702 10.7138 7.06702C10.2888 7.06702 9.94083 6.71804 9.94083 6.29302C9.94083 5.86898 10.2888 5.52098 10.7138 5.52098Z" fill="black"/>
<path d="M9.87505 11.8637H14.3751M13.7802 18.1366C14.2023 18.1366 14.4353 18.6276 14.1663 18.9545L12.6003 20.8596C12.4002 21.1026 12.0283 21.1026 11.8272 20.8596L10.2612 18.9545C9.99222 18.6276 10.2252 18.1366 10.6472 18.1366H13.7802ZM17.5001 2.7505C18.8811 2.7505 20 3.86945 20 5.25054V12.3865C20 13.8125 18.8441 14.9675 17.418 14.9675H6.83207C5.40604 14.9675 4.25 13.8125 4.25 12.3865V5.25054C4.25 3.86945 5.36905 2.7505 6.75004 2.7505H17.5001Z" stroke="black" stroke-width="1.63636" stroke-linecap="round" stroke-linejoin="round"/>
</svg>
