<svg width="24" height="24" viewBox="0 0 24 24" fill="none" xmlns="http://www.w3.org/2000/svg">
<path d="M13.2113 13.7267C13.6384 13.7267 13.9874 14.0757 13.9874 14.5017C13.9874 14.9287 13.6384 15.2777 13.2113 15.2777C12.7853 15.2777 12.4364 14.9287 12.4364 14.5017C12.4364 14.0757 12.7853 13.7267 13.2113 13.7267ZM15.6341 13.7265C16.0612 13.7265 16.4102 14.0755 16.4102 14.5025C16.4102 14.9285 16.0612 15.2775 15.6341 15.2775C15.2081 15.2775 14.8592 14.9285 14.8592 14.5025C14.8592 14.0755 15.2081 13.7265 15.6341 13.7265ZM10.789 13.7267C11.215 13.7267 11.564 14.0757 11.564 14.5017C11.564 14.9287 11.215 15.2777 10.789 15.2777C10.362 15.2777 10.013 14.9287 10.013 14.5017C10.013 14.0757 10.362 13.7267 10.789 13.7267ZM8.36574 13.7267C8.79273 13.7267 9.14171 14.0757 9.14171 14.5017C9.14171 14.9287 8.79273 15.2777 8.36574 15.2777C7.93974 15.2777 7.59065 14.9287 7.59065 14.5017C7.59065 14.0757 7.93974 13.7267 8.36574 13.7267ZM10.789 11.3195C11.215 11.3195 11.564 11.6695 11.564 12.0945C11.564 12.5215 11.215 12.8715 10.789 12.8715C10.362 12.8715 10.013 12.5215 10.013 12.0945C10.013 11.6695 10.362 11.3195 10.789 11.3195ZM13.2113 11.3195C13.6384 11.3195 13.9874 11.6695 13.9874 12.0945C13.9874 12.5215 13.6384 12.8715 13.2113 12.8715C12.7853 12.8715 12.4364 12.5215 12.4364 12.0945C12.4364 11.6695 12.7853 11.3195 13.2113 11.3195ZM15.6341 11.3192C16.0612 11.3192 16.4102 11.6692 16.4102 12.0952C16.4102 12.5212 16.0612 12.8712 15.6341 12.8712C15.2081 12.8712 14.8592 12.5212 14.8592 12.0952C14.8592 11.6692 15.2081 11.3192 15.6341 11.3192ZM8.36574 11.3195C8.79273 11.3195 9.14171 11.6695 9.14171 12.0945C9.14171 12.5215 8.79273 12.8715 8.36574 12.8715C7.93974 12.8715 7.59065 12.5215 7.59065 12.0945C7.59065 11.6695 7.93974 11.3195 8.36574 11.3195Z" fill="black"/>
<path d="M10 16.9054H14M16.5 3.75021H7.50001C6.12001 3.75021 4.99997 4.86916 4.99997 6.25025V17.7502C4.99997 19.1312 6.12001 20.2502 7.50001 20.2502H16.5C17.881 20.2502 19 19.1312 19 17.7502V6.25025C19 4.86916 17.881 3.75021 16.5 3.75021Z" stroke="black" stroke-width="1.63636" stroke-linecap="round" stroke-linejoin="round"/>
</svg>
