<svg width="24" height="24" viewBox="0 0 24 24" fill="none" xmlns="http://www.w3.org/2000/svg">
<path fill-rule="evenodd" clip-rule="evenodd" d="M15.529 12.513C14.977 12.513 14.529 12.065 14.529 11.513C14.529 10.961 14.977 10.513 15.529 10.513C16.081 10.513 16.529 10.961 16.529 11.513C16.529 12.065 16.081 12.513 15.529 12.513ZM15.588 15.448C14.72 16.553 13.412 17.186 12 17.186C10.588 17.186 9.28 16.553 8.411 15.448C8.198 15.176 8.245 14.784 8.516 14.57C8.788 14.357 9.181 14.404 9.394 14.675C10.024 15.477 10.974 15.936 12 15.936C13.026 15.936 13.976 15.477 14.605 14.675C14.819 14.404 15.212 14.357 15.483 14.57C15.755 14.783 15.801 15.176 15.588 15.448ZM7.47 11.513C7.47 10.961 7.918 10.513 8.47 10.513C9.023 10.513 9.47 10.961 9.47 11.513C9.47 12.065 9.023 12.513 8.47 12.513C7.918 12.513 7.47 12.065 7.47 11.513ZM21.568 11.857C21.568 10.685 20.649 9.73201 19.518 9.73201C19.496 9.73201 19.474 9.735 19.452 9.735C18.644 6.89801 16.257 4.72201 13.305 4.21901C13.582 4.57901 13.797 5.00701 13.889 5.51601C14.161 7.00901 13.559 7.74601 13.177 8.05401C12.817 8.34201 12.361 8.492 11.9 8.492C11.626 8.492 11.351 8.43901 11.093 8.33101C10.208 7.95701 9.769 7.12801 9.921 6.11301C9.971 5.77101 10.29 5.53601 10.631 5.58701C10.972 5.63801 11.208 5.95601 11.157 6.29701C11.058 6.96001 11.45 7.12501 11.579 7.17901C11.797 7.27101 12.145 7.27901 12.395 7.07801C12.681 6.84901 12.775 6.37301 12.659 5.74001C12.519 4.96501 11.841 4.45101 11.257 4.14301C8.049 4.45001 5.407 6.721 4.548 9.735C4.525 9.735 4.504 9.73201 4.481 9.73201C3.351 9.73201 2.432 10.685 2.432 11.857C2.432 13.016 3.333 13.961 4.447 13.98C5.235 18.007 8.321 19.857 12 19.857C15.679 19.857 18.764 18.007 19.553 13.98C20.667 13.961 21.568 13.016 21.568 11.857Z" fill="black"/>
</svg>
