<svg width="24" height="24" viewBox="0 0 24 24" fill="none" xmlns="http://www.w3.org/2000/svg">
<path fill-rule="evenodd" clip-rule="evenodd" d="M16.015 3.5L16.1167 3.5068C16.4827 3.5564 16.765 3.8696 16.765 4.25L16.7582 4.3517C16.7085 4.7177 16.3945 5 16.015 5H15.265V9.889L19.451 17.23L19.523 17.3958C19.7599 18.0105 19.6967 18.6956 19.341 19.263L19.2471 19.4011C18.8522 19.9356 18.2329 20.25 17.56 20.25H6.60499L6.43799 20.2435C5.77519 20.1918 5.18019 19.8335 4.82299 19.263L4.73349 19.1055C4.43179 18.5182 4.42249 17.8304 4.71399 17.23L4.73799 17.185L8.89999 9.889V5H8.14899L8.04729 4.9931C7.68119 4.9435 7.39799 4.6295 7.39799 4.25L7.40489 4.1481C7.45469 3.7815 7.76949 3.5 8.14899 3.5H16.015ZM16.0812 14.344L16.082 14.375H8.08199L8.08119 14.348L6.05299 17.9053C5.97099 18.0903 5.98699 18.2943 6.09599 18.4683C6.20699 18.6463 6.39299 18.7503 6.60399 18.7503H17.561C17.772 18.7503 17.957 18.6473 18.069 18.4683C18.182 18.2883 18.194 18.0753 18.102 17.8843L16.0812 14.344ZM13.766 5.0003H10.399V10.2863L8.92119 12.875H15.2422L13.766 10.2863V5.0003Z" fill="black"/>
</svg>
