<svg width="24" height="24" viewBox="0 0 24 24" fill="none" xmlns="http://www.w3.org/2000/svg">
<path d="M18.9876 14.3267C21.0079 14.3267 22.6549 16.0203 22.6549 18.087C22.6549 20.087 21.1125 21.7377 19.182 21.8421L18.9876 21.8473H15.7179C15.534 21.8473 15.3805 21.7168 15.345 21.5434L15.3372 21.4666V19.6288C15.3372 19.4449 15.4677 19.2914 15.6412 19.2559L15.7179 19.2481H18.9008C19.5127 19.2481 20.0194 18.7271 20.0194 18.087C20.0194 17.4896 19.578 16.9959 19.0216 16.9327L18.9008 16.9259H15.7179C15.534 16.9259 15.3805 16.7954 15.345 16.6219L15.3372 16.5452V14.7074C15.3372 14.5234 15.4677 14.3699 15.6412 14.3344L15.7179 14.3267H18.9876ZM18.0031 15.0874V16.1638L18.9008 16.1645C19.9381 16.1645 20.7808 17.0311 20.7808 18.087C20.7808 19.0926 20.0164 19.9265 19.0476 20.0036L18.9008 20.0095L18.0031 20.0087V21.0851L18.9876 21.086C20.4706 21.086 21.708 19.9206 21.8745 18.43L21.8889 18.2566L21.8936 18.087C21.8936 16.4951 20.6746 15.1848 19.1574 15.0932L18.9876 15.0881L18.0031 15.0874ZM17.2417 20.0087H16.0977V21.0851H17.2417V20.0087ZM7.72134 17.7639C7.91434 17.4289 8.34234 17.3138 8.67734 17.5068C8.86114 17.6127 9.04954 17.7105 9.24204 17.7998L9.18464 17.7715L9.52764 17.854C9.66284 17.8856 9.79534 17.9159 9.92494 17.9447L10.3054 18.027C10.6838 18.1064 10.9262 18.4774 10.8468 18.8558C10.7675 19.2342 10.3964 19.4765 10.018 19.3972C9.63014 19.3158 9.21774 19.2216 8.78094 19.1147L8.65264 19.0697C8.42284 18.9631 8.19784 18.8464 7.97834 18.7199C7.64344 18.5269 7.52834 18.0989 7.72134 17.7639ZM4.74374 13.7228C5.09974 13.5722 5.51044 13.7386 5.66114 14.0946L5.81614 14.436C6.02924 14.8752 6.28424 15.2877 6.57764 15.6698C6.81314 15.9765 6.75544 16.4159 6.44884 16.6514C6.14224 16.8868 5.70274 16.8291 5.46734 16.5225C5.02854 15.9512 4.66174 15.3232 4.37544 14.6487L4.34074 14.5504C4.25024 14.2176 4.41734 13.861 4.74374 13.7228ZM17.2417 15.0874H16.0977V16.1638H17.2417V15.0874ZM12.551 8.357C12.8492 8.357 13.0966 8.5746 13.1431 8.8597L13.151 8.957L13.1507 10.8562L15.051 10.857C15.3824 10.857 15.651 11.1256 15.651 11.457C15.651 11.7552 15.4334 12.0026 15.1483 12.0491L15.051 12.057L13.1507 12.0562L13.151 13.957C13.151 14.2884 12.8824 14.557 12.551 14.557C12.2528 14.557 12.0053 14.3394 11.9588 14.0543L11.951 13.957L11.9507 12.0562L10.051 12.057C9.71964 12.057 9.45104 11.7884 9.45104 11.457C9.45104 11.1588 9.66864 10.9113 9.95374 10.8648L10.051 10.857L11.9507 10.8562L11.951 8.957C11.951 8.6256 12.2196 8.357 12.551 8.357ZM3.93384 9.2906C4.02494 8.9149 4.40334 8.6842 4.77914 8.7753C5.15484 8.8663 5.38554 9.2448 5.29444 9.6205C5.15084 10.2129 5.08304 10.8213 5.09374 11.431C5.10054 11.8176 4.79264 12.1364 4.40614 12.1432C4.01964 12.15 3.70074 11.8422 3.69394 11.4556C3.68114 10.7262 3.76224 9.9987 3.93384 9.2906ZM18.3661 6.3016C18.686 6.0845 19.1213 6.1679 19.3384 6.4878C19.6502 6.9474 19.9181 7.4389 20.1383 7.9577C20.2042 8.1129 20.2653 8.269 20.3215 8.426C20.4519 8.79 20.2625 9.1907 19.8985 9.321C19.5346 9.4514 19.1339 9.262 19.0035 8.8981C18.9564 8.7664 18.9051 8.6353 18.8496 8.5047C18.665 8.0697 18.4407 7.6583 18.1799 7.2739C17.9628 6.9539 18.0462 6.5186 18.3661 6.3016ZM6.80224 4.6995C7.10044 4.4534 7.54164 4.4955 7.78774 4.7937C8.03384 5.0918 7.99164 5.533 7.69354 5.7791C7.22264 6.1678 6.80504 6.6148 6.44904 7.1089C6.22314 7.4226 5.78564 7.4937 5.47194 7.2677C5.15824 7.0418 5.08714 6.6043 5.31314 6.2906C5.73884 5.6996 6.23864 5.1647 6.80224 4.6995ZM14.1342 3.6355C14.2592 3.2697 14.6571 3.0745 15.023 3.1995C15.7122 3.4352 16.3694 3.7575 16.9774 4.1586C17.3001 4.3715 17.3892 4.8057 17.1763 5.1284C16.9634 5.4511 16.5292 5.5401 16.2065 5.3272C15.6976 4.9915 15.1473 4.7216 14.5701 4.5243C14.2043 4.3992 14.0091 4.0013 14.1342 3.6355ZM11.7182 2.7549C12.104 2.7307 12.4365 3.0238 12.4607 3.4096C12.485 3.7954 12.1919 4.1279 11.8061 4.1522C11.2012 4.1902 10.6014 4.3057 10.0181 4.4983C9.65104 4.6196 9.25524 4.4203 9.13394 4.0532C9.01264 3.6861 9.21194 3.2902 9.57904 3.169C10.2763 2.9387 10.9942 2.8005 11.7182 2.7549Z" fill="black"/>
</svg>
