<svg width="24" height="24" viewBox="0 0 24 24" fill="none" xmlns="http://www.w3.org/2000/svg">
<path d="M7.63975 4.4741C5.31525 6.7986 5.25065 10.5377 7.44605 12.9407L7.81355 13.3249C8.14455 13.6867 8.37695 14.0396 8.52855 14.3732L8.55815 14.4436L8.55805 17.1032C8.55805 17.9425 9.23835 18.6227 10.0775 18.6227H13.8175L13.9638 18.6158C14.7343 18.5422 15.3369 17.8931 15.3369 17.1034L15.3364 14.5558L15.3066 14.6384C15.4405 14.2388 15.6963 13.7986 16.1123 13.3407L16.3006 13.1434C18.6249 10.819 18.6895 7.0885 16.4943 4.6775L16.3006 4.4741C13.9097 2.0833 10.0306 2.0833 7.63975 4.4741ZM15.2893 5.1249L15.4733 5.2998C17.3482 7.182 17.4068 10.1873 15.6498 12.1321L15.4741 12.3169C14.8162 12.9748 14.4083 13.6407 14.1984 14.2669L14.1681 14.4526V17.1034C14.1681 17.297 14.0111 17.454 13.8175 17.454H10.0775C9.88385 17.454 9.72685 17.297 9.72685 17.1034L9.72775 14.3294L9.68915 14.1201C9.49205 13.6058 9.16495 13.0724 8.68245 12.5433L8.46615 12.3169C6.53175 10.3825 6.53175 7.235 8.46615 5.3006C10.3402 3.4266 13.3447 3.368 15.2893 5.1249Z" fill="black"/>
<mask id="mask0_702_1647" style="mask-type:luminance" maskUnits="userSpaceOnUse" x="6" y="3" width="12" height="16">
<path d="M15.8874 4.8874C18.05 7.0585 18.05 10.5675 15.8874 12.7302C15.1907 13.4269 14.8854 14.0559 14.7522 14.4537L14.7525 17.1034C14.7525 17.6198 14.3339 18.0384 13.8175 18.0384H10.0775C9.56108 18.0384 9.14248 17.6198 9.14248 17.1034L9.14318 14.3283C8.99048 13.9302 8.68048 13.3576 8.05298 12.7302C5.89038 10.5675 5.89038 7.05 8.05298 4.8874C10.2157 2.7247 13.7247 2.7247 15.8874 4.8874Z" fill="white"/>
</mask>
<g mask="url(#mask0_702_1647)">
<path fill-rule="evenodd" clip-rule="evenodd" d="M5.84656 2.3304H11.7075V18.2254H5.84656V2.3304Z" fill="black"/>
</g>
<path d="M14.3166 20.1262C14.6962 20.1262 15.0041 20.4341 15.0041 20.8137C15.0041 21.1589 14.7497 21.4447 14.4181 21.4938L14.3166 21.5012H9.72815C9.34845 21.5012 9.04065 21.1934 9.04065 20.8137C9.04065 20.4686 9.29505 20.1828 9.62655 20.1337L9.72815 20.1262H14.3166Z" fill="black"/>
</svg>
