<svg width="24" height="24" viewBox="0 0 24 24" fill="none" xmlns="http://www.w3.org/2000/svg">
<path fill-rule="evenodd" clip-rule="evenodd" d="M14.4291 14.5856C12.9871 14.5856 11.8141 15.7421 11.8141 17.1746C11.8141 18.6063 12.9873 19.7626 14.4291 19.7626C15.8716 19.7626 17.0451 18.6065 17.0451 17.1746C17.0451 15.7419 15.8719 14.5856 14.4291 14.5856ZM14.4291 16.0856C15.0483 16.0856 15.5451 16.5752 15.5451 17.1746C15.5451 17.773 15.0482 18.2626 14.4291 18.2626C13.8109 18.2626 13.3141 17.773 13.3141 17.1746C13.3141 16.5753 13.8108 16.0856 14.4291 16.0856Z" fill="black"/>
<path fill-rule="evenodd" clip-rule="evenodd" d="M9.22118 10.6941C9.63538 10.6941 9.97118 11.0299 9.97118 11.4441C9.97118 11.8238 9.68898 12.1376 9.32298 12.1873L9.22118 12.1941H4.25018C3.83598 12.1941 3.50018 11.8583 3.50018 11.4441C3.50018 11.0644 3.78238 10.7506 4.14838 10.7009L4.25018 10.6941H9.22118Z" fill="black"/>
<path fill-rule="evenodd" clip-rule="evenodd" d="M9.22118 17.3874C9.63538 17.3874 9.97118 17.7232 9.97118 18.1374C9.97118 18.5171 9.68898 18.8309 9.32298 18.8806L9.22118 18.8874H4.25018C3.83598 18.8874 3.50018 18.5516 3.50018 18.1374C3.50018 17.7577 3.78238 17.4439 4.14838 17.3942L4.25018 17.3874H9.22118Z" fill="black"/>
<path fill-rule="evenodd" clip-rule="evenodd" d="M20.0002 3.9997C20.4144 3.9997 20.7502 4.3355 20.7502 4.7497C20.7502 5.1294 20.468 5.4432 20.102 5.4929L20.0002 5.4997H4.25018C3.83598 5.4997 3.50018 5.1639 3.50018 4.7497C3.50018 4.37 3.78238 4.0562 4.14838 4.0065L4.25018 3.9997H20.0002Z" fill="black"/>
<path fill-rule="evenodd" clip-rule="evenodd" d="M17.0447 17.2909C17.0447 17.7051 16.7089 18.0409 16.2947 18.0409C15.915 18.0409 15.6012 17.7587 15.5515 17.3927L15.5447 17.2909V10.5749C15.5447 10.0306 15.9574 9.5816 16.4866 9.5241L16.6017 9.5179H17.0617C19.3891 9.5179 20.9659 11.4603 21.0593 13.5442L21.0637 13.7399V14.5779C21.0637 14.9921 20.7279 15.3279 20.3137 15.3279C19.934 15.3279 19.6202 15.0457 19.5705 14.6797L19.5637 14.5779V13.7399C19.5637 12.3944 18.6154 11.1198 17.23 11.0237L17.044 11.017L17.0447 17.2909Z" fill="black"/>
</svg>
