<svg width="24" height="24" viewBox="0 0 24 24" fill="none" xmlns="http://www.w3.org/2000/svg">
<path d="M5.2476 4.125C5.6616 4.125 5.9976 4.461 5.9976 4.875V19.125C5.9976 19.421 5.8236 19.688 5.5556 19.81C5.4566 19.854 5.3516 19.875 5.2476 19.875C5.0666 19.875 4.8896 19.811 4.7496 19.686L1.9876 17.232C1.6786 16.957 1.6496 16.483 1.9256 16.174C2.2006 15.863 2.6746 15.836 2.9836 16.111L4.4976 17.455V4.875C4.4976 4.461 4.8336 4.125 5.2476 4.125ZM14.3702 17.7627C14.7852 17.7627 15.1202 18.0987 15.1202 18.5127C15.1202 18.9267 14.7852 19.2627 14.3702 19.2627H9.7642C9.3502 19.2627 9.0142 18.9267 9.0142 18.5127C9.0142 18.0987 9.3502 17.7627 9.7642 17.7627H14.3702ZM16.5025 11.3193C16.9165 11.3193 17.2525 11.6553 17.2525 12.0693C17.2525 12.4833 16.9165 12.8193 16.5025 12.8193H9.7645C9.3505 12.8193 9.0145 12.4833 9.0145 12.0693C9.0145 11.6553 9.3505 11.3193 9.7645 11.3193H16.5025ZM21.5142 4.875C21.9282 4.875 22.2642 5.211 22.2642 5.625C22.2642 6.039 21.9282 6.375 21.5142 6.375H9.7642C9.3502 6.375 9.0142 6.039 9.0142 5.625C9.0142 5.211 9.3502 4.875 9.7642 4.875H21.5142Z" fill="black"/>
</svg>
