<svg width="24" height="24" viewBox="0 0 24 24" fill="none" xmlns="http://www.w3.org/2000/svg">
<path fill-rule="evenodd" clip-rule="evenodd" d="M19.5517 16.6167C19.9657 16.6167 20.3017 16.9527 20.3017 17.3667C20.3017 17.7817 19.9657 18.1167 19.5517 18.1167H9.8017C9.3877 18.1167 9.0517 17.7817 9.0517 17.3667C9.0517 16.9527 9.3877 16.6167 9.8017 16.6167H19.5517ZM5.8017 16.6167C6.2157 16.6167 6.5517 16.9527 6.5517 17.3667C6.5517 17.7817 6.2157 18.1167 5.8017 18.1167H3.8017C3.3877 18.1167 3.0517 17.7817 3.0517 17.3667C3.0517 16.9527 3.3877 16.6167 3.8017 16.6167H5.8017ZM19.5517 10.1734C19.9657 10.1734 20.3017 10.5094 20.3017 10.9234C20.3017 11.3384 19.9657 11.6734 19.5517 11.6734H9.8017C9.3877 11.6734 9.0517 11.3384 9.0517 10.9234C9.0517 10.5094 9.3877 10.1734 9.8017 10.1734H19.5517ZM5.8017 10.1734C6.2157 10.1734 6.5517 10.5094 6.5517 10.9234C6.5517 11.3384 6.2157 11.6734 5.8017 11.6734H3.8017C3.3877 11.6734 3.0517 11.3384 3.0517 10.9234C3.0517 10.5094 3.3877 10.1734 3.8017 10.1734H5.8017ZM19.5517 3.73C19.9657 3.73 20.3017 4.066 20.3017 4.48C20.3017 4.894 19.9657 5.23 19.5517 5.23H9.8017C9.3877 5.23 9.0517 4.894 9.0517 4.48C9.0517 4.066 9.3877 3.73 9.8017 3.73H19.5517ZM5.8017 3.73C6.2157 3.73 6.5517 4.066 6.5517 4.48C6.5517 4.894 6.2157 5.23 5.8017 5.23H3.8017C3.3877 5.23 3.0517 4.894 3.0517 4.48C3.0517 4.066 3.3877 3.73 3.8017 3.73H5.8017Z" fill="black"/>
<path d="M21.5633 12.3154C21.3416 12.0869 20.8976 11.9 20.5763 11.9H14.9552C14.0133 11.9 13.25 12.6522 13.25 13.5806V22.3194C13.25 23.2471 14.0133 24 14.9552 24H22.2876C23.2296 24 23.9929 23.2471 23.9929 22.3194V15.2618C23.9929 15.0131 23.8612 14.689 23.6866 14.5089L21.5633 12.3154Z" fill="#F0F0F0"/>
<path d="M20.3301 12.5843C20.6109 12.5843 20.9996 12.75 21.1928 12.9533L23.0493 14.8981C23.202 15.0579 23.3164 15.3452 23.3164 15.5664V21.8252C23.3164 22.6486 22.6493 23.3157 21.826 23.3157H15.4169C14.5936 23.3157 13.9264 22.6486 13.9264 21.8252V14.0748C13.9264 13.2514 14.5936 12.5843 15.4169 12.5843H20.3301ZM18.8528 14.7252H16.6033C16.0459 14.7252 15.594 15.1563 15.594 15.6886V20.1154C15.594 20.6472 16.0459 21.0788 16.6033 21.0788H17.2454V19.3189C17.2454 19.0995 17.4231 18.9218 17.6425 18.9218H18.337C18.5564 18.9218 18.7341 19.0995 18.7341 19.3189V21.0788H20.6401C21.1976 21.0788 21.6489 20.6472 21.6489 20.1154L21.6483 17.8725C21.6483 17.3401 21.197 16.9091 20.6395 16.9091H19.8615V15.6886C19.8615 15.1563 19.4102 14.7252 18.8528 14.7252ZM18.5307 17.0662C18.7501 17.0662 18.9278 17.2439 18.9278 17.4633C18.9278 17.6827 18.7501 17.8603 18.5307 17.8603H18.4014C18.182 17.8603 18.0043 17.6827 18.0043 17.4633C18.0043 17.2439 18.182 17.0662 18.4014 17.0662H18.5307ZM17.141 17.0662C17.3604 17.0662 17.538 17.2439 17.538 17.4633C17.538 17.6827 17.3604 17.8603 17.141 17.8603H17.0116C16.7922 17.8603 16.6145 17.6827 16.6145 17.4633C16.6145 17.2439 16.7922 17.0662 17.0116 17.0662H17.141ZM17.141 15.7754C17.3604 15.7754 17.538 15.9531 17.538 16.1725C17.538 16.3919 17.3604 16.5695 17.141 16.5695H17.0116C16.7922 16.5695 16.6145 16.3919 16.6145 16.1725C16.6145 15.9531 16.7922 15.7754 17.0116 15.7754H17.141ZM18.5307 15.7754C18.7501 15.7754 18.9278 15.9531 18.9278 16.1725C18.9278 16.3919 18.7501 16.5695 18.5307 16.5695H18.4014C18.182 16.5695 18.0043 16.3919 18.0043 16.1725C18.0043 15.9531 18.182 15.7754 18.4014 15.7754H18.5307Z" fill="#F77C46"/>
</svg>
