<svg width="24" height="24" viewBox="0 0 24 24" fill="none" xmlns="http://www.w3.org/2000/svg">
<path fill-rule="evenodd" clip-rule="evenodd" d="M19.5517 16.6167C19.9657 16.6167 20.3017 16.9527 20.3017 17.3667C20.3017 17.7817 19.9657 18.1167 19.5517 18.1167H9.8017C9.3877 18.1167 9.0517 17.7817 9.0517 17.3667C9.0517 16.9527 9.3877 16.6167 9.8017 16.6167H19.5517ZM5.8017 16.6167C6.2157 16.6167 6.5517 16.9527 6.5517 17.3667C6.5517 17.7817 6.2157 18.1167 5.8017 18.1167H3.8017C3.3877 18.1167 3.0517 17.7817 3.0517 17.3667C3.0517 16.9527 3.3877 16.6167 3.8017 16.6167H5.8017ZM19.5517 10.1734C19.9657 10.1734 20.3017 10.5094 20.3017 10.9234C20.3017 11.3384 19.9657 11.6734 19.5517 11.6734H9.8017C9.3877 11.6734 9.0517 11.3384 9.0517 10.9234C9.0517 10.5094 9.3877 10.1734 9.8017 10.1734H19.5517ZM5.8017 10.1734C6.2157 10.1734 6.5517 10.5094 6.5517 10.9234C6.5517 11.3384 6.2157 11.6734 5.8017 11.6734H3.8017C3.3877 11.6734 3.0517 11.3384 3.0517 10.9234C3.0517 10.5094 3.3877 10.1734 3.8017 10.1734H5.8017ZM19.5517 3.73C19.9657 3.73 20.3017 4.066 20.3017 4.48C20.3017 4.894 19.9657 5.23 19.5517 5.23H9.8017C9.3877 5.23 9.0517 4.894 9.0517 4.48C9.0517 4.066 9.3877 3.73 9.8017 3.73H19.5517ZM5.8017 3.73C6.2157 3.73 6.5517 4.066 6.5517 4.48C6.5517 4.894 6.2157 5.23 5.8017 5.23H3.8017C3.3877 5.23 3.0517 4.894 3.0517 4.48C3.0517 4.066 3.3877 3.73 3.8017 3.73H5.8017Z" fill="black"/>
<path d="M21.5633 12.3154C21.3416 12.0869 20.8976 11.9 20.5763 11.9H14.9552C14.0133 11.9 13.25 12.6522 13.25 13.5806V22.3194C13.25 23.2471 14.0133 24 14.9552 24H22.2876C23.2296 24 23.9929 23.2471 23.9929 22.3194V15.2618C23.9929 15.0131 23.8612 14.689 23.6866 14.5089L21.5633 12.3154Z" fill="#F0F0F0"/>
<path d="M21.1928 12.9527C20.999 12.75 20.6109 12.5843 20.3301 12.5843H15.4169C14.5936 12.5843 13.9264 13.2514 13.9264 14.0748V21.8252C13.9264 22.648 14.5936 23.3157 15.4169 23.3157H21.826C22.6493 23.3157 23.3164 22.648 23.3164 21.8252V15.5658C23.3164 15.3452 23.2014 15.0579 23.0487 14.8981L21.1928 12.9527Z" fill="#007CB2"/>
<path fill-rule="evenodd" clip-rule="evenodd" d="M16.71 15.4957L19.4048 14.51H19.6373V21.39H18.3468V16.0663L16.7101 16.6254L16.71 15.4957Z" fill="#F0F0F0"/>
</svg>
