<svg width="24" height="24" viewBox="0 0 24 24" fill="none" xmlns="http://www.w3.org/2000/svg">
<path fill-rule="evenodd" clip-rule="evenodd" d="M19.5517 16.6167C19.9657 16.6167 20.3017 16.9527 20.3017 17.3667C20.3017 17.7817 19.9657 18.1167 19.5517 18.1167H9.8017C9.3877 18.1167 9.0517 17.7817 9.0517 17.3667C9.0517 16.9527 9.3877 16.6167 9.8017 16.6167H19.5517ZM5.8017 16.6167C6.2157 16.6167 6.5517 16.9527 6.5517 17.3667C6.5517 17.7817 6.2157 18.1167 5.8017 18.1167H3.8017C3.3877 18.1167 3.0517 17.7817 3.0517 17.3667C3.0517 16.9527 3.3877 16.6167 3.8017 16.6167H5.8017ZM19.5517 10.1734C19.9657 10.1734 20.3017 10.5094 20.3017 10.9234C20.3017 11.3384 19.9657 11.6734 19.5517 11.6734H9.8017C9.3877 11.6734 9.0517 11.3384 9.0517 10.9234C9.0517 10.5094 9.3877 10.1734 9.8017 10.1734H19.5517ZM5.8017 10.1734C6.2157 10.1734 6.5517 10.5094 6.5517 10.9234C6.5517 11.3384 6.2157 11.6734 5.8017 11.6734H3.8017C3.3877 11.6734 3.0517 11.3384 3.0517 10.9234C3.0517 10.5094 3.3877 10.1734 3.8017 10.1734H5.8017ZM19.5517 3.73C19.9657 3.73 20.3017 4.066 20.3017 4.48C20.3017 4.894 19.9657 5.23 19.5517 5.23H9.8017C9.3877 5.23 9.0517 4.894 9.0517 4.48C9.0517 4.066 9.3877 3.73 9.8017 3.73H19.5517ZM5.8017 3.73C6.2157 3.73 6.5517 4.066 6.5517 4.48C6.5517 4.894 6.2157 5.23 5.8017 5.23H3.8017C3.3877 5.23 3.0517 4.894 3.0517 4.48C3.0517 4.066 3.3877 3.73 3.8017 3.73H5.8017Z" fill="black"/>
<path d="M21.5633 12.3154C21.3416 12.0869 20.8976 11.9 20.5763 11.9H14.9552C14.0133 11.9 13.25 12.6522 13.25 13.5806V22.3194C13.25 23.2471 14.0133 24 14.9552 24H22.2876C23.2296 24 23.9929 23.2471 23.9929 22.3194V15.2618C23.9929 15.0131 23.8612 14.689 23.6866 14.5089L21.5633 12.3154Z" fill="#F0F0F0"/>
<path d="M20.3301 12.5843C20.6109 12.5843 20.999 12.75 21.1928 12.9533L23.0493 14.8981C23.202 15.0579 23.3164 15.3452 23.3164 15.5664V21.8252C23.3164 22.6486 22.6493 23.3157 21.826 23.3157H15.4169C14.5936 23.3157 13.9264 22.6486 13.9264 21.8252V14.0748C13.9264 13.2514 14.5936 12.5843 15.4169 12.5843H20.3301ZM18.6214 14.6692C16.6701 14.6692 15.0818 16.2562 15.0818 18.2087C15.0818 20.1607 16.6701 21.7483 18.6214 21.7483C20.5728 21.7483 22.1616 20.1613 22.1616 18.2087C22.1616 16.2568 20.5728 14.6692 18.6214 14.6692ZM19.3738 18.6107C19.2963 20.063 18.8259 20.8494 18.6214 20.8494C18.4169 20.8494 17.9465 20.063 17.869 18.6107H19.3738ZM17.0591 18.6108C17.0985 19.387 17.2481 20.137 17.5045 20.6986C16.671 20.3236 16.0665 19.5438 15.9275 18.6108H17.0591ZM21.3156 18.6108C21.1761 19.5438 20.5716 20.3236 19.7387 20.6986C19.9951 20.137 20.1453 19.3876 20.1834 18.6108H21.3156ZM17.5045 15.7183C17.2481 16.2805 17.0985 17.0299 17.0591 17.8061H15.9275C16.0665 16.8731 16.6716 16.0939 17.5045 15.7183ZM18.6214 15.5675C18.8259 15.5675 19.2963 16.3539 19.3738 17.8062H17.869C17.9465 16.3539 18.4169 15.5675 18.6214 15.5675ZM19.7387 15.7183C20.571 16.0939 21.1761 16.8731 21.3156 17.8061H20.1834C20.1453 17.0299 19.9951 16.2805 19.7387 15.7183Z" fill="#2DB6C1"/>
</svg>
