<svg width="24" height="24" viewBox="0 0 24 24" fill="none" xmlns="http://www.w3.org/2000/svg">
<path fill-rule="evenodd" clip-rule="evenodd" d="M19.5517 16.6167C19.9657 16.6167 20.3017 16.9527 20.3017 17.3667C20.3017 17.7817 19.9657 18.1167 19.5517 18.1167H9.8017C9.3877 18.1167 9.0517 17.7817 9.0517 17.3667C9.0517 16.9527 9.3877 16.6167 9.8017 16.6167H19.5517ZM5.8017 16.6167C6.2157 16.6167 6.5517 16.9527 6.5517 17.3667C6.5517 17.7817 6.2157 18.1167 5.8017 18.1167H3.8017C3.3877 18.1167 3.0517 17.7817 3.0517 17.3667C3.0517 16.9527 3.3877 16.6167 3.8017 16.6167H5.8017ZM19.5517 10.1734C19.9657 10.1734 20.3017 10.5094 20.3017 10.9234C20.3017 11.3384 19.9657 11.6734 19.5517 11.6734H9.8017C9.3877 11.6734 9.0517 11.3384 9.0517 10.9234C9.0517 10.5094 9.3877 10.1734 9.8017 10.1734H19.5517ZM5.8017 10.1734C6.2157 10.1734 6.5517 10.5094 6.5517 10.9234C6.5517 11.3384 6.2157 11.6734 5.8017 11.6734H3.8017C3.3877 11.6734 3.0517 11.3384 3.0517 10.9234C3.0517 10.5094 3.3877 10.1734 3.8017 10.1734H5.8017ZM19.5517 3.73C19.9657 3.73 20.3017 4.066 20.3017 4.48C20.3017 4.894 19.9657 5.23 19.5517 5.23H9.8017C9.3877 5.23 9.0517 4.894 9.0517 4.48C9.0517 4.066 9.3877 3.73 9.8017 3.73H19.5517ZM5.8017 3.73C6.2157 3.73 6.5517 4.066 6.5517 4.48C6.5517 4.894 6.2157 5.23 5.8017 5.23H3.8017C3.3877 5.23 3.0517 4.894 3.0517 4.48C3.0517 4.066 3.3877 3.73 3.8017 3.73H5.8017Z" fill="black"/>
<path d="M21.5633 12.3154C21.3416 12.0869 20.8976 11.9 20.5763 11.9H14.9552C14.0133 11.9 13.25 12.6522 13.25 13.5806V22.3194C13.25 23.2471 14.0133 24 14.9552 24H22.2876C23.2296 24 23.9929 23.2471 23.9929 22.3194V15.2618C23.9929 15.0131 23.8612 14.689 23.6866 14.5089L21.5633 12.3154Z" fill="#F0F0F0"/>
<path d="M22.1986 18.7996C22.1986 18.9075 22.0835 18.9737 21.944 18.9456L19.6916 18.4621C19.5515 18.4341 19.4352 18.5003 19.4322 18.6088L19.279 19.8131C19.2796 19.8083 19.2397 19.952 19.434 20.1285L20.0219 20.7157C20.1179 20.7956 20.2264 20.9262 20.2264 21.0347V21.0573C20.2264 21.1659 20.0839 21.266 19.9706 21.2129L18.9923 20.7873C18.8307 20.7193 18.656 20.7211 18.4789 20.7849L17.3748 21.2159C17.2222 21.2714 17.1184 21.1664 17.1184 21.0585V21.0359C17.1184 20.9274 17.1965 20.8344 17.3241 20.7169L17.912 20.1291C18.0998 19.9562 18.0658 19.8089 18.067 19.8137L17.9132 18.6094C17.9108 18.5009 17.7933 18.4347 17.6544 18.4633L15.2983 18.9468C15.1588 18.9749 15.0443 18.9087 15.0443 18.8002V18.2737C15.0443 18.1658 15.1444 18.0305 15.2673 17.9727L17.6932 16.7809C17.81 16.6986 17.9155 16.5883 17.9155 16.4804V15.5432C17.9155 15.4347 17.9304 15.2576 17.9477 15.1503C17.9477 15.1503 17.9632 15.0561 18.0449 14.8814C18.1814 14.5893 18.411 14.3663 18.6733 14.3663C18.9368 14.3663 19.1699 14.5958 19.3047 14.8892C19.384 15.0609 19.3989 15.1515 19.3989 15.1515C19.4162 15.2588 19.4305 15.4359 19.4305 15.5438V16.481C19.4305 16.5895 19.5408 16.7016 19.6528 16.7821L21.9762 17.9738C22.0984 18.0311 22.1986 18.1664 22.1986 18.2749V18.7996ZM23.0493 14.8981L21.1928 12.9533C20.999 12.7506 20.6109 12.5843 20.3301 12.5843H15.4169C14.5936 12.5843 13.9264 13.2514 13.9264 14.0748V21.8252C13.9264 22.6486 14.5936 23.3157 15.4169 23.3157H21.826C22.6493 23.3157 23.3164 22.6486 23.3164 21.8252V15.5664C23.3164 15.3452 23.202 15.0585 23.0493 14.8981Z" fill="#617DAF"/>
</svg>
