<svg width="24" height="24" viewBox="0 0 24 24" fill="none" xmlns="http://www.w3.org/2000/svg">
<path d="M15.4873 9.2295C12.9205 9.2295 10.8392 11.3107 10.8392 13.8764C10.8392 16.4437 12.92 18.5245 15.4873 18.5245C18.0545 18.5245 20.1353 16.4437 20.1353 13.8764C20.1353 11.3107 18.054 9.2295 15.4873 9.2295ZM15.4873 10.7295C17.2255 10.7295 18.6353 12.1392 18.6353 13.8764C18.6353 15.6152 17.226 17.0245 15.4873 17.0245C13.7485 17.0245 12.3392 15.6152 12.3392 13.8764C12.3392 12.1392 13.749 10.7295 15.4873 10.7295Z" fill="black"/>
<path d="M17.7808 16.1692C18.0471 15.903 18.4638 15.8789 18.7574 16.0968L18.8415 16.1694L21.9675 19.2964C22.2603 19.5893 22.2602 20.0642 21.9673 20.3571C21.701 20.6233 21.2843 20.6474 20.9907 20.4295L20.9066 20.3569L17.7806 17.2299C17.4878 16.937 17.4879 16.4621 17.7808 16.1692Z" fill="black"/>
<path d="M18.813 3.9234C19.2272 3.9234 19.563 4.2591 19.563 4.6733C19.563 5.053 19.2808 5.3668 18.9147 5.4165L18.813 5.4233H2.56289C2.14869 5.4233 1.81299 5.0876 1.81299 4.6733C1.81299 4.2937 2.09509 3.9799 2.46119 3.9302L2.56289 3.9234H18.813Z" fill="black"/>
<path d="M7.91899 10.9136C8.33319 10.9136 8.66899 11.2493 8.66899 11.6636C8.66899 12.0432 8.38679 12.357 8.02069 12.4067L7.91899 12.4136H2.56289C2.14869 12.4136 1.81299 12.0778 1.81299 11.6636C1.81299 11.2839 2.09509 10.9701 2.46119 10.9204L2.56289 10.9136H7.91899Z" fill="black"/>
<path d="M7.91899 17.9233C8.33319 17.9233 8.66899 18.2591 8.66899 18.6733C8.66899 19.053 8.38679 19.3668 8.02069 19.4165L7.91899 19.4233H2.56289C2.14869 19.4233 1.81299 19.0876 1.81299 18.6733C1.81299 18.2937 2.09509 17.9799 2.46119 17.9302L2.56289 17.9233H7.91899Z" fill="black"/>
</svg>
