<svg width="24" height="24" viewBox="0 0 24 24" fill="none" xmlns="http://www.w3.org/2000/svg">
<path fill-rule="evenodd" clip-rule="evenodd" d="M17.2501 3.0005C19.0421 3.0005 20.5001 4.4585 20.5001 6.2505V17.2505C20.5001 19.0415 19.0421 20.5005 17.2501 20.5005H6.25012C4.45812 20.5005 3.00012 19.0415 3.00012 17.2505V6.2505C3.00012 4.4585 4.45812 3.0005 6.25012 3.0005H17.2501ZM19.0001 15.1665H15.1671V19.0005H17.2501C18.2151 19.0005 19.0001 18.2145 19.0001 17.2505V15.1665ZM13.6671 15.1675H9.83412V19.0005H13.6671V15.1675ZM8.33312 15.1665H4.50012V17.2505C4.50012 18.2145 5.28512 19.0005 6.25012 19.0005H8.33312V15.1665ZM19.0001 9.8335H15.1671V13.6665H19.0001V9.8335ZM13.6671 9.8335H9.83412V13.6665H13.6671V9.8335ZM8.33312 9.8335H4.50012V13.6665H8.33312V9.8335ZM17.2501 4.5005H15.1671V8.3335H19.0001V6.2505C19.0001 5.2855 18.2151 4.5005 17.2501 4.5005ZM13.6671 4.5005H9.83412V8.3335H13.6671V4.5005ZM8.33312 4.5005H6.25012C5.28512 4.5005 4.50012 5.2855 4.50012 6.2505V8.3335H8.33312V4.5005Z" fill="black"/>
</svg>
