<svg width="24" height="24" viewBox="0 0 24 24" fill="none" xmlns="http://www.w3.org/2000/svg">
<path fill-rule="evenodd" clip-rule="evenodd" d="M20.1103 10.8404C20.5133 10.8404 20.6633 11.0714 20.7093 11.1704C20.7553 11.2694 20.8343 11.5323 20.5733 11.8393L18.2673 14.4704V18.9263C18.2673 19.3403 17.9313 19.6763 17.5173 19.6763C17.1033 19.6763 16.7673 19.3403 16.7673 18.9263V14.4604L14.4603 11.8393C14.1993 11.5323 14.2783 11.2694 14.3243 11.1704C14.3703 11.0714 14.5203 10.8404 14.9233 10.8404H20.1103ZM11.4925 17.7108C11.9065 17.7108 12.2425 18.0469 12.2425 18.4608C12.2425 18.8748 11.9065 19.2108 11.4925 19.2108H9.99249C9.57749 19.2108 9.24249 18.8748 9.24249 18.4608C9.24249 18.0469 9.57749 17.7108 9.99249 17.7108H11.4925ZM5.99249 17.7108C6.40649 17.7108 6.74249 18.0469 6.74249 18.4608C6.74249 18.8748 6.40649 19.2108 5.99249 19.2108H3.99249C3.57749 19.2108 3.24249 18.8748 3.24249 18.4608C3.24249 18.0469 3.57749 17.7108 3.99249 17.7108H5.99249ZM11.4925 11.0176C11.9065 11.0176 12.2425 11.3535 12.2425 11.7676C12.2425 12.1816 11.9065 12.5176 11.4925 12.5176H9.99249C9.57749 12.5176 9.24249 12.1816 9.24249 11.7676C9.24249 11.3535 9.57749 11.0176 9.99249 11.0176H11.4925ZM5.99249 11.0176C6.40649 11.0176 6.74249 11.3535 6.74249 11.7676C6.74249 12.1816 6.40649 12.5176 5.99249 12.5176H3.99249C3.57749 12.5176 3.24249 12.1816 3.24249 11.7676C3.24249 11.3535 3.57749 11.0176 3.99249 11.0176H5.99249ZM19.7425 4.3236C20.1565 4.3236 20.4925 4.6596 20.4925 5.0736C20.4925 5.4876 20.1565 5.8236 19.7425 5.8236H9.99249C9.57749 5.8236 9.24249 5.4876 9.24249 5.0736C9.24249 4.6596 9.57749 4.3236 9.99249 4.3236H19.7425ZM5.99249 4.3236C6.40649 4.3236 6.74249 4.6596 6.74249 5.0736C6.74249 5.4876 6.40649 5.8236 5.99249 5.8236H3.99249C3.57749 5.8236 3.24249 5.4876 3.24249 5.0736C3.24249 4.6596 3.57749 4.3236 3.99249 4.3236H5.99249Z" fill="black"/>
</svg>
