<svg width="24" height="24" viewBox="0 0 24 24" fill="none" xmlns="http://www.w3.org/2000/svg">
<path d="M2.83938 3.6918C3.11738 3.4148 3.55638 3.4029 3.85038 3.6509L19.9744 19.7749C20.2234 20.0688 20.2114 20.5089 19.9344 20.7859C19.7874 20.9328 19.5964 21.0058 19.4034 21.0058C19.2114 21.0058 19.0194 20.9328 18.8734 20.7859L15.4924 17.4049L13.1674 20.4168C12.5684 21.1138 11.4884 21.1138 10.8904 20.4168L6.99038 15.3699C6.90838 15.2809 4.81338 12.9619 4.81338 10.2069C4.81338 9.1838 5.02838 8.2099 5.41438 7.3278L2.83938 4.7529C2.54638 4.4599 2.54638 3.9848 2.83938 3.6918ZM12.0281 2.9941C16.0071 2.9941 19.2441 6.2291 19.2441 10.2062C19.2441 12.3781 17.9451 14.2732 17.3491 15.0292L14.3521 12.0311C14.7741 11.5141 15.0281 10.8541 15.0281 10.1332C15.0281 8.4781 13.6851 7.1351 12.0281 7.1351C11.3091 7.1351 10.6491 7.3892 10.1321 7.8112L7.18508 4.8642C8.46608 3.7032 10.1661 2.9941 12.0281 2.9941Z" fill="black"/>
</svg>
