<svg width="24" height="24" viewBox="0 0 24 24" fill="none" xmlns="http://www.w3.org/2000/svg">
<path fill-rule="evenodd" clip-rule="evenodd" d="M12.002 3.026C15.931 3.026 19.119 6.211 19.119 10.141C19.119 12.7173 17.2109 14.9604 16.9724 15.2307L16.948 15.258L13.14 20.448C12.542 21.146 11.462 21.146 10.863 20.448L7.05403 15.258C7.05403 15.258 4.88403 12.889 4.88403 10.141C4.88403 6.211 8.07203 3.026 12.002 3.026ZM12.0012 7.1433C10.3452 7.1433 9.00123 8.4863 9.00123 10.1413C9.00123 11.8003 10.3452 13.1433 12.0012 13.1433C13.6582 13.1433 15.0012 11.8003 15.0012 10.1413C15.0012 8.4863 13.6582 7.1433 12.0012 7.1433Z" stroke="black" stroke-width="1.5" stroke-linecap="round" stroke-linejoin="round"/>
</svg>
