<svg width="24" height="24" viewBox="0 0 24 24" fill="none" xmlns="http://www.w3.org/2000/svg">
<path d="M13.5357 14.1849C13.5357 14.8849 12.9597 15.4519 12.2497 15.4519C11.5397 15.4519 10.9647 14.8849 10.9647 14.1849C10.9647 13.4849 11.5397 12.9189 12.2497 12.9189C12.9597 12.9189 13.5357 13.4849 13.5357 14.1849Z" fill="black"/>
<path d="M12.2501 14.952V17.329M8.58212 9.2498V7.0068C8.58212 4.9318 10.2241 3.2498 12.2491 3.2498C14.2751 3.2498 15.9171 4.9318 15.9171 7.0068V9.2498M16.7501 20.6903H7.75012C6.64612 20.6903 5.75012 19.7943 5.75012 18.6903V11.9633C5.75012 10.8583 6.64612 9.9633 7.75012 9.9633H16.7501C17.8541 9.9633 18.7501 10.8583 18.7501 11.9633V18.6903C18.7501 19.7943 17.8541 20.6903 16.7501 20.6903Z" stroke="black" stroke-width="1.5" stroke-linecap="round" stroke-linejoin="round"/>
</svg>
