<svg width="24" height="24" viewBox="0 0 24 24" fill="none" xmlns="http://www.w3.org/2000/svg">
<path d="M16.4966 10.05L16.3966 7.35C16.3966 4.85 14.3966 2.85 11.9966 2.85C9.59663 2.85 7.59663 4.85 7.59663 7.35V10.05H7.49663C6.29663 10.05 5.29663 11.05 5.29663 12.25V18.95C5.29663 20.15 6.29663 21.15 7.49663 21.15H16.4966C17.6966 21.15 18.6966 20.15 18.6966 18.95V12.25C18.7966 11.05 17.7966 10.05 16.4966 10.05ZM10.7966 14.45C10.7966 13.75 11.3966 13.15 12.0966 13.15C12.7966 13.15 13.3966 13.75 13.3966 14.45C13.3966 14.85 13.1966 15.25 12.8966 15.45V17.55C12.8966 17.95 12.5966 18.35 12.0966 18.35C11.5966 18.35 11.2966 18.05 11.2966 17.55V15.45C10.9966 15.25 10.7966 14.85 10.7966 14.45ZM9.09663 7.25C9.09663 5.55 10.3966 4.25 11.9966 4.25C13.5966 4.25 14.8966 5.55 14.8966 7.25V9.95H9.09663V7.25Z" fill="black"/>
</svg>
