<svg width="24" height="24" viewBox="0 0 24 24" fill="none" xmlns="http://www.w3.org/2000/svg">
<g clip-path="url(#clip0_702_1774)">
<path d="M19.267 1.488L16.7286 1.5936C13.3425 1.7906 10.3013 2.9531 10.0276 3.0857C8.71449 3.6665 8.78649 4.4255 8.78019 4.578L8.77949 4.605C9.03479 6.7409 10.864 10.2503 10.9543 10.3939L11.1952 10.532M11.1952 10.532C9.51789 14.3972 8.69309 17.5353 8.33499 18.0502C8.13919 18.345 4.93249 22.3853 4.77119 22.7558L4.75959 22.7767C4.72279 22.8268 4.42419 23.3092 4.44059 23.3966C4.48419 23.6262 10.099 21.1916 10.3661 21.052L10.4293 21.0185L10.4724 20.9812C10.5556 20.9318 10.8441 20.7463 10.9747 20.4885L11.1571 20.1292L10.9094 19.8109C10.8892 19.7847 10.8555 19.7454 10.8041 19.697L10.7461 18.912C10.7423 18.909 10.7053 18.879 10.6866 18.7933C10.6594 18.6688 10.6526 18.2966 11.1672 17.5489C12.243 16.0715 12.7777 15.1 13.3664 14.1474C13.6532 14.7213 13.825 15.1166 13.8754 15.3268C13.9032 15.4379 15.2206 18.9871 15.5273 19.9165C15.962 21.2327 17.4785 22.0189 17.4785 22.0189C17.3805 20.6984 18.4812 16.0662 18.4442 15.7605L18.4061 15.4402L18.1415 15.2918C18.0692 15.2386 17.9309 15.156 17.7847 15.1207L17.5856 15.0768L17.4223 15.1368C17.416 15.1378 16.6691 15.1383 16.6585 15.1383C16.5096 15.1383 14.9739 10.2475 14.9739 10.2475C15.0591 10.1434 15.1473 10.0703 15.2355 10.0318L15.2897 10.0053C16.502 9.334 18.5679 8.4056 19.0046 8.2176L19.3894 8.0523V1.8773L17.3493 3.0569C15.4096 4.7693 12.7225 4.263 11.1952 10.532Z" stroke="black" stroke-width="1.512" stroke-linecap="round" stroke-linejoin="round"/>
<path d="M14.9738 10.2474C14.9738 10.2474 14.2662 12.8771 12.889 14.8941" stroke="black" stroke-width="1.512" stroke-linecap="round" stroke-linejoin="round"/>
</g>
<defs>
<clipPath id="clip0_702_1774">
<rect width="24" height="24" fill="white"/>
</clipPath>
</defs>
</svg>
