<svg width="24" height="24" viewBox="0 0 24 24" fill="none" xmlns="http://www.w3.org/2000/svg">
<path d="M12.1237 3.0004C17.1632 3.0004 21.2497 7.0865 21.2497 12.1244C21.2497 17.1646 17.1639 21.2504 12.1237 21.2504C7.0851 21.2504 2.99969 17.1643 2.99969 12.1244C2.99969 7.0869 7.0858 3.0004 12.1237 3.0004ZM12.1237 4.5004C7.9143 4.5004 4.49969 7.9153 4.49969 12.1244C4.49969 16.3359 7.9136 19.7504 12.1237 19.7504C16.3355 19.7504 19.7497 16.3362 19.7497 12.1244C19.7497 7.915 16.3348 4.5004 12.1237 4.5004ZM14.8326 8.1329C15.5356 8.1329 16.0816 8.2999 16.4706 8.6339C16.8596 8.9679 17.0536 9.4399 17.0536 10.0489C17.0536 10.3829 16.9666 10.7229 16.7916 11.0699C16.6166 11.4169 16.3166 11.8199 15.8916 12.2809L14.3406 13.8989H17.2746V14.9799H12.5976V14.0619L14.8046 11.7329C15.1076 11.4049 15.3316 11.1199 15.4776 10.8749C15.6226 10.6299 15.6946 10.3989 15.6946 10.1789C15.6946 9.8789 15.6186 9.6429 15.4656 9.4709C15.3126 9.2999 15.0926 9.2139 14.8096 9.2139C14.5036 9.2139 14.2616 9.3189 14.0856 9.5269C13.9086 9.7359 13.8206 10.0099 13.8206 10.3509H12.4616C12.4616 9.9389 12.5606 9.5639 12.7586 9.2229C12.9576 8.8829 13.2376 8.6169 13.6006 8.4229C13.9626 8.2299 14.3736 8.1329 14.8326 8.1329ZM8.8676 9.9609L9.70159 11.4589L10.5546 9.9609H12.0026L10.5586 12.4189L12.0636 14.9799H10.6106L9.70659 13.4029L8.80659 14.9799H7.34859L8.85359 12.4189L7.41459 9.9609H8.8676Z" fill="black"/>
</svg>
