<svg width="24" height="24" viewBox="0 0 24 24" fill="none" xmlns="http://www.w3.org/2000/svg">
<path d="M12.1237 3C17.1632 3 21.2497 7.0861 21.2497 12.124C21.2497 17.1642 17.1639 21.25 12.1237 21.25C7.0851 21.25 2.99969 17.1639 2.99969 12.124C2.99969 7.0865 7.0858 3 12.1237 3ZM12.1237 4.5C7.9143 4.5 4.49969 7.9149 4.49969 12.124C4.49969 16.3355 7.9136 19.75 12.1237 19.75C16.3355 19.75 19.7497 16.3358 19.7497 12.124C19.7497 7.9146 16.3348 4.5 12.1237 4.5ZM15.8874 8.2165V14.9795H14.5334V9.8125L12.9164 10.3085V9.2185L15.7414 8.2165H15.8874ZM8.86739 9.9605L9.70139 11.4585L10.5544 9.9605H12.0024L10.5584 12.4185L12.0634 14.9795H10.6104L9.70639 13.4025L8.8064 14.9795H7.34839L8.85339 12.4185L7.41439 9.9605H8.86739Z" fill="black"/>
</svg>
