<svg width="24" height="24" viewBox="0 0 24 24" fill="none" xmlns="http://www.w3.org/2000/svg">
<path fill-rule="evenodd" clip-rule="evenodd" d="M8.05331 3.9979C8.80631 3.1119 10.2553 3.6449 10.2553 4.8079V9.5469C10.9953 9.9159 11.5053 10.6779 11.5053 11.5599V18.9449C11.5053 19.7739 10.8343 20.4449 10.0053 20.4449H6.25531C5.42731 20.4449 4.75531 19.7739 4.75531 18.9449V11.5599C4.75531 10.6779 5.26631 9.9159 6.00531 9.5469V7.1419C6.00531 6.6679 6.17431 6.2089 6.48231 5.8469L8.05331 3.9979ZM16.1747 10.4046C17.8967 10.4366 19.2447 11.9126 19.2447 13.6356V18.9436C19.2447 19.7686 18.5697 20.4436 17.7447 20.4436H14.4857C13.6607 20.4436 12.9857 19.7686 12.9857 18.9436V16.5846L12.9867 13.6866C12.9867 11.7836 14.4197 10.3726 16.1747 10.4046ZM9.25531 10.8099H7.00531C6.59231 10.8099 6.25531 11.1459 6.25531 11.5599V13.1949H10.0053V11.5599C10.0053 11.1459 9.66931 10.8099 9.25531 10.8099Z" fill="black"/>
</svg>
