<svg width="24" height="24" viewBox="0 0 24 24" fill="none" xmlns="http://www.w3.org/2000/svg">
<path d="M8.91309 5.9925C8.93129 5.9925 8.95509 5.9925 8.98489 5.995C8.99999 5.9961 9.01619 6.0012 9.03149 6.0032C11.1182 6.1712 13.0767 8.0114 13.5722 10.4052C13.7549 11.2889 13.7104 12.0492 13.4226 12.9477C13.0358 14.1549 12.3831 14.7671 12.3099 14.8332C12.1878 14.943 12.0349 14.9972 11.8822 14.9972C11.7074 14.9972 11.5331 14.9257 11.4068 14.7855C11.1719 14.5244 11.1917 14.1229 11.4505 13.8862L11.4793 13.857C11.5864 13.7444 11.9638 13.3099 12.2049 12.5577C12.4262 11.8656 12.4586 11.3349 12.3198 10.6643C12.0278 9.253 11.0617 8.0633 9.93369 7.5448C9.65699 7.4177 9.37089 7.3291 9.08229 7.2897V15.4462C9.01079 16.929 7.77649 18.1119 6.25909 18.1119C4.70019 18.1119 3.43619 16.8637 3.43619 15.3239C3.43619 13.7843 4.70019 12.5362 6.25909 12.5362C6.82949 12.5362 7.35969 12.7045 7.80349 12.9917V7.1262L7.80119 7.1044C7.80119 7.097 7.80319 7.0902 7.80349 7.0828C7.81509 6.4811 8.30329 5.9967 8.90689 5.9933C8.90889 5.9933 8.91309 5.9925 8.91309 5.9925ZM18.452 4.9797C19.2747 6.0684 20.6519 8.3359 20.6312 11.2913C20.6079 14.6253 19.2205 16.5875 18.475 17.6418C18.3495 17.8189 18.1494 17.9145 17.9468 17.9145C17.82 17.9145 17.692 17.877 17.581 17.7984C17.2927 17.5947 17.2214 17.1993 17.4255 16.911C18.1418 15.8979 19.332 14.215 19.3524 11.2825C19.3706 8.7045 18.1568 6.71 17.4317 5.7508C17.2189 5.469 17.2748 5.0683 17.5563 4.8551C17.8378 4.6423 18.2391 4.6976 18.452 4.9797ZM16.1243 7.4227C16.6699 8.2147 17.3136 9.456 17.3924 10.9784L17.4005 11.2865C17.3999 13.1488 16.6816 14.4015 16.1413 15.1822C16.017 15.3613 15.8175 15.4577 15.6148 15.4577C15.4894 15.4577 15.3626 15.4206 15.2513 15.3439C14.961 15.1427 14.8886 14.7446 15.0895 14.4542C15.57 13.7604 16.1214 12.7736 16.1217 11.2877C16.1214 9.8826 15.4633 8.7176 15.0711 8.1481C14.8707 7.8575 14.9442 7.4593 15.2348 7.2589C15.526 7.0586 15.9239 7.1318 16.1243 7.4227Z" fill="black"/>
</svg>
