<svg width="24" height="24" viewBox="0 0 24 24" fill="none" xmlns="http://www.w3.org/2000/svg">
<path d="M15.8631 13.7827L13.5771 11.4957M8.014 16.5C8.152 16.5 8.264 16.612 8.264 16.75V19.985C8.264 20.521 8.586 20.662 8.979 20.298L13.255 16.621C13.346 16.543 13.461 16.5 13.581 16.5H17.75C19.406 16.5 20.75 15.157 20.75 13.5V6.5C20.75 4.843 19.406 3.5 17.75 3.5H6.25C4.593 3.5 3.25 4.843 3.25 6.5V13.5C3.25 15.157 4.593 16.5 6.25 16.5H8.014ZM14.5103 9.2422C14.5103 11.0032 13.0833 12.4302 11.3223 12.4302C9.5633 12.4302 8.1363 11.0032 8.1363 9.2422C8.1363 7.4832 9.5633 6.0552 11.3223 6.0552C13.0833 6.0552 14.5103 7.4832 14.5103 9.2422Z" stroke="black" stroke-width="1.5" stroke-linecap="round" stroke-linejoin="round"/>
</svg>
