<svg width="24" height="24" viewBox="0 0 24 24" fill="none" xmlns="http://www.w3.org/2000/svg">
<path fill-rule="evenodd" clip-rule="evenodd" d="M21.2371 5.4795V14.1732C21.2371 15.6729 20.0211 16.89 18.5203 16.89H13.7518C13.6551 16.89 13.5627 16.9237 13.4888 16.9857L8.58444 21.1402C8.31934 21.3641 7.91394 21.1761 7.91394 20.8294V17.2976C7.91394 17.0715 7.73144 16.89 7.50644 16.89H5.47974C3.97894 16.89 2.76294 15.6729 2.76294 14.1732V5.4795C2.76294 3.9787 3.97894 2.7627 5.47974 2.7627H18.5203C20.0211 2.7627 21.2371 3.9787 21.2371 5.4795Z" stroke="black" stroke-width="1.5" stroke-linecap="round" stroke-linejoin="round"/>
<path d="M16.2257 7.4056L11.5115 12.1328C11.3224 12.3219 11.0171 12.3219 10.828 12.1328L7.77429 9.0694" stroke="black" stroke-width="1.5" stroke-linecap="round" stroke-linejoin="round"/>
</svg>
