<svg width="24" height="24" viewBox="0 0 24 24" fill="none" xmlns="http://www.w3.org/2000/svg">
<path fill-rule="evenodd" clip-rule="evenodd" d="M17.4667 3.8667H6.53328C4.99998 3.8667 3.73328 5.1333 3.73328 6.6667V7.6V12.7333V13.6333C3.73328 15.1667 4.99998 16.4333 6.53328 16.4333C6.53328 16.4333 7.26668 16.4333 7.46668 16.4333H7.49998C7.53328 16.4333 7.53328 16.4333 7.56668 16.4333H8.46668V19.3333V19.6333C8.46668 20.1333 8.76668 20.2667 9.13328 19.9333L13.2333 16.4H17.4667C19 16.4 20.2667 15.1333 20.2667 13.6V6.6667C20.2667 5.1333 19 3.8667 17.4667 3.8667ZM17.1333 12.7667H6.86668V11.3333H17.1333V12.7667ZM17.1333 8.8333H6.86668V7.4H17.1333V8.8333Z" fill="black"/>
</svg>
