<svg width="24" height="24" viewBox="0 0 24 24" fill="none" xmlns="http://www.w3.org/2000/svg">
<path fill-rule="evenodd" clip-rule="evenodd" d="M20.5 6.669V14.669C20.5 14.9973 20.4353 15.3224 20.3097 15.6257C20.1841 15.929 19.9999 16.2046 19.7678 16.4368C19.5356 16.6689 19.26 16.8531 18.9567 16.9787C18.6534 17.1043 18.3283 17.169 18 17.169H13.612C13.5235 17.1688 13.4378 17.2 13.37 17.257L8.857 21.08C8.80242 21.1261 8.7358 21.1557 8.66499 21.1652C8.59418 21.1747 8.52212 21.1638 8.45729 21.1338C8.39247 21.1037 8.33758 21.0558 8.29908 20.9956C8.26059 20.9354 8.24009 20.8654 8.24 20.794V17.544C8.24013 17.4947 8.23052 17.4459 8.21172 17.4003C8.19292 17.3548 8.16531 17.3134 8.13046 17.2785C8.09561 17.2437 8.05422 17.2161 8.00866 17.1973C7.96311 17.1785 7.91428 17.1689 7.865 17.169H6C5.33696 17.169 4.70107 16.9056 4.23223 16.4368C3.76339 15.9679 3.5 15.332 3.5 14.669V6.669C3.5 6.00596 3.76339 5.37007 4.23223 4.90123C4.70107 4.43239 5.33696 4.169 6 4.169H18C18.3283 4.169 18.6534 4.23366 18.9567 4.3593C19.26 4.48494 19.5356 4.66909 19.7678 4.90123C19.9999 5.13338 20.1841 5.40898 20.3097 5.71229C20.4353 6.0156 20.5 6.34069 20.5 6.669Z" stroke="black" stroke-width="1.5" stroke-linecap="round" stroke-linejoin="round"/>
</svg>
