<svg width="24" height="24" viewBox="0 0 24 24" fill="none" xmlns="http://www.w3.org/2000/svg">
<path d="M11.141 10.9892L12.063 13.7402C12.232 14.2352 12.529 14.2872 12.648 14.2872C12.915 14.2872 13.157 14.0712 13.313 13.6932L16.081 7.0972C16.201 6.8002 16.184 6.5022 16.034 6.2812C15.834 5.9842 15.433 5.8832 15.027 6.0472L8.436 8.8162C8.055 8.9722 7.832 9.2262 7.839 9.4932C7.844 9.6392 7.919 9.9072 8.387 10.0702L11.141 10.9892ZM11.141 10.9892L13.0099 9.1198M8.014 16.5C8.152 16.5 8.264 16.612 8.264 16.75V19.986C8.264 20.521 8.586 20.662 8.979 20.298L13.255 16.621C13.346 16.543 13.461 16.5 13.581 16.5H17.75C19.406 16.5 20.75 15.157 20.75 13.5V6.5C20.75 4.843 19.406 3.5 17.75 3.5H6.25C4.593 3.5 3.25 4.843 3.25 6.5V13.5C3.25 15.157 4.593 16.5 6.25 16.5H8.014Z" stroke="black" stroke-width="1.5" stroke-linecap="round" stroke-linejoin="round"/>
</svg>
