<svg width="24" height="24" viewBox="0 0 24 24" fill="none" xmlns="http://www.w3.org/2000/svg">
<path d="M7.3252 8.19V5.062C7.4232 3.774 8.5092 2.75 9.8222 2.75H18.7502C20.1252 2.75 21.2502 3.875 21.2502 5.25V11.175C21.2502 12.5 20.2072 13.594 18.9012 13.674H16.0462M12.5981 11.3721L9.1171 14.8641C8.9221 15.0601 8.6041 15.0601 8.4091 14.8641L6.1871 12.6351M13.785 8.1866H5C3.762 8.1866 2.75 9.1996 2.75 10.4366V16.0066C2.75 17.2416 3.76 18.2516 4.995 18.2516L6.277 18.2556C6.415 18.2566 6.527 18.3686 6.526 18.5066L6.522 20.8536C6.522 21.2656 6.769 21.3736 7.072 21.0946L10.236 18.3736C10.327 18.2946 10.443 18.2516 10.562 18.2516H13.785C15.022 18.2516 16.035 17.2396 16.035 16.0016V10.4366C16.035 9.1996 15.022 8.1866 13.785 8.1866Z" stroke="black" stroke-width="1.5" stroke-linecap="round" stroke-linejoin="round"/>
</svg>
