<svg width="24" height="24" viewBox="0 0 24 24" fill="none" xmlns="http://www.w3.org/2000/svg">
<path fill-rule="evenodd" clip-rule="evenodd" d="M15.2513 14.509C15.6843 14.509 16.0361 14.8596 16.0361 15.2913C16.0361 15.7236 15.6843 16.0737 15.2513 16.0737H8.74921C8.31571 16.0737 7.96441 15.7239 7.96441 15.2913C7.96441 14.8596 8.31571 14.509 8.74921 14.509H15.2513ZM15.5082 10.2802C16.1267 10.2802 16.6293 10.7814 16.6293 11.3973C16.6293 12.0141 16.1267 12.5151 15.5082 12.5151C14.8896 12.5151 14.3873 12.0138 14.3873 11.3973C14.3873 10.7814 14.8896 10.2802 15.5082 10.2802ZM8.49226 10.2802C9.11056 10.2802 9.61321 10.7814 9.61321 11.3973C9.61321 12.0141 9.11056 12.5151 8.49226 12.5151C7.87381 12.5151 7.37071 12.0141 7.37071 11.3973C7.37071 10.7814 7.87381 10.2802 8.49226 10.2802ZM12.8499 6.9699V5.6442C13.4214 5.3145 13.794 4.7448 13.794 4.03785C13.794 3.0504 12.9899 2.25 12.0002 2.25C11.0088 2.25 10.2065 3.0504 10.2065 4.03785C10.2065 4.74525 10.5905 5.32875 11.1797 5.6445V6.9699H6.73096C5.25121 6.9699 4.04041 8.1768 4.04041 9.65205V10.5462V15.4635V16.311C4.04041 17.7862 5.25091 18.9928 6.73096 18.9928H7.62781H7.66366C7.68121 18.9928 7.69756 18.9976 7.71466 18.9985H8.56636L8.57206 20.7572L8.56636 21.1332C8.56636 21.4692 8.96686 21.7152 9.52426 21.4062L13.1798 18.9928H17.2691C18.7488 18.9928 19.9596 17.7862 19.9596 16.311V9.65205C19.9596 8.1771 18.7488 6.9699 17.2691 6.9699H12.8499Z" fill="black"/>
</svg>
