<svg width="24" height="24" viewBox="0 0 24 24" fill="none" xmlns="http://www.w3.org/2000/svg">
<path d="M16.8706 8.3278L12.0903 13.1235C11.8425 13.3725 11.511 13.5101 11.1585 13.5101C10.806 13.5101 10.4756 13.3725 10.2267 13.1235L7.1294 10.0164C6.8067 9.6936 6.8078 9.1704 7.1305 8.8477C7.4543 8.5261 7.9775 8.5261 8.3002 8.8499L11.1585 11.7181L15.7009 7.1614C16.0225 6.8376 16.5457 6.8376 16.8695 7.1592C17.1922 7.4819 17.1933 8.0051 16.8706 8.3278ZM5.529 2.934C3.8625 2.934 2.5 4.2965 2.5 5.963V14.1655C2.5 15.9829 3.9881 17.4699 5.8043 17.4699L8.059 17.4776L8.0513 21.2996C8.0513 21.9054 8.4159 22.0651 8.8609 21.6543L13.7249 17.4699H18.1957C20.0141 17.4699 21.5 15.9829 21.5 14.1655V6.2384C21.5 4.4199 20.0141 2.934 18.1957 2.934H5.529Z" fill="black"/>
</svg>
