<svg width="24" height="24" viewBox="0 0 24 24" fill="none" xmlns="http://www.w3.org/2000/svg">
<path fill-rule="evenodd" clip-rule="evenodd" d="M10.1525 12.2794C10.9715 12.2794 11.6375 12.9454 11.6375 13.7644V18.8834C11.6375 19.2994 11.3025 19.6334 10.8875 19.6334C10.4735 19.6334 10.1375 19.2994 10.1375 18.8834V15.0714L4.74754 20.7654C4.59954 20.9214 4.40154 21.0004 4.20254 21.0004C4.01654 21.0004 3.83254 20.9314 3.68654 20.7944C3.38554 20.5094 3.37354 20.0354 3.65754 19.7344L9.30654 13.7674L4.96054 13.7794C4.54654 13.7794 4.21054 13.4434 4.21054 13.0294C4.21054 12.6154 4.54654 12.2794 4.96054 12.2794H10.1525ZM19.2537 3.2332C19.5387 2.9332 20.0127 2.9202 20.3137 3.2052C20.6147 3.4902 20.6267 3.9652 20.3417 4.2662L14.6857 10.2292L18.3027 10.2202C18.7167 10.2202 19.0527 10.5562 19.0527 10.9702C19.0527 11.3842 18.7167 11.7202 18.3027 11.7202H13.1107C12.2917 11.7202 11.6257 11.0532 11.6257 10.2342V5.1142C11.6257 4.7002 11.9607 4.3642 12.3757 4.3642C12.7897 4.3642 13.1257 4.7002 13.1257 5.1142V9.7362C13.1557 9.6802 13.1917 9.6252 13.2377 9.5762L19.2537 3.2332Z" fill="black"/>
</svg>
