<svg width="24" height="24" viewBox="0 0 24 24" fill="none" xmlns="http://www.w3.org/2000/svg">
<path d="M20.9929 14.739V6.22C20.9929 5.49066 20.7032 4.79118 20.1875 4.27546C19.6718 3.75973 18.9723 3.47 18.2429 3.47H7.16895" stroke="black" stroke-width="1.5" stroke-linecap="round" stroke-linejoin="round"/>
<path fill-rule="evenodd" clip-rule="evenodd" d="M17.725 8.954V15.88C17.7247 16.4538 17.4966 17.0041 17.0908 17.4099C16.6851 17.8157 16.1348 18.0437 15.561 18.044H11.761C11.6845 18.044 11.6105 18.0709 11.552 18.12L7.64496 21.43C7.59763 21.4697 7.53995 21.4952 7.47869 21.5033C7.41743 21.5114 7.35511 21.5019 7.29906 21.4759C7.24301 21.4498 7.19555 21.4084 7.16223 21.3563C7.12891 21.3043 7.11113 21.2438 7.11096 21.182V18.37C7.11109 18.3273 7.10277 18.285 7.08649 18.2455C7.0702 18.206 7.04627 18.1701 7.01606 18.1399C6.98586 18.1097 6.94998 18.0858 6.91049 18.0695C6.871 18.0532 6.82867 18.0449 6.78596 18.045H5.17196C4.59794 18.045 4.04741 17.817 3.64143 17.4112C3.23544 17.0054 3.00722 16.455 3.00696 15.881V8.954C3.00696 7.758 3.97696 6.79 5.17196 6.79H15.56C16.755 6.79 17.725 7.758 17.725 8.954Z" stroke="black" stroke-width="1.5" stroke-linecap="round" stroke-linejoin="round"/>
</svg>
