<svg width="24" height="24" viewBox="0 0 24 24" fill="none" xmlns="http://www.w3.org/2000/svg">
<path fill-rule="evenodd" clip-rule="evenodd" d="M18.3869 3.6248C18.938 3.6248 19.3869 4.0798 19.3869 4.6418V19.3578C19.3869 19.9188 18.938 20.3748 18.3869 20.3748C17.833 20.3748 17.3869 19.9188 17.3869 19.3578V4.6418C17.3869 4.0798 17.833 3.6248 18.3869 3.6248ZM14.1287 7.6932C14.6806 7.6932 15.1287 8.1482 15.1287 8.7092V19.3582C15.1287 19.9192 14.6806 20.3752 14.1287 20.3752C13.5756 20.3752 13.1287 19.9192 13.1287 19.3582V8.7092C13.1287 8.1482 13.5756 7.6932 14.1287 7.6932ZM9.8708 12.2699C10.4228 12.2699 10.8708 12.7259 10.8708 13.2859V19.3579C10.8708 19.9189 10.4228 20.3749 9.8708 20.3749C9.3188 20.3749 8.8708 19.9189 8.8708 19.3579V13.2859C8.8708 12.7259 9.3188 12.2699 9.8708 12.2699ZM5.6131 16.0965C6.166 16.0965 6.6131 16.5515 6.6131 17.1135V19.3575C6.6131 19.9195 6.166 20.3745 5.6131 20.3745C5.0611 20.3745 4.6131 19.9195 4.6131 19.3575V17.1135C4.6131 16.5515 5.0611 16.0965 5.6131 16.0965Z" fill="black"/>
</svg>
