<svg width="24" height="24" viewBox="0 0 24 24" fill="none" xmlns="http://www.w3.org/2000/svg">
<path fill-rule="evenodd" clip-rule="evenodd" d="M9.22171 15.828C9.56371 15.486 9.56371 14.932 9.22171 14.591C8.88071 14.249 8.32571 14.249 7.98471 14.591C7.64271 14.932 7.64271 15.486 7.98471 15.828C8.32571 16.17 8.88071 16.17 9.22171 15.828Z" fill="black"/>
<path d="M12.1689 15.2716C12.1689 13.2676 10.5439 11.6436 8.5409 11.6436M15.5103 15.2716C15.5103 11.4226 12.3903 8.3026 8.5413 8.3026M16.5 20.25H7.5C6.12 20.25 5 19.131 5 17.75V6.25C5 4.869 6.12 3.75 7.5 3.75H16.5C17.881 3.75 19 4.869 19 6.25V17.75C19 19.131 17.881 20.25 16.5 20.25Z" stroke="black" stroke-width="1.5" stroke-linecap="round" stroke-linejoin="round"/>
</svg>
