<svg width="24" height="24" viewBox="0 0 24 24" fill="none" xmlns="http://www.w3.org/2000/svg">
<path fill-rule="evenodd" clip-rule="evenodd" d="M11.9133 18.4189L12.023 18.4258C12.4543 18.4798 12.7883 18.848 12.7883 19.2929V20.125C12.7883 20.608 12.3963 21 11.9133 21L11.8113 20.9939C11.3763 20.9429 11.0383 20.5739 11.0383 20.125V19.2939C11.0383 18.8109 11.4303 18.4189 11.9133 18.4189ZM15.134 17.6026C15.551 17.3615 16.087 17.5035 16.329 17.9216L16.745 18.6416C16.987 19.0606 16.844 19.5956 16.426 19.8375C16.288 19.9165 16.137 19.9555 15.988 19.9555C15.686 19.9555 15.392 19.7976 15.23 19.5186L14.814 18.7976C14.572 18.3796 14.716 17.8445 15.134 17.6026ZM7.52002 17.836C7.76102 17.417 8.29702 17.2729 8.71502 17.5149C9.13402 17.757 9.27802 18.292 9.03602 18.7099L8.62002 19.431C8.45802 19.711 8.16402 19.868 7.86202 19.868C7.71302 19.868 7.56302 19.83 7.42502 19.7509C7.00702 19.51 6.86302 18.975 7.10502 18.556L7.52002 17.836ZM17.5152 15.2854C17.7572 14.8665 18.2922 14.7234 18.7102 14.9645L19.4312 15.3794C19.8492 15.6215 19.9932 16.1565 19.7522 16.5755C19.5892 16.8564 19.2952 17.0124 18.9932 17.0124C18.8442 17.0124 18.6942 16.9755 18.5562 16.8955L17.8362 16.4804C17.4172 16.2395 17.2742 15.7044 17.5152 15.2854ZM12.0007 7C14.7617 7 17.0007 9.2389 17.0007 12C17.0007 14.7619 14.7617 17 12.0007 17C9.23972 17 7.00072 14.7619 7.00072 12C7.00072 9.2389 9.23972 7 12.0007 7ZM5.20312 14.8132C5.62112 14.5723 6.15612 14.7153 6.39812 15.1333C6.64012 15.5513 6.49612 16.0882 6.07812 16.3293L5.35812 16.7453C5.22012 16.8242 5.06912 16.8622 4.92112 16.8622C4.61912 16.8622 4.32512 16.7052 4.16312 16.4252C3.92112 16.0063 4.06512 15.4702 4.48312 15.2292L5.20312 14.8132ZM20.1252 11.2118C20.6082 11.2118 21.0002 11.6039 21.0002 12.0868C21.0002 12.5699 20.6082 12.9618 20.1252 12.9618L19.2942 12.9628L19.1922 12.9569C18.7562 12.9058 18.4192 12.5359 18.4192 12.0878C18.4192 11.6049 18.8102 11.2128 19.2942 11.2128L20.1252 11.2118ZM4.70682 11.038C5.18982 11.038 5.58182 11.43 5.58182 11.913C5.58182 12.396 5.18982 12.788 4.70682 12.788H3.87482C3.39282 12.788 2.99982 12.396 2.99982 11.913C2.99982 11.43 3.39282 11.038 3.87482 11.038H4.70682ZM18.6423 7.2558C19.0603 7.0139 19.5963 7.1568 19.8373 7.5749C20.0793 7.9928 19.9363 8.5279 19.5183 8.7709L18.7983 9.1868C18.6603 9.2669 18.5103 9.3048 18.3613 9.3048C18.0593 9.3048 17.7653 9.1479 17.6033 8.8668C17.3613 8.4488 17.5043 7.9128 17.9223 7.6719L18.6423 7.2558ZM4.24982 7.4246C4.49082 7.0065 5.02682 6.8636 5.44482 7.1045L6.16482 7.5196C6.58382 7.7615 6.72682 8.2965 6.48582 8.7146C6.32382 8.9965 6.02982 9.1536 5.72682 9.1536C5.57882 9.1536 5.42782 9.1156 5.28982 9.0356L4.56982 8.6206C4.15182 8.3785 4.00782 7.8435 4.24982 7.4246ZM15.3809 4.5695C15.6229 4.1516 16.1579 4.0086 16.5759 4.2495C16.9949 4.4916 17.1389 5.0275 16.8959 5.4455L16.4799 6.1656C16.3179 6.4455 16.0239 6.6026 15.7219 6.6026C15.5729 6.6026 15.4229 6.5646 15.2849 6.4846C14.8669 6.2435 14.7229 5.7076 14.9649 5.2895L15.3809 4.5695ZM7.57592 4.1616C7.99392 3.9207 8.52992 4.0646 8.77092 4.4826L9.18692 5.2027C9.42892 5.6206 9.28492 6.1567 8.86692 6.3976C8.72892 6.4776 8.57792 6.5147 8.42992 6.5147C8.12792 6.5147 7.83292 6.3587 7.67092 6.0777L7.25592 5.3576C7.01392 4.9396 7.15792 4.4046 7.57592 4.1616ZM12.0876 3C12.5706 3 12.9626 3.392 12.9626 3.875V4.706C12.9626 5.1891 12.5706 5.581 12.0876 5.581C11.6046 5.581 11.2126 5.1891 11.2126 4.706V3.875C11.2126 3.392 11.6046 3 12.0876 3Z" fill="black"/>
</svg>
