<svg width="24" height="24" viewBox="0 0 24 24" fill="none" xmlns="http://www.w3.org/2000/svg">
<path d="M11.4443 12.677H13.9733C13.9584 12.6772 13.9584 12.6772 14.0351 12.6796C14.9173 12.7034 15.9905 12.6265 17.0419 12.3585C18.0105 12.1116 18.825 11.727 19.4311 11.1631C20.7364 9.9479 20.6275 8.3211 19.4334 7.201C18.6203 6.4382 17.2881 5.94 16.6033 5.94C16.1891 5.94 15.8533 6.2758 15.8533 6.69C15.8533 7.1042 16.1891 7.44 16.6033 7.44C16.9165 7.44 17.8798 7.8003 18.4072 8.295C18.9998 8.8509 19.0417 9.4762 18.4092 10.0651C18.0133 10.4334 17.4172 10.7149 16.6715 10.905C16.166 11.0338 15.6183 11.1144 15.0598 11.1544C14.6762 11.1818 14.3382 11.1872 14.0755 11.1801L14.0108 11.1779L11.4443 11.177C11.0301 11.177 10.6943 11.5128 10.6943 11.927C10.6943 12.3412 11.0301 12.677 11.4443 12.677Z" fill="black"/>
<path d="M13.4805 13.6813L11.7285 11.9293L13.4767 10.1717C13.769 9.8782 13.7679 9.4033 13.4743 9.1111C13.1808 8.8188 12.7059 8.8199 12.4137 9.1135L10.6647 10.8705C10.0817 11.4575 10.0829 12.405 10.6679 12.9899L12.4199 14.7419C12.7128 15.0348 13.1876 15.0348 13.4805 14.7419C13.7734 14.449 13.7734 13.9742 13.4805 13.6813Z" fill="black"/>
<path d="M17.2598 11.5002V5.6502C17.2598 3.91 15.85 2.5002 14.1098 2.5002L7.07362 3.2242C5.40982 3.2202 3.99982 4.6298 3.99982 6.3702V18.1302C3.99982 19.8699 5.41012 21.2802 7.15082 21.2802L14.0326 21.9962C15.8497 22.0002 17.2598 20.5897 17.2598 18.8502V15.1742C17.2598 14.76 16.924 14.4242 16.5098 14.4242C16.0956 14.4242 15.7598 14.76 15.7598 15.1742V18.8502C15.7598 19.7614 15.0212 20.5002 14.1098 20.5002L7.22802 19.7842C6.23852 19.7802 5.49982 19.0415 5.49982 18.1302V6.3702C5.49982 5.4583 6.23812 4.7202 7.15082 4.7202L14.187 3.9962C15.0216 4.0002 15.7598 4.7384 15.7598 5.6502V11.5002C15.7598 11.9144 16.0956 12.2502 16.5098 12.2502C16.924 12.2502 17.2598 11.9144 17.2598 11.5002Z" fill="black"/>
<path d="M8.59022 18.5314L11.8392 18.7714C12.2523 18.8019 12.6119 18.4917 12.6425 18.0787C12.673 17.6656 12.3628 17.306 11.9498 17.2754L8.70082 17.0354C8.28772 17.0049 7.92812 17.3151 7.89752 17.7281C7.86702 18.1412 8.17722 18.5008 8.59022 18.5314Z" fill="black"/>
</svg>
