<svg width="24" height="24" viewBox="0 0 24 24" fill="none" xmlns="http://www.w3.org/2000/svg">
<path fill-rule="evenodd" clip-rule="evenodd" d="M13.0155 4.115H12.2655C11.5765 4.115 11.0155 4.677 11.0155 5.365V13.155C10.3775 12.674 9.5835 12.385 8.7215 12.385C6.6285 12.385 4.9265 14.067 4.9265 16.135C4.9265 18.202 6.6285 19.885 8.7215 19.885C10.6945 19.885 12.3185 18.388 12.4975 16.484C12.5085 16.433 12.5155 16.38 12.5155 16.325V16.135V5.615H13.0155C16.1245 5.615 17.5735 8.548 17.5735 10.53V11.897C17.5735 12.311 17.9095 12.647 18.3235 12.647C18.7375 12.647 19.0735 12.311 19.0735 11.897V10.53C19.0735 7.943 17.1485 4.115 13.0155 4.115Z" fill="black"/>
</svg>
