<svg width="24" height="24" viewBox="0 0 24 24" fill="none" xmlns="http://www.w3.org/2000/svg">
<path d="M20.4998 19.5C20.4998 20.329 19.8278 21 18.9998 21C18.1718 21 17.4998 20.329 17.4998 19.5C17.4998 18.671 18.1718 18 18.9998 18C19.8278 18 20.4998 18.671 20.4998 19.5ZM20.4998 13.5854C20.4998 14.4134 19.8278 15.0854 18.9998 15.0854C18.1718 15.0854 17.4998 14.4134 17.4998 13.5854C17.4998 12.7564 18.1718 12.0854 18.9998 12.0854C19.8278 12.0854 20.4998 12.7564 20.4998 13.5854ZM15.6039 16.543C15.6039 17.372 14.9319 18.043 14.1039 18.043C13.2759 18.043 12.6039 17.372 12.6039 16.543C12.6039 15.714 13.2759 15.043 14.1039 15.043C14.9319 15.043 15.6039 15.714 15.6039 16.543Z" fill="black"/>
<path d="M16.6464 9.665C16.6464 7.352 14.9594 4 11.3394 4H10.5894C10.3134 4 10.0894 4.224 10.0894 4.5V15.459M15.3806 15.7568L17.7226 14.3718M17.7232 18.7139L15.3802 17.3289M10.089 15.2695C10.089 16.9265 8.725 18.2695 7.045 18.2695C5.362 18.2695 4 16.9265 4 15.2695C4 13.6115 5.362 12.2695 7.045 12.2695C8.725 12.2695 10.089 13.6115 10.089 15.2695Z" stroke="black" stroke-width="1.5" stroke-linecap="round" stroke-linejoin="round"/>
</svg>
