<svg width="24" height="24" viewBox="0 0 24 24" fill="none" xmlns="http://www.w3.org/2000/svg">
<path d="M14.5466 5.81C13.7206 5.1 12.6356 4.63 11.2796 4.63H10.5296C10.2536 4.63 10.0296 4.854 10.0296 5.13V16.09M15.2253 10.228C15.3383 10.32 16.6153 11.403 16.6163 13.362C16.6163 15.322 15.3383 16.405 15.2253 16.497M17.366 7.3608C17.642 7.5928 20.063 9.6978 20.063 13.3618C20.063 17.0258 17.642 19.1318 17.366 19.3628M10.03 15.8999C10.03 17.5559 8.666 18.8999 6.985 18.8999C5.302 18.8999 3.94 17.5559 3.94 15.8999C3.94 14.2419 5.302 12.8999 6.985 12.8999C8.666 12.8999 10.03 14.2419 10.03 15.8999Z" stroke="black" stroke-width="1.5" stroke-linecap="round" stroke-linejoin="round"/>
</svg>
