<svg width="24" height="24" viewBox="0 0 24 24" fill="none" xmlns="http://www.w3.org/2000/svg">
<path fill-rule="evenodd" clip-rule="evenodd" d="M12.2852 1.1915L15.4462 4.0155L12.2852 6.9415V5.0055C12.2622 5.0065 12.2402 5.0125 12.2172 5.0125C8.41319 5.0125 5.32019 8.1065 5.32019 11.9105C5.32019 15.7135 8.41319 18.8085 12.2172 18.8085C15.1532 18.8085 17.7732 16.9465 18.7352 14.1745C18.9162 13.6535 19.4862 13.3765 20.0082 13.5585C20.5292 13.7395 20.8052 14.3095 20.6242 14.8305C19.3822 18.4065 16.0032 20.8085 12.2172 20.8085C7.31119 20.8085 3.32019 16.8165 3.32019 11.9105C3.32019 7.0035 7.31119 3.0125 12.2172 3.0125C12.2402 3.0125 12.2622 3.0175 12.2852 3.0195V1.1915ZM18.2043 7.0861C18.5933 6.6941 19.2273 6.6921 19.6183 7.0811C20.0103 7.4701 20.0133 8.1031 19.6233 8.4951L12.4323 15.7381L7.94529 11.4051C7.54829 11.0211 7.53729 10.3881 7.92129 9.9911C8.30429 9.5941 8.93829 9.5831 9.33429 9.9671L12.4023 12.9291L18.2043 7.0861Z" fill="black"/>
</svg>
