<svg width="24" height="24" viewBox="0 0 24 24" fill="none" xmlns="http://www.w3.org/2000/svg">
<path fill-rule="evenodd" clip-rule="evenodd" d="M12.2852 2.1915L15.4462 5.0155L12.2852 7.9415V6.0055C12.2622 6.0065 12.2402 6.0125 12.2172 6.0125C8.41321 6.0125 5.32021 9.1065 5.32021 12.9105C5.32021 16.7135 8.41321 19.8085 12.2172 19.8085C15.1532 19.8085 17.7732 17.9465 18.7352 15.1745C18.9162 14.6535 19.4862 14.3765 20.0082 14.5585C20.5292 14.7395 20.8052 15.3095 20.6242 15.8305C19.3822 19.4065 16.0032 21.8085 12.2172 21.8085C7.31121 21.8085 3.32021 17.8165 3.32021 12.9105C3.32021 8.0035 7.31121 4.0125 12.2172 4.0125C12.2402 4.0125 12.2622 4.0175 12.2852 4.0195V2.1915ZM18.2043 8.0861C18.5933 7.6941 19.2273 7.6921 19.6183 8.0811C20.0103 8.4701 20.0133 9.1031 19.6233 9.4951L12.4323 16.7381L7.94531 12.4051C7.54831 12.0211 7.53731 11.3881 7.92131 10.9911C8.30431 10.5941 8.93831 10.5831 9.33431 10.9671L12.4023 13.9291L18.2043 8.0861Z" fill="black"/>
</svg>
