<svg width="24" height="24" viewBox="0 0 24 24" fill="none" xmlns="http://www.w3.org/2000/svg">
<path fill-rule="evenodd" clip-rule="evenodd" d="M6.64439 19.8979C6.51039 20.4049 6.81039 20.9249 7.31639 21.0599C7.39939 21.0809 7.48039 21.0919 7.56339 21.0919C7.98039 21.0919 8.36439 20.8119 8.47839 20.3869C8.72039 19.4789 9.04139 18.6119 9.41439 17.7909C19.3804 18.8999 18.7974 10.4769 18.7974 10.4769V4.9099C18.7974 3.6599 17.6594 2.7179 16.4294 2.9409C2.23739 5.5109 5.19939 14.4799 6.01239 16.4029C7.61339 12.5439 10.1864 9.8679 11.3574 8.7879C11.7414 8.4319 12.3414 8.4569 12.6964 8.8409C12.9764 9.1459 13.0184 9.5819 12.8344 9.9259C10.5044 12.0659 7.79039 15.5999 6.64439 19.8979Z" fill="black"/>
</svg>
