<svg width="24" height="24" viewBox="0 0 24 24" fill="none" xmlns="http://www.w3.org/2000/svg">
<path d="M16.0016 11.2664C16.4076 11.0604 16.8896 11.0994 17.2576 11.3684L19.1806 12.7804C19.4616 12.9774 19.6416 13.2974 19.6626 13.6504C19.6836 13.9944 19.5446 14.3364 19.2926 14.5634C19.2776 14.5774 19.2606 14.5904 19.2426 14.6044L17.3846 16.0084L19.1736 17.3614C19.6046 17.6544 19.6956 18.0224 19.7106 18.2184C19.7376 18.5534 19.5976 18.8774 19.3186 19.1314C19.2986 19.1494 19.2786 19.1654 19.2576 19.1804L17.2576 20.6484C17.0456 20.8034 16.7976 20.8824 16.5466 20.8824C16.3616 20.8824 16.1746 20.8384 16.0016 20.7514C15.5956 20.5454 15.3426 20.1344 15.3426 19.6784V17.5514L13.5616 18.8974C13.2316 19.1474 12.7606 19.0804 12.5106 18.7504C12.2616 18.4204 12.3266 17.9494 12.6566 17.6994L14.8966 16.0084L12.6566 14.3174C12.3266 14.0674 12.2616 13.5974 12.5106 13.2664C12.7606 12.9364 13.2316 12.8704 13.5616 13.1194L15.3426 14.4664V12.3394C15.3426 11.8834 15.5956 11.4724 16.0016 11.2664ZM13.5363 3.1176C14.9163 3.1176 16.0363 4.2366 16.0363 5.6176V9.6886C15.7903 9.7356 15.5483 9.8136 15.3243 9.9276C14.6293 10.2796 14.1343 10.8986 13.9373 11.6256C13.6763 11.5216 13.3973 11.4686 13.1103 11.4686C12.4083 11.4686 11.7373 11.8026 11.3143 12.3616C11.0643 12.6916 10.9163 13.0766 10.8743 13.4776H10.8733V13.4846C10.8583 13.6366 10.8573 13.7896 10.8733 13.9446V16.2576H8.59426C8.18026 16.2576 7.84426 16.5936 7.84426 17.0076C7.84426 17.4216 8.18026 17.7576 8.59426 17.7576H10.8733V20.3686H6.78626C5.40626 20.3686 4.28625 19.2486 4.28625 17.8686V5.6176C4.28625 4.2366 5.40626 3.1176 6.78626 3.1176H13.5363ZM16.8426 17.4794V19.0924L17.9256 18.2974L16.8426 17.4794ZM16.8426 12.9254V14.5374L17.9256 13.7194L16.8426 12.9254Z" fill="black"/>
</svg>
