<svg width="24" height="24" viewBox="0 0 24 24" fill="none" xmlns="http://www.w3.org/2000/svg">
<path d="M7.73608 15.2373C8.42608 15.2373 8.98608 15.7973 8.98608 16.4873C8.98608 17.1773 8.42608 17.7373 7.73608 17.7373C7.04608 17.7373 6.48608 17.1773 6.48608 16.4873C6.48608 15.7973 7.04608 15.2373 7.73608 15.2373ZM7.73608 6.336C8.42608 6.336 8.98608 6.896 8.98608 7.586C8.98608 8.276 8.42608 8.836 7.73608 8.836C7.04608 8.836 6.48608 8.276 6.48608 7.586C6.48608 6.896 7.04608 6.336 7.73608 6.336Z" fill="black"/>
<path fill-rule="evenodd" clip-rule="evenodd" d="M17.5 13.0528C18.881 13.0528 20 14.1718 20 15.5528V17.2808C20 18.6618 18.881 19.7808 17.5 19.7808H6.5C5.119 19.7808 4 18.6618 4 17.2808V15.5528C4 14.1718 5.119 13.0528 6.5 13.0528H17.5ZM17.5 4.22C18.881 4.22 20 5.339 20 6.72V8.448C20 9.829 18.881 10.948 17.5 10.948H6.5C5.119 10.948 4 9.829 4 8.448V6.72C4 5.339 5.119 4.22 6.5 4.22H17.5Z" stroke="black" stroke-width="1.5" stroke-linecap="round" stroke-linejoin="round"/>
</svg>
