<svg width="24" height="24" viewBox="0 0 24 24" fill="none" xmlns="http://www.w3.org/2000/svg">
<path d="M18.7234 17.5362C18.1104 17.8922 17.3314 17.6892 16.9834 17.0812C16.6354 16.4732 16.8504 15.6912 17.4624 15.3352C18.0764 14.9782 18.8554 15.1822 19.2024 15.7902C19.5504 16.3972 19.3364 17.1792 18.7234 17.5362ZM21.0244 17.0412C20.9374 16.9682 20.8744 16.8182 20.8844 16.7072L20.8774 16.1792C20.8674 16.0682 20.9304 15.9182 21.0174 15.8452L21.5194 15.2762C21.6064 15.2032 21.6314 15.0662 21.5764 14.9692L21.1574 14.2432C21.1014 14.1472 20.9184 14.0122 20.8114 14.0512L20.0674 14.2002C19.9614 14.2402 19.7994 14.2202 19.7084 14.1552L19.2694 13.9102C19.1684 13.8632 19.0704 13.7332 19.0514 13.6212L18.8084 12.9012C18.7894 12.7902 18.6824 12.6992 18.5704 12.6992H17.6314C17.5194 12.6992 17.4134 12.7902 17.3944 12.9012L17.1514 13.6212C17.1324 13.7322 17.0344 13.8622 16.9324 13.9092L16.4864 14.1682C16.3954 14.2322 16.2344 14.2522 16.1284 14.2132L15.3834 14.0632C15.2774 14.0242 15.1444 14.0712 15.0884 14.1682L14.6194 14.9812C14.5634 15.0782 14.5884 15.2162 14.6754 15.2882L15.1774 15.8582C15.2644 15.9302 15.3274 16.0802 15.3174 16.1922L15.3104 16.6942C15.3204 16.8052 15.2574 16.9552 15.1704 17.0272L14.6684 17.5972C14.5814 17.6692 14.5554 17.8082 14.6114 17.9052L15.0814 18.7182C15.1374 18.8152 15.2684 18.8622 15.3744 18.8232L16.1194 18.6722C16.2254 18.6332 16.3874 18.6532 16.4794 18.7182L16.9314 18.9882C17.0334 19.0352 17.1314 19.1652 17.1514 19.2762L17.3934 19.9962C17.4124 20.1072 17.5194 20.1982 17.6304 20.1982L18.4684 20.1992C18.5794 20.1992 18.7884 20.1072 18.8084 19.9952L19.0504 19.2762C19.0694 19.1642 19.1684 19.0342 19.2694 18.9882L19.7154 18.7312C19.8074 18.6672 19.9684 18.6472 20.0744 18.6862L20.8194 18.8362C20.9254 18.8752 21.0574 18.8282 21.1134 18.7312L21.5324 18.0062C21.5884 17.9102 21.6134 17.6832 21.5264 17.6102L21.0244 17.0412ZM8.95611 7.8706C9.15911 6.9586 8.36411 6.1636 7.45211 6.3656C6.99311 6.4676 6.62111 6.8386 6.52011 7.2986C6.31711 8.2096 7.11211 9.0046 8.02411 8.8026C8.48311 8.6996 8.85411 8.3306 8.95611 7.8706ZM8.95611 16.772C9.15811 15.861 8.36311 15.065 7.45211 15.267C6.99311 15.369 6.62111 15.74 6.51911 16.2C6.31711 17.111 7.11211 17.906 8.02311 17.704C8.48311 17.602 8.85411 17.232 8.95611 16.772Z" fill="black"/>
<path d="M12.9802 19.7806H6.5002C5.1192 19.7806 4.0002 18.6616 4.0002 17.2806V15.5526C4.0002 14.1716 5.1192 13.0526 6.5002 13.0526H13.0182M17.5 4.22C18.88 4.22 20 5.339 20 6.72V8.448C20 9.829 18.88 10.948 17.5 10.948H6.5C5.119 10.948 4 9.829 4 8.448V6.72C4 5.339 5.119 4.22 6.5 4.22H17.5Z" stroke="black" stroke-width="1.5" stroke-linecap="round" stroke-linejoin="round"/>
</svg>
