<svg width="24" height="24" viewBox="0 0 24 24" fill="none" xmlns="http://www.w3.org/2000/svg">
<path fill-rule="evenodd" clip-rule="evenodd" d="M17.5 13.0523C18.881 13.0523 20 14.1713 20 15.5523V17.2803C20 18.6613 18.881 19.7803 17.5 19.7803H6.49988C5.11888 19.7803 3.99988 18.6613 3.99988 17.2803V15.5523C3.99988 14.1713 5.11888 13.0523 6.49988 13.0523H17.5ZM7.73788 15.1773C7.01598 15.1773 6.42998 15.7633 6.42998 16.4853C6.42998 17.2083 7.01598 17.7933 7.73788 17.7933C8.45998 17.7933 9.04588 17.2083 9.04588 16.4853C9.04588 15.7633 8.45998 15.1773 7.73788 15.1773ZM17.5 4.2197C18.8801 4.2197 20 5.3387 20 6.7197V8.4477C20 9.8287 18.8801 10.9477 17.5 10.9477H6.50008C5.11908 10.9477 4.00008 9.8287 4.00008 8.4477V6.7197C4.00008 5.3387 5.11908 4.2197 6.50008 4.2197H17.5ZM9.01308 7.8837C9.22498 6.9297 8.39308 6.0977 7.43908 6.3087C6.95798 6.4157 6.56898 6.8037 6.46298 7.2847C6.25098 8.2387 7.08298 9.0707 8.03708 8.8587C8.51808 8.7517 8.90598 8.3647 9.01308 7.8837Z" fill="black"/>
</svg>
