<svg width="24" height="24" viewBox="0 0 24 24" fill="none" xmlns="http://www.w3.org/2000/svg">
<path d="M8.50684 14.0936H5.88184C5.67484 14.0936 5.50684 13.9256 5.50684 13.7186V10.9686C5.50684 10.7616 5.67484 10.5936 5.88184 10.5936H8.63184C8.83884 10.5936 9.00684 10.7616 9.00684 10.9686V13.5936C9.00684 13.8696 8.78284 14.0936 8.50684 14.0936Z" fill="black"/>
<path d="M20.746 15.994V16.176M20.746 16.176C20.746 17.556 19.627 18.676 18.246 18.676H14.891H5.75C4.369 18.676 3.25 17.556 3.25 16.176V7.82C3.25 6.438 4.369 5.32 5.75 5.32H14.891C16.271 5.32 17.391 6.438 17.391 7.82V16.176C17.391 16.244 17.3936 16.3116 17.3986 16.3786C17.5586 18.3606 20.5786 18.3606 20.7376 16.3786C20.7436 16.3116 20.746 16.244 20.746 16.176ZM20.746 16.176L20.7456 8.9266C20.7456 8.7196 20.5786 8.5516 20.3706 8.5516H17.3906M6.249 8.3075H14.407M11.3095 11.3427H14.4065" stroke="black" stroke-width="1.5" stroke-linecap="round" stroke-linejoin="round"/>
</svg>
