<svg width="24" height="24" viewBox="0 0 24 24" fill="none" xmlns="http://www.w3.org/2000/svg">
<path d="M9.2122 8.9043L13.9922 13.2873V11.0343L7.6192 5.0563V16.1873C7.6192 17.5233 7.9652 18.5023 8.6482 19.5683H10.5972C9.5292 18.1613 9.2122 17.3693 9.2122 16.1873V8.9043ZM14.7882 15.0957L10.0082 10.7117V12.9657L16.3812 18.9437V7.8127C16.3812 6.4767 16.0352 5.4977 15.3532 4.4317H13.4032C14.4712 5.8387 14.7882 6.6307 14.7882 7.8127V15.0957Z" fill="black"/>
<path fill-rule="evenodd" clip-rule="evenodd" d="M17.5 20H6.5C5.119 20 4 18.881 4 17.5V6.5C4 5.119 5.119 4 6.5 4H17.5C18.881 4 20 5.119 20 6.5V17.5C20 18.881 18.881 20 17.5 20Z" stroke="black" stroke-width="1.5" stroke-linecap="round" stroke-linejoin="round"/>
</svg>
