<svg width="24" height="24" viewBox="0 0 24 24" fill="none" xmlns="http://www.w3.org/2000/svg">
<path d="M19.2925 2.76H16.0905C16.9225 4.065 17.3455 5.258 17.3455 6.889V20.481L9.56847 13.18V10.43L15.4045 15.784V6.891C15.4045 5.448 15.0135 4.481 13.7145 2.762H4.70647C3.63747 2.762 2.76147 3.637 2.76147 4.705V19.295C2.76147 20.365 3.63647 21.24 4.70647 21.24H7.90847C7.07547 19.939 6.65247 18.742 6.65247 17.111V3.523L14.4305 10.82V13.57L8.59447 8.216V17.111C8.59447 18.552 8.98447 19.521 10.2855 21.24H19.2935C20.3635 21.24 21.2385 20.365 21.2385 19.295V4.705C21.2395 3.635 20.3645 2.76 19.2925 2.76Z" fill="black"/>
</svg>
