<svg width="24" height="24" viewBox="0 0 24 24" fill="none" xmlns="http://www.w3.org/2000/svg">
<path fill-rule="evenodd" clip-rule="evenodd" d="M12.7498 8.742C12.0598 8.742 11.4998 8.182 11.4998 7.492C11.4998 6.802 12.0598 6.242 12.7498 6.242C13.4398 6.242 13.9998 6.802 13.9998 7.492C13.9998 8.182 13.4398 8.742 12.7498 8.742ZM18.9968 3.734H5.00377C4.36477 3.734 4.01877 4.48 4.43077 4.968L11.2498 13.446V18.766H7.99977C7.58577 18.766 7.24977 19.101 7.24977 19.516C7.24977 19.93 7.58577 20.266 7.99977 20.266H11.9998H15.9998C16.4148 20.266 16.7498 19.93 16.7498 19.516C16.7498 19.101 16.4148 18.766 15.9998 18.766H12.7498V13.446L19.5698 4.968C19.9808 4.48 19.6348 3.734 18.9968 3.734Z" fill="black"/>
</svg>
