<svg width="24" height="24" viewBox="0 0 24 24" fill="none" xmlns="http://www.w3.org/2000/svg">
<mask id="mask0_702_1935" style="mask-type:luminance" maskUnits="userSpaceOnUse" x="4" y="4" width="16" height="16">
<path d="M4.0005 4.0002H19.7095V19.7982H4.0005V4.0002Z" fill="white"/>
</mask>
<g mask="url(#mask0_702_1935)">
<path fill-rule="evenodd" clip-rule="evenodd" d="M18.3345 13.6586C18.1825 13.6586 18.0295 13.6126 17.8965 13.5166C17.5605 13.2746 17.4845 12.8056 17.7265 12.4706C18.0385 12.0376 18.2095 11.4796 18.2095 10.9006C18.2095 10.3216 18.0385 9.7636 17.7265 9.3316C17.4845 8.9956 17.5605 8.5266 17.8965 8.2846C18.2335 8.0436 18.7015 8.1186 18.9435 8.4546C19.4385 9.1406 19.7095 10.0096 19.7095 10.9006C19.7095 11.7926 19.4385 12.6606 18.9435 13.3466C18.7965 13.5506 18.5675 13.6586 18.3345 13.6586ZM5.5005 9.2276V12.7276H6.8965C7.3115 12.7276 7.6465 13.0636 7.6465 13.4776V17.5486C7.6465 17.9616 7.9835 18.2986 8.3965 18.2986C8.8105 18.2986 9.1465 17.9616 9.1465 17.5486V14.0356C9.1465 13.7626 9.2945 13.5126 9.5315 13.3806C9.7685 13.2476 10.0595 13.2536 10.2915 13.3976L14.9995 16.3076L15.0005 5.4956L9.1635 9.11559C9.0445 9.18859 8.9075 9.2276 8.7685 9.2276H5.5005ZM8.3965 19.7986C7.1565 19.7986 6.1465 18.7886 6.1465 17.5486V14.2276H5.5005C4.6725 14.2276 4.0005 13.5546 4.0005 12.7276V9.2276C4.0005 8.4006 4.6725 7.7276 5.5005 7.7276H8.5545L14.2095 4.2236C14.6735 3.9376 15.2555 3.9256 15.7305 4.1896C16.2055 4.4546 16.5005 4.9566 16.5005 5.4996V16.3076C16.5005 16.8506 16.2055 17.3526 15.7305 17.6176C15.2555 17.8826 14.6735 17.8696 14.2105 17.5846L10.6475 15.3816V17.5486C10.6475 18.7886 9.6375 19.7986 8.3965 19.7986Z" fill="black"/>
</g>
</svg>
