<svg width="24" height="24" viewBox="0 0 24 24" fill="none" xmlns="http://www.w3.org/2000/svg">
<path fill-rule="evenodd" clip-rule="evenodd" d="M14.7648 7.6921C14.7348 7.8161 14.7088 7.9401 14.6878 8.0681C14.6678 8.1921 14.6508 8.3171 14.6408 8.4431C14.6328 8.5601 14.6238 8.6751 14.6238 8.7931C14.6238 11.2801 16.6448 13.3031 19.1288 13.3031C19.1368 13.3031 19.1428 13.3011 19.1498 13.3011C19.2768 13.3011 19.4028 13.2931 19.5258 13.2821C19.6538 13.2711 19.7778 13.2521 19.9018 13.2311V14.5811C19.9018 16.4471 18.3848 17.9631 16.5198 17.9631H7.5008C5.6368 17.9631 4.1188 16.4471 4.1188 14.5811V11.0741C4.1188 9.2091 5.6368 7.6921 7.5008 7.6921H14.7648ZM19.1292 6.0369C20.6502 6.0369 21.8812 7.2709 21.8812 8.7929C21.8812 10.0459 21.0462 11.1019 19.9012 11.4369C19.7802 11.4719 19.6542 11.4979 19.5262 11.5169C19.4032 11.5349 19.2782 11.5469 19.1502 11.5479C19.1432 11.5479 19.1362 11.5489 19.1292 11.5489C17.6092 11.5489 16.3772 10.3149 16.3772 8.7929C16.3772 8.6739 16.3882 8.5589 16.4022 8.4439C16.4172 8.3159 16.4432 8.1909 16.4762 8.0679C16.5122 7.9409 16.5542 7.8169 16.6052 7.6969C17.0282 6.7209 17.9982 6.0369 19.1292 6.0369Z" fill="black"/>
</svg>
