<svg width="24" height="24" viewBox="0 0 24 24" fill="none" xmlns="http://www.w3.org/2000/svg">
<path fill-rule="evenodd" clip-rule="evenodd" d="M8.9394 13.5608C9.9054 13.5608 10.6894 14.3438 10.6894 15.3108V18.3108C10.6894 19.2768 9.9054 20.0608 8.9394 20.0608H5.9394C4.9724 20.0608 4.1894 19.2768 4.1894 18.3108V15.3108C4.1894 14.3438 4.9724 13.5608 5.9394 13.5608H8.9394ZM17.4394 13.5608C18.4054 13.5608 19.1894 14.3438 19.1894 15.3108V18.3108C19.1894 19.2768 18.4054 20.0608 17.4394 20.0608H14.4394C13.4724 20.0608 12.6894 19.2768 12.6894 18.3108V15.3108C12.6894 14.3438 13.4724 13.5608 14.4394 13.5608H17.4394ZM14.7023 4.4515C15.3853 3.7685 16.4933 3.7685 17.1763 4.4515L19.2983 6.5735C19.9813 7.2565 19.9813 8.3645 19.2983 9.0485L17.1763 11.1695C16.4933 11.8525 15.3853 11.8525 14.7023 11.1695L12.5803 9.0485C11.8973 8.3645 11.8973 7.2565 12.5803 6.5735L14.7023 4.4515ZM8.9394 4.5608C9.9054 4.5608 10.6894 5.3438 10.6894 6.3108V9.3108C10.6894 10.2768 9.9054 11.0608 8.9394 11.0608H5.9394C4.9724 11.0608 4.1894 10.2768 4.1894 9.3108V6.3108C4.1894 5.3438 4.9724 4.5608 5.9394 4.5608H8.9394Z" fill="black"/>
</svg>
