<svg width="24" height="24" viewBox="0 0 24 24" fill="none" xmlns="http://www.w3.org/2000/svg">
<path fill-rule="evenodd" clip-rule="evenodd" d="M19.4981 5.7499C21.0191 5.7499 22.2501 6.9839 22.2501 8.5069C22.2501 9.7599 21.4151 10.8149 20.2701 11.1499C20.1491 11.1859 20.0231 11.2119 19.8951 11.2299C19.7721 11.2479 19.6471 11.2609 19.5191 11.2619C19.5121 11.2619 19.5051 11.2629 19.4981 11.2629C17.9781 11.2629 16.7461 10.0279 16.7461 8.5069C16.7461 8.3879 16.7571 8.2719 16.7711 8.1569C16.7861 8.0289 16.8121 7.9039 16.8451 7.7809C16.8811 7.6539 16.9231 7.5299 16.9741 7.4099C17.3971 6.4349 18.3671 5.7499 19.4981 5.7499Z" fill="black"/>
<path fill-rule="evenodd" clip-rule="evenodd" d="M5.75 13.7499V10.2499C5.75 8.8699 6.869 7.7499 8.25 7.7499H17.726C19.103 7.7499 20.22 8.8629 20.226 10.2399L20.24 13.7399C20.246 15.1249 19.125 16.2499 17.74 16.2499H8.25C6.869 16.2499 5.75 15.1309 5.75 13.7499Z" stroke="black" stroke-width="1.5" stroke-linecap="round" stroke-linejoin="round"/>
</svg>
