<svg width="24" height="24" viewBox="0 0 24 24" fill="none" xmlns="http://www.w3.org/2000/svg">
<path d="M15.2389 4.6358C15.8519 4.0838 16.354 4.3088 16.354 5.1328V17.8828C16.354 18.7078 15.8519 18.9318 15.2389 18.3808L9.69191 14.9938V18.4168C9.69191 19.1078 9.13291 19.6668 8.44191 19.6668H8.22101C7.53101 19.6668 6.97101 19.1078 6.97101 18.4168V14.8478C6.97101 14.7308 6.98101 14.6158 6.99901 14.5058H5.76891C4.80701 14.5058 4.01891 13.7178 4.01891 12.7558V10.2558C4.01891 9.2928 4.80701 8.5058 5.76891 8.5058H8.61291C8.71501 8.5058 8.81301 8.5158 8.91001 8.5328V8.4988L15.2389 4.6358ZM17.654 8.4981C18.939 8.4981 19.981 9.8521 19.981 11.5231C19.981 13.1941 18.939 14.5491 17.654 14.5491V8.4981Z" fill="black"/>
</svg>
