<svg width="24" height="24" viewBox="0 0 24 24" fill="none" xmlns="http://www.w3.org/2000/svg">
<path d="M19.1961 8.5364L19.3246 8.6553L22.3447 11.6756C23.1768 12.5077 23.2164 13.8322 22.4636 14.7112L22.3447 14.8396L16.5681 20.6165C14.7866 22.3982 11.9534 22.4728 10.2392 20.7603C8.58079 19.1 8.59899 16.3891 10.2215 14.6014L10.3835 14.4314L16.1605 8.6556C16.9918 7.8231 18.3161 7.7835 19.1961 8.5364ZM11.845 14.695L11.2464 15.2944C9.93149 16.6094 9.87719 18.671 11.1021 19.8973C12.2834 21.0774 14.2387 21.0708 15.5561 19.8945L15.7052 19.7535L16.304 19.154L11.845 14.695ZM5.78959 16.5278C6.22589 16.9146 6.35099 17.0785 6.86539 17.3529C7.21479 17.5392 7.34689 17.9731 7.16049 18.322C6.97399 18.6709 6.53959 18.8027 6.19019 18.6163C5.57599 18.2888 5.35799 18.0603 4.83759 17.5989C4.54139 17.3362 4.51439 16.8836 4.77729 16.5878C5.04009 16.2921 5.49339 16.2652 5.78959 16.5278ZM17.1194 9.4338L17.0237 9.5184L12.709 13.832L17.167 18.291L21.4818 13.9766C21.8483 13.61 21.8765 13.0333 21.5663 12.6344L21.4818 12.5386L18.4619 9.5186C18.0946 9.1517 17.5179 9.1235 17.1194 9.4338ZM3.39239 12.1957C3.48709 12.7723 3.64979 13.3327 3.87619 13.8675C4.03049 14.2319 3.85989 14.652 3.49509 14.806C3.13039 14.9599 2.70959 14.7894 2.55529 14.425C2.28479 13.786 2.09029 13.1161 1.97709 12.4271C1.91299 12.0368 2.17789 11.6686 2.56869 11.6047C2.95949 11.5407 3.32829 11.8054 3.39239 12.1957ZM3.92499 6.4541C4.27199 6.6449 4.39849 7.0804 4.20759 7.4269C3.92729 7.9358 3.70779 8.4767 3.55439 9.04C3.45049 9.4216 3.05649 9.6468 2.67429 9.5429C2.29209 9.439 2.06659 9.0454 2.17049 8.6638C2.35369 7.9906 2.61609 7.3442 2.95099 6.7361C3.14189 6.3896 3.57799 6.2634 3.92499 6.4541ZM16.5367 4.3523C17.0594 4.8108 17.0846 4.8506 17.4863 5.4177C17.715 5.7407 17.6384 6.1876 17.3151 6.416C16.9918 6.6443 16.5442 6.5676 16.3155 6.2447C15.9786 5.769 16.0288 5.8128 15.5905 5.4283C15.2929 5.1673 15.2634 4.7147 15.5247 4.4176C15.7861 4.1205 16.2391 4.0912 16.5367 4.3523ZM8.27079 3.2106C8.42189 3.5763 8.24759 3.9949 7.88149 4.1457C7.34239 4.3677 6.83159 4.653 6.35949 4.9947C6.03879 5.2268 5.59039 5.1553 5.35799 4.835C5.12549 4.5147 5.19689 4.0669 5.51759 3.8348C6.08089 3.4271 6.69059 3.0867 7.33429 2.8215C7.70039 2.6707 8.11969 2.8449 8.27079 3.2106ZM11.1123 2.1677C11.8136 2.2001 12.5013 2.314 13.1651 2.5057C13.5456 2.6155 13.765 3.0126 13.6551 3.3926C13.5452 3.7726 13.1476 3.9915 12.7672 3.8816C12.2113 3.7211 11.6351 3.6257 11.0465 3.5985C10.6509 3.5803 10.3449 3.2452 10.363 2.85C10.3812 2.4549 10.7166 2.1494 11.1123 2.1677Z" fill="black"/>
</svg>
