<svg width="24" height="24" viewBox="0 0 24 24" fill="none" xmlns="http://www.w3.org/2000/svg">
<path d="M9.78899 9.1458L13.7777 11.5343L16.1545 10.5341C16.6374 10.3253 17.1582 10.2182 17.6844 10.2188C17.772 10.2188 17.8587 10.2227 17.9449 10.2285C17.3611 7.952 15.4895 6.234 13.1715 5.8468C10.8534 5.4596 8.52509 6.4759 7.23309 8.439C7.25339 8.4388 7.27339 8.4375 7.29369 8.4375C8.17529 8.4363 9.03949 8.6816 9.78899 9.1458Z" fill="#0364B8"/>
<path d="M9.78909 9.1451C9.03959 8.6809 8.17529 8.4363 7.29369 8.4375C7.27339 8.4375 7.25339 8.4388 7.23309 8.439C5.47479 8.4608 3.87259 9.4524 3.06879 11.0163C2.26509 12.5802 2.39139 14.4603 3.39719 15.9026L6.91449 14.4224L8.47809 13.7644L11.9596 12.2994L13.7777 11.5343L9.78909 9.1451Z" fill="#0078D4"/>
<path d="M17.9449 10.2285C17.8587 10.2227 17.772 10.2187 17.6844 10.2187C17.1582 10.2182 16.6375 10.3257 16.1546 10.5345L13.7777 11.5343L14.467 11.9471L16.7261 13.3003L17.7118 13.8907L21.0821 15.9095C21.7044 14.7543 21.6971 13.3621 21.0628 12.2135C20.4285 11.0648 19.254 10.3171 17.9449 10.2285Z" fill="#1490DF"/>
<path d="M17.7118 13.8907L16.7261 13.3003L14.467 11.9471L13.7777 11.5343L11.9596 12.2994L8.47809 13.7644L6.91449 14.4224L3.39719 15.9026C4.28439 17.1781 5.73999 17.9383 7.29369 17.9375H17.6844C19.1038 17.9379 20.4088 17.159 21.0821 15.9095L17.7118 13.8907Z" fill="#28A8EA"/>
</svg>
