<svg width="24" height="24" viewBox="0 0 24 24" fill="none" xmlns="http://www.w3.org/2000/svg">
<path d="M12.434 9.2282L13.1632 8.4979C14.0788 7.5802 15.5798 7.5792 16.4975 8.4948C17.4163 9.4115 17.4173 10.9115 16.5007 11.8302L15.0434 13.2907C14.1267 14.2084 12.6267 14.2094 11.7079 13.2938M12.5671 15.7717L11.8379 16.5019C10.9223 17.4196 9.42134 17.4207 8.50364 16.505C7.58484 15.5884 7.58384 14.0884 8.50044 13.1696L9.95774 11.7092C10.8744 10.7915 12.3744 10.7904 13.2932 11.7061M3.81114 15.1486C4.03094 16.7923 4.61424 18.2809 5.64134 19.3725C6.73304 20.3986 8.22464 20.9777 9.86944 21.1944C11.4402 21.4007 12.509 21.3496 12.509 21.3496C12.509 21.3496 13.5788 21.3986 15.1486 21.1892C16.7934 20.9694 18.2819 20.3871 19.3725 19.359C20.3986 18.2663 20.9788 16.7757 21.1954 15.1319C21.4017 13.5611 21.3486 12.4923 21.3486 12.4923C21.3486 12.4923 21.3996 11.4215 21.1902 9.8527C20.9704 8.2079 20.3871 6.7184 19.359 5.6288C18.2673 4.6027 16.7767 4.0215 15.1319 3.8059C13.5611 3.5996 12.4913 3.6517 12.4913 3.6517C12.4913 3.6517 11.4225 3.6027 9.85274 3.8111C8.20794 4.0298 6.71944 4.6142 5.62884 5.6423H5.62774C4.60274 6.734 4.02254 8.2257 3.80594 9.8694C3.59964 11.4392 3.65174 12.509 3.65174 12.509C3.65174 12.509 3.60174 13.5777 3.81114 15.1486Z" stroke="black" stroke-width="1.5" stroke-linecap="round" stroke-linejoin="round"/>
</svg>
