<svg width="24" height="24" viewBox="0 0 24 24" fill="none" xmlns="http://www.w3.org/2000/svg">
<path d="M8.40416 14.4749C8.75016 16.142 10.2312 17.3969 12.0002 17.3969C13.7692 17.3969 15.2492 16.142 15.5962 14.4749H20.0002V17.5C20.0002 18.875 18.8752 20 17.5002 20H6.50016C5.12516 20 4.00016 18.875 4.00016 17.5V14.4749H8.40416ZM17.4998 4.00011C18.8748 4.00011 19.9998 5.12511 19.9998 6.50011V12.975H14.9238C14.5098 12.975 14.1738 13.3101 14.1738 13.725C14.1738 14.923 13.1988 15.897 11.9998 15.897C10.8018 15.897 9.82676 14.923 9.82676 13.725C9.82676 13.3101 9.49076 12.975 9.07676 12.975H3.99976V6.50011C3.99976 5.12511 5.12476 4.00011 6.49976 4.00011H17.4998ZM12.0008 6.24501C11.8918 6.24501 11.7888 6.26911 11.6958 6.31011C11.5338 6.36211 11.3818 6.44901 11.2638 6.57401L9.20776 8.72701C8.92176 9.02711 8.93276 9.50211 9.23176 9.78801C9.37776 9.92701 9.56376 9.99511 9.74976 9.99511C9.94776 9.99511 10.1448 9.91711 10.2928 9.76311L11.2508 8.76001V12.139C11.2508 12.5531 11.5858 12.889 12.0008 12.889C12.4148 12.889 12.7508 12.5531 12.7508 12.139V8.76001L13.7078 9.76311C13.9938 10.062 14.4688 10.073 14.7678 9.78801C15.0678 9.50211 15.0788 9.02711 14.7928 8.72701L12.7388 6.57501C12.6188 6.44901 12.4678 6.36211 12.3048 6.31011C12.2118 6.26911 12.1088 6.24501 12.0008 6.24501Z" fill="black"/>
</svg>
