<svg width="24" height="24" viewBox="0 0 24 24" fill="none" xmlns="http://www.w3.org/2000/svg">
<path fill-rule="evenodd" clip-rule="evenodd" d="M15.9829 19.2828H8.20114C7.38934 19.2828 6.72894 18.5442 6.72894 17.6362V16.8506H17.4551V17.6362C17.4551 18.5442 16.7947 19.2828 15.9829 19.2828ZM8.20114 5.1693H12.9854C13.1183 5.1693 13.3749 5.2926 13.4708 5.4036L15.2316 7.4416H6.72894V6.8159C6.72894 5.9079 7.38934 5.1693 8.20114 5.1693ZM6.72894 15.4392H17.4551V12.8518H6.72894V15.4392ZM17.4551 10.3461V11.4404H6.72894V8.8529H16.4523L17.2515 9.7778C17.3541 9.8983 17.4551 10.1796 17.4551 10.3461ZM18.1626 8.8003L14.3803 4.426C14.0496 4.0393 13.4633 3.758 12.9854 3.758H8.20114C6.69364 3.758 5.46704 5.1298 5.46704 6.8159V17.6362C5.46704 19.3223 6.69364 20.6941 8.20114 20.6941H15.9829C17.4904 20.6941 18.717 19.3223 18.717 17.6362V10.3461C18.717 9.8192 18.4899 9.186 18.1626 8.8003Z" fill="black"/>
</svg>
