<svg width="24" height="24" viewBox="0 0 24 24" fill="none" xmlns="http://www.w3.org/2000/svg">
<path d="M15.6345 8.2732C16.2631 8.2732 16.8654 8.4659 17.3772 8.8317C17.7051 9.0652 17.781 9.5216 17.5475 9.8495C17.313 10.1774 16.8566 10.2543 16.5287 10.0198C16.266 9.832 15.9566 9.7327 15.6345 9.7327C14.7617 9.7327 14.0514 10.4683 14.0514 11.3723V12.7501H18.4718C19.4361 12.7501 20.2203 13.5333 20.2203 14.4966V18.7399C20.2203 19.7032 19.4361 20.4875 18.4718 20.4875H12.7962C11.8329 20.4875 11.0497 19.7032 11.0497 18.7399V14.4966C11.0497 13.6034 11.7249 12.8727 12.5919 12.7705V11.3723C12.5919 9.6636 13.957 8.2732 15.6345 8.2732ZM15.41 3.0284C17.1537 3.0284 18.5723 4.447 18.5723 6.1907V6.4446C18.5723 6.8474 18.2454 7.1744 17.8426 7.1744C17.4397 7.1744 17.1128 6.8474 17.1128 6.4446V6.1907C17.1128 5.2517 16.349 4.4879 15.41 4.4879H7.38264C6.44374 4.4879 5.67994 5.2517 5.67994 6.1907V17.3249C5.67994 18.2639 6.44374 19.0277 7.38264 19.0277H8.99204C9.39484 19.0277 9.72184 19.3546 9.72184 19.7574C9.72184 20.1603 9.39484 20.4872 8.99204 20.4872H7.38264C5.63904 20.4872 4.22034 19.0685 4.22034 17.3249V6.1907C4.22034 4.447 5.63904 3.0284 7.38264 3.0284H15.41ZM15.6345 14.8167C15.0672 14.8167 14.608 15.2682 14.608 15.8277C14.608 16.1848 14.8065 16.4825 15.0896 16.6635C15.0857 16.6879 15.075 16.7093 15.075 16.7346V17.9022C15.075 18.2126 15.3251 18.4626 15.6345 18.4626C15.943 18.4626 16.194 18.2126 16.194 17.9022V16.7346C16.194 16.7093 16.1823 16.6879 16.1794 16.6635C16.4625 16.4835 16.661 16.1848 16.661 15.8277C16.661 15.2682 16.2008 14.8167 15.6345 14.8167Z" fill="black"/>
</svg>
