<svg width="24" height="24" viewBox="0 0 24 24" fill="none" xmlns="http://www.w3.org/2000/svg">
<path d="M15.4103 3.0285C17.1539 3.0285 18.5726 4.4472 18.5726 6.1908V6.4448C18.5726 6.8476 18.2456 7.1746 17.8428 7.1746C17.44 7.1746 17.113 6.8476 17.113 6.4448V6.1908C17.113 5.2519 16.3492 4.488 15.4103 4.488H7.38276C6.44376 4.488 5.67996 5.2519 5.67996 6.1908V17.3251C5.67996 18.2641 6.44376 19.0279 7.38276 19.0279H8.99216C9.39496 19.0279 9.72196 19.3549 9.72196 19.7577C9.72196 20.1605 9.39496 20.4875 8.99216 20.4875H7.38276C5.63916 20.4875 4.22046 19.0688 4.22046 17.3251V6.1908C4.22046 4.4472 5.63916 3.0285 7.38276 3.0285H15.4103ZM15.6346 8.273C17.3121 8.273 18.6773 9.6634 18.6773 11.3721V12.7703C19.5433 12.8734 20.2205 13.6042 20.2205 14.4974V18.7398C20.2205 19.7031 19.4362 20.4874 18.4729 20.4874H12.7973C11.833 20.4874 11.0497 19.7031 11.0497 18.7398V14.4974C11.0497 13.6042 11.725 12.8734 12.592 12.7703V11.3721C12.592 9.6634 13.9571 8.273 15.6346 8.273ZM15.6346 14.8166C15.0674 14.8166 14.6081 15.269 14.6081 15.8275C14.6081 16.1846 14.8066 16.4843 15.0897 16.6634C15.0868 16.6887 15.0751 16.7091 15.0751 16.7354V17.903C15.0751 18.2124 15.3252 18.4625 15.6346 18.4625C15.9431 18.4625 16.1941 18.2124 16.1941 17.903V16.7354C16.1941 16.7091 16.1834 16.6887 16.1795 16.6634C16.4627 16.4834 16.6612 16.1846 16.6612 15.8275C16.6612 15.269 16.2019 14.8166 15.6346 14.8166ZM15.6346 9.7325C14.7618 9.7325 14.0515 10.4681 14.0515 11.3721V12.7499H17.2177V11.3721C17.2177 10.4681 16.5074 9.7325 15.6346 9.7325Z" fill="black"/>
</svg>
