<svg width="24" height="24" viewBox="0 0 24 24" fill="none" xmlns="http://www.w3.org/2000/svg">
<path fill-rule="evenodd" clip-rule="evenodd" d="M16.521 15.91C16.521 16.5146 16.031 17.0037 15.4273 17.0037C14.8226 17.0037 14.3335 16.5146 14.3335 15.91C14.3335 15.3062 14.8226 14.8162 15.4273 14.8162C16.031 14.8162 16.521 15.3062 16.521 15.91Z" fill="black"/>
<path d="M8.71141 18.7188H7.78211C6.57381 18.7188 5.59381 17.7396 5.59381 16.5313V6.4688C5.59381 5.2604 6.57381 4.2813 7.78211 4.2813H15.2188C16.4271 4.2813 17.4071 5.2604 17.4071 6.4688V6.7417M15.4273 16.4137V17.9739M13.0201 12.8355V11.2001C13.0201 9.8378 14.0973 8.7344 15.4264 8.7344C16.0914 8.7344 16.6934 9.01 17.1291 9.4563M18.3804 20.1795H12.4741C11.7488 20.1795 11.1616 19.5915 11.1616 18.867V14.4526C11.1616 13.7272 11.7488 13.1401 12.4741 13.1401H18.3804C19.1049 13.1401 19.6929 13.7272 19.6929 14.4526V18.867C19.6929 19.5915 19.1049 20.1795 18.3804 20.1795Z" stroke="black" stroke-width="1.5" stroke-linecap="round" stroke-linejoin="round"/>
</svg>
