<svg width="24" height="24" viewBox="0 0 24 24" fill="none" xmlns="http://www.w3.org/2000/svg">
<path fill-rule="evenodd" clip-rule="evenodd" d="M11.2573 8.8691V11.8191H12.9873C13.5423 11.8191 13.9423 11.6881 14.1883 11.4251C14.4333 11.1631 14.5553 10.8271 14.5553 10.4181C14.5553 10.0101 14.4333 9.6491 14.1883 9.3371C13.9423 9.0251 13.5423 8.8691 12.9873 8.8691H11.2573ZM11.2573 13.3811V16.6991H9.31427V7.3011H12.9873C14.0973 7.3011 14.9633 7.5931 15.5853 8.1791C16.2073 8.7641 16.5183 9.5061 16.5183 10.4051C16.5183 11.3131 16.2073 12.0361 15.5853 12.5741C14.9633 13.1121 14.0973 13.3811 12.9873 13.3811H11.2573Z" fill="black"/>
<path fill-rule="evenodd" clip-rule="evenodd" d="M20.5 12C20.5 16.694 16.694 20.5 12 20.5C7.306 20.5 3.5 16.694 3.5 12C3.5 7.305 7.306 3.5 12 3.5C16.694 3.5 20.5 7.305 20.5 12Z" stroke="black" stroke-width="1.5" stroke-linecap="round" stroke-linejoin="round"/>
</svg>
