<svg width="24" height="24" viewBox="0 0 24 24" fill="none" xmlns="http://www.w3.org/2000/svg">
<path d="M12.0004 4.125C15.5194 4.125 18.8634 5.824 21.1734 8.787C22.6004 10.619 22.6004 13.382 21.1734 15.214C18.8634 18.176 15.5194 19.875 12.0004 19.875C8.47941 19.875 5.13541 18.176 2.82741 15.214C1.39941 13.382 1.39941 10.619 2.82741 8.787C5.13541 5.824 8.47941 4.125 12.0004 4.125ZM12.0004 5.625C8.94541 5.625 6.03341 7.114 4.01041 9.71C2.99241 11.016 2.99241 12.985 4.01041 14.292C6.03341 16.887 8.94541 18.375 12.0004 18.375C15.0544 18.375 17.9674 16.887 19.9894 14.292C21.0084 12.985 21.0084 11.016 19.9894 9.71C17.9674 7.114 15.0544 5.625 12.0004 5.625ZM12.0005 7.2499C14.6245 7.2499 16.7505 9.3769 16.7505 11.9999C16.7505 14.6239 14.6245 16.7499 12.0005 16.7499C9.37651 16.7499 7.25051 14.6239 7.25051 11.9999C7.25051 9.3769 9.37651 7.2499 12.0005 7.2499ZM12.9435 9.0839C12.2535 9.0839 11.6935 9.6439 11.6935 10.3339C11.6935 11.0239 12.2535 11.5839 12.9435 11.5839C13.6335 11.5839 14.1935 11.0239 14.1935 10.3339C14.1935 9.6439 13.6335 9.0839 12.9435 9.0839Z" fill="black"/>
</svg>
