<svg width="24" height="24" viewBox="0 0 24 24" fill="none" xmlns="http://www.w3.org/2000/svg">
<path fill-rule="evenodd" clip-rule="evenodd" d="M2.52508 3.6312C2.74908 3.4082 3.07798 3.3562 3.35208 3.4742C3.37698 3.5102 3.40408 3.5452 3.43598 3.5782L19.431 19.5722C19.532 19.8392 19.476 20.1522 19.261 20.3682C19.114 20.5142 18.9221 20.5872 18.73 20.5872C18.539 20.5872 18.347 20.5142 18.2001 20.3682L16.3461 18.5132C14.974 19.0992 13.503 19.4112 12 19.4112C8.47898 19.4112 5.13608 17.7122 2.82698 14.7502C1.39898 12.9182 1.39898 10.1552 2.82698 8.3242C3.31908 7.6912 3.86208 7.1202 4.44008 6.6082L2.52508 4.6922C2.23198 4.3992 2.23198 3.9242 2.52508 3.6312ZM5.50298 7.6702C4.96708 8.1382 4.46498 8.6622 4.00998 9.2452C2.99208 10.5522 2.99208 12.5212 4.00998 13.8282C6.03308 16.4232 8.94498 17.9112 12 17.9112C13.092 17.9112 14.166 17.7182 15.187 17.3542L13.7731 15.9412C13.225 16.1612 12.6271 16.2862 12 16.2862C9.37498 16.2862 7.25008 14.1602 7.25008 11.5362C7.25008 10.9092 7.37508 10.3112 7.59598 9.7632L5.50298 7.6702ZM12 3.6608C15.5199 3.6608 18.8629 5.3608 21.173 8.3238C22.601 10.1558 22.601 12.9178 21.173 14.7498C20.511 15.5988 19.7619 16.3398 18.951 16.9708L17.8829 15.9028C18.6549 15.3238 19.365 14.6288 19.99 13.8278C21.0079 12.5218 21.0079 10.5518 19.99 9.2458C17.966 6.6498 15.054 5.1608 12 5.1608C10.6209 5.1608 9.27188 5.4678 8.01888 6.0388L6.89588 4.9158C8.47798 4.0998 10.216 3.6608 12 3.6608ZM11.9997 6.7867C14.6236 6.7867 16.7507 8.9127 16.7507 11.5367C16.7507 12.4597 16.4827 13.3187 16.0276 14.0477L9.48958 7.5097C10.2186 7.0537 11.0766 6.7867 11.9997 6.7867Z" fill="black"/>
</svg>
