<svg width="24" height="24" viewBox="0 0 24 24" fill="none" xmlns="http://www.w3.org/2000/svg">
<path d="M5.73551 15.8587C6.09951 14.7937 6.63751 13.8197 6.97951 13.3597L10.6565 17.0377C10.1965 17.3797 9.22351 17.9177 8.15751 18.2817C6.66351 18.7927 5.83951 18.6797 5.58851 18.4277C5.33651 18.1767 5.22451 17.3527 5.73551 15.8587ZM15.2705 5.03471C15.7745 4.52971 16.6215 4.61771 16.9235 4.91971L19.0965 7.09271C19.3995 7.39571 19.4865 8.24271 18.9825 8.74671L12.7085 15.0207L11.7775 15.9517L11.7345 15.9947L8.02251 12.2817L15.2705 5.03471ZM3.41251 20.5697C3.58351 20.7407 3.80751 20.8257 4.03151 20.8257C4.25551 20.8257 4.47951 20.7407 4.65051 20.5697L5.26451 19.9557C5.58651 20.0777 5.95751 20.1397 6.37751 20.1397C7.02551 20.1397 7.78551 19.9937 8.64351 19.7007C9.81851 19.2987 11.0745 18.6427 11.7245 18.1047L11.7345 18.1157L11.9155 17.9347L11.9195 17.9307L13.7685 16.0817L20.0435 9.8067C20.5465 9.3037 20.8305 8.61671 20.8435 7.87271C20.8555 7.15071 20.6055 6.48071 20.1575 6.03271L17.9845 3.85871C17.0275 2.90171 15.2275 2.95571 14.2095 3.97371L8.10051 10.0827L6.96451 11.2187L5.90151 12.2817L5.91151 12.2927C5.37351 12.9417 4.71751 14.1987 4.31651 15.3737C3.84251 16.7557 3.75451 17.8847 4.04351 18.7017L3.41251 19.3327C3.07051 19.6727 3.07051 20.2277 3.41251 20.5697Z" fill="black"/>
</svg>
