<svg width="24" height="24" viewBox="0 0 24 24" fill="none" xmlns="http://www.w3.org/2000/svg">
<path d="M5.91079 17.4204C6.11679 16.9094 6.18279 16.4124 6.24679 15.9324C6.37179 15.0034 6.47879 14.2004 7.57379 13.2654C8.09979 12.8164 8.66279 12.5584 9.36579 12.4504L12.0468 15.1374C12.0878 15.4514 12.0778 16.3064 11.1058 17.4744C9.68479 19.1794 6.58179 19.2894 4.86879 19.1444C5.22079 18.7504 5.59879 18.1994 5.91079 17.4204ZM16.5658 5.1594C16.7898 4.9364 17.1178 4.8044 17.4658 4.7984C17.7768 4.7894 18.0628 4.8884 18.2198 5.0454L19.6858 6.5114C19.8438 6.6684 19.9378 6.9574 19.9318 7.2654C19.9268 7.6134 19.7948 7.9414 19.5718 8.1644L13.3778 14.3574L13.3718 14.3424L10.3808 11.3444L16.5658 5.1594ZM2.90979 20.2134C3.22379 20.4464 4.45779 20.7004 5.97379 20.7004C8.10279 20.7004 10.7868 20.1994 12.2578 18.4344C12.8578 17.7144 13.1898 17.0554 13.3698 16.4874L20.6318 9.2254C21.6498 8.2074 21.7038 6.4084 20.7468 5.4504L19.2808 3.9844C18.3228 3.0264 16.5238 3.0814 15.5058 4.0994L8.61179 10.9934C8.57679 11.0274 8.54679 11.0654 8.52079 11.1044C7.80679 11.3014 7.17079 11.6374 6.59979 12.1244C5.06879 13.4334 4.89779 14.7084 4.76079 15.7334C4.70379 16.1574 4.65479 16.5244 4.51879 16.8614C4.05979 18.0044 3.44279 18.4654 3.11079 18.7124C2.88179 18.8834 2.56779 19.1164 2.56879 19.5514C2.56879 19.8104 2.69279 20.0524 2.90979 20.2134Z" fill="black"/>
</svg>
