<svg width="24" height="24" viewBox="0 0 24 24" fill="none" xmlns="http://www.w3.org/2000/svg">
<path d="M5.07842 14.7177C5.08842 14.6587 5.16242 14.5397 5.20642 14.5077L9.46042 11.8247L12.1784 14.5427L9.49742 18.7937C9.46342 18.8407 9.34542 18.9137 9.29042 18.9237L5.59142 19.2947L7.27742 17.6097C7.56742 17.6397 7.86842 17.5487 8.09042 17.3257C8.48142 16.9367 8.48142 16.3027 8.09142 15.9117C7.70042 15.5217 7.06642 15.5217 6.67642 15.9117C6.45442 16.1347 6.36342 16.4357 6.39342 16.7257L4.70242 18.4167L5.07842 14.7177ZM16.0744 4.9247C16.5784 4.4197 17.4244 4.5077 17.7274 4.8097L19.1934 6.2767C19.4954 6.5787 19.5834 7.4257 19.0784 7.9297L13.3764 13.6327C13.3534 13.6067 13.3344 13.5767 13.3094 13.5527L10.4514 10.6947C10.4264 10.6687 10.3974 10.6497 10.3704 10.6267L16.0744 4.9247ZM3.39342 20.6027C3.60842 20.8177 3.90142 20.9357 4.21142 20.9357C4.25242 20.9357 4.29442 20.9337 4.33542 20.9287L9.44042 20.4157C9.94842 20.3647 10.4924 20.0287 10.7644 19.5977L12.8724 16.2537C12.8794 16.2477 12.8864 16.2437 12.8914 16.2387L20.1404 8.98971C21.1574 7.97271 21.2114 6.1737 20.2544 5.2157L18.7874 3.7487C17.8304 2.7917 16.0314 2.8457 15.0134 3.8637L7.76542 11.1117C7.75942 11.1167 7.75542 11.1237 7.74942 11.1307L4.40642 13.2387C3.97542 13.5107 3.63842 14.0547 3.58642 14.5617L3.06742 19.6587C3.03142 20.0147 3.15042 20.3587 3.39342 20.6027Z" fill="black"/>
</svg>
