<svg width="24" height="24" viewBox="0 0 24 24" fill="none" xmlns="http://www.w3.org/2000/svg">
<path d="M15.1909 4.33399L15.3249 4.45929L19.498 8.63179C20.5005 9.63399 20.5423 11.2333 19.6234 12.2852L19.4981 12.4192L13.2843 18.6329C11.0861 20.8311 7.5219 20.8311 5.3237 18.6329C3.1849 16.4941 3.1271 13.0622 5.1503 10.8534L5.3237 10.6722L11.538 4.45919C12.5404 3.45709 14.1391 3.41539 15.1909 4.33399ZM6.69 11.073L6.2076 11.5562C4.4975 13.2662 4.4975 16.039 6.2076 17.749C7.8625 19.4039 10.5126 19.4573 12.2317 17.9092L12.4004 17.749L12.883 17.266L6.69 11.073Z" fill="black"/>
</svg>
