<svg width="24" height="24" viewBox="0 0 24 24" fill="none" xmlns="http://www.w3.org/2000/svg">
<path d="M14.4167 4.12769C15.4202 3.12419 17.0471 3.12409 18.0507 4.12769L19.7749 5.85189C20.7782 6.85549 20.7782 8.48239 19.7748 9.48579L9.8427 19.4174C8.3633 20.8973 5.964 20.8973 4.4855 19.4176C3.005 17.9383 3.0048 15.539 4.4849 14.0593L14.4167 4.12769ZM17.1668 5.01159C16.6514 4.49619 15.8159 4.49619 15.3006 5.01159L8.859 11.452L9.9781 12.571L8.649 13.899L10.0094 15.2595L8.6426 16.6263L7.282 15.266L5.964 16.584L7.324 17.9444L6.1871 19.0825C6.8671 19.3658 7.6455 19.3401 8.3079 19.0055L7.301 17.9983L8.6678 16.6317L9.764 17.728L11.082 16.409L9.9867 15.3126L11.3532 13.9461L12.449 15.042L18.8909 8.60189C19.3718 8.12099 19.4039 7.36109 18.9871 6.84289L18.8909 6.73569L17.1668 5.01159ZM4.8967 15.5942C4.5622 16.2566 4.5366 17.035 4.8199 17.7152L5.919 16.616L4.8967 15.5942ZM7.493 12.819L6.174 14.138L7.285 15.249L8.604 13.93L7.493 12.819Z" fill="black"/>
</svg>
