<svg width="24" height="24" viewBox="0 0 24 24" fill="none" xmlns="http://www.w3.org/2000/svg">
<path d="M12.019 2.37489C12.3328 2.37489 12.5926 2.60619 12.6372 2.90759L12.644 2.99989L12.6439 4.62989L15.5207 4.63059C16.8063 4.63059 17.9286 5.48119 18.2879 6.71299L18.3321 6.88329L20.3281 16.5607C20.59 18.1607 19.3549 19.6403 17.7069 19.6403L12.6439 19.6399L12.644 21.271C12.644 21.6162 12.3642 21.896 12.019 21.896C11.7052 21.896 11.4454 21.6647 11.4008 21.3633L11.394 21.271L11.3939 19.6399L6.33099 19.6403C4.68299 19.6403 3.44789 18.1607 3.70739 16.5721L3.73959 16.4075L5.70859 6.87059C6.00769 5.56029 7.17319 4.63059 8.51729 4.63059L11.3939 4.62989L11.394 2.99989C11.394 2.65479 11.6738 2.37489 12.019 2.37489ZM11.3939 5.87989L8.51729 5.88059C7.75649 5.88059 7.09659 6.40699 6.93009 7.13599L4.96099 16.6728C4.76039 17.5524 5.42869 18.3903 6.33099 18.3903L11.3939 18.3899V5.87989ZM15.5207 5.88059L12.6439 5.87989V18.3899L17.7069 18.3903C18.5662 18.3903 19.2134 17.6303 19.0974 16.7872L19.0742 16.6602L17.1107 7.14869C16.9414 6.40699 16.2815 5.88059 15.5207 5.88059Z" fill="black"/>
</svg>
