<svg width="24" height="24" viewBox="0 0 24 24" fill="none" xmlns="http://www.w3.org/2000/svg">
<path d="M11.9969 10.3704C13.0969 10.3594 14.0079 11.6334 14.4769 12.2334C15.3009 13.2894 16.7219 14.3314 17.4939 15.2674C18.1149 16.0194 18.0459 17.3834 17.4399 18.1924C16.8639 18.9614 15.8059 19.3544 14.8239 19.2064C13.0429 18.9384 10.9519 18.9384 9.1709 19.2064C8.1889 19.3544 7.1299 18.9614 6.5539 18.1924C5.9479 17.3834 5.8949 16.0324 6.4999 15.2674C7.3119 14.2424 8.9119 13.0714 9.5189 12.2334C9.9639 11.6164 10.8979 10.3594 11.9969 10.3704ZM5.0213 8.95979C6.1693 8.77279 6.7923 9.62879 6.9773 10.7778C7.1643 11.9268 6.8433 12.9348 5.6953 13.1198C4.5453 13.3068 3.4633 12.5258 3.2773 11.3768C3.0913 10.2278 3.8723 9.14579 5.0213 8.95979ZM17.0225 10.7778C17.2085 9.62879 17.8295 8.77279 18.9795 8.95979C20.1275 9.14579 20.9095 10.2278 20.7225 11.3768C20.5365 12.5258 19.4545 13.3068 18.3055 13.1198C17.1565 12.9348 16.8365 11.9268 17.0225 10.7778ZM7.3161 6.69689C7.5521 5.41489 8.5341 4.56589 9.8161 4.80289C11.0981 5.03889 11.4321 6.17489 11.1971 7.45789C10.9611 8.73989 10.2441 9.43389 8.9621 9.19689C7.6781 8.96089 7.0801 7.97989 7.3161 6.69689ZM14.1849 4.80209C15.4669 4.56609 16.4479 5.41509 16.6839 6.69709C16.9199 7.98009 16.3209 8.96109 15.0389 9.19709C13.7569 9.43309 13.0399 8.74009 12.8039 7.45809C12.5669 6.17509 12.9009 5.03909 14.1849 4.80209Z" fill="black"/>
</svg>
