<svg width="24" height="24" viewBox="0 0 24 24" fill="none" xmlns="http://www.w3.org/2000/svg">
<path fill-rule="evenodd" clip-rule="evenodd" d="M6.20859 3.69289C6.60359 3.71019 7.02359 3.86759 7.58039 4.42539L8.98689 5.83089C9.54469 6.38979 9.70209 6.80979 9.72059 7.20369C9.73789 7.59439 9.62069 8.00249 9.11819 8.50719L8.55169 9.07369C8.04379 9.58159 7.92329 9.98969 7.94399 10.3836C7.96129 10.7059 8.12189 11.0283 8.14149 11.0641C8.43339 11.6295 9.92569 14.2711 13.0958 16.0857C13.1924 16.1486 13.6189 16.3765 13.9423 16.382C14.3373 16.3874 14.7432 16.2821 15.2512 15.7731L15.8188 15.2077C16.3234 14.7052 16.7304 14.5869 17.1222 14.6054C17.5161 14.6227 17.9372 14.7812 18.4951 15.339L19.8994 16.7455C20.4583 17.3023 20.6157 17.7223 20.6342 18.1173C20.6526 18.5091 20.5354 18.9161 20.0318 19.4197L20.0275 19.424C18.4202 21.0291 16.8921 21.3916 15.3076 21.3167C14.3178 21.2701 13.2868 21.0063 12.1049 20.2694C12.1028 20.2716 11.9183 20.1501 11.8282 20.0882C11.7707 20.0491 11.711 20.0079 11.6513 19.9666C6.64159 16.4514 4.04999 12.2101 4.04999 12.2101C3.31739 11.0337 3.05579 10.0059 3.00919 9.01939C2.93429 7.43379 3.29569 5.90469 4.89969 4.29949L4.90189 4.29839C5.40979 3.79049 5.81569 3.67329 6.20859 3.69289Z" fill="black"/>
</svg>
