<svg width="24" height="24" viewBox="0 0 24 24" fill="none" xmlns="http://www.w3.org/2000/svg">
<path fill-rule="evenodd" clip-rule="evenodd" d="M15.6112 14.8621L15.0892 15.3831C14.6212 15.8521 14.2472 15.9501 13.8822 15.9441C13.5852 15.9391 13.1912 15.7291 13.1032 15.6711C10.1812 13.9991 8.80617 11.5651 8.53817 11.0451C8.51917 11.0111 8.37217 10.7141 8.35617 10.4171C8.33717 10.0531 8.44717 9.6781 8.91617 9.2101L9.43717 8.6881C9.90117 8.2231 10.0082 7.8471 9.99317 7.4871C9.97517 7.1241 9.83117 6.7371 9.31717 6.2221L8.02117 4.9271C7.50717 4.4131 7.12117 4.2681 6.75717 4.2521C6.39517 4.2341 6.02117 4.3421 5.55517 4.8061L5.55217 4.8101L5.55017 4.8111C4.07317 6.2911 3.74017 7.7001 3.80817 9.1601C3.85117 10.0681 4.09217 11.0161 4.76717 12.1001C4.76717 12.1001 7.15617 16.0081 11.7722 19.2481C11.8272 19.2861 11.8822 19.3231 11.9352 19.3591C12.0172 19.4161 12.1872 19.5281 12.1902 19.5261C13.2782 20.2051 14.2282 20.4481 15.1402 20.4921C16.6002 20.5601 18.0082 20.2261 19.4892 18.7501L19.4902 18.7481L19.4942 18.7441C19.9582 18.2791 20.0662 17.9051 20.0482 17.5431C20.0312 17.1791 19.8862 16.7921 19.3722 16.2791L18.0772 14.9831C17.5642 14.4691 17.1752 14.3241 16.8122 14.3071C16.4522 14.2911 16.0772 14.3991 15.6112 14.8621Z" stroke="black" stroke-width="1.5" stroke-linecap="round" stroke-linejoin="round"/>
</svg>
