<svg width="24" height="24" viewBox="0 0 24 24" fill="none" xmlns="http://www.w3.org/2000/svg">
<path d="M4.24999 20.4999C4.44199 20.4999 4.63399 20.4269 4.77999 20.2799L10.23 14.8309L13.354 17.9729C13.534 18.1299 13.793 18.1399 13.948 17.9849C14.03 17.9019 14.321 16.6249 14.704 14.3859L18.752 9.5169L19.22 9.9849C19.366 10.1309 19.558 10.2049 19.75 10.2049C19.942 10.2049 20.134 10.1309 20.28 9.9849C20.573 9.6919 20.573 9.2169 20.28 8.9239L15.076 3.7199C14.783 3.4269 14.308 3.4269 14.015 3.7199C13.722 4.0129 13.722 4.4869 14.015 4.7799L14.442 5.2079L9.61599 9.2689C8.41499 9.4079 6.11999 9.9459 6.03899 10.0279C5.88399 10.1849 5.89399 10.4449 6.05199 10.6269L9.17299 13.7669L3.71999 19.2199C3.42699 19.5129 3.42699 19.9869 3.71999 20.2799C3.86599 20.4269 4.05799 20.4999 4.24999 20.4999Z" fill="black"/>
</svg>
