<svg width="24" height="24" viewBox="0 0 24 24" fill="none" xmlns="http://www.w3.org/2000/svg">
<path d="M7.46887 10.632C8.16587 10.468 9.21187 10.249 9.88587 10.171L10.1099 10.145L15.1309 5.917C15.1349 5.914 15.1369 5.91 15.1409 5.906L18.0759 8.841C18.0379 8.871 18.0029 8.905 17.9709 8.943L13.8429 13.876L13.8079 14.076C13.6059 15.256 13.4499 16.045 13.3429 16.541L7.46887 10.632ZM4.24987 20.5C4.44187 20.5 4.63387 20.426 4.78087 20.28L9.87787 15.182L12.7559 18.078L12.7949 18.115C13.0229 18.313 13.3039 18.412 13.5819 18.412C13.8729 18.412 14.1599 18.304 14.3759 18.088C14.5319 17.929 14.6929 17.766 15.2519 14.528L19.1209 9.906C19.1249 9.902 19.1259 9.898 19.1289 9.894L19.2199 9.985C19.3659 10.131 19.5579 10.204 19.7499 10.204C19.9419 10.204 20.1339 10.131 20.2809 9.985C20.5729 9.692 20.5729 9.217 20.2809 8.924L15.0759 3.719C14.7829 3.427 14.3079 3.427 14.0149 3.719C13.7219 4.012 13.7219 4.487 14.0149 4.78L14.0779 4.843L9.47587 8.717C8.70287 8.84 6.27787 9.253 5.92787 9.607C5.51087 10.027 5.50187 10.72 5.90687 11.185L8.82087 14.118L3.71987 19.219C3.42687 19.512 3.42687 19.987 3.71987 20.28C3.86587 20.426 4.05787 20.5 4.24987 20.5Z" fill="black"/>
</svg>
