<svg width="24" height="24" viewBox="0 0 24 24" fill="none" xmlns="http://www.w3.org/2000/svg">
<path fill-rule="evenodd" clip-rule="evenodd" d="M15.75 3.2325C16.165 3.2325 16.5 3.5685 16.5 3.9825V4.6775H17.5C18.875 4.6775 20 5.8025 20 7.1775V18.2675C20 19.6425 18.875 20.7675 17.5 20.7675H6.5C5.125 20.7675 4 19.6425 4 18.2675V7.1775C4 5.8025 5.125 4.6775 6.5 4.6775H7.5V3.9825C7.5 3.5685 7.836 3.2325 8.25 3.2325C8.665 3.2325 9 3.5685 9 3.9825V4.6775H15V3.9825C15 3.5685 15.336 3.2325 15.75 3.2325ZM17.5 9.0535H6.5C5.948 9.0535 5.5 9.5005 5.5 10.0535V18.2675C5.5 18.8175 5.95 19.2675 6.5 19.2675H17.5C18.051 19.2675 18.5 18.8175 18.5 18.2675V10.0535C18.5 9.5005 18.053 9.0535 17.5 9.0535ZM8.1377 14.6142C8.6897 14.6142 9.1377 15.0632 9.1377 15.6142C9.1377 16.1652 8.6897 16.6142 8.1377 16.6142C7.5857 16.6142 7.1377 16.1652 7.1377 15.6142C7.1377 15.0632 7.5857 14.6142 8.1377 14.6142ZM11.3799 14.6142C11.9309 14.6142 12.3799 15.0632 12.3799 15.6142C12.3799 16.1652 11.9309 16.6142 11.3799 16.6142C10.8279 16.6142 10.3799 16.1652 10.3799 15.6142C10.3799 15.0632 10.8279 14.6142 11.3799 14.6142ZM15.8623 11.2885C16.4143 11.2885 16.8633 11.7375 16.8633 12.2885C16.8633 12.8395 16.4143 13.2885 15.8623 13.2885C15.3113 13.2885 14.8623 12.8395 14.8623 12.2885C14.8623 11.7375 15.3113 11.2885 15.8623 11.2885ZM12.6202 11.2885C13.1732 11.2885 13.6212 11.7375 13.6212 12.2885C13.6212 12.8395 13.1732 13.2885 12.6202 13.2885C12.0692 13.2885 11.6202 12.8395 11.6202 12.2885C11.6202 11.7375 12.0692 11.2885 12.6202 11.2885Z" fill="black"/>
</svg>
