<svg width="24" height="24" viewBox="0 0 24 24" fill="none" xmlns="http://www.w3.org/2000/svg">
<path fill-rule="evenodd" clip-rule="evenodd" d="M20.214 18.399V16.675V14.198V11.714C20.214 7.185 16.529 3.5 12 3.5C7.47101 3.5 3.78601 7.185 3.78601 11.714V14.198V16.675V18.399C3.78601 19.558 4.72801 20.5 5.88601 20.5H6.16901C7.32701 20.5 8.26901 19.558 8.26901 18.399V14.198C8.26901 13.04 7.32701 12.097 6.16901 12.097H5.88601C5.67701 12.097 5.47601 12.129 5.28601 12.186V11.714C5.28601 8.012 8.29701 5 12 5C15.702 5 18.714 8.012 18.714 11.714V12.186C18.524 12.129 18.322 12.097 18.113 12.097H17.831C16.673 12.097 15.731 13.04 15.731 14.198V18.399C15.731 19.558 16.673 20.5 17.831 20.5H18.113C19.272 20.5 20.214 19.558 20.214 18.399Z" fill="black"/>
</svg>
