<svg width="24" height="24" viewBox="0 0 24 24" fill="none" xmlns="http://www.w3.org/2000/svg">
<mask id="mask0_702_2060" style="mask-type:luminance" maskUnits="userSpaceOnUse" x="4" y="2" width="16" height="20">
<path d="M4.5 2.50011H19.104V21.0001H4.5V2.50011Z" fill="white"/>
</mask>
<g mask="url(#mask0_702_2060)">
<path fill-rule="evenodd" clip-rule="evenodd" d="M6.043 16.2716C6.041 16.2816 6.039 16.2916 6.038 16.2996C6.018 16.5426 6 16.9436 6 17.1786V18.7506C6 19.1636 6.337 19.5006 6.75 19.5006H16.854C17.267 19.5006 17.604 19.1636 17.604 18.7506V9.97461C17.604 9.56061 17.267 9.22461 16.854 9.22461H14.824C14.502 9.22961 14.021 9.24461 13.469 8.92961C13.091 8.71261 12.831 8.37361 12.738 7.97461C12.663 7.65461 12.662 7.1436 13.078 6.52161C13.187 6.36061 13.299 6.2226 13.406 6.0916C13.644 5.8016 13.706 5.7156 13.706 5.4806C13.706 5.0356 13.545 4.67561 13.228 4.41061C12.804 4.05661 12.136 3.9216 11.442 4.0466C10.741 4.1746 10.218 4.75961 10.198 5.43861C10.189 5.74661 10.266 5.84161 10.52 6.15661C10.583 6.23461 10.648 6.31661 10.716 6.40561C11.171 7.00661 11.152 7.52861 11.056 7.86061C10.835 8.62261 10.071 8.94361 9.92 9.00061C9.578 9.12761 9.049 9.22461 8.688 9.22461H6.75C6.337 9.22461 6 9.56061 6 9.97461V11.4326C6 11.6006 6.015 11.9486 6.033 12.2036C6.036 12.2336 6.047 12.2776 6.06 12.3146C6.145 12.2866 6.306 12.2126 6.558 12.0226L6.75 11.8706C7.092 11.5936 7.517 11.2496 8.286 11.2496C9.1 11.2496 9.831 11.5746 10.347 12.1646C10.943 12.8476 11.206 13.8316 11.066 14.8626C10.87 16.3026 9.72 17.3666 8.332 17.3926C7.525 17.3816 7.07 17.0326 6.716 16.7336C6.642 16.6706 6.564 16.6056 6.479 16.5406C6.272 16.3816 6.129 16.3066 6.043 16.2716ZM16.854 21.0006H6.75C5.51 21.0006 4.5 19.9906 4.5 18.7506V17.1786C4.5 16.9106 4.52 16.4516 4.545 16.1606C4.582 15.7156 4.828 15.1056 5.399 14.8526C5.96 14.6016 6.631 14.7686 7.389 15.3476C7.494 15.4276 7.591 15.5096 7.683 15.5866C7.98 15.8376 8.007 15.8856 8.306 15.8926C8.938 15.8806 9.485 15.3506 9.58 14.6606C9.662 14.0586 9.529 13.5086 9.217 13.1506C8.984 12.8836 8.671 12.7496 8.286 12.7496C8.057 12.7496 7.986 12.7986 7.693 13.0366L7.463 13.2186C6.682 13.8106 5.992 13.9716 5.417 13.7116C4.633 13.3556 4.545 12.4166 4.537 12.3096C4.517 12.0206 4.5 11.6246 4.5 11.4326V9.97461C4.5 8.73361 5.51 7.72461 6.75 7.72461H8.688C8.87 7.72461 9.221 7.66061 9.394 7.59561C9.469 7.56461 9.574 7.49261 9.61 7.44561C9.601 7.43861 9.579 7.38861 9.52 7.31061L9.353 7.09961C9.034 6.70461 8.672 6.2566 8.698 5.3936C8.74 4.0126 9.78 2.82561 11.173 2.57161C12.319 2.36361 13.416 2.61461 14.189 3.2596C14.845 3.8066 15.206 4.5956 15.206 5.4806C15.206 6.2616 14.852 6.69461 14.566 7.04261C14.487 7.13861 14.403 7.23961 14.324 7.35761C14.196 7.54761 14.2 7.63761 14.2 7.63761C14.399 7.73361 14.544 7.73261 14.751 7.72561L14.945 7.72061L16.854 7.72461C18.094 7.72461 19.104 8.73361 19.104 9.97461V18.7506C19.104 19.9906 18.094 21.0006 16.854 21.0006Z" fill="black"/>
</g>
</svg>
