<svg width="24" height="24" viewBox="0 0 24 24" fill="none" xmlns="http://www.w3.org/2000/svg">
<path d="M7.95422 3.8385L8.28522 20.9545" stroke="black" stroke-width="1.5" stroke-linecap="round" stroke-linejoin="round"/>
<path d="M2.89001 8.9101H13.033" stroke="black" stroke-width="1.5" stroke-linecap="round" stroke-linejoin="round"/>
<path d="M4.37531 12.496L11.5473 5.32401" stroke="black" stroke-width="1.5" stroke-linecap="round" stroke-linejoin="round"/>
<path d="M11.5474 12.496L4.37543 5.32401" stroke="black" stroke-width="1.5" stroke-linecap="round" stroke-linejoin="round"/>
<path d="M14.7572 6.23111C14.6562 6.76011 15.1122 7.21611 15.6412 7.11511C15.9362 7.05811 16.1742 6.82011 16.2292 6.52511C16.3292 5.99711 15.8752 5.54411 15.3472 5.64311C15.0522 5.69911 14.8132 5.93611 14.7572 6.23111Z" fill="black"/>
<path d="M18.6659 3.9457C18.7649 3.4177 18.3119 2.9647 17.7839 3.0637C17.4889 3.1187 17.2499 3.3567 17.1939 3.6517C17.0929 4.1807 17.5489 4.6367 18.0779 4.5357C18.3729 4.4787 18.6109 4.2407 18.6659 3.9457Z" fill="black"/>
<path d="M18.6659 9.0539C18.7649 8.5259 18.3119 8.0729 17.7839 8.1719C17.4889 8.2269 17.2499 8.4649 17.1939 8.7599C17.0929 9.2889 17.5489 9.7449 18.0779 9.6439C18.3729 9.5869 18.6109 9.3489 18.6659 9.0539Z" fill="black"/>
<path d="M14.7572 11.3439C14.6562 11.8729 15.1122 12.3289 15.6412 12.2279C15.9362 12.1709 16.1742 11.9329 16.2292 11.6379C16.3292 11.1099 15.8752 10.6569 15.3472 10.7559C15.0522 10.8109 14.8132 11.0489 14.7572 11.3439Z" fill="black"/>
<path d="M21.1024 6.5263C21.2024 5.9983 20.7484 5.5433 20.2194 5.6433C19.9244 5.6993 19.6864 5.9363 19.6304 6.2323C19.5294 6.7603 19.9844 7.2153 20.5134 7.1153C20.8084 7.0593 21.0464 6.8213 21.1024 6.5263Z" fill="black"/>
<path d="M18.6659 14.4333C18.7649 13.9053 18.3119 13.4523 17.7839 13.5513C17.4889 13.6073 17.2499 13.8443 17.1939 14.1393C17.0929 14.6693 17.5489 15.1253 18.0779 15.0233C18.3729 14.9663 18.6109 14.7283 18.6659 14.4333Z" fill="black"/>
<mask id="mask0_702_2066" style="mask-type:luminance" maskUnits="userSpaceOnUse" x="19" y="10" width="3" height="3">
<path d="M19.6163 10.7419H21.1159V12.2417H19.6163V10.7419Z" fill="white"/>
</mask>
<g mask="url(#mask0_702_2066)">
<path fill-rule="evenodd" clip-rule="evenodd" d="M21.1024 11.6388C21.2024 11.1108 20.7484 10.6558 20.2194 10.7558C19.9244 10.8118 19.6864 11.0488 19.6304 11.3448C19.5294 11.8728 19.9844 12.3278 20.5134 12.2278C20.8084 12.1718 21.0464 11.9338 21.1024 11.6388Z" fill="black"/>
</g>
</svg>
