<svg width="24" height="24" viewBox="0 0 24 24" fill="none" xmlns="http://www.w3.org/2000/svg">
<path d="M13.2047 14.7091H7.70471C7.15171 14.7091 6.70471 14.2611 6.70471 13.7091V8.8741C6.70471 8.3221 7.15171 7.8741 7.70471 7.8741H13.2047C13.7567 7.8741 14.2047 8.3221 14.2047 8.8741V13.7091C14.2047 14.2611 13.7567 14.7091 13.2047 14.7091Z" fill="black"/>
<path d="M17.7496 21.0001H6.74957C4.95537 21.0001 3.49957 19.5443 3.49957 17.7501V6.75011C3.49957 4.95521 4.95507 3.50011 6.74957 3.50011H17.7496C19.5448 3.50011 20.9996 4.95491 20.9996 6.75011V17.7501C20.9996 19.5446 19.5445 21.0001 17.7496 21.0001ZM17.7496 19.5001C18.716 19.5001 19.4996 18.7163 19.4996 17.7501V6.75011C19.4996 5.78331 18.7164 5.00011 17.7496 5.00011H6.74957C5.78337 5.00011 4.99957 5.78371 4.99957 6.75011V17.7501C4.99957 18.7159 5.78377 19.5001 6.74957 19.5001H17.7496Z" fill="black"/>
</svg>
