<svg width="24" height="24" viewBox="0 0 24 24" fill="none" xmlns="http://www.w3.org/2000/svg">
<path fill-rule="evenodd" clip-rule="evenodd" d="M12 2.25C13.4191 2.25 14.5693 3.36743 14.5693 4.746C14.5693 6.1245 13.4191 7.24193 12 7.24193C10.5809 7.24193 9.43073 6.1245 9.43073 4.746C9.43073 3.36743 10.5809 2.25 12 2.25Z" fill="black"/>
<path fill-rule="evenodd" clip-rule="evenodd" d="M12 8.18671C7.8579 8.18671 4.5 11.3885 4.5 15.338C4.5 17.9398 5.95747 20.2172 8.13607 21.4687C8.14657 21.4742 8.15648 21.4799 8.16698 21.4847C8.47088 21.6531 8.82255 21.7499 9.19792 21.7499C10.3485 21.7499 11.2812 20.8439 11.2812 19.7258C11.2812 19.1059 10.994 18.5519 10.5425 18.1805L8.41515 16.2986C7.96867 15.904 7.93672 15.2324 8.34262 14.7994L8.36775 14.773C8.77402 14.3396 9.4653 14.3082 9.91125 14.7029L11.9787 16.5317L14.9711 13.3389C15.3845 12.8981 16.0872 12.8666 16.5408 13.2679C16.9948 13.6691 17.0274 14.3517 16.6143 14.7928L13.331 18.295C12.9542 18.6614 12.7213 19.1671 12.7213 19.726C12.7213 20.8439 13.654 21.75 14.8046 21.75C15.1767 21.75 15.5264 21.6548 15.8285 21.4885C15.83 21.4876 15.8327 21.486 15.8327 21.486C15.8353 21.4846 15.8367 21.4832 15.8399 21.4823C15.8681 21.4658 15.8974 21.449 15.9253 21.4317C18.0699 20.1731 19.5 17.9151 19.5 15.338C19.5 11.3885 16.1421 8.18671 12 8.18671Z" fill="black"/>
</svg>
