<svg width="24" height="24" viewBox="0 0 24 24" fill="none" xmlns="http://www.w3.org/2000/svg">
<path d="M12 2.5C9.69429 4.03157 6.98804 4.84901 4.22 4.85V13.85C4.22 18.33 12 21.5 12 21.5C12 21.5 19.78 18.33 19.78 13.84V4.84C17.013 4.84198 14.3068 4.02804 12 2.5ZM14.08 13.1C14.4602 13.1156 14.8188 13.2811 15.0774 13.5603C15.336 13.8395 15.4735 14.2097 15.46 14.59C15.4434 14.9343 15.303 15.2609 15.0647 15.5099C14.8264 15.7589 14.5061 15.9134 14.163 15.9451C13.8198 15.9767 13.4767 15.8833 13.1968 15.6821C12.917 15.4809 12.7193 15.1854 12.64 14.85L9.64 13.18C9.4052 13.3216 9.13398 13.3912 8.86 13.38C8.49741 13.3376 8.16445 13.1591 7.92848 12.8805C7.69252 12.602 7.57115 12.2442 7.58894 11.8796C7.60672 11.515 7.76233 11.1707 8.02429 10.9164C8.28625 10.6622 8.63501 10.5169 9 10.51C9.26086 10.5209 9.51358 10.604 9.73 10.75L12.66 8.68C12.6841 8.39982 12.7903 8.13296 12.9652 7.9128C13.1402 7.69265 13.3762 7.52896 13.6437 7.44223C13.9112 7.35549 14.1983 7.34956 14.4692 7.42516C14.7401 7.50077 14.9826 7.65455 15.1665 7.86729C15.3504 8.08003 15.4676 8.34227 15.5032 8.62122C15.5389 8.90016 15.4915 9.18343 15.367 9.43558C15.2425 9.68774 15.0464 9.89759 14.8033 10.0389C14.5601 10.1802 14.2807 10.2467 14 10.23C13.8242 10.2211 13.6514 10.1804 13.49 10.11L10.87 12L13.3 13.3C13.5367 13.163 13.8066 13.0938 14.08 13.1Z" fill="black"/>
</svg>
