<svg width="24" height="24" viewBox="0 0 24 24" fill="none" xmlns="http://www.w3.org/2000/svg">
<path d="M2.719 16.094C3.185 16.094 3.563 16.473 3.563 16.938V18.723C3.563 19.497 4.194 20.129 4.969 20.129H6.436C6.902 20.129 7.28 20.506 7.28 20.973C7.28 21.44 6.902 21.817 6.436 21.817H4.969C3.263 21.817 1.875 20.429 1.875 18.723V16.938C1.875 16.473 2.253 16.094 2.719 16.094ZM21.281 16.375C21.747 16.375 22.125 16.754 22.125 17.219V18.723C22.125 20.429 20.738 21.817 19.031 21.817H17.564C17.097 21.817 16.72 21.44 16.72 20.973C16.72 20.506 17.097 20.129 17.564 20.129H19.031C19.806 20.129 20.437 19.497 20.437 18.723V17.219C20.438 16.754 20.815 16.375 21.281 16.375ZM9.156 13.889C9.853 13.889 10.422 14.455 10.422 15.155V17.066C10.422 17.763 9.854 18.332 9.156 18.332H7.244C6.546 18.332 5.978 17.764 5.978 17.066V15.155C5.978 14.456 6.545 13.889 7.244 13.889H9.156ZM14.408 11.46V12.969H17.483V14.481H14.408V15.992H17.483V17.504H14.399V15.992H12.901V17.504H11.359V15.992H12.865V14.48H11.335V12.968H12.865V11.46H14.408ZM9.016 15.295H7.386V16.925H9.016V15.295ZM14.399 12.969H12.877V14.481H14.399V12.969ZM7.87 11.459V12.969H6.328V11.459H7.87ZM11.331 11.424V12.935H8.914V11.424H11.331ZM12.885 9.007V11.424H11.375V9.007H12.885ZM17.016 6.027C17.713 6.027 18.282 6.595 18.282 7.293V9.205C18.282 9.902 17.714 10.471 17.016 10.471H15.106C14.407 10.471 13.84 9.903 13.84 9.205V7.293C13.84 6.596 14.406 6.027 15.106 6.027H17.016ZM9.156 6.027C9.853 6.027 10.422 6.595 10.422 7.293V9.205C10.422 9.902 9.854 10.471 9.156 10.471H7.244C6.546 10.471 5.978 9.903 5.978 9.205V7.293C5.978 6.596 6.545 6.027 7.244 6.027H9.156ZM16.875 7.434H15.246V9.064H16.875V7.434ZM9.015 7.434H7.385V9.064H9.015V7.434ZM12.877 6.277V7.788H11.335V6.277H12.877ZM6.436 2.184C6.902 2.184 7.28 2.561 7.28 3.028C7.28 3.494 6.902 3.872 6.436 3.872H4.969C4.194 3.872 3.563 4.503 3.563 5.278V6.78C3.563 7.246 3.185 7.624 2.719 7.624C2.253 7.624 1.875 7.246 1.875 6.78V5.277C1.875 3.57 3.263 2.183 4.969 2.183L6.436 2.184ZM19.031 2.184C20.738 2.184 22.125 3.571 22.125 5.278V6.78C22.125 7.246 21.747 7.624 21.281 7.624C20.815 7.624 20.437 7.246 20.437 6.78V5.277C20.437 4.502 19.806 3.871 19.031 3.871H17.564C17.097 3.871 16.72 3.493 16.72 3.027C16.72 2.56 17.097 2.183 17.564 2.183L19.031 2.184Z" fill="black"/>
</svg>
