<svg width="24" height="24" viewBox="0 0 24 24" fill="none" xmlns="http://www.w3.org/2000/svg">
<path fill-rule="evenodd" clip-rule="evenodd" d="M8.22549 14.524C8.91449 14.524 9.47549 15.085 9.47549 15.774V18.898C9.47549 19.588 8.91449 20.148 8.22549 20.148H5.10249C4.41349 20.148 3.85249 19.588 3.85249 18.898V15.774C3.85249 15.085 4.41349 14.524 5.10249 14.524H8.22549ZM19.7995 18.268V20.034H16.3475V18.268H19.7995ZM14.5835 18.268V20.034H12.8195V18.268H14.5835ZM7.97549 16.024H5.35349V18.648H7.97549V16.024ZM12.8185 12.979V14.74H14.5835V16.504H12.8185V18.268H11.0545V12.979H12.8185ZM16.3475 16.504V18.268H14.5835V16.504H16.3475ZM14.5835 11.215V12.979L16.3455 12.978L16.3465 11.215H18.1095V12.979H16.3475V14.74H19.7985V16.504H16.3475V14.741H14.5835V12.979H12.8185V11.215H14.5835ZM5.82549 11.215V12.979H4.06249V11.215H5.82549ZM11.0535 11.215L11.0545 12.979H7.61049V11.215H11.0535ZM11.0538 7.44531L12.8188 7.4473L12.8185 11.215H11.0535L11.0538 7.44531ZM18.8975 3.85201C19.5875 3.85201 20.1475 4.41201 20.1475 5.10201V8.22501C20.1475 8.91401 19.5875 9.47501 18.8975 9.47501H15.7755C15.0865 9.47501 14.5255 8.91401 14.5255 8.22501V5.10201C14.5255 4.41201 15.0865 3.85201 15.7755 3.85201H18.8975ZM8.22549 3.85201C8.91449 3.85201 9.47549 4.41201 9.47549 5.10201V8.22501C9.47549 8.91401 8.91449 9.47501 8.22549 9.47501H5.10249C4.41349 9.47501 3.85249 8.91401 3.85249 8.22501V5.10201C3.85249 4.41201 4.41349 3.85201 5.10249 3.85201H8.22549ZM18.6475 5.35201H16.0255V7.97501H18.6475V5.35201ZM7.97449 5.35201H5.35249V7.97501H7.97449V5.35201ZM11.0543 4.03381L12.8193 4.03481V5.7948H11.0543V4.03381Z" fill="black"/>
</svg>
