<svg width="24" height="24" viewBox="0 0 24 24" fill="none" xmlns="http://www.w3.org/2000/svg">
<path d="M8.7116 8.77251V15.2275H7.3997V10.3598L5.887 10.8785V9.70701L5.9837 9.66761L8.4337 8.77251H8.7116ZM17.4633 8.77251V15.2275H16.1507L16.1512 10.3598L14.6388 10.8785V9.71021L14.7355 9.66761L17.1854 8.77251H17.4633ZM11.8913 13.1224C12.1328 13.1224 12.3031 13.1857 12.3934 13.3243C12.5186 13.4495 12.5734 13.6022 12.5734 13.8048C12.5734 13.9989 12.5121 14.1693 12.3934 14.2635C12.2701 14.387 12.0991 14.444 11.8913 14.444C11.6835 14.444 11.5124 14.387 11.3892 14.2635C11.264 14.1385 11.2089 13.9855 11.2089 13.7832C11.2089 13.5809 11.264 13.4279 11.3974 13.2955C11.5327 13.1872 11.7073 13.1224 11.8913 13.1224ZM11.8913 9.55701C12.1328 9.55701 12.3031 9.62021 12.3934 9.75881C12.5186 9.88401 12.5734 10.0368 12.5734 10.2393C12.5734 10.4335 12.5121 10.6038 12.3934 10.698C12.2701 10.8213 12.0991 10.8783 11.8913 10.8783C11.6835 10.8783 11.5124 10.8213 11.3892 10.698C11.264 10.5731 11.2089 10.4201 11.2089 10.2178C11.2089 10.0152 11.264 9.86251 11.3974 9.72981C11.5327 9.62171 11.7073 9.55701 11.8913 9.55701Z" fill="black"/>
<path d="M17.0815 2.375C19.3786 2.375 21.4256 4.2382 21.4256 6.4712C21.4256 6.8164 21.1458 7.0962 20.8006 7.0962C20.4555 7.0962 20.1756 6.8164 20.1756 6.4712C20.1756 5.0102 18.8157 3.7203 17.2556 3.63L17.0815 3.625H6.9172C5.2855 3.625 3.823 4.9561 3.823 6.4712C3.823 6.8164 3.5432 7.0962 3.198 7.0962C2.8528 7.0962 2.573 6.8164 2.573 6.4712C2.573 4.3058 4.4979 2.4882 6.7091 2.3801L6.9172 2.375H17.0815Z" fill="black"/>
<path d="M20.8006 16.8058C21.1457 16.8058 21.4256 17.0856 21.4256 17.4308C21.4256 19.5962 19.5007 21.4138 17.2895 21.5219L17.0814 21.527H6.9171C4.62 21.527 2.5729 19.6638 2.5729 17.4308C2.5729 17.0856 2.8528 16.8058 3.1979 16.8058C3.5431 16.8058 3.8229 17.0856 3.8229 17.4308C3.8229 18.8918 5.1829 20.1817 6.743 20.272L6.9171 20.277H17.0814C18.7131 20.277 20.1756 18.9459 20.1756 17.4308C20.1756 17.0856 20.4554 16.8058 20.8006 16.8058Z" fill="black"/>
</svg>
