<svg width="24" height="24" viewBox="0 0 24 24" fill="none" xmlns="http://www.w3.org/2000/svg">
<path d="M17.0815 2.375C19.3786 2.375 21.4256 4.2382 21.4256 6.4712C21.4256 6.8164 21.1458 7.0962 20.8006 7.0962C20.4555 7.0962 20.1756 6.8164 20.1756 6.4712C20.1756 5.0102 18.8157 3.7203 17.2556 3.63L17.0815 3.625H6.9172C5.2855 3.625 3.823 4.9561 3.823 6.4712C3.823 6.8164 3.5432 7.0962 3.198 7.0962C2.8528 7.0962 2.573 6.8164 2.573 6.4712C2.573 4.3058 4.4979 2.4882 6.7091 2.3801L6.9172 2.375H17.0815Z" fill="black"/>
<path d="M20.8006 16.8058C21.1457 16.8058 21.4256 17.0856 21.4256 17.4308C21.4256 19.5962 19.5007 21.4138 17.2895 21.5219L17.0814 21.527H6.91708C4.61998 21.527 2.57288 19.6638 2.57288 17.4308C2.57288 17.0856 2.85278 16.8058 3.19788 16.8058C3.54308 16.8058 3.82288 17.0856 3.82288 17.4308C3.82288 18.8918 5.18288 20.1817 6.74298 20.272L6.91708 20.277H17.0814C18.7131 20.277 20.1756 18.9459 20.1756 17.4308C20.1756 17.0856 20.4554 16.8058 20.8006 16.8058Z" fill="black"/>
<path d="M10.1461 7.5112C10.756 7.5112 11.2575 7.9748 11.3178 8.5688L11.3239 8.6893V11.1949C11.3239 11.5401 11.044 11.8199 10.6989 11.8199C10.3851 11.8199 10.1253 11.5886 10.0806 11.2872L10.0739 11.1949L10.0715 9.411C9.31905 10.0239 8.85775 10.9513 8.85775 11.962C8.85775 13.779 10.336 15.2527 12.1597 15.2527C13.9839 15.2527 15.4616 13.7793 15.4616 11.962C15.4616 10.4449 14.4248 9.1358 12.9693 8.7693C12.6346 8.685 12.4316 8.3454 12.5158 8.0106C12.6001 7.6759 12.9398 7.4729 13.2745 7.5572C15.2816 8.0626 16.7116 9.8681 16.7116 11.962C16.7116 14.4705 14.6735 16.5027 12.1597 16.5027C9.64645 16.5027 7.60775 14.4702 7.60775 11.962C7.60775 10.7323 8.10235 9.5922 8.93025 8.7603L7.63635 8.7612C7.32255 8.7612 7.06275 8.53 7.01805 8.2286L7.01135 8.1362C7.01135 7.8224 7.24255 7.5626 7.54395 7.518L7.63635 7.5112H10.1461Z" fill="black"/>
</svg>
