<svg width="24" height="24" viewBox="0 0 24 24" fill="none" xmlns="http://www.w3.org/2000/svg">
<path d="M22 17.0085C22 19.3057 20.1368 21.3527 17.9038 21.3527C17.5586 21.3527 17.2788 21.0729 17.2788 20.7277C17.2788 20.3825 17.5586 20.1027 17.9038 20.1027C19.3647 20.1027 20.6547 18.7428 20.745 17.1826L20.75 17.0085V6.84431C20.75 5.21261 19.4188 3.75011 17.9038 3.75011C17.5586 3.75011 17.2788 3.47031 17.2788 3.12511C17.2788 2.77991 17.5586 2.50011 17.9038 2.50011C20.0692 2.50011 21.8867 4.42491 21.9949 6.63621L22 6.84431V17.0085Z" fill="black"/>
<path d="M6.92121 20.7276C6.92121 21.0728 6.64141 21.3526 6.29621 21.3526C4.13081 21.3526 2.31331 19.4278 2.20511 17.2165L2.20001 17.0084V6.8442C2.20001 4.547 4.06321 2.5 6.29621 2.5C6.64141 2.5 6.92121 2.7798 6.92121 3.125C6.92121 3.4702 6.64141 3.75 6.29621 3.75C4.83531 3.75 3.54531 5.1099 3.45501 6.6701L3.45001 6.8442V17.0084C3.45001 18.6401 4.78121 20.1026 6.29621 20.1026C6.64141 20.1026 6.92121 20.3824 6.92121 20.7276Z" fill="black"/>
<path d="M16.6575 8.8261C17.2955 8.8261 17.8175 8.98809 18.1825 9.30809C18.5535 9.63209 18.7405 10.0941 18.7405 10.6681C18.7405 10.9731 18.6465 11.2551 18.4595 11.5121C18.3205 11.7031 18.1425 11.8671 17.9475 11.9851C18.1875 12.0971 18.3855 12.2601 18.5655 12.4791C18.7645 12.7231 18.8485 13.0331 18.8485 13.4351C18.8485 14.0071 18.6415 14.4931 18.2485 14.8391C17.8545 15.1871 17.3265 15.3661 16.6795 15.3661C16.0545 15.3661 15.5355 15.1981 15.1535 14.8611C14.7555 14.5101 14.5535 14.0661 14.5535 13.5231V13.4231H15.7765V13.5231C15.7765 13.7701 15.8605 13.9721 16.0315 14.1061C16.1815 14.2571 16.4155 14.3381 16.7015 14.3381C16.9995 14.3381 17.2175 14.2631 17.3975 14.1021C17.5685 13.9511 17.6475 13.7401 17.6475 13.4351C17.6475 13.1311 17.5685 12.9211 17.3975 12.7691C17.2215 12.6131 16.9625 12.5331 16.6145 12.5331H15.8205L15.8175 11.5061H16.5485C16.8405 11.5061 17.0625 11.4331 17.2505 11.2871C17.4135 11.1591 17.4945 10.9551 17.4945 10.6681C17.4945 10.3991 17.4235 10.2021 17.2845 10.0631C17.1495 9.9291 16.9325 9.8531 16.6575 9.8531C16.4085 9.8531 16.2115 9.9251 16.0475 10.0681C15.8985 10.1991 15.8205 10.3881 15.8205 10.6251V10.7241H14.5965V10.6251C14.5965 10.2811 14.6885 9.9781 14.8755 9.6981C15.0515 9.4341 15.2955 9.2241 15.6115 9.0541C15.9235 8.8981 16.2625 8.8261 16.6575 8.8261ZM8.93249 8.90209V12.8891H9.69549V13.9161H8.93249V15.2891H7.70949V13.9161H5.03249L5.02949 13.8201L5.02249 13.1321L7.76549 8.90209H8.93249ZM12.1823 13.1224C12.4238 13.1224 12.5942 13.1857 12.6844 13.3243C12.8096 13.4495 12.8644 13.6022 12.8644 13.8048C12.8644 13.9989 12.8032 14.1693 12.6844 14.2635C12.5612 14.387 12.3901 14.444 12.1823 14.444C11.9746 14.444 11.8035 14.387 11.6803 14.2635C11.555 14.1385 11.5 13.9855 11.5 13.7832C11.5 13.5809 11.555 13.4279 11.6884 13.2955C11.8238 13.1872 11.9984 13.1224 12.1823 13.1224ZM7.68749 10.7571L6.35449 12.8891H7.68749V10.7571ZM12.1823 9.557C12.4238 9.557 12.5942 9.62019 12.6844 9.75879C12.8096 9.88399 12.8644 10.0368 12.8644 10.2393C12.8644 10.4335 12.8032 10.6038 12.6844 10.698C12.5612 10.8213 12.3901 10.8783 12.1823 10.8783C11.9746 10.8783 11.8035 10.8213 11.6803 10.698C11.555 10.5731 11.5 10.4201 11.5 10.2178C11.5 10.0152 11.555 9.8625 11.6884 9.7298C11.8238 9.6217 11.9984 9.557 12.1823 9.557Z" fill="black"/>
</svg>
