<svg width="24" height="24" viewBox="0 0 24 24" fill="none" xmlns="http://www.w3.org/2000/svg">
<path d="M5.5839 7.00369C6.5136 7.00369 7.2742 7.23979 7.8061 7.70609C8.3467 8.17819 8.6192 8.85139 8.6192 9.68779C8.6192 10.1322 8.4822 10.5431 8.2097 10.9176C8.0072 11.1959 7.7478 11.4349 7.4636 11.6069C7.8134 11.7701 8.1019 12.0076 8.3642 12.3267C8.6541 12.6822 8.7765 13.1339 8.7765 13.7197C8.7765 14.5532 8.4749 15.2614 7.9022 15.7655C7.3281 16.2726 6.5588 16.5335 5.616 16.5335C4.7053 16.5335 3.949 16.2887 3.3924 15.7976C2.8124 15.2861 2.5181 14.6392 2.5181 13.8479V13.7022H4.3002V13.8479C4.3002 14.2079 4.4226 14.5022 4.6718 14.6975C4.8903 14.9175 5.2313 15.0355 5.648 15.0355C6.0823 15.0355 6.3999 14.9262 6.6622 14.6916C6.9114 14.4716 7.0265 14.1641 7.0265 13.7197C7.0265 13.2767 6.9114 12.9707 6.6622 12.7493C6.4058 12.5219 6.0284 12.4054 5.5213 12.4054H4.3643L4.3599 10.9089H5.4251C5.8506 10.9089 6.1741 10.8025 6.448 10.5898C6.6855 10.4033 6.8036 10.106 6.8036 9.68779C6.8036 9.29579 6.7001 9.00879 6.4976 8.80619C6.3008 8.61099 5.9846 8.50019 5.5839 8.50019C5.2211 8.50019 4.934 8.60509 4.6951 8.81349C4.478 9.00439 4.3643 9.27979 4.3643 9.62509V9.76939H2.5808V9.62509C2.5808 9.12389 2.7148 8.68239 2.9873 8.27439C3.2438 7.88969 3.5993 7.58369 4.0598 7.33599C4.5144 7.10869 5.0084 7.00369 5.5839 7.00369ZM20.5561 7.11449V12.9241H21.6679V14.4206H20.5561V16.4213H18.774V14.4206H14.8732L14.8688 14.2807L14.8586 13.2782L18.8556 7.11449H20.5561ZM11.7531 13.2641C12.105 13.2641 12.3532 13.3563 12.4848 13.5582C12.6672 13.7407 12.7471 13.9632 12.7471 14.2584C12.7471 14.5413 12.6578 14.7895 12.4848 14.9268C12.3052 15.1067 12.0559 15.1898 11.7531 15.1898C11.4504 15.1898 11.2011 15.1067 11.0215 14.9268C10.8391 14.7447 10.7589 14.5218 10.7589 14.227C10.7589 13.9322 10.8391 13.7092 11.0334 13.5163C11.2307 13.3584 11.4851 13.2641 11.7531 13.2641ZM18.7419 9.81749L16.7996 12.9241H18.7419V9.81749ZM11.7531 8.06879C12.105 8.06879 12.3532 8.16089 12.4848 8.36289C12.6672 8.54529 12.7471 8.76789 12.7471 9.06299C12.7471 9.34589 12.6578 9.59409 12.4848 9.73139C12.3052 9.91099 12.0559 9.99409 11.7531 9.99409C11.4504 9.99409 11.2011 9.91099 11.0215 9.73139C10.8391 9.54929 10.7589 9.32639 10.7589 9.03159C10.7589 8.73639 10.8391 8.51389 11.0334 8.32059C11.2307 8.16309 11.4851 8.06879 11.7531 8.06879Z" fill="black"/>
</svg>
