<svg width="24" height="24" viewBox="0 0 24 24" fill="none" xmlns="http://www.w3.org/2000/svg">
<path d="M23 15.8198C23 17.8376 21.3639 19.4737 19.3461 19.4737H4.6539C2.6359 19.4737 1 17.8377 1 15.8198V8.18021C1 6.16211 2.6358 4.52631 4.6539 4.52631H19.3461C21.3639 4.52631 23 6.16221 23 8.18021V15.8198ZM21.5689 15.8198V8.18021C21.5689 6.95261 20.5736 5.95741 19.3461 5.95741H4.6539C3.4262 5.95741 2.4311 6.95251 2.4311 8.18021V15.8198C2.4311 17.0473 3.4263 18.0426 4.6539 18.0426H19.3461C20.5735 18.0426 21.5689 17.0472 21.5689 15.8198Z" fill="black"/>
</svg>
