<svg width="24" height="24" viewBox="0 0 24 24" fill="none" xmlns="http://www.w3.org/2000/svg">
<path d="M23 15.8198C23 17.8376 21.3639 19.4737 19.3461 19.4737H4.6539C2.6359 19.4737 1 17.8377 1 15.8198V8.18021C1 6.16211 2.6358 4.52631 4.6539 4.52631H19.3461C21.3639 4.52631 23 6.16221 23 8.18021V15.8198ZM16.0071 10.4353C16.1995 10.1567 16.1714 9.77181 15.923 9.52421C15.6437 9.24571 15.1914 9.24641 14.9129 9.52581L11.3273 13.1201L9.0871 10.8725L8.9883 10.7897C8.7102 10.5964 8.3253 10.6233 8.077 10.8709C7.7976 11.1494 7.7969 11.6017 8.0754 11.8811L10.5461 14.3593L10.6503 14.4516C11.0842 14.7899 11.7127 14.7592 12.1113 14.3593L15.9246 10.5344L16.0071 10.4353Z" fill="black"/>
</svg>
