<svg width="24" height="24" viewBox="0 0 24 24" fill="none" xmlns="http://www.w3.org/2000/svg">
<path d="M18.3839 7.00369C19.3136 7.00369 20.0742 7.23979 20.6061 7.70609C21.1467 8.17819 21.4192 8.85139 21.4192 9.68779C21.4192 10.1322 21.2822 10.5431 21.0097 10.9176C20.8072 11.1959 20.5478 11.4349 20.2636 11.6069C20.6134 11.7701 20.9019 12.0076 21.1642 12.3267C21.4541 12.6822 21.5765 13.1339 21.5765 13.7197C21.5765 14.5532 21.2749 15.2614 20.7022 15.7655C20.1281 16.2726 19.3588 16.5335 18.416 16.5335C17.5053 16.5335 16.749 16.2887 16.1924 15.7976C15.6124 15.2861 15.3181 14.6392 15.3181 13.8479V13.7022H17.1002V13.8479C17.1002 14.2079 17.2226 14.5022 17.4718 14.6975C17.6903 14.9175 18.0313 15.0355 18.448 15.0355C18.8823 15.0355 19.1999 14.9262 19.4622 14.6916C19.7114 14.4716 19.8265 14.1641 19.8265 13.7197C19.8265 13.2767 19.7114 12.9707 19.4622 12.7493C19.2058 12.5219 18.8284 12.4054 18.3213 12.4054H17.1643L17.1599 10.9089H18.2251C18.6506 10.9089 18.9741 10.8025 19.248 10.5898C19.4855 10.4033 19.6036 10.106 19.6036 9.68779C19.6036 9.29579 19.5001 9.00879 19.2976 8.80619C19.1008 8.61099 18.7846 8.50019 18.3839 8.50019C18.0211 8.50019 17.734 8.60509 17.4951 8.81349C17.278 9.00439 17.1643 9.27979 17.1643 9.62509V9.76939H15.3808V9.62509C15.3808 9.12389 15.5148 8.68239 15.7873 8.27439C16.0438 7.88969 16.3993 7.58369 16.8598 7.33599C17.3144 7.10869 17.8084 7.00369 18.3839 7.00369ZM7.55611 7.11449V12.9241H8.66791V14.4206H7.55611V16.4213H5.77401V14.4206H1.87321L1.86881 14.2807L1.85861 13.2782L5.85561 7.11449H7.55611ZM11.9531 13.2641C12.305 13.2641 12.5532 13.3563 12.6848 13.5582C12.8672 13.7407 12.9471 13.9632 12.9471 14.2584C12.9471 14.5413 12.8578 14.7895 12.6848 14.9268C12.5052 15.1067 12.2559 15.1898 11.9531 15.1898C11.6504 15.1898 11.4011 15.1067 11.2215 14.9268C11.0391 14.7447 10.9589 14.5218 10.9589 14.227C10.9589 13.9322 11.0391 13.7092 11.2334 13.5163C11.4307 13.3584 11.6851 13.2641 11.9531 13.2641ZM5.74191 9.81749L3.79961 12.9241H5.74191V9.81749ZM11.9531 8.06879C12.305 8.06879 12.5532 8.16089 12.6848 8.36289C12.8672 8.54529 12.9471 8.76789 12.9471 9.06299C12.9471 9.34589 12.8578 9.59409 12.6848 9.73139C12.5052 9.91099 12.2559 9.99409 11.9531 9.99409C11.6504 9.99409 11.4011 9.91099 11.2215 9.73139C11.0391 9.54929 10.9589 9.32639 10.9589 9.03159C10.9589 8.73639 11.0391 8.51389 11.2334 8.32059C11.4307 8.16309 11.6851 8.06879 11.9531 8.06879Z" fill="black"/>
</svg>
