<svg width="24" height="24" viewBox="0 0 24 24" fill="none" xmlns="http://www.w3.org/2000/svg">
<path d="M15.8974 1.1033C17.9117 1.1033 19.5449 2.7365 19.5449 4.7507V19.4174C19.5449 21.4318 17.9117 23.0649 15.8974 23.0649H8.2711C6.2566 23.0649 4.6236 21.4319 4.6236 19.4174V4.7507C4.6236 2.7365 6.2567 1.1033 8.2711 1.1033H15.8974ZM16.0073 9.6083C15.7279 9.3298 15.2757 9.3305 14.9972 9.6098L11.4116 13.2042L9.1714 10.9565L9.0726 10.8737C8.7945 10.6804 8.4096 10.7074 8.1613 10.955C7.8819 11.2335 7.8812 11.6857 8.1597 11.9651L10.6304 14.4434L10.7345 14.5357C11.1685 14.874 11.797 14.8432 12.1955 14.4434L16.0088 10.6184L16.0913 10.5194C16.2838 10.2407 16.2556 9.8559 16.0073 9.6083Z" fill="black"/>
</svg>
