<svg width="24" height="24" viewBox="0 0 24 24" fill="none" xmlns="http://www.w3.org/2000/svg">
<path d="M15.8974 1.1033C17.9117 1.1033 19.5449 2.7365 19.5449 4.7507V19.4174C19.5449 21.4318 17.9117 23.0649 15.8974 23.0649H8.2711C6.2566 23.0649 4.6236 21.4319 4.6236 19.4174V4.7507C4.6236 2.7365 6.2567 1.1033 8.2711 1.1033H15.8974ZM15.8974 2.5318H8.2711C7.0457 2.5318 6.0522 3.5254 6.0522 4.7507V19.4174C6.0522 20.6429 7.0456 21.6363 8.2711 21.6363H15.8974C17.1228 21.6363 18.1164 20.6428 18.1164 19.4174V4.7507C18.1164 3.5255 17.1227 2.5318 15.8974 2.5318Z" fill="black"/>
</svg>
