<svg width="24" height="24" viewBox="0 0 24 24" fill="none" xmlns="http://www.w3.org/2000/svg">
<path d="M15.1668 8.96249C15.2758 9.05349 16.5218 10.1325 16.5218 12.0855C16.5218 14.0385 15.2758 15.1175 15.1668 15.2095M17.3138 6.10409C17.5868 6.33509 19.9758 8.43409 19.9748 12.0861C19.9748 15.7381 17.5868 17.8361 17.3138 18.0671M8.30403 19.631C9.40803 19.631 10.304 18.735 10.304 17.631V12.323C10.304 11.773 10.754 11.323 11.304 11.323H11.414C11.965 11.323 12.297 10.888 12.154 10.357L10.838 5.47399C10.673 4.86399 10.022 4.36499 9.39003 4.36499H6.03003C4.93103 4.36499 4.03003 5.26499 4.03003 6.36499V17.631C4.03003 18.735 4.92603 19.631 6.03003 19.631H8.30403Z" stroke="black" stroke-width="1.5" stroke-linecap="round" stroke-linejoin="round"/>
</svg>
