<svg width="24" height="24" viewBox="0 0 24 24" fill="none" xmlns="http://www.w3.org/2000/svg">
<path d="M19.6558 17.5513C19.6558 17.9648 19.3193 18.3013 18.9058 18.3013H15.2475C13.835 18.3013 13.2032 18.6217 12.7245 19.0498V6.98199C12.7395 6.92269 12.75 6.86169 12.75 6.79769C12.75 6.42879 13.5227 5.36179 14.9975 5.36179H18.9058C19.3193 5.36179 19.6558 5.69819 19.6558 6.11169V17.5513ZM8.75098 18.3013H5.09418C4.68068 18.3013 4.34418 17.9648 4.34418 17.5513V6.11169C4.34418 5.69819 4.68068 5.36179 5.09418 5.36179H9.00098C10.3282 5.36179 11.0852 6.22349 11.2245 6.66579V19.005C10.751 18.5995 10.1143 18.3013 8.75098 18.3013ZM18.9058 3.86179H14.9975C13.6897 3.86179 12.6525 4.43029 12.0037 5.14049C11.9058 5.03379 11.7987 4.93049 11.684 4.83169C10.956 4.20629 10.0033 3.86179 9.00098 3.86179H5.09418C3.85368 3.86179 2.84418 4.87129 2.84418 6.11169V17.5513C2.84418 18.7917 3.85368 19.8013 5.09418 19.8013H8.75098C9.93468 19.8013 10.1545 20.0303 10.4585 20.347C10.6093 20.5037 10.7968 20.699 11.068 20.8703C11.351 21.049 11.6755 21.1383 11.9998 21.1383C12.3243 21.1383 12.6488 21.0487 12.9318 20.8703C13.2032 20.6987 13.3907 20.5035 13.5413 20.3465C13.845 20.03 14.0645 19.8013 15.2475 19.8013H18.9058C20.1462 19.8013 21.1558 18.7917 21.1558 17.5513V6.11169C21.1558 4.87129 20.1462 3.86179 18.9058 3.86179Z" fill="black"/>
</svg>
