<svg width="24" height="24" viewBox="0 0 24 24" fill="none" xmlns="http://www.w3.org/2000/svg">
<path fill-rule="evenodd" clip-rule="evenodd" d="M8.00128 5.40171C9.85418 5.40171 11.0002 6.27671 11.0002 7.08771V18.3487C11.0002 18.4337 10.9583 18.5127 10.8853 18.5587C10.8442 18.5847 10.7972 18.5987 10.7502 18.5987C10.7153 18.5987 10.6792 18.5907 10.6462 18.5747L10.5392 18.5267C9.87718 18.2207 8.80328 17.8407 7.75118 17.8407H4.59418C3.76528 17.8407 3.09418 17.1687 3.09418 16.3407V6.90171C3.09418 6.07271 3.76528 5.40171 4.59418 5.40171H8.00128ZM19.4058 5.40131C20.2348 5.40131 20.9058 6.07331 20.9058 6.90131V16.3403C20.9058 17.1693 20.2348 17.8403 19.4058 17.8403H16.2477C15.1958 17.8403 14.1217 18.2213 13.4598 18.5263L13.3547 18.5753C13.3228 18.5903 13.2858 18.5983 13.2498 18.5983C13.2028 18.5983 13.1558 18.5853 13.1147 18.5583C13.0438 18.5123 12.9998 18.4333 12.9998 18.3483V7.08831C12.9998 6.27631 14.1458 5.40131 15.9977 5.40131H19.4058Z" fill="black"/>
</svg>
