<svg width="24" height="24" viewBox="0 0 24 24" fill="none" xmlns="http://www.w3.org/2000/svg">
<path d="M6.60179 10.9014C6.32479 10.9014 6.07179 10.8004 5.86779 10.6384C5.66479 10.4784 5.51379 10.2544 5.43879 9.9934C5.40579 9.8794 5.40079 9.4924 5.40679 9.3944C5.45179 8.5034 5.88079 7.3814 7.24479 6.7184C7.43679 6.6264 7.66779 6.7064 7.76079 6.8974C7.85379 7.0884 7.76479 7.3024 7.58179 7.4134C6.96379 7.7864 6.82079 8.1244 6.87879 8.4034C7.41679 8.5344 7.81979 9.0344 7.81979 9.6334C7.81979 10.3344 7.27479 10.9014 6.60179 10.9014ZM9.75269 10.9014C9.47669 10.9014 9.22369 10.8004 9.01969 10.6384C8.81569 10.4784 8.66469 10.2544 8.58969 9.9934C8.55769 9.8794 8.55169 9.4924 8.55869 9.3944C8.60369 8.5034 9.03169 7.3814 10.3967 6.7184C10.5877 6.6264 10.8197 6.7064 10.9117 6.8974C11.0047 7.0884 10.9157 7.3024 10.7337 7.4134C10.1137 7.7864 9.97169 8.1244 10.0297 8.4034C10.5687 8.5344 10.9707 9.0344 10.9707 9.6334C10.9707 10.3344 10.4257 10.9014 9.75269 10.9014ZM15.4408 10.5899C15.3958 11.4819 14.9668 12.6029 13.6028 13.2659C13.4108 13.3589 13.1798 13.2789 13.0868 13.0879C12.9938 12.8959 13.0828 12.6819 13.2658 12.5719C13.8848 12.1989 14.0278 11.8609 13.9698 11.5809C13.4308 11.4499 13.0288 10.9499 13.0288 10.3509C13.0288 9.6519 13.5728 9.0839 14.2458 9.0839C14.5228 9.0839 14.7758 9.1839 14.9798 9.3449C15.1838 9.5059 15.3338 9.7309 15.4088 9.9919C15.4418 10.1059 15.4468 10.4919 15.4408 10.5899ZM18.5918 10.5899C18.5468 11.4819 18.1178 12.6029 16.7538 13.2659C16.5628 13.3589 16.3308 13.2789 16.2378 13.0879C16.1458 12.8959 16.2348 12.6819 16.4168 12.5719C17.0358 12.1989 17.1788 11.8609 17.1198 11.5809C16.5818 11.4499 16.1798 10.9499 16.1798 10.3509C16.1798 9.6519 16.7248 9.0839 17.3978 9.0839C17.6738 9.0839 17.9268 9.1839 18.1308 9.3449C18.3348 9.5059 18.4858 9.7309 18.5608 9.9919C18.5928 10.1059 18.5988 10.4919 18.5918 10.5899Z" fill="black"/>
<path fill-rule="evenodd" clip-rule="evenodd" d="M8.014 16.5C8.152 16.5 8.264 16.611 8.264 16.75V19.984C8.264 20.521 8.586 20.661 8.979 20.298L13.255 16.62C13.346 16.542 13.461 16.5 13.581 16.5H17.75C19.406 16.5 20.75 15.156 20.75 13.5V6.5C20.75 4.843 19.406 3.5 17.75 3.5H6.25C4.593 3.5 3.25 4.843 3.25 6.5V13.5C3.25 15.156 4.593 16.5 6.25 16.5H8.014Z" stroke="black" stroke-width="1.5" stroke-linecap="round" stroke-linejoin="round"/>
</svg>
