<svg width="24" height="24" viewBox="0 0 24 24" fill="none" xmlns="http://www.w3.org/2000/svg">
<path d="M13.96 6.53918C13.546 6.53918 13.21 6.20318 13.21 5.78918C13.21 5.37518 13.546 5.03918 13.96 5.03918H18.816C19.23 5.03918 19.566 5.37518 19.566 5.78918C19.566 6.20318 19.23 6.53918 18.816 6.53918H13.96ZM13.96 10.8392C13.546 10.8392 13.21 10.5032 13.21 10.0892C13.21 9.67518 13.546 9.33918 13.96 9.33918H18.816C19.23 9.33918 19.566 9.67518 19.566 10.0892C19.566 10.5032 19.23 10.8392 18.816 10.8392H13.96ZM4.64999 15.1392C4.23599 15.1392 3.89999 14.8042 3.89999 14.3892C3.89999 13.9752 4.23599 13.6392 4.64999 13.6392H19.15C19.564 13.6392 19.9 13.9752 19.9 14.3892C19.9 14.8042 19.564 15.1392 19.15 15.1392H4.64999ZM4.64999 19.4392C4.23599 19.4392 3.89999 19.1042 3.89999 18.6892C3.89999 18.2752 4.23599 17.9392 4.64999 17.9392H19.15C19.564 17.9392 19.9 18.2752 19.9 18.6892C19.9 19.1042 19.564 19.4392 19.15 19.4392H4.64999Z" fill="black"/>
<path fill-rule="evenodd" clip-rule="evenodd" d="M5.96001 11.1H8.96001C9.92601 11.1 10.71 10.316 10.71 9.35001V6.35001C10.71 5.38301 9.92601 4.60001 8.96001 4.60001H5.96001C4.99301 4.60001 4.21001 5.38301 4.21001 6.35001V9.35001C4.21001 10.316 4.99301 11.1 5.96001 11.1Z" fill="black"/>
</svg>
