<svg width="24" height="24" viewBox="0 0 24 24" fill="none" xmlns="http://www.w3.org/2000/svg">
<path d="M5.28231 10.1563C5.12596 9.99172 4.8762 9.9079 4.53217 9.90564H3.56613V11.6949H4.5175C4.84939 11.6949 5.09859 11.6114 5.26538 11.444C5.43274 11.2769 5.51627 11.0664 5.51627 10.813C5.51627 10.5401 5.43838 10.3211 5.28231 10.1563Z" fill="black"/>
<path d="M22.4455 6.39624C22.2993 6.39624 22.1529 6.43942 22.0095 6.52493L17.7722 8.98646V7.535C17.7722 5.98279 16.5023 4.7128 14.95 4.7128H3.94346C2.39125 4.7128 1.12126 5.98279 1.12126 7.535V16.2838C1.12126 17.836 2.39125 19.106 3.94346 19.106H14.95C16.5023 19.106 17.7722 17.836 17.7722 16.2838V14.8236L22.0067 17.271C22.1571 17.3712 22.312 17.422 22.467 17.422C22.7989 17.422 23.1344 17.1624 23.1344 16.6662V7.16445C23.1344 6.66012 22.7879 6.39624 22.4455 6.39624ZM6.65786 14.4903H5.67008L4.6016 12.4377H3.56613V14.4903H2.64412V9.16313H4.5175C5.12992 9.16313 5.60292 9.29944 5.93707 9.57291C6.2715 9.8461 6.43829 10.2449 6.43829 10.7692C6.43829 11.1254 6.35165 11.424 6.17836 11.6659C6.00536 11.9072 5.76604 12.0914 5.46124 12.2182L6.65757 14.4429L6.65786 14.4903ZM10.8071 14.4903H7.32389V9.16313H10.7814V9.90593H8.24591V11.3805H10.434V12.1087H8.24591V13.7515H10.8071V14.4903ZM12.6059 13.329C12.7944 13.6541 13.1049 13.8172 13.537 13.8172C13.9343 13.8172 14.2166 13.7258 14.3842 13.5426C14.5507 13.3597 14.6565 13.0973 14.7006 12.7561H15.6223C15.576 13.2731 15.3804 13.7035 15.0353 14.0475C14.6901 14.3915 14.1909 14.5634 13.537 14.5634C12.8805 14.5634 12.3587 14.3351 11.9709 13.8787C11.5832 13.423 11.389 12.8105 11.389 12.0423V11.6105C11.389 10.8446 11.5865 10.233 11.9819 9.77555C12.3773 9.31835 12.9099 9.08947 13.5807 9.08947C14.2174 9.08947 14.704 9.26219 15.0409 9.60706C15.3776 9.9525 15.5729 10.3908 15.6262 10.9225H14.7037C14.6644 10.5835 14.5626 10.3177 14.3983 10.1249C14.2335 9.93218 13.9611 9.83622 13.5804 9.83622C13.1611 9.83622 12.8472 9.98919 12.6384 10.2951C12.4301 10.6016 12.3243 11.0311 12.3217 11.5849V12.0423C12.3217 12.5743 12.4163 13.0027 12.6059 13.329Z" fill="black"/>
</svg>
