<svg width="24" height="24" viewBox="0 0 24 24" fill="none" xmlns="http://www.w3.org/2000/svg">
<g clip-path="url(#clip0_702_2190)">
<path d="M17.25 15.15C17.25 16.308 16.308 17.25 15.15 17.25H6.75V8.85001C6.75 7.69201 7.692 6.75001 8.85 6.75001H17.25V15.15ZM22.65 4.95001H19.05V1.35001C19.05 0.852012 18.6468 0.450012 18.15 0.450012C17.6532 0.450012 17.25 0.852012 17.25 1.35001V4.95001H8.85C6.6996 4.95001 4.95 6.69961 4.95 8.85001V17.25H1.35C0.853201 17.25 0.450001 17.652 0.450001 18.15C0.450001 18.6468 0.853201 19.05 1.35 19.05H4.95V22.65C4.95 23.1468 5.3532 23.55 5.85 23.55C6.3468 23.55 6.75 23.1468 6.75 22.65V19.05H15.15C17.3004 19.05 19.05 17.3004 19.05 15.15V6.75001H22.65C23.1468 6.75001 23.55 6.34681 23.55 5.85001C23.55 5.35201 23.1468 4.95001 22.65 4.95001Z" fill="black"/>
</g>
<defs>
<clipPath id="clip0_702_2190">
<rect width="24" height="24" fill="white"/>
</clipPath>
</defs>
</svg>
