<svg width="24" height="24" viewBox="0 0 24 24" fill="none" xmlns="http://www.w3.org/2000/svg">
<path d="M19.6819 7.52241L16.3779 4.21941C16.0849 3.92641 15.6109 3.92641 15.3179 4.21941C15.0249 4.51241 15.0249 4.98741 15.3179 5.28041L17.6979 7.66041H14.2079C8.5959 7.66041 3.9949 12.2634 3.9529 17.9134C3.9529 17.9374 3.9529 19.2254 3.9529 19.2504C3.9529 19.6644 4.2879 20.0004 4.7029 20.0004C5.1179 20.0004 5.4529 19.6644 5.4529 19.2504C5.4529 19.2254 5.4529 18.0014 5.4529 17.9334C5.4899 13.0954 9.4169 9.16041 14.2079 9.16041H17.6949L15.3239 11.5404C15.0319 11.8344 15.0329 12.3084 15.3259 12.6014C15.4719 12.7474 15.6629 12.8194 15.8549 12.8194C16.0469 12.8194 16.2399 12.7464 16.3869 12.5984L19.6839 9.28941C20.1689 8.80141 20.1679 8.00841 19.6819 7.52241Z" fill="black"/>
</svg>
