<svg width="24" height="24" viewBox="0 0 24 24" fill="none" xmlns="http://www.w3.org/2000/svg">
<path fill-rule="evenodd" clip-rule="evenodd" d="M12.3505 8.24539L12.3575 15.4404L10.8745 15.4414L10.8715 12.3574L7.9805 12.3604L7.9835 15.4444L6.4965 15.4454L6.4895 8.25139L7.9765 8.24939L7.9795 11.1654L10.8705 11.1624L10.8675 8.24639L12.3505 8.24539ZM17.7329 10.0881L17.7339 10.9281L15.1969 14.2861L17.8119 14.2831L17.8129 15.4341L13.3749 15.4391L13.3739 14.5691L15.8959 11.2411L13.4499 11.2431L13.4489 10.0921L17.7329 10.0881Z" fill="black"/>
<path d="M17.513 20L6.513 20.011C5.132 20.012 4.012 18.894 4.011 17.513L4 6.513C3.999 5.133 5.117 4.012 6.497 4.011L17.497 4C18.878 3.999 19.999 5.117 20 6.498L20.011 17.498C20.012 18.878 18.894 19.999 17.513 20Z" stroke="black" stroke-width="1.5" stroke-linecap="round" stroke-linejoin="round"/>
</svg>
