<svg width="24" height="24" viewBox="0 0 24 24" fill="none" xmlns="http://www.w3.org/2000/svg">
<path fill-rule="evenodd" clip-rule="evenodd" d="M15.8884 11.3747C18.3694 11.3747 20.3884 13.3937 20.3884 15.8747C20.3884 18.3557 18.3694 20.3747 15.8884 20.3747C13.4074 20.3747 11.3884 18.3557 11.3884 15.8747C11.3884 13.3937 13.4074 11.3747 15.8884 11.3747ZM14.6018 3.6335C16.0178 3.5665 17.3838 3.8895 18.8178 5.3215V5.3225C19.2718 5.7775 19.3768 6.1405 19.3598 6.4905C19.3438 6.8425 19.2028 7.2185 18.7048 7.7165L17.4498 8.9715C16.9508 9.4695 16.5758 9.6105 16.2238 9.6275C15.8748 9.6425 15.5108 9.5385 15.0598 9.0895L14.5538 8.5835C14.0998 8.1295 13.7358 8.0225 13.3838 8.0405C13.0958 8.0555 12.8078 8.1995 12.7758 8.2165C12.2708 8.4775 9.91281 9.8095 8.29181 12.6415C8.23481 12.7275 8.03181 13.1085 8.02681 13.3975C8.02181 13.7495 8.11681 14.1125 8.56981 14.5665L9.07581 15.0725C9.52481 15.5235 9.62981 15.8865 9.61381 16.2375C9.59781 16.5895 9.45681 16.9655 8.95881 17.4625L7.70181 18.7165C7.20581 19.2165 6.82981 19.3565 6.47781 19.3735C6.12681 19.3905 5.76381 19.2855 5.31381 18.8355L5.30981 18.8315C3.87681 17.3965 3.55281 16.0305 3.61981 14.6155C3.66181 13.7325 3.89681 12.8115 4.55481 11.7565C4.55381 11.7545 4.66181 11.5895 4.71681 11.5095C4.75181 11.4575 4.78881 11.4045 4.82481 11.3515C7.83301 7.0639 11.4382 4.7592 11.7334 4.5746L11.7528 4.5625C12.8028 3.9085 13.7218 3.6745 14.6018 3.6335ZM13.1914 14.0627C12.8424 14.5807 12.6384 15.2047 12.6384 15.8747C12.6384 17.6667 14.0964 19.1247 15.8884 19.1247C16.5594 19.1247 17.1824 18.9207 17.7004 18.5717L13.1914 14.0627ZM15.8884 12.6247C15.2174 12.6247 14.5934 12.8297 14.0754 13.1787L18.5844 17.6877C18.9344 17.1697 19.1384 16.5457 19.1384 15.8747C19.1384 14.0827 17.6804 12.6247 15.8884 12.6247Z" fill="black"/>
</svg>
