<svg width="24" height="24" viewBox="0 0 24 24" fill="none" xmlns="http://www.w3.org/2000/svg">
<path fill-rule="evenodd" clip-rule="evenodd" d="M13.4604 18.407C13.8208 18.0455 14.4064 18.0455 14.7679 18.407C15.1294 18.7675 15.1294 19.3531 14.7679 19.7146C14.028 20.4545 13.046 20.8615 11.9996 20.8615C10.9542 20.8615 9.97109 20.4545 9.23229 19.7146C8.87079 19.3531 8.87079 18.7675 9.23229 18.407C9.59269 18.0455 10.1783 18.0455 10.5398 18.407C10.9299 18.796 11.4478 19.0117 11.9996 19.0117C12.5513 19.0117 13.0704 18.796 13.4604 18.407ZM12 3.13849C15.1309 3.13849 17.6826 5.61299 17.8073 8.71329H17.8137V11.2343L19.7998 15.4075C20.0017 16.3905 19.2512 16.7838 18.2471 16.7838H5.75289C4.74879 16.7838 3.99829 16.3905 4.20019 15.4075L6.18629 11.2343V8.71329C6.31739 5.61299 8.86909 3.13849 12 3.13849Z" fill="black"/>
</svg>
