<svg width="24" height="24" viewBox="0 0 24 24" fill="none" xmlns="http://www.w3.org/2000/svg">
<path fill-rule="evenodd" clip-rule="evenodd" d="M13.7325 18.4301C14.0931 18.0695 14.6773 18.0695 15.038 18.4301C15.3976 18.7907 15.3976 19.3739 15.038 19.7345C14.2998 20.4727 13.3191 20.8787 12.2762 20.8787C11.2333 20.8787 10.2526 20.4727 9.51437 19.7345C9.15477 19.3739 9.15477 18.7907 9.51437 18.4301C9.87507 18.0695 10.4593 18.0695 10.8199 18.4301C11.209 18.8182 11.7268 19.0333 12.2762 19.0333C12.8267 19.0333 13.3444 18.8182 13.7325 18.4301ZM3.49457 3.35139C3.78667 3.05829 4.24957 3.04669 4.56067 3.30819L20.1075 18.856C20.369 19.166 20.3574 19.629 20.0642 19.9211C19.9103 20.0761 19.7078 20.1531 19.5053 20.1531C19.3029 20.1531 19.1004 20.0761 18.9465 19.9211L15.8356 16.8113H6.04437C5.04257 16.8113 4.29287 16.419 4.49527 15.4373L6.47677 11.2751V8.75899C6.49887 8.36779 6.55267 7.98599 6.64227 7.61799L3.49457 4.47029C3.18557 4.16129 3.18557 3.65939 3.49457 3.35139ZM12.2761 3.19719C15.3996 3.19719 17.9452 5.66679 18.0707 8.75969H18.0759V11.2748L20.0574 15.437C20.1417 15.8472 20.0584 16.154 19.8612 16.3723L8.28257 4.79369C9.32237 3.80559 10.7281 3.19719 12.2761 3.19719Z" fill="black"/>
</svg>
