<svg width="24" height="24" viewBox="0 0 24 24" fill="none" xmlns="http://www.w3.org/2000/svg">
<path d="M9.73998 19.305C10.346 19.737 11.135 20 12 20C12.866 20 13.655 19.737 14.26 19.305M5.08298 15.137L6.57198 12.044C6.62598 11.932 6.65398 11.81 6.65398 11.685V9.135C6.65798 9.113 6.65898 9.089 6.65998 9.067C6.77598 6.225 9.11998 4 12 4C14.88 4 17.224 6.225 17.34 9.067L17.346 9.136V11.686C17.346 11.81 17.374 11.932 17.428 12.044L18.917 15.137C19.184 15.691 18.775 16.329 18.155 16.329H5.84498C5.22498 16.329 4.81598 15.691 5.08298 15.137Z" stroke="black" stroke-width="1.5" stroke-linecap="round" stroke-linejoin="round"/>
</svg>
