<svg width="24" height="24" viewBox="0 0 24 24" fill="none" xmlns="http://www.w3.org/2000/svg">
<path d="M16.326 14.7643C16.6177 14.4702 17.0926 14.4684 17.3866 14.7601C17.6807 15.0518 17.6825 15.5267 17.3908 15.8208L13.1992 20.0454C12.543 20.7052 11.4749 20.7063 10.8191 20.0468L6.61013 15.8218C6.31773 15.5284 6.31863 15.0535 6.61213 14.7612C6.90553 14.4688 7.38043 14.4697 7.67273 14.7632L11.8822 18.9886C11.9515 19.0584 12.0654 19.0582 12.135 18.9883L16.326 14.7643ZM10.8027 3.95169C11.4586 3.29569 12.5241 3.29459 13.1785 3.95079L17.4055 8.17979C17.6983 8.47279 17.6982 8.94759 17.4052 9.24049C17.1122 9.53329 16.6374 9.53319 16.3445 9.24019L12.1169 5.01059C12.0483 4.94179 11.9338 4.94189 11.8646 5.01109L7.65663 9.23909C7.36443 9.53269 6.88953 9.53379 6.59593 9.24159C6.30233 8.94939 6.30123 8.47449 6.59343 8.18089L10.8027 3.95169Z" fill="black"/>
</svg>
