<svg width="24" height="24" viewBox="0 0 24 24" fill="none" xmlns="http://www.w3.org/2000/svg">
<path d="M17.637 13.7767L17.7247 13.8493L20.0097 16.0421C20.4477 16.4639 20.4769 17.1461 20.0966 17.6034L20.0087 17.6978L17.7247 19.8896C17.4186 20.1833 16.9324 20.1734 16.6387 19.8673C16.3717 19.589 16.3557 19.1619 16.5849 18.8659L16.661 18.7813L17.8517 17.6374L4.40656 17.6375C3.98236 17.6375 3.63849 17.2936 3.63849 16.8694C3.63849 16.4778 3.93151 16.1547 4.31019 16.1073L4.40656 16.1013L17.8525 16.1006L16.661 14.9576C16.3829 14.6906 16.3493 14.2646 16.5662 13.9593L16.6387 13.8716C16.9057 13.5934 17.3318 13.5599 17.637 13.7767ZM12.2602 4.76221L15.6176 13.6354H14.0085L13.2836 11.5693H9.84654L9.12744 13.6354H7.52409L10.8758 4.76221H12.2602ZM11.5651 6.64493L10.2786 10.3259H12.8507L11.5651 6.64493Z" fill="black"/>
</svg>
