<svg width="24" height="24" viewBox="0 0 24 24" fill="none" xmlns="http://www.w3.org/2000/svg">
<path d="M18.9809 10.7929C19.3369 10.7929 19.6306 11.0593 19.6737 11.4036L19.6791 11.4911V13.8181C19.6791 16.0692 17.9033 17.9059 15.6763 18.0035L15.4896 18.0076L6.74342 18.007L7.64785 18.9116C7.89572 19.1594 7.9183 19.5473 7.7155 19.8207L7.64785 19.899C7.39997 20.147 7.01207 20.1695 6.7387 19.9667L6.6604 19.899L4.81 18.0487C4.43417 17.6729 4.40732 17.0793 4.72952 16.6745L4.81 16.5846L6.67525 14.7194C6.94787 14.4467 7.39 14.4467 7.6627 14.7194C7.91057 14.9673 7.93315 15.3553 7.73027 15.6286L7.6627 15.7069L6.75842 16.6105L15.4896 16.6111C16.9789 16.6111 18.1961 15.4453 18.2783 13.9766L18.2826 13.8181V11.4911C18.2826 11.1056 18.5953 10.7929 18.9809 10.7929ZM12.5743 8.91594L14.7881 14.7638H13.5303L13.0694 13.4533H11.0466L10.5902 14.7638H9.33685L11.5453 8.91594H12.5743ZM17.2612 4.03329L17.3396 4.10086L19.1925 5.95299C19.5655 6.32851 19.5922 6.91981 19.271 7.32541L19.1908 7.41549L17.3247 9.28066C17.0519 9.55329 16.6098 9.55321 16.3372 9.28044C16.0894 9.03249 16.067 8.64459 16.2698 8.37129L16.3375 8.29299L17.2419 7.38849L8.51042 7.38894C7.02115 7.38894 5.80397 8.55474 5.72177 10.0235L5.71742 10.1819V12.5089C5.71742 12.8945 5.40475 13.2071 5.01917 13.2071C4.66315 13.2071 4.36945 12.9407 4.32632 12.5964L4.32092 12.5089V10.1819C4.32092 7.93081 6.0967 6.09414 8.32375 5.99656L8.51042 5.99244L17.2562 5.99199L16.3523 5.08861C16.1043 4.84074 16.0817 4.45284 16.2845 4.17946L16.352 4.10109C16.5999 3.85314 16.9878 3.83049 17.2612 4.03329ZM12.0581 10.5545L11.3975 12.4454H12.7185L12.0581 10.5545Z" fill="black"/>
</svg>
