<svg width="24" height="24" viewBox="0 0 24 24" fill="none" xmlns="http://www.w3.org/2000/svg">
<path d="M18.201 5.957C17.8768 5.957 17.615 6.2195 17.615 6.543C17.615 6.5617 17.615 8.0961 17.6143 8.157C17.5861 11.9367 14.5174 15.0117 10.7744 15.0117H8.05102L9.90332 13.1516C10.1314 12.9227 10.1307 12.5516 9.90182 12.3227C9.67212 12.0945 9.30102 12.0953 9.07212 12.3242L6.49712 14.9109C6.11822 15.2914 6.11822 15.9102 6.49862 16.2906L9.07912 18.8711C9.19392 18.9859 9.34392 19.043 9.49322 19.043C9.64392 19.043 9.79322 18.9859 9.90802 18.8711C10.1369 18.6422 10.1369 18.2719 9.90802 18.043L8.04862 16.1836H10.7744C15.1588 16.1836 18.7533 12.5867 18.7861 8.1734C18.7861 8.1656 18.7869 8.1492 18.7869 6.543C18.7869 6.2195 18.5244 5.957 18.201 5.957Z" fill="black"/>
</svg>
