<svg width="24" height="24" viewBox="0 0 24 24" fill="none" xmlns="http://www.w3.org/2000/svg">
<path d="M17.7543 5.71881C18.0648 5.71881 18.3168 5.97071 18.3168 6.28131C18.3168 7.28641 18.3164 7.64271 18.3162 7.77131L18.316 7.84651C18.2845 12.0833 14.8338 15.5363 10.6248 15.5363H10.258L12.043 17.3213C12.2628 17.541 12.2628 17.8965 12.043 18.1162C11.9328 18.2265 11.7895 18.2813 11.6448 18.2813C11.5015 18.2813 11.3575 18.2265 11.2473 18.1162L8.76999 15.639C8.40479 15.2738 8.40479 14.6798 8.76849 14.3145L11.2405 11.8313C11.4603 11.6115 11.8165 11.6108 12.037 11.8298C12.2568 12.0487 12.2575 12.4058 12.0385 12.6255L10.2603 14.4113H10.6248C14.218 14.4113 17.164 11.4593 17.191 7.83071C17.1911 7.82291 17.1912 7.79001 17.1913 7.73871L17.1918 6.28131C17.1918 5.97071 17.443 5.71881 17.7543 5.71881ZM8.42859 11.8318C8.64839 11.612 9.00389 11.6113 9.22439 11.8303C9.44409 12.0493 9.44489 12.4055 9.22589 12.6253L6.88509 14.9758L9.23039 17.321C9.45009 17.5408 9.45009 17.897 9.23039 18.116C9.12009 18.2263 8.97689 18.281 8.83289 18.281C8.68889 18.281 8.54489 18.2263 8.43459 18.116L5.95739 15.6388C5.59209 15.2735 5.59209 14.6795 5.95589 14.3143L8.42859 11.8318Z" fill="black"/>
</svg>
