<svg width="24" height="24" viewBox="0 0 24 24" fill="none" xmlns="http://www.w3.org/2000/svg">
<path d="M8.10081 3.99081C8.44591 3.99081 8.72581 4.27071 8.72581 4.61581C8.72581 4.92961 8.49451 5.18941 8.19311 5.23411L8.10081 5.24081H6.23721C6.18881 5.24081 6.14131 5.24431 6.09481 5.25091L6.29491 5.36671C7.95861 6.28571 9.73651 6.71091 11.8587 6.71091C14.1504 6.71091 16.058 6.20971 17.8404 5.12471L17.6379 5.24281L17.5863 5.24081H15.7234C15.3782 5.24081 15.0984 4.96101 15.0984 4.61581C15.0984 4.30201 15.3297 4.04221 15.6311 3.99761L15.7234 3.99081H17.5863C18.7752 3.99081 19.7484 4.91451 19.8274 6.08331L19.8326 6.23711V8.10091C19.8326 8.44611 19.5528 8.72591 19.2076 8.72591C18.8938 8.72591 18.634 8.49471 18.5894 8.19331L18.5826 8.10091V6.23711L18.5786 6.18631C17.5764 7.91101 17.1121 9.76011 17.1121 11.9652C17.1121 14.0872 17.5375 15.8654 18.4521 17.5208L18.532 17.661L18.5663 17.6845C18.5699 17.6873 18.5735 17.6902 18.577 17.6931L18.5826 17.5863V15.7225C18.5826 15.3773 18.8624 15.0975 19.2076 15.0975C19.5214 15.0975 19.7812 15.3288 19.8258 15.6302L19.8326 15.7225V17.5863C19.8326 18.7752 18.909 19.7484 17.7401 19.8274L17.5863 19.8326H15.7234C15.3782 19.8326 15.0984 19.5528 15.0984 19.2076C15.0984 18.8938 15.3297 18.634 15.6311 18.5894L15.7234 18.5826H17.5863L17.6349 18.5788L17.5243 18.514C16.0436 17.6761 14.4677 17.2311 12.652 17.133L12.2592 17.1173L11.8587 17.112C9.73681 17.112 7.95891 17.5375 6.30341 18.4523L6.11671 18.5593C6.10871 18.5639 6.10071 18.5683 6.09271 18.5725C6.10151 18.5735 6.11121 18.5748 6.12101 18.5759L6.23721 18.5826H8.10081C8.44591 18.5826 8.72581 18.8624 8.72581 19.2076C8.72581 19.5214 8.49451 19.7812 8.19311 19.8259L8.10081 19.8326H6.23721C5.04831 19.8326 4.07511 18.909 3.99611 17.7401L3.99091 17.5863V15.7225C3.99091 15.3773 4.27071 15.0975 4.61591 15.0975C4.92971 15.0975 5.18951 15.3288 5.23411 15.6302L5.24091 15.7225V17.5863C5.24091 17.6355 5.24441 17.6838 5.25131 17.731L5.26491 17.7042L5.36641 17.529C6.28541 15.8656 6.71071 14.0875 6.71071 11.9652C6.71071 9.80791 6.26661 7.99391 5.31831 6.31451L5.24291 6.18681L5.24091 6.23711V8.10091C5.24091 8.44611 4.96111 8.72591 4.61591 8.72591C4.30211 8.72591 4.04231 8.49471 3.99771 8.19331L3.99091 8.10091V6.23711C3.99091 5.04821 4.91451 4.07501 6.08341 3.99601L6.23721 3.99081H8.10081ZM16.757 7.06601L16.6948 7.09251C15.2182 7.68171 13.6335 7.96091 11.8587 7.96091C10.1137 7.96091 8.56051 7.69381 7.10611 7.12551L7.08701 7.11701L7.24751 7.54091C7.68621 8.77491 7.91641 10.0875 7.95491 11.5255L7.96071 11.9652C7.96071 13.5648 7.73621 15.0034 7.26081 16.3527L7.13601 16.685L7.47491 16.5604C8.69851 16.1297 9.99851 15.9049 11.4264 15.8676L11.8587 15.862C13.6335 15.862 15.2183 16.1415 16.695 16.7312L16.704 16.735L16.5473 16.3125C16.1252 15.0996 15.9046 13.8112 15.8676 12.3975L15.8621 11.9652C15.8621 10.1903 16.1414 8.60581 16.7309 7.12911L16.757 7.06601Z" fill="black"/>
</svg>
