<svg width="24" height="24" viewBox="0 0 24 24" fill="none" xmlns="http://www.w3.org/2000/svg">
<path fill-rule="evenodd" clip-rule="evenodd" d="M16.4167 2.64651C18.1187 2.64651 19.4377 5.39951 19.4377 7.76651C19.4377 9.79551 17.7187 10.7265 17.6457 10.7655C17.5477 10.8165 17.3367 10.9335 17.1647 11.0285C17.1657 11.0335 17.1667 11.0375 17.1667 11.0415V20.6035C17.1667 21.0175 16.8307 21.3535 16.4167 21.3535C16.0017 21.3535 15.6667 21.0175 15.6667 20.6035V11.0415C15.6667 11.0305 15.6687 11.0195 15.6687 11.0085L15.4631 10.9057C15.3565 10.8523 15.2525 10.7997 15.1877 10.7655C15.1147 10.7265 13.3947 9.79551 13.3947 7.76651C13.3947 5.39951 14.7137 2.64651 16.4167 2.64651ZM10.9973 2.86841C11.3523 2.93641 11.5983 3.26841 11.5983 3.63141V8.67841C11.5983 9.12641 11.3853 9.64041 11.0683 9.97541C11.0053 10.0424 10.9313 10.0974 10.8533 10.1494L8.83029 11.5004V20.6034C8.83029 21.0174 8.49529 21.3534 8.08029 21.3534C7.66629 21.3534 7.33029 21.0174 7.33029 20.6034V11.4804L5.31129 10.1514C5.23129 10.0984 5.15429 10.0414 5.08929 9.97142C4.77429 9.63642 4.56229 9.12441 4.56229 8.67841V3.60341C4.56229 3.14041 4.98229 2.77541 5.46229 2.86841C5.81729 2.93641 6.06229 3.26841 6.06229 3.63141V6.35841C6.06229 6.70741 6.34629 6.99041 6.69529 6.99041C7.04829 6.99041 7.33129 6.70741 7.33129 6.35841V3.60341C7.33129 3.14041 7.75029 2.77541 8.22929 2.86841C8.58629 2.93641 8.83129 3.26841 8.83129 3.63141V6.35841C8.83129 6.70741 9.11429 6.99041 9.46329 6.99041C9.81429 6.99041 10.0983 6.70741 10.0983 6.35841V3.60341C10.0983 3.14041 10.5183 2.77541 10.9973 2.86841Z" fill="black"/>
</svg>
