<svg width="24" height="24" viewBox="0 0 24 24" fill="none" xmlns="http://www.w3.org/2000/svg">
<path d="M15.0475 4.84489C15.2285 4.47189 15.6775 4.31589 16.0495 4.49689C19.0495 5.95089 20.9875 9.04289 20.9875 12.3749C20.9875 17.1999 17.0635 21.1249 12.2375 21.1249C9.1535 21.1249 6.3445 19.5179 4.7715 16.9409L4.7785 17.9689C4.7805 18.3829 4.4475 18.7219 4.0335 18.7239C3.6165 18.7239 3.2805 18.3919 3.2785 17.9789L3.2615 15.4609C3.2595 15.1969 3.3615 14.9479 3.5485 14.7609C3.7355 14.5739 3.9855 14.4729 4.2485 14.4739L6.7665 14.4919C7.1805 14.4949 7.5135 14.8329 7.5105 15.2469C7.5075 15.6589 7.1725 15.9919 6.7605 15.9919H6.7555L5.9535 15.9859C7.2365 18.2209 9.6145 19.6249 12.2375 19.6249C16.2365 19.6249 19.4875 16.3729 19.4875 12.3749C19.4875 9.61389 17.8815 7.05189 15.3955 5.84689C15.0235 5.66589 14.8665 5.21789 15.0475 4.84489ZM4.4726 10.3049C4.8806 10.3729 5.1556 10.7599 5.0876 11.1679C5.0376 11.4649 5.0066 11.7669 4.9936 12.0689C4.9776 12.4729 4.6456 12.7879 4.2456 12.7879C4.2346 12.7879 4.2246 12.7879 4.2136 12.7869C3.8006 12.7699 3.4786 12.4209 3.4956 12.0069C3.5106 11.6429 3.5486 11.2779 3.6086 10.9209C3.6776 10.5119 4.0676 10.2369 4.4726 10.3049ZM12.238 2.87509C12.652 2.87509 12.988 3.21109 12.988 3.62509V9.86309C12.988 10.2771 12.652 10.6131 12.238 10.6131C11.824 10.6131 11.488 10.2771 11.488 9.86309V3.62509C11.488 3.21109 11.824 2.87509 12.238 2.87509ZM5.1974 7.17999C5.4434 6.84599 5.9124 6.77499 6.2454 7.02099C6.5784 7.26699 6.6494 7.73699 6.4034 8.06999C6.2244 8.31299 6.0584 8.56899 5.9114 8.83099C5.7744 9.07599 5.5194 9.21399 5.2564 9.21399C5.1324 9.21399 5.0064 9.18199 4.8904 9.11799C4.5294 8.91499 4.4014 8.45799 4.6034 8.09699C4.7814 7.77999 4.9814 7.47199 5.1974 7.17999ZM8.3011 4.55819C8.6721 4.37219 9.1231 4.52019 9.3091 4.89019C9.4961 5.25919 9.3471 5.71119 8.9771 5.89719C8.7091 6.03319 8.4461 6.18619 8.1961 6.35519C8.0671 6.44119 7.9221 6.48319 7.7781 6.48319C7.5371 6.48319 7.2991 6.36719 7.1551 6.15119C6.9241 5.80819 7.0141 5.34119 7.3581 5.11119C7.6601 4.90719 7.9771 4.72119 8.3011 4.55819Z" fill="black"/>
</svg>
