<svg width="24" height="24" viewBox="0 0 24 24" fill="none" xmlns="http://www.w3.org/2000/svg">
<path fill-rule="evenodd" clip-rule="evenodd" d="M12.0253 2.00021C12.9583 2.01321 13.7433 2.80221 13.7493 3.73521C13.7553 4.48721 13.2863 5.12921 12.6243 5.38221V7.86121H16.4763C17.7183 7.86121 18.7263 8.86821 18.7263 10.1112V16.6112C18.7263 17.8532 17.7183 18.8612 16.4763 18.8612H7.52429C6.28129 18.8612 5.27429 17.8532 5.27429 16.6112V10.1112C5.27429 8.86821 6.28129 7.86121 7.52429 7.86121H11.3743V5.38221C10.7173 5.13121 10.2493 4.49521 10.2493 3.74921C10.2493 2.77421 11.0463 1.98621 12.0253 2.00021ZM14.8533 14.9802H9.14629C8.73229 14.9802 8.39629 15.3162 8.39629 15.7302C8.39629 16.1442 8.73229 16.4802 9.14629 16.4802H14.8533C15.2673 16.4802 15.6033 16.1442 15.6033 15.7302C15.6033 15.3162 15.2673 14.9802 14.8533 14.9802ZM19.9695 10.2361C21.5575 10.2361 22.8445 11.5231 22.8445 13.1111C22.8445 14.6991 21.5575 15.9861 19.9695 15.9861V10.2361ZM4.03049 10.2361V15.9861C2.44249 15.9861 1.15549 14.6991 1.15549 13.1111C1.15549 11.5231 2.44249 10.2361 4.03049 10.2361ZM14.8703 10.7412C14.2913 10.7412 13.8233 11.2092 13.8233 11.7882C13.8233 12.3662 14.2913 12.8342 14.8703 12.8342C15.4473 12.8342 15.9153 12.3662 15.9153 11.7882C15.9153 11.2092 15.4473 10.7412 14.8703 10.7412ZM9.13029 10.7412C8.55229 10.7412 8.08429 11.2092 8.08429 11.7882C8.08429 12.3662 8.55229 12.8342 9.13029 12.8342C9.70729 12.8342 10.1763 12.3662 10.1763 11.7882C10.1763 11.2092 9.70729 10.7412 9.13029 10.7412Z" fill="black"/>
</svg>
