<svg width="24" height="24" viewBox="0 0 24 24" fill="none" xmlns="http://www.w3.org/2000/svg">
<path fill-rule="evenodd" clip-rule="evenodd" d="M14.0285 4.02181C14.1674 3.63281 14.5975 3.42981 14.9884 3.57081C18.5084 4.84081 20.8755 8.22681 20.8755 11.9998C20.8755 14.4728 19.8554 16.7878 18.1465 18.4478L19.1775 19.4778C19.3915 19.6928 19.4564 20.0148 19.3395 20.2958C19.2234 20.5758 18.9505 20.7588 18.6474 20.7588H15.5234C14.7985 20.7588 14.2724 20.2688 14.2724 19.5938C14.2724 19.2168 14.5534 18.9068 14.9174 18.8548C14.9454 18.8378 14.9725 18.8188 15.0044 18.8038C17.6595 17.6058 19.3755 14.9348 19.3755 11.9998C19.3755 8.85781 17.4074 6.03781 14.4795 4.98181C14.0895 4.84181 13.8875 4.41181 14.0285 4.02181ZM8.4755 3.24121C9.2006 3.24121 9.7266 3.73021 9.7266 4.40521C9.7266 4.78321 9.4466 5.09221 9.0826 5.14421C9.0535 5.16221 9.0266 5.18021 8.9956 5.19521C6.3396 6.39221 4.6245 9.06321 4.6245 12.0002C4.6245 15.1422 6.5915 17.9612 9.5196 19.0172C9.9095 19.1572 10.1105 19.5862 9.9705 19.9762C9.8605 20.2822 9.5725 20.4722 9.2646 20.4722C9.1805 20.4722 9.0946 20.4582 9.0105 20.4282C5.4906 19.1592 3.1245 15.7722 3.1245 12.0002C3.1245 9.52621 4.1435 7.21121 5.8516 5.55121L4.8225 4.52121C4.6075 4.30621 4.5426 3.98421 4.6595 3.70421C4.7755 3.42321 5.0485 3.24121 5.3526 3.24121H8.4755ZM12.0243 8.63801C12.4693 8.19301 13.1983 8.19301 13.6423 8.63801L15.3614 10.357C15.8064 10.801 15.8064 11.53 15.3614 11.975L11.9743 15.361C11.5294 15.806 10.8013 15.806 10.3563 15.361L8.6374 13.642C8.1924 13.198 8.1933 12.469 8.6374 12.024L12.0243 8.63801Z" fill="black"/>
</svg>
