<svg width="24" height="24" viewBox="0 0 24 24" fill="none" xmlns="http://www.w3.org/2000/svg">
<path fill-rule="evenodd" clip-rule="evenodd" d="M15.5539 10.2282C15.9989 10.6732 15.9989 11.4015 15.5539 11.8465L12.1669 15.2327C11.7219 15.6775 10.9939 15.6775 10.5489 15.2327L8.83039 13.514C8.38539 13.069 8.38539 12.3407 8.83039 11.8957L12.2174 8.5095C12.6624 8.0647 13.3904 8.0647 13.8352 8.5095L15.5539 10.2282Z" fill="black"/>
<path d="M8.879 4.38239C6.043 5.66139 4.0672 8.53289 4.0672 11.8717C4.0672 15.4312 6.3157 18.4614 9.4572 19.5939" stroke="black" stroke-width="1.5" stroke-linecap="round" stroke-linejoin="round"/>
<path d="M9.16901 4.2763C9.16901 4.0001 8.94501 3.8623 8.66851 3.8623H5.60501C5.58271 3.8623 5.57151 3.8893 5.58721 3.9051L6.93501 5.2528" stroke="black" stroke-width="1.5" stroke-linecap="round" stroke-linejoin="round"/>
<path d="M15.5055 19.3596C18.3402 18.0796 20.3172 15.2086 20.3172 11.8713C20.3172 8.3111 18.0685 5.2806 14.926 4.1481" stroke="black" stroke-width="1.5" stroke-linecap="round" stroke-linejoin="round"/>
<path d="M15.2153 19.4659C15.2153 19.7424 15.4393 19.8799 15.7158 19.8799H18.7791C18.8013 19.8799 18.8126 19.8532 18.7968 19.8374L17.2618 18.3024" stroke="black" stroke-width="1.5" stroke-linecap="round" stroke-linejoin="round"/>
</svg>
