<svg width="24" height="24" viewBox="0 0 24 24" fill="none" xmlns="http://www.w3.org/2000/svg">
<path fill-rule="evenodd" clip-rule="evenodd" d="M6.09759 16.5035L8.2296 14.9295H8.2366L9.0846 19.4205L6.09759 16.5035ZM15.4086 8.75151C16.1356 8.75151 16.2566 7.05251 16.2766 6.49451C16.2806 6.39451 16.2326 6.28351 16.1516 6.22451C15.9276 6.06051 15.9516 5.85751 15.9506 5.52951C15.9506 5.49751 15.9496 5.46451 15.9496 5.42951L15.9666 5.01451L15.9826 4.66751C15.9866 4.21351 15.8386 3.78351 15.5886 3.40451V3.40251C15.3006 2.96451 14.8006 2.59351 14.2396 2.32751C14.0526 2.23951 13.8596 2.16351 13.6646 2.09951C13.3836 2.01851 13.0866 1.97351 12.7796 1.97351C11.0156 1.97351 9.5866 3.40351 9.5866 5.16751C9.5866 5.33851 9.6006 5.50751 9.6266 5.67251C9.6496 5.78251 9.6756 5.89351 9.7086 6.00551C9.8056 6.33551 9.95359 6.63451 10.1156 6.91951H9.2016C8.1716 6.94751 7.1726 7.36351 6.4326 8.10551L5.4696 9.06951C5.3296 9.20351 4.93059 9.60951 4.47959 9.09451L4.9306 9.60951C5.7586 10.5945 7.2436 10.6385 8.1266 9.70451L10.3186 7.26051C10.4276 7.44151 10.5376 7.62151 10.6386 7.80051L10.6816 7.87851C10.7226 7.95351 10.7626 8.02951 10.7986 8.10651C11.0406 8.61451 11.0756 9.39451 10.8666 10.0755C10.6486 10.0205 10.4246 9.99151 10.2006 9.99151C10.0366 9.99151 9.8726 10.0065 9.7106 10.0375C9.5666 10.0645 9.4386 10.0995 9.3346 10.1435C8.9246 10.2935 8.5696 10.5315 8.3056 10.8185L3.68059 15.7345C3.02259 16.3705 3.13759 17.4585 3.90159 17.9605L7.7976 20.7945C8.6136 21.2945 9.5676 21.7685 10.4616 21.9425C10.9846 21.9975 11.5166 22.0265 12.0576 22.0265C13.1386 22.0265 14.1876 21.9145 15.1886 21.7055C15.3486 21.6525 15.6026 21.5525 15.9076 21.3925V21.3975C15.9316 21.3835 15.9586 21.3665 15.9846 21.3515C16.0096 21.3375 16.0326 21.3265 16.0586 21.3125V21.3075C16.3426 21.1375 16.6576 20.9205 16.9826 20.6365L20.0826 17.4385C20.2566 17.2615 20.3826 17.1245 20.4776 17.0025C20.6456 16.8395 20.7496 16.6135 20.7496 16.3625V14.7355C20.7496 14.6975 20.7466 14.6625 20.7436 14.6285C20.7416 14.6105 20.7386 14.5925 20.7356 14.5745L20.7266 14.5335C20.7216 14.5145 20.7166 14.4955 20.7116 14.4765C20.5556 13.9915 19.9766 13.9525 19.9766 13.9525C19.9676 13.9515 19.9586 13.9515 19.9516 13.9515C19.8696 13.9515 19.7846 13.9665 19.6976 13.9915C19.2726 14.1145 18.8256 14.4775 18.8096 14.4895L18.8076 14.4905C18.6066 14.6545 18.4776 14.9025 18.4776 15.1805L18.7006 16.3625C18.7006 16.4505 18.7136 16.5335 18.7376 16.6135L16.0586 18.6325V18.0205L15.9516 14.0615L15.9476 14.0665C15.8286 12.6005 14.1606 11.2765 14.0526 11.1925L14.5266 8.75151H15.4086Z" fill="black"/>
</svg>
