<svg width="24" height="24" viewBox="0 0 24 24" fill="none" xmlns="http://www.w3.org/2000/svg">
<g clip-path="url(#clip0_702_2269)">
<path fill-rule="evenodd" clip-rule="evenodd" d="M11.6998 0.000701904C11.8948 0.0025019 11.9999 0.0075019 11.9999 0.0075019C12.0318 0.0061019 12.1328 0.0022019 12.3 0.000701904H12.5992C13.2151 0.0063019 14.2677 0.0468019 15.5776 0.220502C17.8061 0.515502 19.8257 1.3041 21.3046 2.6951L21.5312 2.9466C22.7821 4.3995 23.501 6.3176 23.78 8.4222C24.062 10.5507 23.9924 12.0002 23.9924 12.0002C23.9924 12.0002 24.062 13.4492 23.78 15.5778C23.4845 17.8061 22.6961 19.8256 21.3049 21.3048L21.0531 21.5313C19.6007 22.7819 17.6823 23.5012 15.5776 23.7799C14.2677 23.9535 13.2151 23.9939 12.5992 23.9993H12.3C12.105 23.9975 11.9999 23.9924 11.9999 23.9924C11.9681 23.9938 11.867 23.9977 11.6998 23.9993H11.4005C10.7845 23.9939 9.7319 23.9535 8.4223 23.7799C6.1934 23.4848 4.1743 22.6958 2.6953 21.3051L2.4687 21.0533C1.2181 19.6006 0.498902 17.6824 0.220102 15.5778C0.0465019 14.2679 0.0061019 13.2154 0.000701904 12.5995V12.3003C0.0026019 12.1052 0.0076019 12.0002 0.0076019 12.0002C0.0076019 12.0002 0.0026019 11.8951 0.000701904 11.7V11.4008C0.0061019 10.7848 0.0465019 9.7321 0.220102 8.4222C0.515302 6.1938 1.3043 4.1744 2.6949 2.6951L2.9467 2.4689C4.3993 1.218 6.3173 0.499102 8.4223 0.220502C9.7319 0.0468019 10.7845 0.0063019 11.4005 0.000701904H11.6998ZM16.05 13.7945H12.59V14.8332H16.05V13.7945ZM20.1172 13.7945H16.6572V14.8333H20.1172V13.7945ZM7.3002 9H4V14.8333H5.0867V12.4199H7.3002V11.3813H5.0867V10.0388H7.3002V9ZM9.7932 9H7.9234V14.8333H9.0102V10.0149H9.6974C10.113 10.0149 10.4151 10.1027 10.6043 10.2786C10.7934 10.4543 10.888 10.6915 10.888 10.9898C10.888 11.1336 10.868 11.2693 10.8281 11.3973C10.7882 11.5251 10.7215 11.6383 10.6284 11.7368C10.5351 11.8354 10.4125 11.9126 10.2608 11.9685C10.1089 12.0245 9.9212 12.0532 9.6974 12.0532H9.4889L10.92 14.8333H12.1585L10.9919 12.7318C11.3115 12.5612 11.5552 12.3229 11.7231 12.0165C11.8908 11.7103 11.9748 11.3813 11.9748 11.0297C11.9748 10.726 11.9254 10.4503 11.827 10.2026C11.7283 9.9549 11.5858 9.7419 11.3994 9.5634C11.2129 9.385 10.9852 9.2465 10.7161 9.1478C10.4471 9.0494 10.1395 9 9.7932 9ZM16.05 11.3813H12.59V12.42H16.05V11.3813ZM20.1172 11.3813H16.6572V12.4199H20.1172V11.3813ZM16.05 9H12.59V10.0389H16.05V9ZM20.1172 9H16.6572V10.0388H20.1172V9Z" fill="black"/>
</g>
<defs>
<clipPath id="clip0_702_2269">
<rect width="24" height="24" fill="white"/>
</clipPath>
</defs>
</svg>
