<svg width="24" height="24" viewBox="0 0 24 24" fill="none" xmlns="http://www.w3.org/2000/svg">
<path fill-rule="evenodd" clip-rule="evenodd" d="M3.6972 6.26471C3.4677 6.60211 3.2636 6.95111 3.0798 7.30751L3.0842 7.31241C2.8641 7.67661 2.9098 8.15641 3.2244 8.47111L15.4314 20.6777C15.7458 20.9918 16.2259 21.038 16.5901 20.8179L16.5942 20.8221C16.9509 20.6385 17.2999 20.4344 17.6373 20.2049L3.6972 6.26471Z" fill="black" fill-opacity="0.6"/>
<path fill-rule="evenodd" clip-rule="evenodd" d="M2.1662 10.0556C2.0441 10.7108 1.9913 11.376 2.0012 12.04L2.0055 12.0441C2.0045 12.0511 2.0031 12.0588 2.0021 12.0663C2.0041 12.1567 2.0084 12.2477 2.0125 12.3387C2.046 12.5206 2.1327 12.6945 2.2731 12.8352L11.0654 21.6274C11.209 21.7712 11.3878 21.8578 11.5733 21.8899C11.6582 21.8936 11.7429 21.8979 11.8278 21.8993C11.8372 21.8984 11.8471 21.8965 11.8565 21.895L11.8618 21.9008C12.526 21.9107 13.1909 21.8578 13.8464 21.7358L2.1662 10.0556Z" fill="black" fill-opacity="0.3"/>
<path fill-rule="evenodd" clip-rule="evenodd" d="M19.69 18.2257L19.6919 18.2272C22.8568 14.3112 22.624 8.5587 18.9837 4.9183C15.3431 1.2782 9.59121 1.0449 5.67431 4.2101L5.67621 4.2118C5.64691 4.2344 5.61931 4.2587 5.59261 4.2848C5.22511 4.6525 5.22511 5.2483 5.59261 5.6157L18.286 18.3094C18.6537 18.6768 19.2492 18.6768 19.6167 18.3094C19.6436 18.2829 19.6674 18.2543 19.69 18.2257Z" fill="black"/>
</svg>
