<svg width="24" height="24" viewBox="0 0 24 24" fill="none" xmlns="http://www.w3.org/2000/svg">
<path d="M7.7 12.6C7.5 12.4 7.3 12.3 7 12.2C6.7 12.1 6.4 12.1 6 12.1H5.7V16H6.1C6.4 16 6.7 16 7 15.9C7.3 15.8 7.5 15.7 7.7 15.5C7.8 15.2 7.9 15 8 14.8C8.1 14.6 8.1 14.3 8.1 14C8.1 13.7 8.1 13.4 8 13.2C8 13 7.8 12.8 7.7 12.6Z" fill="black"/>
<path d="M13.1 13.4C12.9 13.3 12.6 13.2 12.2 13.2C11.9 13.2 11.6 13.3 11.4 13.4C11.2 13.5 11 13.7 10.9 13.9H13.5C13.5 13.7 13.3 13.6 13.1 13.4Z" fill="black"/>
<path d="M20.6 8.60001L13 2.50001C12.5 2.10001 11.6 2.10001 11.1 2.50001L3.4 8.60001C2.9 9.00001 2.5 9.90001 2.5 10.6V18.8C2.5 20.5 3.9 21.9 5.6 21.9H18.5C20.2 21.9 21.6 20.5 21.6 18.8V10.6C21.5 9.90001 21.1 9.00001 20.6 8.60001ZM9.2 15.3C9 15.7 8.8 16 8.5 16.3C8.2 16.6 7.9 16.8 7.5 17C7.1 17.2 6.7 17.2 6.2 17.2H4.4V11H6.1C6.6 11 7.1 11.1 7.5 11.2C7.9 11.4 8.3 11.6 8.5 11.9C8.8 12.2 9 12.5 9.1 12.9C9.2 13.3 9.3 13.7 9.3 14.1C9.5 14.5 9.4 14.9 9.2 15.3ZM13.8 16.8C13.4 17 12.9 17.2 12.4 17.2C12 17.2 11.6 17.1 11.3 17C11 16.9 10.7 16.7 10.5 16.5C10.3 16.3 10.1 16 10 15.7C9.9 15.4 9.8 15.1 9.8 14.7C9.8 14.3 9.9 14 10 13.7C10.1 13.4 10.3 13.1 10.6 12.9C10.8 12.7 11.1 12.5 11.4 12.4C11.7 12.3 12.1 12.2 12.4 12.2C12.8 12.2 13.1 12.3 13.4 12.4C13.7 12.5 14 12.7 14.2 12.9C14.4 13.1 14.6 13.4 14.7 13.7C14.8 14 14.9 14.3 14.9 14.7V15H10.9C11 15.3 11.1 15.5 11.4 15.7C11.6 15.9 12 16 12.4 16C12.7 16 13 15.9 13.2 15.8C13.4 15.7 13.6 15.4 13.7 15.2V15.1L14.7 15.7V15.8C14.5 16.2 14.1 16.5 13.8 16.8ZM18.4 17.2L17.2 15.2L16 17.2H14.6L16.5 14L14.6 10.9H16L17.2 12.9L18.4 10.9H19.8L17.9 14L19.8 17.2H18.4Z" fill="black"/>
</svg>
