<svg width="24" height="24" viewBox="0 0 24 24" fill="none" xmlns="http://www.w3.org/2000/svg">
<path d="M7.68774 4.635V19.191C8.88374 19.907 10.2797 20.325 11.8747 20.325V3.5C10.2797 3.5 8.88374 3.918 7.68774 4.635Z" fill="black" fill-opacity="0.6"/>
<path d="M16.0623 4.63501V19.191C18.4553 17.735 20.2493 15.025 20.2493 11.912C20.2493 8.80101 18.4553 6.09101 16.0623 4.63501Z" fill="black" fill-opacity="0.2"/>
<path d="M7.68776 4.63501V19.191C5.29476 17.735 3.49976 15.025 3.49976 11.912C3.49976 8.80101 5.29476 6.09101 7.68776 4.63501Z" fill="black" fill-opacity="0.8"/>
<path d="M11.8752 3.50021V20.3252C13.2712 20.3252 14.6662 19.9072 16.0622 19.1902V4.63521C14.6662 3.91821 13.2712 3.50021 11.8752 3.50021Z" fill="black" fill-opacity="0.4"/>
</svg>
