<svg width="24" height="24" viewBox="0 0 24 24" fill="none" xmlns="http://www.w3.org/2000/svg">
<path fill-rule="evenodd" clip-rule="evenodd" d="M15.7505 20.2512H8.25049C7.42149 20.2512 6.75049 19.5802 6.75049 18.7512V7.25119C6.75049 6.42219 7.42149 5.75119 8.25049 5.75119H15.7505C16.5785 5.75119 17.2505 6.42219 17.2505 7.25119V18.7512C17.2505 19.5802 16.5785 20.2512 15.7505 20.2512Z" stroke="black" stroke-width="1.5" stroke-linecap="round" stroke-linejoin="round"/>
<path d="M14.5005 5.99979H9.50049V3.74979C9.50049 3.33579 9.83549 2.99979 10.2505 2.99979H13.7505C14.1645 2.99979 14.5005 3.33579 14.5005 3.74979V5.99979Z" fill="black"/>
<path d="M13.4492 11.5968L12.9882 10.7988C12.5492 10.0368 11.4502 10.0368 11.0112 10.7988L10.5502 11.5978M13.0267 15.8868H13.9487C14.8277 15.8868 15.3767 14.9358 14.9377 14.1748L14.4767 13.3758M9.52282 13.3761L9.06182 14.1751C8.62282 14.9361 9.17182 15.8871 10.0498 15.8871H10.9728" stroke="black" stroke-width="1.5" stroke-linecap="round" stroke-linejoin="round"/>
</svg>
