<svg width="24" height="24" viewBox="0 0 24 24" fill="none" xmlns="http://www.w3.org/2000/svg">
<path d="M13.9063 7.7691H7.3113C5.9298 7.7691 4.802 8.8969 4.802 10.2784V18.0511C4.802 19.4325 5.9298 20.5604 7.3113 20.5604H13.4353C14.8166 20.5604 15.9445 19.4324 15.9445 18.0511V9.8073C15.9445 8.6847 15.0288 7.7691 13.9063 7.7691ZM7.3113 9.0191H13.9063C14.3385 9.0191 14.6945 9.3751 14.6945 9.8073V18.0511C14.6945 18.7421 14.1262 19.3104 13.4353 19.3104H7.3113C6.6202 19.3104 6.052 18.7422 6.052 18.0511V10.2784C6.052 9.5872 6.6201 9.0191 7.3113 9.0191Z" fill="black"/>
<path d="M15.8102 4.64221C17.5251 4.64221 18.9264 5.98431 19.021 7.67561L19.0261 7.85811V16.5781C19.0261 16.9233 18.7462 17.2031 18.4011 17.2031C18.0873 17.2031 17.8275 16.9718 17.7828 16.6704L17.7761 16.5781V7.85811C17.7761 6.82161 16.9742 5.97261 15.9569 5.89751L15.8102 5.89221H9.1532C8.808 5.89221 8.5282 5.61231 8.5282 5.26721C8.5282 4.95341 8.7595 4.69361 9.0608 4.64891L9.1532 4.64221H15.8102Z" fill="black"/>
<path d="M12.8994 14.0263C13.1378 13.7766 13.5334 13.7674 13.7831 14.0058C14.0078 14.2203 14.0377 14.5622 13.8677 14.8104L13.8036 14.8894L10.9386 17.8907C10.717 18.1228 10.3613 18.146 10.1129 17.9603L10.0344 17.8906L7.17006 14.8894C6.93176 14.6397 6.94096 14.244 7.19066 14.0057C7.41536 13.7912 7.75836 13.7773 7.99836 13.9587L8.07426 14.0263L10.4862 16.5528L12.8994 14.0263Z" fill="black"/>
<path d="M10.4865 10.3208C10.8003 10.3208 11.0601 10.5521 11.1048 10.8534L11.1115 10.9458V17.3225C11.1115 17.6677 10.8317 17.9475 10.4865 17.9475C10.1727 17.9475 9.91295 17.7162 9.86825 17.4149L9.86145 17.3225V10.9458C9.86145 10.6006 10.1414 10.3208 10.4865 10.3208Z" fill="black"/>
</svg>
