<svg width="24" height="24" viewBox="0 0 24 24" fill="none" xmlns="http://www.w3.org/2000/svg">
<path fill-rule="evenodd" clip-rule="evenodd" d="M18.932 11.655L16.254 10.763V9.15799L12.546 6.66199V6.06799L15.437 4.55099L12.459 2.73799C12.342 2.55999 12.138 2.44199 11.905 2.44199C11.554 2.44199 11.262 2.73799 11.262 3.09499V6.63199L7.49602 9.15799V10.763L5.06902 11.655C4.10502 11.655 3.31702 12.458 3.31702 13.439V19.775C3.31702 20.756 4.10502 21.558 5.06902 21.558H18.932C19.895 21.558 20.683 20.756 20.683 19.775V13.439C20.683 12.458 19.895 11.655 18.932 11.655ZM11.875 15.663C10.592 15.663 9.54202 14.594 9.54202 13.288C9.54202 11.982 10.592 10.913 11.875 10.913C13.159 10.913 14.207 11.982 14.207 13.288C14.207 14.594 13.159 15.663 11.875 15.663Z" fill="black"/>
</svg>
