<svg width="24" height="24" viewBox="0 0 24 24" fill="none" xmlns="http://www.w3.org/2000/svg">
<path d="M2.81657 7.39022C3.28421 7.39022 3.66323 7.01092 3.66323 6.54356V5.03481C3.66323 4.25673 4.29625 3.62371 5.07433 3.62371H6.54611C7.01375 3.62371 7.39277 3.24441 7.39277 2.77705C7.39277 2.30969 7.01375 1.93039 6.54611 1.93039H5.07433C3.36267 1.93039 1.96991 3.32315 1.96991 5.03481V6.54356C1.96991 7.01092 2.34921 7.39022 2.81657 7.39022Z" fill="black"/>
<path d="M19.1856 1.93039H17.7138C17.2465 1.93039 16.8672 2.30969 16.8672 2.77705C16.8672 3.24441 17.2465 3.62371 17.7138 3.62371H19.1856C19.9634 3.62371 20.5967 4.25673 20.5967 5.03481V6.54356C20.5967 7.01092 20.9755 7.39022 21.4434 7.39022C21.9107 7.39022 22.29 7.01092 22.29 6.54356V5.03481C22.29 3.32286 20.897 1.93039 19.1856 1.93039Z" fill="black"/>
<path d="M5.07433 21.9141H6.54611C7.01375 21.9141 7.39277 21.5348 7.39277 21.0674C7.39277 20.5995 7.01375 20.2208 6.54611 20.2208H5.07433C4.29625 20.2208 3.66323 19.5875 3.66323 18.8097V17.0187C3.66323 16.5508 3.28421 16.1721 2.81657 16.1721C2.34921 16.1721 1.96991 16.5508 1.96991 17.0187V18.8097C1.96991 20.5211 3.36267 21.9141 5.07433 21.9141Z" fill="black"/>
<path d="M16.8672 21.0675C16.8672 21.5348 17.2465 21.9141 17.7138 21.9141H19.1856C20.897 21.9141 22.29 20.5211 22.29 18.8097V17.3009C22.29 16.833 21.9107 16.4543 21.4434 16.4543C20.9755 16.4543 20.5967 16.833 20.5967 17.3009V18.8097C20.5967 19.5875 19.9634 20.2208 19.1856 20.2208H17.7138C17.2465 20.2208 16.8672 20.5995 16.8672 21.0675Z" fill="black"/>
<path d="M5.82532 8.04215V15.8024C5.82532 17.1358 6.91638 18.2272 8.25015 18.2272H16.0104C17.3438 18.2272 18.4352 17.1358 18.4352 15.8024V7.07215C18.4352 6.27206 17.7804 5.61731 16.9801 5.61731H8.24987C6.91638 5.61703 5.82532 6.70866 5.82532 8.04215ZM11.8104 13.89L14.5843 11.1756C14.991 10.7738 15.3996 11.0478 15.5529 11.2044L16.9801 12.6686V15.8024C16.9801 16.3276 16.5364 16.7721 16.0104 16.7721H8.24987C7.72409 16.7721 7.27988 16.3278 7.27988 15.8024V14.7186L9.278 12.9531C9.66323 12.6059 10.0143 12.6974 10.2457 12.9237L11.2417 13.8906C11.3983 14.0438 11.6543 14.0433 11.8104 13.89ZM9.61017 8.51994C10.2621 8.51994 10.7921 9.05052 10.7921 9.70188C10.7921 10.3532 10.2621 10.8838 9.61017 10.8838C8.95768 10.8838 8.42795 10.3532 8.42795 9.70188C8.42795 9.05052 8.95768 8.51994 9.61017 8.51994Z" fill="black"/>
</svg>
