<svg width="24" height="24" viewBox="0 0 24 24" fill="none" xmlns="http://www.w3.org/2000/svg">
<path d="M7.05363 3.50021C7.46783 3.50021 7.80363 3.83601 7.80363 4.25021C7.80363 4.62991 7.52143 4.94371 7.15543 4.99341L7.05363 5.00021H5.74963C5.10253 5.00021 4.57013 5.49211 4.50613 6.12241L4.49963 6.25021V7.58621C4.49963 8.00041 4.16383 8.33621 3.74963 8.33621C3.36993 8.33621 3.05613 8.05401 3.00643 7.68801L2.99963 7.58621V6.25021C2.99963 4.78751 4.14163 3.59181 5.58213 3.50521L5.74963 3.50021H7.05363Z" fill="black"/>
<path d="M18.2497 3.50021C19.7126 3.50021 20.9081 4.64151 20.9947 6.08261L20.9997 6.25021V7.58621C20.9997 8.00041 20.6639 8.33621 20.2497 8.33621C19.87 8.33621 19.5562 8.05401 19.5065 7.68801L19.4997 7.58621V6.25021C19.4997 5.60261 19.0082 5.07061 18.3776 5.00661L18.2497 5.00021H16.9467C16.5325 5.00021 16.1967 4.66441 16.1967 4.25021C16.1967 3.87051 16.4789 3.55671 16.8449 3.50701L16.9467 3.50021H18.2497Z" fill="black"/>
<path d="M3.74963 16.1158C4.12933 16.1158 4.44313 16.398 4.49283 16.764L4.49963 16.8658V18.4518C4.49963 19.0985 4.99203 19.6313 5.62193 19.6953L5.74963 19.7018H7.05363C7.46783 19.7018 7.80363 20.0376 7.80363 20.4518C7.80363 20.8315 7.52143 21.1453 7.15543 21.195L7.05363 21.2018H5.74963C4.28763 21.2018 3.09123 20.0596 3.00463 18.6193L2.99963 18.4518V16.8658C2.99963 16.4516 3.33543 16.1158 3.74963 16.1158Z" fill="black"/>
<path d="M20.2497 16.3658C20.6294 16.3658 20.9432 16.648 20.9929 17.014L20.9997 17.1158V18.4518C20.9997 19.9141 19.8581 21.1102 18.4172 21.1968L18.2497 21.2018H16.9467C16.5325 21.2018 16.1967 20.866 16.1967 20.4518C16.1967 20.0721 16.4789 19.7583 16.8449 19.7086L16.9467 19.7018H18.2497C18.8969 19.7018 19.4292 19.2098 19.4932 18.5796L19.4997 18.4518V17.1158C19.4997 16.7016 19.8355 16.3658 20.2497 16.3658Z" fill="black"/>
<path d="M15.3749 14.4411C15.3749 14.8591 15.0329 15.2011 14.6149 15.2011H9.38488C8.96488 15.2011 8.62488 14.8611 8.62488 14.4411V14.1391C8.62488 13.9001 8.77688 13.7491 8.78288 13.7451L10.0779 12.5161C10.2709 12.3331 10.5839 12.3361 10.7729 12.5231L11.3149 13.0581C11.4109 13.1521 11.5659 13.1511 11.6609 13.0571L13.2759 11.4561C13.4739 11.2601 13.7939 11.2631 13.9869 11.4641L15.2369 12.7581C15.2369 12.7581 15.3749 12.8851 15.3749 13.0661V14.4411ZM15.2499 8.1011H8.74988C7.92088 8.1011 7.24988 8.7731 7.24988 9.6011V15.1011C7.24988 15.9291 7.92088 16.6011 8.74988 16.6011H15.2499C16.0789 16.6011 16.7499 15.9291 16.7499 15.1011V9.6011C16.7499 8.7731 16.0789 8.1011 15.2499 8.1011Z" fill="black"/>
</svg>
