<svg width="24" height="24" viewBox="0 0 24 24" fill="none" xmlns="http://www.w3.org/2000/svg">
<path d="M8.78469 15.6743C9.04069 15.7083 9.27169 15.7983 9.44169 15.9583C9.60069 16.1273 9.69169 16.3593 9.72469 16.6143C9.74299 16.7537 9.74819 16.8677 9.74929 16.9398L9.74909 17.0144C9.74889 17.0209 9.74869 17.0243 9.74869 17.0243L9.74909 17.0342L9.74929 17.1088C9.74819 17.1807 9.74299 17.2944 9.72469 17.4333C9.69169 17.6893 9.60069 17.9213 9.44169 18.0903C9.27169 18.2493 9.04069 18.3403 8.78469 18.3733C8.57559 18.4016 8.42369 18.3997 8.38459 18.3986L8.37469 18.3983C8.37469 18.3983 8.20969 18.4063 7.96469 18.3733C7.70969 18.3403 7.47869 18.2493 7.30869 18.0903C7.14969 17.9213 7.05869 17.6893 7.02569 17.4333C7.00679 17.2944 7.00169 17.1807 7.00079 17.1088V16.9398C7.00169 16.8677 7.00679 16.7537 7.02569 16.6143C7.05869 16.3593 7.14969 16.1273 7.30869 15.9583C7.47869 15.7983 7.70969 15.7083 7.96469 15.6743C8.10469 15.656 8.21859 15.6508 8.29049 15.6497H8.45919C8.53129 15.6508 8.64529 15.656 8.78469 15.6743ZM16.0347 15.6743C16.2907 15.7083 16.5217 15.7983 16.6917 15.9583C16.8507 16.1273 16.9417 16.3593 16.9747 16.6143C16.993 16.7537 16.9982 16.8677 16.9993 16.9398L16.9991 17.0144C16.9989 17.0209 16.9987 17.0243 16.9987 17.0243L16.9991 17.0342L16.9993 17.1088C16.9982 17.1807 16.993 17.2944 16.9747 17.4333C16.9417 17.6893 16.8507 17.9213 16.6917 18.0903C16.5217 18.2493 16.2907 18.3403 16.0347 18.3733C15.8256 18.4016 15.6737 18.3997 15.6346 18.3986L15.6247 18.3983C15.6247 18.3983 15.4597 18.4063 15.2147 18.3733C14.9597 18.3403 14.7287 18.2493 14.5587 18.0903C14.3997 17.9213 14.3087 17.6893 14.2757 17.4333C14.2474 17.225 14.25 17.0733 14.2513 17.0342L14.2517 17.0243C14.2517 17.0243 14.2427 16.8583 14.2757 16.6143C14.3087 16.3593 14.3997 16.1273 14.5587 15.9583C14.7287 15.7983 14.9597 15.7083 15.2147 15.6743C15.3547 15.656 15.4686 15.6508 15.5405 15.6497H15.7092C15.7813 15.6508 15.8953 15.656 16.0347 15.6743Z" fill="black"/>
<path d="M16.75 20.5H7.25C5.869 20.5 4.75 19.381 4.75 18V6C4.75 4.619 5.869 3.5 7.25 3.5H16.75C18.131 3.5 19.25 4.619 19.25 6V18C19.25 19.381 18.131 20.5 16.75 20.5Z" stroke="black" stroke-width="1.5" stroke-linecap="round" stroke-linejoin="round"/>
</svg>
