<svg width="24" height="24" viewBox="0 0 24 24" fill="none" xmlns="http://www.w3.org/2000/svg">
<path fill-rule="evenodd" clip-rule="evenodd" d="M22 6.87491C22 8.18691 20.937 9.24991 19.625 9.24991C18.313 9.24991 17.25 8.18691 17.25 6.87491C17.25 5.56291 18.313 4.49991 19.625 4.49991C20.937 4.49991 22 5.56291 22 6.87491ZM4.26996 6.25531C4.54696 5.77431 5.16796 5.60831 5.64796 5.88631L7.11896 6.93431C7.59996 7.21231 7.80096 7.76931 7.57596 8.16231C7.33296 8.58131 6.76296 8.66031 6.28296 8.38231L4.63896 7.63231C4.15796 7.35531 3.99196 6.73531 4.26996 6.25531ZM3.00776 11.4716L5.13276 11.6426C5.68676 11.6426 6.14076 12.0256 6.14076 12.4796C6.14076 12.9616 5.68676 13.3166 5.13276 13.3166L3.00776 13.4886C2.45376 13.4886 1.99976 13.0346 1.99976 12.4796C1.99976 11.9246 2.45376 11.4716 3.00776 11.4716ZM6.27686 16.6098C6.75686 16.3328 7.34286 16.4378 7.56786 16.8298C7.80986 17.2478 7.59386 17.7818 7.11286 18.0588L5.64286 19.1078C5.16086 19.3858 4.54086 19.2198 4.26286 18.7378C3.98586 18.2578 4.15186 17.6388 4.63286 17.3598L6.27686 16.6098Z" fill="black"/>
<path fill-rule="evenodd" clip-rule="evenodd" d="M19.6499 7.4935V17.4995C19.6499 18.6045 18.7539 19.4995 17.6499 19.4995H11.1019C9.99693 19.4995 9.10193 18.6045 9.10193 17.4995V7.4935C9.10193 6.3895 9.99693 5.4935 11.1019 5.4935H17.4669H17.6499C18.7539 5.4935 19.6499 6.3895 19.6499 7.4935Z" stroke="black" stroke-width="1.5" stroke-linecap="round" stroke-linejoin="round"/>
</svg>
