<svg width="24" height="24" viewBox="0 0 24 24" fill="none" xmlns="http://www.w3.org/2000/svg">
<path fill-rule="evenodd" clip-rule="evenodd" d="M14.81 4.84489C14.991 4.47189 15.439 4.31589 15.812 4.49589C18.812 5.94989 20.75 9.04289 20.75 12.3749C20.75 17.1989 16.825 21.1249 12 21.1249C7.175 21.1249 3.25 17.1989 3.25 12.3749C3.25 9.05089 5.095 6.05589 8.064 4.55789C8.434 4.37189 8.884 4.51889 9.072 4.88989C9.258 5.25989 9.11 5.71089 8.74 5.89689C6.279 7.13889 4.75 9.62089 4.75 12.3749C4.75 16.3719 8.002 19.6249 12 19.6249C15.998 19.6249 19.25 16.3719 19.25 12.3749C19.25 9.61389 17.644 7.05089 15.158 5.84689C14.785 5.66589 14.629 5.21689 14.81 4.84489ZM12.0005 2.87509C12.4145 2.87509 12.7505 3.21109 12.7505 3.62509V9.86309C12.7505 10.2771 12.4145 10.6131 12.0005 10.6131C11.5865 10.6131 11.2505 10.2771 11.2505 9.86309V3.62509C11.2505 3.21109 11.5865 2.87509 12.0005 2.87509Z" fill="black"/>
</svg>
