<svg width="24" height="24" viewBox="0 0 24 24" fill="none" xmlns="http://www.w3.org/2000/svg">
<path fill-rule="evenodd" clip-rule="evenodd" d="M18.2389 11.9073C16.9889 13.1583 15.1649 13.4853 13.6129 12.8893L7.55693 18.9453C6.87193 19.6313 5.74293 19.7033 5.03993 19.0353C4.31793 18.3503 4.30693 17.2103 5.00693 16.5103L11.1199 10.3963C10.5239 8.8443 10.8519 7.0213 12.1019 5.7703C13.3139 4.5583 15.0639 4.2143 16.5829 4.7353C16.8479 4.8273 16.9309 5.1603 16.7329 5.3593L14.3819 7.7103C14.0889 8.0033 14.0889 8.4783 14.3819 8.7713L15.2389 9.6283C15.5309 9.9213 16.0059 9.9213 16.2989 9.6283L18.6509 7.2763C18.8489 7.0783 19.1829 7.1623 19.2739 7.4273C19.7959 8.9463 19.4509 10.6953 18.2389 11.9073Z" stroke="black" stroke-width="1.5" stroke-linecap="round" stroke-linejoin="round"/>
</svg>
