<svg width="24" height="24" viewBox="0 0 24 24" fill="none" xmlns="http://www.w3.org/2000/svg">
<path d="M16.844 9.38671C16.844 9.77311 16.5304 10.0867 16.144 10.0867C15.7576 10.0867 15.444 9.77311 15.444 9.38671V7.28671C15.444 6.90031 15.7576 6.58671 16.144 6.58671C16.5304 6.58671 16.844 6.90031 16.844 7.28671V9.38671ZM13.5773 9.38671C13.5773 9.77311 13.2637 10.0867 12.8773 10.0867C12.4909 10.0867 12.1773 9.77311 12.1773 9.38671V7.28671C12.1773 6.90031 12.4909 6.58671 12.8773 6.58671C13.2637 6.58671 13.5773 6.90031 13.5773 7.28671V9.38671ZM10.3107 9.38671C10.3107 9.77311 9.99712 10.0867 9.61072 10.0867C9.22432 10.0867 8.91072 9.77311 8.91072 9.38671V7.28671C8.91072 6.90031 9.22432 6.58671 9.61072 6.58671C9.99712 6.58671 10.3107 6.90031 10.3107 7.28671V9.38671ZM17.0167 3.83331H8.56632C7.28292 3.83331 6.23292 4.88331 6.23292 6.16671V11.1777C6.23292 11.3663 6.13492 11.6416 6.01642 11.7881L5.01962 13.0248C4.81522 13.2777 4.65002 13.75 4.65002 14.0739V18.3C4.65002 19.5889 5.69442 20.1667 6.98332 20.1667H17.0167C18.3037 20.1667 19.35 19.5889 19.35 18.3V6.16671C19.35 4.87771 18.3037 3.83331 17.0167 3.83331Z" fill="black"/>
</svg>
