<svg width="24" height="24" viewBox="0 0 24 24" fill="none" xmlns="http://www.w3.org/2000/svg">
<path d="M10.995 3.71679C9.53 4.38079 8.104 4.86379 6.437 5.13879C5.604 5.27579 5 6.01379 5 6.86279V11.9258C5 14.4648 6.093 16.6857 8.248 18.5298C9.112 19.2668 10.018 19.8207 10.752 20.1987C11.536 20.6007 12.463 20.6007 13.247 20.1987C13.98 19.8207 14.886 19.2668 15.75 18.5298C17.904 16.6857 19 14.4648 19 11.9258V6.86279C19 6.01379 18.395 5.27679 17.561 5.13879C15.895 4.86379 14.469 4.38079 13.006 3.71679C12.367 3.42769 11.633 3.42769 10.995 3.71679Z" stroke="black" stroke-width="1.5" stroke-linecap="round" stroke-linejoin="round"/>
<path d="M12.0003 11.6361C13.5883 11.6361 14.8773 12.8341 14.8763 14.1221V14.7151C14.0493 15.2571 13.0613 15.5741 12.0003 15.5741C10.9383 15.5741 9.95131 15.2571 9.12331 14.7151V14.1221C9.12331 12.8341 10.4113 11.6361 12.0003 11.6361ZM13.6236 9.32919C13.4926 10.0122 12.9196 10.5482 12.2296 10.6412C11.1336 10.7872 10.2116 9.86319 10.3616 8.76819C10.4546 8.07919 10.9926 7.50719 11.6756 7.37719C12.8426 7.15519 13.8476 8.16119 13.6236 9.32919Z" fill="black"/>
</svg>
