<svg width="24" height="24" viewBox="0 0 24 24" fill="none" xmlns="http://www.w3.org/2000/svg">
<path fill-rule="evenodd" clip-rule="evenodd" d="M12.3862 21.9391C13.2979 21.5682 14.8825 20.7684 16.3652 19.5086C18.902 17.3521 20.1895 14.7529 20.1895 11.7793V5.56271C20.1895 4.71323 19.5631 4.00139 18.7241 3.87299C16.489 3.53207 14.627 2.88035 12.6727 1.96031C12.2162 1.74659 11.6857 1.74659 11.2292 1.96031C9.27492 2.87915 7.41312 3.53207 5.1768 3.87299C4.33776 4.00139 3.71255 4.71323 3.71255 5.56271V11.7793C3.71255 14.7529 4.99991 17.3521 7.53672 19.5086C9.02064 20.7684 10.604 21.5682 11.5159 21.9391C11.7955 22.0536 12.1064 22.0536 12.3862 21.9391Z" stroke="black" stroke-width="1.8" stroke-linecap="round" stroke-linejoin="round"/>
</svg>
