<svg width="24" height="24" viewBox="0 0 24 24" fill="none" xmlns="http://www.w3.org/2000/svg">
<path d="M17.6514 18.6451C18.0514 18.5371 18.4634 18.7751 18.5694 19.1761C18.6774 19.5761 18.4404 19.9871 18.0394 20.0951C17.5614 20.2231 17.0664 20.2871 16.5664 20.2871H16.1094C15.6954 20.2871 15.3594 19.9521 15.3594 19.5371C15.3594 19.1231 15.6954 18.7871 16.1094 18.7871H16.5664C16.9354 18.7871 17.2994 18.7391 17.6514 18.6451ZM12.8569 18.7871C13.2709 18.7871 13.6069 19.1231 13.6069 19.5371C13.6069 19.9521 13.2709 20.2871 12.8569 20.2871H11.1059C10.6909 20.2871 10.3559 19.9521 10.3559 19.5371C10.3559 19.1231 10.6909 18.7871 11.1059 18.7871H12.8569ZM5.3965 19.1542C5.5085 18.7562 5.9215 18.5212 6.3205 18.6332C6.6865 18.7352 7.0645 18.7872 7.4475 18.7872H7.8535C8.2675 18.7872 8.6035 19.1232 8.6035 19.5372C8.6035 19.9522 8.2675 20.2872 7.8535 20.2872H7.4475C6.9285 20.2872 6.4135 20.2162 5.9175 20.0782C5.5185 19.9662 5.2855 19.5522 5.3965 19.1542ZM20.5892 15.8249C20.7152 15.4309 21.1362 15.2119 21.5312 15.3369C21.9262 15.4619 22.1442 15.8839 22.0192 16.2779C21.8162 16.9209 21.5042 17.5179 21.0922 18.0519C20.9452 18.2439 20.7222 18.3449 20.4972 18.3449C20.3382 18.3449 20.1772 18.2939 20.0402 18.1899C19.7122 17.9369 19.6512 17.4659 19.9042 17.1379C20.2082 16.7409 20.4392 16.2999 20.5892 15.8249ZM2.4765 15.2827C2.8735 15.1627 3.2915 15.3857 3.4135 15.7817C3.5585 16.2577 3.7845 16.7017 4.0845 17.1007C4.3335 17.4317 4.2675 17.9027 3.9365 18.1517C3.8015 18.2527 3.6435 18.3017 3.4865 18.3017C3.2585 18.3017 3.0335 18.1987 2.8865 18.0027C2.4805 17.4637 2.1755 16.8647 1.9785 16.2197C1.8575 15.8237 2.0805 15.4047 2.4765 15.2827ZM19.9333 10.7592C20.2543 10.4972 20.7263 10.5442 20.9883 10.8652C21.4153 11.3872 21.7443 11.9742 21.9673 12.6112C22.1033 13.0022 21.8973 13.4292 21.5063 13.5662C21.4243 13.5942 21.3403 13.6082 21.2583 13.6082C20.9483 13.6082 20.6583 13.4152 20.5503 13.1052C20.3863 12.6362 20.1423 12.2012 19.8263 11.8142C19.5643 11.4932 19.6123 11.0202 19.9333 10.7592ZM3.067 10.8176C3.333 10.4996 3.806 10.4566 4.124 10.7226C4.442 10.9876 4.484 11.4606 4.219 11.7786C3.899 12.1616 3.65 12.5936 3.481 13.0626C3.371 13.3676 3.083 13.5576 2.776 13.5576C2.691 13.5576 2.605 13.5426 2.521 13.5126C2.131 13.3716 1.93 12.9426 2.07 12.5526C2.299 11.9186 2.635 11.3346 3.067 10.8176ZM7.2524 7.64841C7.6604 7.72241 7.9294 8.11341 7.8554 8.52041C7.8084 8.77641 7.7854 9.03941 7.7854 9.30041C7.7854 9.36641 7.7874 9.43041 7.7904 9.49441C7.8094 9.90841 7.4884 10.2584 7.0754 10.2774C7.0634 10.2784 7.0514 10.2784 7.0404 10.2784C6.6424 10.2784 6.3104 9.96441 6.2924 9.56241C6.2884 9.47541 6.2854 9.38841 6.2854 9.30041C6.2854 8.94841 6.3164 8.59541 6.3794 8.25141C6.4544 7.84341 6.8454 7.57441 7.2524 7.64841ZM16.5323 7.08531C16.9283 6.96231 17.3483 7.18331 17.4713 7.57931C17.6443 8.13431 17.7323 8.71431 17.7323 9.30031C17.7323 9.38731 17.7293 9.47431 17.7253 9.55931C17.7083 9.96331 17.3763 10.2783 16.9763 10.2783C16.9653 10.2783 16.9553 10.2783 16.9443 10.2773C16.5303 10.2593 16.2093 9.91031 16.2263 9.49631C16.2293 9.43131 16.2323 9.36731 16.2323 9.30031C16.2323 8.86531 16.1673 8.43531 16.0393 8.02331C15.9163 7.62831 16.1373 7.20831 16.5323 7.08531ZM9.8454 3.96351C10.2294 3.80651 10.6674 3.98951 10.8244 4.37251C10.9824 4.75451 10.7994 5.19351 10.4164 5.35051C9.9574 5.53951 9.5384 5.80651 9.1694 6.14451C9.0254 6.27651 8.8434 6.34151 8.6624 6.34151C8.4604 6.34151 8.2574 6.25951 8.1094 6.09851C7.8294 5.79251 7.8504 5.31851 8.1554 5.03951C8.6544 4.58151 9.2234 4.21951 9.8454 3.96351ZM12.5926 4.26441C12.7026 3.86541 13.1146 3.63041 13.5146 3.73941C14.1636 3.91841 14.7726 4.20841 15.3236 4.60241C15.6606 4.84441 15.7376 5.31241 15.4966 5.64941C15.3506 5.85341 15.1196 5.96241 14.8866 5.96241C14.7346 5.96241 14.5826 5.91741 14.4506 5.82241C14.0436 5.53141 13.5956 5.31741 13.1186 5.18641C12.7186 5.07641 12.4836 4.66441 12.5926 4.26441Z" fill="black"/>
</svg>
