<svg width="24" height="24" viewBox="0 0 24 24" fill="none" xmlns="http://www.w3.org/2000/svg">
<path d="M20.3656 4.02099C19.9506 3.40699 19.1186 3.19699 18.2786 3.53799L4.6116 9.27799C3.8216 9.60299 3.3586 10.129 3.3736 10.685C3.3826 10.986 3.5396 11.54 4.5096 11.877L9.4246 13.518L13.6406 9.30199C13.9326 9.00899 14.4076 9.00899 14.7006 9.30199C14.9936 9.59499 14.9936 10.07 14.7006 10.363L10.4856 14.579L12.1326 19.489C12.4846 20.514 13.0986 20.625 13.3466 20.625C13.8986 20.625 14.4016 20.175 14.7246 19.391L20.4626 5.71399C20.7116 5.09899 20.6756 4.48199 20.3656 4.02099Z" fill="black"/>
</svg>
