<svg width="24" height="24" viewBox="0 0 24 24" fill="none" xmlns="http://www.w3.org/2000/svg">
<path d="M15.4655 9.63908L21.2675 14.0231C21.5435 14.2041 21.5805 14.4331 21.3455 14.6461L19.3365 16.1201C19.0065 16.3621 18.5405 16.1261 18.5405 15.7171V8.28208C18.5405 7.87208 19.0065 7.63708 19.3365 7.87908L21.2665 9.29508C21.5045 9.46208 21.4975 9.77808 21.3225 9.93508L15.4655 14.3601M11.528 4.86718L6.635 8.99418H3.986C3.165 8.99418 2.5 9.65918 2.5 10.4802V13.5132C2.5 14.3342 3.165 14.9992 3.986 14.9992H6.631L11.528 19.1322C11.85 19.4042 12.342 19.1752 12.342 18.7532V5.24518C12.342 4.82518 11.85 4.59618 11.528 4.86718Z" stroke="black" stroke-width="1.5" stroke-linecap="round" stroke-linejoin="round"/>
</svg>
