<svg width="24" height="24" viewBox="0 0 24 24" fill="none" xmlns="http://www.w3.org/2000/svg">
<path d="M20.1783 14.3L18.7783 12.9C18.5783 12.7 18.4783 12.4 18.4783 12.2C18.4783 12.2 18.4783 12.2 18.4783 12C18.4783 11.8 18.4783 11.8 18.4783 11.8C18.4783 11.6 18.5783 11.3 18.7783 11.1L20.1783 9.70001C20.3783 9.50001 20.3783 9.20001 20.2783 8.90001L18.7783 6.30001C18.6783 6.10001 18.2783 5.90001 18.0783 6.00001L16.1783 6.50001C15.8783 6.60001 15.5783 6.50001 15.3783 6.40001C15.1783 6.30001 14.6783 5.80001 14.5783 5.50001L14.0783 3.60001C13.9783 3.30001 13.7783 3.10001 13.4783 3.10001H10.4783C10.1783 3.10001 9.87829 3.30001 9.87829 3.60001L9.37829 5.50001C9.27829 5.80001 9.07829 6.10001 8.87829 6.20001C8.67829 6.30001 7.9783 6.50001 7.7783 6.50001L5.8783 6.00001C5.5783 5.90001 5.2783 6.10001 5.1783 6.30001L3.6783 8.90001C3.5783 9.10001 3.5783 9.50001 3.7783 9.70001L5.1783 11.1C5.3783 11.3 5.4783 11.6 5.4783 11.8C5.4783 11.8 5.4783 11.8 5.4783 12C5.4783 12.2 5.4783 12.2 5.4783 12.2C5.4783 12.4 5.3783 12.7 5.1783 12.9L3.7783 14.3C3.5783 14.5 3.5783 14.8 3.6783 15.1L5.1783 17.7C5.2783 17.9 5.6783 18.1 5.8783 18L7.7783 17.5C8.0783 17.4 8.3783 17.5 8.5783 17.6C8.7783 17.7 9.27829 18.2 9.37829 18.5L9.87829 20.4C9.97829 20.7 10.1783 20.9 10.4783 20.9H13.4783C13.7783 20.9 14.0783 20.7 14.0783 20.4L14.5783 18.5C14.6783 18.2 14.8783 17.9 15.0783 17.8C15.2783 17.7 15.9783 17.5 16.1783 17.5L18.0783 18C18.3783 18.1 18.6783 17.9 18.7783 17.7L20.2783 15.1C20.4783 14.9 20.3783 14.5 20.1783 14.3ZM12.0783 15C10.3783 15 9.0783 13.7 9.0783 12C9.0783 10.3 10.3783 9.00001 12.0783 9.00001C13.7783 9.00001 15.0783 10.3 15.0783 12C15.0783 13.7 13.6783 15 12.0783 15Z" fill="black"/>
</svg>
