<svg width="24" height="24" viewBox="0 0 24 24" fill="none" xmlns="http://www.w3.org/2000/svg">
<path fill-rule="evenodd" clip-rule="evenodd" d="M13.3856 3.14001C13.8582 3.14001 14.3088 3.41771 14.5588 3.86631L14.6219 3.99281L14.6691 4.13481L15.1121 5.86061L15.1526 5.89401C15.2432 5.97681 15.4617 6.18681 15.5527 6.24491C15.5427 6.23841 15.5523 6.23661 15.5701 6.23661L15.6656 6.23711L15.7338 6.22421L17.4439 5.74751C17.9001 5.62011 18.4098 5.76691 18.7707 6.13431L18.8653 6.23991L18.9471 6.36241L20.3352 8.77551C20.5639 9.17461 20.5547 9.68691 20.3069 10.1267L20.2254 10.2562L20.1156 10.3825L18.8475 11.6326C18.8112 11.6683 18.77 11.7417 18.7555 11.7531L18.7502 11.7484L18.7476 11.8145L18.7457 12.2271C18.7467 12.2131 18.7528 12.2185 18.7609 12.2318L18.8019 12.3052L18.8476 12.3584L20.118 13.6097C20.4459 13.936 20.5739 14.4372 20.4472 14.931L20.4063 15.0653L20.3346 15.2153L18.947 17.6277C18.7111 18.0376 18.2447 18.2898 17.7304 18.2813L17.5891 18.2725L17.4442 18.2425L15.7335 17.7656C15.7515 17.7707 15.3099 17.8916 15.1922 17.953C15.2101 17.9435 15.174 17.9932 15.1508 18.0325L15.137 18.0589L15.1134 18.128L14.6686 19.8568C14.55 20.3139 14.1686 20.6809 13.6716 20.8105L13.5333 20.8399L13.3856 20.8499H10.6144C10.1414 20.8499 9.6902 20.5717 9.4409 20.1219L9.3781 19.9951L9.3321 19.8558L8.8868 18.1287C8.8909 18.1448 8.564 17.8198 8.4487 17.7456C8.4583 17.7517 8.4482 17.7532 8.4302 17.7531L8.3352 17.7522L8.2653 17.7657L6.5561 18.2424C6.1001 18.3697 5.5908 18.2225 5.2299 17.856L5.1353 17.7507L5.0528 17.6274L3.6675 15.2175C3.4362 14.8185 3.4443 14.3049 3.6927 13.8639L3.7744 13.7339L3.8844 13.6074L5.1515 12.3583C5.1878 12.3226 5.2294 12.2485 5.244 12.2355L5.2524 12.1754L5.2541 11.7662C5.2522 11.7929 5.2297 11.7421 5.2105 11.7068L5.1971 11.6847L5.1515 11.6315L3.8824 10.3815C3.5531 10.0556 3.4258 9.55401 3.5525 9.05991L3.5933 8.92551L3.6654 8.77461L5.0523 6.36331C5.2882 5.95191 5.7549 5.69971 6.2697 5.70851L6.4112 5.71751L6.5559 5.74751L8.2631 6.22361C8.2462 6.21891 8.6888 6.09751 8.811 6.03381C8.8009 6.03901 8.8047 6.02941 8.8139 6.01351L8.8635 5.92841L8.8866 5.86191L9.3308 4.13551C9.448 3.67701 9.8304 3.30931 10.3281 3.17941L10.4666 3.15001L10.6144 3.14001H13.3856ZM10.6912 4.56171L10.2537 6.25981L10.2047 6.40671C10.0605 6.77821 9.7899 7.12981 9.4699 7.29681C9.0923 7.49381 8.4617 7.67611 8.0217 7.62311L7.8826 7.59641L6.2494 7.13731L4.9341 9.41751L6.1821 10.6492L6.2855 10.7665C6.5042 11.0416 6.6576 11.3954 6.677 11.6915L6.6764 12.2023L6.6679 12.3555C6.6281 12.668 6.4677 13.0106 6.2486 13.2682L6.1513 13.3731L4.9351 14.5658L6.2456 16.8498L7.9252 16.383L8.0776 16.3517C8.4708 16.2909 8.9111 16.3509 9.2173 16.5462C9.5802 16.7798 10.057 17.2422 10.2253 17.6517L10.2661 17.7727L10.6893 19.4244L13.3076 19.4273L13.7456 17.7323L13.7944 17.5844C13.9371 17.2143 14.2078 16.8625 14.5291 16.6922C14.9079 16.4946 15.5387 16.3125 15.9777 16.3665L16.1163 16.3935L17.7502 16.8517L19.0646 14.5715L17.8169 13.3407L17.7136 13.2234C17.4942 12.9474 17.3407 12.5926 17.3224 12.2977L17.3234 11.7904L17.3315 11.6366C17.3704 11.3235 17.5308 10.9808 17.7502 10.7228L17.8477 10.6178L19.0646 9.42221L17.7531 7.13921L16.072 7.60721L15.9202 7.63811C15.5258 7.69841 15.0858 7.63841 14.7842 7.44431C14.4236 7.21431 13.9432 6.74851 13.7738 6.33781L13.7328 6.21651L13.3104 4.56451L10.6912 4.56171ZM11.9995 8.68621C13.8269 8.68621 15.3083 10.1675 15.3083 11.995C15.3083 13.8217 13.8266 15.3037 11.9995 15.3037C10.1732 15.3037 8.6917 13.8215 8.6917 11.995C8.6917 10.1677 10.1729 8.68621 11.9995 8.68621ZM11.9995 10.1108C10.9597 10.1108 10.1163 10.9544 10.1163 11.995C10.1163 13.0349 10.9601 13.8791 11.9995 13.8791C13.0398 13.8791 13.8837 13.035 13.8837 11.995C13.8837 10.9543 13.0402 10.1108 11.9995 10.1108Z" fill="black"/>
</svg>
