<svg width="24" height="24" viewBox="0 0 24 24" fill="none" xmlns="http://www.w3.org/2000/svg">
<path d="M12.125 3.00021C7.0855 3.00021 3 7.08531 3 12.1252C3 17.1644 7.0858 21.2502 12.125 21.2502C17.1642 21.2502 21.25 17.1644 21.25 12.1252C21.25 7.08531 17.1645 3.00021 12.125 3.00021ZM12.125 4.50021C16.3361 4.50021 19.75 7.91381 19.75 12.1252C19.75 16.336 16.3358 19.7502 12.125 19.7502C7.9142 19.7502 4.5 16.336 4.5 12.1252C4.5 7.91381 7.9139 4.50021 12.125 4.50021Z" fill="black"/>
<path d="M18.2847 16.2502C18.6989 16.2502 19.0347 16.586 19.0347 17.0002C19.0347 17.3799 18.7525 17.6937 18.3865 17.7434L18.2847 17.7502H12.8037C12.3895 17.7502 12.0537 17.4144 12.0537 17.0002C12.0537 16.6205 12.3359 16.3067 12.7019 16.257L12.8037 16.2502H18.2847ZM20.0347 13.0002C20.4489 13.0002 20.7847 13.336 20.7847 13.7502C20.7847 14.1299 20.5025 14.4437 20.1365 14.4934L20.0347 14.5002H12.8037C12.3895 14.5002 12.0537 14.1644 12.0537 13.7502C12.0537 13.3705 12.3359 13.0567 12.7019 13.007L12.8037 13.0002H20.0347ZM20.0347 9.75021C20.4489 9.75021 20.7847 10.086 20.7847 10.5002C20.7847 10.8799 20.5025 11.1937 20.1365 11.2434L20.0347 11.2502H12.8037C12.3895 11.2502 12.0537 10.9144 12.0537 10.5002C12.0537 10.1205 12.3359 9.80671 12.7019 9.75701L12.8037 9.75021H20.0347ZM18.2847 6.50021C18.6989 6.50021 19.0347 6.83601 19.0347 7.25021C19.0347 7.62991 18.7525 7.94371 18.3865 7.99341L18.2847 8.00021H12.8037C12.3895 8.00021 12.0537 7.66441 12.0537 7.25021C12.0537 6.87051 12.3359 6.55671 12.7019 6.50701L12.8037 6.50021H18.2847Z" fill="black"/>
</svg>
