<svg width="24" height="24" viewBox="0 0 24 24" fill="none" xmlns="http://www.w3.org/2000/svg">
<path fill-rule="evenodd" clip-rule="evenodd" d="M15.2138 13.2708C15.7018 12.7828 16.4928 12.7828 16.9808 13.2708L18.9878 15.2778C19.4758 15.7658 19.4758 16.5568 18.9878 17.0458L16.9808 19.0518C16.4928 19.5408 15.7018 19.5408 15.2138 19.0518L13.2068 17.0458C12.7178 16.5568 12.7178 15.7658 13.2068 15.2778L15.2138 13.2708ZM7.4761 13.3716C7.6681 13.0386 8.1501 13.0386 8.3421 13.3716L11.1051 18.1556C11.2971 18.4896 11.0561 18.9056 10.6711 18.9056H5.1471C4.7621 18.9056 4.5211 18.4896 4.7141 18.1556L7.4761 13.3716ZM7.9097 4.58151C9.6517 4.58151 11.0677 5.99751 11.0677 7.73951C11.0677 9.48051 9.6517 10.8975 7.9097 10.8975C6.1677 10.8975 4.7507 9.48051 4.7507 7.73951C4.7507 5.99751 6.1677 4.58151 7.9097 4.58151ZM17.772 4.81491C18.462 4.81491 19.022 5.37491 19.022 6.06491V9.41391C19.022 10.1039 18.462 10.6639 17.772 10.6639H14.423C13.733 10.6639 13.173 10.1039 13.173 9.41391V6.06491C13.173 5.37491 13.733 4.81491 14.423 4.81491H17.772Z" stroke="black" stroke-width="1.5" stroke-linecap="round" stroke-linejoin="round"/>
</svg>
