<svg width="24" height="24" viewBox="0 0 24 24" fill="none" xmlns="http://www.w3.org/2000/svg">
<path d="M16.3036 15.325C15.6816 15.325 15.1136 15.554 14.6766 15.929L9.07764 12.621C9.12964 12.422 9.15864 12.215 9.15864 12C9.15864 11.786 9.12964 11.579 9.07864 11.38L14.6766 8.06999C15.1136 8.44599 15.6816 8.67499 16.3036 8.67499C17.6846 8.67499 18.8036 7.55499 18.8036 6.17699C18.8036 4.79499 17.6846 3.67499 16.3036 3.67499C14.9226 3.67499 13.8026 4.79499 13.8026 6.17699C13.8026 6.38999 13.8326 6.59699 13.8836 6.79699L8.28664 10.105C7.84864 9.72899 7.28164 9.50099 6.65964 9.50099C5.27964 9.50099 4.16064 10.621 4.16064 12C4.16064 13.38 5.27964 14.501 6.65964 14.501C7.28164 14.501 7.84864 14.271 8.28664 13.895L13.8846 17.204C13.8326 17.403 13.8036 17.61 13.8036 17.825C13.8036 19.207 14.9226 20.325 16.3036 20.325C17.6846 20.325 18.8036 19.207 18.8036 17.825C18.8036 16.445 17.6846 15.325 16.3036 15.325Z" fill="black"/>
</svg>
