<svg width="24" height="24" viewBox="0 0 24 24" fill="none" xmlns="http://www.w3.org/2000/svg">
<path fill-rule="evenodd" clip-rule="evenodd" d="M16.3221 3.12509C18.0065 3.12509 19.372 4.49099 19.372 6.17609C19.372 7.85949 18.0061 9.22499 16.3221 9.22499C15.4964 9.22499 14.7473 8.89719 14.198 8.36459L9.58913 11.0879C9.67933 11.3758 9.72803 11.6822 9.72803 11.9998C9.72803 12.3175 9.67933 12.624 9.58913 12.9122L14.1979 15.6356C14.7472 15.1029 15.4963 14.775 16.3221 14.775C18.0063 14.775 19.372 16.1407 19.372 17.8249C19.372 19.5099 18.0066 20.875 16.3221 20.875C14.6367 20.875 13.2711 19.5101 13.2711 17.8249C13.2711 17.5071 13.3197 17.2006 13.41 16.9124L8.80203 14.1894C8.25273 14.723 7.50363 15.0518 6.67793 15.0518C4.99393 15.0518 3.62793 13.6841 3.62793 11.9998C3.62793 10.3162 4.99403 8.94969 6.67793 8.94969C7.50353 8.94969 8.25273 9.27819 8.80193 9.81139L13.4099 7.08789C13.3197 6.79999 13.2711 6.49369 13.2711 6.17609C13.2711 4.49079 14.6368 3.12509 16.3221 3.12509ZM16.3221 16.275C15.4654 16.275 14.7711 16.9691 14.7711 17.8249C14.7711 18.6814 15.465 19.375 16.3221 19.375C17.1782 19.375 17.872 18.6813 17.872 17.8249C17.872 16.9692 17.1778 16.275 16.3221 16.275ZM6.67793 10.4497C5.82263 10.4497 5.12803 11.1446 5.12803 11.9998C5.12803 12.8561 5.82273 13.5518 6.67793 13.5518C7.53323 13.5518 8.22803 12.8561 8.22803 11.9998C8.22803 11.1446 7.53333 10.4497 6.67793 10.4497ZM16.3221 4.62509C15.4653 4.62509 14.7711 5.31929 14.7711 6.17609C14.7711 7.03099 15.4655 7.72499 16.3221 7.72499C17.1777 7.72499 17.872 7.03089 17.872 6.17609C17.872 5.31939 17.1779 4.62509 16.3221 4.62509Z" fill="black"/>
</svg>
