<svg width="24" height="24" viewBox="0 0 24 24" fill="none" xmlns="http://www.w3.org/2000/svg">
<path fill-rule="evenodd" clip-rule="evenodd" d="M17.5066 17.1421C18.4036 17.1421 19.1326 17.8701 19.1326 18.7661C19.1326 19.6621 18.4036 20.3921 17.5066 20.3921C16.6116 20.3921 15.8826 19.6621 15.8826 18.7661C15.8826 17.8701 16.6116 17.1421 17.5066 17.1421ZM10.2683 17.1421C11.1643 17.1421 11.8933 17.8701 11.8933 18.7661C11.8933 19.6621 11.1643 20.3921 10.2683 20.3921C9.3723 20.3921 8.6443 19.6621 8.6443 18.7661C8.6443 17.8701 9.3723 17.1421 10.2683 17.1421ZM5.1664 3.60791C5.9454 3.60791 6.6374 4.12991 6.8504 4.87891L7.5044 7.18391H19.8594C20.8524 7.18391 21.5714 8.13091 21.3044 9.08691L20.1054 13.3859C19.8034 14.4669 18.8194 15.2139 17.6974 15.2139H10.0954C8.9774 15.2139 7.9944 14.4719 7.6904 13.3959L5.9314 7.18391H5.9464L5.4084 5.28991C5.3764 5.18191 5.2784 5.10791 5.1664 5.10791H3.3894C2.9754 5.10791 2.6394 4.77191 2.6394 4.35791C2.6394 3.94391 2.9754 3.60791 3.3894 3.60791H5.1664Z" fill="black"/>
</svg>
