<svg width="24" height="24" viewBox="0 0 24 24" fill="none" xmlns="http://www.w3.org/2000/svg">
<path fill-rule="evenodd" clip-rule="evenodd" d="M19.4981 5.74991C21.0191 5.74991 22.2501 6.98391 22.2501 8.50691C22.2501 9.75991 21.4151 10.8149 20.2701 11.1499C20.1491 11.1859 20.0231 11.2119 19.8951 11.2299C19.7721 11.2479 19.6471 11.2609 19.5191 11.2619C19.5121 11.2619 19.5051 11.2629 19.4981 11.2629C17.9781 11.2629 16.7461 10.0279 16.7461 8.50691C16.7461 8.38791 16.7571 8.27191 16.7711 8.15691C16.7861 8.02891 16.8121 7.90391 16.8451 7.78091C16.8811 7.65391 16.9231 7.52991 16.9741 7.40991C17.3971 6.43491 18.3671 5.74991 19.4981 5.74991Z" fill="black"/>
<path fill-rule="evenodd" clip-rule="evenodd" d="M5.75 13.7499V10.2499C5.75 8.86991 6.869 7.74991 8.25 7.74991H17.726C19.103 7.74991 20.22 8.86291 20.226 10.2399L20.24 13.7399C20.246 15.1249 19.125 16.2499 17.74 16.2499H8.25C6.869 16.2499 5.75 15.1309 5.75 13.7499Z" stroke="black" stroke-width="1.5" stroke-linecap="round" stroke-linejoin="round"/>
</svg>
