<svg width="24" height="24" viewBox="0 0 24 24" fill="none" xmlns="http://www.w3.org/2000/svg">
<path fill-rule="evenodd" clip-rule="evenodd" d="M7.73608 15.1795C8.42608 15.1795 8.98608 15.7395 8.98608 16.4295C8.98608 17.1195 8.42608 17.6795 7.73608 17.6795C7.04608 17.6795 6.48608 17.1195 6.48608 16.4295C6.48608 15.7395 7.04608 15.1795 7.73608 15.1795ZM7.73608 6.3367C8.42608 6.3367 8.98608 6.8967 8.98608 7.5867C8.98608 8.2767 8.42608 8.8367 7.73608 8.8367C7.04608 8.8367 6.48608 8.2767 6.48608 7.5867C6.48608 6.8967 7.04608 6.3367 7.73608 6.3367Z" fill="black"/>
<path d="M13.3904 19.7918H6.5004C5.1194 19.7918 4.0004 18.6728 4.0004 17.2918V15.5628C4.0004 14.1828 5.1194 13.0628 6.5004 13.0628L13.3904 13.0918M22.3125 14.7059L18.1465 18.8839C18.0105 19.0199 17.7915 19.0199 17.6555 18.8839L14.9375 16.1579M6.5 10.949C5.119 10.949 4 9.83 4 8.449V6.72C4 5.34 5.119 4.22 6.5 4.22H17.5C18.881 4.22 20 5.34 20 6.72V8.449C20 9.83 18.881 10.949 17.5 10.949H6.5Z" stroke="black" stroke-width="1.5" stroke-linecap="round" stroke-linejoin="round"/>
</svg>
