<svg width="24" height="24" viewBox="0 0 24 24" fill="none" xmlns="http://www.w3.org/2000/svg">
<path d="M5.23187 4.18477L5.31152 4.25399L11.292 10.2761L11.9279 8.94794C12.4628 7.82752 13.5665 7.09447 14.7964 7.02719L14.9817 7.02209L17.3678 7.02187L16.6145 6.27104C16.361 6.01852 16.3373 5.62274 16.5438 5.34344L16.6127 5.26342C16.8652 5.00999 17.261 4.98629 17.5403 5.19277L17.6203 5.26162L19.4042 7.03934C19.9117 7.54507 19.9433 8.34772 19.4995 8.89034L19.4044 8.99527L17.7853 10.6099C17.5066 10.8878 17.0555 10.8872 16.7776 10.6086C16.525 10.3552 16.5026 9.95939 16.7099 9.68077L16.779 9.60097L17.9348 8.44687L14.9817 8.44709C14.2775 8.44709 13.631 8.82517 13.2835 9.42922L13.2137 9.56204L12.3593 11.3501L17.6588 16.6864L18.365 15.9814L16.7786 14.3987C16.5253 14.146 16.5017 13.7503 16.7083 13.471L16.7772 13.391C17.0298 13.1377 17.4256 13.1142 17.7048 13.3208L17.7848 13.3897L19.4038 15.0042C19.9112 15.5099 19.9429 16.3117 19.4992 16.8542L19.4041 16.9591L18.663 17.6981L19.6996 18.7418C19.9769 19.021 19.9753 19.4722 19.6961 19.7494C19.4423 20.0015 19.0463 20.0231 18.7682 19.8152L18.6885 19.746L11.6985 12.7076L10.5689 15.0583C10.0328 16.1757 8.93184 16.9056 7.70424 16.9726L7.51922 16.9776H4.90254C4.50902 16.9776 4.19004 16.6586 4.19004 16.2651C4.19004 15.9019 4.46184 15.6021 4.81314 15.5581L4.90254 15.5526H7.51922C8.22204 15.5526 8.86659 15.1765 9.21452 14.574L9.28442 14.4415L10.5257 11.8569L10.5331 11.816C10.5493 11.7463 10.5761 11.6787 10.6135 11.6156L7.46702 8.44687L4.90262 8.44709C4.50909 8.44709 4.19012 8.12812 4.19012 7.73459C4.19012 7.37137 4.46192 7.07159 4.81322 7.02764L4.90262 7.02209L6.05177 7.02187L4.30044 5.25817C4.02317 4.97894 4.02474 4.52782 4.30389 4.25054C4.55777 3.99847 4.95369 3.97687 5.23187 4.18477Z" fill="black"/>
</svg>
