<svg width="24" height="24" viewBox="0 0 24 24" fill="none" xmlns="http://www.w3.org/2000/svg">
<path fill-rule="evenodd" clip-rule="evenodd" d="M4.85002 1.89999H15.45C15.8 1.89999 16.2266 2.05309 16.5287 2.29239L16.65 2.39999L20.25 6.19999C20.5125 6.46249 20.6984 6.87809 20.8078 7.31289L20.85 7.49999V20.4C20.85 21.2526 20.132 22.0155 19.2912 22.0935L19.15 22.1H4.85002C3.99742 22.1 3.23452 21.382 3.15652 20.5412L3.15002 20.4V3.59999C3.15002 2.74739 3.86802 1.98449 4.70882 1.90649L4.85002 1.89999ZM16.15 8.69999H7.85002C6.95002 8.69999 6.15002 9.39999 6.15002 10.4V18.1C6.15002 19 6.85002 19.8 7.85002 19.8H16.15C17.05 19.8 17.85 19.1 17.85 18.1V10.4C17.85 9.49999 17.15 8.69999 16.15 8.69999ZM9.35002 10.3V13.1H11.05V10.3H12.75V13.1H14.45V10.3H16.05L16.15 18.1C16.15 18.2 16.05 18.2 16.05 18.2H14.45V15.4H12.75V18.2H11.05V15.4H9.35002V18.2H7.75002C7.65002 18.2 7.65002 18.1 7.65002 18.1V10.4C7.65002 10.3 7.75002 10.3 7.75002 10.3H9.35002Z" fill="black"/>
</svg>
