<svg width="24" height="24" viewBox="0 0 24 24" fill="none" xmlns="http://www.w3.org/2000/svg">
<path d="M19.989 6.26849C20.3342 6.26849 20.614 6.54839 20.614 6.89349L20.604 8.01099C20.6026 8.08169 20.601 8.13639 20.5994 8.16699C20.3164 13.4682 15.7178 19.0553 12 19.0553C8.34329 19.0553 3.83709 13.6613 3.41849 8.44099L3.40019 8.16639C3.39229 8.01549 3.38599 7.25859 3.38599 6.89349C3.38599 6.54839 3.66579 6.26849 4.01099 6.26849C4.35619 6.26849 4.63599 6.54839 4.63599 6.89349L4.64669 8.04729L4.64849 8.10089C4.89509 12.7975 9.02019 17.8053 12 17.8053C14.9767 17.8053 19.1006 12.795 19.3511 8.10039L19.3633 7.13659C19.3638 7.04459 19.364 6.96079 19.364 6.89349C19.364 6.54839 19.6438 6.26849 19.989 6.26849Z" fill="black"/>
</svg>
