<svg width="24" height="24" viewBox="0 0 24 24" fill="none" xmlns="http://www.w3.org/2000/svg">
<path d="M20.3732 11.2245C20.7874 11.2233 21.1241 11.5581 21.1254 11.9723C21.1364 15.796 18.7506 19.2629 15.0947 20.582C12.4405 21.5392 9.55192 21.2087 7.20942 19.7645C6.92422 19.9488 6.59662 20.0683 6.24792 20.1105C4.98212 20.2646 3.83222 19.3631 3.67972 18.0976C3.52562 16.8325 4.42632 15.6836 5.69152 15.5295C6.95702 15.3754 8.10722 16.2775 8.25962 17.5418C8.30322 17.8977 8.26332 18.2512 8.14982 18.578C10.0785 19.7085 12.4242 19.9505 14.5858 19.171C17.6408 18.0687 19.6346 15.1714 19.6253 11.9766C19.6241 11.5624 19.959 11.2257 20.3732 11.2245ZM5.87292 17.0185C5.42962 17.0725 5.11482 17.474 5.16882 17.9173C5.22222 18.3605 5.62392 18.6754 6.06712 18.6214C6.27222 18.5966 6.45362 18.4974 6.58552 18.3424C6.73032 18.1725 6.79862 17.9512 6.77062 17.7228C6.71722 17.2801 6.31512 16.9646 5.87292 17.0185ZM11.5133 8.07879L15.4985 10.6839C16.4898 11.259 16.4898 12.6913 15.5323 13.2435L11.4779 15.8913C10.4839 16.4648 9.24212 15.7469 9.24212 14.5997V9.34869C9.24212 8.20179 10.483 7.48509 11.5133 8.07879ZM10.7421 9.36529V14.5817L14.7393 11.9712C14.7352 11.9723 14.7282 11.9707 14.7119 11.9605L10.7421 9.36529ZM8.90442 3.41759C11.5641 2.45909 14.4593 2.79279 16.8036 4.24389C17.0825 4.06719 17.4057 3.94759 17.7569 3.90489C19.0224 3.75079 20.1726 4.65289 20.3251 5.91769C20.4793 7.18349 19.5777 8.33339 18.3124 8.48589C17.0474 8.64009 15.8975 7.73829 15.7452 6.47399C15.7002 6.10809 15.7437 5.75179 15.8589 5.42639C13.9278 4.29229 11.5781 4.04849 9.41332 4.82869C6.35842 5.93089 4.36452 8.82899 4.37472 12.0228C4.37602 12.437 4.04132 12.7738 3.62712 12.7752C3.21282 12.7765 2.87602 12.4418 2.87462 12.0276C2.86252 8.20459 5.24852 4.73669 8.90442 3.41759ZM17.9383 5.39389C17.495 5.44779 17.1797 5.84999 17.2342 6.29269C17.2876 6.73579 17.6892 7.05069 18.1319 6.99679C18.5751 6.94339 18.89 6.54169 18.836 6.09819C18.7826 5.65549 18.3805 5.33999 17.9383 5.39389Z" fill="black"/>
</svg>
