<svg width="24" height="24" viewBox="0 0 24 24" fill="none" xmlns="http://www.w3.org/2000/svg">
<path d="M4.48301 10.2115C4.62801 9.76749 5.04201 9.48349 5.48501 9.48349C5.59301 9.48349 5.70301 9.50049 5.81001 9.53549C6.36301 9.71449 6.66601 10.3105 6.48701 10.8625C6.30701 11.4155 5.71101 11.7185 5.15901 11.5395C4.60701 11.3595 4.30301 10.7645 4.48301 10.2115ZM12 10.8795C12.979 10.8795 13.775 11.6755 13.775 12.6545C13.775 13.6325 12.979 14.4295 12 14.4295C11.022 14.4295 10.225 13.6325 10.225 12.6545C10.225 11.6755 11.022 10.8795 12 10.8795ZM10.947 5.80349C10.947 5.22249 11.419 4.75049 12 4.75049C12.581 4.75049 13.054 5.22249 13.054 5.80349C13.054 6.38449 12.581 6.85749 12 6.85749C11.419 6.85749 10.947 6.38449 10.947 5.80349ZM16.025 17.1435C16.352 17.1435 16.673 17.2945 16.879 17.5775C17.22 18.0475 17.116 18.7075 16.646 19.0485C16.175 19.3905 15.516 19.2855 15.174 18.8155C14.833 18.3455 14.938 17.6865 15.407 17.3445C15.408 17.3445 15.408 17.3445 15.408 17.3435C15.594 17.2085 15.811 17.1435 16.025 17.1435ZM8.82601 18.8155C8.48401 19.2855 7.82401 19.3905 7.35401 19.0485C6.88401 18.7075 6.78001 18.0475 7.12101 17.5775C7.28701 17.3495 7.53101 17.2005 7.80901 17.1565C7.86401 17.1475 7.92101 17.1435 7.97601 17.1435C8.19601 17.1435 8.41101 17.2115 8.59301 17.3445C9.06301 17.6855 9.16701 18.3455 8.82601 18.8155ZM18.19 9.53549C18.297 9.50049 18.407 9.48349 18.514 9.48349C18.959 9.48349 19.373 9.76749 19.518 10.2115C19.697 10.7645 19.393 11.3595 18.841 11.5395C18.574 11.6265 18.288 11.6045 18.037 11.4765C17.786 11.3485 17.6 11.1305 17.513 10.8625C17.334 10.3105 17.638 9.71449 18.19 9.53549ZM4.69601 12.9655C4.95701 13.0505 5.22201 13.0905 5.48301 13.0905C6.31101 13.0905 7.09501 12.6835 7.57301 12.0045L8.73901 12.3835C8.73201 12.4725 8.72501 12.5635 8.72501 12.6545C8.72501 13.4695 9.02701 14.2145 9.52201 14.7885L8.80201 15.7805C8.41201 15.6465 7.99301 15.6085 7.57501 15.6745C6.90001 15.7805 6.30901 16.1435 5.90801 16.6955C5.08001 17.8345 5.33401 19.4345 6.47201 20.2625C6.92401 20.5905 7.44901 20.7495 7.97001 20.7495C8.76001 20.7495 9.54001 20.3845 10.039 19.6975C10.713 18.7695 10.67 17.5355 10.015 16.6625L10.733 15.6735C11.123 15.8375 11.551 15.9295 12 15.9295C12.449 15.9295 12.877 15.8375 13.267 15.6735L13.985 16.6635C13.33 17.5365 13.287 18.7695 13.961 19.6975C14.46 20.3845 15.24 20.7495 16.03 20.7495C16.55 20.7495 17.075 20.5905 17.527 20.2625C18.667 19.4355 18.92 17.8355 18.093 16.6955C17.419 15.7675 16.232 15.4275 15.199 15.7815L14.478 14.7895C14.973 14.2155 15.275 13.4705 15.275 12.6545C15.275 12.5635 15.269 12.4735 15.261 12.3835L16.425 12.0055C16.662 12.3425 16.978 12.6195 17.356 12.8125C17.72 12.9985 18.115 13.0915 18.512 13.0915C18.778 13.0915 19.045 13.0505 19.304 12.9655C20.643 12.5305 21.379 11.0875 20.944 9.74849C20.509 8.40949 19.066 7.67349 17.726 8.10849C16.635 8.46349 15.945 9.48749 15.962 10.5785L14.796 10.9585C14.346 10.2195 13.615 9.67349 12.75 9.46949V8.24449C13.793 7.92349 14.554 6.95049 14.554 5.80349C14.554 4.39649 13.408 3.25049 12 3.25049C10.592 3.25049 9.44701 4.39649 9.44701 5.80349C9.44701 6.95049 10.207 7.92349 11.25 8.24449V9.46949C10.386 9.67349 9.65401 10.2195 9.20501 10.9575L8.03801 10.5785C8.05501 9.48649 7.36501 8.46349 6.27401 8.10849C4.93401 7.67349 3.49201 8.40949 3.05601 9.74849C2.62101 11.0865 3.35701 12.5305 4.69601 12.9655Z" fill="black"/>
</svg>
