<svg width="24" height="24" viewBox="0 0 24 24" fill="none" xmlns="http://www.w3.org/2000/svg">
<path d="M12 3.37689C12.1884 3.37689 12.3768 3.45869 12.5652 3.62239L13.2247 4.31889C16.9662 8.32479 18.8593 11.3485 18.8593 14.1245C18.8593 18.1113 15.5963 20.6231 12 20.6231C8.40369 20.6231 5.14069 18.1113 5.14069 14.1245C5.14069 11.1899 7.25629 7.97839 11.4348 3.62239C11.6232 3.45869 11.8116 3.37689 12 3.37689ZM12 4.84099L11.7289 5.12929L11.1257 5.78369C7.81849 9.42679 6.39069 11.9759 6.39069 14.1245C6.39069 17.1901 8.84309 19.3731 12 19.3731C15.1569 19.3731 17.6093 17.1901 17.6093 14.1245C17.6093 11.8495 16.0086 9.12549 12.2711 5.12929L12 4.84099Z" fill="black"/>
</svg>
