<svg width="24" height="24" viewBox="0 0 24 24" fill="none" xmlns="http://www.w3.org/2000/svg">
<path d="M4.90551 3.96131C5.18491 3.67701 5.64201 3.67301 5.92631 3.95251L9.48231 7.44741L13.3702 4.33911C14.3858 3.4442 15.5484 3.92341 15.6274 5.22761L15.6316 5.37051L15.6313 13.4904L19.6365 17.4269C19.8924 17.6784 19.9212 18.0737 19.7207 18.3576L19.6454 18.4477C19.3659 18.732 18.9089 18.736 18.6246 18.4565L15.6313 15.5144L15.6316 18.3637C15.6316 19.7335 14.4919 20.2879 13.4616 19.4704L13.3517 19.3775L8.8986 15.3531H6.16581C4.96951 15.3531 4.00031 14.3834 4.00031 13.1875V10.0596C4.00031 8.86371 4.96951 7.89401 6.16581 7.89401L7.87731 7.89341L4.91431 4.98211C4.65841 4.73061 4.62961 4.33531 4.83011 4.05141L4.90551 3.96131ZM9.32931 9.322C9.28031 9.3324 9.23001 9.33771 9.17931 9.33771H6.16581C5.76701 9.33771 5.44401 9.66091 5.44401 10.0596V13.1875C5.44401 13.5862 5.76701 13.9094 6.16581 13.9094H9.17641C9.35521 13.9094 9.52771 13.9758 9.66041 14.0957L14.1879 18.1874L14.1873 14.0954L9.32931 9.322ZM14.1879 5.53371L10.5193 8.4674L14.1873 12.0714L14.1879 5.53371Z" fill="black"/>
</svg>
