<svg width="24" height="24" viewBox="0 0 24 24" fill="none" xmlns="http://www.w3.org/2000/svg">
<path d="M11.4778 4.48591C12.5726 3.51301 13.8344 4.08091 13.8344 5.55041V18.3004C13.8344 19.7744 12.5653 20.3398 11.4856 19.3705L7.1042 15.6724H4.7504C3.5075 15.6724 2.5004 14.6649 2.5004 13.4224V10.4224C2.5004 9.17991 3.5075 8.17241 4.7504 8.17241H7.1073L11.4778 4.48591ZM17.3869 5.41491C17.6686 5.11121 18.1431 5.09351 18.4468 5.37521C22.3377 8.98491 22.3377 14.8651 18.4468 18.4748C18.1431 18.7565 17.6686 18.7388 17.3869 18.4351C17.1052 18.1314 17.1229 17.6569 17.4266 17.3752C20.6777 14.3589 20.6777 9.49111 17.4266 6.47481C17.1229 6.19311 17.1052 5.71861 17.3869 5.41491ZM12.3344 5.72571L7.865 9.49571C7.7297 9.60981 7.5584 9.67241 7.3814 9.67241H4.7504C4.336 9.67241 4.0004 10.0082 4.0004 10.4224V13.4224C4.0004 13.8366 4.336 14.1724 4.7504 14.1724H7.3784C7.5555 14.1724 7.7268 14.2351 7.8622 14.3493L12.3344 18.1245V5.72571ZM15.2559 8.28441C15.5407 7.98361 16.0154 7.97061 16.3161 8.25541C18.4516 10.2772 18.4516 13.5728 16.3161 15.5946C16.0154 15.8794 15.5407 15.8664 15.2559 15.5656C14.9711 15.2649 14.9841 14.7902 15.2849 14.5054C16.7954 13.0752 16.7954 10.7748 15.2849 9.34461C14.9841 9.05981 14.9711 8.58511 15.2559 8.28441Z" fill="black"/>
</svg>
