<svg width="24" height="24" viewBox="0 0 24 24" fill="none" xmlns="http://www.w3.org/2000/svg">
<path d="M5.64421 5.09939C5.86821 4.87539 6.19821 4.82339 6.47221 4.94139C6.49721 4.97739 6.52421 5.01339 6.55621 5.04439L19.3392 17.8284C19.4402 18.0954 19.3842 18.4084 19.1702 18.6234C19.0232 18.7704 18.8312 18.8434 18.6392 18.8434C18.4472 18.8434 18.2552 18.7704 18.1092 18.6234L15.7042 16.2184V18.8144C15.7042 19.7454 15.1382 19.9974 14.4452 19.3754L9.31421 14.7474C9.26621 14.7514 9.21921 14.7554 9.17121 14.7554H6.36221C5.40021 14.7554 4.61221 13.9684 4.61221 13.0054V10.7394C4.61221 9.77639 5.40021 8.98939 6.36221 8.98939H8.47421L5.64421 6.15939C5.35121 5.86639 5.35121 5.39139 5.64421 5.09939ZM14.4459 4.62429C15.1379 4.00229 15.7039 4.25529 15.7039 5.18529V12.0713L10.8579 7.22629L14.4459 4.62429Z" fill="black"/>
</svg>
