<svg width="24" height="24" viewBox="0 0 24 24" fill="none" xmlns="http://www.w3.org/2000/svg">
<path fill-rule="evenodd" clip-rule="evenodd" d="M11.7096 6.1094C12.2359 5.6362 12.6662 5.8291 12.6662 6.5354V17.4642C12.6662 18.1713 12.2359 18.3634 11.7096 17.8911L7.78462 14.579V14.5464C7.70152 14.5601 7.61752 14.5696 7.53092 14.5696H5.73602C4.91062 14.5696 4.23602 13.8941 4.23602 13.0695V10.9266C4.23602 10.1012 4.91062 9.4266 5.73602 9.4266H7.53092C7.61752 9.4266 7.70152 9.436 7.78462 9.4497V9.4206L11.7096 6.1094ZM16.3534 6.4198C16.5951 6.1593 17.0022 6.1447 17.2619 6.3855C18.876 7.883 19.764 9.8768 19.764 12.0008C19.764 14.124 18.8751 16.1178 17.2619 17.6144C17.1377 17.7292 16.9817 17.7858 16.8248 17.7858C16.6525 17.7858 16.4802 17.7172 16.3534 17.5809C16.1116 17.3204 16.1279 16.9132 16.3876 16.6715C17.736 15.4217 18.4783 13.7623 18.4783 12.0008C18.4783 10.2385 17.736 8.5799 16.3876 7.3284C16.1279 7.0867 16.1116 6.6804 16.3534 6.4198ZM14.5268 8.8789C14.7711 8.6227 15.1774 8.6107 15.4363 8.8549C16.3209 9.6932 16.8086 10.8093 16.8094 11.9999C16.8094 13.1905 16.3209 14.3073 15.4363 15.1457C15.3111 15.2639 15.1526 15.3214 14.994 15.3214C14.8234 15.3214 14.6537 15.2545 14.5268 15.1217C14.2825 14.8636 14.2945 14.4556 14.5525 14.2122C15.1783 13.619 15.5237 12.8339 15.5237 11.9999C15.5228 11.1667 15.1783 10.3807 14.5525 9.7884C14.2945 9.5441 14.2825 9.1369 14.5268 8.8789Z" fill="black"/>
</svg>
