<svg width="24" height="24" viewBox="0 0 24 24" fill="none" xmlns="http://www.w3.org/2000/svg">
<path d="M18.6013 4.56001C18.8943 4.26801 19.3683 4.26801 19.6613 4.56101C19.9543 4.85301 19.9543 5.32901 19.6613 5.62201L18.0613 7.22201L19.4573 8.61701C20.0413 9.20101 20.0423 10.152 19.4593 10.737L18.0613 12.14L19.4573 13.536C20.0413 14.121 20.0413 15.072 19.4573 15.656L18.0613 17.055L19.6683 18.661C19.9613 18.954 19.9613 19.43 19.6683 19.723C19.5213 19.868 19.3293 19.941 19.1383 19.941C18.9453 19.941 18.7543 19.868 18.6073 19.722L17.0003 18.115C16.4163 17.531 16.4153 16.58 16.9993 15.995L18.3953 14.597L17.0003 13.2C16.4163 12.616 16.4153 11.666 16.9983 11.081L18.3963 9.67801L17.0013 8.28201C16.7173 7.99801 16.5613 7.62201 16.5613 7.22101C16.5613 6.82001 16.7173 6.44301 17.0013 6.16001L18.6013 4.56001ZM4.3239 4.87351C4.5469 4.65051 4.8759 4.59951 5.1509 4.71751C5.1749 4.75251 5.2029 4.78851 5.2349 4.82051L14.3819 13.9675V18.3395C14.3819 19.2705 13.8169 19.5225 13.1239 18.9015L8.1689 14.4325C8.0659 14.4475 7.9599 14.4545 7.8519 14.4485L6.0389 14.3635C5.0779 14.3185 4.2909 13.4935 4.2909 12.5315V10.5145C4.2909 9.55151 5.0779 8.76451 6.0409 8.76451H7.1529L4.3239 5.93451C4.0309 5.64251 4.0309 5.16651 4.3239 4.87351ZM13.1243 4.40031C13.8163 3.77831 14.3823 4.03031 14.3823 4.96131V11.8463L9.5363 7.00231L13.1243 4.40031Z" fill="black"/>
</svg>
