<svg width="24" height="24" viewBox="0 0 24 24" fill="none" xmlns="http://www.w3.org/2000/svg">
<path fill-rule="evenodd" clip-rule="evenodd" d="M21.7499 11.9999C21.7499 15.7289 18.7419 18.7499 15.0299 18.7499C11.3179 18.7499 8.31091 15.7289 8.31091 11.9999C8.31091 8.27188 11.3179 5.24988 15.0299 5.24988C18.7419 5.24988 21.7499 8.27188 21.7499 11.9999Z" stroke="black" stroke-width="1.5" stroke-linecap="round" stroke-linejoin="round"/>
<path d="M10.3515 17.3144C7.42955 17.3144 5.06055 14.9354 5.06055 12.0004C5.06055 9.06442 7.42955 6.68542 10.3515 6.68542" stroke="black" stroke-width="1.5" stroke-linecap="round" stroke-linejoin="round"/>
<path d="M6.11663 15.8837C3.98163 15.8837 2.24963 14.1457 2.24963 11.9997C2.24963 9.8557 3.98163 8.1167 6.11663 8.1167" stroke="black" stroke-width="1.5" stroke-linecap="round" stroke-linejoin="round"/>
<path d="M17.6781 12.4267L14.0371 14.7817C13.9421 14.8447 13.8441 14.8747 13.7461 14.8747C13.5281 14.8747 13.3081 14.7067 13.3081 14.3847V9.6147C13.3081 9.2927 13.5281 9.12469 13.7461 9.12469C13.8441 9.12469 13.9421 9.1557 14.0371 9.2187L17.6781 11.5727C17.8371 11.6757 17.9281 11.8307 17.9281 11.9997C17.9281 12.1687 17.8371 12.3237 17.6781 12.4267Z" fill="black"/>
</svg>
