<svg width="24" height="24" viewBox="0 0 24 24" fill="none" xmlns="http://www.w3.org/2000/svg">
<path d="M9.45298 8.51703L15.303 14.385M7.22098 18.894C6.27598 19.704 6.75298 19.713 4.25098 20.667M13.242 12.873L7.14898 18.957" stroke="black" stroke-width="1.53"/>
<path d="M3.198 19.623L4.215 20.64" stroke="black" stroke-width="1.53" stroke-linecap="round" stroke-linejoin="round"/>
<path d="M4.89897 16.581C4.07997 17.517 4.07996 17.076 3.18896 19.623M10.929 10.56L4.83596 16.644M10.641 9.53398C10.641 9.53398 12.585 9.59698 13.323 7.71598C13.323 7.71598 13.728 5.56498 14.934 4.29598C14.97 4.25998 14.997 4.23298 15.033 4.19698C16.302 2.98198 18.246 2.73898 19.686 4.16998" stroke="black" stroke-width="1.53"/>
<path d="M14.295 13.179C14.295 13.179 14.232 11.244 16.113 10.497C16.113 10.497 18.264 10.092 19.533 8.886C19.569 8.85 19.596 8.823 19.632 8.787C20.847 7.527 21.09 5.57401 19.659 4.14301" stroke="black" stroke-width="1.53"/>
</svg>
