<svg width="24" height="24" viewBox="0 0 24 24" fill="none" xmlns="http://www.w3.org/2000/svg">
<path fill-rule="evenodd" clip-rule="evenodd" d="M6.19312 15.9394C6.32012 15.8124 6.47812 15.6544 6.67612 15.4274L11.0951 11.0134L12.6821 12.6034L8.24312 17.0374C8.00612 17.2444 7.84512 17.4084 7.71612 17.5414C7.41312 17.8494 6.20412 18.7054 4.82112 19.2534L4.50012 18.9314C5.02912 17.4614 5.86812 16.2654 6.19312 15.9394ZM5.37512 20.6484C6.83612 20.0694 8.26812 19.1204 8.78612 18.5904C8.89012 18.4854 9.02912 18.3424 9.23212 18.1654L9.26912 18.1324L9.30312 18.0974L13.7421 13.6644L13.9191 13.8404L14.4581 14.3804C14.7501 14.6734 15.2251 14.6734 15.5181 14.3804C15.8111 14.0874 15.8121 13.6134 15.5191 13.3204L14.6841 12.4844C14.8391 11.9364 15.2311 11.1674 16.2231 10.7444C16.4701 10.6874 18.3991 10.2194 19.6271 9.05038C19.6611 9.01838 19.6931 8.98638 19.7281 8.95138C20.9271 7.70738 21.1941 5.50138 19.7331 4.01738C19.7321 4.01638 19.7321 4.01638 19.7311 4.01538L19.7131 3.99838C18.2291 2.53638 16.0221 2.80238 14.7731 4.00638L14.6761 4.10438C13.5071 5.33138 13.0401 7.25738 12.9831 7.50438C12.5601 8.49438 11.7931 8.88438 11.2451 9.04138L11.0961 8.89138L10.4161 8.21038C10.1241 7.91838 9.64912 7.91838 9.35612 8.21038C9.06312 8.50238 9.06212 8.97738 9.35512 9.27138L9.85912 9.77538L10.0351 9.95238L5.61612 14.3664L5.58012 14.4024L5.54712 14.4404C5.38512 14.6254 5.25912 14.7524 5.13312 14.8774C4.58712 15.4254 3.65212 16.8574 3.08912 18.4244C2.89212 18.9714 3.02912 19.5824 3.44012 19.9934L3.76112 20.3144C4.18412 20.7374 4.81812 20.8684 5.37512 20.6484Z" fill="black"/>
</svg>
