<svg width="24" height="24" viewBox="0 0 24 24" fill="none" xmlns="http://www.w3.org/2000/svg">
<path fill-rule="evenodd" clip-rule="evenodd" d="M15.1419 12.7504C15.3547 15.0834 16.5489 17.0404 18.1819 17.9254C16.87 19.3444 15.0935 20.2814 13.1127 20.4654V12.7504H15.1419ZM11.6875 12.7504V20.4654C9.7067 20.2814 7.9302 19.3434 6.6183 17.9254C8.2513 17.0404 9.4455 15.0834 9.6583 12.7504H11.6875ZM20.4416 12.7504C20.32 14.2114 19.8469 15.5674 19.1097 16.7244C17.7911 16.1864 16.7908 14.6444 16.578 12.7504H20.4416ZM8.2223 12.7501C8.0095 14.6441 7.0092 16.1861 5.6906 16.7241C4.9534 15.5681 4.4803 14.2111 4.3587 12.7501H8.2223ZM13.1128 3.53471C15.0936 3.71871 16.8701 4.65671 18.182 6.07471C16.549 6.95971 15.3548 8.91671 15.142 11.2507H13.1128V3.53471ZM19.1093 7.27581C19.8465 8.43181 20.3196 9.78881 20.4412 11.2508H16.5776C16.7904 9.35581 17.7907 7.81381 19.1093 7.27581ZM11.6875 3.53461V11.2506H9.6583C9.4455 8.91661 8.2513 6.95961 6.6183 6.07461C7.9302 4.65661 9.7067 3.71861 11.6875 3.53461ZM5.6903 7.27541C7.0089 7.81341 8.0092 9.35541 8.222 11.2504H4.3584C4.48 9.78841 4.9531 8.43241 5.6903 7.27541Z" fill="black"/>
</svg>
