<svg width="24" height="24" viewBox="0 0 24 24" fill="none" xmlns="http://www.w3.org/2000/svg">
<path d="M11.8062 3.24982C15.9896 3.24982 19.3622 6.82712 19.3622 11.2188C19.3622 15.9654 15.7898 21.2498 11.8062 21.2498C7.82264 21.2498 4.25024 15.9654 4.25024 11.2188C4.25024 6.82712 7.62284 3.24982 11.8062 3.24982ZM11.8062 4.74982C8.47164 4.74982 5.75024 7.63642 5.75024 11.2188C5.75024 15.233 8.80374 19.7498 11.8062 19.7498C14.8087 19.7498 17.8622 15.233 17.8622 11.2188C17.8622 7.63642 15.1408 4.74982 11.8062 4.74982ZM13.9457 13.8697C14.2647 14.1887 14.2637 14.7047 13.9457 15.0237C13.6277 15.3427 13.1107 15.3427 12.7917 15.0237C12.4727 14.7047 12.4727 14.1887 12.7917 13.8697C13.1117 13.5507 13.6277 13.5507 13.9457 13.8697ZM10.8207 13.8697C11.1397 14.1887 11.1387 14.7047 10.8207 15.0237C10.5027 15.3427 9.98574 15.3427 9.66674 15.0237C9.34774 14.7047 9.34774 14.1887 9.66674 13.8697C9.98674 13.5507 10.5027 13.5507 10.8207 13.8697ZM9.50824 11.3697C9.82724 11.6887 9.82624 12.2047 9.50824 12.5237C9.19024 12.8427 8.67324 12.8427 8.35424 12.5237C8.03524 12.2047 8.03524 11.6887 8.35424 11.3697C8.67424 11.0507 9.19024 11.0507 9.50824 11.3697ZM15.2582 11.3697C15.5772 11.6887 15.5762 12.2047 15.2582 12.5237C14.9402 12.8427 14.4232 12.8427 14.1042 12.5237C13.7852 12.2047 13.7852 11.6887 14.1042 11.3697C14.4242 11.0507 14.9402 11.0507 15.2582 11.3697ZM12.3832 11.3697C12.7022 11.6887 12.7012 12.2047 12.3832 12.5237C12.0652 12.8427 11.5482 12.8427 11.2292 12.5237C10.9102 12.2047 10.9102 11.6887 11.2292 11.3697C11.5492 11.0507 12.0652 11.0507 12.3832 11.3697Z" fill="black"/>
</svg>
