<svg width="24" height="24" viewBox="0 0 24 24" fill="none" xmlns="http://www.w3.org/2000/svg">
<path fill-rule="evenodd" clip-rule="evenodd" d="M6.77 8.582C9.728 7.684 14.646 7.857 17.754 9.703C18.126 9.923 18.248 10.404 18.027 10.776C17.807 11.148 17.326 11.27 16.954 11.05C14.255 9.447 9.802 9.299 7.225 10.081C6.811 10.207 6.374 9.973 6.248 9.56C6.123 9.145 6.356 8.708 6.77 8.582ZM16.866 13.424C16.676 13.732 16.274 13.828 15.968 13.639C13.717 12.256 10.285 11.855 7.623 12.664C7.277 12.768 6.913 12.573 6.808 12.228C6.704 11.883 6.898 11.519 7.243 11.414C10.285 10.491 14.066 10.938 16.651 12.526C16.958 12.716 17.055 13.118 16.866 13.424ZM15.841 15.705C15.69 15.952 15.369 16.029 15.124 15.878C13.157 14.676 10.681 14.405 7.766 15.071C7.485 15.135 7.205 14.959 7.141 14.679C7.077 14.398 7.252 14.117 7.534 14.053C10.724 13.324 13.46 13.638 15.668 14.987C15.914 15.137 15.992 15.458 15.841 15.705ZM12 20.375C16.626 20.375 20.375 16.625 20.375 12C20.375 7.375 16.626 3.625 12 3.625C7.375 3.625 3.625 7.375 3.625 12C3.625 16.625 7.375 20.375 12 20.375Z" fill="black"/>
</svg>
