<svg width="24" height="24" viewBox="0 0 24 24" fill="none" xmlns="http://www.w3.org/2000/svg">
<g clip-path="url(#clip0_702_2454)">
<path fill-rule="evenodd" clip-rule="evenodd" d="M11.4903 0.250183C13.1018 0.252983 14.1548 0.288783 15.478 0.464083C17.6656 0.753783 19.646 1.53118 21.1042 2.90228C22.4689 4.35378 23.2462 6.33418 23.536 8.52178C23.7115 9.84688 23.747 10.9016 23.7498 11.4902C23.747 13.1018 23.7113 14.1548 23.536 15.478C23.2462 17.6654 22.4689 19.6461 21.0974 21.1041C19.6461 22.4688 17.6656 23.246 15.478 23.536C14.1527 23.7115 13.0982 23.747 12.5097 23.7498C10.898 23.747 9.84488 23.7113 8.52168 23.536C6.33408 23.246 4.35378 22.4688 2.89578 21.0975C1.53108 19.6461 0.753883 17.6654 0.463983 15.478C0.288383 14.1528 0.252983 13.0982 0.250183 12.5096C0.252983 10.8979 0.288683 9.84488 0.463983 8.52178C0.753883 6.33418 1.53108 4.35378 2.90248 2.89578C4.35378 1.53118 6.33418 0.753783 8.52168 0.464083C9.84698 0.288483 10.9017 0.252983 11.4903 0.250183Z" fill="black"/>
</g>
<defs>
<clipPath id="clip0_702_2454">
<rect width="24" height="24" fill="white"/>
</clipPath>
</defs>
</svg>
