<svg width="24" height="24" viewBox="0 0 24 24" fill="none" xmlns="http://www.w3.org/2000/svg">
<path fill-rule="evenodd" clip-rule="evenodd" d="M4.00298 10.3318C4.01898 10.2848 4.04298 10.2848 4.06698 10.2848H4.13798L8.47598 9.46578C9.10198 9.43378 9.64598 9.03378 9.86398 8.44578L11.894 4.39978L11.936 4.29578C11.943 4.27178 11.951 4.24878 12 4.24878C12.049 4.24878 12.057 4.27178 12.065 4.29578L14.137 8.44578C14.355 9.03378 14.899 9.43378 15.524 9.46578L19.862 10.2848H19.933C19.957 10.2848 19.982 10.2848 19.997 10.3318C20.012 10.3778 19.992 10.3928 19.973 10.4068L16.793 13.5848C16.3 13.9778 16.09 14.6228 16.259 15.2298L16.94 19.5418L16.967 19.6568C16.975 19.6798 16.982 19.7038 16.942 19.7318C16.903 19.7618 16.883 19.7468 16.863 19.7318L12.887 17.3898C12.352 17.0208 11.649 17.0208 11.113 17.3898L7.19698 19.6918L7.13698 19.7318C7.11698 19.7468 7.09798 19.7618 7.05798 19.7318C7.01898 19.7038 7.02498 19.6798 7.03298 19.6568L7.74098 15.2298C7.90998 14.6228 7.69998 13.9778 7.20698 13.5848L4.11798 10.4838L4.02698 10.4068C4.00798 10.3928 3.98798 10.3778 4.00298 10.3318ZM3.09198 11.5788L6.17998 14.6798L6.27098 14.7568C6.29398 14.7738 6.30398 14.8048 6.29498 14.8318L5.58698 19.2588C5.40798 19.8958 5.63498 20.5528 6.17598 20.9458C6.45598 21.1488 6.77598 21.2508 7.09798 21.2508C7.40498 21.2508 7.71298 21.1568 7.98398 20.9698L11.899 18.6668L11.96 18.6268C11.984 18.6088 12.016 18.6088 12.04 18.6268L16.016 20.9698C16.57 21.3528 17.275 21.3448 17.824 20.9458C18.365 20.5528 18.592 19.8958 18.413 19.2588L17.732 14.9468L17.705 14.8318C17.696 14.8048 17.706 14.7738 17.73 14.7568L20.908 11.5788C21.428 11.1678 21.63 10.5038 21.424 9.86778C21.218 9.23578 20.67 8.81778 20.014 8.78678L15.676 7.96778H15.606C15.576 7.96778 15.551 7.94878 15.541 7.92078L13.47 3.76978C13.24 3.14678 12.67 2.74878 12 2.74878C11.33 2.74878 10.76 3.14778 10.53 3.76978L8.50198 7.81578L8.45898 7.92078C8.44898 7.94878 8.42398 7.96778 8.39498 7.96778H8.32398L3.98698 8.78678C3.32998 8.81778 2.78198 9.23578 2.57598 9.86778C2.36998 10.5038 2.57198 11.1678 3.09198 11.5788Z" fill="black"/>
</svg>
