<svg width="24" height="24" viewBox="0 0 24 24" fill="none" xmlns="http://www.w3.org/2000/svg">
<path fill-rule="evenodd" clip-rule="evenodd" d="M16.3162 3.49841C18.6181 3.49841 20.5016 5.38191 20.5016 7.68381V12.0942C20.4838 12.0984 20.4639 12.0994 20.4451 12.1036H19.0084C18.6914 12.09 18.3388 12.0806 17.9401 12.0942C17.8606 12.0963 17.7842 12.0994 17.7078 12.1036L17.4279 12.1195C15.9507 12.2185 14.722 12.5584 13.6407 13.6407C13.2232 14.0582 12.9176 14.4976 12.6916 14.9643C10.8846 15.4216 8.88611 14.5322 8.19761 12.902C8.01131 12.4593 7.46621 12.2773 7.04351 12.5514C6.72011 12.7607 6.61241 13.1887 6.76511 13.5423C7.59491 15.4718 9.59861 16.6583 11.7049 16.6583C11.8703 16.6583 12.0356 16.651 12.2019 16.6353C12.1413 17.0497 12.1078 17.4829 12.0931 17.9412C12.0837 18.2268 12.0858 18.4894 12.0931 18.7332V20.5016H7.68381C5.38191 20.5016 3.49841 18.6181 3.49841 16.3162V7.68381C3.49841 5.38191 5.38191 3.49841 7.68381 3.49841H16.3162ZM18.0003 13.9241C18.4408 13.9095 18.8353 13.9597 19.1942 13.9241L13.9227 19.1946C13.9582 18.8357 13.9091 18.4412 13.9227 18.0007C13.975 16.4322 14.2408 15.6297 14.9355 14.9349C15.6293 14.2401 16.4318 13.9754 18.0003 13.9241ZM15.0878 8.39321C14.4359 8.39321 13.9085 8.91851 13.9096 9.57041C13.9085 10.2202 14.4359 10.7475 15.0878 10.7475C15.7365 10.7475 16.2628 10.2202 16.2628 9.57041C16.2628 8.91851 15.7365 8.39321 15.0878 8.39321ZM9.04301 8.39321C8.39321 8.39321 7.86691 8.91851 7.86801 9.57041C7.86801 10.2202 8.39221 10.7475 9.04301 10.7475C9.69281 10.7475 10.2212 10.2202 10.2212 9.57041C10.2212 8.91851 9.69281 8.39321 9.04301 8.39321Z" fill="black"/>
</svg>
