<svg width="24" height="24" viewBox="0 0 24 24" fill="none" xmlns="http://www.w3.org/2000/svg">
<path d="M14.9691 8.55322C15.5211 8.55322 15.9671 9.00022 15.9671 9.55322C15.9671 10.1052 15.5211 10.5532 14.9691 10.5532C14.4151 10.5532 13.9681 10.1052 13.9681 9.55322C13.9681 9.00022 14.4151 8.55322 14.9691 8.55322ZM9.40559 8.55372C9.95859 8.55372 10.4066 8.99972 10.4066 9.55372C10.4066 10.1057 9.95859 10.5537 9.40559 10.5537C8.85259 10.5537 8.40759 10.1057 8.40759 9.55372C8.40659 8.99972 8.85359 8.55372 9.40559 8.55372Z" fill="black"/>
<path d="M7.85971 13.2558C8.65971 15.1498 10.8547 16.0918 12.8257 15.6568" stroke="black" stroke-width="1.5" stroke-linecap="round" stroke-linejoin="round"/>
<path fill-rule="evenodd" clip-rule="evenodd" d="M13.515 19.561L19.561 13.515C19.842 13.234 20 12.853 20 12.455V8C20 5.791 18.209 4 16 4H8C5.79 4 4 5.791 4 8V16C4 18.209 5.79 20 8 20H12.454C12.852 20 13.234 19.842 13.515 19.561Z" stroke="black" stroke-width="1.5" stroke-linecap="round" stroke-linejoin="round"/>
<path d="M19.762 13.0756H16.575C14.642 13.0756 13.075 14.6426 13.075 16.5756V19.7186" stroke="black" stroke-width="1.5" stroke-linecap="round" stroke-linejoin="round"/>
</svg>
