<svg width="24" height="24" viewBox="0 0 24 24" fill="none" xmlns="http://www.w3.org/2000/svg">
<path d="M16.6261 10.2698C16.6261 10.684 16.9619 11.0198 17.3761 11.0198C17.7903 11.0198 18.1261 10.684 18.1261 10.2698V8.22677C18.1261 7.54297 17.5727 6.98877 16.8891 6.98877H14.7951C14.3809 6.98877 14.0451 7.32457 14.0451 7.73877C14.0451 8.15297 14.3809 8.48877 14.7951 8.48877H16.6261V10.2698Z" fill="black"/>
<path d="M7.3761 13.8963C7.3761 13.4821 7.0403 13.1463 6.6261 13.1463C6.2119 13.1463 5.8761 13.4821 5.8761 13.8963V15.9393C5.8761 16.6234 6.4308 17.1773 7.1141 17.1773H9.2071C9.6213 17.1773 9.9571 16.8415 9.9571 16.4273C9.9571 16.0131 9.6213 15.6773 9.2071 15.6773H7.3761V13.8963Z" fill="black"/>
<path d="M9.2071 8.48877C9.6213 8.48877 9.9571 8.15297 9.9571 7.73877C9.9571 7.32457 9.6213 6.98877 9.2071 6.98877H7.1141C6.4308 6.98877 5.8761 7.54267 5.8761 8.22677V10.2698C5.8761 10.684 6.2119 11.0198 6.6261 11.0198C7.0403 11.0198 7.3761 10.684 7.3761 10.2698V8.48877H9.2071Z" fill="black"/>
<path d="M14.7961 15.6773C14.3819 15.6773 14.0461 16.0131 14.0461 16.4273C14.0461 16.8415 14.3819 17.1773 14.7961 17.1773H16.8891C17.5727 17.1773 18.1261 16.6231 18.1261 15.9393V13.8963C18.1261 13.4821 17.7903 13.1463 17.3761 13.1463C16.9619 13.1463 16.6261 13.4821 16.6261 13.8963V15.6773H14.7961Z" fill="black"/>
<path d="M18.1242 3.99982H5.87921C4.08431 3.99982 2.62921 5.45532 2.62921 7.24982V16.9158C2.62921 18.711 4.08401 20.1658 5.87921 20.1658H18.1242C19.9194 20.1658 21.3742 18.711 21.3742 16.9158V7.24982C21.3742 5.45532 19.9191 3.99982 18.1242 3.99982ZM18.1242 5.49982C19.0906 5.49982 19.8742 6.28362 19.8742 7.24982V16.9158C19.8742 17.8826 19.091 18.6658 18.1242 18.6658H5.87921C4.91241 18.6658 4.12921 17.8826 4.12921 16.9158V7.24982C4.12921 6.28362 4.91281 5.49982 5.87921 5.49982H18.1242Z" fill="black"/>
<path d="M16.4698 7.79089L13.7468 10.1269C13.4324 10.3966 13.3962 10.8701 13.6659 11.1844C13.9356 11.4988 14.4091 11.535 14.7235 11.2653L17.4465 8.92929C17.7608 8.65959 17.7971 8.18609 17.5274 7.87179C17.2577 7.55739 16.7842 7.52119 16.4698 7.79089Z" fill="black"/>
<path d="M9.36929 12.7177L6.43329 15.2367C6.11889 15.5064 6.08269 15.9799 6.35239 16.2943C6.62209 16.6086 7.09559 16.6448 7.40999 16.3751L10.346 13.8561C10.6604 13.5864 10.6966 13.1129 10.4268 12.7985C10.1571 12.4842 9.68359 12.448 9.36929 12.7177Z" fill="black"/>
<path d="M6.55679 8.92929L9.27979 11.2653C9.59419 11.535 10.0677 11.4988 10.3374 11.1844C10.6071 10.8701 10.5708 10.3966 10.2565 10.1269L7.53349 7.79089C7.21909 7.52119 6.74559 7.55739 6.47589 7.87179C6.20619 8.18609 6.24239 8.65959 6.55679 8.92929Z" fill="black"/>
<path d="M13.6572 13.856L16.5922 16.375C16.9065 16.6448 17.38 16.6087 17.6498 16.2944C17.9195 15.98 17.8834 15.5065 17.5691 15.2368L14.6341 12.7178C14.3198 12.448 13.8463 12.4841 13.5765 12.7984C13.3067 13.1128 13.3428 13.5863 13.6572 13.856Z" fill="black"/>
</svg>
