<svg width="24" height="24" viewBox="0 0 24 24" fill="none" xmlns="http://www.w3.org/2000/svg">
<path d="M18.2629 8.99988C16.1159 8.99988 14.3679 10.7379 14.3679 12.8749C14.3679 15.0119 16.1159 16.7499 18.2629 16.7499C20.4099 16.7499 22.1589 15.0119 22.1589 12.8749C22.1589 10.7379 20.4099 8.99988 18.2629 8.99988Z" fill="black"/>
<path d="M6.1232 12.8749C6.1232 11.4919 6.8572 10.2789 7.9562 9.59288C7.3572 9.21988 6.6522 8.99988 5.8942 8.99988C3.7472 8.99988 2.0002 10.7379 2.0002 12.8749C2.0002 15.0119 3.7472 16.7499 5.8942 16.7499C6.6522 16.7499 7.3572 16.5299 7.9562 16.1569C6.8572 15.4709 6.1232 14.2579 6.1232 12.8749Z" fill="black" fill-opacity="0.2"/>
<path d="M10.2453 12.8749C10.2453 11.4919 10.9793 10.2789 12.0793 9.59288C11.4803 9.21988 10.7743 8.99988 10.0173 8.99988C9.26031 8.99988 8.55531 9.21988 7.95631 9.59288C6.85731 10.2789 6.12331 11.4919 6.12331 12.8749C6.12331 14.2579 6.85731 15.4709 7.95631 16.1569C8.55531 16.5299 9.26031 16.7499 10.0173 16.7499C10.7743 16.7499 11.4803 16.5299 12.0793 16.1569C10.9793 15.4709 10.2453 14.2579 10.2453 12.8749Z" fill="black" fill-opacity="0.4"/>
<path d="M14.1398 8.99988C11.9928 8.99988 10.2448 10.7379 10.2448 12.8749C10.2448 15.0119 11.9928 16.7499 14.1398 16.7499C16.2878 16.7499 18.0358 15.0119 18.0358 12.8749C18.0358 10.7379 16.2878 8.99988 14.1398 8.99988Z" fill="black" fill-opacity="0.7"/>
</svg>
