<svg width="24" height="24" viewBox="0 0 24 24" fill="none" xmlns="http://www.w3.org/2000/svg">
<path d="M16.7 20.8C17.7 20.8 18.5 20 18.5 19V18.8C19.3 18.5 19.9 17.7 19.9 16.8V15.2V13.4V11C19.9 6.69998 16.4 3.09998 12 3.09998C7.70001 3.09998 4.10001 6.59998 4.10001 11V13.4V15.2V16.8C4.10001 18 5.00001 18.9 6.20001 18.9H6.30001C7.50001 18.9 8.40001 18 8.40001 16.8V13.4C8.40001 12.2 7.50001 11.3 6.30001 11.3H6.20001C6.00001 11.3 5.80001 11.3 5.60001 11.4V11C5.60001 7.49998 8.40001 4.59998 12 4.59998C15.5 4.59998 18.4 7.39998 18.4 11V11.4C18.2 11.3 18 11.3 17.8 11.3H17.7C16.5 11.3 15.6 12.2 15.6 13.4V16.8C15.6 17.7 16.2 18.5 17 18.8V19C17 19.1 16.9 19.2 16.8 19.2H13C12.9 19.2 12.9 19.2 12.8 19.1L12.1 18.4C11.8 18.1 11.3 18.1 11 18.4C10.7 18.7 10.7 19.2 11 19.5L11.7 20.2C12 20.5 12.5 20.7 12.9 20.7H16.7V20.8Z" fill="black"/>
</svg>
