<svg width="24" height="24" viewBox="0 0 24 24" fill="none" xmlns="http://www.w3.org/2000/svg">
<path d="M12 3.81818C11.3818 3.81818 10.9091 4.2909 10.9091 4.90909V19.0909C10.9091 19.7091 11.3818 20.1818 12 20.1818C12.6181 20.1818 13.0909 19.7091 13.0909 19.0909V4.90909C13.0909 4.2909 12.6181 3.81818 12 3.81818Z" fill="black"/>
<path d="M18.5455 3.81818C17.9273 3.81818 17.4546 4.2909 17.4546 4.90909V19.0909C17.4546 19.7091 17.9273 20.1818 18.5455 20.1818C19.1637 20.1818 19.6364 19.7091 19.6364 19.0909V4.90909C19.6364 4.2909 19.1637 3.81818 18.5455 3.81818Z" fill="black"/>
<path d="M5.45456 3.81818C4.83637 3.81818 4.36365 4.2909 4.36365 4.90909V19.0909C4.36365 19.7091 4.83637 20.1818 5.45456 20.1818C6.07274 20.1818 6.54547 19.7091 6.54547 19.0909V4.90909C6.54547 4.2909 6.07274 3.81818 5.45456 3.81818Z" fill="black"/>
</svg>
