<svg width="24" height="24" viewBox="0 0 24 24" fill="none" xmlns="http://www.w3.org/2000/svg">
<path d="M20 14.7636C19.7091 14.2182 19.3091 13.8182 18.7636 13.5272C18.2182 13.2363 17.6 13.0909 16.7636 13.0909H7.23636C6.39999 13.0909 5.74545 13.2363 5.23636 13.5272C4.6909 13.8182 4.2909 14.2182 3.99999 14.7636C3.70908 15.3091 3.56363 15.9272 3.56363 16.7636C3.56363 17.6 3.70908 18.2545 3.99999 18.7636C4.2909 19.3091 4.6909 19.7091 5.23636 20C5.78181 20.2909 6.39999 20.4363 7.23636 20.4363H16.7636C17.6 20.4363 18.2545 20.2909 18.7636 20C19.3091 19.7091 19.7091 19.3091 20 18.7636C20.2909 18.2182 20.4364 17.6 20.4364 16.7636C20.4364 15.9272 20.2909 15.3091 20 14.7636ZM18.3273 17.8909C18.2182 18.1091 18.0727 18.2545 17.8909 18.3272C17.7091 18.4 17.4182 18.5454 16.7636 18.5454H7.23636C6.58181 18.5454 6.2909 18.4363 6.10908 18.3272C5.8909 18.2182 5.74545 18.0727 5.67272 17.8909C5.59999 17.7091 5.45454 17.4182 5.45454 16.8C5.45454 16.1454 5.56363 15.8545 5.67272 15.6727C5.78181 15.4545 5.92727 15.3091 6.10908 15.2363C6.2909 15.1272 6.58181 15.0182 7.23636 15.0182H16.7636C17.4182 15.0182 17.7091 15.1272 17.8909 15.2363C18.1091 15.3454 18.2545 15.4909 18.3273 15.6727C18.4 15.8545 18.5454 16.1454 18.5454 16.7636C18.5454 17.4182 18.4364 17.7091 18.3273 17.8909Z" fill="black" fill-opacity="0.95"/>
<path d="M20 5.23639C19.7091 4.69093 19.3091 4.29093 18.7636 4.00002C18.2182 3.70911 17.6 3.56366 16.7636 3.56366H7.23636C6.39999 3.56366 5.74545 3.70911 5.23636 4.00002C4.6909 4.29093 4.2909 4.69093 3.99999 5.23639C3.70908 5.78184 3.56363 6.40002 3.56363 7.23639C3.56363 8.07275 3.70908 8.7273 3.99999 9.23639C4.2909 9.78184 4.6909 10.1818 5.23636 10.4728C5.78181 10.7637 6.39999 10.9091 7.23636 10.9091H16.7636C17.6 10.9091 18.2545 10.7637 18.7636 10.4728C19.3091 10.1818 19.7091 9.78184 20 9.23639C20.2909 8.69093 20.4364 8.07275 20.4364 7.23639C20.4364 6.40002 20.2909 5.74548 20 5.23639ZM18.3273 8.3273C18.2182 8.54548 18.0727 8.69093 17.8909 8.76366C17.7091 8.83639 17.4182 8.98184 16.7636 8.98184H7.23636C6.58181 8.98184 6.2909 8.87275 6.10908 8.76366C5.8909 8.65457 5.74545 8.50911 5.67272 8.3273C5.59999 8.14548 5.45454 7.85457 5.45454 7.23639C5.45454 6.58184 5.56363 6.29093 5.67272 6.10911C5.78181 5.89093 5.92727 5.74548 6.10908 5.67275C6.2909 5.56366 6.58181 5.45457 7.23636 5.45457H16.7636C17.4182 5.45457 17.7091 5.56366 17.8909 5.67275C18.1091 5.78184 18.2545 5.9273 18.3273 6.10911C18.4 6.29093 18.5454 6.58184 18.5454 7.20002C18.5454 7.85457 18.4364 8.18184 18.3273 8.3273Z" fill="black" fill-opacity="0.95"/>
</svg>
