<svg width="24" height="24" viewBox="0 0 24 24" fill="none" xmlns="http://www.w3.org/2000/svg">
<path d="M18.9818 5.01816C17.9636 3.99998 16.5091 3.27271 13.7091 3.27271H10.3273C7.52726 3.27271 6.07272 3.99998 5.05454 5.01816C4.03635 6.03634 3.30908 7.49089 3.30908 10.2909V13.6727C3.30908 16.4727 4.03635 17.9273 5.05454 18.9454C6.07272 19.9636 7.52726 20.6909 10.3273 20.6909H13.7091C16.5091 20.6909 17.9636 19.9636 18.9818 18.9454C20 17.9273 20.7273 16.4727 20.7273 13.6727V10.2909C20.7273 7.49089 20 6.07271 18.9818 5.01816ZM18.5454 13.5636C18.5454 15.8545 17.9636 16.7636 17.3818 17.3454C16.8 17.9273 15.8909 18.5091 13.6 18.5091H10.4364C8.14545 18.5091 7.23635 17.9273 6.65454 17.3454C6.07272 16.7636 5.4909 15.8545 5.4909 13.5636V10.4C5.4909 8.10907 6.07272 7.19998 6.65454 6.61816C7.23635 6.03634 8.14545 5.45452 10.4364 5.45452H13.6C15.8909 5.45452 16.8 6.03634 17.3818 6.61816C17.9636 7.19998 18.5454 8.10907 18.5454 10.4V13.5636Z" fill="black"/>
</svg>
