<svg width="24" height="24" viewBox="0 0 24 24" fill="none" xmlns="http://www.w3.org/2000/svg">
<path fill-rule="evenodd" clip-rule="evenodd" d="M20 14.5L19.9833 17.5712C17.4337 18.8345 14.6689 19.5156 11.9137 19.4997C8.91109 19.482 6.74699 18.8659 3.99999 17.5712L4.01859 14.5C6.51669 15.615 9.10919 16.1102 11.9338 16.1263C14.901 16.1437 17.1512 15.5839 20 14.5ZM16.1837 4.55349C19.4967 4.57409 20.9795 6.91269 20.9658 9.53309C20.951 12.1542 19.4431 14.4924 16.1298 14.4725C14.0589 14.4591 12.7033 13.5328 11.9815 12.2C11.2523 13.5514 9.87929 14.485 7.78129 14.472C4.46789 14.4516 2.98519 12.0941 2.99999 9.47339C3.01439 6.85229 4.52159 4.53259 7.83499 4.55399C9.90599 4.56629 11.2618 5.48459 11.9838 6.81179C12.7131 5.46589 14.0861 4.54009 16.1837 4.55349ZM7.82109 7.17419C6.54629 7.16609 6.36919 8.49399 6.36359 9.49419C6.35859 10.495 6.52089 11.8434 7.79509 11.8517C9.06899 11.8591 9.24689 10.5141 9.25259 9.51219C9.25789 8.51109 9.09539 7.18169 7.82109 7.17419ZM16.1696 7.17379C14.8955 7.16559 14.7185 8.49349 14.7131 9.49459C14.707 10.4955 14.8695 11.8431 16.1444 11.8513C17.4175 11.8595 17.5957 10.5137 17.601 9.51259C17.6064 8.51139 17.4435 7.18129 16.1696 7.17379Z" fill="black"/>
</svg>
