<svg width="24" height="24" viewBox="0 0 24 24" fill="none" xmlns="http://www.w3.org/2000/svg">
<path fill-rule="evenodd" clip-rule="evenodd" d="M5.74116 7.68201H19.2C19.4121 7.68201 19.6156 7.76629 19.7656 7.91632C19.9157 8.06635 20 8.26983 20 8.48201C20 8.69418 19.9157 8.89766 19.7656 9.04769C19.6156 9.19772 19.4121 9.28201 19.2 9.28201H5.74116C5.52899 9.28201 5.32551 9.19772 5.17548 9.04769C5.02545 8.89766 4.94116 8.69418 4.94116 8.48201C4.94116 8.26983 5.02545 8.06635 5.17548 7.91632C5.32551 7.76629 5.52899 7.68201 5.74116 7.68201Z" fill="black"/>
<path fill-rule="evenodd" clip-rule="evenodd" d="M12.2856 4.07539L8.56102 19.6132C8.45972 20.036 8.03472 20.2965 7.61192 20.1952C7.60722 20.1941 7.60252 20.1929 7.59782 20.1917C7.16682 20.0799 6.90472 19.6435 7.00852 19.2106L10.7331 3.67279C10.8345 3.24999 11.2594 2.98939 11.6822 3.09079C11.6869 3.09189 11.6916 3.09309 11.6963 3.09429C12.1273 3.20609 12.3894 3.64239 12.2856 4.07539Z" fill="black"/>
<path fill-rule="evenodd" clip-rule="evenodd" d="M16.9916 4.07539L13.267 19.6132C13.1656 20.036 12.7407 20.2965 12.3179 20.1952C12.3132 20.1941 12.3085 20.1929 12.3038 20.1917C11.8728 20.0799 11.6107 19.6435 11.7145 19.2106L15.4391 3.67279C15.5404 3.24999 15.9654 2.98939 16.3882 3.09079C16.3929 3.09189 16.3976 3.09309 16.4023 3.09429C16.8333 3.20609 17.0954 3.64239 16.9916 4.07539Z" fill="black"/>
<path fill-rule="evenodd" clip-rule="evenodd" d="M4.8 13.329H18.2588C18.471 13.329 18.6745 13.4133 18.8245 13.5633C18.9745 13.7133 19.0588 13.9168 19.0588 14.129C19.0588 14.3412 18.9745 14.5446 18.8245 14.6947C18.6745 14.8447 18.471 14.929 18.2588 14.929H4.8C4.58783 14.929 4.38434 14.8447 4.23431 14.6947C4.08429 14.5446 4 14.3412 4 14.129C4 13.9168 4.08429 13.7133 4.23431 13.5633C4.38434 13.4133 4.58783 13.329 4.8 13.329Z" fill="black"/>
</svg>
