<svg width="24" height="24" viewBox="0 0 24 24" fill="none" xmlns="http://www.w3.org/2000/svg">
<path d="M11.983 1.30402C13.368 1.30402 14.5045 2.38992 14.5868 3.75502L14.5916 3.91372L14.5914 14.3941L14.6748 14.4542C15.6431 15.1928 16.2545 16.2779 16.3819 17.4743L16.4009 17.715L16.4068 17.9438C16.4068 20.3771 14.4278 22.3561 11.9945 22.3561C9.56115 22.3561 7.58215 20.3771 7.58215 17.9438C7.58215 16.5745 8.21195 15.3042 9.29205 14.4689L9.37395 14.4074L9.37435 3.91372C9.37435 2.58372 10.3745 1.48252 11.662 1.32372L11.8243 1.30882L11.983 1.30402ZM11.983 2.32532C11.1083 2.32532 10.3956 3.03792 10.3956 3.91372V14.7399C10.3956 14.8757 10.3267 15.0011 10.2117 15.0722C9.20425 15.6992 8.60345 16.7724 8.60345 17.9438C8.60345 19.8133 10.125 21.3348 11.9945 21.3348C13.864 21.3348 15.3855 19.8133 15.3855 17.9438C15.3855 16.764 14.7763 15.6866 13.7574 15.0617C13.6414 14.9907 13.5703 14.8642 13.5703 14.7273V3.91372C13.5703 3.03792 12.8577 2.32532 11.983 2.32532ZM12.6241 9.08592L12.624 15.5996L12.7348 15.6313C13.6213 15.914 14.2751 16.6829 14.4036 17.6094L14.4215 17.7849L14.4267 17.9447C14.4267 19.288 13.3381 20.3767 11.9947 20.3767C10.6513 20.3767 9.56265 19.288 9.56265 17.9447C9.56265 16.8834 10.2489 15.9619 11.2413 15.6363L11.3652 15.5996L11.3653 9.08592H12.6241Z" fill="black"/>
</svg>
