<svg width="24" height="24" viewBox="0 0 24 24" fill="none" xmlns="http://www.w3.org/2000/svg">
<path d="M5 20.6689V19.1689H18.9998L18.999 19.904L19 19.9189C19 19.924 19 19.9291 18.9998 19.9341V20.6689H5ZM8.625 5.33099C9.039 5.33099 9.375 5.66699 9.375 6.08099C9.375 6.49499 9.039 6.83099 8.625 6.83099H8.25V12.2761C8.25 14.345 9.932 16.0261 12 16.0261C14.067 16.0261 15.75 14.345 15.75 12.2761V6.83099H15.375C14.96 6.83099 14.625 6.49499 14.625 6.08099C14.625 5.66699 14.96 5.33099 15.375 5.33099H17.625C18.039 5.33099 18.375 5.66699 18.375 6.08099C18.375 6.49499 18.039 6.83099 17.625 6.83099H17.25V12.2761C17.25 15.1711 14.895 17.5261 12 17.5261C9.105 17.5261 6.75 15.1711 6.75 12.2761V6.83099H6.375C5.96 6.83099 5.625 6.49499 5.625 6.08099C5.625 5.66699 5.96 5.33099 6.375 5.33099H8.625Z" fill="black"/>
</svg>
