<svg width="24" height="24" viewBox="0 0 24 24" fill="none" xmlns="http://www.w3.org/2000/svg">
<path d="M12.5438 7.8526L15.6558 4.7396C16.1288 4.2666 16.9508 4.2666 17.4238 4.7396L18.8388 6.1536C19.3248 6.6406 19.3248 7.4346 18.8388 7.9216L15.7258 11.0346L12.5438 7.8526ZM9.00677 17.7526C8.77277 17.9866 8.45177 18.1196 8.12277 18.1196H8.11177L5.72777 18.0986C5.59177 18.0976 5.48077 17.9866 5.47977 17.8506L5.45867 15.4646C5.45577 15.1316 5.58877 14.8066 5.82477 14.5716L11.4828 8.9136L14.6648 12.0946L9.00677 17.7526ZM19.8988 8.9826C20.9708 7.9106 20.9708 6.1656 19.8988 5.0926L18.4838 3.6786C17.4478 2.6406 15.6358 2.6386 14.5958 3.6786L10.4228 7.8526L4.76577 13.5096C4.24577 14.0276 3.95177 14.7456 3.95877 15.4786L3.97977 17.8646C3.98077 18.0636 4.02277 18.2516 4.08777 18.4296L3.48977 19.0276C3.19677 19.3206 3.19677 19.7946 3.48977 20.0876C3.63677 20.2346 3.82777 20.3076 4.02077 20.3076C4.21277 20.3076 4.40377 20.2346 4.55077 20.0876L5.14777 19.4906C5.32577 19.5546 5.51477 19.5966 5.71377 19.5986L8.09877 19.6196H8.12277C8.84677 19.6196 9.55477 19.3266 10.0668 18.8136L15.7258 13.1556L19.8988 8.9826Z" fill="black"/>
<path fill-rule="evenodd" clip-rule="evenodd" d="M19.6829 15.2258H16.8759C16.0099 15.2258 15.3059 15.9298 15.3059 16.7958C15.3059 17.2098 15.6769 17.5108 16.0909 17.5108C16.5049 17.5108 16.8759 17.1398 16.8759 16.7258H17.5299V19.6448H17.3139C16.8999 19.6448 16.5639 19.9808 16.5639 20.3948C16.5639 20.8088 16.8999 21.1448 17.3139 21.1448H19.2459C19.6599 21.1448 19.9949 20.8088 19.9949 20.3948C19.9949 19.9808 19.6599 19.6448 19.2459 19.6448H19.0299V16.7258H19.6829C19.7219 16.7258 19.7529 16.7568 19.7529 16.7958C19.7529 17.2098 20.0889 17.5458 20.5029 17.5458C20.9169 17.5458 21.2529 17.2098 21.2529 16.7958C21.2529 15.9298 20.5489 15.2258 19.6829 15.2258Z" fill="black"/>
</svg>
