<svg width="24" height="24" viewBox="0 0 24 24" fill="none" xmlns="http://www.w3.org/2000/svg">
<path d="M4.86489 15.9357C5.19289 15.8287 5.61489 15.8257 5.96689 15.9277C6.14479 15.9807 6.30079 16.0597 6.43089 16.1657C6.56279 16.2717 6.66689 16.4067 6.74079 16.5647C6.81379 16.7217 6.85089 16.9037 6.85089 17.1037C6.85089 17.2037 6.83579 17.3027 6.80489 17.3997C6.77479 17.4957 6.72879 17.5877 6.66989 17.6727C6.61489 17.7507 6.54889 17.8237 6.47179 17.8887C6.57179 17.9597 6.65579 18.0437 6.72179 18.1387C6.84679 18.3207 6.90989 18.5357 6.90989 18.7787C6.90989 18.9807 6.86879 19.1657 6.78879 19.3277C6.70989 19.4887 6.59889 19.6267 6.45879 19.7367C6.32489 19.8427 6.16279 19.9257 5.97879 19.9817C5.79979 20.0357 5.60589 20.0627 5.40089 20.0627C5.22479 20.0627 5.05079 20.0397 4.88289 19.9917C4.70979 19.9437 4.55279 19.8667 4.41589 19.7637C4.27479 19.6597 4.16089 19.5257 4.07589 19.3687C3.98889 19.2077 3.94479 19.0167 3.94479 18.8007V18.6137H5.05979V18.8007C5.05979 18.8427 5.06789 18.8817 5.08279 18.9147C5.09889 18.9487 5.12089 18.9767 5.14979 19.0017C5.18089 19.0287 5.21989 19.0507 5.26389 19.0657C5.35589 19.0987 5.49489 19.0987 5.59279 19.0647C5.63779 19.0497 5.67389 19.0287 5.70379 19.0017C5.73389 18.9737 5.75479 18.9427 5.76979 18.9057C5.78589 18.8667 5.79489 18.8207 5.79489 18.7677C5.79489 18.6927 5.78489 18.6307 5.76479 18.5827C5.74779 18.5397 5.72689 18.5087 5.69679 18.4837C5.66489 18.4567 5.62379 18.4357 5.57379 18.4227C5.51389 18.4047 5.44579 18.3967 5.36989 18.3967H4.78779V17.4427H5.36989C5.50379 17.4427 5.59889 17.4147 5.65289 17.3587C5.70879 17.3007 5.73589 17.2207 5.73589 17.1147C5.73589 17.0667 5.72879 17.0247 5.71479 16.9857C5.70379 16.9527 5.68879 16.9267 5.66689 16.9057C5.64279 16.8827 5.61179 16.8627 5.57489 16.8487C5.50689 16.8237 5.38189 16.8127 5.28179 16.8457C5.24289 16.8587 5.20989 16.8757 5.18279 16.8967C5.15789 16.9167 5.13979 16.9387 5.12579 16.9677C5.11179 16.9937 5.10589 17.0227 5.10589 17.0577V17.2457H3.99079V17.0577C3.99079 16.8757 4.02989 16.7057 4.10789 16.5537C4.18279 16.4057 4.28779 16.2767 4.41879 16.1727C4.54579 16.0707 4.69579 15.9907 4.86489 15.9357ZM19.3051 17.4438C19.7201 17.4438 20.0551 17.7788 20.0551 18.1938C20.0551 18.6078 19.7201 18.9438 19.3051 18.9438H9.80519C9.39109 18.9438 9.05519 18.6078 9.05519 18.1938C9.05519 17.7788 9.39109 17.4438 9.80519 17.4438H19.3051ZM4.83399 9.84792C5.16699 9.71192 5.65599 9.70092 6.02299 9.81892C6.19789 9.87592 6.34889 9.95892 6.46989 10.0659C6.59399 10.1749 6.68899 10.3109 6.75289 10.4689C6.81399 10.6229 6.84599 10.7949 6.84599 10.9829C6.84599 11.1279 6.82289 11.2689 6.77689 11.4039C6.73299 11.5339 6.67089 11.6639 6.59189 11.7919C6.51599 11.9159 6.42199 12.0429 6.31489 12.1679C6.21289 12.2859 6.09699 12.4139 5.96789 12.5459L5.61089 12.9219H6.96599V13.8949H4.03389V13.1259L5.29199 11.7849C5.37699 11.6919 5.44999 11.6059 5.50899 11.5279C5.56399 11.4549 5.61089 11.3849 5.64599 11.3239C5.67599 11.2689 5.69789 11.2179 5.70989 11.1739C5.72199 11.1329 5.72799 11.0929 5.72799 11.0539C5.72799 10.9349 5.70199 10.8469 5.64899 10.7879C5.60189 10.7349 5.53099 10.7089 5.43099 10.7089C5.37199 10.7089 5.32189 10.7179 5.27799 10.7389C5.23589 10.7579 5.20299 10.7849 5.17489 10.8179C5.14489 10.8549 5.12199 10.8999 5.10599 10.9539C5.08699 11.0119 5.07799 11.0789 5.07799 11.1489V11.3359H3.95989V11.1489C3.95989 10.9589 3.99499 10.7749 4.06299 10.6049C4.13289 10.4319 4.23399 10.2799 4.36389 10.1519C4.49499 10.0239 4.65189 9.92092 4.83399 9.84792ZM19.3051 11.2504C19.7201 11.2504 20.0551 11.5854 20.0551 12.0004C20.0551 12.4144 19.7201 12.7504 19.3051 12.7504H9.80519C9.39109 12.7504 9.05519 12.4144 9.05519 12.0004C9.05519 11.5854 9.39109 11.2504 9.80519 11.2504H19.3051ZM6.20799 3.93732V8.04932H5.09209V5.26032L4.20799 5.53432V4.54532L5.94109 3.93732H6.20799ZM19.3051 5.05612C19.7201 5.05612 20.0551 5.39212 20.0551 5.80612C20.0551 6.22012 19.7201 6.55612 19.3051 6.55612H9.80519C9.39109 6.55612 9.05519 6.22012 9.05519 5.80612C9.05519 5.39212 9.39109 5.05612 9.80519 5.05612H19.3051Z" fill="black"/>
</svg>
