<svg width="24" height="24" viewBox="0 0 24 24" fill="none" xmlns="http://www.w3.org/2000/svg">
<path d="M16.7838 18.891C17.1978 18.891 17.5338 19.227 17.5338 19.641C17.5338 20.055 17.1978 20.391 16.7838 20.391H8.6138C8.1988 20.391 7.8638 20.055 7.8638 19.641C7.8638 19.227 8.1988 18.891 8.6138 18.891H16.7838ZM13.8338 14.9203C14.2488 14.9203 14.5838 15.2563 14.5838 15.6703C14.5838 16.0843 14.2488 16.4203 13.8338 16.4203H8.6138C8.1988 16.4203 7.8638 16.0843 7.8638 15.6703C7.8638 15.2563 8.1988 14.9203 8.6138 14.9203H13.8338ZM11.3016 3.82882C11.5946 3.53582 12.0686 3.53582 12.3616 3.82882L13.9956 5.46282C14.3846 5.85082 14.3846 6.48282 13.9966 6.87182L12.3666 8.50882C12.2206 8.65682 12.0266 8.72982 11.8346 8.72982C11.6426 8.72982 11.4516 8.65782 11.3056 8.51082C11.0126 8.21882 11.0116 7.74482 11.3036 7.45082L11.8366 6.91582H10.6486C7.6926 6.91582 5.2876 9.32082 5.2876 12.2768V12.7288C5.2876 13.1428 4.9516 13.4788 4.5376 13.4788C4.1236 13.4788 3.7876 13.1428 3.7876 12.7288V12.2768C3.7876 8.49382 6.8656 5.41582 10.6486 5.41582H11.8276L11.3016 4.88882C11.0086 4.59582 11.0086 4.12182 11.3016 3.82882ZM19.4624 10.9496C19.8764 10.9496 20.2124 11.2856 20.2124 11.6996C20.2124 12.1146 19.8764 12.4496 19.4624 12.4496H8.6134C8.1984 12.4496 7.8634 12.1146 7.8634 11.6996C7.8634 11.2856 8.1984 10.9496 8.6134 10.9496H19.4624Z" fill="black"/>
</svg>
