<svg width="24" height="24" viewBox="0 0 24 24" fill="none" xmlns="http://www.w3.org/2000/svg">
<path d="M4.2949 18.2969L5.1738 15.6602H9.8057L10.6846 18.2969H13.4971L8.707 5.5H6.2637L1.5 18.2969H4.2949ZM9.0938 13.5244H5.8857L7.4941 8.7168L9.0938 13.5244ZM17.3818 18.4727C18.3662 18.4727 19.166 18.1299 19.7813 17.4443C19.8457 17.79 19.9307 18.0742 20.0361 18.2969H22.6025V18.1475C22.3623 17.6846 22.2363 17.0313 22.2246 16.1875V11.9512C22.2246 10.8379 21.8643 10.0029 21.1436 9.4463C20.4229 8.8896 19.5117 8.6113 18.4102 8.6113C17.1797 8.6113 16.1982 8.9087 15.4658 9.5034C14.7334 10.0981 14.3672 10.8086 14.3672 11.6348H16.9072C16.9072 10.873 17.3613 10.4922 18.2695 10.4922C18.7559 10.4922 19.1118 10.6226 19.3374 10.8833C19.563 11.144 19.6758 11.4941 19.6758 11.9336V12.4873H18.542C17.0947 12.4873 16.002 12.7612 15.2637 13.3091C14.5254 13.8569 14.1563 14.6289 14.1563 15.625C14.1563 16.4512 14.4668 17.1323 15.0879 17.6685C15.709 18.2046 16.4736 18.4727 17.3818 18.4727ZM17.9355 16.5303C17.5488 16.5303 17.2456 16.4277 17.0259 16.2227C16.8062 16.0176 16.6963 15.7568 16.6963 15.4404C16.6963 15.0244 16.8516 14.6743 17.1621 14.3901C17.4727 14.106 17.9648 13.9639 18.6387 13.9639H19.6758V15.6162C19.5469 15.8447 19.3315 16.0542 19.0298 16.2446C18.728 16.4351 18.3633 16.5303 17.9355 16.5303Z" fill="black"/>
<path d="M18.4102 8.16129C19.6067 8.16129 20.6147 8.46929 21.4186 9.09009C22.2008 9.69429 22.617 10.5781 22.669 11.7058L22.6746 11.9512L22.6744 16.1742L22.6823 16.4409C22.7087 17.0119 22.7961 17.4665 22.9379 17.8031L23.002 17.9402L23.0525 18.1475V18.7469H19.7402L19.5565 18.3206L19.536 18.265L19.4611 18.3206C18.9969 18.6359 18.466 18.828 17.8741 18.8954L17.6168 18.9166L17.3818 18.9227C16.3685 18.9227 15.4991 18.6178 14.7938 18.0091C14.0735 17.3873 13.7063 16.5817 13.7063 15.625C13.7063 14.4897 14.14 13.5825 14.9955 12.9477C15.7633 12.3779 16.8391 12.0813 18.2183 12.0419L18.542 12.0373L19.226 12.037L19.2261 11.9506L19.2202 11.7857C19.1997 11.5224 19.1241 11.3246 18.9971 11.1777C18.8666 11.0269 18.6354 10.9422 18.2695 10.9422C17.6423 10.9422 17.3933 11.1135 17.3609 11.5334L17.3572 11.6348V12.0848H13.9014L13.9248 11.4149C13.9858 10.5386 14.4132 9.77849 15.1822 9.15409C16.0012 8.48899 17.0827 8.16129 18.4102 8.16129ZM5.95099 5.04999H9.0191L14.146 18.7469H10.3602L9.481 16.11H5.49699L4.61929 18.7469H0.852295L5.95099 5.04999ZM18.4102 9.06129C17.2767 9.06129 16.3953 9.32839 15.7495 9.85279C15.3413 10.1842 15.0714 10.5458 14.9318 10.9389L14.8799 11.1093L14.863 11.184H16.506C16.6591 10.5342 17.1589 10.1474 17.9251 10.0608L18.0933 10.0469L18.2695 10.0422C18.8764 10.0422 19.3571 10.2182 19.6777 10.5889C19.9003 10.8461 20.0389 11.1624 20.0965 11.5399L20.1186 11.7337L20.1258 11.9336V12.9373H18.542C17.183 12.9373 16.1815 13.1884 15.5318 13.6705C14.9108 14.1313 14.6062 14.7681 14.6062 15.625C14.6062 16.3206 14.8601 16.8773 15.3819 17.3278C15.9189 17.7913 16.5787 18.0227 17.3818 18.0227C18.1692 18.0227 18.804 17.7787 19.3112 17.2847L19.4463 17.1438L20.0563 16.4642L20.2236 17.3619C20.2392 17.4452 20.2559 17.5242 20.2736 17.5981L20.3007 17.7052L20.342 17.846H21.999L21.971 17.7561C21.9088 17.5356 21.8616 17.2939 21.829 17.0306L21.8012 16.7601L21.7829 16.475L21.7746 16.1875V11.9512C21.7746 10.97 21.4718 10.2684 20.8685 9.80239C20.231 9.30999 19.4168 9.06129 18.4102 9.06129ZM8.395 5.94999H6.57599L2.147 17.846H3.97099L4.8495 15.2102H10.13L11.008 17.846H12.847L8.395 5.94999ZM20.1258 13.5139V15.7344L20.0677 15.8373C19.8989 16.1366 19.6306 16.3976 19.2699 16.6252C18.8926 16.8633 18.4446 16.9803 17.9355 16.9803C17.4417 16.9803 17.0283 16.8405 16.7188 16.5516C16.4066 16.2602 16.2463 15.8798 16.2463 15.4404C16.2463 14.8977 16.4549 14.4273 16.8583 14.0582C17.1812 13.7626 17.6262 13.593 18.1921 13.5356L18.4099 13.5193L18.6387 13.5139H20.1258ZM19.225 14.413L18.6495 14.4137L18.4432 14.4186C17.9761 14.4419 17.6547 14.5494 17.4659 14.7221C17.2482 14.9213 17.1463 15.1511 17.1463 15.4404C17.1463 15.6339 17.2057 15.775 17.3329 15.8937C17.4629 16.015 17.656 16.0803 17.9355 16.0803C18.2819 16.0803 18.5635 16.0068 18.7896 15.8641C18.9353 15.7721 19.0521 15.6785 19.1414 15.5842L19.225 15.483V14.413ZM5.26069 13.9744L7.49529 7.29489L9.7177 13.9744H5.26069ZM7.49199 10.137L6.50999 13.074H8.46899L7.49199 10.137Z" fill="black"/>
</svg>
