<svg width="24" height="24" viewBox="0 0 24 24" fill="none" xmlns="http://www.w3.org/2000/svg">
<path d="M18.875 17.9438C19.29 17.9438 19.625 18.2789 19.625 18.6938C19.625 19.1078 19.29 19.4438 18.875 19.4438H5.125C4.711 19.4438 4.375 19.1078 4.375 18.6938C4.375 18.2789 4.711 17.9438 5.125 17.9438H18.875ZM5.189 9.01069C5.46 8.69579 5.933 8.66069 6.247 8.93169L8.895 11.2157C9.125 11.4148 9.257 11.7008 9.257 12.0007C9.257 12.3007 9.125 12.5868 8.894 12.7847L6.247 15.0677C6.105 15.1897 5.931 15.2498 5.757 15.2498C5.547 15.2498 5.337 15.1617 5.189 14.9897C4.918 14.6768 4.954 14.2028 5.267 13.9318L7.507 11.9998L5.267 10.0677C4.954 9.79779 4.918 9.32369 5.189 9.01069ZM18.875 13.481C19.29 13.481 19.625 13.8169 19.625 14.231C19.625 14.6449 19.29 14.981 18.875 14.981H12.125C11.711 14.981 11.375 14.6449 11.375 14.231C11.375 13.8169 11.711 13.481 12.125 13.481H18.875ZM18.875 9.01909C19.29 9.01909 19.625 9.35399 19.625 9.76909C19.625 10.1831 19.29 10.5191 18.875 10.5191H12.125C11.711 10.5191 11.375 10.1831 11.375 9.76909C11.375 9.35399 11.711 9.01909 12.125 9.01909H18.875ZM18.875 4.55609C19.29 4.55609 19.625 4.89209 19.625 5.30609C19.625 5.72009 19.29 6.05609 18.875 6.05609H5.125C4.711 6.05609 4.375 5.72009 4.375 5.30609C4.375 4.89209 4.711 4.55609 5.125 4.55609H18.875Z" fill="black"/>
</svg>
