<svg width="24" height="24" viewBox="0 0 24 24" fill="none" xmlns="http://www.w3.org/2000/svg">
<path d="M5.32642 16.7464C6.01542 16.7464 6.57642 17.3094 6.57642 17.9994C6.57642 18.6914 6.01542 19.2534 5.32642 19.2534C4.63742 19.2534 4.07642 18.6914 4.07642 17.9994C4.07642 17.3094 4.63742 16.7464 5.32642 16.7464ZM19.1736 17.4439C19.5876 17.4439 19.9236 17.7789 19.9236 18.1939C19.9236 18.6079 19.5876 18.9439 19.1736 18.9439H9.67362C9.25862 18.9439 8.92362 18.6079 8.92362 18.1939C8.92362 17.7789 9.25862 17.4439 9.67362 17.4439H19.1736ZM5.32642 10.7466C6.01542 10.7466 6.57642 11.3086 6.57642 11.9996C6.57642 12.6906 6.01542 13.2536 5.32642 13.2536C4.63742 13.2536 4.07642 12.6906 4.07642 11.9996C4.07642 11.3086 4.63742 10.7466 5.32642 10.7466ZM19.1736 11.2505C19.5876 11.2505 19.9236 11.5855 19.9236 12.0005C19.9236 12.4145 19.5876 12.7505 19.1736 12.7505H9.67362C9.25862 12.7505 8.92362 12.4145 8.92362 12.0005C8.92362 11.5855 9.25862 11.2505 9.67362 11.2505H19.1736ZM5.32642 4.74658C6.01542 4.74658 6.57642 5.30858 6.57642 5.99958C6.57642 6.69058 6.01542 7.25358 5.32642 7.25358C4.63742 7.25358 4.07642 6.69058 4.07642 5.99958C4.07642 5.30858 4.63742 4.74658 5.32642 4.74658ZM19.1736 5.05618C19.5876 5.05618 19.9236 5.39218 19.9236 5.80618C19.9236 6.22018 19.5876 6.55618 19.1736 6.55618H9.67362C9.25862 6.55618 8.92362 6.22018 8.92362 5.80618C8.92362 5.39218 9.25862 5.05618 9.67362 5.05618H19.1736Z" fill="black"/>
</svg>
