<svg width="24" height="24" viewBox="0 0 24 24" fill="none" xmlns="http://www.w3.org/2000/svg">
<path d="M15.25 5.83099C15.664 5.83099 16 5.49499 16 5.08099C16 4.66699 15.664 4.33099 15.25 4.33099H11.25C10.836 4.33099 10.5 4.66699 10.5 5.08099C10.5 5.49499 10.836 5.83099 11.25 5.83099H12.396L10.067 18.169H8.75C8.336 18.169 8 18.505 8 18.919C8 19.333 8.336 19.669 8.75 19.669H12.75C13.164 19.669 13.5 19.333 13.5 18.919C13.5 18.505 13.164 18.169 12.75 18.169H11.594L13.922 5.83099H15.25Z" fill="black"/>
</svg>
