<svg width="24" height="24" viewBox="0 0 24 24" fill="none" xmlns="http://www.w3.org/2000/svg">
<path fill-rule="evenodd" clip-rule="evenodd" d="M16 4.70001C16.9113 4.70001 17.7363 5.06941 18.3334 5.66651C18.9306 6.26371 19.3 7.08881 19.3 8.00001V16C19.3 16.9113 18.9307 17.7363 18.3335 18.3335C17.7363 18.9307 16.9113 19.3 16 19.3H8.00001C7.08881 19.3 6.26371 18.9306 5.66651 18.3334C5.06941 17.7363 4.70001 16.9113 4.70001 16V8.00001C4.70001 7.08881 5.06941 6.26381 5.66661 5.66661C6.26381 5.06941 7.08881 4.70001 8.00001 4.70001H16Z" stroke="black" stroke-width="1.4"/>
<path d="M7.58 10.759C7.873 10.467 8.348 10.467 8.641 10.761L11.236 13.364L15.36 9.229C15.653 8.935 16.127 8.934 16.421 9.227C16.714 9.519 16.715 9.994 16.422 10.287L12.082 14.641C11.856 14.867 11.556 14.991 11.236 14.991C10.916 14.991 10.616 14.867 10.39 14.641L7.578 11.821C7.286 11.527 7.287 11.052 7.58 10.759Z" fill="black"/>
</svg>
