<svg width="24" height="24" viewBox="0 0 24 24" fill="none" xmlns="http://www.w3.org/2000/svg">
<path d="M5.03507 8.7364H18.9987M17.4848 2.8589C18.3647 2.9659 19.0263 3.7117 19.0263 4.5981V12.1079C19.0263 12.5749 18.3382 12.8837 17.9325 13.0124C17.9208 13.015 17.9124 13.0179 17.9007 13.0208C17.889 13.024 17.8774 13.0296 17.8657 13.0296C17.854 13.0325 17.8479 13.0325 17.845 13.0325C17.2004 13.1754 16.5503 13.3183 15.9608 13.4992C15.9142 13.5108 15.8675 13.5228 15.824 13.54C15.7596 13.5604 15.6954 13.5779 15.6342 13.6012C14.7008 13.9224 13.9661 14.3567 13.7413 15.0596C13.4674 15.9054 13.587 16.3108 13.7678 16.9236C13.8086 17.0578 13.8553 17.2121 13.902 17.39L13.9075 17.4075C13.9632 17.5912 14.2665 18.6967 14.2665 19.175C14.2665 20.1112 13.4233 20.8725 12.5399 21.1003C12.359 21.1496 12.1753 21.1758 11.9974 21.1758C11.8162 21.1758 11.6328 21.1496 11.449 21.1003C10.565 20.8696 9.72787 20.1086 9.72787 19.175C9.72787 18.6967 10.0286 17.5912 10.0837 17.4075L10.0954 17.3725C10.1365 17.2153 10.18 17.0662 10.2211 16.9321C10.4049 16.3108 10.5245 15.9083 10.2529 15.0596C10.0079 14.3042 9.17957 13.8579 8.14707 13.5313C8.09487 13.5138 8.04527 13.4992 7.99567 13.4875C7.41527 13.3125 6.77947 13.1725 6.15237 13.0325C6.14617 13.0325 6.12607 13.0267 6.09667 13.0208C6.08497 13.0179 6.07327 13.015 6.06167 13.0124C5.65357 12.8837 4.96497 12.5749 4.96497 12.1079V3.8713C5.78167 4.1892 6.95447 4.5045 8.40987 4.5045C9.68447 4.5012 10.9937 4.2624 12.2978 3.7838C14.0507 3.145 15.5613 2.8183 16.7862 2.8183C17.0315 2.8183 17.2649 2.832 17.4848 2.8589Z" stroke="black" stroke-width="1.5" stroke-linecap="round" stroke-linejoin="round"/>
</svg>
