<svg width="24" height="24" viewBox="0 0 24 24" fill="none" xmlns="http://www.w3.org/2000/svg">
<path d="M18.625 3.125C19.0392 3.125 19.375 3.4608 19.375 3.875C19.375 4.2547 19.0928 4.5685 18.7268 4.6182L18.625 4.625H17.748L17.749 7.208C17.749 9.1549 16.7748 10.9103 15.2495 11.9585L15.141 12.029L15.2488 12.0997C16.711 13.1038 17.6668 14.758 17.744 16.6086L17.749 16.851L17.748 19.375H18.625C19.0392 19.375 19.375 19.7108 19.375 20.125C19.375 20.5047 19.0928 20.8185 18.7268 20.8682L18.625 20.875H5.375C4.9608 20.875 4.625 20.5392 4.625 20.125C4.625 19.7453 4.9072 19.4315 5.2732 19.3818L5.375 19.375H6.25L6.251 16.851C6.251 14.9031 7.2254 13.1475 8.7512 12.0997L8.858 12.029L8.7505 11.9585C7.2888 10.9539 6.3331 9.3 6.256 7.4503L6.251 7.208L6.25 4.625H5.375C4.9608 4.625 4.625 4.2892 4.625 3.875C4.625 3.4953 4.9072 3.1815 5.2732 3.1318L5.375 3.125H18.625ZM16.248 4.625H7.75L7.751 7.208C7.751 9.0568 8.9391 10.6724 10.6505 11.2465L10.789 11.289L10.8096 11.2921C11.3141 11.3994 11.5984 12.0359 11.2435 12.4861L11.1783 12.5593C11.0951 12.6426 10.9966 12.703 10.8903 12.7394L10.85 12.749C9.0973 13.2436 7.8432 14.8124 7.7559 16.6462L7.753 16.748H16.246L16.2437 16.6384C16.1566 14.8758 14.9916 13.3594 13.3419 12.8102L13.1492 12.7511L13.149 12.749L13.1097 12.7394C13.0388 12.7151 12.9714 12.6802 12.91 12.6352L12.8227 12.5603C12.3707 12.1083 12.6578 11.4053 13.1904 11.2921L13.211 11.289L13.3495 11.2465C14.9951 10.6944 16.1568 9.1795 16.2438 7.4202L16.249 7.208L16.248 4.625Z" fill="black"/>
</svg>
