<svg width="24" height="24" viewBox="0 0 24 24" fill="none" xmlns="http://www.w3.org/2000/svg">
<path d="M11.5881 2.1839C11.8088 1.9387 12.1934 1.9387 12.4141 2.1839C15.2517 5.3372 17.0658 8.2741 18.0515 10.9335C18.4127 11.9079 18.6406 12.79 18.7599 13.5719C18.8404 14.0995 18.8622 14.5114 18.8503 14.7997L18.8443 15.0957C18.7195 19.1589 15.8697 22 12.0011 22C8.04736 22 5.15356 19.0316 5.15476 14.8535L5.14756 14.6729C5.13356 13.8838 5.32506 12.6692 5.89546 11.0845C6.86556 8.3893 8.69346 5.4006 11.5881 2.1839ZM12.0003 3.3933L11.6422 3.8096C9.28706 6.5825 7.77336 9.148 6.94086 11.4608C6.68106 12.1827 6.50836 12.8115 6.40166 13.3409L17.5995 13.3402C17.4856 12.7702 17.2969 12.0945 17.0097 11.3197C16.1631 9.0358 14.6582 6.5125 12.3455 3.7926L12.0003 3.3933Z" fill="black"/>
</svg>
