<svg width="24" height="24" viewBox="0 0 24 24" fill="none" xmlns="http://www.w3.org/2000/svg">
<path d="M18.835 8.97148C18.835 11.7205 17.21 14.0895 14.868 15.1755V16.9945H9.13198V15.1755C6.79098 14.0905 5.16498 11.7215 5.16498 8.97148C5.16498 5.19748 8.22598 2.13647 12 2.13647C15.774 2.13647 18.835 5.19748 18.835 8.97148ZM9.13198 19.3855H9.13298V18.6735H14.869V19.3855C14.869 20.5095 14.131 20.5545 13.667 20.7005C13.417 21.3795 12.767 21.8635 12.001 21.8635C11.235 21.8635 10.585 21.3785 10.335 20.7005C9.86998 20.5545 9.13198 20.5105 9.13198 19.3855Z" fill="black"/>
</svg>
