<svg width="24" height="24" viewBox="0 0 24 24" fill="none" xmlns="http://www.w3.org/2000/svg">
<path fill-rule="evenodd" clip-rule="evenodd" d="M14.5821 18.0061V18.6469C14.5821 19.6586 13.9179 19.6991 13.5003 19.8305C13.2753 20.4415 12.6903 20.8771 12.0009 20.8771C11.3115 20.8771 10.7265 20.4407 10.5015 19.8305C10.083 19.6991 9.41881 19.6595 9.41881 18.6469L9.41971 18.0061H14.5821ZM12 3.12292C15.3966 3.12292 18.1515 5.87782 18.1515 9.27442C18.1515 11.7485 16.689 13.8806 14.5812 14.858V16.4951H9.41881V14.858C7.31191 13.8815 5.84851 11.7493 5.84851 9.27442C5.84851 5.87782 8.60341 3.12292 12 3.12292Z" fill="black"/>
</svg>
