<svg width="24" height="24" viewBox="0 0 24 24" fill="none" xmlns="http://www.w3.org/2000/svg">
<path d="M15.3335 17.2949V18.1219C15.3335 19.4269 14.4775 19.4799 13.9375 19.6489C13.6465 20.4379 12.8925 20.9999 12.0025 20.9999C11.1135 20.9999 10.3575 20.4369 10.0675 19.6489C9.52747 19.4799 8.67047 19.4289 8.67047 18.1219H8.67147V17.2949H15.3335Z" fill="black"/>
<path fill-rule="evenodd" clip-rule="evenodd" d="M12.002 4C15.398 4 18.153 6.755 18.153 10.151C18.153 12.626 16.691 14.757 14.583 15.735V18.622H9.41998V15.735C7.31398 14.758 5.84998 12.627 5.84998 10.151C5.84998 6.755 8.60598 4 12.002 4Z" stroke="black" stroke-width="1.5" stroke-linecap="round" stroke-linejoin="round"/>
</svg>
