<svg width="24" height="24" viewBox="0 0 24 24" fill="none" xmlns="http://www.w3.org/2000/svg">
<path d="M7.31493 7.31481C4.72823 9.90141 4.72833 14.0984 7.31493 16.6849C9.90203 19.2717 14.0982 19.2717 16.685 16.6849C19.2716 14.0983 19.2719 9.90131 16.685 7.31471C14.0986 4.72841 9.90123 4.72841 7.31493 7.31481ZM15.8011 8.19871C17.8998 10.297 17.8996 13.7025 15.8011 15.801C13.7025 17.8997 10.2977 17.8997 8.19873 15.801C6.10043 13.7027 6.10033 10.2971 8.19873 8.19871C10.297 6.10041 13.7029 6.10041 15.8011 8.19871Z" fill="black"/>
<path d="M17.9219 5.19417C18.1659 4.95007 18.5616 4.94997 18.8058 5.19407C19.0227 5.41097 19.0469 5.74777 18.8782 5.99137L18.8059 6.07797L18.4523 6.43157C18.2083 6.67567 17.8126 6.67567 17.5685 6.43167C17.3515 6.21467 17.3273 5.87797 17.496 5.63437L17.5684 5.54777L17.9219 5.19417Z" fill="black"/>
<path d="M5.40117 17.715C5.64527 17.4709 6.04097 17.4709 6.28507 17.715C6.50197 17.932 6.52607 18.2687 6.35737 18.5123L6.28507 18.5989L5.93147 18.9524C5.68747 19.1965 5.29167 19.1965 5.04757 18.9524C4.83067 18.7355 4.80657 18.3987 4.97527 18.1551L5.04757 18.0685L5.40117 17.715Z" fill="black"/>
<path d="M12.0001 2.375C12.3139 2.375 12.5737 2.6063 12.6183 2.9076L12.6251 3V3.5C12.6251 3.8452 12.3453 4.125 12.0001 4.125C11.6863 4.125 11.4265 3.8937 11.3819 3.5924L11.3751 3.5V3C11.3751 2.6548 11.6549 2.375 12.0001 2.375Z" fill="black"/>
<path d="M5.19412 5.19412C5.41112 4.97722 5.74782 4.95312 5.99142 5.12182L6.07802 5.19412L6.43152 5.54772C6.67562 5.79182 6.67562 6.18752 6.43152 6.43162C6.21462 6.64852 5.87782 6.67262 5.63422 6.50392L5.54762 6.43162L5.19412 6.07802C4.95002 5.83402 4.95002 5.43822 5.19412 5.19412Z" fill="black"/>
<path d="M17.7148 17.715C17.9318 17.498 18.2686 17.4739 18.5121 17.6427L18.5987 17.715L18.9522 18.0685C19.1963 18.3126 19.1963 18.7084 18.9522 18.9524C18.7353 19.1694 18.3985 19.1935 18.1549 19.0248L18.0684 18.9524L17.7148 18.5989C17.4707 18.3548 17.4707 17.9591 17.7148 17.715Z" fill="black"/>
<path d="M3.50012 11.375C3.84532 11.375 4.12512 11.6548 4.12512 12C4.12512 12.3138 3.89382 12.5736 3.59242 12.6182L3.50012 12.625H3.00012C2.65492 12.625 2.37512 12.3452 2.37512 12C2.37512 11.6862 2.60632 11.4264 2.90772 11.3818L3.00012 11.375H3.50012Z" fill="black"/>
<path d="M12.0001 19.875C12.3139 19.875 12.5737 20.1063 12.6183 20.4076L12.6251 20.5V21C12.6251 21.3452 12.3453 21.625 12.0001 21.625C11.6863 21.625 11.4265 21.3937 11.3819 21.0924L11.3751 21V20.5C11.3751 20.1548 11.6549 19.875 12.0001 19.875Z" fill="black"/>
<path d="M20.917 11.375C21.2622 11.375 21.542 11.6548 21.542 12C21.542 12.3138 21.3108 12.5736 21.0094 12.6182L20.917 12.625H20.417C20.0718 12.625 19.792 12.3452 19.792 12C19.792 11.6862 20.0233 11.4264 20.3247 11.3818L20.417 11.375H20.917Z" fill="black"/>
</svg>
