<svg width="24" height="24" viewBox="0 0 24 24" fill="none" xmlns="http://www.w3.org/2000/svg">
<path fill-rule="evenodd" clip-rule="evenodd" d="M19.4711 6.67902L16.3091 9.84102C16.2701 9.88002 16.2061 9.88002 16.1671 9.84102L14.3691 8.04402C14.3301 8.00502 14.3301 7.94202 14.3691 7.90302L17.5321 4.74102C17.5801 4.69202 17.5681 4.60602 17.5071 4.57502C15.6071 3.57902 13.2051 3.87602 11.6071 5.47402C10.2111 6.86802 9.81011 8.87602 10.3911 10.629L4.72711 16.294C3.89211 17.129 3.73211 18.49 4.47911 19.404C5.33811 20.453 6.89111 20.511 7.82511 19.575L13.5811 13.82C15.3341 14.401 17.3421 13.999 18.7381 12.604C20.3351 11.006 20.6321 8.60602 19.6361 6.70402C19.6051 6.64402 19.5191 6.63102 19.4711 6.67902Z" stroke="black" stroke-width="1.5" stroke-linecap="round" stroke-linejoin="round"/>
</svg>
