<svg width="24" height="24" viewBox="0 0 24 24" fill="none" xmlns="http://www.w3.org/2000/svg">
<path d="M14.9272 8.8317V5.74969C14.9272 4.64469 14.0312 3.74969 12.9272 3.74969H6.25018C4.86918 3.74969 3.75018 4.86869 3.75018 6.24969V12.9277C3.75018 14.0317 4.64518 14.9277 5.75018 14.9277H6.26918" stroke="black" stroke-width="1.5" stroke-linecap="round" stroke-linejoin="round"/>
<path d="M9.07269 8.2995V17.7495C9.07269 19.1305 10.1917 20.2495 11.5727 20.2495H17.7497C19.1307 20.2495 20.2497 19.1305 20.2497 17.7495V12.1045C20.2497 10.9995 19.3547 10.1045 18.2497 10.1045H17.8227" stroke="black" stroke-width="1.5" stroke-linecap="round" stroke-linejoin="round"/>
<path d="M6.75238 9.72531L8.71938 7.75831C8.91438 7.56331 9.23138 7.56331 9.42638 7.75831L11.3934 9.72531" stroke="black" stroke-width="1.5" stroke-linecap="round" stroke-linejoin="round"/>
<path d="M17.2475 6.58557L15.2805 8.55257C15.0855 8.74657 14.7685 8.74657 14.5735 8.55257L12.6065 6.58557" stroke="black" stroke-width="1.5" stroke-linecap="round" stroke-linejoin="round"/>
<path d="M12.1162 17.3689L14.5002 12.1899C14.5892 11.9959 14.8652 11.9959 14.9542 12.1899L17.3402 17.3689" stroke="black" stroke-width="1.5" stroke-linecap="round" stroke-linejoin="round"/>
<path d="M13.3535 15.2399H16.1035" stroke="black" stroke-width="1.5" stroke-linecap="round" stroke-linejoin="round"/>
</svg>
