<svg width="24" height="24" viewBox="0 0 24 24" fill="none" xmlns="http://www.w3.org/2000/svg">
<path d="M18.8023 10.8647V7.53373C18.8023 6.15275 17.6823 5.03369 16.3023 5.03369H10.8743" stroke="black" stroke-width="1.63636" stroke-linecap="round" stroke-linejoin="round"/>
<path d="M21.1226 9.11859L19.1556 11.0856C18.9607 11.2806 18.6436 11.2806 18.4486 11.0856L16.4816 9.11859" stroke="black" stroke-width="1.63636" stroke-linecap="round" stroke-linejoin="round"/>
<path d="M5.07043 13.3062V17.3881C5.07043 18.7691 6.18938 19.8882 7.57036 19.8882H12.9974" stroke="black" stroke-width="1.63636" stroke-linecap="round" stroke-linejoin="round"/>
<path d="M2.74997 15.0533L4.71699 13.0862C4.91204 12.8912 5.22895 12.8912 5.42401 13.0862L7.39102 15.0533" stroke="black" stroke-width="1.63636" stroke-linecap="round" stroke-linejoin="round"/>
<path d="M3.22223 10.3647L5.96019 4.41776C6.06317 4.19467 6.37921 4.19369 6.48219 4.41667L9.22223 10.3647" stroke="black" stroke-width="1.63636" stroke-linecap="round" stroke-linejoin="round"/>
<path d="M4.64313 7.91937H7.80207" stroke="black" stroke-width="1.63636" stroke-linecap="round" stroke-linejoin="round"/>
<path fill-rule="evenodd" clip-rule="evenodd" d="M21.043 17.1889C21.043 15.6008 19.756 14.3139 18.168 14.3139C16.58 14.3139 15.293 15.6008 15.293 17.1889C15.293 18.7769 16.58 20.0639 18.168 20.0639C19.756 20.0639 21.043 18.7769 21.043 17.1889Z" stroke="black" stroke-width="1.63636" stroke-linecap="round" stroke-linejoin="round"/>
</svg>
