<svg width="24" height="24" viewBox="0 0 24 24" fill="none" xmlns="http://www.w3.org/2000/svg">
<path fill-rule="evenodd" clip-rule="evenodd" d="M13.838 15.7135V9.21348C13.838 8.79948 14.174 8.46348 14.588 8.46348C15.003 8.46348 15.338 8.79948 15.338 9.21348V15.7135C15.338 16.1275 15.003 16.4635 14.588 16.4635C14.174 16.4635 13.838 16.1275 13.838 15.7135ZM10.162 15.7135C10.162 16.1275 9.827 16.4635 9.412 16.4635C8.998 16.4635 8.662 16.1275 8.662 15.7135V9.21348C8.662 8.79948 8.998 8.46348 9.412 8.46348C9.827 8.46348 10.162 8.79948 10.162 9.21348V15.7135ZM10 4.54248C10 4.12848 10.337 3.79248 10.75 3.79248H13.25C13.664 3.79248 14 4.12848 14 4.54248L14.001 5.08348H10V4.54248ZM15.088 21.7075C15.571 21.7075 15.963 21.3165 15.963 20.8325V19.8335H16C17.375 19.8335 18.5 18.7085 18.5 17.3335V7.58348C18.5 6.20848 17.375 5.08348 16 5.08348H15.5V4.54248C15.5 3.30148 14.491 2.29248 13.25 2.29248H10.75C9.51 2.29248 8.5 3.30148 8.5 4.54248V5.08348H8C6.625 5.08348 5.5 6.20848 5.5 7.58348V17.3335C5.5 18.7085 6.625 19.8335 8 19.8335H8.037V20.8325C8.037 21.3165 8.43 21.7075 8.912 21.7075C9.396 21.7075 9.787 21.3165 9.787 20.8325V19.8335H14.213V20.8325C14.213 21.3165 14.606 21.7075 15.088 21.7075Z" fill="black"/>
</svg>
