<svg width="24" height="24" viewBox="0 0 24 24" fill="none" xmlns="http://www.w3.org/2000/svg">
<path fill-rule="evenodd" clip-rule="evenodd" d="M5.2 17.2L6.93333 15.6667C6.93333 15.6667 11.6667 15.5333 11.9333 15.6667C12.3333 15.8667 12.5333 16.7333 11.9333 17C11.6 17.1333 11.4 17.1333 11.4 17.1333L8.53333 17.6667L6.46666 19L5.2 17.2Z" fill="black"/>
<path fill-rule="evenodd" clip-rule="evenodd" d="M6.2 19.5333L4.53333 17.0667L6.73333 15H6.93333C11.9333 14.8667 11.9333 15 12.1333 15C12.5333 15.2 12.8667 15.6 12.8667 16.1333C12.8667 16.6667 12.5333 17.0667 12.1333 17.2C11.8 17.3333 11.5333 17.4 11.4 17.4L8.73333 17.9333L6.2 19.5333ZM5.93333 17.2L6.53333 18L8.26667 16.8667L11.2667 16.2667H11.4C11.4 16.2667 11.5333 16.2667 11.7333 16.1333C11.8667 16.1333 11.8667 16 11.8667 16C11.8667 15.8667 11.8667 15.8667 11.7333 15.8C11.2 15.8 8.86667 15.8 7.2 15.8L5.93333 17.2Z" fill="black"/>
<path fill-rule="evenodd" clip-rule="evenodd" d="M3.46667 18.6V22.4L8.53333 20.6667L14.1333 21.7333L20.5333 17.4667C20.5333 17.4667 20.9333 16 19.2667 16.5333C18.3333 16.8667 16.2667 17.8 16.2667 17.8L14 18.6C14 18.6 12.1333 18.9333 10.2667 17.2667C10.2667 17.2667 8.2 16.5333 3.53333 16.7333V18.6H3.46667Z" fill="black"/>
<path fill-rule="evenodd" clip-rule="evenodd" d="M3.46667 23C3.33333 23 3.26667 23 3.13333 22.8667C3 22.7333 2.93333 22.6667 2.93333 22.4667V16.8C2.93333 16.4667 3.13333 16.2667 3.46667 16.2667C8.2 16.0667 10.4 16.8 10.4 16.8C10.5333 16.8 10.5333 16.8 10.5333 16.9333C12.0667 18.2667 13.5333 18.2 13.8667 18.2L16.2667 17.2667C16.4667 17.1333 18.3333 16.3333 19.2667 16C20 15.8 20.5333 15.8667 20.8 16.2C21.3333 16.7333 21.1333 17.4667 21.1333 17.5333C21.1333 17.6667 21 17.7333 20.9333 17.8667L14.5333 22.1333C14.4 22.2667 14.3333 22.2667 14.1333 22.2667L8.66667 21.2L3.66667 22.8667C3.53333 23 3.53333 23 3.46667 23ZM3.93333 17.2V21.6667L8.26667 20.1333C8.4 20.1333 8.46667 20.1333 8.6 20.1333L14 21.0667L20 17C20 16.8667 20 16.8 20 16.8C20 16.8 19.8 16.6667 19.4 16.8C18.4667 17 16.5333 17.9333 16.5333 17.9333L14.2667 18.7333H14.1333C14 18.7333 12.0667 19.0667 10 17.4C9.66667 17.6 7.66667 17.0667 3.93333 17.2Z" fill="black"/>
<path fill-rule="evenodd" clip-rule="evenodd" d="M15.1333 1.2L11.7333 6.26667C11.7333 6.4 11.6 6.4 11.6 6.46667C11.6 6.66667 11.7333 6.8 11.9333 6.8H18.8667C19.0667 6.8 19.2 6.6 19.2 6.46667C19.2 6.33333 19.2 6.33333 19.0667 6.26667L15.6667 1.2C15.5333 1.06667 15.4667 1 15.3333 1C15.3333 1 15.2667 1.13333 15.1333 1.2Z" fill="black"/>
<path fill-rule="evenodd" clip-rule="evenodd" d="M16.0667 6.20001H14.9333C14.7333 6.20001 14.6 6.33335 14.6 6.53335V11.2667C14.6 11.4667 14.7333 11.6 14.9333 11.6H16.0667C16.2667 11.6 16.4 11.4667 16.4 11.2667V6.53335C16.4 6.33335 16.2667 6.20001 16.0667 6.20001Z" fill="black"/>
<path fill-rule="evenodd" clip-rule="evenodd" d="M8.93334 13.2667L12.3333 8.20002C12.3333 8.06669 12.4667 8.06669 12.4667 8.00002C12.4667 7.80002 12.3333 7.66669 12.1333 7.66669H5.2C5 7.66669 4.86667 7.86669 4.86667 8.00002C4.86667 8.13335 4.86667 8.13335 5 8.20002L8.4 13.2667C8.53334 13.4 8.6 13.4667 8.73334 13.4667C8.73334 13.3334 8.8 13.3334 8.93334 13.2667Z" fill="black"/>
<path fill-rule="evenodd" clip-rule="evenodd" d="M9.13333 2.86664H8C7.8 2.86664 7.66666 2.99997 7.66666 3.19997V7.9333C7.66666 8.1333 7.8 8.26664 8 8.26664H9.13333C9.33333 8.26664 9.46666 8.1333 9.46666 7.9333V3.19997C9.46666 2.99997 9.33333 2.86664 9.13333 2.86664Z" fill="black"/>
</svg>
