<svg width="24" height="24" viewBox="0 0 24 24" fill="none" xmlns="http://www.w3.org/2000/svg">
<path d="M3.1638 4.63253C3.4418 4.35553 3.8818 4.34363 4.1758 4.59253L19.6758 20.0926C19.9248 20.3876 19.9138 20.8265 19.6358 21.1045C19.4888 21.2505 19.2978 21.3235 19.1058 21.3235C18.9138 21.3235 18.7218 21.2505 18.5748 21.1045L8.3048 10.8336L6.1638 12.9755C4.9358 14.2025 4.9358 16.2015 6.1638 17.4305L6.3048 17.5716C6.8968 18.1625 7.6878 18.4886 8.5318 18.4886C9.3768 18.4886 10.1678 18.1625 10.7598 17.5716L12.2598 16.0716C12.5528 15.7786 13.0288 15.7786 13.3208 16.0716C13.6138 16.3636 13.6138 16.8386 13.3208 17.1315L11.8208 18.6315C10.9138 19.5385 9.7238 19.9916 8.5318 19.9916C7.3418 19.9916 6.1508 19.5385 5.2438 18.6315L5.1038 18.4905C3.2898 16.6775 3.2898 13.7275 5.1038 11.9145L7.2438 9.77363L3.1638 5.69363C2.8708 5.40053 2.8708 4.92553 3.1638 4.63253ZM12.952 4.06553C14.805 2.21343 17.817 2.21343 19.67 4.06553C20.563 4.95943 21.056 6.15253 21.056 7.42443C21.056 8.69653 20.563 9.88843 19.67 10.7835L17.24 13.2125C16.831 13.6215 16.361 13.9334 15.862 14.1585L14.687 12.9834C15.234 12.8525 15.754 12.5774 16.18 12.1524L18.608 9.72253C19.22 9.11153 19.556 8.29553 19.556 7.42443C19.556 6.55253 19.22 5.73753 18.609 5.12553C17.342 3.85953 15.28 3.85953 14.013 5.12553L12.583 6.55543C12.29 6.84853 11.815 6.84853 11.522 6.55543C11.229 6.26253 11.229 5.78743 11.522 5.49453L12.952 4.06553ZM9.8751 8.17053C11.3771 7.83553 13.0131 8.24743 14.1801 9.41443L14.3201 9.55553C14.6131 9.84843 14.6131 10.3235 14.3201 10.6165C14.0281 10.9094 13.5531 10.9094 13.2601 10.6165L13.1191 10.4754C12.6051 9.96053 11.9561 9.66553 11.2861 9.58153L9.8751 8.17053Z" fill="black"/>
</svg>
