<svg width="24" height="24" viewBox="0 0 24 24" fill="none" xmlns="http://www.w3.org/2000/svg">
<path d="M20.0463 17.9219C20.0043 12.2639 15.4033 7.65987 9.7913 7.65987H6.3023L8.6823 5.27987C8.9753 4.98687 8.9753 4.51287 8.6823 4.21987C8.3893 3.92687 7.9143 3.92687 7.6213 4.21987L4.3173 7.52387C3.8313 8.00987 3.8313 8.80187 4.3163 9.28887L7.6123 12.5989C7.7603 12.7459 7.9523 12.8189 8.1453 12.8189C8.3363 12.8189 8.5273 12.7469 8.6743 12.6019C8.9673 12.3089 8.9683 11.8339 8.6763 11.5399L6.3053 9.15987H9.7913C14.5823 9.15987 18.5103 13.0959 18.5463 17.9359C18.5473 18.0009 18.5473 19.2259 18.5473 19.2499C18.5473 19.6639 18.8823 19.9999 19.2973 19.9999C19.7113 19.9999 20.0473 19.6639 20.0473 19.2499C20.0473 19.2259 20.0463 17.9379 20.0463 17.9219Z" fill="black"/>
</svg>
