<svg width="24" height="24" viewBox="0 0 24 24" fill="none" xmlns="http://www.w3.org/2000/svg">
<path fill-rule="evenodd" clip-rule="evenodd" d="M18.1535 19.6135C18.5675 19.6135 18.9035 19.9495 18.9035 20.3635C18.9035 20.7775 18.5675 21.1135 18.1535 21.1135H5.8465C5.4325 21.1135 5.0965 20.7775 5.0965 20.3635C5.0965 19.9495 5.4325 19.6135 5.8465 19.6135H18.1535ZM12 2.88647C12.437 2.88647 12.86 3.06747 13.161 3.38247L17.7 8.11748C17.987 8.41748 17.977 8.89147 17.678 9.17747C17.532 9.31747 17.345 9.38648 17.158 9.38648C16.961 9.38648 16.765 9.30948 16.617 9.15548L12.759 5.13047V17.1915C12.759 17.6055 12.423 17.9415 12.009 17.9415C11.595 17.9415 11.259 17.6055 11.259 17.1915V5.11147L7.383 9.15548C7.097 9.45548 6.622 9.46547 6.322 9.17747C6.024 8.89147 6.014 8.41748 6.3 8.11748L10.839 3.38247C11.141 3.06747 11.564 2.88647 12 2.88647Z" fill="black"/>
</svg>
