<svg width="24" height="24" viewBox="0 0 24 24" fill="none" xmlns="http://www.w3.org/2000/svg">
<path d="M15.125 2.59998C16.09 2.59998 16.875 3.38498 16.875 4.34998V8.82098C17.465 9.10198 17.875 9.70298 17.875 10.4V16.9C17.875 19.385 15.859 21.4 13.375 21.4H10.625C8.14 21.4 6.125 19.385 6.125 16.9V10.4C6.125 9.70298 6.534 9.10198 7.125 8.82098V4.34998C7.125 3.38498 7.91 2.59998 8.875 2.59998H15.125ZM15.125 4.09998H8.875C8.736 4.09998 8.624 4.21198 8.624 4.34998V8.64998H15.375V4.34998C15.375 4.21198 15.263 4.09998 15.125 4.09998ZM10.75 5.54938C11.095 5.54938 11.375 5.82938 11.375 6.17438V6.60338C11.375 6.94838 11.095 7.22838 10.75 7.22838C10.404 7.22838 10.125 6.94838 10.125 6.60338V6.17438C10.125 5.82938 10.404 5.54938 10.75 5.54938ZM13.25 5.54938C13.595 5.54938 13.875 5.82938 13.875 6.17438V6.60338C13.875 6.94838 13.595 7.22838 13.25 7.22838C12.904 7.22838 12.625 6.94838 12.625 6.60338V6.17438C12.625 5.82938 12.904 5.54938 13.25 5.54938Z" fill="black"/>
</svg>
