<svg width="24" height="24" viewBox="0 0 24 24" fill="none" xmlns="http://www.w3.org/2000/svg">
<path d="M14.605 19.566C13.788 19.847 12.912 20 12 20C7.582 20 4 16.418 4 12C4 7.582 7.582 4 12 4C16.417 4 20 7.582 20 12" stroke="black" stroke-width="1.5" stroke-linecap="round" stroke-linejoin="round"/>
<path d="M14.981 11.608C14.902 7.50502 13.598 4.23901 12 4.23901C10.35 4.23901 9.01404 7.71502 9.01404 12C9.01404 16.286 10.35 19.761 12 19.761C12.6 19.761 13.159 19.301 13.626 18.508" stroke="black" stroke-width="1.5" stroke-linecap="round" stroke-linejoin="round"/>
<path d="M14.306 12H4.49097" stroke="black" stroke-width="1.5" stroke-linecap="round" stroke-linejoin="round"/>
<path fill-rule="evenodd" clip-rule="evenodd" d="M21.4995 15.6251C21.4995 18.0411 19.5405 20.0001 17.1245 20.0001C14.7075 20.0001 12.7495 18.0411 12.7495 15.6251C12.7495 13.2091 14.7075 11.2501 17.1245 11.2501C19.5405 11.2501 21.4995 13.2091 21.4995 15.6251Z" stroke="black" stroke-width="1.5" stroke-linecap="round" stroke-linejoin="round"/>
<path d="M18.8354 15.6251H17.4064C17.2504 15.6251 17.1244 15.4991 17.1244 15.3431V13.4261" stroke="black" stroke-width="1.5" stroke-linecap="round" stroke-linejoin="round"/>
</svg>
