<svg width="24" height="24" viewBox="0 0 24 24" fill="none" xmlns="http://www.w3.org/2000/svg">
<path d="M19.4253 19.1817L17.5813 17.3377C17.2893 17.0457 17.2883 16.5707 17.5813 16.2777L18.8963 14.9617C19.1893 14.6687 19.1883 14.1937 18.8963 13.9017L17.5823 12.5877C17.2893 12.2947 17.2893 11.8197 17.5823 11.5267L18.8953 10.2137C19.1883 9.9207 19.1883 9.4467 18.8953 9.1537L17.5823 7.8397C17.2893 7.5467 17.2893 7.0717 17.5823 6.7787L19.4253 4.9357M4.52545 4.44L14.3724 14.118M13.269 4.8799L8.43205 8.7499H5.30005C4.47105 8.7499 3.80005 9.4219 3.80005 10.2499V13.4999C3.80005 14.3289 4.47105 14.9999 5.30005 14.9999H8.42805L13.269 19.3749C13.883 19.9259 14.385 19.7029 14.385 18.8779V5.3779C14.385 4.5529 13.883 4.3289 13.269 4.8799Z" stroke="black" stroke-width="1.5" stroke-linecap="round" stroke-linejoin="round"/>
</svg>
