<svg width="24" height="24" viewBox="0 0 24 24" fill="none" xmlns="http://www.w3.org/2000/svg">
<path fill-rule="evenodd" clip-rule="evenodd" d="M22.1145 6.67021C21.9739 6.67021 21.832 6.71121 21.6925 6.79341L17.8626 9.44211V8.15381C17.8626 6.44241 16.4623 5.04211 14.7508 5.04211H4.3313C2.6199 5.04211 1.2196 6.44241 1.2196 8.15381V15.8462C1.2196 17.5576 2.6199 18.9579 4.3313 18.9579H14.7508C16.4623 18.9579 17.8626 17.5576 17.8626 15.8462V14.5504L21.6913 17.1842C21.8357 17.2813 21.9863 17.3298 22.1357 17.3298C22.4556 17.3298 22.7804 17.0797 22.7804 16.5992V7.41201C22.7804 6.92531 22.4456 6.67021 22.1145 6.67021Z" stroke="black" stroke-width="1.5" stroke-linecap="round" stroke-linejoin="round"/>
</svg>
