<svg width="24" height="24" viewBox="0 0 24 24" fill="none" xmlns="http://www.w3.org/2000/svg">
<path d="M7.05357 3.50018C7.46777 3.50018 7.80357 3.83598 7.80357 4.25018C7.80357 4.62988 7.52137 4.94368 7.15537 4.99338L7.05357 5.00018H5.74957C5.10247 5.00018 4.57007 5.49208 4.50607 6.12238L4.49957 6.25018V7.58618C4.49957 8.00038 4.16377 8.33618 3.74957 8.33618C3.36987 8.33618 3.05607 8.05398 3.00637 7.68798L2.99957 7.58618V6.25018C2.99957 4.78748 4.14157 3.59178 5.58207 3.50518L5.74957 3.50018H7.05357Z" fill="black"/>
<path d="M18.2497 3.50018C19.7126 3.50018 20.9081 4.64148 20.9947 6.08258L20.9997 6.25018V7.58618C20.9997 8.00038 20.6639 8.33618 20.2497 8.33618C19.87 8.33618 19.5562 8.05398 19.5065 7.68798L19.4997 7.58618V6.25018C19.4997 5.60258 19.0082 5.07058 18.3776 5.00658L18.2497 5.00018H16.9467C16.5325 5.00018 16.1967 4.66438 16.1967 4.25018C16.1967 3.87048 16.4789 3.55668 16.8449 3.50698L16.9467 3.50018H18.2497Z" fill="black"/>
<path d="M3.74957 16.1158C4.12927 16.1158 4.44307 16.398 4.49277 16.764L4.49957 16.8658V18.4518C4.49957 19.0985 4.99197 19.6313 5.62187 19.6953L5.74957 19.7018H7.05357C7.46777 19.7018 7.80357 20.0376 7.80357 20.4518C7.80357 20.8315 7.52137 21.1453 7.15537 21.195L7.05357 21.2018H5.74957C4.28757 21.2018 3.09117 20.0596 3.00457 18.6193L2.99957 18.4518V16.8658C2.99957 16.4516 3.33537 16.1158 3.74957 16.1158Z" fill="black"/>
<path d="M20.2497 16.3658C20.6294 16.3658 20.9432 16.648 20.9929 17.014L20.9997 17.1158V18.4518C20.9997 19.9141 19.8581 21.1102 18.4172 21.1968L18.2497 21.2018H16.9467C16.5325 21.2018 16.1967 20.866 16.1967 20.4518C16.1967 20.0721 16.4789 19.7583 16.8449 19.7086L16.9467 19.7018H18.2497C18.8969 19.7018 19.4292 19.2098 19.4932 18.5796L19.4997 18.4518V17.1158C19.4997 16.7016 19.8355 16.3658 20.2497 16.3658Z" fill="black"/>
<path d="M15.2499 8.10107C16.0789 8.10107 16.7499 8.77307 16.7499 9.60107V15.1011C16.7499 15.9291 16.0789 16.6011 15.2499 16.6011H8.74988C7.92088 16.6011 7.24988 15.9291 7.24988 15.1011V9.60107C7.24988 8.77307 7.92088 8.10107 8.74988 8.10107H15.2499ZM10.6284 10.1011C10.4404 10.1011 10.2499 10.2327 10.2499 10.4842V14.2175C10.2499 14.4695 10.4404 14.6011 10.6284 14.6011C10.7136 14.6011 10.7983 14.5764 10.8811 14.528L14.0339 12.6847C14.1715 12.6048 14.2499 12.4827 14.2499 12.3511C14.2499 12.2189 14.1715 12.0969 14.0339 12.0175L10.8811 10.1737C10.7989 10.1253 10.7136 10.1011 10.6284 10.1011Z" fill="black"/>
</svg>
