<svg width="24" height="24" viewBox="0 0 24 24" fill="none" xmlns="http://www.w3.org/2000/svg">
<path fill-rule="evenodd" clip-rule="evenodd" d="M3.85282 18.9556H15.0139C16.6083 18.9556 17.8611 17.7028 17.8611 16.1083V14.6278L22.1889 17.1333C22.3028 17.2472 22.5306 17.2472 22.6444 17.2472C22.9861 17.2472 23.3278 17.0194 23.3278 16.45V6.88331C23.3278 6.42781 22.9861 6.08611 22.6444 6.08611C22.5306 6.08611 22.3028 6.08611 22.1889 6.20001L17.8611 8.70561V7.22501C17.8611 5.63061 16.6083 4.37781 15.0139 4.37781H3.85282C2.25832 4.37781 1.00562 5.63061 1.00562 7.22501V16.1083C1.00562 17.5889 2.25832 18.9556 3.85282 18.9556Z" fill="black"/>
</svg>
