<svg width="24" height="24" viewBox="0 0 24 24" fill="none" xmlns="http://www.w3.org/2000/svg">
<path d="M6.54131 9.28368L11.9738 14.7163M11.9742 9.28368L6.54171 14.7163M22.865 13.8101V16.6426C22.865 17.1413 22.5217 17.401 22.1849 17.401C22.0403 17.401 21.8958 17.3586 21.7546 17.275L17.5716 14.8445V16.346C17.5716 17.8399 16.3493 19.0623 14.8553 19.0623H3.85121C2.35731 19.0623 1.13501 17.8399 1.13501 16.346V13.3831V7.65398C1.13501 6.16008 2.35731 4.93768 3.85121 4.93768H14.8553C16.3493 4.93768 17.5716 6.16008 17.5716 7.65398V9.15548L21.7546 6.72498C21.8958 6.64138 22.0403 6.59898 22.1849 6.59898C22.5217 6.59898 22.865 6.85978 22.865 7.35738V13.8101Z" stroke="black" stroke-width="1.5" stroke-linecap="round" stroke-linejoin="round"/>
</svg>
