<svg width="24" height="24" viewBox="0 0 24 24" fill="none" xmlns="http://www.w3.org/2000/svg">
<path fill-rule="evenodd" clip-rule="evenodd" d="M12.59 14.255C12.925 14.589 12.925 15.134 12.59 15.469C12.422 15.636 12.203 15.72 11.983 15.72C11.763 15.72 11.543 15.636 11.375 15.47L9.12097 13.214L6.86597 15.469C6.69897 15.636 6.47997 15.72 6.25997 15.72C6.03997 15.72 5.81997 15.636 5.65197 15.47C5.31697 15.134 5.31697 14.59 5.65197 14.255L7.90697 12L5.65197 9.746C5.31697 9.411 5.31697 8.867 5.65197 8.532C5.98697 8.196 6.53197 8.196 6.86597 8.532L9.12097 10.787L11.375 8.532C11.71 8.196 12.255 8.196 12.589 8.532C12.925 8.867 12.925 9.411 12.589 9.746L10.335 12L12.589 14.255H12.59ZM22.462 6.41C22.314 6.41 22.165 6.454 22.02 6.54L17.723 9.037V7.565C17.723 5.991 16.435 4.703 14.862 4.703H3.70197C2.12797 4.703 0.839966 5.991 0.839966 7.565V16.435C0.839966 18.009 2.12797 19.297 3.70197 19.297H14.862C16.435 19.297 17.723 18.009 17.723 16.435V14.955L22.017 17.437C22.17 17.539 22.327 17.59 22.484 17.59C22.82 17.59 23.16 17.327 23.16 16.823V7.19C23.16 6.679 22.809 6.41 22.462 6.41Z" fill="black"/>
</svg>
