<svg width="24" height="24" viewBox="0 0 24 24" fill="none" xmlns="http://www.w3.org/2000/svg">
<path d="M17.7471 1.545C17.8191 1.325 18.1301 1.325 18.2031 1.545L19.0961 4.21501L20.9671 5.11001C21.1491 5.19701 21.1501 5.457 20.9681 5.544L19.0991 6.441L18.2101 9.117C18.1381 9.336 17.8261 9.336 17.7541 9.117L16.8591 6.443L14.9911 5.55C14.8081 5.463 14.8081 5.20301 14.9901 5.11601L16.8581 4.218L17.7471 1.545ZM21.4474 6.421C21.4944 6.278 21.6974 6.278 21.7454 6.421L22.3284 8.165L23.5504 8.749C23.6684 8.806 23.6684 8.975 23.5514 9.032L22.3304 9.618L21.7504 11.365C21.7024 11.508 21.4994 11.508 21.4524 11.365L20.8674 9.62L19.6494 9.03601C19.5294 8.97901 19.5294 8.81001 19.6484 8.75301L20.8674 8.168L21.4474 6.421Z" fill="black"/>
<path d="M20.005 12.3038L20.01 17.4888C20.011 18.8638 18.887 19.9898 17.512 19.9908L6.513 20.0018C5.138 20.0028 4.012 18.8788 4.011 17.5038L4 6.50381C3.999 5.12881 5.122 4.00281 6.497 4.00181L12.86 3.99481M14.8042 12.1984L10.5332 14.9674C10.4212 15.0414 10.3062 15.0774 10.1912 15.0774C9.9362 15.0774 9.6782 14.8804 9.6782 14.5014L9.6722 8.90441C9.6722 8.52541 9.9292 8.32741 10.1842 8.32741C10.3002 8.32741 10.4152 8.36341 10.5262 8.43541L14.8032 11.1974C14.9892 11.3184 15.0952 11.4994 15.0952 11.6974C15.0952 11.8954 14.9902 12.0774 14.8042 12.1984Z" stroke="black" stroke-width="1.5" stroke-linecap="round" stroke-linejoin="round"/>
</svg>
