<svg width="24" height="24" viewBox="0 0 24 24" fill="none" xmlns="http://www.w3.org/2000/svg">
<path d="M12.9451 7.18658V16.8137H11.338V7.18658H12.9451ZM18.9027 7.18648C19.9646 7.18648 20.7966 7.46048 21.3986 8.00938C21.9996 8.55838 22.3016 9.28038 22.3016 10.1744C22.3016 11.0794 21.9996 11.8025 21.3986 12.3475C20.7966 12.8914 19.9646 13.1644 18.9027 13.1644H16.7467V16.8134H15.1406V7.18648H18.9027ZM3.4104 7.18628L5.7053 14.2934L5.8763 14.9623H5.9163L6.0823 14.3083L8.3823 7.18628H10.0954L6.6574 16.8134H5.1294L1.6983 7.18628H3.4104ZM18.9027 8.47538H16.7467V11.8744H18.9027C19.4977 11.8744 19.9447 11.7155 20.2446 11.3984C20.5446 11.0815 20.6947 10.6775 20.6947 10.1884C20.6947 9.69938 20.5446 9.29138 20.2446 8.96438C19.9447 8.63838 19.4977 8.47538 18.9027 8.47538Z" fill="black"/>
</svg>
