<svg width="24" height="24" viewBox="0 0 24 24" fill="none" xmlns="http://www.w3.org/2000/svg">
<path fill-rule="evenodd" clip-rule="evenodd" d="M17.417 11.5487L19.167 11.5757C19.113 15.1716 16.413 18.0446 12.875 18.4507V21.7847H11.125V18.4437C7.37601 17.9756 4.83301 14.6087 4.83301 11.5627H6.58301C6.58301 14.0166 8.81301 16.7506 12.015 16.7506C15 16.7506 17.373 14.4656 17.417 11.5487ZM11.9997 2.21533C13.8997 2.21533 15.4457 3.76133 15.4457 5.66037L15.4357 11.5513C15.4357 13.4504 13.8947 14.9964 11.9997 14.9964C10.1007 14.9964 8.55471 13.4504 8.55471 11.5513V5.66037C8.55471 3.76133 10.1007 2.21533 11.9997 2.21533Z" fill="black"/>
</svg>
