<svg width="24" height="24" viewBox="0 0 24 24" fill="none" xmlns="http://www.w3.org/2000/svg">
<path d="M11.4776 4.4857C12.5723 3.5129 13.8352 4.0805 13.8352 5.5502V18.3002C13.8352 19.7745 12.5644 20.3408 11.4854 19.3703L7.10401 15.6722H4.75021C3.50731 15.6722 2.50021 14.6647 2.50021 13.4222V10.4222C2.50021 9.1797 3.50731 8.1722 4.75021 8.1722H7.10811L11.4776 4.4857ZM12.3352 5.7247L7.65631 9.6722H4.75021C4.33581 9.6722 4.00021 10.008 4.00021 10.4222V13.4222C4.00021 13.8364 4.33581 14.1722 4.75021 14.1722H7.65241L7.86201 14.3491L12.3352 18.1251V5.7247ZM19.3007 9.6752V11.1752H20.8007C21.8007 11.1752 21.8007 12.6752 20.8007 12.6752H19.3007V14.1752C19.3007 15.1752 17.8007 15.1752 17.8007 14.1752V12.6752H16.3007C15.3007 12.6752 15.3007 11.1752 16.3007 11.1752H17.8007V9.6752C17.8007 8.6752 19.3007 8.6752 19.3007 9.6752Z" fill="black"/>
</svg>
