<svg width="24" height="24" viewBox="0 0 24 24" fill="none" xmlns="http://www.w3.org/2000/svg">
<path d="M11.4776 4.4857C12.5723 3.5129 13.8352 4.0805 13.8352 5.5502V18.3002C13.8352 19.7736 12.5643 20.3407 11.4854 19.3703L7.10401 15.6722H4.75021C3.50731 15.6722 2.50021 14.6647 2.50021 13.4222V10.4222C2.50021 9.1797 3.50731 8.1722 4.75021 8.1722H7.10811L11.4776 4.4857ZM12.3352 5.7247L7.86581 9.4954C7.73051 9.6096 7.55921 9.6722 7.38221 9.6722H4.75021C4.33581 9.6722 4.00021 10.008 4.00021 10.4222V13.4222C4.00021 13.8364 4.33581 14.1722 4.75021 14.1722H7.37821C7.55531 14.1722 7.72661 14.2349 7.86201 14.3491L12.3352 18.1251V5.7247ZM20.5507 11.1752C20.9649 11.1752 21.3007 11.511 21.3007 11.9252C21.3007 12.3394 20.9649 12.6752 20.5507 12.6752H16.5507C16.1365 12.6752 15.8007 12.3394 15.8007 11.9252C15.8007 11.511 16.1365 11.1752 16.5507 11.1752H20.5507Z" fill="black"/>
</svg>
