<svg width="24" height="24" viewBox="0 0 24 24" fill="none" xmlns="http://www.w3.org/2000/svg">
<path fill-rule="evenodd" clip-rule="evenodd" d="M8.25031 15.1094L7.01331 11.6604H7.89131L8.60631 13.8794L9.32631 11.6604H10.2053L8.96431 15.1094H8.25031ZM11.6165 13.2247C11.7945 13.2247 11.9205 13.1867 11.9895 13.1127C12.0625 13.0357 12.0975 12.9347 12.0975 12.8067C12.0975 12.6857 12.0605 12.5797 11.9835 12.4857C11.9145 12.3997 11.7915 12.3567 11.6165 12.3567H11.0715V13.2247H11.6165ZM10.2675 15.1097V11.6607H11.6165C12.0185 11.6607 12.3365 11.7687 12.5625 11.9827C12.7905 12.1977 12.9065 12.4737 12.9065 12.8027C12.9065 13.1477 12.7895 13.4247 12.5585 13.6247C12.3335 13.8217 12.0165 13.9207 11.6165 13.9207H11.0715V15.1097H10.2675ZM15.1839 15.1094L13.9499 13.1474V15.1094H13.1459V11.6604H13.8939L15.1319 13.6284V11.6604H15.9339V15.1094H15.1839Z" fill="black"/>
<path d="M10.17 20.4405H7C5.896 20.4405 5 19.5445 5 18.4405V11.7135C5 10.6095 5.896 9.7135 7 9.7135H16C17.004 9.7135 17.835 10.4535 17.978 11.4175M16.2845 22.4571C15.5605 23.1821 14.3865 23.1821 13.6625 22.4571C12.9385 21.7331 12.9385 20.5591 13.6625 19.8351L16.4015 17.0951C17.1265 16.3711 18.3005 16.3711 19.0245 17.0951M19.3345 14.1622C20.0585 13.4382 21.2325 13.4382 21.9565 14.1622C22.6805 14.8872 22.6805 16.0602 21.9565 16.7852L19.2175 19.5242C18.4935 20.2482 17.3195 20.2482 16.5945 19.5242M7.8323 9V6.758C7.8323 4.683 9.4743 3 11.4993 3C13.5253 3 15.1673 4.683 15.1673 6.758V9" stroke="black" stroke-width="1.5" stroke-linecap="round" stroke-linejoin="round"/>
</svg>
