<svg width="24" height="24" viewBox="0 0 24 24" fill="none" xmlns="http://www.w3.org/2000/svg">
<path fill-rule="evenodd" clip-rule="evenodd" d="M8.2764 15.1094L7.0394 11.6604H7.9174L8.6324 13.8794L9.3524 11.6604H10.2324L8.9904 15.1094H8.2764ZM11.6429 13.2246C11.8209 13.2246 11.9469 13.1866 12.0159 13.1126C12.0889 13.0356 12.1239 12.9346 12.1239 12.8066C12.1239 12.6856 12.0869 12.5796 12.0099 12.4856C11.9409 12.3996 11.8179 12.3566 11.6429 12.3566H11.0979V13.2246H11.6429ZM10.2939 15.1096V11.6606H11.6429C12.0449 11.6606 12.3629 11.7686 12.5889 11.9826C12.8169 12.1976 12.9329 12.4736 12.9329 12.8026C12.9329 13.1476 12.8159 13.4246 12.5849 13.6246C12.3599 13.8216 12.0429 13.9206 11.6429 13.9206H11.0979V15.1096H10.2939ZM15.2103 15.1094L13.9763 13.1474V15.1094H13.1723V11.6604H13.9203L15.1583 13.6284V11.6604H15.9603V15.1094H15.2103Z" fill="black"/>
<path d="M18 12.8809V11.7139C18 10.6089 17.104 9.7139 16 9.7139H7C5.896 9.7139 5 10.6089 5 11.7139V18.4409C5 19.5449 5.896 20.4409 7 20.4409H11.299M7.8323 9V6.758C7.8323 4.683 9.4743 3 11.4993 3C13.5253 3 15.1673 4.683 15.1673 6.758V9M19.7 21.2002L15.096 16.5962M17.0528 21.5273L20.0268 18.5523C20.6578 17.9223 20.6578 16.8993 20.0268 16.2693C19.3968 15.6383 18.3738 15.6383 17.7438 16.2693L14.7688 19.2433C14.1388 19.8743 14.1388 20.8963 14.7688 21.5273C15.3998 22.1573 16.4218 22.1573 17.0528 21.5273Z" stroke="black" stroke-width="1.5" stroke-linecap="round" stroke-linejoin="round"/>
</svg>
