<svg width="24" height="24" viewBox="0 0 24 24" fill="none" xmlns="http://www.w3.org/2000/svg">
<path d="M19.0313 13.9357L16.5037 11.2745C16.0711 10.8189 15.3488 10.8062 14.9002 11.2458L11.1669 14.9051C10.9487 15.1192 10.5994 15.1195 10.3803 14.9063L9.1211 13.6778C8.6787 13.2466 7.9719 13.2525 7.5368 13.6907L4.9688 16.2793M16.5 21.2813H7.5C5.9469 21.2813 4.6875 20.0218 4.6875 18.4688V5.53131C4.6875 3.97791 5.9469 2.71881 7.5 2.71881H16.5C18.0531 2.71881 19.3125 3.97791 19.3125 5.53131V18.4688C19.3125 20.0218 18.0531 21.2813 16.5 21.2813ZM9.5001 9.25091C10.4307 9.25091 11.1873 8.49381 11.1873 7.56341C11.1873 6.63311 10.4307 5.87591 9.5001 5.87591C8.5691 5.87591 7.8123 6.63311 7.8123 7.56341C7.8123 8.49381 8.5691 9.25091 9.5001 9.25091Z" stroke="black" stroke-width="1.5" stroke-linecap="round" stroke-linejoin="round"/>
</svg>
