<svg width="24" height="24" viewBox="0 0 24 24" fill="none" xmlns="http://www.w3.org/2000/svg">
<path fill-rule="evenodd" clip-rule="evenodd" d="M13.725 8.31029L12.8412 7.79999L13.725 7.28969C13.9401 7.16549 14.0139 6.89039 13.8897 6.67499C13.7655 6.45989 13.4904 6.38609 13.275 6.51029L12.3912 7.02059V5.99999C12.3912 5.75159 12.1896 5.54999 11.9412 5.54999C11.6925 5.54999 11.4912 5.75159 11.4912 5.99999V7.02059L10.6071 6.51029C10.3917 6.38579 10.1169 6.45989 9.99268 6.67499C9.86818 6.89039 9.94198 7.16549 10.1571 7.28969L11.0412 7.79999L10.1571 8.31029C9.94198 8.43449 9.86818 8.70989 9.99268 8.92499C10.0758 9.06929 10.227 9.14999 10.3827 9.14999C10.4589 9.14999 10.5363 9.13049 10.6071 9.08969L11.4912 8.57939V9.59999C11.4912 9.84839 11.6925 10.05 11.9412 10.05C12.1896 10.05 12.3912 9.84839 12.3912 9.59999V8.57939L13.275 9.08969C13.3458 9.13079 13.4232 9.14999 13.4997 9.14999C13.6551 9.14999 13.8063 9.06929 13.8897 8.92499C14.0139 8.70989 13.9401 8.43449 13.725 8.31029Z" fill="#70C8F9"/>
<path fill-rule="evenodd" clip-rule="evenodd" d="M13.725 16.7103L12.8412 16.2L13.725 15.6897C13.9401 15.5655 14.0139 15.2904 13.8897 15.075C13.7655 14.8599 13.4904 14.7861 13.275 14.9103L12.3912 15.4206V14.4C12.3912 14.1516 12.1896 13.95 11.9412 13.95C11.6925 13.95 11.4912 14.1516 11.4912 14.4V15.4206L10.6071 14.9103C10.3917 14.7858 10.1169 14.8599 9.99268 15.075C9.86818 15.2904 9.94198 15.5655 10.1571 15.6897L11.0412 16.2L10.1571 16.7103C9.94198 16.8345 9.86818 17.1099 9.99268 17.325C10.0758 17.4693 10.227 17.55 10.3827 17.55C10.4589 17.55 10.5363 17.5305 10.6071 17.4897L11.4912 16.9794V18C11.4912 18.2484 11.6925 18.45 11.9412 18.45C12.1896 18.45 12.3912 18.2484 12.3912 18V16.9794L13.275 17.4897C13.3458 17.5308 13.4232 17.55 13.4997 17.55C13.6551 17.55 13.8063 17.4693 13.8897 17.325C14.0139 17.1099 13.9401 16.8345 13.725 16.7103Z" fill="#70C8F9"/>
<path fill-rule="evenodd" clip-rule="evenodd" d="M7.8426 12.5103L6.9588 12L7.8426 11.4897C8.0577 11.3655 8.1315 11.0904 8.0073 10.875C7.8831 10.6599 7.6083 10.5861 7.3926 10.7103L6.5088 11.2206V10.2C6.5088 9.9516 6.3072 9.75 6.0588 9.75C5.8101 9.75 5.6088 9.9516 5.6088 10.2V11.2206L4.725 10.7103C4.5096 10.5861 4.2345 10.6599 4.1103 10.875C3.9861 11.0904 4.0599 11.3655 4.275 11.4897L5.1588 12L4.275 12.5103C4.0599 12.6345 3.9861 12.9099 4.1103 13.125C4.1937 13.2693 4.3449 13.35 4.5003 13.35C4.5768 13.35 4.6542 13.3305 4.725 13.2897L5.6088 12.7794V13.8C5.6088 14.0484 5.8101 14.25 6.0588 14.25C6.3072 14.25 6.5088 14.0484 6.5088 13.8V12.7794L7.3926 13.2897C7.4634 13.3308 7.5408 13.35 7.6173 13.35C7.7727 13.35 7.9239 13.2693 8.0073 13.125C8.1315 12.9099 8.0577 12.6345 7.8426 12.5103Z" fill="#70C8F9"/>
<path fill-rule="evenodd" clip-rule="evenodd" d="M19.725 12.5103L18.8412 12L19.725 11.4897C19.9401 11.3655 20.0139 11.0904 19.8897 10.875C19.7655 10.6599 19.4904 10.5861 19.275 10.7103L18.3912 11.2206V10.2C18.3912 9.9516 18.1896 9.75 17.9412 9.75C17.6925 9.75 17.4912 9.9516 17.4912 10.2V11.2206L16.6071 10.7103C16.392 10.5861 16.1169 10.6599 15.9927 10.875C15.8682 11.0904 15.942 11.3655 16.1571 11.4897L17.0412 12L16.1571 12.5103C15.942 12.6345 15.8682 12.9099 15.9927 13.125C16.0758 13.2693 16.227 13.35 16.3827 13.35C16.4589 13.35 16.5363 13.3305 16.6071 13.2897L17.4912 12.7794V13.8C17.4912 14.0484 17.6925 14.25 17.9412 14.25C18.1896 14.25 18.3912 14.0484 18.3912 13.8V12.7794L19.275 13.2897C19.3458 13.3308 19.4232 13.35 19.4997 13.35C19.6551 13.35 19.8063 13.2693 19.8897 13.125C20.0139 12.9099 19.9401 12.6345 19.725 12.5103Z" fill="#70C8F9"/>
</svg>
