<svg width="24" height="24" viewBox="0 0 24 24" fill="none" xmlns="http://www.w3.org/2000/svg">
<path fill-rule="evenodd" clip-rule="evenodd" d="M13.8897 8.17499C13.7655 7.95989 13.4904 7.88609 13.275 8.01029L12.3912 8.52059V7.49999C12.3912 7.25159 12.1899 7.04999 11.9412 7.04999C11.6928 7.04999 11.4912 7.25159 11.4912 7.49999V8.52059L10.6074 8.01029C10.3923 7.88609 10.1172 7.95989 9.99268 8.17499C9.86848 8.39009 9.94228 8.66549 10.1574 8.78969L11.0412 9.29999L10.1574 9.81029C9.94228 9.93449 9.86848 10.2099 9.99268 10.425C10.0761 10.5693 10.2273 10.65 10.383 10.65C10.4592 10.65 10.5366 10.6305 10.6074 10.5897L11.4912 10.0794V11.1C11.4912 11.3484 11.6928 11.55 11.9412 11.55C12.1899 11.55 12.3912 11.3484 12.3912 11.1V10.0794L13.275 10.5897C13.3461 10.6305 13.4232 10.65 13.4997 10.65C13.6551 10.65 13.8063 10.5693 13.8897 10.425C14.0142 10.2099 13.9401 9.93449 13.725 9.81029L12.8412 9.29999L13.725 8.78969C13.9401 8.66549 14.0142 8.39009 13.8897 8.17499Z" fill="#70C8F9"/>
<path fill-rule="evenodd" clip-rule="evenodd" d="M8.90746 13.575C8.78326 13.3599 8.50816 13.2861 8.29276 13.4103L7.40896 13.9206V12.9C7.40896 12.6516 7.20736 12.45 6.95896 12.45C6.71026 12.45 6.50896 12.6516 6.50896 12.9V13.9206L5.62516 13.4103C5.40976 13.2861 5.13466 13.3599 5.01046 13.575C4.88596 13.7901 4.95976 14.0655 5.17516 14.1897L6.05896 14.7L5.17516 15.2103C4.95976 15.3345 4.88596 15.6099 5.01046 15.825C5.09386 15.9693 5.24506 16.05 5.40046 16.05C5.47666 16.05 5.55406 16.0305 5.62516 15.9897L6.50896 15.4794V16.5C6.50896 16.7484 6.71026 16.95 6.95896 16.95C7.20736 16.95 7.40896 16.7484 7.40896 16.5V15.4794L8.29276 15.9897C8.36386 16.0305 8.44096 16.05 8.51746 16.05C8.67286 16.05 8.82406 15.9693 8.90746 15.825C9.03196 15.6099 8.95786 15.3345 8.74276 15.2103L7.85896 14.7L8.74276 14.1897C8.95786 14.0655 9.03196 13.7901 8.90746 13.575Z" fill="#70C8F9"/>
<path fill-rule="evenodd" clip-rule="evenodd" d="M18.8251 15.2103L17.9413 14.7L18.8251 14.1897C19.0402 14.0655 19.114 13.7901 18.9898 13.575C18.8656 13.3599 18.5905 13.2861 18.3751 13.4103L17.4913 13.9206V12.9C17.4913 12.6516 17.29 12.45 17.0413 12.45C16.7929 12.45 16.5913 12.6516 16.5913 12.9V13.9206L15.7075 13.4103C15.4921 13.2861 15.2173 13.3599 15.0928 13.575C14.9686 13.7901 15.0424 14.0655 15.2575 14.1897L16.1413 14.7L15.2575 15.2103C15.0424 15.3345 14.9686 15.6099 15.0928 15.825C15.1762 15.9693 15.3274 16.05 15.4828 16.05C15.5593 16.05 15.6367 16.0305 15.7075 15.9897L16.5913 15.4794V16.5C16.5913 16.7484 16.7929 16.95 17.0413 16.95C17.29 16.95 17.4913 16.7484 17.4913 16.5V15.4794L18.3751 15.9897C18.4459 16.0305 18.5233 16.05 18.5998 16.05C18.7552 16.05 18.9064 15.9693 18.9898 15.825C19.114 15.6099 19.0402 15.3345 18.8251 15.2103Z" fill="#70C8F9"/>
</svg>
