<svg width="24" height="24" viewBox="0 0 24 24" fill="none" xmlns="http://www.w3.org/2000/svg">
<path fill-rule="evenodd" clip-rule="evenodd" d="M20.4746 8.9143C20.4746 11.376 18.4792 13.3714 16.0175 13.3714C13.5558 13.3714 11.5604 11.376 11.5604 8.9143C11.5604 6.45258 13.5558 4.45715 16.0175 4.45715C18.4792 4.45715 20.4746 6.45258 20.4746 8.9143Z" fill="#FFBC09"/>
<path fill-rule="evenodd" clip-rule="evenodd" d="M18.1714 11.3143C20.4435 11.3143 22.2857 13.1564 22.2857 15.4285C22.2857 17.7007 20.4435 19.5428 18.1714 19.5428H8.57141L8.57117 16.7065C8.8472 16.7677 9.1341 16.8 9.42855 16.8C11.6061 16.8 13.3714 15.0347 13.3714 12.8571C13.3714 12.3095 13.2598 11.788 13.058 11.3141L18.1714 11.3143Z" fill="#F1F1F1"/>
<path fill-rule="evenodd" clip-rule="evenodd" d="M8.57144 5.82855C12.3583 5.82855 15.4286 8.8985 15.4286 12.6857C15.4286 16.4729 12.3583 19.5428 8.57144 19.5428C4.78424 19.5428 1.71429 16.4729 1.71429 12.6857C1.71429 8.8985 4.78424 5.82855 8.57144 5.82855ZM8.74287 9.59998C8.43203 9.59998 8.18007 9.85195 8.18007 10.1628L8.17989 12.2942L6.04852 12.2943L6.00237 12.2962C5.71314 12.3197 5.48572 12.5618 5.48572 12.8571C5.48572 13.168 5.73769 13.4199 6.04852 13.4199L8.17989 13.4198L8.18007 15.5515L8.18192 15.5976C8.2054 15.8868 8.44756 16.1143 8.74287 16.1143C9.0537 16.1143 9.30567 15.8623 9.30567 15.5515L9.30549 13.4198L11.4372 13.4199L11.4834 13.4181C11.7726 13.3946 12 13.1524 12 12.8571C12 12.5463 11.748 12.2943 11.4372 12.2943L9.30549 12.2942L9.30567 10.1628L9.30381 10.1166C9.28033 9.8274 9.03817 9.59998 8.74287 9.59998Z" fill="white"/>
</svg>
