<svg width="24" height="24" viewBox="0 0 24 24" fill="none" xmlns="http://www.w3.org/2000/svg">
<path fill-rule="evenodd" clip-rule="evenodd" d="M13.6734 16.6272C13.443 16.6272 13.2126 16.5393 13.0371 16.3635C12.6855 16.0122 12.6855 15.4422 13.0371 15.0909L16.6434 11.4846C16.9947 11.1333 17.5647 11.133 17.916 11.4846C18.2676 11.8362 18.2676 12.4059 17.916 12.7575L14.3097 16.3635C14.1342 16.5393 13.9038 16.6272 13.6734 16.6272Z" fill="#C1C1C1"/>
<path fill-rule="evenodd" clip-rule="evenodd" d="M19.5954 10.7052C19.365 10.7052 19.1349 10.6173 18.9591 10.4415C18.6075 10.0902 18.6075 9.52022 18.9591 9.16892L19.3833 8.74442C19.7346 8.39312 20.3046 8.39282 20.6559 8.74442C21.0075 9.09602 21.0075 9.66572 20.6562 10.0173L20.2317 10.4415C20.0562 10.6173 19.8258 10.7052 19.5954 10.7052Z" fill="#C1C1C1"/>
<path fill-rule="evenodd" clip-rule="evenodd" d="M12.0028 13.2066C11.7724 13.2066 11.542 13.1187 11.3665 12.9429C11.0149 12.5916 11.0149 12.0216 11.3665 11.6703L14.1241 8.9124C14.4757 8.5611 15.0454 8.5611 15.397 8.9124C15.7483 9.264 15.7483 9.8337 15.397 10.1853L12.6391 12.9429C12.4636 13.1187 12.2332 13.2066 12.0028 13.2066Z" fill="#C1C1C1"/>
<path fill-rule="evenodd" clip-rule="evenodd" d="M4.87864 15.2396C4.64824 15.2396 4.41784 15.1517 4.24234 14.9759C3.89074 14.6246 3.89074 14.0546 4.24234 13.7033L10.182 7.76364C10.5333 7.41204 11.1033 7.41204 11.4546 7.76364C11.8062 8.11494 11.8062 8.68494 11.4546 9.03624L5.51494 14.9759C5.33944 15.1517 5.10904 15.2396 4.87864 15.2396Z" fill="#C1C1C1"/>
<path fill-rule="evenodd" clip-rule="evenodd" d="M3.97501 11.0521C3.74461 11.0521 3.51421 10.9642 3.33871 10.7884C2.98711 10.4371 2.98711 9.86711 3.33871 9.51581L4.82341 8.03081C5.17501 7.67951 5.74501 7.67951 6.09631 8.03081C6.44791 8.38241 6.44791 8.95211 6.09631 9.30371L4.61131 10.7884C4.43581 10.9642 4.20541 11.0521 3.97501 11.0521Z" fill="#C1C1C1"/>
</svg>
