<svg width="24" height="24" viewBox="0 0 24 24" fill="none" xmlns="http://www.w3.org/2000/svg">
<path fill-rule="evenodd" clip-rule="evenodd" d="M14.2956 18.6003C14.232 18.6003 14.1672 18.5982 14.1021 18.594C13.1397 18.5328 12.2286 17.9019 11.781 16.9863C11.5992 16.6143 11.7534 16.1652 12.1254 15.9831C12.4974 15.8013 12.9465 15.9552 13.1286 16.3275C13.3731 16.8276 13.8417 17.0745 14.1975 17.097C15.0126 17.1492 15.6309 16.476 15.6957 15.8145C15.7278 15.4875 15.5811 15.1002 15.3126 14.8044C15.0831 14.5512 14.7933 14.4 14.5374 14.4H7.45017C7.03587 14.4 6.70017 14.0643 6.70017 13.65C6.70017 13.236 7.03587 12.9 7.45017 12.9H14.5374C15.2193 12.9 15.9069 13.227 16.4235 13.7967C16.9755 14.4051 17.2617 15.2142 17.1888 15.9609C17.0604 17.2629 15.9276 18.6003 14.2956 18.6003Z" fill="#C1C1C1"/>
<path fill-rule="evenodd" clip-rule="evenodd" d="M17.8874 11.1001H4.19988C3.78588 11.1001 3.44988 10.7644 3.44988 10.3501C3.44988 9.93577 3.78588 9.60007 4.19988 9.60007H17.8874C18.1433 9.60007 18.4328 9.44887 18.6626 9.19567C18.9311 8.89987 19.0778 8.51257 19.0457 8.18527C18.9806 7.52407 18.3656 6.85087 17.5475 6.90307C17.1917 6.92557 16.7234 7.17247 16.4786 7.67287C16.2965 8.04487 15.8474 8.19907 15.4751 8.01697C15.1031 7.83487 14.9492 7.38577 15.131 7.01377C15.5789 6.09847 16.49 5.46727 17.4521 5.40607C19.1882 5.29627 20.4059 6.68647 20.5385 8.03887C20.6117 8.78557 20.3258 9.59467 19.7738 10.2034C19.2569 10.7731 18.5693 11.1001 17.8874 11.1001Z" fill="#C1C1C1"/>
<path fill-rule="evenodd" clip-rule="evenodd" d="M10.746 7.80005H7.14597C6.73167 7.80005 6.39597 7.46435 6.39597 7.05005C6.39597 6.63575 6.73167 6.30005 7.14597 6.30005H10.746C11.1603 6.30005 11.496 6.63575 11.496 7.05005C11.496 7.46435 11.1603 7.80005 10.746 7.80005Z" fill="#C1C1C1"/>
</svg>
