<svg width="24" height="24" viewBox="0 0 24 24" fill="none" xmlns="http://www.w3.org/2000/svg">
<path fill-rule="evenodd" clip-rule="evenodd" d="M17.3185 19.0677H7.11853C6.70423 19.0677 6.36853 18.732 6.36853 18.3177C6.36853 17.9034 6.70423 17.5677 7.11853 17.5677H17.3185C17.7328 17.5677 18.0685 17.9034 18.0685 18.3177C18.0685 18.732 17.7328 19.0677 17.3185 19.0677Z" fill="#C1C1C1"/>
<path fill-rule="evenodd" clip-rule="evenodd" d="M18.8285 15.9478H5.62854C5.21424 15.9478 4.87854 15.6121 4.87854 15.1978C4.87854 14.7835 5.21424 14.4478 5.62854 14.4478H18.8285C19.2428 14.4478 19.5785 14.7835 19.5785 15.1978C19.5785 15.6121 19.2428 15.9478 18.8285 15.9478Z" fill="#D1D1D1"/>
<path fill-rule="evenodd" clip-rule="evenodd" d="M19.7415 12.7332C19.7787 12.5388 19.7997 12.3384 19.8 12.1332C19.8006 10.3656 18.3684 8.93246 16.6011 8.93186L14.4561 8.93096C13.9146 6.63836 11.8602 4.92986 9.40195 4.92896C6.53005 4.92776 4.20085 7.25516 4.19995 10.1271C4.19935 11.0757 4.45705 11.9676 4.90045 12.7332H19.7415Z" fill="#E0E0E0"/>
</svg>
