<svg width="24" height="24" viewBox="0 0 24 24" fill="none" xmlns="http://www.w3.org/2000/svg">
<path d="M9.90606 16.9539L10.0166 16.9602C10.4878 17.015 10.854 17.4158 10.854 17.9007V18.802C10.854 19.3253 10.4293 19.7499 9.90606 19.7499L9.79556 19.7434C9.32426 19.6882 8.95816 19.2884 8.95816 18.802V17.9018C8.95816 17.3785 9.38276 16.9539 9.90606 16.9539ZM13.3952 16.0694C13.8469 15.8083 14.4276 15.9622 14.6897 16.415L15.1404 17.195C15.4026 17.6489 15.2477 18.2285 14.7948 18.4907C14.6453 18.5763 14.4817 18.6185 14.3203 18.6185C13.9932 18.6185 13.6747 18.4473 13.4992 18.1451L13.0485 17.364C12.7863 16.9112 12.9423 16.3316 13.3952 16.0694ZM5.14666 16.3223C5.40766 15.8684 5.98836 15.7124 6.44116 15.9745C6.89516 16.2367 7.05116 16.8163 6.78896 17.2691L6.33826 18.0502C6.16276 18.3535 5.84426 18.5236 5.51716 18.5236C5.35566 18.5236 5.19316 18.4824 5.04366 18.3969C4.59086 18.1358 4.43486 17.5562 4.69706 17.1023L5.14666 16.3223ZM15.9748 13.5592C16.237 13.1053 16.8165 12.9504 17.2694 13.2115L18.0505 13.6611C18.5033 13.9232 18.6593 14.5028 18.3982 14.9567C18.2216 15.2612 17.9031 15.4302 17.576 15.4302C17.4145 15.4302 17.252 15.3901 17.1025 15.3034L16.3225 14.8538C15.8686 14.5927 15.7137 14.0132 15.9748 13.5592ZM10.0008 4.58332C12.9918 4.58332 15.4174 7.00892 15.4174 9.99992C15.4174 12.9921 12.9918 15.4166 10.0008 15.4166C7.00966 15.4166 4.58406 12.9921 4.58406 9.99992C4.58406 7.00892 7.00966 4.58332 10.0008 4.58332ZM2.63666 13.0477C3.08946 12.7866 3.66906 12.9415 3.93126 13.3944C4.19336 13.8472 4.03736 14.4289 3.58456 14.69L2.80456 15.1407C2.65506 15.2263 2.49146 15.2674 2.33116 15.2674C2.00396 15.2674 1.68546 15.0974 1.50996 14.794C1.24786 14.3401 1.40386 13.7594 1.85666 13.4984L2.63666 13.0477ZM18.8023 9.14622C19.3256 9.14622 19.7502 9.57082 19.7502 10.0941C19.7502 10.6173 19.3256 11.042 18.8023 11.042L17.9021 11.0431L17.7915 11.0366C17.3192 10.9813 16.9541 10.5805 16.9541 10.0952C16.9541 9.57192 17.3777 9.14732 17.9021 9.14732L18.8023 9.14622ZM2.09896 8.95792C2.62226 8.95792 3.04686 9.38262 3.04686 9.90582C3.04686 10.4291 2.62226 10.8537 2.09896 10.8537H1.19766C0.675456 10.8537 0.249756 10.4291 0.249756 9.90582C0.249756 9.38262 0.675456 8.95792 1.19766 8.95792H2.09896ZM17.1958 4.86052C17.6487 4.59832 18.2293 4.75332 18.4904 5.20612C18.7526 5.65892 18.5977 6.23852 18.1448 6.50182L17.3648 6.95242C17.2153 7.03912 17.0528 7.08032 16.8914 7.08032C16.5642 7.08032 16.2457 6.91022 16.0702 6.60582C15.8081 6.15292 15.963 5.57232 16.4158 5.31122L17.1958 4.86052ZM1.60386 5.04332C1.86496 4.59042 2.44566 4.43552 2.89846 4.69662L3.67846 5.14622C4.13236 5.40832 4.28736 5.98792 4.02626 6.44082C3.85076 6.74632 3.53226 6.91632 3.20396 6.91632C3.04366 6.91632 2.88006 6.87522 2.73056 6.78852L1.95056 6.33892C1.49776 6.07682 1.34176 5.49722 1.60386 5.04332ZM13.6626 1.95032C13.9248 1.49752 14.5044 1.34262 14.9572 1.60372C15.4111 1.86582 15.5671 2.44652 15.3039 2.89932L14.8532 3.67932C14.6777 3.98272 14.3592 4.15282 14.0321 4.15282C13.8706 4.15282 13.7081 4.11162 13.5586 4.02492C13.1058 3.76382 12.9498 3.18322 13.212 2.73032L13.6626 1.95032ZM5.20716 1.50852C5.66006 1.24742 6.24066 1.40342 6.50176 1.85622L6.95246 2.63622C7.21456 3.08902 7.05856 3.66972 6.60576 3.93082C6.45626 4.01752 6.29266 4.05752 6.13236 4.05752C5.80516 4.05752 5.48556 3.88852 5.31006 3.58412L4.86056 2.80412C4.59836 2.35132 4.75436 1.77172 5.20716 1.50852ZM10.0949 0.250122C10.6181 0.250122 11.0428 0.674722 11.0428 1.19802V2.09822C11.0428 2.62152 10.6181 3.04612 10.0949 3.04612C9.57156 3.04612 9.14696 2.62152 9.14696 2.09822V1.19802C9.14696 0.674722 9.57156 0.250122 10.0949 0.250122Z" fill="#FFC72A"/>
</svg>
