<svg width="24" height="24" viewBox="0 0 24 24" fill="none" xmlns="http://www.w3.org/2000/svg">
<path fill-rule="evenodd" clip-rule="evenodd" d="M16.8 16.6041C16.3857 16.6041 16.05 16.2684 16.05 15.8541C16.05 15.4398 16.3857 15.1041 16.8 15.1041C17.2134 15.1041 17.55 14.7675 17.55 14.3541C17.55 13.9407 17.2134 13.6041 16.8 13.6041H5.70001C5.28571 13.6041 4.95001 13.2684 4.95001 12.8541C4.95001 12.4398 5.28571 12.1041 5.70001 12.1041H16.8C18.0405 12.1041 19.05 13.1136 19.05 14.3541C19.05 15.5946 18.0405 16.6041 16.8 16.6041Z" fill="#C1C1C1"/>
<path fill-rule="evenodd" clip-rule="evenodd" d="M16.8 10.6712H5.70001C5.28571 10.6712 4.95001 10.3355 4.95001 9.9212C4.95001 9.5069 5.28571 9.1712 5.70001 9.1712H16.8C17.2134 9.1712 17.55 8.8346 17.55 8.4212C17.55 8.0078 17.2134 7.6712 16.8 7.6712C16.3857 7.6712 16.05 7.3355 16.05 6.9212C16.05 6.5069 16.3857 6.1712 16.8 6.1712C18.0405 6.1712 19.05 7.1807 19.05 8.4212C19.05 9.6617 18.0405 10.6712 16.8 10.6712Z" fill="#C1C1C1"/>
<path fill-rule="evenodd" clip-rule="evenodd" d="M13.1192 6.34183C13.1192 6.83893 12.7163 7.24183 12.2192 7.24183C11.7221 7.24183 11.3192 6.83893 11.3192 6.34183C11.3192 5.84473 11.7221 5.44183 12.2192 5.44183C12.7163 5.44183 13.1192 5.84473 13.1192 6.34183Z" fill="#C1C1C1"/>
<path fill-rule="evenodd" clip-rule="evenodd" d="M9.96458 15.8541C9.96458 16.3512 9.56168 16.7541 9.06458 16.7541C8.56748 16.7541 8.16458 16.3512 8.16458 15.8541C8.16458 15.357 8.56748 14.9541 9.06458 14.9541C9.56168 14.9541 9.96458 15.357 9.96458 15.8541Z" fill="#C1C1C1"/>
<path fill-rule="evenodd" clip-rule="evenodd" d="M13.5646 17.6541C13.5646 18.1512 13.1617 18.5541 12.6646 18.5541C12.1675 18.5541 11.7646 18.1512 11.7646 17.6541C11.7646 17.157 12.1675 16.7541 12.6646 16.7541C13.1617 16.7541 13.5646 17.157 13.5646 17.6541Z" fill="#C1C1C1"/>
</svg>
