<svg width="24" height="24" viewBox="0 0 24 24" fill="none" xmlns="http://www.w3.org/2000/svg">
<path fill-rule="evenodd" clip-rule="evenodd" d="M8.61989 5.48572C11.2194 5.48572 13.4659 6.99508 14.5287 9.18408L17.0141 9.18419C19.6124 9.18419 21.7188 11.2905 21.7188 13.8888C21.7188 16.4871 19.6124 18.5935 17.0141 18.5935H9.72355C9.55236 18.5935 9.38334 18.5843 9.21688 18.5665C9.02018 18.5844 8.82108 18.5935 8.61989 18.5935C4.99538 18.5935 2.05713 15.6592 2.05713 12.0396C2.05713 8.41999 4.99538 5.48572 8.61989 5.48572Z" fill="#F7FAFF"/>
<path fill-rule="evenodd" clip-rule="evenodd" d="M7.35071 13.7133C7.35071 13.5809 7.37679 13.4498 7.42746 13.3275C7.47813 13.2051 7.5524 13.094 7.64603 13.0003C7.73966 12.9067 7.85081 12.8324 7.97314 12.7818C8.09547 12.7311 8.22659 12.705 8.359 12.705C8.49141 12.705 8.62252 12.7311 8.74486 12.7818C8.86719 12.8324 8.97834 12.9067 9.07197 13.0003C9.1656 13.094 9.23987 13.2051 9.29054 13.3275C9.34121 13.4498 9.36729 13.5809 9.36729 13.7133C9.36729 13.9807 9.26106 14.2372 9.07197 14.4263C8.88288 14.6154 8.62641 14.7216 8.359 14.7216C8.09158 14.7216 7.83512 14.6154 7.64603 14.4263C7.45694 14.2372 7.35071 13.9807 7.35071 13.7133Z" fill="#0099FF"/>
<path fill-rule="evenodd" clip-rule="evenodd" d="M11.0057 13.7133C11.0057 13.4459 11.112 13.1894 11.3011 13.0003C11.4902 12.8112 11.7466 12.705 12.014 12.705C12.2814 12.705 12.5379 12.8112 12.727 13.0003C12.9161 13.1894 13.0223 13.4459 13.0223 13.7133C13.0223 13.9807 12.9161 14.2372 12.727 14.4263C12.5379 14.6154 12.2814 14.7216 12.014 14.7216C11.7466 14.7216 11.4902 14.6154 11.3011 14.4263C11.112 14.2372 11.0057 13.9807 11.0057 13.7133Z" fill="#6BC7FF"/>
<path fill-rule="evenodd" clip-rule="evenodd" d="M14.6608 13.7133C14.6608 13.4459 14.767 13.1894 14.9561 13.0003C15.1452 12.8112 15.4016 12.705 15.6691 12.705C15.9365 12.705 16.1929 12.8112 16.382 13.0003C16.5711 13.1894 16.6773 13.4459 16.6773 13.7133C16.6773 13.9807 16.5711 14.2372 16.382 14.4263C16.1929 14.6154 15.9365 14.7216 15.6691 14.7216C15.4016 14.7216 15.1452 14.6154 14.9561 14.4263C14.767 14.2372 14.6608 13.9807 14.6608 13.7133Z" fill="#0099FF"/>
</svg>
