<svg width="24" height="24" viewBox="0 0 24 24" fill="none" xmlns="http://www.w3.org/2000/svg">
<path fill-rule="evenodd" clip-rule="evenodd" d="M19.4154 9.30002C19.4154 11.454 17.6694 13.2 15.5154 13.2C13.3614 13.2 11.6154 11.454 11.6154 9.30002C11.6154 7.14602 13.3614 5.40002 15.5154 5.40002C17.6694 5.40002 19.4154 7.14602 19.4154 9.30002Z" fill="#FFBC09"/>
<path fill-rule="evenodd" clip-rule="evenodd" d="M17.4 11.4H9V18.6H17.4C19.3881 18.6 21 16.9881 21 15C21 13.0119 19.3881 11.4 17.4 11.4Z" fill="#C2DDF9"/>
<path fill-rule="evenodd" clip-rule="evenodd" d="M15 12.6C15 15.9138 12.3135 18.6 9 18.6C5.6862 18.6 3 15.9138 3 12.6C3 9.28618 5.6862 6.59998 9 6.59998C12.3135 6.59998 15 9.28618 15 12.6Z" fill="#CCE4FF"/>
</svg>
