<svg width="24" height="24" viewBox="0 0 24 24" fill="none" xmlns="http://www.w3.org/2000/svg">
<path fill-rule="evenodd" clip-rule="evenodd" d="M11.2282 19.575C11.0581 19.575 10.8871 19.5174 10.7467 19.3995C10.4293 19.1334 10.3879 18.6603 10.654 18.3429L12.1969 16.5045C12.4627 16.1871 12.9361 16.1457 13.2532 16.4121C13.5706 16.6782 13.612 17.1513 13.3459 17.4687L11.8033 19.3071C11.6548 19.4838 11.4421 19.575 11.2282 19.575Z" fill="#C1C1C1"/>
<path fill-rule="evenodd" clip-rule="evenodd" d="M15.7282 19.575C15.5581 19.575 15.3871 19.5174 15.2467 19.3995C14.9293 19.1334 14.8879 18.6603 15.154 18.3429L16.6969 16.5045C16.9627 16.1871 17.4361 16.1457 17.7532 16.4121C18.0706 16.6782 18.112 17.1513 17.8459 17.4687L16.3033 19.3071C16.1548 19.4838 15.9421 19.575 15.7282 19.575Z" fill="#C1C1C1"/>
<path fill-rule="evenodd" clip-rule="evenodd" d="M17.9322 7.54499C17.9322 9.26819 16.5354 10.665 14.8122 10.665C13.089 10.665 11.6922 9.26819 11.6922 7.54499C11.6922 5.82179 13.089 4.42499 14.8122 4.42499C16.5354 4.42499 17.9322 5.82179 17.9322 7.54499Z" fill="#FFBC09"/>
<path fill-rule="evenodd" clip-rule="evenodd" d="M16.32 9.22562H14.3034C13.8588 7.03472 11.922 5.38562 9.59999 5.38562C6.94889 5.38562 4.79999 7.53452 4.79999 10.1856C4.79999 12.8367 6.94889 14.9856 9.59999 14.9856H16.32C17.9106 14.9856 19.2 13.6962 19.2 12.1056C19.2 10.515 17.9106 9.22562 16.32 9.22562Z" fill="#E0E0E0"/>
<path fill-rule="evenodd" clip-rule="evenodd" d="M11.42 13.5608L6.52876 19.424C6.36496 19.6202 6.05416 19.4288 6.15586 19.1942L7.86016 15.2627C7.92346 15.1166 7.81636 14.9534 7.65706 14.9534H5.71666C5.55736 14.9534 5.45026 14.7899 5.51386 14.6438L7.60696 9.81985C7.64206 9.73915 7.72186 9.68665 7.81006 9.68665H9.94216C10.1015 9.68665 10.2086 9.84985 10.1453 9.99595L8.89006 12.8885C8.82676 13.0346 8.93386 13.1978 9.09316 13.1978H11.2502C11.4377 13.1978 11.5403 13.4168 11.42 13.5608Z" fill="#FFBC09"/>
</svg>
