<svg width="24" height="24" viewBox="0 0 24 24" fill="none" xmlns="http://www.w3.org/2000/svg">
<path fill-rule="evenodd" clip-rule="evenodd" d="M5.07603 16.6795C4.84563 16.6795 4.61553 16.5916 4.43973 16.4158C4.08813 16.0645 4.08813 15.4945 4.43973 15.1432L4.86393 14.7187C5.21523 14.3674 5.78523 14.3671 6.13653 14.7187C6.48813 15.0703 6.48813 15.64 6.13683 15.9916L5.71233 16.4158C5.53683 16.5916 5.30643 16.6795 5.07603 16.6795Z" fill="#C1C1C1"/>
<path fill-rule="evenodd" clip-rule="evenodd" d="M7.25522 14.5002C7.02482 14.5002 6.79442 14.4123 6.61892 14.2365C6.26732 13.8852 6.26732 13.3152 6.61892 12.9639L9.80072 9.78185C10.1523 9.43055 10.7223 9.43055 11.0736 9.78185C11.4252 10.1334 11.4252 10.7031 11.0736 11.0547L7.89152 14.2365C7.71602 14.4123 7.48562 14.5002 7.25522 14.5002Z" fill="#C1C1C1"/>
<path fill-rule="evenodd" clip-rule="evenodd" d="M13.5613 18.3765C13.3309 18.3765 13.1008 18.2886 12.925 18.1128C12.5734 17.7615 12.5734 17.1915 12.925 16.8402L13.3492 16.4157C13.7005 16.0644 14.2705 16.0641 14.6218 16.4157C14.9734 16.7673 14.9734 17.337 14.6221 17.6886L14.1976 18.1128C14.0221 18.2886 13.7917 18.3765 13.5613 18.3765Z" fill="#C1C1C1"/>
<path fill-rule="evenodd" clip-rule="evenodd" d="M15.7405 16.1973C15.5101 16.1973 15.2797 16.1094 15.1042 15.9336C14.7526 15.5823 14.7526 15.0123 15.1042 14.661L18.286 11.4789C18.6376 11.1276 19.2073 11.1276 19.5589 11.4789C19.9105 11.8305 19.9105 12.4002 19.5589 12.7518L16.3768 15.9336C16.2013 16.1094 15.9709 16.1973 15.7405 16.1973Z" fill="#C1C1C1"/>
<path fill-rule="evenodd" clip-rule="evenodd" d="M6.19456 10.4697C5.96416 10.4697 5.73376 10.3818 5.55826 10.206C5.20666 9.85473 5.20666 9.28473 5.55826 8.93343L8.52796 5.96343C8.87956 5.61213 9.44926 5.61213 9.80086 5.96343C10.1522 6.31503 10.1522 6.88473 9.80086 7.23633L6.83086 10.206C6.65536 10.3818 6.42496 10.4697 6.19456 10.4697Z" fill="#C1C1C1"/>
<path fill-rule="evenodd" clip-rule="evenodd" d="M14.5914 12.2552C14.361 12.2552 14.1309 12.1673 13.9551 11.9915C13.6035 11.6402 13.6035 11.0702 13.9551 10.7189L14.3793 10.2944C14.7306 9.94311 15.3006 9.94281 15.6519 10.2944C16.0035 10.646 16.0035 11.2157 15.6522 11.5673L15.2277 11.9915C15.0522 12.1673 14.8218 12.2552 14.5914 12.2552Z" fill="#C1C1C1"/>
<path fill-rule="evenodd" clip-rule="evenodd" d="M9.01816 17.8285C8.78776 17.8285 8.55736 17.7406 8.38186 17.5648C8.03026 17.2135 8.03026 16.6435 8.38186 16.2922L12.2003 12.4738C12.5516 12.1222 13.1216 12.1222 13.4729 12.4738C13.8245 12.8251 13.8245 13.3951 13.4729 13.7464L9.65446 17.5648C9.47896 17.7406 9.24856 17.8285 9.01816 17.8285Z" fill="#C1C1C1"/>
</svg>
