<svg width="24" height="24" viewBox="0 0 24 24" fill="none" xmlns="http://www.w3.org/2000/svg">
<path fill-rule="evenodd" clip-rule="evenodd" d="M11.2563 13.6971C11.1321 13.482 10.8567 13.4082 10.6416 13.5324L9.75778 14.0427V13.0221C9.75778 12.7737 9.55618 12.5721 9.30778 12.5721C9.05908 12.5721 8.85778 12.7737 8.85778 13.0221V14.0427L7.97398 13.5324C7.75858 13.4082 7.48348 13.482 7.35928 13.6971C7.23478 13.9125 7.30858 14.1876 7.52398 14.3118L8.40778 14.8221L7.52398 15.3324C7.30858 15.4566 7.23478 15.7317 7.35928 15.9471C7.44238 16.0914 7.59388 16.1721 7.74928 16.1721C7.82548 16.1721 7.90318 16.1526 7.97398 16.1118L8.85778 15.6015V16.6221C8.85778 16.8705 9.05908 17.0721 9.30778 17.0721C9.55618 17.0721 9.75778 16.8705 9.75778 16.6221V15.6015L10.6416 16.1118C10.7124 16.1529 10.7898 16.1721 10.866 16.1721C11.0217 16.1721 11.1729 16.0914 11.2563 15.9471C11.3805 15.7317 11.3067 15.4566 11.0916 15.3324L10.2078 14.8221L11.0916 14.3118C11.3067 14.1876 11.3805 13.9125 11.2563 13.6971Z" fill="#70C8F9"/>
<path fill-rule="evenodd" clip-rule="evenodd" d="M20.7601 10.1102L19.8763 9.59985L20.7601 9.08955C20.9755 8.96538 21.049 8.69028 20.9248 8.47485C20.8006 8.25978 20.5255 8.18598 20.3101 8.31018L19.4263 8.82048V7.79985C19.4263 7.55148 19.2247 7.34985 18.9763 7.34985C18.7276 7.34985 18.5263 7.55148 18.5263 7.79985V8.82048L17.6425 8.31018C17.4271 8.18598 17.152 8.25978 17.0278 8.47485C16.9036 8.69028 16.9771 8.96538 17.1925 9.08955L18.0763 9.59985L17.1925 10.1102C16.9771 10.2344 16.9036 10.5098 17.0278 10.7249C17.1109 10.8692 17.2624 10.9499 17.4178 10.9499C17.4943 10.9499 17.5717 10.9304 17.6425 10.8896L18.5263 10.3793V11.3999C18.5263 11.6483 18.7276 11.8499 18.9763 11.8499C19.2247 11.8499 19.4263 11.6483 19.4263 11.3999V10.3793L20.3101 10.8896C20.3809 10.9307 20.4583 10.9499 20.5348 10.9499C20.6902 10.9499 20.8414 10.8692 20.9248 10.7249C21.049 10.5098 20.9755 10.2344 20.7601 10.1102Z" fill="#70C8F9"/>
<path fill-rule="evenodd" clip-rule="evenodd" d="M6.03631 8.70355C6.38791 8.35192 6.38791 7.78222 6.03631 7.43065C5.68501 7.07935 5.11501 7.07935 4.76341 7.43065L3.27871 8.91562C2.92711 9.26725 2.92711 9.83692 3.27871 10.1885C3.45421 10.3641 3.68461 10.452 3.91501 10.452C4.14541 10.452 4.37581 10.3641 4.55131 10.1885L6.03631 8.70355Z" fill="#C1C1C1"/>
<path fill-rule="evenodd" clip-rule="evenodd" d="M11.3947 7.1635C11.0431 6.8122 10.4734 6.8122 10.1218 7.1635L4.18208 13.1032C3.83078 13.4548 3.83078 14.0245 4.18208 14.3761C4.35788 14.5516 4.58828 14.6395 4.81868 14.6395C5.04908 14.6395 5.27918 14.5516 5.45498 14.3761L11.3947 8.4364C11.7463 8.08477 11.7463 7.5151 11.3947 7.1635Z" fill="#C1C1C1"/>
<path fill-rule="evenodd" clip-rule="evenodd" d="M13.0034 11.9188L15.3368 9.58541C15.6884 9.23381 15.6884 8.66411 15.3368 8.31251C14.9852 7.96118 14.4155 7.96118 14.0639 8.31251L11.7305 10.6459C11.3792 10.9975 11.3792 11.5672 11.7305 11.9188C11.9063 12.0946 12.1367 12.1825 12.3671 12.1825C12.5972 12.1825 12.8276 12.0946 13.0034 11.9188Z" fill="#C1C1C1"/>
<path fill-rule="evenodd" clip-rule="evenodd" d="M15.3104 12.1574L12.5528 14.915C12.2012 15.2665 12.2012 15.8363 12.5528 16.1878C12.7283 16.3636 12.9587 16.4516 13.1891 16.4516C13.4195 16.4516 13.6499 16.3636 13.8254 16.1878L16.5833 13.4302C16.9346 13.0787 16.9346 12.5089 16.5833 12.1574C16.2317 11.806 15.6617 11.806 15.3104 12.1574Z" fill="#C1C1C1"/>
</svg>
