<svg width="24" height="24" viewBox="0 0 24 24" fill="none" xmlns="http://www.w3.org/2000/svg">
<path fill-rule="evenodd" clip-rule="evenodd" d="M6.72818 19.575C6.55808 19.575 6.38708 19.5174 6.24668 19.3995C5.92928 19.1334 5.88788 18.6603 6.15398 18.3429L7.69688 16.5045C7.96268 16.1871 8.43608 16.1457 8.75318 16.4121C9.07058 16.6782 9.11198 17.1513 8.84588 17.4687L7.30328 19.3071C7.15478 19.4838 6.94208 19.575 6.72818 19.575Z" fill="#C1C1C1"/>
<path fill-rule="evenodd" clip-rule="evenodd" d="M11.2282 19.575C11.0581 19.575 10.8871 19.5174 10.7467 19.3995C10.4293 19.1334 10.3879 18.6603 10.654 18.3429L12.1969 16.5045C12.4627 16.1871 12.9361 16.1457 13.2532 16.4121C13.5706 16.6782 13.612 17.1513 13.3459 17.4687L11.8033 19.3071C11.6548 19.4838 11.4421 19.575 11.2282 19.575Z" fill="#C1C1C1"/>
<path fill-rule="evenodd" clip-rule="evenodd" d="M15.7282 19.575C15.5581 19.575 15.3871 19.5174 15.2467 19.3995C14.9293 19.1334 14.8879 18.6603 15.154 18.3429L16.6969 16.5045C16.963 16.1871 17.4361 16.1457 17.7532 16.4121C18.0706 16.6782 18.112 17.1513 17.8459 17.4687L16.3033 19.3071C16.1548 19.4838 15.9421 19.575 15.7282 19.575Z" fill="#C1C1C1"/>
<path fill-rule="evenodd" clip-rule="evenodd" d="M17.9322 7.54499C17.9322 9.26819 16.5354 10.665 14.8122 10.665C13.089 10.665 11.6922 9.26819 11.6922 7.54499C11.6922 5.82179 13.089 4.42499 14.8122 4.42499C16.5354 4.42499 17.9322 5.82179 17.9322 7.54499Z" fill="#FFBC09"/>
<path fill-rule="evenodd" clip-rule="evenodd" d="M16.32 9.2255H14.3034C13.8588 7.0346 11.922 5.3855 9.59999 5.3855C6.94889 5.3855 4.79999 7.5347 4.79999 10.1855C4.79999 12.8366 6.94889 14.9855 9.59999 14.9855H16.32C17.9106 14.9855 19.2 13.6961 19.2 12.1055C19.2 10.5149 17.9106 9.2255 16.32 9.2255Z" fill="#E0E0E0"/>
</svg>
