<svg width="24" height="24" viewBox="0 0 24 24" fill="none" xmlns="http://www.w3.org/2000/svg">
<path fill-rule="evenodd" clip-rule="evenodd" d="M13.4706 12.0294C11.4879 10.0467 10.9617 7.1286 11.8461 4.5C8.4948 5.2932 6 8.3028 6 11.8968C6 16.0959 9.4041 19.5 13.6032 19.5C17.1972 19.5 20.2068 17.0055 21 13.6539C18.3714 14.5383 15.4533 14.0121 13.4706 12.0294Z" fill="#FFC72A"/>
<path fill-rule="evenodd" clip-rule="evenodd" d="M10.35 16.2H8.3307C8.0577 14.9979 6.9846 14.1 5.7 14.1C4.2087 14.1 3 15.309 3 16.8C3 18.291 4.2087 19.5 5.7 19.5H10.35C11.2614 19.5 12 18.7614 12 17.85C12 16.9386 11.2614 16.2 10.35 16.2Z" fill="#CCE4FF"/>
</svg>
