<svg width="24" height="24" viewBox="0 0 24 24" fill="none" xmlns="http://www.w3.org/2000/svg">
<mask id="mask0_702_2781" style="mask-type:luminance" maskUnits="userSpaceOnUse" x="5" y="4" width="14" height="16">
<path d="M5.01453 4.04999H18.9855V19.95H5.01453V4.04999Z" fill="white"/>
</mask>
<g mask="url(#mask0_702_2781)">
<path fill-rule="evenodd" clip-rule="evenodd" d="M18.6104 14.9505L17.8697 14.5227L18.5306 14.0865C18.8762 13.8582 18.9716 13.3929 18.7433 13.0473C18.515 12.7017 18.0497 12.6066 17.7041 12.8349L16.4174 13.6845L13.4999 12L16.4174 10.3158L17.7041 11.1651C17.8313 11.2491 17.9747 11.2893 18.1166 11.2893C18.3602 11.2893 18.599 11.1711 18.7433 10.9527C18.9716 10.6068 18.8762 10.1418 18.5306 9.91349L17.8697 9.47729L18.6104 9.04949C18.9692 8.84249 19.0919 8.38379 18.8849 8.02499C18.6779 7.66619 18.2192 7.54349 17.8604 7.75049L17.1197 8.17829L17.0723 7.38749C17.0474 6.97409 16.6913 6.66029 16.2788 6.68369C15.8651 6.70859 15.5501 7.06379 15.575 7.47749L15.6674 9.01649L12.7499 10.701V7.33229L14.129 6.64259C14.4995 6.45749 14.6498 6.00689 14.4647 5.63639C14.2793 5.26589 13.829 5.11589 13.4582 5.30099L12.7499 5.65529V4.79999C12.7499 4.38569 12.4142 4.04999 11.9999 4.04999C11.5859 4.04999 11.2499 4.38569 11.2499 4.79999V5.65529L10.5416 5.30099C10.1711 5.11589 9.72054 5.26589 9.53544 5.63639C9.35034 6.00689 9.50034 6.45749 9.87084 6.64259L11.2499 7.33229V10.701L8.33274 9.01649L8.42514 7.47749C8.44974 7.06379 8.13474 6.70859 7.72134 6.68369C7.30794 6.66059 6.95244 6.97409 6.92784 7.38749L6.88044 8.17829L6.13974 7.75049C5.78094 7.54349 5.32224 7.66619 5.11524 8.02499C4.90794 8.38379 5.03094 8.84249 5.38974 9.04949L6.13044 9.47729L5.46954 9.91349C5.12364 10.1418 5.02854 10.6068 5.25684 10.9527C5.40114 11.1711 5.63994 11.2893 5.88324 11.2893C6.02514 11.2893 6.16854 11.2491 6.29604 11.1651L7.58274 10.3158L10.4999 12L7.58274 13.6845L6.29604 12.8349C5.95014 12.6066 5.48514 12.7017 5.25684 13.0473C5.02854 13.3929 5.12364 13.8582 5.46954 14.0865L6.13044 14.5227L5.38974 14.9505C5.03094 15.1575 4.90794 15.6162 5.11524 15.975C5.25414 16.2156 5.50614 16.3503 5.76534 16.3503C5.89254 16.3503 6.02154 16.3176 6.13974 16.2495L6.88044 15.822L6.92784 16.6125C6.95154 17.0106 7.28214 17.3175 7.67574 17.3175C7.69074 17.3175 7.70604 17.3169 7.72134 17.316C8.13474 17.2914 8.44974 16.9359 8.42514 16.5225L8.33274 14.9835L11.2499 13.299V16.6677L9.87084 17.3574C9.50034 17.5425 9.35034 17.9931 9.53544 18.3636C9.66684 18.6264 9.93174 18.7782 10.2068 18.7782C10.3196 18.7782 10.4339 18.7527 10.5416 18.699L11.2499 18.3447V19.2C11.2499 19.6143 11.5859 19.95 11.9999 19.95C12.4142 19.95 12.7499 19.6143 12.7499 19.2V18.3447L13.4582 18.699C13.5659 18.7527 13.6805 18.7782 13.7933 18.7782C14.0681 18.7782 14.3333 18.6264 14.4647 18.3636C14.6498 17.9931 14.4995 17.5425 14.129 17.3574L12.7499 16.6677V13.299L15.6674 14.9835L15.575 16.5225C15.5501 16.9359 15.8651 17.2914 16.2788 17.316C16.2941 17.3169 16.3091 17.3175 16.3244 17.3175C16.718 17.3175 17.0483 17.0106 17.0723 16.6125L17.1197 15.822L17.8604 16.2495C17.9786 16.3176 18.1073 16.3503 18.2348 16.3503C18.494 16.3503 18.746 16.2156 18.8849 15.975C19.0919 15.6162 18.9692 15.1575 18.6104 14.9505Z" fill="#99E0FF"/>
</g>
</svg>
