<svg width="24" height="24" viewBox="0 0 24 24" fill="none" xmlns="http://www.w3.org/2000/svg">
<path fill-rule="evenodd" clip-rule="evenodd" d="M13.8612 16.0787C13.6308 16.0787 13.4004 15.9908 13.2246 15.815C12.8733 15.4637 12.8733 14.8937 13.2249 14.5424L16.407 11.3603C16.7583 11.0087 17.3283 11.009 17.6799 11.3603C18.0312 11.7119 18.0312 12.2816 17.6796 12.6332L14.4975 15.815C14.322 15.9908 14.0916 16.0787 13.8612 16.0787Z" fill="#C1C1C1"/>
<path fill-rule="evenodd" clip-rule="evenodd" d="M19.3591 10.581C19.1287 10.581 18.8986 10.4931 18.7228 10.3176C18.3712 9.96601 18.3712 9.39631 18.7225 9.04468L19.1467 8.62051C19.4983 8.26888 20.068 8.26888 20.4196 8.62021C20.7712 8.97178 20.7712 9.54148 20.4199 9.89311L19.9957 10.3173C19.8199 10.4931 19.5895 10.581 19.3591 10.581Z" fill="#C1C1C1"/>
<path fill-rule="evenodd" clip-rule="evenodd" d="M12.1907 12.6583C11.9603 12.6583 11.7299 12.5703 11.5544 12.3946C11.2028 12.0432 11.2028 11.4732 11.5544 11.122L14.312 8.36404C14.6633 8.01277 15.2336 8.01277 15.5846 8.36404C15.9362 8.71567 15.9362 9.28534 15.5846 9.63694L12.827 12.3946C12.6515 12.5703 12.4211 12.6583 12.1907 12.6583Z" fill="#C1C1C1"/>
<path fill-rule="evenodd" clip-rule="evenodd" d="M4.21803 15.5397C3.98763 15.5397 3.75753 15.4518 3.58173 15.2763C3.23013 14.9246 3.23013 14.3549 3.58143 14.0033L4.00383 13.581C4.35543 13.2297 4.92483 13.2297 5.27643 13.581C5.62803 13.9325 5.62803 14.5023 5.27673 14.8538L4.85463 15.2759C4.67883 15.4518 4.44843 15.5397 4.21803 15.5397Z" fill="#C1C1C1"/>
<path fill-rule="evenodd" clip-rule="evenodd" d="M7.60341 12.1543C7.37301 12.1543 7.14261 12.0663 6.96711 11.8906C6.61551 11.5392 6.61551 10.9693 6.96681 10.6179L9.52131 8.06346C9.87261 7.71216 10.4426 7.71216 10.7939 8.06346C11.1455 8.41506 11.1455 8.98473 10.7942 9.33636L8.24001 11.8906C8.06421 12.0663 7.83381 12.1543 7.60341 12.1543Z" fill="#C1C1C1"/>
</svg>
