<svg width="24" height="24" viewBox="0 0 24 24" fill="none" xmlns="http://www.w3.org/2000/svg">
<path fill-rule="evenodd" clip-rule="evenodd" d="M9.09903 17.25C9.01623 17.1066 8.83263 17.0574 8.68923 17.1402L8.10003 17.4804V16.8C8.10003 16.6344 7.96563 16.5 7.80003 16.5C7.63443 16.5 7.50003 16.6344 7.50003 16.8V17.4804L6.91083 17.1402C6.76713 17.0574 6.58383 17.1066 6.50103 17.25C6.41793 17.3934 6.46743 17.577 6.61083 17.6598L7.20003 18L6.61083 18.3402C6.46743 18.423 6.41793 18.6066 6.50103 18.75C6.55653 18.8463 6.65733 18.9 6.76113 18.9C6.81183 18.9 6.86343 18.8871 6.91083 18.8598L7.50003 18.5196V19.2C7.50003 19.3656 7.63443 19.5 7.80003 19.5C7.96563 19.5 8.10003 19.3656 8.10003 19.2V18.5196L8.68923 18.8598C8.73663 18.8871 8.78793 18.9 8.83893 18.9C8.94273 18.9 9.04353 18.8463 9.09903 18.75C9.18183 18.6066 9.13263 18.423 8.98923 18.3402L8.40003 18L8.98923 17.6598C9.13263 17.577 9.18183 17.3934 9.09903 17.25Z" fill="#70C8F9"/>
<path fill-rule="evenodd" clip-rule="evenodd" d="M13.299 17.25C13.2162 17.1066 13.0326 17.0574 12.8892 17.1402L12.3 17.4804V16.8C12.3 16.6344 12.1656 16.5 12 16.5C11.8344 16.5 11.7 16.6344 11.7 16.8V17.4804L11.1108 17.1402C10.9674 17.0574 10.7838 17.1066 10.701 17.25C10.6179 17.3934 10.6674 17.577 10.8108 17.6598L11.4 18L10.8108 18.3402C10.6674 18.423 10.6179 18.6066 10.701 18.75C10.7565 18.8463 10.8573 18.9 10.9611 18.9C11.0118 18.9 11.0634 18.8871 11.1108 18.8598L11.7 18.5196V19.2C11.7 19.3656 11.8344 19.5 12 19.5C12.1656 19.5 12.3 19.3656 12.3 19.2V18.5196L12.8892 18.8598C12.9366 18.8871 12.9879 18.9 13.0389 18.9C13.1427 18.9 13.2435 18.8463 13.299 18.75C13.3818 18.6066 13.3326 18.423 13.1892 18.3402L12.6 18L13.1892 17.6598C13.3326 17.577 13.3818 17.3934 13.299 17.25Z" fill="#70C8F9"/>
<path fill-rule="evenodd" clip-rule="evenodd" d="M17.3892 18.3402L16.8 18L17.3892 17.6598C17.5329 17.577 17.5818 17.3934 17.499 17.25C17.4162 17.1066 17.2329 17.0574 17.0892 17.1402L16.5 17.4804V16.8C16.5 16.6344 16.3656 16.5 16.2 16.5C16.0344 16.5 15.9 16.6344 15.9 16.8V17.4804L15.3108 17.1402C15.1671 17.0574 14.9838 17.1066 14.901 17.25C14.8182 17.3934 14.8674 17.577 15.0108 17.6598L15.6 18L15.0108 18.3402C14.8674 18.423 14.8182 18.6066 14.901 18.75C14.9565 18.8463 15.0573 18.9 15.1611 18.9C15.2121 18.9 15.2637 18.8871 15.3108 18.8598L15.9 18.5196V19.2C15.9 19.3656 16.0344 19.5 16.2 19.5C16.3656 19.5 16.5 19.3656 16.5 19.2V18.5196L17.0892 18.8598C17.1366 18.8871 17.1882 18.9 17.2389 18.9C17.3427 18.9 17.4435 18.8463 17.499 18.75C17.5818 18.6066 17.5329 18.423 17.3892 18.3402Z" fill="#70C8F9"/>
<path fill-rule="evenodd" clip-rule="evenodd" d="M17.9323 7.62C17.9323 9.3432 16.5355 10.74 14.8123 10.74C13.0891 10.74 11.6923 9.3432 11.6923 7.62C11.6923 5.8968 13.0891 4.5 14.8123 4.5C16.5355 4.5 17.9323 5.8968 17.9323 7.62Z" fill="#FFBC09"/>
<path fill-rule="evenodd" clip-rule="evenodd" d="M16.32 9.30051H14.3037C13.8588 7.10961 11.922 5.46051 9.59999 5.46051C6.94889 5.46051 4.79999 7.60971 4.79999 10.2605C4.79999 12.9116 6.94889 15.0605 9.59999 15.0605H16.32C17.9106 15.0605 19.2 13.7711 19.2 12.1805C19.2 10.5899 17.9106 9.30051 16.32 9.30051Z" fill="#E0E0E0"/>
</svg>
