<svg width="24" height="24" viewBox="0 0 24 24" fill="none" xmlns="http://www.w3.org/2000/svg">
<path fill-rule="evenodd" clip-rule="evenodd" d="M17.3076 8.04738H14.8329C14.2071 5.40228 11.8362 3.43188 9 3.43188C5.6862 3.43188 3 6.11838 3 9.43189C3 12.7457 5.6862 15.4319 9 15.4319H17.3076C19.3467 15.4319 21 13.7789 21 11.7398C21 9.70039 19.3467 8.04738 17.3076 8.04738Z" fill="#E0E0E0"/>
<path fill-rule="evenodd" clip-rule="evenodd" d="M15.3144 13.8604L9.79347 20.4784C9.60867 20.6998 9.25797 20.4835 9.37257 20.2189L11.2962 15.7813C11.3679 15.6163 11.247 15.4321 11.0673 15.4321H8.87697C8.69727 15.4321 8.57637 15.2479 8.64777 15.0829L11.0106 9.63791C11.0502 9.54671 11.1402 9.48761 11.2395 9.48761H13.6464C13.8264 9.48761 13.947 9.67181 13.8756 9.83681L12.459 13.1014C12.3876 13.2664 12.5082 13.4506 12.6882 13.4506H15.1227C15.3345 13.4506 15.45 13.6978 15.3144 13.8604Z" fill="#FFBC09"/>
</svg>
