<svg width="24" height="24" viewBox="0 0 24 24" fill="none" xmlns="http://www.w3.org/2000/svg">
<path fill-rule="evenodd" clip-rule="evenodd" d="M13.2125 11.9994C13.2125 12.6621 12.6752 13.1994 12.0125 13.1994C11.3498 13.1994 10.8125 12.6621 10.8125 11.9994C10.8125 11.3367 11.3498 10.7994 12.0125 10.7994C12.6752 10.7994 13.2125 11.3367 13.2125 11.9994Z" fill="#C1C1C1"/>
<path fill-rule="evenodd" clip-rule="evenodd" d="M10.9795 19.0578C10.9591 19.0578 10.9387 19.0569 10.9177 19.0551C10.0183 18.9822 9.13478 18.7458 8.29148 18.3528C4.93358 16.7868 3.29138 13.176 4.63058 10.3038C5.29028 8.88899 6.55628 7.86929 8.19518 7.43189C9.78578 7.00769 11.5453 7.18589 13.1497 7.93409C14.3845 8.50979 15.3427 9.42479 15.9208 10.5798C16.1062 10.95 15.9562 11.4006 15.5857 11.586C15.2149 11.7714 14.7649 11.6214 14.5795 11.2512C14.1484 10.3896 13.4542 9.73109 12.5158 9.29369C11.2297 8.69399 9.83288 8.54759 8.58188 8.88119C7.37918 9.20219 6.45878 9.93239 5.99018 10.9374C5.00018 13.0602 6.31688 15.7767 8.92538 16.9932C9.60668 17.3109 10.3177 17.5017 11.0395 17.5602C11.4523 17.5938 11.7598 17.9556 11.7262 18.3684C11.6944 18.7608 11.3662 19.0578 10.9795 19.0578Z" fill="#C1C1C1"/>
<path fill-rule="evenodd" clip-rule="evenodd" d="M14.0498 16.7922C12.9737 16.7922 11.8751 16.5468 10.841 16.0644C9.6062 15.4887 8.648 14.5737 8.0702 13.419C7.8848 13.0485 8.0348 12.5979 8.4053 12.4125C8.7755 12.2271 9.2261 12.3771 9.4118 12.7476C9.8426 13.6089 10.5368 14.2674 11.4749 14.7051C12.761 15.3048 14.1581 15.4512 15.4091 15.1173C16.6118 14.7966 17.5319 14.0664 18.0008 13.0611C18.4694 12.0558 18.4373 10.8816 17.9099 9.75423C17.3615 8.58123 16.3511 7.60503 15.0653 7.00563C14.3843 6.68793 13.6733 6.49713 12.9515 6.43863C12.5387 6.40503 12.2312 6.04323 12.2648 5.63013C12.2984 5.21733 12.6569 4.90983 13.0733 4.94343C13.9727 5.01663 14.8562 5.25303 15.6995 5.64603C17.3039 6.39423 18.5714 7.62753 19.2686 9.11853C19.9874 10.6551 20.0198 12.2805 19.3601 13.695C18.7004 15.1095 17.4347 16.1295 15.7955 16.5666C15.2303 16.7175 14.6435 16.7922 14.0498 16.7922Z" fill="#C1C1C1"/>
</svg>
