<svg width="24" height="24" viewBox="0 0 24 24" fill="none" xmlns="http://www.w3.org/2000/svg">
<path d="M11.9335 17.16C12.5775 17.16 13.1005 17.682 13.1005 18.327C13.1005 18.971 12.5775 19.493 11.9335 19.493C11.2885 19.493 10.7665 18.971 10.7665 18.327C10.7665 17.682 11.2885 17.16 11.9335 17.16ZM8.05747 14.5658C10.1945 12.4288 13.6725 12.4288 15.8095 14.5658C16.1025 14.8588 16.1025 15.3338 15.8095 15.6268C15.6625 15.7728 15.4715 15.8458 15.2795 15.8458C15.0875 15.8458 14.8955 15.7728 14.7485 15.6268C13.1965 14.0738 10.6705 14.0748 9.11847 15.6268C8.82547 15.9198 8.35047 15.9198 8.05747 15.6268C7.76447 15.3338 7.76447 14.8588 8.05747 14.5658ZM11.9335 8.60242C14.5615 8.60242 17.0325 9.62542 18.8915 11.4844C19.1835 11.7774 19.1835 12.2514 18.8915 12.5444C18.7445 12.6914 18.5525 12.7644 18.3605 12.7644C18.1685 12.7644 17.9765 12.6914 17.8305 12.5444C14.5785 9.29342 9.28747 9.29342 6.03647 12.5444C5.74347 12.8374 5.26847 12.8374 4.97547 12.5444C4.68347 12.2514 4.68347 11.7774 4.97547 11.4844C6.83447 9.62542 9.30547 8.60242 11.9335 8.60242Z" fill="black"/>
<path d="M21.7963 8.57888C16.3583 3.13987 7.50834 3.14087 2.07034 8.57888C1.77734 8.87088 1.77734 9.34687 2.07034 9.63987C2.36334 9.93287 2.83834 9.93287 3.13134 9.63987C7.98534 4.78587 15.8823 4.78587 20.7353 9.63987C20.8823 9.78587 21.0743 9.85887 21.2663 9.85887C21.4583 9.85887 21.6503 9.78587 21.7963 9.63987C22.0893 9.34687 22.0893 8.87088 21.7963 8.57888Z" fill="black" fill-opacity="0.3"/>
</svg>
