<svg width="24" height="24" viewBox="0 0 24 24" fill="none" xmlns="http://www.w3.org/2000/svg">
<path fill-rule="evenodd" clip-rule="evenodd" d="M10.7891 14.0119C10.7891 13.3399 11.3331 12.7949 12.0071 12.7949C12.6801 12.7949 13.2251 13.3399 13.2241 14.0119C13.2241 14.6859 12.6791 15.2309 12.0071 15.2299C11.3341 15.2309 10.7891 14.6859 10.7891 14.0119Z" fill="black"/>
<path d="M14.6172 11.3948C13.9472 10.7248 13.0212 10.3108 12.0002 10.3108C10.9772 10.3108 10.0532 10.7248 9.38319 11.3948M17.0371 8.97482C15.7481 7.68582 13.9671 6.88782 12.0001 6.88782C10.0321 6.88782 8.25109 7.68582 6.96209 8.97482M19.419 6.59302C17.521 4.69502 14.898 3.52002 12 3.52002C9.10299 3.52002 6.47999 4.69502 4.57999 6.59302M17.752 14.4202C17.918 14.4202 18.081 14.4852 18.211 14.6032L20.024 16.2602C20.29 16.5032 20.326 16.8982 20.105 17.1402C18.136 19.2952 15.366 20.4822 12.307 20.4822C9.26699 20.4822 6.30699 19.3082 3.97499 17.1772C3.84399 17.0582 3.76399 16.8972 3.75199 16.7262C3.73899 16.5642 3.78999 16.4112 3.89499 16.2972L5.41599 14.6312C5.52099 14.5172 5.67599 14.4502 5.83999 14.4502C6.00699 14.4502 6.16999 14.5152 6.30199 14.6352C6.32399 14.6552 6.34799 14.6752 6.37399 14.6962L6.42899 14.7432C7.03899 15.2792 7.70599 15.7232 8.40899 16.0612C8.62399 16.1662 8.77399 16.3732 8.79999 16.6022L8.80099 16.6132L8.95999 17.7152L8.99399 17.9452L9.21699 18.0102C9.70399 18.1522 10.216 18.2612 10.738 18.3342C11.037 18.3772 11.348 18.4042 11.688 18.4212C11.862 18.4302 12.038 18.4352 12.211 18.4352C13.2 18.4352 14.163 18.2942 15.072 18.0172L15.369 17.9272L15.325 17.6202L15.181 16.6152L15.178 16.5952C15.163 16.4312 15.216 16.2732 15.319 16.1572C15.361 16.1112 15.413 16.0712 15.467 16.0432C16.168 15.6712 16.794 15.1872 17.327 14.6032C17.434 14.4862 17.588 14.4202 17.752 14.4202Z" stroke="black" stroke-width="1.5" stroke-linecap="round" stroke-linejoin="round"/>
</svg>
