<svg width="24" height="24" viewBox="0 0 24 24" fill="none" xmlns="http://www.w3.org/2000/svg">
<path d="M6.44067 9.26001L11.711 14.5303M11.7114 9.26001L6.44107 14.5303" stroke="black" stroke-width="1.5" stroke-linecap="round" stroke-linejoin="round"/>
<path d="M17.9604 19.8154C18.6698 19.71 19.2695 20.3097 19.1641 21.0201C19.0988 21.4629 18.7383 21.8265 18.2945 21.8982C17.5788 22.011 16.9685 21.4017 17.0824 20.685C17.1519 20.2412 17.5166 19.8807 17.9604 19.8154Z" fill="black"/>
<path d="M10.8815 18.749H3.8309C2.3816 18.749 1.1958 17.5631 1.1958 16.1138V13.2394V7.6813C1.1958 6.232 2.3816 5.0462 3.8309 5.0462H14.5064C15.9558 5.0462 17.1416 6.232 17.1416 7.6813V9.138L21.1987 6.7812C21.3357 6.6989 21.477 6.6578 21.6161 6.6578C21.9439 6.6578 22.277 6.9108 22.277 7.3936V11.3948M15.7151 18.4494C16.3307 17.8338 17.1824 17.4523 18.1226 17.4523C19.0628 17.4523 19.9145 17.8338 20.5301 18.4494M13.4421 16.1766C14.6395 14.9782 16.2954 14.2372 18.1231 14.2372C19.9509 14.2372 21.6058 14.9782 22.8042 16.1766" stroke="black" stroke-width="1.5" stroke-linecap="round" stroke-linejoin="round"/>
</svg>
