<svg width="24" height="24" viewBox="0 0 24 24" fill="none" xmlns="http://www.w3.org/2000/svg">
<path fill-rule="evenodd" clip-rule="evenodd" d="M15.64 10.7237C16.2176 10.7237 16.6855 11.1917 16.6855 11.7682C16.6855 12.3458 16.2176 12.8127 15.64 12.8127C15.0634 12.8127 14.5955 12.3458 14.5955 11.7682C14.5955 11.1917 15.0634 10.7237 15.64 10.7237ZM15.6401 7.51492C16.7994 7.51492 17.8888 7.96612 18.7088 8.78602C19.0148 9.09202 19.0148 9.58823 18.7088 9.89423C18.5563 10.0467 18.3568 10.124 18.1552 10.124C17.9557 10.124 17.7541 10.0467 17.6016 9.89423C17.0773 9.36993 16.3806 9.08162 15.6401 9.08162C14.8995 9.08162 14.2029 9.36993 13.6785 9.89423C13.3735 10.2002 12.8764 10.2002 12.5714 9.89423C12.2653 9.58823 12.2653 9.09202 12.5714 8.78602C13.3913 7.96612 14.4817 7.51492 15.6401 7.51492ZM10.2483 6.53762C13.2189 3.56822 18.0506 3.56822 21.0201 6.53762C21.3251 6.84262 21.3251 7.33982 21.0201 7.64582C20.8666 7.79832 20.6671 7.87462 20.4655 7.87462C20.266 7.87462 20.0644 7.79832 19.9119 7.64582C17.5524 5.28642 13.715 5.28642 11.3565 7.64582C11.0505 7.95192 10.5544 7.95192 10.2483 7.64582C9.94229 7.33982 9.94229 6.84262 10.2483 6.53762ZM15.6401 1.15002C18.4999 1.15002 21.1873 2.26342 23.2105 4.28552C23.5165 4.59162 23.5165 5.08772 23.2105 5.39372C23.058 5.54622 22.8564 5.62252 22.6569 5.62252C22.4553 5.62252 22.2558 5.54622 22.1023 5.39372C20.3758 3.66722 18.081 2.71672 15.6401 2.71672C13.1991 2.71672 10.9044 3.66722 9.17789 5.39372C8.87179 5.69982 8.37669 5.69982 8.07069 5.39372C7.76469 5.08772 7.76469 4.59162 8.07069 4.28552C10.0918 2.26342 12.7813 1.15002 15.6401 1.15002Z" fill="black"/>
<path fill-rule="evenodd" clip-rule="evenodd" d="M12.0594 16.0791L11.6073 16.5303C11.202 16.9357 10.8772 17.0205 10.562 17.0153C10.3047 17.011 9.96436 16.83 9.88726 16.7789C7.35666 15.3309 6.16586 13.2238 5.93286 12.7725C5.91816 12.744 5.78996 12.4867 5.77606 12.2287C5.75966 11.9143 5.85486 11.5895 6.26106 11.1842L6.71316 10.7321C7.11416 10.3285 7.20766 10.0038 7.19386 9.69198C7.17906 9.37668 7.05356 9.04158 6.60836 8.59638L5.48596 7.47488C5.04166 7.02968 4.70566 6.90408 4.39126 6.88938C4.07776 6.87468 3.75386 6.96818 3.35026 7.37008L3.34766 7.37268L3.34596 7.37348C2.06676 8.65528 1.77756 9.87558 1.83726 11.1409C1.87536 11.9273 2.08406 12.7474 2.66866 13.6871C2.66866 13.6871 4.73686 17.0716 8.73456 19.8768C8.78126 19.9097 8.82896 19.9426 8.87566 19.9738C8.94676 20.0223 9.09486 20.1201 9.09656 20.1184C10.0389 20.7065 10.8616 20.9161 11.6515 20.9542C12.9159 21.0139 14.1362 20.7247 15.4171 19.4455L15.4188 19.4438L15.4214 19.4403C15.8241 19.0384 15.9176 18.7137 15.9021 18.4002C15.8873 18.0858 15.7617 17.7498 15.3157 17.3063L14.1951 16.1839C13.7508 15.7379 13.4147 15.6123 13.0995 15.5976C12.7868 15.5838 12.4621 15.6773 12.0594 16.0791Z" stroke="black" stroke-width="1.5" stroke-linecap="round" stroke-linejoin="round"/>
</svg>
