<svg width="24" height="24" viewBox="0 0 24 24" fill="none" xmlns="http://www.w3.org/2000/svg">
<g clip-path="url(#clip0_702_2933)">
<path fill-rule="evenodd" clip-rule="evenodd" d="M11.288 12.764C12.482 12.764 13.458 13.74 13.458 14.934V16.049L16.716 14.157C16.826 14.091 16.939 14.057 17.051 14.057L17.13 14.063C17.365 14.1 17.58 14.298 17.58 14.648V21.136C17.58 21.516 17.322 21.716 17.068 21.716C16.948 21.716 16.829 21.676 16.713 21.6L13.46 19.72V20.843C13.46 22.035 12.483 23.013 11.29 23.013H2.82601C1.63301 23.013 0.656006 22.035 0.656006 20.843V14.934C0.656006 13.741 1.63301 12.764 2.82601 12.764H11.288ZM15.552 10.721C16.177 10.721 16.684 11.228 16.684 11.853C16.684 12.478 16.177 12.984 15.552 12.984C14.926 12.984 14.42 12.478 14.42 11.853C14.42 11.228 14.926 10.721 15.552 10.721ZM15.552 7.24498C16.808 7.24498 17.989 7.73497 18.876 8.62197C19.208 8.95297 19.208 9.49097 18.876 9.82197C18.711 9.98797 18.494 10.072 18.276 10.072C18.059 10.072 17.842 9.98797 17.676 9.82197C17.109 9.25497 16.354 8.94198 15.552 8.94198C14.75 8.94198 13.995 9.25397 13.428 9.82197C13.097 10.154 12.559 10.154 12.227 9.82197C11.896 9.49097 11.896 8.95397 12.227 8.62197C13.115 7.73497 14.296 7.24498 15.552 7.24498ZM9.71201 6.18698C12.928 2.97098 18.162 2.96898 21.379 6.18698C21.709 6.51698 21.709 7.05498 21.379 7.38698C21.213 7.55198 20.996 7.63498 20.779 7.63498C20.562 7.63498 20.344 7.55198 20.179 7.38598C17.624 4.83098 13.467 4.83198 10.911 7.38598C10.581 7.71798 10.043 7.71798 9.71101 7.38598C9.38001 7.05598 9.38001 6.51798 9.71101 6.18598L9.71201 6.18698ZM15.552 0.349976C18.65 0.349976 21.562 1.55498 23.752 3.74598C24.082 4.07698 24.082 4.61498 23.752 4.94598C23.586 5.11198 23.37 5.19398 23.152 5.19398C22.935 5.19398 22.717 5.11198 22.552 4.94598C20.682 3.07598 18.197 2.04598 15.552 2.04598C12.908 2.04598 10.422 3.07598 8.55201 4.94598C8.22001 5.27798 7.68401 5.27798 7.35201 4.94598C7.02101 4.61498 7.02101 4.07698 7.35201 3.74598C9.54201 1.55598 12.454 0.349976 15.552 0.349976Z" fill="black"/>
</g>
<defs>
<clipPath id="clip0_702_2933">
<rect width="24" height="24" fill="white"/>
</clipPath>
</defs>
</svg>
