<svg width="24" height="24" viewBox="0 0 24 24" fill="none" xmlns="http://www.w3.org/2000/svg">
<path fill-rule="evenodd" clip-rule="evenodd" d="M4.53684 6.77062C4.87104 6.78622 5.22624 6.91892 5.69514 7.38892L6.88274 8.57542C7.35384 9.04652 7.48644 9.40163 7.50104 9.73483C7.51674 10.0638 7.41754 10.4075 6.99344 10.8346L6.51514 11.312C6.08584 11.7413 5.98454 12.0859 6.00224 12.417C6.01684 12.6896 6.15164 12.9623 6.16834 12.9925C6.41484 13.4688 7.67344 15.6978 10.3504 17.23C10.4319 17.2833 10.7922 17.4755 11.0648 17.4796C11.398 17.4849 11.7406 17.395 12.1688 16.9668L12.6472 16.4895C13.0734 16.0654 13.417 15.9651 13.7481 15.9808C14.0813 15.9954 14.4364 16.1291 14.9064 16.5991L16.0919 17.7867C16.563 18.2567 16.6956 18.6119 16.7123 18.944C16.728 19.2751 16.6298 19.6187 16.2037 20.0449L16.2005 20.048C14.8438 21.4027 13.5528 21.7087 12.2158 21.645C11.3813 21.6053 10.5102 21.3829 9.51384 20.7614C9.51174 20.7624 9.35604 20.6601 9.28084 20.6079C9.23184 20.5755 9.18164 20.541 9.13154 20.5066C5.63874 18.0552 3.53804 15.1855 2.91304 14.2615L2.82664 14.1321C2.77724 14.0571 2.74414 14.005 2.72764 13.9787L2.71524 13.9587C2.09794 12.9664 1.87764 12.0985 1.83794 11.266C1.77424 9.92912 2.07914 8.63812 3.43284 7.28342L3.43494 7.28132C3.86314 6.85412 4.20674 6.75392 4.53684 6.77062ZM15.64 10.7237C16.2176 10.7237 16.6855 11.1917 16.6855 11.7682C16.6855 12.3458 16.2176 12.8127 15.64 12.8127C15.0634 12.8127 14.5955 12.3458 14.5955 11.7682C14.5955 11.1917 15.0634 10.7237 15.64 10.7237ZM15.6401 7.51492C16.7994 7.51492 17.8888 7.96612 18.7088 8.78602C19.0148 9.09202 19.0148 9.58823 18.7088 9.89423C18.5563 10.0467 18.3568 10.124 18.1552 10.124C17.9557 10.124 17.7541 10.0467 17.6016 9.89423C17.0773 9.36993 16.3806 9.08162 15.6401 9.08162C14.8995 9.08162 14.2029 9.36993 13.6785 9.89423C13.3735 10.2002 12.8764 10.2002 12.5714 9.89423C12.2653 9.58823 12.2653 9.09202 12.5714 8.78602C13.3913 7.96612 14.4817 7.51492 15.6401 7.51492ZM10.2483 6.53762C13.2189 3.56822 18.0506 3.56822 21.0201 6.53762C21.3251 6.84262 21.3251 7.33982 21.0201 7.64582C20.8666 7.79832 20.6671 7.87462 20.4655 7.87462C20.266 7.87462 20.0644 7.79832 19.9119 7.64582C17.5524 5.28642 13.715 5.28642 11.3565 7.64582C11.0505 7.95192 10.5544 7.95192 10.2483 7.64582C9.94234 7.33982 9.94234 6.84262 10.2483 6.53762ZM15.6401 1.15002C18.4999 1.15002 21.1873 2.26342 23.2105 4.28552C23.5165 4.59162 23.5165 5.08772 23.2105 5.39372C23.058 5.54622 22.8564 5.62252 22.6569 5.62252C22.4553 5.62252 22.2558 5.54622 22.1023 5.39372C20.3758 3.66722 18.081 2.71672 15.6401 2.71672C13.1991 2.71672 10.9044 3.66722 9.17794 5.39372C8.87184 5.69982 8.37674 5.69982 8.07074 5.39372C7.76474 5.08772 7.76474 4.59162 8.07074 4.28552C10.0918 2.26342 12.7813 1.15002 15.6401 1.15002Z" fill="black"/>
</svg>
