<svg width="24" height="24" viewBox="0 0 24 24" fill="none" xmlns="http://www.w3.org/2000/svg">
<path fill-rule="evenodd" clip-rule="evenodd" d="M8.05752 14.5658C7.76452 14.8588 7.76452 15.3338 8.05752 15.6268C8.35052 15.9198 8.82552 15.9198 9.11852 15.6268C10.6705 14.0748 13.1965 14.0738 14.7485 15.6268C14.8955 15.7728 15.0875 15.8458 15.2795 15.8458C15.4715 15.8458 15.6625 15.7728 15.8095 15.6268C16.1025 15.3338 16.1025 14.8588 15.8095 14.5658C13.6725 12.4288 10.1945 12.4288 8.05752 14.5658Z" fill="black" fill-opacity="0.4"/>
<path fill-rule="evenodd" clip-rule="evenodd" d="M11.9335 8.60242C9.30547 8.60242 6.83447 9.62542 4.97547 11.4844C4.68347 11.7774 4.68347 12.2514 4.97547 12.5444C5.26847 12.8374 5.74347 12.8374 6.03647 12.5444C9.28747 9.29342 14.5785 9.29342 17.8305 12.5444C17.9765 12.6914 18.1685 12.7644 18.3605 12.7644C18.5525 12.7644 18.7445 12.6914 18.8915 12.5444C19.1835 12.2514 19.1835 11.7774 18.8915 11.4844C17.0325 9.62542 14.5615 8.60242 11.9335 8.60242Z" fill="black" fill-opacity="0.4"/>
<path fill-rule="evenodd" clip-rule="evenodd" d="M11.9335 17.16C11.2885 17.16 10.7665 17.682 10.7665 18.327C10.7665 18.971 11.2885 19.493 11.9335 19.493C12.5775 19.493 13.1005 18.971 13.1005 18.327C13.1005 17.682 12.5775 17.16 11.9335 17.16Z" fill="black"/>
<path fill-rule="evenodd" clip-rule="evenodd" d="M21.7963 8.57888C16.3583 3.13987 7.50828 3.14087 2.07027 8.57888C1.77727 8.87088 1.77727 9.34687 2.07027 9.63987C2.36327 9.93287 2.83827 9.93287 3.13127 9.63987C7.98527 4.78587 15.8823 4.78587 20.7353 9.63987C20.8823 9.78587 21.0743 9.85887 21.2663 9.85887C21.4583 9.85887 21.6503 9.78587 21.7963 9.63987C22.0893 9.34687 22.0893 8.87088 21.7963 8.57888Z" fill="black" fill-opacity="0.4"/>
</svg>
