<svg width="24" height="24" viewBox="0 0 24 24" fill="none" xmlns="http://www.w3.org/2000/svg">
<path fill-rule="evenodd" clip-rule="evenodd" d="M12.0002 17.1628C12.6452 17.1628 13.1662 17.6848 13.1662 18.3298C13.1662 18.9748 12.6452 19.4968 12.0002 19.4968C11.3552 19.4968 10.8332 18.9748 10.8332 18.3298C10.8332 17.6848 11.3552 17.1628 12.0002 17.1628ZM8.1243 14.569C10.2613 12.431 13.7383 12.431 15.8763 14.569C16.1693 14.862 16.1693 15.337 15.8763 15.63C15.7293 15.776 15.5373 15.849 15.3463 15.849C15.1533 15.849 14.9623 15.776 14.8153 15.63C13.2633 14.077 10.7373 14.077 9.1853 15.63C8.8923 15.923 8.4173 15.923 8.1243 15.63C7.8313 15.337 7.8313 14.862 8.1243 14.569ZM12.0002 8.60517C14.6282 8.60517 17.0992 9.62817 18.9572 11.4872C19.2502 11.7802 19.2502 12.2552 18.9572 12.5472C18.8112 12.6942 18.6192 12.7672 18.4272 12.7672C18.2352 12.7672 18.0432 12.6942 17.8962 12.5472C14.6462 9.29617 9.3542 9.29617 6.1032 12.5472C5.8112 12.8402 5.3352 12.8402 5.0422 12.5472C4.7492 12.2552 4.7492 11.7802 5.0422 11.4872C6.9002 9.62817 9.3722 8.60517 12.0002 8.60517ZM2.1365 8.58167C7.5755 3.14367 16.4255 3.14367 21.8635 8.58167C22.1565 8.87467 22.1565 9.34967 21.8635 9.64267C21.7175 9.78867 21.5245 9.86167 21.3335 9.86167C21.1405 9.86167 20.9485 9.78867 20.8025 9.64267C15.9485 4.78867 8.0505 4.78867 3.1975 9.64267C2.9045 9.93567 2.4295 9.93567 2.1365 9.64267C1.8435 9.34967 1.8435 8.87467 2.1365 8.58167Z" fill="black"/>
</svg>
