<svg width="24" height="24" viewBox="0 0 24 24" fill="none" xmlns="http://www.w3.org/2000/svg">
<path d="M18.0885 19.8154C18.7979 19.71 19.3977 20.3097 19.2923 21.0201C19.2269 21.4629 18.8664 21.8265 18.4227 21.8982C17.7069 22.011 17.0966 21.4017 17.2105 20.685C17.2801 20.2412 17.6448 19.8807 18.0885 19.8154Z" fill="black"/>
<path d="M11.0097 18.7528H3.95901C2.50971 18.7528 1.32391 17.567 1.32391 16.1176V13.2432V7.68519C1.32391 6.23579 2.50971 5.04999 3.95901 5.04999H14.6346C16.0839 5.04999 17.2697 6.23579 17.2697 7.68519V9.14189L21.3268 6.78499C21.4638 6.70279 21.6051 6.66169 21.7442 6.66169C22.072 6.66169 22.4051 6.91459 22.4051 7.39739V11.3986M15.8433 18.4532C16.4588 17.8376 17.3105 17.4561 18.2507 17.4561C19.191 17.4561 20.0426 17.8376 20.6582 18.4532M13.5702 16.1805C14.7676 14.982 16.4235 14.241 18.2513 14.241C20.079 14.241 21.7339 14.982 22.9323 16.1805" stroke="black" stroke-width="1.5" stroke-linecap="round" stroke-linejoin="round"/>
</svg>
