<svg width="24" height="24" viewBox="0 0 24 24" fill="none" xmlns="http://www.w3.org/2000/svg">
<g clip-path="url(#clip0_702_2935)">
<path d="M14.4648 11.0075C14.4637 10.283 15.1319 9.71709 15.8868 9.88809C16.3031 9.98259 16.6406 10.3212 16.7362 10.7375C16.9072 11.4912 16.3402 12.1595 15.6157 12.1583C14.9801 12.1595 14.4648 11.6442 14.4648 11.0075Z" fill="black"/>
<path d="M18.3738 8.70628C17.7182 8.05068 16.8123 7.64428 15.8121 7.64428C14.8118 7.64428 13.9059 8.05068 13.2503 8.70628M20.7425 6.33658C19.4814 5.07548 17.7371 4.29418 15.8123 4.29418C13.8863 4.29418 12.1432 5.07548 10.881 6.33658M23.0739 4.00538C21.2154 2.14698 18.6479 0.997681 15.8125 0.997681C12.976 0.997681 10.4084 2.14698 8.54998 4.00538M10.9799 13.2241C12.2457 13.2241 13.282 14.2628 13.282 15.532V16.3983L16.419 14.569C16.5249 14.5073 16.6332 14.4736 16.7415 14.4736C16.9953 14.4736 17.2515 14.6692 17.2515 15.043V21.3099C17.2515 21.679 17.0035 21.8711 16.7578 21.8711C16.6425 21.8711 16.5272 21.8339 16.4166 21.7593L13.282 19.9428V20.815C13.282 22.0831 12.2457 23.1217 10.9799 23.1217H3.25168C1.98588 23.1217 0.949585 22.0831 0.949585 20.815V15.532C0.949585 14.2628 1.98588 13.2241 3.25168 13.2241H10.9799Z" stroke="black" stroke-width="1.5" stroke-linecap="round" stroke-linejoin="round"/>
</g>
<defs>
<clipPath id="clip0_702_2935">
<rect width="24" height="24" fill="white"/>
</clipPath>
</defs>
</svg>
