<svg width="24" height="24" viewBox="0 0 24 24" fill="none" xmlns="http://www.w3.org/2000/svg">
<path d="M12.0002 17.1628C12.6452 17.1628 13.1663 17.6848 13.1663 18.3298C13.1663 18.9748 12.6452 19.4968 12.0002 19.4968C11.3552 19.4968 10.8332 18.9748 10.8332 18.3298C10.8332 17.6848 11.3552 17.1628 12.0002 17.1628ZM8.12431 14.569C10.2614 12.4309 13.7384 12.4309 15.8763 14.569C16.1693 14.862 16.1693 15.337 15.8763 15.63C15.7293 15.7759 15.5373 15.849 15.3464 15.849C15.1533 15.849 14.9624 15.7759 14.8154 15.63C13.2633 14.077 10.7373 14.077 9.18526 15.63C8.89231 15.9229 8.41726 15.9229 8.12431 15.63C7.83136 15.337 7.83136 14.862 8.12431 14.569ZM12.0002 8.60519C14.6282 8.60519 17.0993 9.62819 18.9572 11.4871C19.2503 11.7802 19.2503 12.2551 18.9572 12.5472C18.8112 12.6942 18.6192 12.7672 18.4272 12.7672C18.2352 12.7672 18.0432 12.6942 17.8962 12.5472C14.6462 9.29624 9.35416 9.29624 6.10321 12.5472C5.81116 12.8401 5.33521 12.8401 5.04226 12.5472C4.74916 12.2551 4.74916 11.7802 5.04226 11.4871C6.90016 9.62819 9.37216 8.60519 12.0002 8.60519ZM2.13646 8.58164C7.57546 3.14369 16.4255 3.14369 21.8636 8.58164C22.1565 8.87474 22.1565 9.34964 21.8636 9.64274C21.7175 9.78869 21.5246 9.86174 21.3335 9.86174C21.1406 9.86174 20.9486 9.78869 20.8025 9.64274C15.9485 4.78874 8.05051 4.78874 3.19756 9.64274C2.90446 9.93569 2.42956 9.93569 2.13646 9.64274C1.84351 9.34964 1.84351 8.87474 2.13646 8.58164Z" fill="black"/>
</svg>
