<svg width="24" height="24" viewBox="0 0 24 24" fill="none" xmlns="http://www.w3.org/2000/svg">
<g clip-path="url(#clip0_702_2942)">
<mask id="mask0_702_2942" style="mask-type:luminance" maskUnits="userSpaceOnUse" x="0" y="0" width="24" height="24">
<path d="M0 24H24V0H0V24Z" fill="white"/>
</mask>
<g mask="url(#mask0_702_2942)">
<path d="M15 6.33331H9V4.59998C9 4.39998 9.2 4.19998 9.4 4.19998H14.5333C14.7333 4.19998 14.9333 4.39998 14.9333 4.59998V6.33331H15ZM13.4667 17.4666H10.4667L10.9333 13.7333C10.3333 13.4 9.86667 12.7333 9.86667 11.9333C9.86667 10.8 10.8 9.86665 11.9333 9.86665C13.0667 9.86665 14 10.8 14 11.9333C14 12.7333 13.6 13.4 12.9333 13.7333L13.4667 17.4666ZM20.2 6.33331H17.2V4.26665C17.2 3.19998 16.3333 2.33331 15.2 2.33331H8.86667C7.8 2.33331 6.86667 3.19998 6.86667 4.26665V6.33331H3.53334C2.53334 6.33331 1.73334 7.13331 1.73334 8.06665V19.8666C1.73334 20.8666 2.53334 21.6 3.53334 21.6H20.1333C21.1333 21.6 21.9333 20.8 21.9333 19.8666V8.13331C21.9333 7.13331 21.1333 6.33331 20.2 6.33331Z" fill="black"/>
</g>
</g>
<defs>
<clipPath id="clip0_702_2942">
<rect width="24" height="24" fill="white"/>
</clipPath>
</defs>
</svg>
