<svg width="24" height="24" viewBox="0 0 24 24" fill="none" xmlns="http://www.w3.org/2000/svg">
<path d="M9.5 7.57749V6.67249C9.5 5.98349 10.061 5.42249 10.75 5.42249H13.25C13.939 5.42249 14.5 5.98349 14.5 6.67249V7.57749H9.5ZM13.25 3.92249H10.75C9.233 3.92249 8 5.15649 8 6.67249V7.57749H6.25C4.875 7.57749 3.75 8.70249 3.75 10.0775V17.5775C3.75 18.9525 4.875 20.0775 6.25 20.0775H17.75C19.125 20.0775 20.25 18.9525 20.25 17.5775V10.0775C20.25 8.70249 19.125 7.57749 17.75 7.57749H16V6.67249C16 5.15649 14.766 3.92249 13.25 3.92249Z" fill="black"/>
</svg>
