<svg width="24" height="24" viewBox="0 0 24 24" fill="none" xmlns="http://www.w3.org/2000/svg">
<path fill-rule="evenodd" clip-rule="evenodd" d="M11.8092 11.705H11.5375C11.1925 11.705 10.9125 11.425 10.9125 11.08C10.9125 10.7342 11.1925 10.455 11.5375 10.455H11.8092C12.1542 10.455 12.4342 10.7342 12.4342 11.08C12.4342 11.425 12.1542 11.705 11.8092 11.705ZM11.5375 7.74671H11.8092C12.1542 7.74671 12.4342 8.02581 12.4342 8.37171C12.4342 8.71671 12.1542 8.99671 11.8092 8.99671H11.5375C11.1925 8.99671 10.9125 8.71671 10.9125 8.37171C10.9125 8.02581 11.1925 7.74671 11.5375 7.74671ZM8.89251 8.99671H8.62081C8.27581 8.99671 7.99581 8.71671 7.99581 8.37171C7.99581 8.02581 8.27581 7.74671 8.62081 7.74671H8.89251C9.23751 7.74671 9.51751 8.02581 9.51751 8.37171C9.51751 8.71671 9.23751 8.99671 8.89251 8.99671ZM8.89251 11.705H8.62081C8.27581 11.705 7.99581 11.425 7.99581 11.08C7.99581 10.7342 8.27581 10.455 8.62081 10.455H8.89251C9.23751 10.455 9.51751 10.7342 9.51751 11.08C9.51751 11.425 9.23751 11.705 8.89251 11.705ZM12.485 18.6667H16.235C17.405 18.6667 18.3542 17.7625 18.3542 16.6458V11.9392C18.3542 10.8225 17.405 9.91671 16.235 9.91671H14.6042V7.35581C14.6042 6.23921 13.655 5.33331 12.485 5.33331H7.76421C6.59331 5.33331 5.64581 6.23921 5.64581 7.35581V16.6458C5.64581 17.7625 6.59331 18.6667 7.76421 18.6667H9.11081V14.9725C9.11081 14.5125 9.48331 14.1392 9.94421 14.1392H10.0208H11.4025C11.8617 14.1392 12.2358 14.5125 12.2358 14.9725V18.6667H12.485Z" fill="black"/>
</svg>
